<?xml version="1.0" encoding="utf-8"?>
<!-- Generator: Adobe Illustrator 23.0.6, SVG Export Plug-In . SVG Version: 6.00 Build 0)  -->
<svg version="1.1" id="Layer_1" xmlns="http://www.w3.org/2000/svg" xmlns:xlink="http://www.w3.org/1999/xlink" x="0px" y="0px"
	 viewBox="0 0 585 1080" style="enable-background:new 0 0 585 1080;" xml:space="preserve">
<style type="text/css">
	.st0{clip-path:url(#SVGID_2_);}
	.st1{fill:#D7871A;}
</style>
<title>accent</title>
<g>
	<defs>
		<rect id="SVGID_1_" width="582.1" height="1080"/>
	</defs>
	<clipPath id="SVGID_2_">
		<use xlink:href="#SVGID_1_"  style="overflow:visible;"/>
	</clipPath>
	<g class="st0">
		<path class="st1" d="M68.6,160.6c-27.6,43.3-9.8,103.9-9.8,103.9s7.9-56,48.4-79.1s74.1-34.4,62.1-58.2S96.3,117.3,68.6,160.6z"/>
		<path class="st1" d="M64.1,266.4c82.3-127.3,224.1-54.1,224.1-54.1c148.4,57,71.4,140.3,71.4,140.3
			c55.6-85.3-48.1-128.2-48.1-128.2c23.6,44.6-7.9,63.5-21.6,118.1c-20.1,79.8,43.2,142.6,43.2,142.6c0.6-31.9,12.5-51.2,36.2-73.2
			s62.1-56.2,48.3-106c-19.4-70.3-102.2-90-102.2-90C111.6,119.7,64.1,266.4,64.1,266.4z"/>
		<path class="st1" d="M49.3,83.5c-21.5,41.9-4.8,112.7-4.8,112.7c1.7-23.1,12.5-56,25.4-74.7s34.2-44.8,30.3-56
			S70.8,41.7,49.3,83.5z"/>
		<path class="st1" d="M-14.7,185.5c-47.5-19.6-105.3,4.1-101.5,30.5s37.9,16.4,84.3,12s85,36.9,85,36.9S32.9,205.1-14.7,185.5z"/>
		<path class="st1" d="M45.2,367.4c10.2,29.3,44.1,45.9,54.5,33.6s-7.8-23.7-28.4-42.9s-17.4-53.2-17.4-53.2S35,338.1,45.2,367.4z"
			/>
		<path class="st1" d="M-93.9,717.1c21.6,20,79.5-17.5,91.7-73s-29.4-111.6-29.4-111.6s13.1,61.2-20,100.5S-115.4,697.1-93.9,717.1z
			"/>
		<path class="st1" d="M165.6,577.8c0,0,51.4,35.7,54,87.1s-2.9,90.4,26.6,90.3s46.2-67,17.2-115.9S165.6,577.8,165.6,577.8z"/>
		<path class="st1" d="M-38.1,154.3c21.3,7.9,49,28.6,63.7,46.5c0,0-27-67.6-68.7-89.5s-55.3,3.2-52,14.6S-59.4,146.4-38.1,154.3z"
			/>
		<path class="st1" d="M25.6,167.6c0,0,3.8-60.8-7.4-102.6C13.8,48.2,1.7,36.7-8.6,39.5S-23.7,58.2-19.2,75
			C-8.5,115.1,25.6,167.6,25.6,167.6z"/>
		<path class="st1" d="M166.3,59.6c-4.7-6.2-14.4-6.7-21.7-1.2c-17.3,13.1-33.6,43.2-33.6,43.2s32.6-7.1,50.6-20.8
			C168.9,75.3,171,65.8,166.3,59.6z"/>
		<path class="st1" d="M577.8,696c4.4-6.2,3.8-14.2-1.4-18s-13.1-1.8-17.5,4.3c-10.6,14.6-16.3,42.5-16.3,42.5
			S566.7,711.2,577.8,696z"/>
		<path class="st1" d="M63.1,19.6c2.1-8.9-2.4-17.5-9.9-19.3s-15.4,4-17.5,12.9C30.8,34.4,37.3,68,37.3,68S57.9,41.7,63.1,19.6z"/>
		<path class="st1" d="M464.7,705.9c-58.4,32.9-131.8-1-152.6-12c24.8,14.2,122.3,75.8,138.1,172.8
			c18.2,111.3-59.8,108.4-59.8,108.4S512.9,997,513.6,871.9c0.4-70.3-34.1-108-34.1-108s125.2-68.5,9.8-147.4
			C489.3,616.5,533.5,667.2,464.7,705.9z"/>
		<path class="st1" d="M261.6,593.3c0-1.8,0.1-2.8,0.1-2.8S261.6,591.5,261.6,593.3z"/>
		<path class="st1" d="M385.8,477c7.1,55.5,42.8,72.1,43.2,116.7c0,0,30.5-19.6,4.1-104.4c0,0,31.6,58.6-3.8,112.6
			c0,0-30.6,79.3-99.4,60.3c-62.9-17.4-68.1-57.9-68.3-68.9c0.1,12.4,4.4,61.9,65.4,77.3c82.1,20.8,108.5-69.1,108.5-69.1
			s80.1-45.2,48-126.3c-15.6-39.2-45.8-61.8-36.9-112C446.6,363.1,375.6,397.8,385.8,477z"/>
		<path class="st1" d="M-276.7,448.9c36.2,13.9,89.8,21.1,117.2-74.8s86.6-103.3,86.6-103.3c-33.8,9.7-59.1,46.4-67.1,107.2
			s-55.1,70.8-55.1,70.8C-87.2,467-98,392.9-65.6,336.5c45.1-78.7,123.3-61.6,123.3-61.6c-162.9-75.2-237.7-1.7-244.7,74.8
			s-57.4,67.2-70.1,63.1c-18.1-5.8-27.5-26.6-18.3-41.5c10.1-16.3,27.8-20.2,44.4-7.2c18,14,12.3,36.7,12.3,36.7
			c26-22.2,14.9-60.5-10-73.2c-20.2-10.3-60.1-12.6-82.3,16.8S-327.7,429.3-276.7,448.9z"/>
		<path class="st1" d="M-155,910.1c0,0-2.6-1.4-7-4.1c33.2,18.5,73.4,30,117.8,31.9c84.1,3.6,136.1-52.2,164.7-98.7
			c-1.6,7.2-2.7,14.5-3.4,21.8c-4.4,47.3,18.2,99.1-0.3,143.3c-10.9,26.1-42,60-85.2,37.6S0.3,977.9,3,973.6s19.3-22.5,41.2,2.4
			s-8.7,48.8-8.7,48.8c48.2,0,50.4-50.3,33.2-69.4s-49.9-31.3-81-6.1s-30.3,88.7,20.2,117.7c58.2,33.5,113.4-4.1,132.7-42.8
			c25.5-51.1-7.9-106-9.9-155.2c-0.8-19.2,0.8-38.5,4.9-57.3c5.1-10.6,8.6-19.5,10.7-25.3c11.1-30.7,58.5-193.8-34.9-286
			c32.9,21.8,74.8,38.7,120.4,37.4c42.1-1.2,99.4-22,119.9,19.1c11.5,22.9-18.1,48.1-43.1,38.5c-24.2-9.3-16.8-42.9-16.8-42.9
			c-30.3,10.6-35.5,55.4,2,81.7c62.8,44.1,137.2-29.5,98.4-99.8c-29.6-53.8-92.3-44.7-173.8-39.5c-30,1.9-61-5.3-88.4-15.1
			c38.7,3.6,78.1-6.9,100.7-27.1c45.8-40.9,66.2-131.8,15.6-197.4s-144.7-40.4-169.3,10.8s2.9,92.3,35.1,109.9s100.9-2,85-68.6
			c0,0-23,50.1-64.6,28.1s-21.9-50.9-16.9-56.1s58.8-35.4,104,16.9s10.8,110-24,130.1S90.5,446,49.5,402.1s0.4-115.6,0.4-115.6
			s-57,56.7-18.3,132.5c5.6,11.1,13.2,21,22.4,29.4c11.2,14.8,28.5,31.9,50.2,47.3c13.8,15.1,36.9,46.4,48.5,95.1
			c12.1,51,7.9,128.7-17.3,193.4c-53.7,138.1-159,143.3-239,122.4c-76.1-19.9-160.3-105.9-116-184c23.3-41.1,84.9-16.3,75.4,24.5
			c-5.5,23.5-27.1,34.7-40.4,35c0,0,28.4,17.6,48.8,1c36.2-29.4,25.6-86.3-12.4-103.8c-51.7-23.9-97.2,9.3-104.4,72.5
			c-5.3,46.6,13.5,90.1,48.3,123.3c-39.1-33.6-85.6-89.8-76-162.5c0,0,21.2-40.1,51.4-67.9s65.7-110-31.6-185.5
			c0,0,16.1,55.7-9.3,87.3s-56.5,68-23.5,160.6c0,0-14.3-84.8,35.2-116.5c0,0-41.4,31.4-30.8,121.1
			C-288.9,711.7-316.1,830-155,910.1z"/>
		<path class="st1" d="M-162.8,584.3c-9.5,12.1-16.5,37.5-1.4,54.6c49.9,56.4,125.8-6.8,122.5-81.2c-3-69.1-21.8-135.2-10.1-175
			c15.2-51.6,34.9-81.2,73-91.7c-23.4,7.7-57.7,28-60.5,81.8c-4.2,82.1,78.7,91.9,94.4,141.3S0.3,560-6.9,556.8
			c0,0,71.6,55.5,105.9,12s-31.9-91.9-64.3-123.9C17.4,427.9-68,375.4,42.9,286.5c-3.4,0.3-6.8,0.8-10.1,1.5
			c-13.4-0.4-78.4,2.7-103.1,92.1c-20.9,75.5,14,130.5,2.6,178.7c-13.4,56.7-45.7,88-73.5,68.9c-15.4-10.6-16.8-37.6,1.9-56.6
			C-139.3,571.1-154,573-162.8,584.3z"/>
		<path class="st1" d="M126.3,558.3c-3,24.8-27.4,65.3-56,80.4s-77,32.7-75,74.1c1.7,34.5,51.3,61.5,101.9,11
			S126.3,558.3,126.3,558.3z"/>
		<path class="st1" d="M262.3,867.7c0,0,25.7-24.3,52-8.1c29,17.8,27.7,51.3-1.5,63.5c-21.9,9.2-46.1-0.5-66.2-16.2
			c-22.9-17.8-43.6-53.4-36.2-104.5s16.4-96.2-33.4-156.3c0,0,19.5,51.6-5.9,121.5s-34.4,95.9-5.6,175s9.9,99.4-12.2,128.9
			c0,0,94.1-13,86.9-123.9c0,0,55,35.1,105,6.4c43.8-25,40.4-85.4,13.8-108.9C316.4,807.6,272.3,826.1,262.3,867.7z"/>
	</g>
</g>
</svg>
