<svg id="Layer_1" data-name="Layer 1" xmlns="http://www.w3.org/2000/svg" xmlns:xlink="http://www.w3.org/1999/xlink" viewBox="0 0 585 1080"><defs><style>.cls-1{fill:none;}.cls-2{clip-path:url(#clip-path);}.cls-3{fill:#d7871a;}</style><clipPath id="clip-path"><rect class="cls-1" width="582.07" height="1080" transform="translate(582.07 1080) rotate(-180)"/></clipPath></defs><title>accent</title><g class="cls-2"><path class="cls-3" d="M513.47,919.42c27.65-43.33,9.86-103.95,9.86-103.95s-7.94,56-48.37,79.08S400.82,929,412.87,952.78,485.8,962.74,513.47,919.42Z"/><path class="cls-3" d="M517.93,813.64C435.68,941,293.86,867.78,293.86,867.78c-148.4-57-71.35-140.28-71.35-140.28-55.59,85.34,48.11,128.2,48.11,128.2-23.65-44.62,7.89-63.47,21.61-118.06C312.3,657.89,249,595.08,249,595.08c-.63,31.94-12.46,51.2-36.19,73.2s-62.06,56.16-48.33,106c19.38,70.34,102.23,90,102.23,90C470.43,960.29,517.93,813.64,517.93,813.64Z"/><path class="cls-3" d="M532.78,996.48c21.48-41.86,4.77-112.7,4.77-112.7-1.69,23.08-12.49,56-25.36,74.66s-34.18,44.81-30.34,56S511.29,1038.33,532.78,996.48Z"/><path class="cls-3" d="M596.74,894.52C644.28,914.1,702,890.4,698.23,864s-37.94-16.36-84.27-12-85-36.94-85-36.94S549.2,875,596.74,894.52Z"/><path class="cls-3" d="M536.84,712.59c-10.24-29.34-44.11-45.91-54.51-33.62s7.84,23.71,28.41,42.88,17.44,53.24,17.44,53.24S547.08,741.91,536.84,712.59Z"/><path class="cls-3" d="M675.94,362.88c-21.57-20.05-79.48,17.48-91.66,73S613.7,547.52,613.7,547.52s-13.15-61.18,20-100.52S697.52,382.93,675.94,362.88Z"/><path class="cls-3" d="M416.45,502.23s-51.37-35.73-54-87.12,2.89-90.38-26.56-90.3-46.16,67-17.16,115.93S416.45,502.23,416.45,502.23Z"/><path class="cls-3" d="M620.21,925.73c-21.27-7.88-49-28.61-63.66-46.54,0,0,27,67.59,68.65,89.51s55.26-3.24,52-14.59S641.46,933.62,620.21,925.73Z"/><path class="cls-3" d="M556.48,912.44s-3.83,60.76,7.34,102.57c4.5,16.84,16.53,28.25,26.86,25.49s15.1-18.65,10.59-35.5C590.57,964.93,556.48,912.44,556.48,912.44Z"/><path class="cls-3" d="M415.8,1020.38c4.7,6.18,14.41,6.72,21.68,1.19,17.3-13.14,33.62-43.2,33.62-43.2s-32.58,7.09-50.63,20.8C413.19,1004.7,411.1,1014.2,415.8,1020.38Z"/><path class="cls-3" d="M4.3,384c-4.44,6.15-3.81,14.2,1.43,18s13.07,1.85,17.52-4.3c10.56-14.63,16.27-42.47,16.27-42.47S15.34,368.77,4.3,384Z"/><path class="cls-3" d="M519,1060.37c-2.08,8.9,2.36,17.54,9.93,19.31s15.38-4,17.46-12.91c4.95-21.15-1.64-54.72-1.64-54.72S524.14,1038.29,519,1060.37Z"/><path class="cls-3" d="M117.37,374.06c58.4-32.91,131.84,1,152.65,12-24.79-14.22-122.28-75.81-138.13-172.77-18.18-111.23,59.75-108.41,59.75-108.41S69.14,83,68.43,208.1c-.39,70.26,34.12,108,34.12,108s-125.24,68.48-9.79,147.4C92.76,463.54,48.61,412.81,117.37,374.06Z"/><path class="cls-3" d="M320.44,486.75c0,1.81-.06,2.84-.06,2.84S320.47,488.54,320.44,486.75Z"/><path class="cls-3" d="M196.29,603c-7.14-55.49-42.83-72.13-43.23-116.67,0,0-30.49,19.61-4.05,104.41,0,0-31.56-58.56,3.77-112.63,0,0,30.66-79.29,99.36-60.3,62.95,17.4,68.09,57.87,68.3,68.9-.1-12.39-4.38-61.88-65.43-77.31-82.08-20.75-108.5,69.11-108.5,69.11s-80.14,45.21-48,126.32c15.57,39.22,45.81,61.77,36.88,112C135.43,716.86,206.47,682.17,196.29,603Z"/><path class="cls-3" d="M858.81,631.11C822.57,617.18,769,610,741.64,705.94S655,809.2,655,809.2c33.78-9.65,59.07-46.37,67.1-107.19s55.09-70.82,55.09-70.82c-108-18.2-97.14,55.88-129.5,112.35-45.11,78.74-123.26,61.57-123.26,61.57,162.93,75.19,237.72,1.67,244.74-74.83s57.43-67.19,70.13-63.13c18.13,5.79,27.48,26.65,18.29,41.47-10.11,16.3-27.79,20.17-44.44,7.17-18-14-12.34-36.68-12.34-36.68-25.95,22.23-14.9,60.52,10,73.24C831,762.68,870.92,765,893,735.52S909.79,650.71,858.81,631.11Z"/><path class="cls-3" d="M737.1,169.9s2.59,1.39,7,4.07c-33.17-18.45-73.46-30.05-117.76-31.94-84.05-3.58-136.13,52.16-164.69,98.66a183.67,183.67,0,0,0,3.4-21.84c4.41-47.26-18.15-99.13.25-143.32,10.88-26.14,42-60,85.22-37.61s31.23,64.22,28.52,68.49-19.28,22.48-41.18-2.43,8.72-48.8,8.72-48.8c-48.18,0-50.41,50.27-33.14,69.41s49.92,31.3,81,6.11S624.76,42.07,574.21,13C516-20.54,460.83,17.06,441.53,55.78c-25.48,51.11,7.89,106,9.94,155.2a224.34,224.34,0,0,1-4.87,57.3c-5.07,10.56-8.61,19.45-10.73,25.32-11.1,30.65-58.47,193.77,34.91,286-32.93-21.75-74.8-38.65-120.42-37.39-42.06,1.15-99.36,22-119.89-19.06-11.46-22.93,18.1-48.1,43.1-38.49,24.16,9.29,16.76,42.94,16.76,42.94,30.33-10.64,35.51-55.4-2-81.74-62.78-44.07-137.17,29.5-98.4,99.8,29.64,53.75,92.28,44.7,173.83,39.54,29.94-1.89,61,5.3,88.34,15.14-38.71-3.64-78.06,6.86-100.7,27.06-45.84,40.93-66.24,131.84-15.6,197.42s144.75,40.49,169.36-10.72-2.94-92.34-35.05-109.92-100.88,2-85,68.6c0,0,23-50.15,64.59-28.07s21.87,50.93,16.88,56.09-58.8,35.45-104-16.91-10.84-110,24-130.13S491.56,634,532.61,677.92s-.44,115.56-.44,115.56,57-56.65,18.27-132.44A102.67,102.67,0,0,0,528,631.69c-11.2-14.75-28.48-31.94-50.17-47.3-13.77-15.13-36.91-46.38-48.47-95.16-12.09-51-7.87-128.74,17.31-193.41,53.74-138.07,159-143.35,239.06-122.43,76.1,19.89,160.26,105.88,116,184-23.28,41.13-84.94,16.28-75.42-24.53,5.47-23.48,27.11-34.66,40.41-35,0,0-28.4-17.57-48.75-1-36.16,29.42-25.6,86.31,12.39,103.85,51.65,23.86,97.24-9.32,104.4-72.49,5.29-46.64-13.51-90.06-48.32-123.26,39.06,33.58,85.57,89.85,76,162.45,0,0-21.2,40.09-51.4,67.92s-65.7,110,31.6,185.47c0,0-16.12-55.66,9.25-87.3s56.48-68,23.49-160.61c0,0,14.33,84.83-35.24,116.55,0,0,41.36-31.44,30.84-121.12C871,368.27,898.16,250.05,737.1,169.9Z"/><path class="cls-3" d="M744.88,495.66c9.45-12.06,16.48-37.53,1.39-54.59-49.93-56.43-125.77,6.75-122.52,81.15,3,69.12,21.81,135.24,10.11,175C618.7,748.9,599,778.5,560.9,789c23.41-7.67,57.74-28.05,60.52-81.79,4.24-82.13-78.73-91.9-94.44-141.28s54.74-45.86,62-42.68c0,0-71.57-55.54-105.88-12s31.86,91.85,64.28,123.82c17.3,17.07,102.74,69.55-8.14,158.44A76.87,76.87,0,0,0,549.34,792c13.43.35,78.38-2.7,103.11-92.07,20.89-75.52-14-130.46-2.6-178.74,13.37-56.72,45.7-88,73.47-68.93,15.36,10.58,16.83,37.61-1.91,56.64C721.41,508.93,736,507,744.88,495.66Z"/><path class="cls-3" d="M455.79,521.75c2.95-24.84,27.39-65.25,56-80.39s77-32.65,75-74.07c-1.66-34.52-51.34-61.49-101.88-11S455.79,521.75,455.79,521.75Z"/><path class="cls-3" d="M319.79,212.29s-25.7,24.31-52.05,8.14c-29-17.78-27.71-51.29,1.55-63.55,21.87-9.17,46.06.47,66.18,16.15,22.85,17.81,43.59,53.44,36.17,104.53S355.2,373.79,405,433.85c0,0-19.49-51.57,5.88-121.48s34.37-95.91,5.63-175S406.61,38,428.73,8.49c0,0-94.13,13-86.87,123.93,0,0-54.95-35.14-105-6.43-43.71,25-40.38,85.39-13.7,108.89C265.71,272.4,309.83,253.86,319.79,212.29Z"/></g></svg>