<?xml version="1.0" encoding="utf-8"?>
<!-- Generator: Adobe Illustrator 23.0.6, SVG Export Plug-In . SVG Version: 6.00 Build 0)  -->
<svg version="1.1" id="Layer_1" xmlns="http://www.w3.org/2000/svg" xmlns:xlink="http://www.w3.org/1999/xlink" x="0px" y="0px"
	 viewBox="0 0 775 1080" style="enable-background:new 0 0 775 1080;" xml:space="preserve">
<style type="text/css">
	.st0{clip-path:url(#SVGID_2_);}
	.st1{fill:#D7871A;}
</style>
<title>accent</title>
<g>
	<defs>
		<rect id="SVGID_1_" width="775.6" height="1080"/>
	</defs>
	<clipPath id="SVGID_2_">
		<use xlink:href="#SVGID_1_"  style="overflow:visible;"/>
	</clipPath>
	<g class="st0">
		<path class="st1" d="M286.2,532.4c0,0,224.6,47.4,158.2-101.7c-79.6-179-47.3-220.3-47.3-220.3s-42.9,22.9-43.8,63
			c-1,50.1,11.7,68,18.5,157.1S286.2,532.4,286.2,532.4z"/>
		<path class="st1" d="M261.5,503.1c0,0,69.1-13.8,54-72.6s-70.2-105.6-98.8-126.8s-48.8-49.8-53.9-65.5
			c-11.2-34.8,13.5-42.6,13.5-42.6s-34.5,9.4-40.8,27.8c-7.5,21.7,9.5,76.5,42.1,116.6S272.9,454.8,261.5,503.1z"/>
		<path class="st1" d="M2.1,595.2c0,0,17.9-209.3,93.5-231.1c96.4-27.7,99.7,94.4,99.7,94.4s-26.3-41.7-77.4-12.2
			S2.1,595.2,2.1,595.2z"/>
		<path class="st1" d="M497.1,287.4c16.6-14.6,42.9-26.8,42.9-26.8s-14.1,40.7-3.8,46.3c14,7.7,48.1-28.1,48.4-58.9
			c0.3-27.3,6-49.1,25.8-63.9c16.4-12.1,56.5-29.1,56.5-29.1l106.4-58.2l-58.8,105.8c0,0-15.3,41.9-27.4,58.2
			c-14.7,19.9-36.6,25.5-63.8,25.9c-30.8,0.4-66.6,34.4-58.9,48.4c5.7,10.3,46.3-3.9,46.3-3.9s-12.2,26.3-26.8,43
			c-19.4,22.1-109.1,23-109.8,23l0,0l0,0l0,0l0,0C474.1,396.5,474.9,306.9,497.1,287.4z"/>
		<path class="st1" d="M175.4,729.3c20.4,70.5,23,82.4,42.1,120c0.5,0.9-1.7-0.9-5.8-4.6c3.7,4.1,5.5,6.2,4.6,5.7
			C178.5,831.3,166.7,828.8,95,808C65.6,925.1-16,977.4-16,977.4s58.5-112.3,50-175.2S-29,716,6.9,674.3c8.2-3.3,16.7-5.6,25.5-6.8
			c1.3-8.7,3.6-17.3,6.9-25.5c41.8-35.9,65,18.4,128,27s175.1-50,175.1-50S290.7,699.4,175.4,729.3z"/>
		<path class="st1" d="M393.1,985.3c13.8,34.2,15.7,39.7,26.7,58.1c0.3,0.4-0.8-0.5-2.9-2.4c1.9,2.1,2.9,3.2,2.5,2.9
			c-18.5-11.1-24-12.9-58.1-26.7c-29.4-11.9-22.5-42.4-20.1-50.6c-0.5-0.4-0.7-0.7-0.7-0.7c0.3-0.1,0.7-0.3,1-0.3
			c0.1-0.3,0.2-0.7,0.4-1l0.7,0.7C350.8,962.8,381.2,955.9,393.1,985.3z"/>
		<path class="st1" d="M396.4,910.2c30.3,21,34.8,24.6,54.2,34c0.4,0.2-1,0-3.8-0.4c2.8,0.7,4.1,1.1,3.6,1.1
			c-21.5,0.9-27.2,2.3-63.3,9.5c-31.2,6.1-42.1-23.1-44.5-31.3l-1-0.2c0.2-0.3,0.4-0.6,0.6-0.9c-0.2-0.7-0.3-1-0.3-1l1,0.2
			C348.6,914.5,370.3,892.1,396.4,910.2z"/>
		<path class="st1" d="M287.3,1019.3c21,30.3,24.6,34.8,34,54.2c0.2,0.4,0.1-1-0.4-3.8c0.7,2.8,1.1,4.1,1.1,3.6
			c0.9-21.5,2.3-27.2,9.5-63.3c6.2-31.2-23.1-42.1-31.3-44.5c-0.2-0.6-0.2-1-0.2-1c-0.3,0.2-0.6,0.4-0.9,0.7c-0.3-0.1-0.7-0.2-1-0.2
			c0,0,0.1,0.3,0.2,1C291.6,971.5,269.2,993.2,287.3,1019.3z"/>
		<path class="st1" d="M323.4,904.9c-3.8,5.8-12.9,10.1-12.9,10.1s10-3.3,14.3,0s1.4,17.7,1.4,17.7l-2.9,14.1l0.1,0.1l-0.2,0v0.2
			l-0.1-0.1l-14.1,3c0,0-14.3,2.8-17.6-1.5s0-14.3,0-14.3s-4.3,9.1-10,12.8s-9.5,2-12.9-2.4s1.3-16.7,1.3-16.7s-0.5,8.1,12.4,3.8
			s3.8-22,3.8-22l0.1-0.1c0,0,17.6,9.1,22-3.8s-3.9-12.4-3.9-12.4s12.4-4.8,16.7-1.4S327.2,899.2,323.4,904.9z"/>
		<path class="st1" d="M238.2,766.5c0,0,119,12.2,132,54.5c16.6,53.9-52.7,54.4-52.7,54.4s23.4-14.2,6.3-42.9
			S238.2,766.5,238.2,766.5z"/>
		<path class="st1" d="M138.7,866c0,0,12.2,119,54.6,132c53.9,16.6,54.4-52.7,54.4-52.7s-14.1,23.4-42.9,6.3S138.7,866,138.7,866z"
			/>
		<path class="st1" d="M-80.5,309.5C6,194.6,44.8,154.6,90.3,129.1c54.5-30.5,142.8-55.8,194.7-7.3c28.6,26.7,27.7,79.5-15.6,99.6
			c-41.8,19.4-84.5-16.4-84.6-43.7c0.1,23.4,53.6,51.1,78.2,26.6c19-18.9,7.5-54.1-14.7-69.5C200,101.5,119.8,131.7,83.8,156
			C17.5,200.9-80.5,309.5-80.5,309.5z"/>
		<path class="st1" d="M-102.5,304.9c-26-124.8-30.4-172-22.2-211.3C-114.8,46.5-83.6-11.6-25.3,2c32,7.5,64.7,47.5,54.2,81.8
			c-10.2,33.1-55.4,25-72.6,4.5c14.8,17.6,60.7,14.8,58.4-14.5C13,51.2-15.2,29.8-36.8,28c-46.8-3.8-70.6,54.3-74.6,88.6
			C-118.5,179.8-102.5,304.9-102.5,304.9z"/>
	</g>
</g>
</svg>
