<?xml version="1.0" encoding="utf-8"?>
<!-- Generator: Adobe Illustrator 23.0.6, SVG Export Plug-In . SVG Version: 6.00 Build 0)  -->
<svg version="1.1" id="OBJECTS" xmlns="http://www.w3.org/2000/svg" xmlns:xlink="http://www.w3.org/1999/xlink" x="0px" y="0px"
	 viewBox="0 0 500 500" style="enable-background:new 0 0 500 500;" xml:space="preserve">
<style type="text/css">
	.st0{fill:#B47618;}
</style>
<title>accent</title>
<path class="st0" d="M473.6,145.3c-0.9-0.2-1.9-0.3-2.8-0.5c2.1-13.1,3.8-26.2,5.5-39.1c0.7-5.3-7.7-5.3-8.4,0c0,0.3-0.1,0.6-0.1,1
	c-30.8,15.2-63.8,25.2-94.6,39.1c13.9-20.8,15.1-49.4,12.3-75.7c2.9-1.5,4.8-4.2,5.4-7.4c1.7-9.6-8.1-18-17-12.7
	c-2.8,1.6-4.6,4.5-4.9,7.6c-1.1,3.4-0.4,7.2,1.9,9.9c2,2.3,4.9,3.6,7.9,3.9c3.4,28,2.2,59.4-16.6,79.6c-5.6,2.8-11.1,5.7-16.5,8.9
	c0.2-5.1-1.5-11-2.4-15.2c-3.3-16.3-11-31.5-20.1-45.3c-21.4-32.6-51.6-58.8-64.7-96.4c-0.7-2.2-3-3.4-5.2-2.8
	c-1,0.3-1.8,0.9-2.3,1.8c-32.7,51.6-100.2,101.8-89.8,169.8c-1.5-0.8-3-1.6-4.6-2.4c-19-25.7-36.6-69.8-20.1-99.4
	c1.4,0.6,2.9,0.8,4.4,0.7c5.1-0.4,9.4-3.8,11-8.6c1.5-5.2-1.1-10.6-5.6-13.4c-4.6-2.9-10.6-2.3-14.4,1.6c-3.6,3.6-4.6,9.4-1.7,13.7
	l0.1,0.1c0.3,0.5,0.5,1,0.9,1.5c-8.7,13.2-7.5,34.3-5.6,48.4c2.4,17.8,9.1,34.9,19.5,49.6c-39.6-19.5-81.4-34.6-115.5-64.6
	c-0.2-2.4-3.4-2.3-4.2-0.3c-0.5,0.6-0.6,1.5-0.4,2.2c-6,49.2,7.2,97.8,33.2,138.4c-0.1,0.8,0.3,1.5,1.1,1.6
	c8.6,13.1,18.5,25.3,29.5,36.5c-0.6,1.3,1,3,2.4,2.4c21.5,21.3,47.1,38.1,75.2,49.4c19.5,7.5,39.9,12.5,60.6,14.7
	c-0.9,0.1-1.7,0.2-2.6,0.3c-57.3-11.7-119.3,4.3-162.1,44.7c-6-4.1-15.9-2-20.3,3.5C35,401,42,412.7,52,415
	c11.1,2.5,21.7-9.1,16.2-19.9c-0.4-0.8-0.9-1.6-1.5-2.3c41.9-35.3,93.8-52.8,148.2-47.2c-25.6,5.7-48.3,20.8-64.5,42.5
	c-1.5,2,0.1,5.5,2.4,6c25.5,5.3,54.5-1.3,74.7-18c-13.5,39.5,5.4,85.1,25.6,122.1c1.1,1.8,3.4,2.3,5.1,1.3c0.5-0.3,1-0.7,1.3-1.3
	c18.4-35.5,35.2-81.5,22-119c20,16.1,45.6,26.4,69,20.8c1.4-0.4,2.4-1.4,2.8-2.8c4.1-15.4-18.8-30.4-29.8-37.5
	c-11.1-7.2-23.3-12.3-36.2-15.3c52.8-2,106.4,4.6,148,39.7c-2.5,3.9-3.3,9.5-1.3,13.4c4.9,9.4,20,12.6,26.3,2.9
	c0.5-0.7,0.9-1.5,1.2-2.4c5.8-3,8.7-9.5,7.1-15.8c-1.6-7-7.8-12.3-15.1-11.4c-5.3,0.7-9.8,4.1-12,9c-0.5,0.1-1.1,0.2-1.6,0.4
	c-35.2-30.8-81.6-41.4-127.4-40.9c49.7-11,95-37.2,121.5-80.3c13.8-22.5,22.7-47.3,28.9-72.9c0.6-0.6,0.8-1.5,0.6-2.3
	c2.6-11.1,4.8-22.4,6.7-33.7c0.7,0.2,1.5,0.3,2.2,0.4C475.6,151.3,477,146,473.6,145.3z M57.2,395.8c-2.1,1.2-3.4,3.4-3.5,5.8
	c-0.3-0.3-0.5-0.7-0.6-1.2C52.4,397.5,54.6,395.6,57.2,395.8z M460.7,384.4c0,0.2,0,0.3,0,0.5c-1.3-2.6-3.5-4.7-6.2-5.8
	C457.3,378.8,460,380.3,460.7,384.4z M347.9,167.4c3.4-1.6,6.7-3.5,9.8-5.6c12.5-6.7,25.4-12.4,38.8-17c16-5.7,32.9-10.7,48.9-17.4
	c-7.6,52.6-25.5,104.9-65.4,141.8c-32.8,30.4-76.7,48.4-121.3,51c5.2-50,23.2-95.5,61.1-131.3C328.4,180.7,337.8,173.5,347.9,167.4z
	 M251,320.4l-2.7,0c0-31.4-4.3-60.6-18-86.1c0.5-8.1,2.8-15.7,9.2-21.9c7.9-7.7,19.7-9.9,28.1-1.6c5,4.9,7.4,11.7,10.3,17.9
	C261.4,256.6,251.1,288.6,251,320.4z M251.8,336.4c-1.3,0-2.6-0.1-3.8-0.1c0.1-2.7,0.2-5.3,0.3-8h3
	C251.3,331,251.5,333.7,251.8,336.4L251.8,336.4z M232,211c0.2,0.4,0.5,0.7,0.9,0.9c-3.4,4.7-5.6,10.2-6.5,15.9
	c-4-6.4-8.6-12.5-13.7-18.1c-0.6-1.3-1.1-2.6-1.7-3.9c0.2-9,1.5-17.9,3.9-26.6C220.3,190,226.3,200.6,232,211z M217.8,170.9
	c5.2-12.7,13.9-23.3,27.9-26.2c1-0.2,2-0.4,2.9-0.5c0.1,19,0.3,37.8-0.7,56.9c-1.4,0.4-2.7,1-4,1.6c-2.9,1.5-5.6,3.4-7.9,5.6
	C230.4,195.9,224.5,183,217.8,170.9L217.8,170.9z M254.2,143.9c16.6,0.4,26.2,13.4,31.8,29.1c-0.4,0.1-0.7,0.3-1,0.5
	c-9.7,8.5-14.9,20.9-14.3,33.8c-5.1-5.1-11.5-8.1-18.9-7.1C254.5,181.7,255.7,162.5,254.2,143.9L254.2,143.9z M287.9,178.6
	c2.5,9,4.3,18.1,5.2,27.4c-4.3,5.5-8.3,11.3-12,17.3c-1.8-4.4-4.1-8.6-7.1-12.4c0.3-0.3,0.4-0.7,0.4-1.1
	C274.2,197.9,279.1,186.6,287.9,178.6L287.9,178.6z M256.5,19.6c8.8,18.5,21.1,34.7,34.1,50.8c10.1,12.5,20.5,25,28.9,38.7
	c4.4,7.1,8.2,14.6,11.3,22.3c2,5.1,8.4,21.3,6.9,28.3c-0.1,0.1-0.2,0.1-0.3,0.1l-0.8,0.5c-1.7,1.1-2.7,3.6-1.4,5.5l0.3,0.4
	c-10.8,7.1-20.7,15.4-29.6,24.8c-0.9,1-1.9,2.1-2.8,3.1c3.2-27.4-1.4-54.8-9.9-81.2c-5.2-16.5-11.8-32.4-18.4-48.3
	c-3.5-8.5-7.1-17-10.6-25.5c-1.6-3.9-7.3-13.1-7.8-19.2L256.5,19.6z M252.5,27c2.2,9.2,6.7,18.5,10,26.8c5.8,15,12.1,29.8,17.6,44.9
	c10.3,28.4,17.3,57.3,15.6,87c-5.5-24.8-18-49.8-46.5-47.4c-16.2,1.4-27.8,12.5-34.6,26.6c-0.1-0.3-0.3-0.5-0.4-0.8
	c-1.9-3.2-6.3-0.4-4.9,2.9c0.7,1.7,1.6,3.3,2.3,5c-2.5,7.2-4,14.6-4.5,22.2C191,138.1,224.1,78.2,252.5,27z M243.7,26.5
	c-28.4,48.9-63.1,116.4-44.5,170.2c-2.4-2-4.8-3.9-7.4-5.8c-7.6-5.5-15.6-10.7-23.8-15.3C162.2,113.7,208.8,72.2,243.7,26.5
	L243.7,26.5z M162.1,181.9c17.6,9.7,34.6,21.3,48,36.3c2.3,3.3,4.8,6.4,7.6,9.3c2.9,4,5.5,8.1,7.8,12.4c0.1,0.3,0.3,0.5,0.4,0.8
	c0.6,7.9,2.2,15.7,4.7,23.3c0.4,1.3,2.7,1.2,2.5-0.3c-0.4-3.2-0.9-6.5-1.4-9.9c7.6,21.2,8.4,43.9,8.3,66.4
	c-99.4-4.2-172.8-90.9-178-187.4C93.1,152.6,130.2,164.3,162.1,181.9z M29.7,106.3c7.9,8.7,16.9,16.3,26.6,22.9
	c-0.2,5.8-0.2,11.6,0.1,17.4c-5.9-2.4-13.6-3.1-20.4-2.4l-3.6-0.3C30.7,131.4,29.8,118.9,29.7,106.3z M33,148.1h1
	c4.9,0.7,9.8,1.5,14.8,2.2c0.5,0.1,1,0,1.5-0.2c2.1,0.6,4.2,1,6.4,1.3c1,11.7,3.2,23.3,6.4,34.7c-6.6,1.4-13.1,3.1-19.6,4.9
	C38.8,176.9,35.2,162.6,33,148.1z M44.8,194.4c6.6-1.2,13.2-2.4,19.7-4c4.1,12.9,9.5,25.3,16.2,37.1c-5.4,1.9-10.8,4.9-16,7.7
	C56.6,222.3,50,208.7,44.8,194.4L44.8,194.4z M90.4,268.4c-8.9-9.3-16.9-19.4-23.8-30.2c5.6-2,11.3-4.1,16.3-6.9
	c6.8,11.4,14.8,22.1,23.7,32c-0.2,0-0.3,0.1-0.4,0.2c-4.1,2.7-7.9,5.9-11.7,9C93.2,271.1,91.8,269.8,90.4,268.4L90.4,268.4z
	 M132.7,302.6c-12.7-7.8-24.5-16.9-35.3-27.2c3.9-2.7,7.9-5.3,11.5-8.3c0.2-0.2,0.4-0.4,0.5-0.7c9.7,10.2,20.3,19.4,31.9,27.5
	c-2,1.2-3.8,2.6-5.4,4.3C134.8,299.5,133.7,301,132.7,302.6L132.7,302.6z M180.9,325c-15.5-5.1-30.4-11.8-44.5-20.1
	c0.8-1.2,1.8-2.4,2.9-3.4c2-1.9,4.4-2.7,6.6-4.3c0,0,0.1-0.1,0.1-0.1c12.2,8.1,25.4,14.7,39.1,19.9
	C183.6,319.5,182.3,322.3,180.9,325z M185.3,326.5c1.6-2.6,3.3-5.1,4.8-7.8c16.1,5.5,32.8,8.7,49.8,9.5c0,2.7-0.1,5.3-0.1,8
	C221.2,335.1,202.9,331.9,185.3,326.5L185.3,326.5z M241,351c-1.2,1.5-2.5,3-3.7,4.5c-24.4,9.1-48.7,18.8-72.9,28.4
	C184.3,362.3,211.4,351.2,241,351z M164.2,387.6c21.5-7.5,42.9-15.1,64.3-23C210.9,380.8,189,390.1,164.2,387.6L164.2,387.6z
	 M244,358.8l0.7-0.3c1.5-0.6,2.2-2.3,1.7-3.7c0,0,0,0,0,0c0.4-0.6,0.8-1.3,1.1-1.9c0,0.3,0,0.6,0.1,0.9c1.9,6.1,4.3,11.7,5.1,18.1
	c0.5,4,0,8.2,0.2,12.2c-8.1,0.1-16.3,3.2-21.9,9C233.4,381.1,237.8,369.5,244,358.8z M232.5,431.3c0.1,0.2,0.2,0.4,0.4,0.6
	c4.3,5.7,10.6,9.4,17.6,10.5c0,0.2-0.1,0.3-0.1,0.5c-0.3,11.9,0.1,23.9,0.8,35.9C243.4,463.5,236.5,447.6,232.5,431.3z M256.2,488.3
	l-0.9-1.7c1-14.5,1.7-29.3,1.3-43.8c0,0,0,0,0-0.1c6.7-0.1,13.1-2.4,18.2-6.6c0.4-0.4,0.8-0.8,1.3-1.2
	C271.9,453.6,264.2,472.1,256.2,488.3L256.2,488.3z M269.5,430.1c-8.8,7.4-24.1,6.3-30.8-3.4c-7.2-10.4-3.1-24.4,5.9-32.1
	c0.2-0.2,0.4-0.4,0.5-0.7c7.8-2.8,16.4-2.5,23.4,3.4C277.8,405.2,279.2,421.8,269.5,430.1L269.5,430.1z M275.8,393.1
	c-4.7-4.7-10.7-7.7-17.3-8.5c3.3-9.5,0.5-23.6-3.9-31.8c13.1,11,21.5,26.4,23.7,43.3C277.5,395,276.7,394,275.8,393.1L275.8,393.1z
	 M294.9,379.5c-7.6-4.3-14.7-9.6-21-15.7c-0.7-1.1-1.4-2.1-2.2-3.2c19.5,11.1,39.1,22,58.7,32.9C318.2,391.1,299,381.8,294.9,379.5
	L294.9,379.5z M312,362.1c7.3,4,36.2,20.8,28.2,30.5c-25-13.5-50.1-27-75.3-40.1c-1-1-1.9-2-3-3C279.7,350.5,296.1,353.4,312,362.1z
	 M257.4,336.3c0.1-2.8,0.3-5.5,0.5-8.2c15.5-0.8,30.9-3.4,45.9-7.7c1.1,3.5,2.3,7.1,3.7,10.5C291,334.2,274.2,336,257.4,336.3
	L257.4,336.3z M312.3,329.9c-1.7-3.5-3.8-7-5.8-10.3c15.2-4.6,29.7-10.8,43.5-18.7c1,2.3,2.1,4.5,3.1,6.7s2.1,5.4,3.8,7.6
	C342.6,321.7,327.7,326.7,312.3,329.9L312.3,329.9z M364.2,311.7c-0.3-0.3-0.7-0.6-1.1-0.8c-0.8-0.5-1.7-0.5-2.5,0
	c-0.1-0.2-0.2-0.4-0.4-0.5c-0.5-0.9-1-1.7-1.5-2.6c-0.7-1.3-1.5-2.7-2.2-4c-0.9-1.7-1.8-3.5-2.8-5.2c9.9-5.9,19.2-12.7,27.9-20.2
	c3.9-3.4,7.6-7,11.1-10.7c2.8,2.2,5.4,4.6,7.7,7.3c1.8,2.1,3.3,4.5,4.9,6.8C393.3,293.9,379.5,304,364.2,311.7L364.2,311.7z
	 M420.3,264.3c-3.4,4.7-7,9.2-11,13.5c-3.3-5.2-8.6-9.7-13.5-13.2c10-11,18.6-23,25.8-36c4.9,2.4,9.9,5.3,15,7.6
	C432.1,246,426.6,255.4,420.3,264.3L420.3,264.3z M438.9,231.4c-4.9-2.4-10.2-4.3-15.1-6.5c7.1-13.4,12.9-27.5,17.4-42
	c4.4,0.6,8.8,1.4,13.2,2.5C450.6,201.1,445.4,216.5,438.9,231.4L438.9,231.4z M455.6,180.4c-4.3-1.1-8.6-1.7-13-1.8
	c3-10.1,5.5-20.5,7.5-30.9c3.9,0.1,7.8,0.5,11.7,1C460.1,159.2,458,169.8,455.6,180.4L455.6,180.4z M462.6,143.8
	c-3.9-0.3-7.8-0.4-11.7-0.2c1.2-6.5,2.3-13,3.2-19.5c0-0.2,0-0.5-0.1-0.7c4.3-2,8.5-4.3,12.6-6.8C465.3,125.6,464,134.6,462.6,143.8
	L462.6,143.8z"/>
<path class="st0" d="M103.9,177.3c-3.4-2.6-8.2-2.7-11.7-0.3c-0.7,0.2-1.3,0.4-1.8,0.8c-3.9,2.5-4.2,8.2-2.3,12.1
	c1.9,4,6.1,7,10.7,6.5c4.2-0.6,7.6-3.8,8.5-8C108.1,184.3,107.2,179.9,103.9,177.3z"/>
<path class="st0" d="M137.8,236c-1.6-1-3.6-1.7-5.4-0.8c-1,0.6-2,1.3-2.7,2.2c-0.9,0.1-1.8,0.3-2.6,0.6c-3.4,1.5-5.3,5.2-4.4,8.8
	c1.4,7.2,11.2,11.7,17,6.4C144.5,248.7,143.5,239.5,137.8,236z"/>
<path class="st0" d="M207,280.4c-2.7-4-7.9-5.4-12.3-3.3c-2.8,1.4-4.3,4.3-3.9,7.4c-1.6,6.3,1.2,13.5,7.9,15.4s14.6-2.5,14.5-9.8
	C213.1,285.9,210.7,282.2,207,280.4z"/>
<path class="st0" d="M314,283c-1.9-6.6-11.5-8-15.1-2.9c-2.1,0.9-3.7,2.7-4.4,4.9c-1.1,3.7,0.6,7.8,4.1,9.6
	C306,298.8,316.4,291.7,314,283z"/>
<path class="st0" d="M379.4,233c0.1-0.4,0-0.9-0.3-1.2c-3.3-5-10.5-6-15.4-2.6c-5.3,3.7-4.8,11.6-0.6,15.9
	c4.8,4.9,12.6,3.2,15.8-2.6C380.7,239.5,380.8,236,379.4,233z"/>
<path class="st0" d="M417.6,185.4c-0.1-1.7-1.2-3.1-2.8-3.6c-0.4-0.7-1-1.2-1.7-1.5c-0.3-0.6-0.9-1-1.5-1.1c-4.4-0.8-9,0.9-11.8,4.3
	c-1.6,1.8-2.6,4-2.9,6.3c0,0.5,0,0.9,0.2,1.4c-0.4,1-0.7,2.1-0.7,3.2c-0.1,3.1,3.5,3.9,5.5,2.3c0.1-0.1,0.2-0.2,0.3-0.3
	c5.3,2.4,10.5-0.3,12.8-4.7C416.6,190.1,417.7,187.8,417.6,185.4z"/>
<path class="st0" d="M261.4,407.5c-3.8-4.3-11.1-4.9-15.3-0.9c-1.5,1.5-2.5,3.5-2.8,5.6c-0.2,0.9-0.4,1.7-0.5,2.6
	c-0.3,4.3,1.8,8.7,5.7,10.6c4.8,2.4,10.2-0.2,13-4.4C264.3,417.1,264.7,411.3,261.4,407.5z"/>
</svg>
