<?xml version="1.0" encoding="utf-8"?>
<!-- Generator: Adobe Illustrator 23.0.6, SVG Export Plug-In . SVG Version: 6.00 Build 0)  -->
<svg version="1.1" id="Layer_1" xmlns="http://www.w3.org/2000/svg" xmlns:xlink="http://www.w3.org/1999/xlink" x="0px" y="0px"
	 viewBox="0 0 635 1080" style="enable-background:new 0 0 635 1080;" xml:space="preserve">
<style type="text/css">
	.st0{clip-path:url(#SVGID_2_);}
	.st1{fill:#D7871A;}
</style>
<title>accent</title>
<g>
	<defs>
		<rect id="SVGID_1_" width="636.1" height="1080"/>
	</defs>
	<clipPath id="SVGID_2_">
		<use xlink:href="#SVGID_1_"  style="overflow:visible;"/>
	</clipPath>
	<g class="st0">
		<path class="st1" d="M474.9,158.2c-23.4-5.4-47.6-4.9-68,6c-49.5,26.4-66.6,76-67.2,129.3c53.3-0.7,102.9-17.8,129.3-67.3
			C479.9,205.8,480.4,181.6,474.9,158.2z M633.1,540c-12.7-20.4-30.2-37.1-52.3-43.9c-53.7-16.3-100.8,6.7-138.9,43.9
			c38.1,37.2,85.2,60.2,138.9,43.8C602.9,577.1,620.4,560.4,633.1,540z M474.9,921.8c5.5-23.4,4.9-47.6-5.9-68
			c-26.4-49.5-76-66.6-129.3-67.2c0.7,53.3,17.7,102.8,67.2,129.3C427.3,926.8,451.5,927.3,474.9,921.8z M93.1,1080
			c20.4-12.7,37.1-30.2,43.8-52.3c16.3-53.7-6.7-100.8-43.8-138.9c-37.2,38.1-60.2,85.3-43.9,138.9C56,1049.8,72.7,1067.3,93.1,1080
			z M-288.7,921.8c23.4,5.4,47.6,4.9,68-6c49.5-26.4,66.6-76,67.2-129.3c-53.3,0.7-102.8,17.7-129.3,67.2
			C-293.6,874.2-294.2,898.4-288.7,921.8z M-446.9,540c12.7,20.4,30.2,37.1,52.3,43.8c53.7,16.3,100.8-6.7,138.9-43.8
			c-38.1-37.2-85.3-60.2-138.9-43.9C-416.7,502.9-434.2,519.6-446.9,540z M-288.7,158.2c-5.5,23.4-4.9,47.6,6,68
			c26.4,49.5,76,66.6,129.3,67.2c-0.7-53.3-17.7-102.8-67.2-129.3C-241.1,153.2-265.3,152.7-288.7,158.2z M93.1,0
			C72.7,12.7,56,30.2,49.3,52.3C32.9,106,55.9,153.1,93.1,191.2c37.2-38.1,60.2-85.2,43.9-138.9C130.2,30.2,113.5,12.7,93.1,0z
			 M93.1,141.7C81.8,119.6,77.7,95,84.9,68.3c1.8-6.5,4.5-12.7,8.2-18.3c3.6,5.7,6.4,11.8,8.2,18.3C108.6,95,104.4,119.6,93.1,141.7
			z M374.7,258.4c7.7-23.6,22.1-44,46.1-57.7c5.8-3.3,12.2-5.8,18.7-7.2c-1.4,6.6-3.8,12.9-7.2,18.7
			C418.7,236.2,398.4,250.7,374.7,258.4z M491.4,540c22.2-11.3,46.7-15.4,73.4-8.2c6.5,1.8,12.7,4.5,18.3,8.2
			c-5.7,3.6-11.8,6.4-18.3,8.2C538.1,555.4,513.5,551.3,491.4,540z M374.7,821.6c23.6,7.7,44,22.1,57.7,46.1
			c3.3,5.8,5.8,12.2,7.2,18.7c-6.6-1.4-12.9-3.8-18.7-7.2C396.9,865.6,382.5,845.3,374.7,821.6z M93.1,938.3
			c11.3,22.2,15.4,46.7,8.2,73.4c-1.8,6.5-4.5,12.7-8.2,18.3c-3.6-5.7-6.4-11.8-8.2-18.3C77.7,985,81.8,960.4,93.1,938.3z
			 M-188.5,821.6c-7.7,23.6-22.1,44-46.1,57.7c-5.8,3.3-12.2,5.8-18.7,7.2c1.4-6.6,3.8-12.9,7.2-18.7
			C-232.5,843.8-212.1,829.3-188.5,821.6z M-305.2,540c-22.2,11.3-46.7,15.4-73.4,8.2c-6.5-1.8-12.7-4.5-18.3-8.2
			c5.7-3.6,11.8-6.4,18.3-8.2C-351.9,524.6-327.3,528.8-305.2,540z M-188.5,258.4c-23.6-7.7-44-22.1-57.7-46.1
			c-3.3-5.8-5.8-12.2-7.2-18.7c6.6,1.4,12.9,3.8,18.7,7.2C-210.6,214.4-196.2,234.8-188.5,258.4L-188.5,258.4z M93.1,280.6
			C83.4,284,74,288,64.7,292.4C43.3,303,24.2,317.8,8.6,335.9c-23.8-1.7-47.8,1.3-70.4,9c-9.7,3.4-19.2,7.3-28.4,11.7
			c-4.4,9.2-8.3,18.7-11.7,28.4c-7.7,22.6-10.7,46.6-9,70.4c-18.1,15.7-32.8,34.8-43.4,56.2c-4.5,9.2-8.4,18.7-11.8,28.4
			c3.4,9.7,7.4,19.1,11.8,28.4c10.6,21.4,25.4,40.5,43.4,56.2c-1.7,23.8,1.3,47.8,9,70.5c3.4,9.7,7.3,19.2,11.7,28.4
			c9.2,4.4,18.7,8.3,28.4,11.7c22.7,7.7,46.6,10.7,70.4,9c15.7,18.1,34.8,32.8,56.2,43.4c9.2,4.5,18.7,8.4,28.4,11.8
			c9.7-3.4,19.1-7.4,28.4-11.8c21.4-10.6,40.5-25.4,56.2-43.4c23.8,1.7,47.8-1.3,70.4-9c9.7-3.4,19.2-7.3,28.4-11.7
			c4.4-9.2,8.3-18.7,11.7-28.4c7.6-22.7,10.7-46.6,9-70.4c18.1-15.7,32.8-34.8,43.4-56.2c4.5-9.2,8.4-18.7,11.9-28.4
			c-3.4-9.7-7.4-19.1-11.8-28.4c-10.6-21.4-25.4-40.5-43.4-56.2c1.7-23.8-1.4-47.8-9-70.4c-3.4-9.7-7.3-19.2-11.7-28.4
			c-9.3-4.4-18.7-8.3-28.4-11.7c-22.6-7.7-46.6-10.7-70.4-9c-15.7-18.1-34.8-32.8-56.2-43.4C112.3,288,102.8,284,93.1,280.6z
			 M88.5,528.9c1.5,0.6,3.1,1.1,4.6,1.7c1.5-0.5,3.1-1.1,4.6-1.7c0.7,1.5,1.4,3,2.1,4.5c1.5,0.7,3,1.4,4.4,2.1
			c-0.6,1.5-1.1,3.1-1.7,4.6c0.6,1.5,1.1,3.1,1.7,4.6c-1.5,0.7-3,1.4-4.4,2.1c-0.7,1.5-1.4,3-2.1,4.5c-1.5-0.6-3.1-1.1-4.6-1.7
			c-1.6,0.5-3.1,1.1-4.6,1.7c-0.7-1.5-1.4-3-2.1-4.5c-1.5-0.7-3-1.4-4.5-2.1c0.6-1.5,1.1-3.1,1.7-4.6c-0.6-1.5-1.1-3.1-1.7-4.6
			c1.5-0.7,3-1.4,4.5-2.1C87.1,531.8,87.8,530.3,88.5,528.9z M93.1,360.4c-15.1,11.1-28.3,26.8-28.4,45.1s13.2,34,28.4,45.1
			c15.2-11.1,28.6-26.9,28.4-45.1S108.3,371.5,93.1,360.4z M-33.9,413c-2.9,18.5-1,38.9,11.8,52s33.4,14.7,52,11.8
			c2.9-18.6,1.2-39.3-11.8-52S-15.3,410.1-33.9,413z M-86.5,540c11.1,15.2,26.8,28.3,45.1,28.4c18.2,0.2,34-13.2,45.1-28.4
			c-11.1-15.2-26.9-28.6-45.1-28.4C-59.7,511.7-75.4,524.8-86.5,540z M-33.9,667c18.5,2.9,38.9,1,52-11.8s14.7-33.4,11.8-52
			c-18.6-2.9-39.3-1.2-52,11.8S-36.8,648.5-33.9,667z M93.1,719.6c15.2-11.1,28.3-26.8,28.4-45.1s-13.2-34-28.4-45.1
			c-15.2,11.1-28.6,26.9-28.4,45.1S78,708.5,93.1,719.6z M220.1,667c2.9-18.5,1.1-38.9-11.8-52s-33.4-14.7-52-11.8
			c-2.9,18.6-1.2,39.3,11.8,52S201.6,669.9,220.1,667L220.1,667z M272.7,540c-11.1-15.2-26.8-28.3-45.1-28.4
			c-18.2-0.2-34,13.2-45.1,28.4c11.1,15.2,26.9,28.6,45.1,28.4C245.9,568.3,261.6,555.2,272.7,540L272.7,540z M220.1,413
			c-18.5-2.9-38.9-1-52,11.8s-14.7,33.4-11.8,52c18.6,2.9,39.3,1.2,52-11.8S223,431.5,220.1,413z M93.1,500.3
			c-7.5-3.6-14.7-7.7-21.5-12.3c-1.6,8.1-3.8,16.1-6.6,23.9c-7.8,2.8-15.8,5-23.9,6.6c4.6,6.9,8.7,14.1,12.3,21.5
			c-3.5,7.5-7.6,14.7-12.3,21.5c8.1,1.6,16.1,3.8,23.9,6.6c2.8,7.8,5,15.8,6.6,23.9c6.9-4.6,14.1-8.7,21.5-12.3
			c7.5,3.6,14.7,7.6,21.5,12.3c1.6-8.1,3.8-16.1,6.6-23.9c7.8-2.8,15.8-5,23.9-6.6c-4.6-6.9-8.7-14.1-12.3-21.5
			c3.5-7.5,7.6-14.7,12.3-21.5c-8.1-1.6-16.1-3.8-23.9-6.6c-2.8-7.8-5-15.8-6.6-23.9C107.8,492.6,100.6,496.7,93.1,500.3L93.1,500.3
			z M25.1,375.9c12.3-29,40.9-52.4,68-65c27.1,12.7,55.7,36,68,65c29.2-11.9,65.9-8.1,94.1,2.1c10.2,28.1,13.9,64.8,2.1,94.1
			c29,12.3,52.4,40.9,65,68c-12.6,27.1-36,55.7-65,68c11.8,29.2,8.1,65.9-2.1,94.1c-28.2,10.2-64.8,13.9-94.1,2.1
			c-12.3,29-40.9,52.4-68,65c-27.1-12.7-55.7-36-68-65c-29.2,11.8-65.9,8.1-94.1-2.1c-10.2-28.1-13.9-64.8-2.1-94.1
			c-29-12.3-52.4-40.9-65-68c12.7-27.1,36-55.7,65-68c-11.8-29.2-8.2-65.9,2.1-94.1C-40.8,367.7-4.1,364,25.1,375.9L25.1,375.9z"/>
		<path class="st1" d="M81.7,239.4C42,255.1-25.5,278.6-15.9,220.8C-2.3,162.3,51,209.9,81.7,239.4z M-127.5,335.5
			c-17,39.2-48.2,103.5-82.2,55.9C-241.5,340.4-170.1,336.4-127.5,335.5z M-207.5,551.4c15.6,39.7,39.1,107.3-18.6,97.7
			C-284.6,635.4-237,582.1-207.5,551.4z M-111.4,760.6c39.2,17,103.5,48.2,55.9,82.2C-106.5,874.6-110.5,803.2-111.4,760.6
			L-111.4,760.6z M104.5,840.6c39.7-15.7,107.3-39.2,97.7,18.6C188.5,917.7,135.2,870.1,104.5,840.6L104.5,840.6z M313.7,744.5
			c17-39.2,48.2-103.5,82.2-55.9C427.7,739.6,356.3,743.6,313.7,744.5L313.7,744.5z M393.7,528.6c-15.7-39.7-39.1-107.2,18.6-97.6
			C470.9,444.6,423.2,497.9,393.7,528.6L393.7,528.6z M297.6,319.4c-39.2-17-103.5-48.1-55.9-82.2
			C292.7,205.4,296.8,276.8,297.6,319.4z M202.2,220.8c9.6,57.7-58,34.2-97.7,18.6C135.2,209.9,188.5,162.3,202.2,220.8L202.2,220.8
			z M-55.5,237.2c47.6,34.1-16.8,65.2-55.9,82.2C-110.5,276.8-106.5,205.4-55.5,237.2z M-226.1,431c57.7-9.6,34.2,58,18.6,97.7
			C-237,497.9-284.6,444.6-226.1,431z M-209.7,688.6c34.1-47.6,65.2,16.8,82.2,55.9C-170.1,743.6-241.5,739.6-209.7,688.6
			L-209.7,688.6z M-15.9,859.2c-9.6-57.7,58-34.2,97.7-18.6C51,870.1-2.3,917.7-15.9,859.2z M241.7,842.8
			c-47.6-34.1,16.8-65.2,55.9-82.2C296.8,803.2,292.7,874.6,241.7,842.8z M412.3,649c-57.7,9.6-34.2-58-18.6-97.7
			C423.2,582.1,470.9,635.4,412.3,649z M395.9,391.4c-34.1,47.6-65.2-16.8-82.2-55.9C356.3,336.4,427.7,340.4,395.9,391.4z
			 M93.1,215.6c-21.5-21-45.1-42.6-74-48.3c-32.3-6.5-52.4,18-59.2,46.9c-0.2,1.1-0.3,2.2-0.5,3.3c-0.9-0.7-1.7-1.3-2.6-1.9
			c-25.2-15.7-56.8-18.8-75,8.6c-16.3,24.5-17.8,56.4-18.1,86.5c-30.1,0.4-62,1.8-86.5,18.1c-27.4,18.3-24.3,49.8-8.6,75
			c0.6,0.9,1.3,1.8,2,2.6c-1.1,0.1-2.2,0.3-3.3,0.5c-28.9,6.7-53.4,26.9-46.9,59.2c5.8,28.9,27.3,52.4,48.3,74
			c-21,21.5-42.6,45.1-48.3,74c-6.5,32.3,18,52.4,46.9,59.2c1.1,0.2,2.2,0.3,3.3,0.5c-0.7,0.9-1.3,1.7-2,2.6
			c-15.7,25.2-18.8,56.8,8.6,75c24.5,16.3,56.4,17.8,86.5,18.1c0.4,30.1,1.8,62,18.1,86.5c18.3,27.4,49.8,24.3,75,8.6
			c0.9-0.7,1.8-1.3,2.6-2c0.2,1.1,0.3,2.2,0.5,3.3c6.7,28.9,26.9,53.4,59.2,47c28.9-5.8,52.5-27.3,74-48.3
			c21.5,21,45.1,42.6,74,48.3c32.3,6.5,52.4-18,59.2-47c0.2-1.1,0.3-2.2,0.5-3.3c0.9,0.7,1.8,1.3,2.6,2c25.2,15.7,56.8,18.8,75-8.6
			c16.4-24.5,17.8-56.4,18.1-86.5c30.1-0.4,62-1.8,86.5-18.1c27.4-18.3,24.3-49.8,8.6-75c-0.7-0.9-1.3-1.8-2-2.6
			c1.1-0.2,2.2-0.3,3.2-0.5c28.9-6.7,53.4-26.9,47-59.2c-5.8-28.9-27.3-52.5-48.3-74c21-21.5,42.6-45.1,48.3-74
			c6.5-32.3-18-52.4-47-59.2c-1.1-0.2-2.2-0.3-3.2-0.5c0.7-0.9,1.3-1.8,2-2.6c15.7-25.2,18.8-56.8-8.6-75
			c-24.5-16.3-56.4-17.8-86.5-18.1c-0.4-30.1-1.8-62-18.1-86.5c-18.3-27.4-49.8-24.3-75-8.6c-0.9,0.7-1.8,1.3-2.6,1.9
			c-0.1-1.1-0.3-2.2-0.5-3.3c-6.7-28.9-26.9-53.4-59.2-46.9C138.2,173,114.6,194.6,93.1,215.6z M-15.2,278.6c2.1,1,4.3,1.8,6.5,2.4
			c33.1,9.6,69.9-6.5,101.8-19.4c31.9,12.9,68.6,29,101.7,19.4c2.2-0.6,4.4-1.4,6.5-2.4c0.8,2.2,1.8,4.3,2.9,6.3
			c16.6,30.2,54,44.8,85.7,58.2c13.4,31.6,28,69,58.2,85.6c2,1.1,4.2,2.1,6.3,2.9c-1,2.1-1.8,4.3-2.4,6.5
			c-9.6,33.1,6.5,69.9,19.4,101.8c-12.9,31.9-29,68.6-19.4,101.8c0.6,2.2,1.4,4.4,2.4,6.5c-2.2,0.8-4.3,1.8-6.3,2.9
			c-30.2,16.6-44.8,54-58.2,85.7c-31.6,13.4-69,28-85.6,58.2c-1.1,2-2.1,4.1-2.9,6.3c-2.1-1-4.3-1.8-6.5-2.4
			c-33.1-9.6-69.9,6.5-101.7,19.4c-31.9-12.9-68.6-29-101.8-19.5c-2.2,0.6-4.4,1.4-6.5,2.4c-0.8-2.2-1.8-4.3-2.9-6.3
			c-16.6-30.2-54-44.8-85.7-58.2c-13.4-31.6-28-69-58.2-85.7c-2-1.1-4.1-2.1-6.3-2.9c1-2.1,1.8-4.3,2.4-6.5
			c9.6-33.1-6.5-69.9-19.4-101.8c12.9-31.9,29-68.6,19.4-101.8c-0.6-2.2-1.4-4.4-2.4-6.5c2.2-0.8,4.3-1.8,6.3-2.9
			c30.2-16.6,44.8-54,58.2-85.6c31.6-13.4,69-28,85.7-58.2C-17,282.8-16,280.7-15.2,278.6z"/>
		<path class="st1" d="M-8.1,227.2c0,0.1,0.1,0.2,0.1,0.3c0.4,1.5,1.1,2.8,2,4c1.6,2.7,3.7,5,6.3,6.9c2.6,1.8,5.4,3.2,8.4,4.1
			c8.6,3,18-1.6,21-10.3c0.2-0.6,0.4-1.1,0.5-1.7c1-4.3,1-8.2-0.7-12.3c-2-4.6-6.1-8-11-9.1c-8.1-1.8-17.5,0-23.4,6
			c-0.7,0.7-1.3,1.6-1.8,2.5C-8.8,220.3-9.3,223.9-8.1,227.2z M15.1,218.7c0.4,0.6,0.7,1.2,0.8,1.9
			C15.7,219.9,15.4,219.3,15.1,218.7z"/>
		<path class="st1" d="M194.3,852.8l-0.1-0.3c-0.4-1.5-1.1-2.8-2-4c-1.6-2.7-3.7-5-6.3-6.9c-2.6-1.8-5.4-3.2-8.4-4.1
			c-8.6-3-18,1.6-21,10.3c-0.2,0.6-0.4,1.1-0.5,1.7c-1,4.3-1,8.2,0.7,12.3c2,4.6,6.1,8,11,9.1c8.1,1.9,17.5,0,23.4-6
			c0.7-0.7,1.3-1.6,1.8-2.5C195,859.7,195.5,856.1,194.3,852.8z M171.1,861.3c-0.4-0.6-0.7-1.2-0.8-1.9
			C170.5,860.1,170.8,860.7,171.1,861.3z"/>
		<path class="st1" d="M385.9,689.6l-0.3-0.1c-1.3-0.8-2.8-1.2-4.3-1.4c-3-0.8-6.2-0.9-9.3-0.4c-3.1,0.6-6.1,1.6-8.9,3.1
			c-8.2,4-11.6,13.9-7.6,22.1c0.3,0.5,0.5,1,0.9,1.5c2.4,3.7,5.1,6.5,9.2,8.2c4.7,1.8,10,1.3,14.2-1.3c7-4.4,12.4-12.4,12.3-20.8
			c0-1-0.2-2-0.5-3C391.3,694,389,691.1,385.9,689.6z M375.5,712.1c-0.7-0.1-1.3-0.3-1.9-0.7C374.2,711.6,374.9,711.8,375.5,712.1z"
			/>
		<path class="st1" d="M405.9,438.8l-0.3,0.1c-1.5,0.4-2.8,1.1-4,2c-2.7,1.6-5,3.7-6.9,6.3c-1.8,2.6-3.2,5.4-4.1,8.4
			c-3,8.6,1.6,18,10.3,21c0.6,0.2,1.1,0.4,1.7,0.5c4.3,1,8.2,1,12.3-0.7c4.6-2,8-6.1,9.1-11c1.9-8.1,0-17.5-6-23.4
			c-0.7-0.7-1.6-1.3-2.5-1.8C412.8,438.1,409.2,437.6,405.9,438.8z M414.4,462c-0.6,0.4-1.2,0.7-1.9,0.8
			C413.2,462.6,413.8,462.3,414.4,462z"/>
		<path class="st1" d="M242.7,247.2c0,0.1-0.1,0.2-0.1,0.3c-0.8,1.3-1.2,2.8-1.4,4.3c-0.8,3-0.9,6.2-0.4,9.3
			c0.6,3.1,1.6,6.1,3.1,8.9c4,8.2,13.9,11.6,22.1,7.6c0.5-0.3,1-0.5,1.5-0.9c3.7-2.3,6.5-5.1,8.2-9.2c1.8-4.7,1.3-10-1.4-14.2
			c-4.4-7-12.4-12.4-20.8-12.3c-1,0-2,0.2-3,0.5C247.1,241.9,244.2,244.1,242.7,247.2z M265.2,257.6c-0.1,0.7-0.3,1.3-0.7,1.9
			C264.7,258.9,265,258.3,265.2,257.6L265.2,257.6z"/>
		<path class="st1" d="M194.3,227.2l-0.1,0.3c-0.4,1.5-1.1,2.8-2,4c-1.6,2.7-3.7,5-6.3,6.9c-2.6,1.8-5.4,3.2-8.4,4.1
			c-8.6,3-18-1.6-21-10.3c-0.2-0.6-0.4-1.1-0.5-1.7c-1-4.3-1-8.2,0.7-12.3c2-4.6,6.1-8,11-9.1c8.1-1.9,17.5,0,23.4,6
			c0.7,0.7,1.3,1.6,1.8,2.5C195,220.3,195.5,223.9,194.3,227.2z M171.1,218.7c-0.4,0.6-0.7,1.2-0.8,1.9
			C170.5,219.9,170.8,219.3,171.1,218.7z"/>
		<path class="st1" d="M-8.1,852.8c0-0.1,0.1-0.2,0.1-0.3c0.4-1.5,1.1-2.8,2-4c1.6-2.7,3.7-5,6.3-6.9c2.6-1.8,5.4-3.2,8.4-4.1
			c8.6-3,18,1.6,21,10.3c0.2,0.6,0.4,1.1,0.5,1.7c1,4.3,1,8.2-0.7,12.3c-2,4.6-6.1,8-11,9.1c-8.1,1.8-17.5,0-23.4-6
			c-0.7-0.7-1.3-1.6-1.8-2.5C-8.8,859.7-9.3,856.1-8.1,852.8z M15.1,861.3c0.4-0.6,0.7-1.2,0.8-1.9
			C15.7,860.1,15.4,860.7,15.1,861.3z"/>
		<path class="st1" d="M242.7,832.8c0-0.1-0.1-0.2-0.1-0.3c-0.8-1.3-1.2-2.8-1.4-4.3c-0.8-3-0.9-6.2-0.4-9.3
			c0.6-3.1,1.6-6.1,3.1-8.9c4-8.2,13.9-11.6,22.1-7.6c0.5,0.3,1,0.5,1.5,0.9c3.7,2.3,6.5,5.1,8.2,9.2c1.8,4.7,1.3,10-1.4,14.2
			c-4.4,7-12.4,12.4-20.8,12.3c-1,0-2-0.2-3-0.5C247.1,838.1,244.2,835.9,242.7,832.8z M265.2,822.4c-0.1-0.7-0.3-1.3-0.7-1.9
			C264.7,821.1,265,821.7,265.2,822.4L265.2,822.4z"/>
		<path class="st1" d="M405.9,641.2l-0.3-0.1c-1.5-0.4-2.8-1.1-4-2c-2.7-1.6-5-3.7-6.9-6.3c-1.8-2.6-3.2-5.4-4.1-8.4
			c-3-8.6,1.6-18,10.3-21c0.6-0.2,1.1-0.4,1.7-0.5c4.3-1,8.2-1,12.3,0.7c4.6,2,8,6.1,9.1,11c1.9,8.1,0,17.5-6,23.4
			c-0.7,0.7-1.6,1.3-2.5,1.8C412.8,641.9,409.2,642.4,405.9,641.2z M414.4,618c-0.6-0.4-1.2-0.7-1.9-0.8
			C413.2,617.4,413.8,617.7,414.4,618z"/>
		<path class="st1" d="M385.9,390.4l-0.3,0.1c-1.3,0.8-2.8,1.2-4.3,1.4c-3,0.8-6.2,0.9-9.3,0.4c-3.1-0.6-6.1-1.6-8.9-3.1
			c-8.2-4-11.6-13.9-7.6-22.1c0.3-0.5,0.5-1,0.9-1.5c2.4-3.7,5.1-6.5,9.2-8.2c4.7-1.8,10-1.3,14.2,1.4c7,4.4,12.4,12.4,12.3,20.8
			c0,1-0.2,2-0.5,3C391.3,386,389,388.9,385.9,390.4z M375.5,367.9c-0.7,0.1-1.3,0.3-1.9,0.7C374.2,368.4,374.9,368.2,375.5,367.9z"
			/>
	</g>
</g>
</svg>
