<svg id="Layer_1" data-name="Layer 1" xmlns="http://www.w3.org/2000/svg" xmlns:xlink="http://www.w3.org/1999/xlink" viewBox="0 0 635 1080"><defs><style>.cls-1{fill:none;}.cls-2{clip-path:url(#clip-path);}.cls-3{fill:#d7871a;}</style><clipPath id="clip-path"><rect class="cls-1" width="636.07" height="1080" transform="translate(636.07 1080) rotate(-180)"/></clipPath></defs><title>accent</title><g class="cls-2"><path class="cls-3" d="M161.13,921.84c23.43,5.44,47.6,4.92,68-6,49.51-26.41,66.55-76,67.23-129.25-53.27.67-102.84,17.72-129.25,67.23C156.21,874.24,155.68,898.41,161.13,921.84ZM3,540c12.72,20.42,30.19,37.14,52.27,43.85C108.92,600.19,156,577.19,194.16,540,156,502.81,108.92,479.81,55.23,496.15,33.15,502.86,15.68,519.58,3,540ZM161.13,158.16c-5.45,23.43-4.92,47.6,6,68,26.41,49.51,76,66.56,129.25,67.23-.68-53.26-17.72-102.84-67.23-129.25C208.73,153.24,184.56,152.72,161.13,158.16ZM543,0c-20.41,12.72-37.13,30.18-43.85,52.27C482.78,106,505.77,153.06,543,191.2c37.19-38.14,60.19-85.25,43.86-138.93C580.1,30.18,563.38,12.72,543,0ZM924.8,158.16c-23.43-5.44-47.6-4.92-68,6-49.51,26.41-66.56,76-67.23,129.25,53.27-.67,102.84-17.72,129.25-67.23C929.72,205.76,930.25,181.59,924.8,158.16ZM1083,540c-12.71-20.42-30.18-37.14-52.26-43.85C977,479.81,929.9,502.81,891.76,540c38.14,37.19,85.25,60.19,138.94,43.85C1052.78,577.14,1070.25,560.42,1083,540ZM924.8,921.84c5.45-23.43,4.92-47.6-5.95-68-26.41-49.51-76-66.56-129.25-67.23.67,53.26,17.72,102.84,67.23,129.25C877.2,926.76,901.37,927.28,924.8,921.84ZM543,1080c20.42-12.72,37.14-30.18,43.86-52.27,16.33-53.68-6.67-100.79-43.86-138.93-37.19,38.14-60.18,85.25-43.85,138.93C505.83,1049.82,522.55,1067.28,543,1080Zm0-141.72c11.26,22.16,15.44,46.74,8.18,73.42A65.62,65.62,0,0,1,543,1030a65.89,65.89,0,0,1-8.17-18.32C527.52,985,531.71,960.44,543,938.28ZM261.34,821.63c-7.71,23.62-22.13,44-46.14,57.69a65.85,65.85,0,0,1-18.73,7.18,65.77,65.77,0,0,1,7.17-18.74C217.37,843.76,237.71,829.34,261.34,821.63ZM144.69,540c-22.17,11.25-46.74,15.44-73.42,8.18A65.69,65.69,0,0,1,52.94,540a65.69,65.69,0,0,1,18.33-8.18C98,524.56,122.52,528.75,144.69,540ZM261.34,258.37c-23.63-7.71-44-22.13-57.7-46.13a65.77,65.77,0,0,1-7.17-18.74,65.85,65.85,0,0,1,18.73,7.18C239.21,214.41,253.63,234.75,261.34,258.37ZM543,141.72C531.71,119.56,527.52,95,534.79,68.3A65.89,65.89,0,0,1,543,50a65.62,65.62,0,0,1,8.18,18.32C558.4,95,554.22,119.56,543,141.72ZM824.59,258.37c7.71-23.62,22.13-44,46.13-57.69a66,66,0,0,1,18.74-7.18,65.77,65.77,0,0,1-7.17,18.74C868.56,236.24,848.22,250.66,824.59,258.37ZM941.24,540c22.16-11.25,46.74-15.44,73.42-8.18A65.69,65.69,0,0,1,1033,540a65.69,65.69,0,0,1-18.33,8.18C988,555.44,963.4,551.25,941.24,540ZM824.59,821.63c23.63,7.71,44,22.13,57.7,46.13a65.77,65.77,0,0,1,7.17,18.74,66,66,0,0,1-18.74-7.18C846.72,865.59,832.3,845.25,824.59,821.63ZM543,799.4a273,273,0,0,0,28.37-11.84,179.79,179.79,0,0,0,56.18-43.44,179.88,179.88,0,0,0,70.45-9,274,274,0,0,0,28.43-11.69A270,270,0,0,0,738.07,695a179.81,179.81,0,0,0,9-70.44,180,180,0,0,0,43.45-56.19A271.9,271.9,0,0,0,802.36,540a271.9,271.9,0,0,0-11.83-28.36,180,180,0,0,0-43.45-56.19,179.81,179.81,0,0,0-9-70.44,270,270,0,0,0-11.68-28.43A274,274,0,0,0,698,344.89a179.88,179.88,0,0,0-70.45-9,179.79,179.79,0,0,0-56.18-43.44A273,273,0,0,0,543,280.6a273.78,273.78,0,0,0-28.36,11.84,179.94,179.94,0,0,0-56.19,43.44,179.81,179.81,0,0,0-70.44,9,274,274,0,0,0-28.43,11.69A270,270,0,0,0,347.86,385a180,180,0,0,0-9,70.44,180.09,180.09,0,0,0-43.44,56.19A271.9,271.9,0,0,0,283.57,540a271.9,271.9,0,0,0,11.83,28.36,180.09,180.09,0,0,0,43.44,56.19,180,180,0,0,0,9,70.44,270,270,0,0,0,11.68,28.43A274,274,0,0,0,388,735.11a179.81,179.81,0,0,0,70.44,9,179.94,179.94,0,0,0,56.19,43.44A273.78,273.78,0,0,0,543,799.4Zm4.62-248.26q-2.3-.85-4.62-1.68-2.31.82-4.61,1.68-1-2.24-2.08-4.45c-1.48-.7-3-1.4-4.45-2.07q.85-2.31,1.68-4.62-.82-2.31-1.68-4.62c1.49-.67,3-1.37,4.45-2.07q1.07-2.22,2.08-4.45,2.29.85,4.61,1.68,2.32-.82,4.62-1.68,1,2.24,2.07,4.45c1.48.7,3,1.4,4.46,2.07q-.87,2.31-1.68,4.62.81,2.31,1.68,4.62c-1.49.67-3,1.37-4.46,2.07Q548.6,548.91,547.58,551.14ZM543,719.6c15.16-11.07,28.27-26.79,28.44-45.11s-13.22-34-28.44-45.1c-15.21,11.1-28.61,26.93-28.44,45.1S527.81,708.53,543,719.6ZM670,667c2.89-18.55,1-38.93-11.79-52s-33.39-14.69-52-11.78c-2.91,18.6-1.19,39.28,11.78,52S651.42,669.88,670,667Zm52.6-127c-11.07-15.15-26.78-28.26-45.11-28.44-18.17-.18-34,13.23-45.1,28.44,11.1,15.21,26.93,28.62,45.1,28.44C695.78,568.26,711.49,555.15,722.56,540ZM670,413c-18.54-2.88-38.92-1-52,11.79s-14.69,33.4-11.78,52c18.61,2.91,39.28,1.19,52-11.78S672.85,431.55,670,413ZM543,360.4c-15.15,11.07-28.26,26.79-28.44,45.11s13.23,34,28.44,45.1c15.22-11.1,28.62-26.93,28.44-45.1S558.12,371.47,543,360.4ZM416,413c-2.89,18.55-1.05,38.93,11.79,52s33.39,14.69,52,11.78c2.91-18.6,1.19-39.28-11.78-52S434.51,410.12,416,413ZM363.36,540c11.08,15.15,26.79,28.26,45.11,28.44,18.17.18,34-13.23,45.1-28.44-11.09-15.21-26.93-28.62-45.1-28.44C390.15,511.74,374.44,524.85,363.36,540ZM416,667c18.54,2.88,38.92,1,52-11.79s14.69-33.4,11.78-52c-18.61-2.91-39.28-1.19-52,11.78S413.08,648.45,416,667Zm127-87.28A166.07,166.07,0,0,1,564.49,592a166.7,166.7,0,0,1,6.56-23.89,167.06,167.06,0,0,1,23.89-6.56A166,166,0,0,1,582.69,540a166,166,0,0,1,12.25-21.53,167.06,167.06,0,0,1-23.89-6.56A166.7,166.7,0,0,1,564.49,488,167.24,167.24,0,0,1,543,500.28,167.92,167.92,0,0,1,521.43,488a164.14,164.14,0,0,1-6.56,23.89A166.93,166.93,0,0,1,491,518.47,166,166,0,0,1,503.24,540,166,166,0,0,1,491,561.53a166.93,166.93,0,0,1,23.88,6.56A164.14,164.14,0,0,1,521.43,592,166.73,166.73,0,0,1,543,579.72Zm68,124.43c-12.3,29.05-40.86,52.38-68,65-27.13-12.66-55.69-36-68-65C445.73,716,409,712.3,380.91,702.06,370.67,673.92,367,637.23,378.82,608c-29.06-12.3-52.39-40.86-65-68,12.65-27.13,36-55.69,65-68-11.85-29.24-8.15-65.93,2.09-94.07C409,367.7,445.73,364,475,375.85c12.3-29.05,40.86-52.38,68-65,27.14,12.66,55.7,36,68,65C640.2,364,676.89,367.7,705,377.94c10.24,28.14,13.94,64.83,2.09,94.07,29.06,12.3,52.38,40.86,65,68-12.66,27.13-36,55.69-65,68,11.85,29.24,8.15,65.93-2.09,94.07C676.89,712.3,640.2,716,611,704.15Z"/><path class="cls-3" d="M554.33,840.58c39.73-15.65,107.24-39.15,97.68,18.59C638.39,917.74,585.06,870.09,554.33,840.58Zm209.21-96.07c17-39.16,48.15-103.52,82.22-55.93C877.54,739.63,806.14,743.64,763.54,744.51Zm80-215.87C827.89,488.91,804.4,421.39,862.14,431,920.71,444.58,873.05,497.9,843.55,528.64ZM747.47,319.42c-39.16-17-103.52-48.15-55.93-82.22C742.6,205.42,746.61,276.82,747.47,319.42Zm-215.87-80c-39.73,15.65-107.25,39.15-97.68-18.59C447.54,162.26,500.87,209.91,531.6,239.42ZM322.39,335.49c-17,39.16-48.16,103.52-82.22,55.93C208.39,340.37,279.79,336.36,322.39,335.49Zm-80,215.87c15.65,39.73,39.15,107.25-18.59,97.69C165.22,635.42,212.87,582.1,242.38,551.36Zm96.07,209.22c39.17,17,103.52,48.15,55.94,82.22C343.33,874.58,339.32,803.18,338.45,760.58Zm95.47,98.59c-9.57-57.74,57.95-34.24,97.68-18.59C500.87,870.09,447.54,917.74,433.92,859.17ZM691.54,842.8c-47.59-34.07,16.77-65.2,55.93-82.22C746.61,803.18,742.6,874.58,691.54,842.8Zm170.6-193.75c-57.74,9.56-34.25-58-18.59-97.69C873.05,582.1,920.71,635.42,862.14,649.05ZM845.76,391.42c-34.07,47.59-65.19-16.77-82.22-55.93C806.14,336.36,877.54,340.37,845.76,391.42ZM652,220.83c9.56,57.74-58,34.24-97.68,18.59C585.06,209.91,638.39,162.26,652,220.83ZM394.39,237.2c47.58,34.07-16.77,65.2-55.94,82.22C339.32,276.82,343.33,205.42,394.39,237.2ZM223.79,431c57.74-9.56,34.24,58,18.59,97.69C212.87,497.9,165.22,444.58,223.79,431Zm16.38,257.63c34.06-47.59,65.19,16.77,82.22,55.93C279.79,743.64,208.39,739.63,240.17,688.58ZM543,864.43c21.51,21,45.07,42.56,74,48.33,32.29,6.46,52.43-18,59.16-47,.18-1.08.35-2.16.49-3.25.87.66,1.76,1.31,2.64,2,25.22,15.7,56.77,18.77,75-8.63,16.35-24.52,17.76-56.42,18.12-86.48,30.06-.36,62-1.77,86.47-18.11,27.4-18.27,24.33-49.83,8.64-75-.64-.89-1.29-1.77-2-2.64,1.09-.15,2.17-.31,3.25-.49,28.93-6.73,53.41-26.87,47-59.16-5.78-28.89-27.34-52.45-48.34-74,21-21.51,42.56-45.07,48.34-74,6.45-32.29-18-52.43-47-59.16-1.08-.18-2.16-.34-3.25-.49.67-.87,1.32-1.75,2-2.64,15.69-25.21,18.76-56.77-8.64-75-24.51-16.34-56.41-17.75-86.47-18.11-.36-30.06-1.77-62-18.12-86.48-18.27-27.4-49.82-24.33-75-8.63-.88.64-1.77,1.29-2.64,1.95-.14-1.09-.31-2.17-.49-3.25-6.73-28.92-26.87-53.41-59.16-46.95C588,173,564.47,194.57,543,215.57c-21.51-21-45.06-42.56-74-48.33-32.3-6.46-52.44,18-59.17,46.95-.17,1.08-.34,2.16-.48,3.25-.88-.66-1.76-1.31-2.65-1.95-25.21-15.7-56.76-18.77-75,8.63-16.35,24.52-17.76,56.42-18.12,86.48-30.06.36-62,1.77-86.47,18.11-27.4,18.27-24.33,49.83-8.64,75,.64.89,1.29,1.77,2,2.64-1.09.15-2.17.31-3.25.49-28.93,6.73-53.41,26.87-47,59.16,5.78,28.89,27.34,52.45,48.34,74-21,21.51-42.56,45.07-48.34,74-6.45,32.29,18,52.43,47,59.16,1.08.18,2.16.34,3.25.49-.67.87-1.32,1.75-2,2.64-15.69,25.21-18.76,56.77,8.64,75C251.6,767.63,283.5,769,313.56,769.4c.36,30.06,1.77,62,18.12,86.48,18.27,27.4,49.82,24.33,75,8.63.89-.64,1.77-1.29,2.65-2,.14,1.09.31,2.17.48,3.25,6.73,28.92,26.87,53.41,59.17,47C497.9,907,521.45,885.43,543,864.43Zm108.29-63a50.32,50.32,0,0,0-6.54-2.4c-33.13-9.62-69.89,6.52-101.75,19.39-31.86-12.87-68.61-29-101.74-19.39a50.32,50.32,0,0,0-6.54,2.4,50.11,50.11,0,0,0-2.93-6.32c-16.63-30.23-54-44.81-85.66-58.24-13.43-31.62-28-69-58.23-85.65a48.75,48.75,0,0,0-6.32-2.93,48.88,48.88,0,0,0,2.39-6.54c9.62-33.13-6.52-69.89-19.38-101.75,12.86-31.86,29-68.62,19.38-101.75a48.88,48.88,0,0,0-2.39-6.54,48.75,48.75,0,0,0,6.32-2.93c30.22-16.62,44.8-54,58.23-85.65,31.63-13.43,69-28,85.66-58.24a50.11,50.11,0,0,0,2.93-6.32,50.32,50.32,0,0,0,6.54,2.4c33.13,9.62,69.88-6.52,101.74-19.39,31.86,12.87,68.62,29,101.75,19.39a50.32,50.32,0,0,0,6.54-2.4,50.11,50.11,0,0,0,2.93,6.32c16.63,30.23,54,44.81,85.66,58.24,13.43,31.62,28,69,58.23,85.65a48.75,48.75,0,0,0,6.32,2.93,48.88,48.88,0,0,0-2.39,6.54c-9.62,33.13,6.52,69.89,19.38,101.75-12.86,31.86-29,68.62-19.38,101.75a48.88,48.88,0,0,0,2.39,6.54,48.75,48.75,0,0,0-6.32,2.93c-30.22,16.62-44.8,54-58.23,85.65-31.63,13.43-69,28-85.66,58.24A50.11,50.11,0,0,0,651.25,801.43Z"/><path class="cls-3" d="M644.2,852.83c0-.09-.09-.17-.12-.26a11.11,11.11,0,0,0-2-4,22.56,22.56,0,0,0-6.26-6.88,30.93,30.93,0,0,0-8.43-4.1,16.53,16.53,0,0,0-21.48,12c-1,4.28-1,8.2.7,12.27a15.87,15.87,0,0,0,11,9.1c8.08,1.86,17.49,0,23.4-6a11.69,11.69,0,0,0,1.81-2.48A10.24,10.24,0,0,0,644.2,852.83ZM621,861.34a4.94,4.94,0,0,1-.85-1.88C620.39,860.12,620.67,860.73,621,861.34Z"/><path class="cls-3" d="M441.73,227.17c0,.09.09.17.12.26a11.11,11.11,0,0,0,2,4,22.56,22.56,0,0,0,6.26,6.88,31,31,0,0,0,8.42,4.1,16.54,16.54,0,0,0,21.49-12c1-4.28,1-8.2-.7-12.27a15.87,15.87,0,0,0-11-9.1c-8.08-1.86-17.49,0-23.4,6a11.69,11.69,0,0,0-1.81,2.48A10.22,10.22,0,0,0,441.73,227.17ZM465,218.66a4.94,4.94,0,0,1,.85,1.88C465.54,219.88,465.26,219.27,465,218.66Z"/><path class="cls-3" d="M250.18,390.38l.27.1a11.15,11.15,0,0,0,4.27,1.4,22.6,22.6,0,0,0,9.29.44,30.88,30.88,0,0,0,8.85-3.06,16.55,16.55,0,0,0,6.71-23.68c-2.35-3.71-5.08-6.52-9.17-8.18a15.84,15.84,0,0,0-14.22,1.35c-7,4.4-12.38,12.36-12.32,20.77a12,12,0,0,0,.47,3A10.24,10.24,0,0,0,250.18,390.38Zm10.41-22.44a5,5,0,0,1,1.92.72C261.86,368.39,261.22,368.16,260.59,367.94Z"/><path class="cls-3" d="M230.14,641.23l.25-.12a11.07,11.07,0,0,0,4-2,22.76,22.76,0,0,0,6.88-6.25,30.76,30.76,0,0,0,4.09-8.43,16.53,16.53,0,0,0-12-21.48c-4.28-1-8.2-1-12.27.69a15.91,15.91,0,0,0-9.1,11c-1.86,8.08,0,17.49,6,23.39a11.9,11.9,0,0,0,2.48,1.82A10.24,10.24,0,0,0,230.14,641.23ZM221.63,618a5,5,0,0,1,1.87-.84C222.84,617.42,222.23,617.71,221.63,618Z"/><path class="cls-3" d="M393.34,832.78c0-.09.06-.17.1-.26a11.21,11.21,0,0,0,1.41-4.28,22.55,22.55,0,0,0,.43-9.28,31.05,31.05,0,0,0-3.06-8.86,16.53,16.53,0,0,0-23.67-6.7c-3.71,2.34-6.53,5.08-8.19,9.16a15.9,15.9,0,0,0,1.36,14.23c4.39,7,12.35,12.37,20.77,12.31a12,12,0,0,0,3-.47A10.2,10.2,0,0,0,393.34,832.78Zm-22.44-10.4a4.73,4.73,0,0,1,.73-1.92C371.35,821.11,371.12,821.74,370.9,822.38Z"/><path class="cls-3" d="M441.73,852.83c0-.09.09-.17.12-.26a11.11,11.11,0,0,1,2-4,22.56,22.56,0,0,1,6.26-6.88,31,31,0,0,1,8.42-4.1,16.54,16.54,0,0,1,21.49,12c1,4.28,1,8.2-.7,12.27a15.87,15.87,0,0,1-11,9.1c-8.08,1.86-17.49,0-23.4-6a11.69,11.69,0,0,1-1.81-2.48A10.22,10.22,0,0,1,441.73,852.83ZM465,861.34a4.94,4.94,0,0,0,.85-1.88C465.54,860.12,465.26,860.73,465,861.34Z"/><path class="cls-3" d="M644.2,227.17c0,.09-.09.17-.12.26a11.11,11.11,0,0,1-2,4,22.56,22.56,0,0,1-6.26,6.88,30.93,30.93,0,0,1-8.43,4.1,16.53,16.53,0,0,1-21.48-12c-1-4.28-1-8.2.7-12.27a15.87,15.87,0,0,1,11-9.1c8.08-1.86,17.49,0,23.4,6a11.69,11.69,0,0,1,1.81,2.48A10.24,10.24,0,0,1,644.2,227.17ZM621,218.66a4.94,4.94,0,0,0-.85,1.88C620.39,219.88,620.67,219.27,621,218.66Z"/><path class="cls-3" d="M393.34,247.22c0,.09.06.17.1.26a11.21,11.21,0,0,1,1.41,4.28,22.55,22.55,0,0,1,.43,9.28,31.05,31.05,0,0,1-3.06,8.86,16.53,16.53,0,0,1-23.67,6.7c-3.71-2.34-6.53-5.08-8.19-9.16a15.9,15.9,0,0,1,1.36-14.23c4.39-7,12.35-12.37,20.77-12.31a12,12,0,0,1,3,.47A10.2,10.2,0,0,1,393.34,247.22Zm-22.44,10.4a4.73,4.73,0,0,0,.73,1.92C371.35,258.89,371.12,258.26,370.9,257.62Z"/><path class="cls-3" d="M230.14,438.77l.25.12a11.07,11.07,0,0,1,4,2,22.76,22.76,0,0,1,6.88,6.25,30.76,30.76,0,0,1,4.09,8.43,16.53,16.53,0,0,1-12,21.48c-4.28,1-8.2,1-12.27-.69a15.91,15.91,0,0,1-9.1-11c-1.86-8.08,0-17.49,6-23.39a11.9,11.9,0,0,1,2.48-1.82A10.24,10.24,0,0,1,230.14,438.77ZM221.63,462a5,5,0,0,0,1.87.84C222.84,462.57,222.23,462.29,221.63,462Z"/><path class="cls-3" d="M250.18,689.62l.27-.1a11.15,11.15,0,0,1,4.27-1.4,22.6,22.6,0,0,1,9.29-.44,30.88,30.88,0,0,1,8.85,3.06,16.55,16.55,0,0,1,6.71,23.68c-2.35,3.71-5.08,6.52-9.17,8.18a15.84,15.84,0,0,1-14.22-1.35c-7-4.4-12.38-12.36-12.32-20.77a12,12,0,0,1,.47-3A10.24,10.24,0,0,1,250.18,689.62Zm10.41,22.44a5,5,0,0,0,1.92-.72C261.86,711.61,261.22,711.84,260.59,712.06Z"/></g></svg>