<?xml version="1.0" encoding="utf-8"?>
<!-- Generator: Adobe Illustrator 19.0.0, SVG Export Plug-In . SVG Version: 6.00 Build 0)  -->
<svg version="1.1" id="Layer_1" xmlns="http://www.w3.org/2000/svg" xmlns:xlink="http://www.w3.org/1999/xlink" x="0px" y="0px"
	 viewBox="0 0 1080 1080" style="enable-background:new 0 0 1080 1080;" xml:space="preserve">
<style type="text/css">
	.st0{fill-rule:evenodd;clip-rule:evenodd;fill:#C3872B;}
</style>
<g id="XMLID_23_">
	<path id="XMLID_65_" class="st0" d="M12.7,248.1C12.7,248.1,12.8,248.1,12.7,248.1c0,0,0,0.1,0,0.1L12.7,248.1
		C12.7,248.2,12.7,248.2,12.7,248.1z"/>
	<path id="XMLID_73_" class="st0" d="M57.1,198c-7.6,6.8-16.2,14.3-24.3,20.5c-0.8,0.6-1.6,1.3-2.4,2c0.8-1,1.6-1.9,2.4-2.5
		c0.2-0.2,0.5-0.4,0.7-0.6C41.6,211.2,49.5,204.9,57.1,198z"/>
	<polygon id="XMLID_56_" class="st0" points="167.5,629.1 166.9,629.7 167.2,629.4 	"/>
	<polygon id="XMLID_1998_" class="st0" points="497.7,916.5 497.7,916.5 498,916.3 	"/>
	<path id="XMLID_106_" class="st0" d="M478.2,133.3c0.1-0.8,0.8-1.3,1.9-1.2c1,0.1,1.7,0.9,1.7,1.9c0,1.3-0.9,1.6-1.9,1.6
		C478.9,135.6,478.2,134.9,478.2,133.3z"/>
	<path id="XMLID_107_" class="st0" d="M485.1,144.7c-0.2,2.1-1.6,2.8-3.7,2.8c-2.3-0.3-3.5-1.8-3.3-4.4c0.2-2.1,1.5-2.9,3.4-2.8
		C484.1,140.5,485.3,142,485.1,144.7z"/>
	<path id="XMLID_57_" class="st0" d="M553.5,190.4c-0.5,0.4-0.9,0.8-1.4,1.3c-1.6,0.2-3.2,0.3-4.8,0.3h-0.1c-3.4,0-6.7-0.6-10-1.6
		c-4.5-1.4-8-4.4-10.5-8.5c-4.6-7.4-11.2-11-19.5-12.2c-4.2-0.6-8.4-1.8-12.4-3.1c-4.3-1.4-7.3-4.6-8.9-9c-0.4-1.3-0.4-2.5,0.8-3.3
		c1-0.7,2-0.1,2.5,0.8c4.6,7.4,11.9,8.5,19.4,9.2c9.1,0.9,16.3,4.8,21.8,12.5c2.3,3.2,5.2,5.8,8.8,7.4c1.5,0.7,3.2,1.6,4.6,0.2
		c1.2-1.2,0.4-2.8,0-4.2c-1.6-5.6-2.3-11.2-2.9-17.2v-0.1c0,0,0-0.1,0-0.1c0,0,0,0,0-0.1c-0.2-2.1-0.4-4.2-0.6-6.4
		c2.7,0.9,4.6,2.4,5.5,4.3c0.1,0.1,0.2,0.3,0.2,0.5c0,0.1,0.1,0.1,0.1,0.2v0c0.2,0.6,0.4,1.3,0.5,1.9c1,7.8,3.4,15.1,5.6,22.5
		c0,0,0,0,0,0c0,0,0,0.1,0,0.1c0,0,0,0,0,0.1C552.6,187.4,553,188.9,553.5,190.4z"/>
	<path id="XMLID_109_" class="st0" d="M578.8,124.8c-3.6,7.1-4.3,14.5-2.2,22.3c1.2,4.3,1.2,8.8,0.3,13.3c-0.6,3.3-1.9,6.2-4.2,8.5
		c-1.1,1.1-2.4,2.9-4.2,1.5c-1.5-1.1-0.8-2.8,0.1-4c1.2-1.8,3.6-3.8,3.8-8.1c0.9-6.2-0.1-7.2-1.6-10.9c-3.7-9.1-4.2-15.8,1.5-23.9
		c0.5-0.7,1.9-4.1,2.1-5.1c1.5-10.8-1.2-7.4,1.3-12.1c4.9,2.4,4.5,2.8,5.4,7C581.7,117.4,580.5,121.2,578.8,124.8z"/>
	<path id="XMLID_83_" class="st0" d="M592,262.9c-10.9,0.1-18.6,7-18,16.8c0.8,12.9,9.9,22.6,20.8,22.2c9.4-0.3,16.7-9,16.6-19.7
		C611.3,270.7,603.3,262.7,592,262.9z M592.8,294c-5.8,0-10.8-6.8-10.7-14.4c0.1-5.7,3.4-8.7,9.4-8.5c7.1,0.2,12.2,4.9,12,11
		C603.5,287.9,598,294,592.8,294z"/>
	<path id="XMLID_78_" class="st0" d="M583,394.9c1,8.8-1.5,16.2-8.6,21.5c-1.3,1-2.9,1.6-4.5,2.2c-1.2,0.5-2.4,0.1-3.2-1
		c-0.8-1.3-0.2-2.4,0.6-3.4c2-2.5,4.3-4.7,6-7.4c1.3-2,1.9-4.5,2.8-6.8c0-2.2,0.1-4.4,0.1-6.6c-1.2-5.1-2.4-10.1-3.4-15.2
		c-0.6-3.2-2.2-4-5.1-3.4c-7.1,1.4-13.8,3.6-18.2,11.2c-0.6-8.4,0.9-11.7,6.6-13.8c6.7-2.5,13.7-4.2,18.3-10.7
		c1.3-1.8,4.1-0.4,3.9,2C577.2,374.3,581.8,384.3,583,394.9z"/>
	<path id="XMLID_82_" class="st0" d="M624.1,427.7c-0.3,1.4-0.7,3-1.5,4.1c-1.2,1.9-3,1.9-3.8-0.3c-1.3-3.5-1.7-7.3-1.3-12
		c0.6-6-1.6-11.8-6.9-16.2c-3.3-2.8-5.2-6.4-6.4-10.5c-2-6.9-3.6-13.9-7.2-20.2c-0.7-1.2-1.5-2.8-0.1-4.1c1.4-1.3,2.7-0.1,3.8,0.8
		c2.7,2.1,5.1,4.6,6.3,8c2.9,8.5,7.6,16,12.6,23.3C625.2,408.9,626.4,418,624.1,427.7z"/>
	<polygon id="XMLID_66_" class="st0" points="603.9,748.7 603.7,749 603.6,749 	"/>
	<path id="XMLID_81_" class="st0" d="M692.8,653c0.3-2.2,2.3-3.9,4.4-3.8c2.4,0.1,4.4,2.5,4,5c-0.3,2.6-2,3.8-4.4,3.8
		C694.2,657.9,692.5,655.6,692.8,653z"/>
	<path id="XMLID_92_" class="st0" d="M746,645.6c2.2,3.3-1,4.8-2.8,6.4c-3.8,3.2-8.3,4.8-13.1,5c-5,0.2-9.9-1-14.6-2.4
		c-1.2-0.4-2.3-0.9-2.4-2.3c0-1.8,1.4-2.4,2.9-2.7c1.4-0.3,2.8-0.4,4.2-0.5c1.7,0.3,3.3,0.6,4.9,0.9c5.4,0.8,10.3-0.5,14.9-3.6
		C741.7,645,744,642.7,746,645.6z"/>
	<path id="XMLID_97_" class="st0" d="M754.4,603c-1.3-0.6-2.5-1.4-3.6-2.3c-2.4-2-2.5-4,0.3-4.9c3.5-1.1,3.8-3.2,3.1-6.1
		c-0.9-3.3-1.1-6.9-2.7-10c-1.8-2.8-1.8-5.8-0.8-8.9c1.4-1.5,2.8-0.8,3.5,0.6c4.1,8.5,6.7,17.4,7.4,26.9
		C762,602.8,758.6,604.8,754.4,603z"/>
	<path id="XMLID_95_" class="st0" d="M818.6,624.8c-7.9-0.1-13,5.1-13.2,13.4c-0.2,8.8,6.8,15.9,15.6,15.9c7.5,0,11.8-4.9,12-13.6
		C833.2,630.9,827.7,624.9,818.6,624.8z M819.9,647.4c-3.5-0.1-7.2-4.7-7.1-8.8c0.1-3.6,2.5-6.3,5.6-6.3c4.1,0,7.6,3.8,7.4,8.1
		C825.6,644.4,823,647.5,819.9,647.4z"/>
	<path id="XMLID_62_" class="st0" d="M689.4,207.9c-4.6,3.5-9.7,6.3-12.7,11.7c-0.8,1.5-2.2,1.9-3.7,1c-1.4-0.9-1.7-2.4-1.1-3.9
		c0.7-1.9,2.1-3.3,3.5-4.7c4.2-4.1,9.3-6.9,14.2-9.9c0.6-0.4,1.3-0.5,2.1-0.8c0.5,0.4,1.4,0.6,1.6,1.2c0.2,0.5,0.2,1.6-0.2,2
		C692,205.8,690.7,206.9,689.4,207.9z"/>
	<path id="XMLID_67_" class="st0" d="M777.8,249.3c-0.7,1.3-2,1.1-3.2,0.5c-1.7-0.9-3.4-1.8-5.1-2.7c-10.4-5.3-21.3-6.4-31.7-0.9
		c-11.3,6-23.2,8.6-35.6,9.5c-5.2,0.4-10.3,1.6-15.5,2.2c-4.2,0.5-5.3-0.9-4.5-5.1c0.7-3.8,2.4-7,5.4-9.4c3.8-2.9,7.9-5.3,12.6-6.8
		c-1.2,5.9-7,8-9.2,12.9c1.2,2.3,3,1.3,4.5,1.3c11-0.3,21.7-2.1,31.8-7.2c6.4-3.2,13.1-6,20.2-7.1c11.1-1.7,20.6,2.2,28.9,9.7
		C777.3,247,778.5,247.9,777.8,249.3z"/>
	<path id="XMLID_70_" class="st0" d="M805.8,270.1c0.1,1.7-0.8,2.8-2.5,2.8c-1.6,0.1-2.7-0.8-2.8-2.5c-0.1-1.7,0.9-2.6,2.5-2.9
		C804.7,267.5,805.7,268.4,805.8,270.1z"/>
	<path id="XMLID_75_" class="st0" d="M818.4,283.6c0,1.5-0.9,2.2-2.1,2.2c-1.3,0-2.1-0.8-2-2.2c0-1.1,0.7-1.7,1.7-1.8
		C817.3,281.7,818.2,282.2,818.4,283.6z"/>
	<path id="XMLID_68_" class="st0" d="M819.8,560.2c-0.1,1.6-0.7,3-2.1,3.7c-4.2,2.2-8.5,4.2-12,7.8c-1.6,1.6-2.6-1.5-4.1-1.8
		c-2.6-6.4-0.8-13.2-1.4-19.8c-0.1-5.2-2.6-9.4-4.8-13.8c-1.9-3.8-3.3-7.6-1.5-12.6c5.5,5.2,8,11.5,10.4,17.9
		c2.5,6.6,1.2,13.7,1.9,20.9c3.8-0.4,6.4-2.3,8.7-4.8c0.8-0.9,1.8-1.9,3-1.2C819.3,557.2,819.9,558.6,819.8,560.2z"/>
	<path id="XMLID_72_" class="st0" d="M827.1,543.5c-0.4,2.4-1.7,3.9-4.1,4.2c-2.5,0.3-4.7-1.9-4.6-4.5c0.1-2.6,1.5-4.1,4-4.3
		C824.8,538.6,827.1,540.9,827.1,543.5z"/>
	<path id="XMLID_84_" class="st0" d="M822.4,531.3c0-1.2,1-2.1,2.7-2.1c1.2,0.1,2.1,1,2.2,2.7c0.1,1.4-0.7,2.5-1.9,2.5
		C823.5,534.5,822.3,533.2,822.4,531.3z"/>
	<path id="XMLID_76_" class="st0" d="M810.9,767c0.9,2.4,0.2,4.5-1.4,6c-1.9,1.9-4.3,1.7-6.6,0.7c-1.4-0.6-2.2-1.7-2.8-3.2
		c-1.3-1.7-1.5-3.4,0-5.1c0.9-2.4,2.8-3.2,5-3.1C808,762.6,809.9,764.2,810.9,767z"/>
	<path id="XMLID_77_" class="st0" d="M828.7,744.1c-2,1.1-2.8-1.2-3.8-2.4c-1.4-1.5-1.7-4.1-4.8-5.1c-1.9,7.2-6.9,12.8-9.7,19.6
		c-0.6,1.4-1.1,3-2.9,2.7c-2-0.3-2.4-2.2-2.7-3.9c-0.4-2.3,0.5-4.5,1.6-6.3c3.9-6.3,6.4-13.3,8.9-20.3c1.8-5.1,4.7-5.6,7.5-1.3
		c2.4,3.7,4.3,7.7,6.3,11.7C829.9,740.6,830.8,742.9,828.7,744.1z"/>
	<path id="XMLID_64_" class="st0" d="M917.4,673.8c-3.2,0.1-6.4,0-9.5-1.3C911.1,672.6,914.4,671.7,917.4,673.8z"/>
	<path id="XMLID_80_" class="st0" d="M997.6,561.8c-6.2,0-12.4,0-18.6-0.1C985.3,559.5,991.5,559.4,997.6,561.8z"/>
	<path id="XMLID_89_" class="st0" d="M1001.1,562.5c-0.3,0.4-0.7,0.2-0.9-0.3c0.2-0.3,0.5-0.5,0.7-0.8
		C1001,561.8,1001.2,562.3,1001.1,562.5z"/>
	<path id="XMLID_765_" class="st0" d="M1011.8,1063c0.3,0.3,0.6,0.6,1,0.8c-0.3-0.1-0.7-0.3-1-0.5
		C1011.8,1063.4,1011.8,1063.2,1011.8,1063C1011.8,1063,1011.8,1063,1011.8,1063C1011.8,1063,1011.8,1063,1011.8,1063z"/>
	<path id="XMLID_766_" class="st0" d="M1013,1063.9C1013,1063.9,1012.9,1064,1013,1063.9c-0.1,0-0.1,0-0.1-0.1
		C1012.9,1063.9,1012.9,1063.9,1013,1063.9z"/>
	<path id="XMLID_753_" class="st0" d="M689.4,965.7c0.2-0.2,0.4-0.4,0.6-0.6c0.1,0.6,0.1,1.1-0.6,1.3c-0.1,0-0.1-0.1-0.2-0.2
		c0-0.1-0.1-0.1-0.1-0.2C689.1,966,689.2,965.9,689.4,965.7z"/>
	<path id="XMLID_760_" class="st0" d="M690,965.1C690,965.1,690,965.1,690,965.1c0,0-0.1-0.1-0.1-0.2C689.9,964.9,690,965,690,965.1
		C690,965.1,690,965.1,690,965.1z"/>
	<path id="XMLID_668_" class="st0" d="M1011.8,1063c0.3,0.3,0.6,0.6,1,0.8c-0.3-0.1-0.7-0.3-1-0.5
		C1011.8,1063.4,1011.8,1063.2,1011.8,1063C1011.8,1063,1011.8,1063,1011.8,1063C1011.8,1063,1011.8,1063,1011.8,1063z"/>
	<path id="XMLID_670_" class="st0" d="M1013,1063.9C1013,1063.9,1012.9,1064,1013,1063.9c-0.1,0-0.1,0-0.1-0.1
		C1012.9,1063.9,1012.9,1063.9,1013,1063.9z"/>
	<path id="XMLID_663_" class="st0" d="M689.4,965.7c0.2-0.2,0.4-0.4,0.6-0.6c0.1,0.6,0.1,1.1-0.6,1.3c-0.1,0-0.1-0.1-0.2-0.2
		c0-0.1-0.1-0.1-0.1-0.2C689.1,966,689.2,965.9,689.4,965.7z"/>
	<path id="XMLID_666_" class="st0" d="M690,965.1C690,965.1,690,965.1,690,965.1c0,0-0.1-0.1-0.1-0.2C689.9,964.9,690,965,690,965.1
		C690,965.1,690,965.1,690,965.1z"/>
	<path id="XMLID_31_" class="st0" d="M997.6,561.8c-6.2,0-12.4,0-18.6-0.1C985.3,559.5,991.5,559.4,997.6,561.8z"/>
	<path id="XMLID_59_" class="st0" d="M917.4,673.8c-3.2,0.1-6.4,0-9.5-1.3C911.1,672.6,914.4,671.7,917.4,673.8z"/>
	<path id="XMLID_30_" class="st0" d="M1001.1,562.5c-0.3,0.4-0.7,0.2-0.9-0.3c0.2-0.3,0.5-0.5,0.7-0.8
		C1001,561.8,1001.2,562.3,1001.1,562.5z"/>
	<path id="XMLID_99_" class="st0" d="M12.7,248.1C12.7,248.1,12.8,248.1,12.7,248.1C12.8,248,12.8,248,12.7,248.1c0,0,0,0.1,0,0.1
		c0,0,0,0,0,0C12.6,248.3,12.7,248.3,12.7,248.1C12.7,248.2,12.7,248.2,12.7,248.1z"/>
	<path id="XMLID_103_" class="st0" d="M12.8,248L12.8,248C12.8,248,12.8,248,12.8,248C12.8,248,12.8,248,12.8,248z"/>
	<path id="XMLID_60_" class="st0" d="M57.1,198c-7.6,6.8-16.2,14.3-24.3,20.5c-0.8,0.6-1.6,1.3-2.4,2c0,0,0,0,0,0l0,0l0,0
		c-5.2,4.8-10.5,12.2-15.8,23.4c2.9-6.3,9.1-18.2,18.2-26c0.2-0.2,0.5-0.4,0.7-0.6c6.6-5.3,13.3-10.5,19.8-16
		C54.6,200.3,55.9,199.2,57.1,198z"/>
	<path id="XMLID_61_" class="st0" d="M537.9,966l-0.2-0.3c0.4-0.2,0.7-0.5,1.1-0.7C539.4,966.2,538.2,965.7,537.9,966z"/>
	<polygon id="XMLID_63_" class="st0" points="603.9,748.7 603.7,749 603.6,749 	"/>
	<polygon id="XMLID_35_" class="st0" points="498,916.3 497.7,916.5 497.7,916.5 	"/>
	<polygon id="XMLID_33_" class="st0" points="552.2,955.5 551.7,955.7 552,955.3 	"/>
	<path id="XMLID_151_" class="st0" d="M1066.1,519.5c-0.9-0.1-1.9-0.2-2.8-0.5c0,0,0,0-0.1,0c-2.2-0.6-4.5-1.8-6.8-3.6
		c-1.8-1.3-3.5-3-5.3-5c-1.2-1.3-2.6-2.3-4.2-3c-6-2.6-20.5-9.2-26.7-12.6c0,0-3.7-4.6-4.1-5.4c-1.6-2-6.7-11.8-8.2-14.5
		c-1.5-2.7-7.4-17.3-7.7-17.9c-3.4-6.5-8.9-10.9-14.6-14.6c0-2,1.1-3,1.9-4.2c7.2-10.2,13.9-20.8,19.8-32
		c10.4-19.7,26.5-29.3,47.9-29.3c5.8,0,11.4-0.1,16.8-5.1c5.7-5.8,1.2-9,1.2-9c-2.7,0.1-2.5-2.2-3.2-3.5
		c-6.9-13.7-16.6-24.9-28.3-34.2c-10.2-8-21.5-10.1-33.8-6.3c-5,1.6-10,3.1-15,4.7c-10.8,3.5-20.5,1.8-29.8-5.1
		c-10.2-7.7-20.6-15.3-31.5-22c-14.4-8.9-29.7-14.6-46.7-14.2c-0.7,0-1.4,0-2.2-0.1c-7.9-0.7-8.4-1.3-6.6-9.5
		c1.8-8.2,0.3-15.9-2.9-23.2c-2.9-6.8-7.5-13.3-10.7-20c-6.5-10.3-11.7-28.8-12.2-31.6c0,0-0.7-3.2-1.5-6.5c-0.7-3.3-1.5-6.7-1.5-7
		c-0.9-3.9-1.7-13.9-1.9-15.9l-0.1-0.3c-1-14.2-3-19.3-3.5-20.5c0-0.1-0.1-0.2-0.1-0.3c0,0,0,0,0,0c-0.3-0.6-0.6-1.4-1-2.3
		c-4.4-11.2-11.6-19.3-23.3-22.2c-3.2-0.8-4.7-2.7-5.4-6c-1.7-8.3-4.5-16.2-8.1-23.9c-0.3-0.6-0.5-1.1-0.7-1.7
		c-3.7-7.8-7.9-12.1-7.9-12.1c-0.7-0.6-1.5-1.5-2.5-2.8c-11.7-15.7-26.5-27.8-41.8-39.3c-3.3-2.4-6.7-4.7-10.6-6.1
		c-1.9-0.7-3.5-1.7-5-2.9c0,0-2.8-1.3-6.9-2.8c-4.1-1.5-9.5-3.2-14.7-4.2c-10.3-1.9-16.1-4-22.5-5.8h0c-1.7-0.1-3.2-1-4.8-1.4
		c-12.8-3.6-25.3-8.5-38.6-10.4c-6.7-1-12.7-0.1-18.3,4.1c-4.9,3.7-10.6,5.3-16.2,7.5c-6.4,3.4-11.5-0.7-16.4-5.8
		c0,0-12.7-13.1-53.7-1.3c0,0-5.6,1.5-8.6,2.2c-0.5,0.2-1.1,0.3-1.7,0.3c-1,0-16.7,2.1-30.9,1.7c0,0-5.6-0.8-12.8,4.9
		c-0.4,0.4-0.8,0.8-1.3,1.1c-0.4,0.3-0.9,0.7-1.4,1c-7.7,5.4-14.2,12.2-20.6,19.2c-8.4,9.1-18.4,14.8-30.3,17.1
		c-4.9,1-9.7,2.5-14.6,3.6c-11.8,2.7-20.1,9.8-24.9,21.4c0,0,0,0,0,0.1c0,0,0,0.1,0,0.1c-0.5,1.8-5.1,17.7-3.5,38.7c0,0,0,0,0,0
		c0.1,0.8,0.2,1.6,0.2,2.7v0.1c0,0.4,0,0.7,0,1.1c0,1.4,0,2.7,0,4c0,1.6,0,3.3,0,4.9c-0.1,6-0.8,6.8-6.2,8.2c-3,0.8-6.1,1.5-9.1,2
		c0,0,0,0,0,0c0,0,0,0-0.1,0c-1.1,0.4-10.2,3.5-15.1,10.3c-1.1,1.5-2.2,3-3.3,4.6c-0.5,0.6-0.9,1.3-1.4,1.9c-2.3,3.2-4.4,6.1-6.6,9
		c-0.2,0.3-0.4,0.5-0.5,0.7c-0.2,0.3-0.3,0.4-0.3,0.4s0,0,0,0.1c-0.3,0.6-3.3,5.4-6.9,16.1c-3,11.9-3.8,26.9-2.6,38.5
		c-1.3-0.8-2.5-1.5-3.8-2.1c0,0,0,0,0,0c-2.2-0.7-4-1.9-6-2.6c-12.4-4.5-25.2-4.7-38.1-2.9c-14.6,2-29.1,5.1-43.9,3.9
		c-1.9-0.1-3.8,0.1-5.8-0.7c-2.1-0.5-19.7-5.4-40-20.8c-0.2-0.1-0.4-0.2-0.5-0.4c-1.1-0.8-2.3-1.8-3.3-2.9
		c-5.2-5.1-11.1-9.4-17.3-13.1c0,0-0.3-0.2-0.8-0.5c-2.3-1.3-9.2-5.3-18.7-8.7c-5.7-2-11.6-2.9-17.4-4c-0.9-0.2-9.2-0.6-18.4,0.2
		c-10,0.8-23.5,2.3-36.5,5.3c0,0-9.8,1.3-29.1,14c0,0,0,0-0.1,0c-0.6,0.5-1.2,0.9-1.8,1.2c0,0,0,0-0.1,0
		c-20.5,13.8-24.1,16.6-32.4,25.9c-12.6,14.2-15.6,28.8-20.4,30.8c-0.4,0.4-2,1.7-1.8,3c0.3,1.6,3.3,2.9,7.6,2.5
		c4.9-0.5,9.7-0.3,9.7-0.3s0,0,0,0c1.3-0.2,2.8-0.4,4.6-0.4c5.5-0.2,11-0.3,16.4,0.8h0.1c9.2,0,20.4,8.2,21.9,9.4
		c0.1,0,0.1,0.1,0.1,0.1c0,0,0.1,0,0.1,0s0,0,0,0c1.4,0.9,2.6,2.5,3.8,3.5c4.2,3.5,7.6,7.7,10.6,12.3c0,0,0,0.1,0.1,0.1
		c4.3,5.8,10.3,18.2,10.7,19c0,0,0,0,0,0c0.3,0.6,0.5,1.2,0.8,1.8c10.8,19.3,21.7,38.5,32.5,57.8c3.5,6.2,3.5,6.3-0.9,11.7
		c-5.1,6.2-8.4,13.3-10.8,20.7c0,0,0,0.1,0,0.1c-3.3,11.8-4.5,20.2-4.8,26c0,4.3-0.1,5.3,0.9,10.2c7.6,24.3,27.1,46.2,28.3,47.6
		c0,0,0.1,0.1,0.1,0.1c0.8,0.4,1.5,1,2.1,1.6c5,5,10.6,9,16.2,13.2c3.3,2.5,3.4,4,1.2,7.3c-3.4,5.9-9.2,15.3-12.9,26.6
		c-0.1,0.4-0.2,0.8-0.4,1.1c-1.3,4.4-2.4,9.1-2.8,13.9c0.2,1.5,0.1,3.1-0.2,4.8v0.1c0,15.5,3.5,26.9,4.7,36.1
		c0.2,0.7,0.3,1.6,0.3,2.7v0.8c0,0,0,0,0,0c0.1,1.5,0.1,2.8,0,4.2c-0.7,9-3.5,15.6-6.2,21.1c-0.1,0.1-0.1,0.3-0.2,0.4
		c-0.3,0.7-0.7,1.5-1.2,2.3c-3.1,6-8.6,12.8-13.1,19.4c-4.5,6.6-11.3,13.9-16.1,20c-2.6,3.2-4.4,7.1-5.7,9.9c0,0.1-0.1,0.2-0.1,0.3
		c-0.4,1.2-0.9,2.4-1.3,3.5c0,0.1-0.1,0.2-0.1,0.2c-0.1,0.2-0.1,0.3-0.1,0.3c-0.2,0.6-0.5,1.3-0.7,1.9c0,0.1-0.1,0.2-0.1,0.3
		c-2.7,8.1-1.9,12.9-1.8,13.5c0,0,0,0.1,0,0.1c0.3,0.6,0.7,1.4,1.1,2.3c2.5,5.6,6.5,9,12,11c8.1,3,16.2,3.3,24.5,0.5
		c9.4-3.2,18.1-7.7,26-13.8c0.8-0.6,1.6-1.2,2.4-1.8c0,0,0.1,0,0.1-0.1c0,0,0,0,0.1,0c9.8-6.8,23-19.2,32.3-25.1c0,0,0.1,0,0.1-0.1
		c0,0,0.1-0.1,0.1-0.1c2-1.3,4.1-2.5,6.4-3.6c0.1-0.1,0.3-0.1,0.4-0.2c8.3-4.1,18.6-7.6,28.6-9.4l0.7-0.1c0.2,0,0.3-0.1,0.4-0.1
		c10.2-1.8,22.5-1.5,27.6-1.3c0.5-0.1,1.3,0,2,0.1c0.1,0,0.2,0,0.3,0c0.1,0,0.2,0,0.2,0h0.1c26,1.1,46-7.3,48.3-8.3
		c0.1-0.1,0.2-0.1,0.2-0.1h0c4-2.2,8.2-4.2,12.2-6.5c1.3-0.8,3-0.2,3.7,1.2c0.5,0.9,1.2,1.8,1.7,2.8c3.7,5.1,9.4,10.8,12.3,13.6
		c0,0,0,0,0.1,0.1c0.2,0.2,0.5,0.4,0.7,0.6c0.2,0.2,0.4,0.4,0.5,0.5c0.1,0.1,0.2,0.2,0.3,0.2c0.2,0.2,0.4,0.4,0.4,0.4
		c9.8,8.2,22.7,7.7,22.7,7.7c3.9-0.6,6.8-0.9,9.5-1.6c8.4-2.4,12.7-3.9,16-7c1.5-1.4,3.3-1.9,9.7-14.1c1.8-3.6,3.1-11.5-0.4-22
		c-2.2-6.6-7.7-10.7-13.9-13.3c-7.7-3.3-12.8,0.5-12.5,9.1c0,1.5,0.7,3.3,1.1,4.9c1.7,5,2.1,8.7,2.1,11.3c0,3.1-0.7,4.5-0.7,4.5
		c-0.4,2.2-2,3.4-4,3.5c-2.3,0.2-4.8,0.3-7-0.1c-5.6-1.2-10.7-3.5-16.1-7.7c-3.4-2.5-4.8-6-4.8-6c5.4-1.1,8.6-4.5,8.6-4.5
		c4.5-4.5,7.9-7.9,11.2-11.5c4.4-4.8,9.4-7.6,14.8-9.2c0.3-0.2,0.7-0.3,1.3-0.5c10.8-3.2,40-2.4,40-2.4l22.9,0.1
		c18.4-0.7,39.3,9.2,39.3,9.2c7.9,3.7,13.6,6.2,20,9.4c14.8,7.5,28.9,16.2,44.2,22.7c4,1.9,8.9,3.8,14.8,5.4
		c6.5,1.7,12.5,2.5,17.2,2.8c10.3-0.6,20.3-2.4,29.4-7.9c0.8-0.5,1.5-1.2,2.9-0.3c0.4,2.9-1.6,4.8-3.4,6.5
		c-16.1,15.3-26,34.7-33.1,55.8c-5.7,16.9-11.5,33.7-19.5,49.6c-0.7,1.3-1.3,2.5-1.9,3.6c0,0,0,0,0,0c-8.1,17.1-18.9,27.5-18.9,27.5
		c-5.2,6-9.9,11.4-14.7,16.9c-10.2,11.6-17.9,24.5-20.9,40.1c-1.3,6.6-2,13.3-1.6,20c8,56.1-0.4,72.8-0.8,73.5l0,0
		c-0.7,7.2-4.9,12.9-7.3,19.3c-2.1,5.6-4.7,10.9-6.3,16.7c-1.5,13.9-0.8,18.8,2.8,25.4c3.4,6.1,10.4,7.8,17.5,6.5
		c0.5-0.2,1-0.3,1.5-0.3h0c7.5-1.9,10.8-4.3,10.8-4.3c7-4.3,12.9-10.2,20.3-13.7c0,0,0,0,0,0c9.1-7.2,17.1-14.4,17.1-14.4l0,0
		c5.3-5.7,16.5-11.2,24.5-11.6l0.1-0.1c5-0.5,13.7-0.8,15.4-0.5c1.7,0.3,9.8,2.5,9.8,2.5c29.5,3.7,46.2-6.6,46.2-6.6
		c3.9-3,7-5.6,10.3-8c2.2-1.6,3.9-1.5,5.4,0.2c0.1,0.1,0.2,0.2,0.3,0.4c0,0,0,0,0,0c0.2,0.3,0.5,0.7,0.7,1.1c0.5,0.9,1,1.8,1.5,2.8
		c8.4,14.5,20.5,31.7,21.6,33.2l0,0c0,0,0,0.1,0.1,0.1c8.2,10.2,18,18.4,28.8,25.5c3,2,6,4,8.8,6.3c9.2,7.1,14.2,16.7,14.5,28.7
		c0.2,12.6,4.2,23.9,10.8,34.2c2.8,4.4,5.2,8.9,7,13.8c0.8,2.2,2,4.1,4.7,3.6c2.5-0.4,2.5-2.7,2.8-4.6c0.8-5.9,1-11.9,2.5-17.7
		c0.6-2.6,1.1-5.3,2.6-7.4c1.4-5.5,4.2-9.9,4.2-9.9c0.6-1.1,1.9-2.6,3.8-4.7c2.6-3,5-6.6,5-6.6c0.4-1,1.3-2.1,2.6-3.7
		c13-15.6,19.8-33.8,21.1-54.4c0.2-3.2,0.6-6.4,0.2-9.7c-1.4-11.4,2.7-20.5,10.7-27.8c3.8-3.4,7.7-6.6,11.6-9.9
		c15-12.7,27-28,36.9-45.3c4.5-7.9,7.1-15.8,2.9-24.7c-1.2-2.6,0.2-3.6,2.4-4c5.1-1,10.2-1.8,16.2-2.9c3.2-0.6,5.9-2.3,7.6-3.6
		c0.5-0.5,1-0.9,1.6-1.3c0.1-0.1,0.1-0.1,0.1-0.1s0,0,0.1,0c0.7-0.5,1.5-1,2.3-1.4c23.2-11.5,32.7-32.8,38.5-57.1
		c1.4-5.9,1.2-11.9,1.3-17.8c0.1-5.6,0.6-6.4,5.6-8c3.4-1.1,6.9-2,10.3-3.2c10.6-3.6,18.8-10.4,24.9-20.2c0.5-0.8,0.8-1.4,1.2-1.9
		c3.3-5.6,5.7-12.8,5.7-12.8c0.1-1,0.3-2,0.7-3c1.7-4.9,3.1-9.9,4.5-14.9c2-16.5,29.7-60.9,30.7-63c1-2,1.5-4.9,1.5-4.9
		c5.3-31.4-7.4-55-25.4-77.6c15.3-3.9,28.6-12.4,44.2-12c12.5,0.3,22-5.1,29.4-15.4C1074.6,525.5,1077.3,521.7,1066.1,519.5z
		 M1060.6,372c-4.9,0.6-9.9,1.3-14.9,1.6c-14.4,1-25.9,7.5-34.9,19.1c-8.7,11-14.4,24-22.2,35.6c-10.9,16.1-24.5,28.4-43,33.8
		c-8.9,2.6-18,4.8-27,6.9c-6.4,1.5-8.3,0.4-15.5-7.3c7.2-2.7,14-4,20.4-6.6c13.5-5.6,25.3-13.7,35.6-24.3
		c10.8-11.2,21.4-22.7,32.3-33.8c16.5-16.8,36-27.4,59.1-30.5c3.7-0.5,7.1,0.6,10.5,1.4c0.9,0.2,1.9,0.6,2,1.8
		C1062.9,371.3,1061.8,371.8,1060.6,372z M730.9,793.1c1.5,9.1,1.4,9.2-7.4,9.5c-0.5,0-1,0-1.4,0c-8.8,0.2-8.8,0.1-5.4-8.7
		c3.5-9.1,4.9-18.8,5.9-28.4c1.7-16.2,8.7-29.2,20-40.1c7.4-7.1,15.8-12.7,24.6-17.8c0.6-0.4,1.3-0.7,1.9-1c1.9-0.8,3.9-1.3,5,1
		c1,2.1-1,3.1-2.3,4c-10.3,7-19,15.8-26.1,26.2c-6.8,10-12.5,20.6-14.7,32.9C729.8,778.2,729.7,785.6,730.9,793.1z M450.7,545.1
		c-3-0.5-7.5,0-8.2-4.4c-0.5-3.9,3.6-4.9,6-6.5c6.6-4.4,16.9-7.9,22.8-7.8c2.7,0.2,5.9,1.1,9,2.3c2.3,0.9,2.9,2.8,1,4.6
		c-4.2,4-8.1,8.8-13.1,11.3C463,547.2,456.5,546.1,450.7,545.1z M459.5,550.7c-7.9,10.6-19.9,10.8-31.7,0.7c1-2.5,3.2-4,4.9-5.9
		c1.3-1.3,2.9-1.8,4.5-0.6c6,4.3,12.8,4.6,19.7,5C457.6,549.9,458.2,550.3,459.5,550.7z M517.1,522.3c7.9-1.6,15.7-0.4,23.2,2.3
		c6.5,2.4,12.7,5.5,18.6,9.3c9.5,6.1,19.9,9.5,31,10.2c2.2,0.1,4.2,0.5,6.2,1.4c11.2,5.1,23.1,7.6,35.2,9.1c1.4,0.2,3.2-0.3,3.8,1.4
		c0.7,2.2-1.5,2.8-2.6,3.9c-9.3,9.3-20.6,8.9-32.2,7.8c-19.3-2-37.8-7.4-55.9-14.8c-17.3-7-35.3-9.8-53.9-8.8
		c-2.4,0.1-4.8,0-7.1-0.1c-0.4,0-0.8-0.5-2-1.4C492.2,532.7,503.4,525,517.1,522.3z M416.6,467.7c-0.8-3.4,1.3-4.8,4.2-2.9
		c6,4,11.9,8.3,17.7,12.7c7.7,5.9,14.5,12.8,21.1,20.1c3.4,3.8,3.4,4.4-0.7,6.3c-10.3,4.6-18.3,12.2-25.4,21.1
		c-4,5.1-6.6,5.4-11.6,1.7c-2.9-2.1-5.6-4.6-8.5-6.8c-2.6-1.9-3.5-4.6-3.5-9c0.9-3.7,1.9-8.6,3.3-13.3
		C416.2,487.9,419.1,478.2,416.6,467.7z M425.4,452.4c-4.9-4-9.7-8.1-14.1-12.6c-12.7-13-11.9-27.2,1.5-39.2
		c5.2-4.6,10.4-7.4,17.5-5.2c5.7,1.8,11.8,1.9,17.5,3.6c33.3,9.6,59.9-1.3,81.2-28.8c6.9-9,12.7-18.6,18-28.7c2.7-5,2.8-5,7.4-1.6
		c8.9,6.6,18.4,11.4,29.3,13.1c7.2,1.2,14.3,0.7,21.2-1.3c3.9-1.1,6.2-0.1,8.1,3.7c6.2,12.2,14.4,22.8,23.2,33.1
		c16.5,19.3,20.7,42,16.1,66.9c-4,21.5-13.2,40.4-26.5,57.2c-7.5,9.5-17.5,15.4-28.6,18.9c-5.3,1.7-10.8,1.1-16.2-0.5
		c-8.6-2.5-16.3-7-24.3-10.9c-7.8-3.8-15.6-7.4-24.1-9.2c-7.6,0-15.1,0-22.7-0.1c-2.8,0-5.7,0.2-8.3-1.1
		c-10.7-0.2-19.3-5.7-26.5-13.2C459.5,480.4,442.5,466.2,425.4,452.4z M251.8,461.1c3,1.4,6.2,0.8,9.3,0.1c7.3-1.5,14.5-3,21.7-4.5
		c7.4-1.5,14.7-1.5,21.8,1.4c3.3,1.3,6.8,2.3,10,4.1c10.5,5.7,21.5,9.4,33.6,9.2c-4.7,4.3-9.7,6.4-15.9,4.6
		c-8.5-2.4-17.3-3.7-26.1-3.5c-9,0.1-17.9,2.1-26.9,3.6c-12.8,2-25.1,5.8-37.6,9.2c-16.5,4.5-32.9,4.8-49.3-0.5
		c-0.4-0.2-0.9-0.2-1.4-0.3c-2.9-1.1-6.9-1.3-7.3-4.9c-0.4-3.2,3.4-4.3,5.7-6c7.3-5.3,15.8-8.2,23.8-12.1
		c20.4-9.7,41.6-17.3,63.5-22.4c16.9-3.9,27.7-14.6,32.6-31.9c1.2-4,2.8-8,3.8-12.1c3.6-13.3,12.3-21.6,24-26.8
		c5.5-2.5,11.2-4.4,16.7-6.7c3.2-1.4,5.5-0.6,7.4,2.3c2.2,3.3,4.2,6.6,6.7,9.7c8.5,10.1,19.2,16.2,31.5,19.5
		c1.6,0.5,3.2,0.8,4.8,1.3c4.7,1.5,5,2.1,1.9,5.7c-2.2,2.6-4.7,5-6.5,7.9c-1.7,2.8-4,3.5-6.7,1.5c-16.1-11.5-33.9-12-52.2-8.8
		c-5.6,1-11.3,1.8-17,1.7c-1.3,0-3.2-0.3-3.6,1.5c-0.4,2.2,1.7,2.7,3.2,3.3c2.5,1.1,5.2,1,7.8,1c10.5,0,21,0,31.5-0.1
		c9.1-0.1,17.3,3.4,25.1,7.7c4.4,2.4,7.5,6.2,7,12c-0.3,4.1,1,7.8,2.7,11.5c2.5,5.5,2.2,6.3-2.7,9.8c-4.5,3.2-9.4,6-13.6,9.6
		c-7.9,6.8-17,7.6-26.4,5.9c-13.6-2.5-27.1-5.4-39.5-12.5c-8.8-5-18.6-4.3-28.1-3.2c-11.9,1.4-23.1,5.8-34.3,10.1
		C252.2,459.1,251.7,459.7,251.8,461.1z M182.7,399.6c0.9,3.6,4.8,2.3,7.5,2.2c1.4-0.1,2.8-0.6,4.2-0.9c4.8-1,8.9-0.1,12.2,4.1
		c5.2,6.5,11.8,10.7,19.8,12.5c11,2.5,19.7-1.8,24.6-12.5c1.7-3.6,2.8-7.5,3.2-11.4c0.4-4.6,2.9-6.6,6.7-7.4
		c8-1.6,15.9-3.3,23.9-4.6c9.4-1.6,18.7-2.9,29.6-4.6c-5.5,10.3-7.8,20.3-11.5,29.7c-5.6,14.3-14.8,24.6-30.4,27.4
		c-13.8,2.5-27.4,6.9-40.4,12.5c-8,3.4-15.5,3.2-23.6,0.8c-16.4-4.9-30.7-13.6-42.9-25.7c-8.6-8.6-14.6-19-16.7-31.4
		c-0.9-5-1.9-9.8-5.2-13.7c-1.8-2.1-1.4-3.9,0.2-5.9c10-12,22.3-19.6,37.6-20.4c7.1-0.4,14.3,1.4,20.5,5.4c11,7,20,16,26,28.1
		c0.8,1.5,1.5,3.2,1.8,4.8c0.4,2-0.9,2.7-2.6,2.1c-2.1-0.7-3.7-2.3-5.2-3.9c-3.6-3.8-8-6.3-12.1-9.2c-2.2-1.6-4.7-2.3-7.5-2.1
		c-3.5,0.3-5.8,2.1-6.3,5.9c-0.2,1.2-0.1,2.5-0.2,3.7c-0.3,6.8-0.3,6.8-6.2,8.8c-0.5,0.2-0.9,0.3-1.4,0.5
		C185.6,395.3,181.7,395.8,182.7,399.6z M157.6,421.9c0,0,4,4.8,10.5,9.3c0.8,0.3,1.6,1.2,2.3,2l2,2c0,0,4,4.3,10.7,7.9h0
		c0.7,0.4,1.5,0.8,2.4,1.3c7.8,4.4,16.1,7.3,26.5,9.8c-9.7,5.8-18.6,9.3-26.6,15.5l-8.4,6c-1.5,1.4-3,0.7-4.6-0.2
		c-6.8-3.6-12.7-8-18.5-13.1c0,0-14.5-11.2-20.6-26.2l0-0.1c-1.7-3.7-2.5-7.7-3.2-11.5c-2.1-8.8-0.6-17.4-0.6-17.4
		c1.1-9.1,3.2-17.9,8.1-25.6c2.9,0.9,3.7,2.9,4.1,5.2C144,400,148.9,411.9,157.6,421.9z M665.7,303.6c10.3,3.5,21.1,4,31.7,5.3
		c17,2,33.1,7,48.5,14.8c10.2,5.1,19.1,12.2,26.8,20.9c11.3,12.8,24.1,23.2,40,29.3c8.3,3.2,15.7,8.3,21.8,15.2
		c4.9,5.5,7.7,11.9,7.3,19.6c-0.3,6.5-1.2,12.9-3.6,18.9c-1.2,3.3-3.2,4.6-6.7,3.5c-8.5-2.7-17.2-3.5-26.1-2.6
		c-4.6,0.4-4.9-0.1-4.8-4.9c0-1.5,0.1-3,0.3-4.5c1.8-13-2.1-23.9-10.8-33.3c-14.7-15.9-30.4-30.1-49.9-39.3
		c-3.9-1.9-7.5-4.4-10.7-7.4c-6.5-6.4-14.2-10.7-22.7-13.8c-13.9-5.2-28.1-9.3-42.5-12.9c-0.9-0.2-1.9-0.2-2.8-0.6
		c-1.8-0.7-4.8-0.5-4-3.9c0.7-2.7,2-5.1,5.4-4.8C663.9,303.2,664.8,303.3,665.7,303.6z M664.1,289.4c1-3.1,2.6-3.8,5.3-2.9
		c12.8,4.2,25.9,3.8,38.9,3c6.7-0.4,13.3-1.2,19.9-1.7c16.7-1.2,29.6,5.5,39.8,18.8c2.8,3.7,5.5,7.5,8,11.4
		c8.3,13.4,18.9,24.3,31.5,33.1c7.2,5,14.3,9.9,21.4,14.9c5.4,3.8,10.3,8,13.9,13.7c3.8,6,5.6,12.5,3.9,19.7
		c-2.7-9.9-8.8-16.6-16.5-22c-7.2-5-14.6-9.4-22.7-12.5c-9.4-3.6-17.5-9-23.9-17c-20.8-25.8-48.1-39.1-79.3-44.8
		c-8-1.5-15.9-2.9-24-3.3c-4.3-0.2-8.5-1-12.6-2.4C662.6,295.8,662.4,294.9,664.1,289.4z M733,453.5c-2.6-7.9-3.9-15.9-4.2-24.2
		c-0.5-13.9-5.8-25.5-14.4-35.7c-5.8-6.9-12.5-13-20-17.9c-10.2-6.6-19-14.8-26-25.2c-5.5-8.2-12.2-15.3-21.1-19.6
		c-1.4-0.7-3.5-1.3-2.3-3.7c1-2,2.8-2.9,4.8-1.8c11.8,6.6,25.3,8.7,37.3,15c12.7,6.8,23.8,15.7,32.4,27.6
		c4.5,6.2,9.4,11.9,14.5,17.5c14.7,16.1,24.1,35.1,28.4,56.8c1.1,5.6,1.1,11.4,1.6,17.1c0.2,2.1-0.5,4-1.4,5.7
		c-3.2,6.4-5.8,13.1-7,20.3c-0.7,3.7-2.6,5.7-6.3,5.6c-5.9-0.2-11.9,0.7-17.6-1.5c-0.7-3.4,1-6.1,1.7-8.8
		C735.8,471.6,736,462.5,733,453.5z M665.6,517c-4.6,2-9.2,1.7-13.7,0c-1.7,0.1-3.3-0.4-4.9-1.1c-8.2-3.5-8.8-5.4-4.2-13.1
		c9.8-16.2,16.7-33.5,19.2-52.6c3.2-24.2-1.8-46-17-64.9c-7.2-9-14.5-17.8-21.7-26.8c-1.7-2.1-3.2-4.3-4.6-6.6
		c-0.8-1.3-2.4-2.9-0.5-4.6c1.8-1.6,3.8-2.1,5.8-0.2c0.9,0.8,1.7,1.7,2.6,2.6c11.3,11.4,22.6,22.9,34,34.2
		c7.1,7.1,13.1,15.1,18.3,23.8c7.4,12.5,9.5,25.8,6.3,40.1c-2.1,9.5-4.4,18.9-3.8,28.7c0.1,1.8,0,3.5,0.2,5.2
		C683.4,497.2,676.8,508.3,665.6,517z M668.1,530.3c-7.1,11.9-18,15.5-29.9,16.8c-10.1,1-19.9-1.4-29.7-3.7c-0.9-0.2-1.8-0.6-2-2.4
		c4.2-3.5,9.7-5.5,14-9.3c3.3-2.9,6.8-5.5,9.7-8.8c2-2.2,4.3-3.3,6.9-1c7.2,6.4,15.7,7.9,24.8,7.4
		C663.8,529.2,665.7,528.8,668.1,530.3z M533.5,328.8c0.9-1.8,1.1-4.8,4-4.3c2.5,0.5,5.5,5.6,4.9,8.3c-0.3,1.4-1,2.8-1.7,4
		c-7.9,13.3-16,26.4-26.5,37.8c-16.1,17.6-35.7,22.6-58.1,17.5c-0.4-0.1-4.8,0.5-6-0.8c5.7-2.5,14.1-3.7,18.7-4.8
		c11.6-2.8,22-7.8,29.2-18.4c2.4-3.5,5.8-5.8,9.6-7.4c4.5-1.9,8-5.1,10.9-9.2C523.9,344.2,529.2,336.9,533.5,328.8z M531.1,290.9
		c-2.9-4-3.7-9-3-15.3c7.9,7.4,16.2,9.4,25.3,8.3c1.8-0.2,3.4-0.2,4.1,1.8c0.7,2,0.5,3.8-1,5.5C551.3,297.1,535.7,297.3,531.1,290.9
		z M537.7,311.3c-1.1-2.1-2.9-3.9-3.3-7.5c9,1,17.1-0.2,24.6-4.4c1.9-1.1,3.1-0.3,4.2,1.2c1.4,2,2.9,3.9,4.6,6.1
		c-3.8,4.1-8.2,7.5-13.2,9.6C545,320.4,541,317.9,537.7,311.3z M569.3,315.1c1.9-1.6,4.3-2,6.7-0.7c2.4,1.3,3.7,2.9,2.4,6
		c-2.1,5.3-4,10.7-6,16c-1.1,3-3.3,3.6-5.8,2.3c-5.5-3-10.7-6.2-15.2-11.8C558.3,323.6,564,319.6,569.3,315.1z M568.1,295
		c-4.5-14.3-2.4-26.7,8-36.1c5.9-5.2,12.5-6.8,20-4.5c13.1,3.9,23,17.3,23.3,31.6c0.3,13.4-11.6,27.6-23.1,27.6
		C586,313.6,570.9,304.1,568.1,295z M625.8,313.6c3.6,2.8,8.7,1.2,14,2.5c-3.6,6.6-7.2,12-14.3,12.2c-6.6,0.1-11.5-3.5-15.1-9.6
		c1.2-1.1,2.3-2,3.3-3C617.4,311.9,620.8,309.7,625.8,313.6z M623.8,302.5c2-8.3,3.8-9.9,8.4-8.3c6.9,2.4,12.9-0.9,19.9-2.8
		c-2.2,12.2-10.2,19.6-22.4,17.4C624.6,307.9,622.9,306.2,623.8,302.5z M579.5,339.6c1.6-5.4,3.3-10.9,5-16.3
		c0.5-1.5,1.2-2.9,2.8-2.9c2,0,3,1.5,3.2,3.4c0.9,6.9,4,13.1,6.4,20.5c-5.2,1.5-9.7,0.9-14.1,0.4C580,344.3,578.5,342.8,579.5,339.6
		z M598.1,321.7c2.5-1.7,6.1-1,8,2.1c3.2,5.3,7.9,8.5,13.5,11.1c-0.3,0.8-0.4,1.2-0.5,1.3c-11.5,9.2-14.9,8.2-20-5.7
		c-0.4-0.9-1-1.8-1-2.8C598,325.7,595.4,323.6,598.1,321.7z M688.6,472c-0.3-6,0.9-11.9,2.3-17.7c5.6-22.4,1.3-42.4-12.9-60.1
		c-11.8-14.8-25.4-27.7-38.9-40.7c-2.8-2.7-5.4-5.6-7.9-8.6c-2.1-2.5-1.5-4.2,0.7-6.2c5.3-5,8-5.4,13.9-1.4
		c7.9,5.3,14.7,12,20.3,19.8c6.6,9,14.4,16.6,23.6,22.6c11.3,7.4,20.2,17.4,27.1,29.2c3.5,6.1,5.7,12.7,5.7,19.8
		c-0.1,10.3,1.5,20.3,4.6,30.1c2.6,8.4,1.8,16.7-0.6,25c-1.5,5.1-2.3,5.6-7.7,5.8c-1.4,0.1-2.9,0.1-4.3,0.1
		c-10.5,0.2-18.8,4.5-24.6,14c-2.5,4.1-4.6,8.9-10.9,9.4C688.7,500.9,689.5,486.7,688.6,472z M743.3,388.2
		c-4.2-5.4-8.9-10.4-13.3-15.6c-3.1-3.8-6.5-7.4-9.1-11.5c-7.6-12.2-18.2-20.3-30.9-25.4c-8-3.2-16.2-5.8-24.3-8.7
		c-4.1-1.4-8.1-3-11.7-5.4c-1.5-1-2.8-2.1-1.8-4.2c1-2.1,2.6-3,4.7-2c16.9,7.6,35.6,9.3,52.4,17.1c5.5,2.6,10.7,5.4,15.1,9.8
		c6.6,6.6,14.1,11.8,22.8,15.1c6.8,2.6,12.6,7,18,12c7.1,6.7,14.2,13.3,21.3,20c12.4,11.7,12.3,25.7,9.3,39.1
		c-0.4,1.8-1.5,3.1-3.1,3.9c-8.2,4.4-14.9,10.7-21.1,17.6c-0.3,0.3-0.8,0.3-2.1,0.7c-0.9-6.2-1.5-11.9-2.9-17.4
		C762.3,416.1,753.8,401.5,743.3,388.2z M634,288.6c-4.9,0.1-6.2-1.1-7-5.4c-0.9-5.7-0.2-7.5,4.6-9c10-3,19.2-7.3,25.2-18.5
		C662.4,273.1,652.5,288.3,634,288.6z M652,246.8c-3.8,10.6-11.2,17.1-21.5,19.8c-3.9,1-7.4,0.7-9.6-3.8c-1.5-3-4-5.4-6.2-8.4
		c6.6-4.8,12.2-10,15.4-17.5c3.1-7.3,3.4-15.3,5.6-24c8,7.6,13.7,15.6,17.2,25.3C653.9,241.1,653,244.1,652,246.8z M622.5,235.3
		c-2.3,6.4-7.2,10.6-12.9,13.2c-6.6,3.1-14.1-2.7-13.8-10.2c0.1-2.7-0.4-5.5-0.1-8.1c1.1-11.6,7.2-19.8,16.6-25.4
		c2.6-1.6,5.7-2.4,8.9-1.3c4,1.4,5.6,4.4,5.5,12.4C626.3,221.5,624.9,228.5,622.5,235.3z M602.4,202.6c-10.2,9-14.9,20.3-13.2,34.3
		c0.1,0.5,0.2,1,0.1,1.5c-0.3,2.2,2.3,5.2-1.2,6.5c-3.1,1.2-6.4,2.1-9.4-0.7c-8.9-8.3-10.7-27.7-3.5-37.9
		c7.6-10.7,21.4-14.5,32.1-8.7C606.5,200.1,604.2,201.1,602.4,202.6z M572.8,197.5c-10.3,8.2-11.1,19-8.2,31
		c1.6,6.4,4.2,12.2,8.1,17.4c2,2.5,1.8,4.2-0.8,6.1c-1.5,1.1-2.8,2.6-4.2,4c-4,4.1-5,4.3-9.8,1.4c-10.9-6.6-17.5-23.6-13.4-36.6
		c4.7-15.2,10.3-22,29.4-25.1C573.5,196.4,573.3,197.1,572.8,197.5z M555.7,263.4c2.4,1.3,5.5,1.7,4.1,6.3c-2.2,7-3.2,8.3-8.2,8.2
		c-14.9-0.3-22.7-8-24-23.7c-0.9-10.2,2.2-23,8.4-32.5c0.1,7.5,0,13.5,2,19.2C541.3,250.6,546.7,258.6,555.7,263.4z M529.8,314.2
		c1.2,1,1.4,2.5,1.3,4c-0.1,2.1-1.1,3.8-2,5.5c-4.6,9-10.9,16.9-16.7,25.1c-1.9,2.6-4.5,4.5-7.4,5.8c-5.5,2.3-9.5,6.4-12.9,11.4
		c-4.5,6.8-10.4,11.8-18,14.1c-24.2,7.2-48.6,9.6-73.1,1.9c-11.3-3.6-21.6-9.2-29.3-19c-1.6-2-3.5-3.9-4.2-8.1
		c7,3.4,12.7,6.4,18.8,8.6c10.8,3.9,21.7,5.4,33,3.4c4-0.7,8.1-0.8,12.1,0.1c12.5,2.8,23.5-0.9,34-7.6c9.3-5.9,16.6-14.1,23.8-22.4
		c5.6-6.5,12.1-11.2,19.9-14c5.8-2.2,11.7-4.3,16.8-8.1C527.1,313.9,528.3,313,529.8,314.2z M516.6,314c-2.6,1.2-5.3,2.1-8.1,2.9
		c-10.9,3.2-19.8,9.5-27,18.6c-3,3.9-6,7.7-9.5,11.1c-11.5,11.4-24.9,17-41.1,13.9c-5.2-1-10.5-1.1-15.6,0c-8.2,1.7-16.1,0.8-24-1.8
		c-9.2-3-17.6-7.6-26.1-12c-2.8-1.5-4.5-3.8-5.2-6.7c-3.1-12.6-4.2-25.5-3.2-38.5c0-0.7,0.2-1.5,1.5-1.7c1.8,0.2,2.6,2.2,3.8,3.7
		c20.6,24.6,46.9,33.8,77.6,31.3c4.9-0.4,9.3-2,13.5-4.4c4.8-2.8,9.5-5.7,14.1-8.8c6.2-4.2,12.7-7.9,19.6-10.8
		c11.7-4.8,24.3-7.3,34.3-15.4c0.9,1,1.4,1.3,1.6,1.7C527.2,307.2,526.5,309.5,516.6,314z M517.3,290.9c-3.4,2.8-7.2,5.1-11.3,6.2
		c-19.2,5-36.6,13.9-52.7,25.8c-4.9,3.6-10.8,5.2-16.7,6.1c-4.7,0-8,0.9-14,0c-22.3-3.5-42-12.3-57.2-30.6
		c-5.1-6.1-8.3-12.4-7.7-20.8c0.5-6.7-0.8-13.4-1.8-20c-0.3-2.2-0.5-4.4-0.7-6.4c2.3-1.2,2.7,0.8,3.5,1.7c6.1,7,12.7,13.5,19.6,19.6
		c21.7,19.4,47,26.1,75.1,24c19.5-1.5,38-6.4,55.4-15.9c0.8-0.5,1.7-1,2.6-1.3c2.6-0.8,5.3-3.2,7.4,0.8
		C520.8,284,520.4,288.5,517.3,290.9z M357.5,478.2c13.2-2.6,24.8-8.4,34.4-18.5c2.3-2.5,5.1-4.5,7.7-6.6c2-1.7,4.3-2.2,6.7-1.1
		c2.7,1.2,3,3.9,2.6,6.3c-1.8,9.9-0.1,20.5-5,29.9c-1.6,3-2,6.6-2.1,10.1c0,2-0.3,4-0.9,5.8c-1.2,3.9-2.3,4.3-5.7,2.2
		c-4.7-2.9-9.3-6-14-9c-8.4-5.3-17.1-9.9-26.2-13.7c-1.3-0.5-2.8-0.7-3.5-2.9C353.2,478.6,355.4,478.7,357.5,478.2z M643.4,562.6
		c5.8-4.4,11.7-8.6,17.7-12.7c11.1-7.6,20.2-17.3,27.1-29.2c2.8-4.9,6.1-9.5,9.2-14.2c5.1-7.7,12.4-10.5,21.1-9.7
		c2.4,0.2,4.8,0.4,7.1,0.8c7.8,1.6,15.6,2.1,23.4,0.3c2.8-0.6,4.8,0.1,5,3.4c1.6,27.9,13.3,53.3,18.6,80.3c1.3,6.4,1,10.9-3.9,15.8
		c-9.2,9.2-13.7,21.3-15.7,34.5c-1.3,8.9-1.9,17.8-1.3,26.8c0.3,4.1-1.1,6.6-4.5,8.4c-5.1,2.7-10.2,5.4-16.1,5.4
		c-6.2,2.2-12.7,1.3-19,1.1c-8.2-0.3-16.5-0.2-24.7,0c-8.9,0.8-15.9,4.9-24.8,5.5c-4.6,1.4-8.3,1.4-11.3,0.8
		c-13.2-2.8-20.2-13.8-25.9-25.5c-2.8-5.6-3.8-11.8-4.1-18c-0.7-14.5,0.1-28.8,3.1-43C627.1,580.6,633.4,570.3,643.4,562.6z
		 M857,600.4c-1.4,1.7-2.8,3.5-5.3,1.5c-2-1.7-3.7-3.3-2.3-6.2c8.3-18.4,15.2-37.7,28-53.6c9.9-12.3,22.4-19.1,38-18.7
		c1.8,0,3.9-0.6,5.1,2c-5.8,1.6-11.7,2.7-17.2,4.9c-15.9,6.3-26.9,17.4-31.8,34.7c-2,7.1-4.3,14.2-6.7,21.3
		C863,591.4,860.6,596.3,857,600.4z M863.5,638.4c-4.7-1.2-9.2-2.4-13.7-3.6c-2.4-0.7-3.5-2.5-3.3-5c0.2-2.5,2.3-2.8,4.2-3.2
		C859.2,624.6,861.9,627,863.5,638.4z M853.1,616.7c0.2,1.2-0.3,2-1.3,2.2c-3.5,0.6-6.9,1.8-10.2,2.8c-1.9,0.6-3-1.2-3.9-2.6
		c-1-1.6,0.2-2.8,1.2-3.8c2.3-2.3,5.1-3.5,8.1-4C849.1,611.3,852.6,614.5,853.1,616.7z M832.9,613.5c-1.4,1.4-2.9,1.4-4.6,1
		c-1.8-0.5-3.6-1.1-5.5-1.4c-6.6-1.3-6.6-1.3-5.9-7.9c1.4-12.4,4.2-14,14.5-8.3c2.7,1.5,5.2,3.4,7.8,5.2c1.2,0.8,2.3,1.7,2.9,3.4
		C839,608.1,835.9,610.7,832.9,613.5z M821.2,619.7c12.1,2.9,21.7,14.1,21.6,28.7c-0.2,5.4-4,11.9-11.1,16.3
		c-6.9,4.3-13.8,3.2-20.2-1c-8.9-5.9-13.8-14.2-13.4-25.5C798.6,626.3,810.2,617.1,821.2,619.7z M810,609.4
		c-0.1,5.7-8.6,9.7-12.8,6.2c-4.6-3.9-8.6-8.5-10.9-14.5c-1.7-4.4-1.2-5.8,2.9-7.4c7.9-3.2,15.9-3.9,24.9-2.5
		C810.9,597.2,810.1,603.1,810,609.4z M793,621.9c1.9,1.9,1.6,3.9,0.6,6.1c-1,2.1-2.1,4-4.2,3.3c-6.5,0-19.9-9.2-22.1-14.6
		c-0.7-1.8-0.6-3.4,0.5-4.9c1.4-2,2.7-4.1,4.3-6c6.5-7.8,7.4-7.6,11.5,1.4C786,612.5,788.9,617.7,793,621.9z M765,650.7
		c7.6-2.4,15.5-2,23.3-1.8c2,0,2.8,1.4,3.3,3.2c0.5,2.2-0.7,3.2-2.3,4c-1.5,0.8-3,1.5-4.5,2.2c-4.3,2.2-8.2,4.9-11.8,8.3
		c-3.4,3.3-6.1,7.3-8.9,12.5c-3.7-8.2-4.2-15.4-4-22.8C760.2,653,762.2,651.5,765,650.7z M761.1,640.7c0-5,1.1-9.8,2.7-14.5
		c0.4-1.3,1.2-2.3,2.5-1.2c7,6,15.2,9.7,23.8,14.1c-3.3,3.4-6.3,2.6-9.1,3c-5.1,0.8-10.3,1.5-15.4,2.4
		C762.5,644.9,761.1,644,761.1,640.7z M753.8,674.4c-1.3,2.4-3.6,2.6-7.5,2.9c2.9-2.4,4-4.8,6.7-4.6
		C753.6,672.8,754.1,673.8,753.8,674.4z M638.9,682c11.1,5.8,22.3,6,34,2.4c5.7-1.8,11.4-3.3,17.9-2.5c-9.8,3.6-19.4,7.4-29.1,11.2
		c-9.9,3.9-18.5,10-25.8,18.8c-4.8-7.7-7.3-15-7.2-23.1C628.6,681.8,632.8,678.9,638.9,682z M642.7,713.3
		c9.3-8.7,19.7-15.6,31.6-19.7c4.9-1.7,10-3.1,15-4.7c2.9-1,6.2-1.5,8.7-3.2c10.6-6.9,22.2-6,35.1-5.5c-3.3,3-6.5,3.1-9.4,3.9
		c-6.4,1.9-12.8,3.8-19,6.3c-10.2,4.1-19,10.2-26,19c-4,4.9-8,9.8-12,14.7c-2,2.5-4.2,4.8-6.9,6.3c-9,4.9-18.2,0.7-20.7-9.6
		C638.3,717.3,640.6,715.3,642.7,713.3z M670.4,729.7c4-4.6,8.1-9.1,11.9-13.9c6.6-8.2,14.5-14.5,24.2-17.9
		c14.6-5.3,29.3-10.3,44-15.3c2.1-0.7,4.3-2.1,7,0.9c-5.8,1.7-11.4,1.8-16,4.9c-4.6,3.1-9,6.4-13.6,9.6c-0.6,0.4-1.2,0.8-1.9,1.1
		c-16.2,5.8-26.6,18.7-36,32.6c-2.4,3.4-4.7,6.9-7,10.3c-1.8,2.6-3.9,5-6.4,7c-6.3,5.2-8,5.2-14.1-0.4c-2.8-2.6-5.7-5.2-8.8-9.9
		C661.5,738.7,666.1,734.5,670.4,729.7z M699,729.1c7.7-10.8,17.1-19.4,29.1-24.6c4.9-2.1,9.1-5.4,13.3-8.7c4.7-3.7,10-5.7,15.9-5.5
		c1.4,0,3.2,0,3.5,1.8c0.3,1.9-1.4,2.4-2.8,2.5c-8.3,0.6-14.7,5.5-20.8,10.7c-10.4,8.9-19.4,19.2-26.5,31.1c-4,6.7-8.2,13.4-12.5,20
		c-3.6,5.6-6.5,11.4-7.3,18.5c-5.6-6.1-10.7-11.7-16.3-17.8C685.5,750.9,691.7,739.5,699,729.1z M695.7,782.5
		c0.7-8.9,3-17.2,8.6-24.1c5.7-7.1,10.5-14.8,15-22.7c6.4-11.4,15-20.5,24.9-28.5c5-4,10.7-6.5,16.8-8c1.7-0.4,4-2,4.9,0.7
		c0.8,2.5-2,3-3.5,3.9c-6.2,3.8-12.1,7.9-17.8,12.4c-16.8,13.4-26.6,30.7-27.6,53.2c-0.4,9.2-2.8,18.2-6.3,26.7
		c-1.9,4.5-3.4,5-6.9,2.1C698.8,794.4,695.2,789.6,695.7,782.5z M769.1,691.5c-1.9-2.8-1.7-5.4-0.2-8.3c4.8-9.4,11.6-16.3,21.1-20.3
		c0.7-0.3,1.3-0.5,2-0.7c5.5-1.5,8.4,1.2,7.1,7c-2.2,10.2-2.7,20.3,0.4,30.3c1.3,4.2,3,8.3,4.8,13.2
		C788,712.4,777.4,704,769.1,691.5z M804.8,677.2c0.2-1,0.4-2,0.8-2.9c1.3-3.2,3.9-3.7,6-1c0.8,1.1,1.5,2.6,1.7,4
		c1.8,12,8.5,20.9,17,28.5c0.5,0.5,0.9,1.1,1.7,2.2c-5.2,3.1-10.4,3.7-15.5,4.7c-2.1,0.4-4.1,0.2-5-1.9
		C806.7,700.3,802.3,689.5,804.8,677.2z M819.8,680.2c-1.2-4.3-0.5-5,3.8-5.6c3.1-0.5,6.1-1,7.8-1.2c4.2-0.4,6.5,0.9,8.5,2.8
		c4.2,4.1,7.8,8.7,11.3,13.5c2.2,3,2,5.4-1,7.6c-2.2,1.5-4.2,3.4-6.4,4.7c-3.4,2-7,2-10.1-0.5C827.1,695.8,822.2,688.8,819.8,680.2z
		 M842.4,670.5c-2.2-1.8-2.1-3.3-0.2-5.4c1.3-1.4,2.3-3.2,3.4-4.8c1-1.5,2.3-2.4,4.2-2.2c10.2,0.3,17.5,12.9,12.9,22.3
		c-0.4,0.9-0.9,1.7-1.4,2.6c-3,5.2-3.3,5.3-7.2,0.3C850.4,678.9,846.9,674.3,842.4,670.5z M851,650.9c-2.9-1.3-1.8-4.2-1.2-6.6
		c0.7-2.8,2.7-2.1,4.6-1.7c1.4,0.3,2.8,0.6,4.1,1.1c9.5,3.3,11.1,6.8,8.2,18.3C861.5,658.1,856.8,653.6,851,650.9z M862.9,606.5
		c-1.2-1.3-0.8-2.2-0.2-2.9c6.1-7.9,9.6-17.1,12.2-26.7c0.9-3.6,2.1-7.1,2.9-10.8c3-12.7,10.4-21.5,21.5-27.2
		c13.8-7,28.4-9.6,43.5-10c1.9-0.1,3.8-0.1,6.1,2.5c-5.8,4.1-11.6,7.4-18,9.5c-13.1,4.2-23.1,12.5-30.5,24.4
		c-4.3,6.9-8.6,13.8-12.9,20.6c-3.4,5.4-7.1,10.6-11.7,15C872.2,604.5,868,607,862.9,606.5z M923.8,511.6c-0.6,3.9-2.2,5.8-6.1,5.4
		c-2.1-0.2-4.3-0.1-6.4-0.2c-13.5-0.8-24.6,4.5-34.1,14.3c-8.5,8.7-14.6,19-19.8,30c-4.3,9.1-8.2,18.5-12.3,27.8
		c-2.3,5.2-2.5,5.2-7.4,2.8c-1.5-0.7-3-1.6-4.5-2.3c-15.4-7.6-31.2-10.5-47.8-4.4c-4.5,1.7-4.9,1.4-5.4-3.4
		c-2.1-17.9-7.6-34.9-12.7-52c-2.6-8.8-4.7-17.8-4.4-24.1c0-25.5,8.8-44,24.4-59c9.7-9.3,21.3-11.6,33.9-9.7c4,0.6,8,1.4,11.9,2.6
		c19.2,6,38,13.1,56.5,21c9.5,4.1,18.2,9.8,25.2,18C922.7,487.9,925.8,499,923.8,511.6z M1062.1,359.3c0.8,0.6,1.5,1.4,0.9,2.5
		c-0.3,0.5-1,1.1-1.6,1.2c-1.9,0.2-3.8,0.3-5.7,0.2c-16.4-0.9-30.9,4.6-44.5,13.6c-9.9,6.6-18.9,14.2-27.1,23
		c-10,10.6-19.8,21.5-30.8,31.1c-15.3,13.3-32.4,22.6-51.8,27.3c-1.9,0.5-3.8,0.8-5.6,0c-5.8-2.6-11.7-5.3-17.9-8.1
		c1.6-2.7,3.3-2.9,4.9-3.4c21.9-6.6,40.7-19.4,59.1-32.8c16.8-12.2,33.1-25.3,50.8-36.1c15.5-9.5,31.7-17.2,49.7-20
		c5-0.8,10-0.5,15-0.3C1059.1,357.5,1060.7,358.1,1062.1,359.3z M1053.7,348c1.5,0.9,3.1,1.8,2.8,3.9c-0.4,2.2-2.4,2.2-4,2.2
		c-25.4-0.8-46.5,11.2-66.9,24.8c-16.9,11.2-33.2,23.5-49.9,35c-17.1,11.8-34.8,22.5-54.4,29.4c-9,3.2-17.5,4.2-26.2-0.3
		c-3-1.5-6.3-2.3-9.4-3.5c-2.5-0.9-2.5-2.6-1.5-4.7c1.3-2.6,3.4-3.9,6.2-4.5c6.3-1.4,12.7-1.8,19-3.5c18.1-4.8,34.1-14.1,49.6-24.4
		c19.9-13.2,38.1-29,57.7-42.7c11.2-7.9,23-14.2,36.9-14.8c3.1-0.1,6.1-1,8.7-1.4c5.7,0.7,10.9,1.1,16,2c3.3,0.5,6.6,1.2,9.9,1.1
		C1050.1,346.8,1052,347,1053.7,348z M996.8,328.6c4.9-1.1,9.6-2.8,14.4-4.5c5.7-2,11.3-1.7,16.8,0.7c8.1,3.6,15.6,8.2,21.3,17
		c-4.8,0.6-8.3,0.2-11.9-0.2c-10.7-1.3-21.3-1.7-32,0.3c-9.3,1.7-17.8,5.3-25.5,11c-18.3,13.4-36.6,26.9-55,40.2
		c-14.6,10.5-30.2,18.9-46.2,26.8c-7.9,3.9-16.5,4.6-25.1,5c-3.3,0.2-3.8-1.7-2.6-4.3c2.5-5.4,4.1-11.1,4.7-17.1
		c0.3-3,2.3-4,4.9-4.4c5.7-0.8,11.3-1.7,16.9-2.8c16.2-2.9,30.9-9.6,44.7-18.9c14.5-9.7,28.1-20.5,41.7-31.3
		C973.9,338.3,984.3,331.5,996.8,328.6z M972.3,330.5c2.2,1.1,0.8,3-0.6,4.1c-4.9,3.9-9.9,7.8-14.8,11.7
		c-13.7,10.8-27.2,21.7-42.2,30.5c-14.8,8.8-30.7,14.7-47.5,17.6c-1.4,0.2-2.9,0.2-5.7,0.4c-3,0.4-5.9-1.5-7.2-6
		c-0.6-1.9-1.5-3.7-2-5.6c-1-3.5-0.4-4.9,3.1-4.8c13.4,0.2,24.8-6,36.5-11.7c16.6-8.2,32.3-18.1,47-29.6c5-3.9,10.7-6.4,16.1-9.5
		C961.5,323.8,966.9,327.7,972.3,330.5z M944.8,315.4c1.2,0.3,2.6,0.5,4,1c2,0.8,4.2,1.8,4.5,4.3c0.2,2.5-2.2,3-3.8,3.8
		c-8.3,4-14.9,10.7-22.4,15.8c-18.2,12.4-37.3,23-57.5,31.1c-3.6,1.4-7.3,2.3-11,3.3c-2.6,0.7-5.2,0.5-7.7-0.4
		c-2.9-1-6.2-1.9-6.3-6.1c-0.1-3.8,4.3-9.4,7.6-9.4c17.6,0.1,31.8-9,45.9-18.4c8-5.4,15.9-10.9,24-16.1c6.1-4,13-6.2,19.8-8.3
		C942.7,315.7,943.6,315.6,944.8,315.4z M940,311.6c-3.8,2.6-8.5,2.9-12.5,4.9c-10.9,5.2-20,13.4-30,20.1
		c-10.5,7-21.5,12.8-33.5,16.5c-3.3,1-6.5,1.3-9.9,1.2c-2.4-0.1-3.3-1.2-3.1-3.8c0.8-7.1,5.4-10.3,11.1-12.1
		c4.6-1.4,9.1-2.9,13.4-5.1c9.5-4.7,18.2-10.8,26.2-17.9c6.1-5.4,13.1-9.1,20.3-12.3C928.8,300,934.2,302.8,940,311.6z M920.3,297.8
		c-3.1,3.9-7.3,5.3-10.8,7.8c-11.5,7.9-22.6,16.5-34.8,23.3c-4.6,2.6-9.4,4.7-14.4,6.3c-4.5,1.5-6.4-0.3-5.9-5
		c0.7-7.5,2.3-9.1,9.5-10.5c12.1-2.3,21.7-9.7,31.4-17c4.5-3.3,9.3-6,14.6-7.6C913.4,294.1,916.9,294.2,920.3,297.8z M890.7,290.6
		c4-2.1,8.1-2.9,12.7,0.7c-4.2,5.6-9.5,9-14.7,12.3c-7.5,4.7-15.2,9.3-23.9,11.2c-1.9,0.4-4.1,1.1-5.3-0.7c-1.5-2.2,0.1-4.3,1.2-6.1
		c1.5-2.4,3.8-3.9,6.5-4.2c6.7-0.7,11.9-4.7,17.1-8.7C886.3,293.5,888.4,291.8,890.7,290.6z M881.6,287.2c1.7,0.4,3.4,1,2.2,3.4
		c-2.3,4.5-12.8,9.6-18.2,8.9C867.8,288.5,872.2,285,881.6,287.2z M836.9,148.6c1.9,5.1,3.2,10.4,3.4,16
		c0.4,27.4,8.2,52.3,22.3,75.3c7.1,11.5,8.1,23.8,3.1,36.4c-2.6,6.7-5.6,13.2-8.7,19.6c-5.1,10.5-8.6,21.6-9.7,33.4
		c-0.9,9.5-2.7,18.7-7,27.2c-2.2,4.3-2.4,4.3-6.4,1.6c-1.2-0.8-2.3-1.8-3.5-2.6c-36-23.9-32-22.2-55.8-53.5
		c-8.3-10.9-18.2-19.6-32-22.2c-5.2-1-10.4-0.7-15.6-0.3c-11.9,0.9-23.7,2.8-35.6,2.5c-6.2-0.1-12.3-1.1-18.5-2
		c-5.8-0.8-6.3-1.5-5.9-7.8c0.7-10.6-0.4-20.9-3.1-31.1c-3.1-11.7-8.6-22.1-16.3-31.2c-0.8-0.9-1.5-1.9-2.1-2.9
		c-0.1-0.2-0.1-0.5-0.1-0.7c0.7-1.2,1.8-1.6,3-1.8c14.2-2.3,24.8-11,34.3-21.4c9.6-10.4,17.7-22.2,26.4-33.4
		c11.6-14.9,25.9-22,44.5-19.3c11.4,1.6,22.8,0,34.2-1.8c7.8-1.3,15.6-1.9,23.5-1C823.8,129.3,832.3,136.4,836.9,148.6z M795.5,90.6
		c4.5,7.4,8.2,15.2,10.3,23.7c1.3,5.2,0.7,6.1-4.5,6.4c-10.9,0.6-21.8,2.6-32.7,2.8c-8.8,0.2-17.6-1.4-26.4-1.5
		c-12.2-0.1-22.3,4.4-31,12.8c-6.8,6.6-12.7,14.2-18.5,21.8c-6.8,9-13.5,18-21.4,26c-4.6,4.7-9.9,8.3-16.7,9.4
		c0.2-1,0.2-1.6,0.5-1.9c12.8-14,19.9-31.4,27.4-48.6c3.8-8.9,7.9-17.6,12.7-25.9c7-12,16.8-17.9,30.6-15.5
		c11.1,1.9,19.8-2.2,26.7-11.8C764.1,72.2,785.2,73.5,795.5,90.6z M745.4,40.7c11,6.6,20.9,14.7,30,24c1.1,1.2,2.8,2.1,2.6,4.9
		c-2.7,0.2-5.1,0.3-7.4,0.6c-9.4,1.4-17.3,5.8-22.9,13.8c-6.7,9.5-15.5,11.9-25.9,9.3c-9-2.3-16.4,0.9-23,6.9
		c-5.5,4.9-9.5,11.1-13,17.7c-6.3,12-12,24.4-17.3,36.9c-4.9,11.7-10.7,22.8-19.9,31.6c-3.5,3.4-7.3,6.3-11.6,8.6
		c-1.5,0.8-2.9,1.7-4.7,1.4c-1-0.2-1.9-0.7-2.2-1.7c-0.1-0.6,0.4-1.3,0.7-2c0.1-0.2,0.4-0.4,0.5-0.5c14.9-12.7,20-30.4,23.1-49.1
		c1.9-11.8,3.9-23.5,5.5-35.4c3.1-22.2,15.2-36.5,34.9-44.2c8.1-3.1,14.8-7.8,19.8-15.2c1.5-2.2,3.5-4.1,5.5-5.8
		C730.1,34.4,734.4,34.1,745.4,40.7z M679.1,19.5c11.3,4.2,23.3,5.3,34.8,8.5c2.7,0.8,5.7,0.9,8.3,3.5c-6.8,4.2-11.7,10.3-16.9,16
		c-4.2,4.6-9.8,7-15.4,9.2c-20.7,8.3-33,23.9-36.5,46.7c-1.4,9.1-2.2,18.3-3.4,27.4c-2.2,16.4-6.3,32.2-15,46.3
		c-2.5,4-5.2,7.8-9.1,10.3c-2,1.3-4,2.8-7.8,1.4c15.5-14.3,14.9-33,16-51c0.9-14.9-1.6-29.8-1.4-44.8c0.1-4.2,0.3-8.4,1.4-12.6
		c1.3-4.9,3-9.7,6.5-13.1c5.5-5.4,7.2-12,7.9-19.4c0.9-9.3,4.9-17,11.2-23.6C665.2,18.8,671.4,16.6,679.1,19.5z M629.9,20.2
		c3.4-7.3,9.2-10.7,16.8-10.1c4.4,0.4,8.9,0.7,13.5,3.8c-4.6,4.3-8.5,8.7-11.8,13.5c-4.2,6-7,12.3-7.3,19.9c-0.2,5.6-2,10.7-6,14.7
		c-6.9,6.9-9.8,15.7-10.6,25.4c-0.5,7-0.2,13.9,0.3,20.9c1,14.2,1.1,28.3,0.7,42.5c-0.3,10-3.7,18.9-8.5,27.3
		c-3.3,5.8-8.4,6.7-13.9,6.5c-2.3-0.5-0.8-3.9-0.7-5.6c1-11.6-0.7-22.4-3.4-33.5c-2.4-9.6-4.9-19.2-5.3-29.3
		c-0.5-10.9,2-20.7,8.5-29.2c1.6-2.1,3.1-4.5,5-6.4c12.1-12,17.3-27,18.4-44C625.9,30.9,627.5,25.4,629.9,20.2z M620.3,19.8
		c2.2,2.4-0.2,5.2-1.4,8c-3.3-1.3-4.4-3.9-6.1-6.1C615.5,19.7,618.5,17.9,620.3,19.8z M399.9,130.3c1.6-8.4,1.2-16.8,1.3-25.3
		c0-1.3,0-2.5,0-3.7c0.6-21.3,8.2-31.4,27.9-36.6c5.1-1.4,10.2-2.3,15.3-3.7c10.2-2.6,19-7.9,26.5-15.6c5.4-5.6,11-11.1,16.7-16.4
		c8.7-8.1,18.8-12.5,30.7-11.6c14.6,1.1,29-0.9,43.2-4.5c21.2-5.3,37.7,3,51.2,19.8c2.5,3,3.5,6.4,3.1,10.3
		c-1.2,12.2-5,23.5-13.5,32.2c-13.5,13.8-17.4,30.5-14.5,49.3c2,12.8,4.6,25.4,7,38.1c1,5.4,0.9,10.9,1.1,16.4
		c0.1,3.6-1.1,5.8-4.9,5.6c-12.6-0.5-24.5,3-36.2,7.3c-0.6,0.3-1.2,0.6-1.9,0.9c-7.8,5.2-15.6,10.5-21.4,18.4
		c-1.5,2.1-2.9,1.8-4.8,0.4c-13.9-10.9-29.9-17.5-45.7-24.4c-16.2-7.1-31-16.5-43.9-29c-3.1-3-6.5-5.8-9.9-8.6
		c-6.9-5.8-14.2-10.9-23.1-12.9C400.9,135.8,399.2,134.1,399.9,130.3z M397.7,142.8c8.9-0.2,16,4.4,22.7,9.6c2.7,2.1,5,4.5,7.4,7
		c17.4,17.6,37.7,30.3,60.4,38.8c11.9,4.5,23.2,10.2,34.1,17.1c3.5,2.2,4.1,4,1.6,8.6c-1.3,2.4-3,2.8-5.4,1.7
		c-17.6-8-36-8.7-54.7-6.7c-1.2,0.1-2.4,0-3.6,0.1c-14.1,1.9-25.4-2.7-35-14c-8-9.5-17.8-17.2-27.1-25.4c-3.6-3.2-7.3-6.5-9.8-10.7
		c-1.3-2.1-2.5-4.3-3.4-6.6C380.3,150.4,385.5,142.6,397.7,142.8z M360.8,169c2.4-7.6,7.9-12.1,15.6-15.8c1.7,7.1,2.8,13.5,6.6,18.8
		c3.7,5.2,7.7,10.2,12.3,14.5c10.2,9.4,20.5,18.6,30.4,28.4c7.2,7.2,16.1,10.6,26,10.4c10.2-0.2,20.5-0.9,30.7-0.9
		c10.5,0,20.9,1.2,31,4.6c6.7,2.3,6.9,2.8,5.3,10.2c-0.3,1.4-0.6,2.9-0.8,4.4c-0.6,3.3-2.3,4.6-5.6,4.1c-13.1-1.7-25.5,1.5-37.8,5.7
		c-7.7,2.6-15.5,4.9-23.4,6.6c-17.6,3.7-32.4-1.7-45.5-13.8c-6.4-5.9-11.9-12.9-17.1-20c-4.8-6.6-10.3-12.3-17.8-15.7
		c-4.6-2.1-7.5-6.1-9.3-10.8C357.4,189.5,357.5,179.2,360.8,169z M348.3,200.8c0.1-1.2,0.1-2.5,1.1-3.5c2.1-0.5,2,1.7,2.5,2.8
		c3,5.8,7.2,10.7,12.5,14.1c8.7,5.6,15.6,13,22.2,20.9c5.4,6.3,10.6,12.7,17,18.1c15.7,13.3,33.3,17.4,52.9,13
		c7.9-1.8,15.6-4.6,23.2-7.3c9.3-3.2,18.7-6,28.5-6.4c7-0.3,7.6,0.3,8.3,7.8c0.2,2,0.2,4,0.3,5.9c0.2,3.8-1.7,6.2-5.1,7
		c-4.3,0.9-8,3.1-11.9,4.9c-14.2,6.9-29.2,10.6-44.7,12.1c-6.1,0-12.1,0.1-18.2,0.1c-22.7-2-42.2-11.4-58.7-27.6
		c-7.7-7.5-15.3-14.9-23-22.4c-1.4-1.4-2.7-2.7-3.1-4.8C349.9,224,347.3,212.6,348.3,200.8z M110.8,322.1
		c-7.3-14-14.1-28.3-21.7-42.1c-8.5-15.5-19.7-27.5-36.8-32.9c-10.4-3.3-21.2-4.3-32-1.3c-2.5,0.7-4.5,1.3-7.7,2.5
		c0-0.1,0.1-0.2,0.1-0.2c0,0,0,0,0,0s0,0,0,0l0,0c0,0,0,0,0,0c0-0.1,0.1-0.2,0.1-0.3c0.3-0.6,0.5-1.2,0.8-1.7
		c0.1-0.2,0.2-0.4,0.3-0.6c0,0,0,0,0-0.1c0.2-0.4,0.4-0.9,0.6-1.3c0,0,0,0,0-0.1c5.3-11.2,10.6-18.6,15.8-23.4l0,0l0,0c0,0,0,0,0,0
		c0.8-0.7,1.6-1.4,2.4-2c8.1-6.2,16.7-13.7,24.3-20.5c4.7-4.2,10.2-7.4,15.9-9.9c13.9-6.1,28.1-10.4,43.2-12.3
		c19.3-2.4,37.5,0.2,55.2,8.1c7.5,3.3,14.4,7.8,21.1,12.5c7.9,5.5,15.5,11.6,23.6,16.8c14.7,9.5,31,14.1,48.3,13.7
		c9.1-0.2,17.8-3.2,26.7-4.9c15.5-3,31.3,1.7,46.1,8.3c3.9,1.8,7.5,9,8.3,13.3c2.2,11.7,2.8,14.4,3.7,26.4c0.9,12-0.1,23.8-0.3,35.7
		c-0.2,13,1.6,25.8,4.4,38.4c0.5,2.3,2.1,4.6,0.4,7.1c-2,0.2-2.4-1.5-2.7-2.9c-3.8-17.9-15-30.4-28.6-40.5
		c-13.1-9.8-22.7-21.8-27.1-38.1c-1.6-6-3.6-11.9-7.8-16.6c-0.6-0.8-1.1-1.7-1.9-2.3c-2.5-1.7-5.2-5.6-7.9-3.2
		c-2.7,2.4,0.9,5.3,2.4,7.5c5,7.4,9.1,15.2,11.2,24c2.7,11.5,9.7,19.9,18.5,26.7c7.7,6,14.6,12.8,21.2,20
		c6.2,6.8,10.1,15.1,12.8,23.9c2,6.4,0.7,8-5,10.9c-6.7,3.3-13,3.3-19.9,0.3c-9-3.8-16.6-9.7-24-16c-6.5-5.5-12.7-11.4-18.4-17.6
		c-18.5-20.2-40.8-32.4-67-37.2c-11-2-20.9-6.7-29.8-13.7c-1.5-1.2-3.2-2.4-4.2-4c-3.5-5.5-8.4-9.5-13.2-13.5
		c-5.9-4.8-10.9-10.4-16.5-15.5c-4.5-4-6.7-8.8-7.3-14.8c-1.1-9.9-4.2-18.9-11.2-26c-1.4-1.4-2.7-2.8-4.6-3.4
		c-1-0.3-1.9-0.4-2.7,0.4c-0.8,0.8-0.6,1.8-0.1,2.8c1,2.3,2.8,3.9,4.4,5.8c4.6,5.7,8.7,11.7,8.4,19.6c-2,1.4-2.9-0.2-3.9-1.1
		c-11.6-10.6-25.3-15.2-40.6-15.9c-12.2-0.6-23.6,1.3-34.7,6.4c-2.3,1-6.1,2.1-5.5,4.7c0.8,3.3,4.4,1.8,6.8,1.4
		c9.9-1.6,19.7-3.5,29.6-5c13.9-2.1,25.9,3.2,36.4,12c7.8,6.5,15.2,13.5,22.1,21.2c4.9,5.5,4.8,6.4-2.4,8.2c-6.9,1.7-14,2.9-21,4.5
		c-1.2,0.3-7.5,0.5-3.6,2.3c6.1,1.3,12.1,1,18.1,0.1c5.2-0.8,10.2-2.4,15.5-2.3c4.3,0,7.8,1.4,11.1,4.2c5.4,4.5,10.3,9.6,15.5,14.4
		c11.3,10.4,24.8,15.4,39.6,17.4c8.8,1.2,18.3,3.1,24.2,9.3c-0.1,0.2-0.4,0-0.2,0c-9.1-1.6-17.9-4.6-27-6.4
		c-19.4-3.9-36.9,1.1-53.4,11.2c-6.5,4-13,8.8-18.6,13.8c2,2,3.4,0.4,4.7-0.3c4.8-2.8,9.5-5.6,14.2-8.6c9-5.7,18.5-8.5,29.1-8.8
		c35-1,65.9,11.1,94.3,31.7c4.3,3.1,8,7,11.9,10.7c5.8,5.6,12.9,9.2,20,13.7c-2.9,2.9-6.2,3.2-9.3,4c-13.5,3.2-27.4,3.9-41,6
		c-10.2,1.6-10.5,1.7-14-8.4c-9.1-25.7-47.1-45.7-70.9-40.2c-17.2,4-24,8.3-37.1,19.2c-0.7,0.7-5.3,5.8-6.1,6.4
		c-4.2,3.5-5.5,5-8.2,0.2C122.3,343.3,116.5,332.8,110.8,322.1z M126.6,450.5c-13-21.2-15.3-50.7-2.1-72.3
		c17.8-29,38.4-45.6,71.1-43.7c17.3,1,35.7,13.4,44.6,29.1c3.9,7,6,14.7,7.1,22.6c0.7,5.6,0.1,11-2.5,16c-3.3,6.6-9.3,9.5-16.1,7.7
		c-10.6-2.9-17.5-10.8-23.4-19.7c-0.5-0.8-0.7-1.9-0.8-2.8c-0.2-1.7-0.6-3.7,1.2-4.6c1.5-0.8,2.8,0.4,3.9,1.2
		c4.8,3.8,9.4,7.7,14.2,11.3c3.5,2.7,7.3,5.3,11.8,3c2.7-1.4,3.6-7.7,1.3-13.2c-8.8-21.9-16.8-35.1-39.1-40.5
		c-6.5-1.6-20.6-2-27.2,0c-22.8,6.9-52.4,34.8-47.7,73.9c1.4,11.7,5.4,22.5,12.6,31.4c24.7,30.8,54.6,46.3,93.7,42.3
		c10.7-1.1,22.1-3.4,32.3-6.9c37.3-12.6,72.9-7.5,107.3,10.7c18,9.4,34.6,21,50.8,33.4c1.3,1,4.1,1.9,2.5,4.4
		c-1.5,2.3-3.8,4-6.8,2.9c-1.9-0.6-3.2-2.1-4.6-3.5c-17.7-17.6-37-26.9-59.2-37c-9.3-4.3-21.3-6-31.1-7.6
		c-8.2-1.3-16.1-4.9-23.5-4.4c-18.6-0.4-36.9,6.5-53.5,12.3c-27.7,9.7-54.7,5.1-79.6-10C146.8,476.2,137,467.6,126.6,450.5z
		 M323.2,599.1c-0.1,3,0.3,5.9,0.9,8.9c1,5.2,0.3,6.5-4.2,9c-11.8,6.2-24.9,10.8-37.9,13.2c-16.3,3.1-32.1,2.4-48.5,2.2
		c-18.7-0.2-34.8,7.1-49.3,19c-11.2,9.2-22.4,18.6-34.9,26c-9.1,5.4-19,8.7-29.6,7.9c-10-0.7-14.9-7.1-13.9-17.7
		c0.7-7.3,4.5-12.9,8.8-18.4c10.3-13.4,20.8-26.6,28.9-41.7c6.2-11.6,9.3-23.8,7-37.3c-1.1-6.6-2-13.2-2.8-19.9
		c-1.7-16.5,2.1-31.8,10.9-45.4c5.3-8.2,8.9-8.6,17.7-4.7c20.1,8.9,40.7,9.4,61.4,2.6c11.6-3.8,23.3-7.3,35.4-8.7
		c12.2-1.5,24.5-0.6,36.7-0.8c2.4,0.4,2,0.9,0.4,1.7c-3.8,2.2-7.7,4.6-11.6,6.7c-12.1,6.5-24.4,12.5-35.9,20.1
		c-6,4-12,8.3-17.2,13.3c-4,3.8-8.3,5.4-13.4,6c-20.7,2.6-40.5,8.9-60.2,15.8c-0.4,0.1-0.7,0.6-2.1,1.9c4.9,0.5,8.5-1.3,12.2-2
		c3.8-0.7,7.5-1.5,11.2-2.2c4-0.7,8-1.2,12-2.1c3.8-0.9,7.6-0.7,11.4-1c3.9-0.3,7.8-2.4,12.8-0.2c-16.9,25.7-37.1,48.1-56.5,71.8
		c3,1.4,3.8-0.1,4.8-1c19.5-18,37.2-37.8,53-59.4c16.2-22.3,37.3-38.2,60.7-51.2c0.8-0.4,1.7-0.7,4-1.6c-2.8,5.1-4.9,9.1-7.3,12.9
		c-4,6.6-7,13.6-9.6,20.8c-1.6,4.5-2.7,9-2.6,13.9c0.3,13.2,0,26.4-2.6,39.4c-0.3,1.6-0.1,2.8,1.5,5.4c3.8-5.2,5.3-9.8,6.7-15.4
		c2.6-10.9,4.6-21.9,5.7-33c1.3-13.7,6.3-25.5,14.7-35.8c5.8-7.2,12.6-13.6,20.1-19c3.4-2.4,6.8-3.1,10.8-2.1
		c24.6,6.4,47.2,17.2,67,34c1.8,1.6,3.5,3.4,5.2,5.2c1.2,1.2,2.5,2.6,1.7,4.5c-0.8,1.8-2.7,2.1-4.3,2c-6.2,0-12.4,0.8-18.5-0.5
		c-16.2-3.4-29.3,2.1-41,13.7C330.6,567.7,323.6,581.7,323.2,599.1z M374.7,628.6c8.1-0.5,11.5-4.3,11.5-12.9c0-2-0.3-4-0.8-5.9
		c-0.7-2.7-0.8-5.4-0.6-8.2c0.1-2.2,1-3.9,3.1-4.6c1.9-0.7,3.2,0.5,4.4,1.7c5,5.3,7.1,11.8,6,19.2c-1.7,10.9-8,17.9-18.1,20.8
		c-22.4,6.5-54.1-8.2-52-45.5c1.2-19.7,18.7-40,36.6-46c6.3-2.1,12.7-1.9,19.1-1.3c5,0.5,9.9,1.1,14.9,1.6
		c10.8,1.2,20.3-2.2,28.4-9.6c5.2-4.8,10-10,15-15c4.3-4.3,8.6-8.7,13.9-11.7c7.5-4.2,14.7-5.2,21.9,1.1c5.4,4.7,12.3,6.4,19.7,8
		c-4.1,4.4-7.2,4.6-11.1,2c-14-9.3-27.3-6.8-39.5,3.8c-7.1,6.2-13.9,13-21,19.2c-7.8,6.8-16.5,11.7-26.9,12.9
		c-5.3,0.6-10.5-0.2-15.6-1.3c-24.7-5.5-42.9,15.4-47.6,33.9c-1.5,6.2,0,15.5,3.3,20.9C348.1,626.2,357.8,629.6,374.7,628.6z
		 M440.3,570.9c-14.8,5.4-30.3,7.2-45.7,5.6c-13-1.3-23.4,3-32.6,11.7c-3.9,3.7-7.4,7.8-11.2,11.6c-2.2,2.2-4.8,5-8.1,3.5
		c-3.6-1.6-2.3-5.5-2.3-8.7c0-1.2,0.3-2.5,0.6-3.7c2.5-12.9,20.6-30.3,35.2-29.1c7.6,0.6,15.1,2,22.8,1.9c7.1-0.1,13.8-1.3,19.8-5.4
		c3.2-2.1,5.9-2.3,9.2-0.1c5.9,3.9,12.8,4.8,20.2,6.1C446,568.4,443.2,569.8,440.3,570.9z M450.6,572.9c0.1-2.2,1.9-3.4,3.3-4.5
		c4.9-3.7,9-8.1,13.2-12.6c2.6-2.9,5.5-4.4,9.4-4.3c12.1,0.2,24.3-0.1,36.4,0.1c9.4,0.2,18.2,3.5,27,6.5c17,5.6,33.9,11.6,51.6,14.9
		c7.2,1.4,14.5,2.7,21.9,2.5c2.3-0.1,4.7-0.7,7.8,1.5c-5.6,5-11.8,6.9-18.1,7.3c-12.4,0.8-24.7,0.1-36.8-3.2
		c-17.5-4.8-35.2-8.7-53.1-11.2c-20.1-2.8-40.3-4.2-60,3.2C452.4,573.6,451.5,573.9,450.6,572.9z M516,600.1
		c-7-3.7-14-7.4-21.2-10.8c-10.2-4.8-21-8-31.9-10.5c-1.3-0.3-2.9,0.2-3.9-2.1c4.9-3.4,10.7-3.5,16.1-3.8
		c12.6-0.8,25.1,1.3,37.7,2.2c21.5,1.5,41.8,9.4,62.9,13c7.5,1.3,15,2.7,22.5,3.8c3.1,0.5,6.2,0.3,9.2-0.4c3-0.7,6-1.1,10.2-1.9
		c-1.5,4.9-4.6,5.9-7.3,7.2c-8.1,3.8-16.8,5.2-25.6,5.8c-9.1,0.6-18-1.6-27-1.5c-10.2,0.2-20.4-0.9-30.6,1.3
		C523.1,603.1,519.5,601.9,516,600.1z M582.2,623.8c-15.5,0.5-28.9-4.7-42-11.9c-1.2-0.7-2.5-1.4-2.7-3.3c1.7-2.4,4.3-1.6,6.5-1.5
		c13,0.4,26-0.4,39.1,0.9c8.9,0.8,17.9-1.9,26.5-4.9c1.9-0.7,4.2-2.8,5.8-0.5c2,2.8-0.2,5.2-2.1,7
		C604.4,617.6,594.9,623.3,582.2,623.8z M654.2,920.5c-6.9,8.7-16.7,13.6-27.5,14.3c-11.2,0.8-22.5-0.3-33.5-2.5
		c-13.3-2.6-25.3,1.1-36.1,8.3c-11.4,7.6-22.5,15.9-32.8,25.1c-4,3.6-8.8,6.1-13.6,8c-8.3,3.3-16-1.2-18.1-10.2
		c-1.4-6.1,0-11.8,2.4-17.4c3.7-8.6,7.4-17.3,10.1-26.3c4.7-16.1,6.9-32.4,4.6-49.3c-1.9-14-3-28.1-0.7-42.4
		c2.1-12.9,7-24.3,14.4-34.5c3.8-5.3,8-10.5,12.6-15.2c19-19,32.1-41.8,40.2-67.9c5.2-16.8,10.6-33.6,18.5-49.3
		c3.7-7.4,8.6-13.7,14-19.8c3-3.4,4.6-2.9,5.8,1.6c0.9,3.4,1.4,6.8,2.3,10.2c1.9,6.7,4.2,13.2,8.4,18.9c1.6,2.1,3.5,4.9,1.4,7.7
		c-6.7,8.9-4.5,18.5-3.1,28.3c0.4,3.2,2,6.1,3,9.2c0.5,1.4,1.9,2.9,0.4,4c-1.3,1-3.1,1-4.5,0.4c-3.7-1.5-6.4-5-8.9-8
		c-4-4.9-9.2-7.1-15-7.8c-6.4-0.7-12.3,0.9-17.1,5.8c-0.9,0.9-1.6,2.1-0.8,3.3c0.8,1.2,2.2,1.1,3.3,0.5c11.6-7.2,21.3-4.1,30,5.8
		c1.8,2.1,5.1,3.5,7.5,5.1c-0.3,3-3.3,2.7-5.1,3.5c-18.5,8.8-32.7,23-43.7,40.6c-3.3,5.2-4.9,11.3-6.1,17.5
		c-2.6,13.3-4.3,15.4-17.5,17.7c-7.5,1.3-13.5,4.8-18,11.1c-1.8,2.5-4.9,6.1-2.1,8.5c3.4,3,5-1.8,6.7-4.2c5.6-7.9,13.9-10,22.4-11.8
		c2.7-0.6,4,1.2,4.1,3.8c0.1,3.7,0.1,7.5-1.6,10.9c-2.9,6-5.4,12.3-8.8,18c-3.4,5.7-5.5,11.7-6.4,18.1c-2.8,18.9-8.7,36.7-17.5,53.4
		c-3.3,6.2-5,12.9-6.4,19.7c-0.2,1.2-0.4,2.5-0.3,3.7c0,0.6,0.6,1.4,1.1,1.8c1,0.7,1.9,0,2.4-0.8c1.1-1.9,2.3-3.8,3.3-5.8
		c7.9-15.6,16.6-30.9,19.3-48.8c0.9-5.9,0.8-11.9,2.2-17.8c1.5-6,3-12.1,6.4-17.3c2-3.1,3.5-3,5.2,0.1c3.4,6.2,4.9,12.9,3.7,20.1
		c-0.2,1.5-0.5,3-1.1,4.3c-4.1,10.9-5,22.2-4.3,33.8c0.4,7-2.9,12.3-7.4,17.1c-1.4,1.4-4.4,3-2.5,5.2c1.8,2,3.8-0.8,5.5-1.9
		c8.5-5.4,10.5-14.3,11.4-23.7c0.2-2,0.2-4,0.1-6c-0.4-7.8,0.7-15.3,4-22.5c3.6-8.1,3.9-16.3-1.1-24.2c-1.2-1.9-1.8-4.1-2.9-6
		c-2.2-3.7-2.2-7.2-0.5-11.2c3.2-7.8,3.9-16.4,4.9-24.8c1.2-9.6,2.2-19.3,5.5-28.5c5.1-14.1,14.9-24,27.3-31.2l0.3-0.3l-0.3,0.3
		c-3.4,16.5,2.5,32,4.6,47.9c1.2,8.6,2.7,17.2,2.5,26c-0.3,12.3,2.6,23.6,9.1,33.9c6.9,11.1,6.8,23.1,3.1,35.2
		c-1.6,5.5-3.9,10.7-5.9,16c-0.7,2.1-1.3,4.2-1.8,6.5c-0.2,1,0,2.1,1.2,2.3c0.6,0.1,1.5-0.2,1.9-0.6c1-1.1,1.9-2.3,2.6-3.5
		c6.3-11.7,10-24.2,9.8-37.8c0-5.9-1.1-11.4-3.6-16.5c-0.8-1.6-1.4-3.2-2.3-4.7c-5.6-9.4-7-19.4-7.5-30.5
		c-0.8-17.3-2.3-34.8-6.8-51.6c-2.5-9.4-1-18.1,2.1-27c3-8.5,10.5-11.1,16.7-15.4c1.8-1.2,3,0.5,4.1,1.9c2.8,3.7,5.8,7.3,8.4,11.1
		c7.4,10.7,17.3,18.5,27.2,26.2c3.7,2.9,7,6.1,9.6,9.9c1.9,2.7,1.6,5-1.4,6.8c-12.2,7.2-18.6,18.8-22.1,32.5
		c-3.3,13-6.8,25.9-6.2,39.6c0.4,8.6,2.3,16.7,3.9,25c1.2,6.4,2.5,12.8,4.5,18.8C660.3,908.8,658.6,915,654.2,920.5z M862.8,870.9
		c-10.9,20.1-25.9,36.2-43.2,50.2c-7.4,6.1-13.8,12.9-16.2,23c-1,4.2-1.1,8.4-0.9,12.6c1.2,22.7-6.1,42.6-18.3,60.8
		c-2.7,4-5.8,7.9-8.9,11.6c-5.6,6.4-9.2,13.6-11.4,22c-0.4,1.6-0.7,3.8-2.4,5.2c-6.3-6.5-9.3-15.1-11.9-23.3
		c-1.9-6-1.5-12.3-2.7-18.4c-2.1-9.9-6-18.3-14.3-24c-11.8-8.1-22.8-17.1-32.6-27.8c-21.1-23-34.8-49.6-39-81.4
		c-1.4-10.3-3.5-20.6-3-31.1c0.9-15.8,4.3-31,9.9-45.6c2.1-5.5,6.1-9.5,10.5-13c4-3.2,6-2.6,8.7,1.7c0.9,1.5,1.9,2.9,2.5,4.5
		c6.1,14.2,19.4,16.7,31.3,15c0.5-0.1,0.9-0.2,1.4-0.3c11.4-2,13.4-0.9,18.7,9.6c1.5,3.1,1.4,5.6-1.1,8c0,0-1.3,1.4-1.8,1.9
		c-10.5,11-9.1,9.7-20.5,4.6c-8.2-3.7-14.8-2.8-20.3,4.6c-3.2,4.2-7.2,7.5-12.1,9.2c-4.3,1.5-7.2,4.9-9.5,8.6
		c-2.4,3.8-2.6,7.9-1,12.2c0.3,0.9,1,1.7,2.1,1.7c1.1,0,1.6-0.9,1.9-1.8c0.3-1,0.6-1.9,0.6-2.9c0.1-6.8,4.2-10.5,9.6-12.5
		c5.5-2.1,9.4-5.6,12.7-10.4c3.5-5.1,5.1-5.5,11-3.8c3.4,1,6.9,2,10.3,3.1c2.3,0.7,3.9,2.2,3.3,4.9c-1.9,8.6,0.2,17.5-2.3,26
		c-0.8,2.6-1,5.7-2.2,8.1c-3.3,6.8-5.6,13.5-5,21.2c0.2,3.1-1.2,6.2-3.2,8.5c-4.4,5.2-6,10.9-5.4,17.6c0.5,5.8-0.5,11.2-3.2,16.5
		c-3,5.8-1.5,9.7,4.2,12.7c2.3,1.2,4.8,2.2,7.5,2.2c0.6,0,1.3-0.5,1.7-1c0.5-0.7,0.1-1.5-0.5-2c-0.5-0.5-1.1-0.9-1.7-1.3
		c-6.7-5-6.8-5.1-3.3-12.5c1.7-3.4,2.8-6.8,2.5-10.7c-0.2-4.3,0.9-8.4,2.2-12.4c0.7-2,1.1-4.7,3.7-5c2.2-0.2,3.1,2,4.1,3.7
		c2.1,3.4,4.2,6.7,6.1,10.2c7.9,14.6,15.1,29.4,15.4,46.8c0.1,4.5,1.7,8.8,4.3,12.5c4.8,6.5,7.7,13.7,7.2,22.1c-0.1,0.9,0,2,1.8,2.4
		c3.5-5.2,2.5-11.1,1.8-16.8c-0.2-2.2-0.9-4.6-2.2-6.3c-5.3-7-6-15.5-7.2-23.9c-1.9-13.2-6.2-25.5-12.7-37
		c-4.2-7.5-8.6-14.9-12.6-22.6c-3-5.8-3-12-0.3-18c1.7-3.8,3.1-4.1,5.5-0.8c4.1,5.8,9.8,8.9,16.2,10.2c9.2,1.9,13.4,7.3,14.1,16.9
		c0.3,4.9,1.8,9.8,2.9,14.6c1,4.1,2.7,7.9,5.3,11.3c3.6,4.6,7.2,9.3,8.9,15.2c0.3,1.1,1.2,2.1,2,3c0.4,0.4,1.3,0.7,1.9,0.6
		c1.1-0.2,1.4-1.3,1.2-2.3c-0.9-4.6-1.2-9.7-4.1-13.4c-8.3-10.8-11.3-23.4-13-36.6c-0.9-7-4.8-10.6-10.8-13
		c-4.2-1.7-8.5-3.5-12.8-5.1c-8.2-3-11.9-9.6-11.9-18.7c0-3,0.2-6-0.1-9c-1.2-11.9,3.8-20.6,12.2-27.9c3.1-2.7,5.7-2.9,9-0.7
		c4.4,3,8.8,6.1,13.4,8.7c5,2.8,10.5,4.7,16.1,6.2c6.4,1.7,7.8,3.1,8,9.6c0.2,5.5,2.7,9.5,6.1,13c3.6,3.8,6.8,7.6,7.2,13.3
		c0.2,2.4,1.8,4.1,3.8,5.2c6.6,3.7,12.9,4.3,20.9-0.1c-4.1-1.9-7.2-2.1-10.6-2.2c-4.7-0.1-8.4-2.8-9.6-7.3
		c-1.5-5.6-3.6-10.1-8.3-13.1c-2.1-1.3-3.5-3.4-4.3-5.8c-2.4-6.7-0.4-10.1,6.4-10c14.8,0.3,29.3-2.8,44-4.1c3.3-0.3,6.7-0.5,10-0.4
		c4.9,0.1,7.5,2.3,8.6,7.3C866.2,860.6,865.6,865.7,862.8,870.9z M933.3,772.5c-3.2,29.1-26.1,63.1-66.1,63c-2.8,0-5.5,0.1-8.3,0.3
		c-4.3,0.3-12.9,1.1-12.9,1.1c-0.5,0-1,0.1-1.5,0.2c-6.6,0.3-15,1.1-19.8,1.4h-0.4c-10.3,0-20.7,0.1-31,0.1
		c-22-1.9-38.5-13.8-49.4-33.7c-6-11.1-6.6-23.2-2.9-35.5c6.8-22.4,20.1-39.9,37.6-54.2c2.6-2.1,4.9-2.3,7.9-0.8
		c30.5,14.8,60.6-0.6,76.6-23.3c4.7-6.7,4.9-6.7,12.3-3.4c16.2,7.2,31,16.7,42,31.4C929,734.8,935.5,752.2,933.3,772.5z
		 M954.1,737.9c-1.3,3.6-3.6,6.4-7,8.1c-4.3,2.2-6,1.7-7.6-2.9c-10.8-30.4-33.1-48.4-60.5-60.7c-1.8-0.8-3.5-1.5-5.3-2.2
		c-2.8-1-2.7-3.1-1.9-5.4c0.9-2.5,2.4-2.7,4.5-1.7c8.9,4.2,18.3,4.8,27.9,5.4c21.6,1.3,38.2,11.1,48.1,31.9c2.4,5,3.9,10.2,3.8,16.2
		C956.4,730.3,955.5,734.2,954.1,737.9z M981.5,710.6c-1.9,5.4-3.4,10.9-6.5,15.7c-3.8,6-8.3,10-14.4,12.5c-0.1-0.5-0.4-1-0.3-1.4
		c4.9-21.2-5-36.6-18.6-50.2c-6.8-6.8-15.1-11.3-24.4-13.4c-3.2,0.1-6.4,0-9.5-1.3c-9.6,0.3-19-1.3-28.1-4.3c-4.3-1.4-4.9-3-3.9-7.1
		c0.5-2.3,1.6-2.9,3.6-2.2c13.7,5.2,27.5,2.1,41-0.5c16.9-3.3,30.4,1.5,41.3,15.4c4.2,5.4,9.1,10.1,14.3,14.6
		C984.2,695.5,985.2,699.9,981.5,710.6z M1001.2,659.8c-5.6,9.7-10.1,20.1-14.5,31.5c-8.7-8.1-16.6-14.7-23-23.2
		c-9.2-12.4-21.6-18.3-36.9-16.9c-8,0.8-16.1,1.6-24.1,2.5c-6,0.7-11.9,0.3-17.7-1.5c-2.9-0.9-6-1.8-7.4-5.8
		c2.1-1.4,4.1-0.8,6.1-0.5c10.5,1.4,20.4-0.5,29.6-5.9c4.4-2.5,8.8-5,13.1-7.6c9.9-6.2,19.4-5.4,28.6,1.8c3,2.4,6.3,4.5,9.2,7
		c6.3,5.4,13.6,8.1,21.6,8.7c4.8,0.3,9.4,1.4,13.5,4.2C1001.3,655.6,1002.7,657.2,1001.2,659.8z M1013.1,639.1
		c-0.5,0.8-0.8,1.8-1.4,2.6c-1.9,3.1-2.8,7.5-6,9c-3.2,1.6-5.8-2.6-8.9-3.4c-4-1-7.8-2.3-11.8-3.2c-8.1-1.8-15.3-5.2-21-11.7
		c-5.4-6.2-12.6-9.7-19.4-13.8c-4.2-0.1-8.4-0.2-12.7-0.3c-7.9,2.4-14.8,6.8-21.6,11.4c-8.1,5.6-17,8.8-26.8,9
		c-8.8,0.1-9.6-0.5-11.3-10.4c3.5-1.8,7.4-1.5,11.1-2c10.8-1.5,20.8-5.3,29.6-12.1c4.8-3.7,9.6-7.4,14.9-10.2
		c10.2-5.3,20.1-5.2,29.9,1.2c1.4,0.9,2.9,1.8,4.2,2.8c7.1,5.4,14.9,7.2,23.6,6.6c11.5-0.8,20.9,3.5,27.2,14.2
		C1015,632.3,1015.3,635.6,1013.1,639.1z M1012.2,578.2c6.2,12.1,9.6,24.8,8.4,38.7c-0.3,3.2-0.7,6.3-3.1,10
		c-5.5-8.7-12.4-14.5-21.3-17.4c-5.7-0.6-11.5,0.9-17.1-1.2c-5.3-0.1-9.9-2.5-13.4-6.2c-12-12.5-30.3-10.2-41.8-3.1
		c-5.5,3.4-10.6,7.5-15.8,11.5c-7,5.4-14.8,9-23.4,10.5c-2,0.4-4,1-6.1,0c0.3-0.8,0.4-1.4,0.7-1.6c10.4-5,18.2-13.5,25.7-22.2
		c8.2-9.5,18.3-14,30.2-14.4c12.4-0.4,23.8-3.4,34.4-10.5c9.8-6.5,20.6-7,31.6-3.2C1006.1,570.7,1009.8,573.6,1012.2,578.2z
		 M1001.1,562.5c-0.3,0.4-0.7,0.2-0.9-0.3c-0.8-0.1-1.7-0.3-2.5-0.4c-6.2,0-12.4,0-18.6-0.1c-5.9,2-11.5,4.7-16.9,7.9
		c-7.4,4.3-15.2,6.9-23.7,7.5c-4,0.3-8,1-12,1.7c-11.8,2-21.5,7.7-29.2,17.3c-4,4.9-7.9,10-12.9,13.9c-4,3.1-8.3,5.8-13,7.6
		c-1.6,0.6-3.2,1.3-4.7,0c-0.7-0.6-1.4-1.5-1.6-2.3c-0.3-1.1,0.7-1.8,1.6-2c12.6-3.3,19.8-13.3,26.6-23.5
		c4.7-6.9,8.9-14.2,13.3-21.3c5-8,11.4-13.9,20.5-16.3c6.5-1.7,12.4-5.4,17.6-9.7c11.5-9.4,23-9,35.1-1.4
		c8.4,5.3,16.2,11.4,21.2,20.5C1001,561.8,1001.2,562.3,1001.1,562.5z M1062.4,528.8c-3.3,3-7.1,5.1-11.6,4.9
		c-13.8-0.6-26.9,2.5-39.6,7.9c-9.1,3.9-17.9,3.7-26.7-1.8c-14.3-8.9-30.3-12.9-46.5-16.5c-1.4-0.3-2.8-0.5-4.2-0.9
		c-5-1.4-5.3-1.8-4.5-7.2c0.8-5.2,0.6-10.4,0.3-15.6c-0.2-4.2,0.5-5.1,4.2-4.4c9.1,1.7,17.6,4.9,24.1,12c4.5,4.9,9.8,7.6,16.1,8.7
		c5.4,1,10.4,3.6,15.2,6.3c4.4,2.5,9,3,13.8,2.3c1.6-0.2,3.3-0.5,4.2-3.5c-13.5-1-24.4-9-36.7-12.5c-4.1-1.2-7.8-3.6-10.8-7
		c-1.7-1.9-2.6-3.7,0.3-5.3c6.9-3.7,11.5-11.4,19.7-12.5c-0.2-3.2-2.1-3.3-3.6-3.2c-2.4,0.1-5,0.5-6.6,2.4
		c-5.4,6.4-12.5,6.5-19.7,6.1c-3.1-0.2-6.2-0.2-9.3-0.1c-8.6,0.2-15-4.2-20.2-10.9c-1.6-2.1-1.4-3.6,1.1-4.5c1.4-0.5,2.8-0.8,4.2-1
		c18-2.2,33.9-9.6,48.4-20.6c5.7-4.3,6.8-4.2,12.5,0.2c5.6,4.3,9,10.2,11.9,16.5c3.1,6.7,6.4,13.4,9.3,20.2
		c3.4,8.1,9.3,13,17.3,15.5c5.7,1.8,11.1,4.4,16.6,6.8c7.5,3.4,13,10,20.5,13.4C1064.2,525.5,1063.9,527.4,1062.4,528.8z"/>
</g>
</svg>
