<?xml version="1.0" encoding="utf-8"?>
<!-- Generator: Adobe Illustrator 22.1.0, SVG Export Plug-In . SVG Version: 6.00 Build 0)  -->
<svg version="1.1" id="Layer_1" xmlns="http://www.w3.org/2000/svg" xmlns:xlink="http://www.w3.org/1999/xlink" x="0px" y="0px"
	 viewBox="0 0 1080 1080" style="enable-background:new 0 0 1080 1080;" xml:space="preserve">
<style type="text/css">
	.st0{fill:#C3872B;}
</style>
<title>flower element-yellow</title>
<g id="_Group_">
	<path id="_Path_" class="st0" d="M1066.8,248.1L1066.8,248.1L1066.8,248.1z"/>
	<path id="_Path_2" class="st0" d="M1046,217.4c0.2,0.2,0.5,0.4,0.7,0.6c0.9,0.7,1.7,1.6,2.4,2.5c-0.8-0.7-1.6-1.4-2.4-2
		c-8.1-6.2-16.7-13.7-24.3-20.5C1030,204.9,1037.9,211.2,1046,217.4z"/>
	<polygon id="_Path_3" class="st0" points="912.3,629.4 912.6,629.7 912,629.1 	"/>
	<polygon id="_Path_4" class="st0" points="581.5,916.3 581.8,916.5 581.8,916.5 	"/>
	<path id="_Path_5" class="st0" d="M599.6,135.6c-1,0-1.9-0.3-1.9-1.6c0-1,0.7-1.8,1.7-1.9c1.1-0.1,1.8,0.4,1.9,1.2
		C601.3,134.9,600.6,135.6,599.6,135.6z"/>
	<path id="_Path_6" class="st0" d="M598,140.3c1.9-0.1,3.2,0.7,3.4,2.8c0.2,2.6-1,4.1-3.3,4.4c-2.1,0-3.5-0.7-3.7-2.8
		C594.2,142,595.4,140.5,598,140.3z"/>
	<path id="_Path_7" class="st0" d="M527.3,185.9v-0.2l0,0c2.2-7.4,4.6-14.7,5.6-22.5c0.1-0.6,0.3-1.3,0.5-1.9l0,0
		c0-0.1,0.1-0.1,0.1-0.2c0-0.2,0.1-0.4,0.2-0.5c1.2-2.1,3.2-3.7,5.5-4.3c-0.2,2.2-0.4,4.3-0.6,6.4v0.3c-0.4,5.8-1.4,11.6-2.9,17.2
		c-0.4,1.4-1.2,3,0,4.2c1.4,1.4,3.1,0.5,4.6-0.2c3.5-1.6,6.6-4.2,8.8-7.4c5.5-7.7,12.7-11.6,21.8-12.5c7.5-0.7,14.8-1.8,19.4-9.2
		c0-0.1,0.1-0.2,0.2-0.3c0.5-0.8,1.6-1,2.3-0.5c1.2,0.8,1.2,2,0.8,3.3c-1.4,4.2-4.7,7.6-8.9,9c-4,1.4-8.2,2.4-12.4,3.1
		c-8.3,1.2-14.9,4.8-19.5,12.2c-2.3,4-6.1,7.1-10.5,8.5c-3.2,1-6.6,1.6-10,1.6h-0.1c-1.6,0-3.2-0.1-4.8-0.3
		c-0.4-0.5-0.9-0.9-1.4-1.3C526.5,188.9,526.9,187.4,527.3,185.9z"/>
	<path id="_Path_8" class="st0" d="M498.4,113.3c0.9-4.2,0.5-4.6,5.4-7c2.5,4.7-0.2,1.3,1.3,12.1c0.5,1.8,1.2,3.5,2.1,5.1
		c5.7,8.1,5.2,14.8,1.5,23.9c-1.5,3.7-2.5,4.7-1.6,10.9c0.2,4.3,2.6,6.3,3.8,8.1c0.9,1.2,1.6,2.9,0.1,4c-1.8,1.4-3.1-0.4-4.2-1.5
		c-2.2-2.3-3.7-5.3-4.2-8.5c-1-4.4-0.9-9,0.3-13.3c2.2-7.4,1.4-15.4-2.2-22.3C499,121.2,497.8,117.4,498.4,113.3z"/>
	<path id="_Compound_Path_" class="st0" d="M468.1,282.2c-0.1,10.7,7.2,19.4,16.6,19.7c10.9,0.4,20-9.3,20.8-22.2
		c0.6-9.8-7.1-16.7-18-16.8C476.2,262.7,468.2,270.7,468.1,282.2z M476,282.1c-0.2-6.1,4.9-10.8,12-11c6-0.2,9.3,2.8,9.4,8.5
		c0.1,7.6-4.9,14.4-10.7,14.4C481.5,294,476,287.9,476,282.1z"/>
	<path id="_Path_9" class="st0" d="M501.2,363.5c-0.2-2.4,2.6-3.8,3.9-2c4.6,6.5,11.6,8.2,18.3,10.7c5.7,2.1,7.2,5.4,6.6,13.8
		c-4.4-7.6-11.1-9.8-18.2-11.2c-2.9-0.6-4.5,0.2-5.1,3.4c-1,5.1-2.2,10.1-3.4,15.2c0,2.2,0.1,4.4,0.1,6.6c0.9,2.3,1.5,4.8,2.8,6.8
		c1.7,2.7,4,4.9,6,7.4c0.8,1,1.4,2.1,0.6,3.4c-0.7,1.1-2,1.5-3.2,1c-1.6-0.5-3.1-1.2-4.5-2.2c-7.1-5.3-9.6-12.7-8.6-21.5
		C497.7,384.3,502.3,374.3,501.2,363.5z"/>
	<path id="_Path_10" class="st0" d="M459.9,400.6c5-7.3,9.7-14.8,12.6-23.3c1.3-3.2,3.5-6,6.3-8c1.1-0.9,2.4-2.1,3.8-0.8
		s0.6,2.9-0.1,4.1c-3.6,6.3-5.2,13.3-7.2,20.2c-1,4.1-3.3,7.7-6.4,10.5c-4.9,3.9-7.5,10-6.9,16.2c0.5,4,0,8.1-1.3,12
		c-0.8,2.2-2.6,2.2-3.8,0.3c-0.8-1.3-1.3-2.6-1.5-4.1C453.1,418,454.3,408.9,459.9,400.6z"/>
	<polygon id="_Path_11" class="st0" points="475.9,749 475.8,749 475.6,748.7 	"/>
	<path id="_Path_12" class="st0" d="M386.7,653.5c0.1,2.4-1.7,4.4-4.1,4.5c-2.4,0-4.1-1.2-4.4-3.8c0-0.2-0.1-0.3-0.1-0.5
		c-0.2-2.3,1.5-4.4,3.9-4.6c2.3-0.2,4.4,1.5,4.6,3.9C386.7,653.2,386.7,653.4,386.7,653.5z"/>
	<path id="_Path_13" class="st0" d="M339.5,646.4c4.3,3.1,9.7,4.4,14.9,3.6c1.6-0.3,3.2-0.6,4.9-0.9c1.4,0.1,2.8,0.2,4.2,0.5
		c1.5,0.3,2.9,0.9,2.9,2.7c-0.1,1.4-1.2,1.9-2.4,2.3c-4.7,1.4-9.6,2.6-14.6,2.4c-4.8-0.1-9.4-1.9-13.1-5c-1.8-1.6-5-3.1-2.8-6.4
		C335.5,642.7,337.8,645,339.5,646.4z"/>
	<path id="_Path_14" class="st0" d="M317.9,598.3c0.7-9.4,3.2-18.5,7.4-26.9c0.7-1.4,2.1-2.1,3.5-0.6c1,3.1,1,6.1-0.8,8.9
		c-1.6,3.1-1.8,6.7-2.7,10c-0.7,2.9-0.4,5,3.1,6.1c2.8,0.9,2.7,2.9,0.3,4.9c-1.1,0.9-2.3,1.7-3.6,2.3
		C320.9,604.8,317.5,602.8,317.9,598.3z"/>
	<path id="_Compound_Path_2" class="st0" d="M246.5,640.5c0.2,8.7,4.5,13.6,12,13.6c0.2,0,0.3,0,0.5,0c8.6-0.2,15.3-7.3,15.1-15.9
		c-0.2-8.3-5.3-13.5-13.2-13.4C251.8,624.9,246.3,630.9,246.5,640.5z M253.7,640.4C253.7,640.4,253.7,640.4,253.7,640.4
		c-0.2-4.3,3.1-7.9,7.4-8.1c3.1,0,5.5,2.7,5.6,6.3c0.1,4.1-3.6,8.7-7.1,8.8C256.5,647.5,253.9,644.4,253.7,640.4z"/>
	<path id="_Path_15" class="st0" d="M386.4,204.5c-0.4-0.6-0.4-1.3-0.2-2c0.2-0.6,1.1-0.8,1.6-1.2c0.7,0.2,1.4,0.5,2.1,0.8
		c4.9,3,10,5.8,14.2,9.9c1.5,1.3,2.7,2.9,3.5,4.7c0.7,1.4,0.2,3.1-1.1,3.9c-0.2,0.1-0.3,0.2-0.5,0.3c-1.2,0.5-2.7-0.1-3.2-1.3
		c-3-5.4-8.1-8.2-12.7-11.7C388.7,206.9,387.5,205.8,386.4,204.5z"/>
	<path id="_Path_16" class="st0" d="M303.1,246.2c8.3-7.5,17.8-11.4,28.9-9.7c7.1,1.1,13.8,3.9,20.2,7.1c10.1,5.1,20.8,6.9,31.8,7.2
		c1.5,0,3.3,1,4.5-1.3c-2.2-4.9-8-7-9.2-12.9c4.6,1.5,8.8,3.8,12.6,6.8c2.9,2.4,4.8,5.7,5.4,9.4c0.8,4.2-0.3,5.6-4.5,5.1
		c-5.2-0.6-10.3-1.8-15.5-2.2c-12.4-0.9-24.3-3.5-35.6-9.5c-10.4-5.5-21.3-4.4-31.7,0.9l-5.1,2.7c-1.2,0.6-2.5,0.8-3.2-0.5
		C301,247.9,302.2,247,303.1,246.2z"/>
	<path id="_Path_17" class="st0" d="M273.7,269.8c0.2-1.4,1.4-2.4,2.8-2.2c1.6,0.3,2.6,1.2,2.5,2.9c0,0.1,0,0.3,0,0.4
		c-0.2,1.3-1.4,2.3-2.8,2.1c-0.2,0-0.4,0-0.6,0c-1.3-0.2-2.1-1.5-1.9-2.8C273.7,270,273.7,269.9,273.7,269.8z"/>
	<path id="_Path_18" class="st0" d="M261.1,283.4c0.2-1.1,1.3-1.8,2.4-1.6c0,0,0.1,0,0.1,0c0.9,0,1.7,0.9,1.6,1.8c0,0.2,0,0.3,0,0.5
		c-0.1,1-1,1.8-2,1.7c-0.1,0-0.2,0-0.3,0c-1.1-0.1-1.9-1.1-1.8-2.2C261.1,283.6,261.1,283.5,261.1,283.4z"/>
	<path id="_Path_19" class="st0" d="M261.6,556.5c1.2-0.7,2.2,0.3,3,1.2c2.3,2.5,4.9,4.4,8.7,4.8c0.7-7.2-0.6-14.3,1.9-20.9
		c2.4-6.4,4.9-12.7,10.4-17.9c1.8,5,0.4,8.8-1.5,12.6c-2.2,4.4-4.7,8.6-4.8,13.8c-0.6,6.6,1.2,13.4-1.4,19.8
		c-1.5,0.3-2.5,3.4-4.1,1.8c-3.5-3.6-7.8-5.6-12-7.8c-1.3-0.7-2.1-2.2-2.1-3.7C259.5,558.7,260.2,557.3,261.6,556.5z"/>
	<path id="_Path_20" class="st0" d="M257.1,538.9c2.5,0.2,3.9,1.7,4,4.3c0,0.2,0,0.4,0,0.6c-0.2,2.4-2.2,4.1-4.6,3.9
		c-2.4-0.3-3.7-1.8-4.1-4.2C252.4,540.9,254.6,538.7,257.1,538.9z"/>
	<path id="_Path_21" class="st0" d="M257.1,532.1c-0.2,1.5-1.5,2.6-3,2.4c-0.1,0-0.2,0-0.3,0c-1.1-0.2-1.9-1.3-1.6-2.5
		c0.1-1.7,1-2.6,2.2-2.7c1.7,0,2.7,0.9,2.7,2.1C257.1,531.6,257.1,531.8,257.1,532.1z"/>
	<path id="_Path_22" class="st0" d="M274.4,762.3c2.2-0.3,4.3,1,5,3.1c1.5,1.7,1.3,3.4,0,5.1c-0.4,1.4-1.5,2.6-2.8,3.2
		c-2.3,1-4.7,1.2-6.6-0.7c-1.7-1.5-2.3-3.9-1.4-6C269.3,764.4,271.6,762.5,274.4,762.3z"/>
	<path id="_Path_23" class="st0" d="M250.4,738.8c1.9-4,4-7.9,6.3-11.7c2.8-4.3,5.7-3.8,7.5,1.3c2.5,7,5,14,8.9,20.3
		c1.3,1.8,1.8,4.1,1.6,6.3c-0.3,1.7-0.7,3.6-2.7,3.9c-1.8,0.3-2.3-1.3-2.9-2.7c-2.8-6.8-7.8-12.4-9.7-19.6c-3.1,1-3.4,3.6-4.8,5.1
		c-1,1.2-1.8,3.5-3.8,2.4C248.7,742.9,249.6,740.6,250.4,738.8z"/>
	<path id="_Path_24" class="st0" d="M171.6,672.5c-3,1.1-6.3,1.6-9.5,1.3C165.1,671.7,168.4,672.6,171.6,672.5z"/>
	<path id="_Path_25" class="st0" d="M100.5,561.7c-6.2,0.1-12.4,0.1-18.6,0.1C87.8,559.5,94.5,559.5,100.5,561.7z"/>
	<path id="_Path_26" class="st0" d="M78.6,561.4c0.2,0.3,0.5,0.5,0.7,0.8c-0.2,0.5-0.6,0.7-0.9,0.3
		C78.3,562.3,78.5,561.8,78.6,561.4z"/>
	<path id="_Path_27" class="st0" d="M67.7,1063.3c-0.3,0.2-0.6,0.4-1,0.5c0.4-0.2,0.7-0.5,1-0.8V1063.3z"/>
	<path id="_Path_28" class="st0" d="M66.6,1063.8C66.6,1063.9,66.6,1063.9,66.6,1063.8L66.6,1063.8
		C66.6,1063.9,66.6,1063.9,66.6,1063.8z"/>
	<path id="_Path_29" class="st0" d="M390.4,966c0,0.1,0,0.1-0.1,0.2c-0.1,0.1-0.1,0.2-0.2,0.2c-0.7-0.2-0.7-0.7-0.6-1.3l0.6,0.6
		L390.4,966z"/>
	<path id="_Path_30" class="st0" d="M389.6,964.9c0,0.1,0,0.1-0.1,0.2l0,0C389.5,965.1,389.5,965,389.6,964.9z"/>
	<path id="_Path_31" class="st0" d="M67.7,1063.3c-0.3,0.2-0.6,0.4-1,0.5c0.4-0.2,0.7-0.5,1-0.8V1063.3z"/>
	<path id="_Path_32" class="st0" d="M66.6,1063.8C66.6,1063.9,66.6,1063.9,66.6,1063.8L66.6,1063.8
		C66.6,1063.9,66.6,1063.9,66.6,1063.8z"/>
	<path id="_Path_33" class="st0" d="M390.4,966c0,0.1,0,0.1-0.1,0.2c-0.1,0.1-0.1,0.2-0.2,0.2c-0.7-0.2-0.7-0.7-0.6-1.3l0.6,0.6
		L390.4,966z"/>
	<path id="_Path_34" class="st0" d="M389.6,964.9c0,0.1,0,0.1-0.1,0.2l0,0C389.5,965.1,389.5,965,389.6,964.9z"/>
	<path id="_Path_35" class="st0" d="M100.5,561.7c-6.2,0.1-12.4,0.1-18.6,0.1C87.8,559.5,94.5,559.5,100.5,561.7z"/>
	<path id="_Path_36" class="st0" d="M171.6,672.5c-3,1.1-6.3,1.6-9.5,1.3C165.1,671.7,168.4,672.6,171.6,672.5z"/>
	<path id="_Path_37" class="st0" d="M78.6,561.4c0.2,0.3,0.5,0.5,0.7,0.8c-0.2,0.5-0.6,0.7-0.9,0.3
		C78.3,562.3,78.5,561.8,78.6,561.4z"/>
	<path id="_Path_38" class="st0" d="M1066.8,248.2L1066.8,248.2L1066.8,248.2L1066.8,248.2C1066.8,248.3,1066.9,248.3,1066.8,248.2z
		"/>
	<path id="_Path_39" class="st0" d="M1026.2,201.3c6.5,5.5,13.2,10.7,19.8,16c0.2,0.2,0.5,0.4,0.7,0.6c9.1,7.8,15.3,19.7,18.2,26
		c-5.3-11.2-10.6-18.6-15.8-23.4l0,0c-0.8-0.7-1.6-1.4-2.4-2c-8.1-6.2-16.7-13.7-24.3-20.5C1023.6,199.2,1024.8,200.3,1026.2,201.3z
		"/>
	<path id="_Path_40" class="st0" d="M540.7,965c0.4,0.2,0.7,0.5,1.1,0.7l-0.2,0.3C541.3,965.7,540.1,966.2,540.7,965z"/>
	<polygon id="_Path_41" class="st0" points="475.9,749 475.8,749 475.6,748.7 	"/>
	<polygon id="_Path_42" class="st0" points="581.8,916.5 581.8,916.5 581.5,916.3 	"/>
	<polygon id="_Path_43" class="st0" points="527.5,955.3 527.8,955.7 527.3,955.5 	"/>
	<path id="_Compound_Path_3" class="st0" d="M5.1,526.1c7.4,10.3,16.9,15.7,29.4,15.4c15.6-0.4,28.9,8.1,44.2,12
		c-18,22.6-30.7,46.2-25.4,77.6c0.3,1.7,0.8,3.3,1.5,4.9c1,2.1,28.7,46.5,30.7,63c1.4,5,2.8,10,4.5,14.9c0.4,1,0.6,2,0.7,3
		c1.5,4.4,3.4,8.7,5.7,12.8c0.4,0.6,0.8,1.2,1.2,1.9c6.1,9.8,14.3,16.6,24.9,20.2c3.4,1.2,6.9,2.1,10.3,3.2c5,1.6,5.5,2.4,5.6,8
		c0.1,5.9-0.1,11.9,1.3,17.8c5.8,24.3,15.3,45.6,38.5,57.1c0.8,0.4,1.6,0.9,2.3,1.4h0.1l0.1,0.1c0.6,0.4,1.1,0.8,1.6,1.3
		c2.2,1.8,4.8,3,7.6,3.6c6,1.1,11.1,1.9,16.2,2.9c2.2,0.4,3.6,1.4,2.4,4c-4.2,8.9-1.6,16.8,2.9,24.7c9.9,17.3,21.9,32.6,36.9,45.3
		c3.9,3.3,7.8,6.5,11.6,9.9c8,7.3,12.1,16.4,10.7,27.8c-0.2,3.2-0.2,6.5,0.2,9.7c1.3,20.6,8.1,38.8,21.1,54.4c1,1.1,1.9,2.4,2.6,3.7
		c1.5,2.3,3.2,4.5,5,6.6c1.4,1.4,2.7,3,3.8,4.7c1.9,3.1,3.3,6.4,4.2,9.9c1.5,2.1,2,4.8,2.6,7.4c1.5,5.8,1.7,11.8,2.5,17.7
		c0.3,1.9,0.3,4.2,2.8,4.6c2.7,0.5,3.9-1.4,4.7-3.6c1.8-4.8,4.2-9.5,7-13.8c6.6-10.3,10.6-21.6,10.8-34.2c0-11.3,5.4-22,14.5-28.7
		c2.8-2.3,5.8-4.3,8.8-6.3c10.8-7.1,20.6-15.3,28.8-25.5l0,0c0.1,0,0.1,0,0.1-0.1l0,0c1.1-1.5,13.2-18.7,21.6-33.2
		c0.5-1,1-1.9,1.5-2.8c0.2-0.4,0.4-0.7,0.7-1.1l0,0c0.1-0.2,0.2-0.3,0.3-0.4c1.5-1.7,3.2-1.8,5.4-0.2c3.3,2.4,6.4,5,10.3,8
		c0,0,16.7,10.3,46.2,6.6c0,0,8.1-2.2,9.8-2.5s10.4,0,15.4,0.5l0.1,0.1c8,0.4,19.2,5.9,24.5,11.6l0,0c0,0,8,7.2,17.1,14.4l0,0
		c7.4,3.5,13.3,9.4,20.3,13.7c0,0,3.3,2.4,10.8,4.3l0,0c0.5,0,1,0.1,1.5,0.3c7.1,1.3,14.1-0.4,17.5-6.5c3.6-6.6,4.3-11.5,2.8-25.4
		c-1.6-5.8-4.2-11.1-6.3-16.7c-2.4-6.4-6.6-12.1-7.3-19.3l0,0c-0.4-0.7-8.8-17.4-0.8-73.5c0.3-6.7-0.2-13.4-1.6-20
		c-3-15.6-10.7-28.5-20.9-40.1c-4.8-5.5-9.5-10.9-14.7-16.9c-7.8-8.1-14.1-17.4-18.9-27.5l0,0c-0.6-1.1-1.2-2.3-1.9-3.6
		c-8-15.9-13.8-32.7-19.5-49.6c-7.1-21.1-17-40.5-33.1-55.8c-1.8-1.7-3.8-3.6-3.4-6.5c1.4-0.9,2.1-0.2,2.9,0.3
		c9.1,5.5,19.1,7.3,29.4,7.9c5.8-0.4,11.6-1.3,17.2-2.8c5.1-1.4,10-3.2,14.8-5.4c15.3-6.5,29.4-15.2,44.2-22.7
		c6.4-3.2,12.1-5.7,20-9.4c0,0,20.9-9.9,39.3-9.2l22.9-0.1c0,0,29.2-0.8,40,2.4c0.5,0.1,0.9,0.3,1.3,0.5c5.7,1.6,10.8,4.8,14.8,9.2
		c3.3,3.6,6.7,7,11.2,11.5c2.4,2.3,5.4,3.8,8.6,4.5c-1.1,2.4-2.7,4.4-4.8,6c-4.7,3.8-10.2,6.4-16.1,7.7c-2.3,0.3-4.7,0.4-7,0.1
		c-2,0-3.7-1.5-4-3.5c-0.5-1.4-0.8-3-0.7-4.5c0.1-3.9,0.8-7.7,2.1-11.3c0.5-1.6,0.9-3.2,1.1-4.9c0.3-8.6-4.8-12.4-12.5-9.1
		c-6.2,2.6-11.7,6.7-13.9,13.3c-3.5,10.5-2.2,18.4-0.4,22c6.4,12.2,8.2,12.7,9.7,14.1c3.3,3.1,7.6,4.6,16,7c2.7,0.7,5.6,1,9.5,1.6
		c0,0,12.9,0.5,22.7-7.7l0.4-0.4c0.1,0,0.2-0.1,0.3-0.2l0.5-0.5c0.2-0.2,0.5-0.4,0.7-0.6l0.1-0.1c4.4-4.2,8.6-8.8,12.3-13.6
		c0.5-1,1.2-1.9,1.7-2.8c0-0.1,0.1-0.1,0.1-0.2c0.7-1.3,2.3-1.7,3.6-1c4,2.3,8.2,4.3,12.2,6.5l0,0c0.1,0,0.1,0,0.2,0.1
		c15.3,6.2,31.8,9,48.3,8.3h0.6c0.7-0.1,1.3-0.2,2-0.1c5.1-0.2,17.4-0.5,27.6,1.3c0.1,0,0.2,0.1,0.4,0.1l0.7,0.1
		c9.9,1.8,19.5,5,28.6,9.4c0.1,0.1,0.3,0.1,0.4,0.2c2.2,1.1,4.3,2.3,6.4,3.6l0.1,0.1c0,0.1,0,0.1,0.1,0.1
		c9.3,5.9,22.5,18.3,32.3,25.1h0.1c0,0.1,0,0.1,0.1,0.1l2.4,1.8c7.8,6,16.6,10.7,26,13.8c8,2.7,16.7,2.6,24.5-0.5
		c5.4-1.8,9.8-5.8,12-11c0.4-0.9,0.8-1.7,1.1-2.3V678c0.1-0.6,0.9-5.4-1.8-13.5c0-0.1-0.1-0.2-0.1-0.3c-0.2-0.6-0.5-1.3-0.7-1.9
		c0-0.1,0-0.2-0.1-0.3c-0.1-0.1-0.1-0.1-0.1-0.2c-0.4-1.1-0.9-2.3-1.3-3.5c0-0.1-0.1-0.2-0.1-0.3c-1.5-3.5-3.4-6.8-5.7-9.9
		c-4.8-6.1-11.6-13.4-16.1-20c-4.5-6.6-10-13.4-13.1-19.4c-0.5-0.7-0.9-1.5-1.2-2.3c-0.1-0.1-0.1-0.3-0.2-0.4
		c-3.5-6.5-5.6-13.7-6.2-21.1c-0.1-1.4-0.1-2.8,0-4.2l0,0v-0.8c0-0.9,0.1-1.8,0.3-2.7c1.2-9.2,4.7-20.6,4.7-36.1V541
		c-0.3-1.6-0.4-3.2-0.2-4.8c-0.5-4.7-1.4-9.4-2.8-13.9c-0.2-0.3-0.3-0.7-0.4-1.1c-3.7-11.3-9.5-20.7-12.9-26.6
		c-2.2-3.3-2.1-4.8,1.2-7.3c5.6-4.2,11.2-8.2,16.2-13.2c0.6-0.6,1.3-1.2,2.1-1.6l0.1-0.1c1.2-1.4,20.7-23.3,28.3-47.6
		c0.8-3.3,1.1-6.8,0.9-10.2c-0.3-5.8-1.5-14.2-4.8-26v-0.1c-2.3-7.5-5.9-14.5-10.8-20.7c-4.4-5.4-4.4-5.5-0.9-11.7
		c10.8-19.3,21.7-38.5,32.5-57.8c0.3-0.6,0.5-1.2,0.8-1.8l0,0c0.4-0.8,6.4-13.2,10.7-19c0.1,0,0.1,0,0.1-0.1
		c2.9-4.6,6.5-8.8,10.6-12.3c1.2-1,2.4-2.6,3.8-3.5h0.1c0-0.1,0-0.1,0.1-0.1c1.5-1.2,12.7-9.4,21.9-9.4h0.1c5.4-1.1,10.9-1,16.4-0.8
		c1.5,0,3.1,0.1,4.6,0.4l0,0c3.2-0.1,6.5,0,9.7,0.3c4.3,0.4,7.3-0.9,7.6-2.5c0.2-1.3-1.4-2.6-1.8-3c-4.8-2-7.8-16.6-20.4-30.8
		c-8.3-9.3-11.9-12.1-32.4-25.9h-0.1c-0.6-0.3-1.2-0.7-1.8-1.2h-0.1c-19.3-12.7-29.1-14-29.1-14c-12-2.6-24.2-4.4-36.5-5.3
		c-6.1-0.6-12.3-0.6-18.4-0.2c-5.8,1.1-11.7,2-17.4,4c-6.5,2.3-12.7,5.3-18.7,8.7c-0.5,0.3-0.8,0.5-0.8,0.5
		c-6.3,3.7-12.1,8.1-17.3,13.1c-1,1.1-2.1,2-3.3,2.9c-0.1,0.2-0.3,0.3-0.5,0.4c-20.3,15.4-37.9,20.3-40,20.8c-2,0.8-3.9,0.6-5.8,0.7
		c-14.8,1.2-29.3-1.9-43.9-3.9c-12.9-1.8-25.7-1.6-38.1,2.9c-2,0.7-3.8,1.9-6,2.6l0,0c-1.3,0.6-2.6,1.3-3.8,2.1
		c1.2-12.9,0.3-25.9-2.6-38.5c-3.6-10.7-6.6-15.5-6.9-16.1v-0.1c-0.1-0.1-0.2-0.3-0.3-0.4c-0.1-0.2-0.3-0.4-0.5-0.7
		c-2.2-2.9-4.3-5.8-6.6-9c-0.5-0.6-0.9-1.3-1.4-1.9c-1.1-1.6-2.2-3.1-3.3-4.6c-4.9-6.8-14-9.9-15.1-10.3h-0.1c-3-0.5-6.1-1.2-9.1-2
		c-5.4-1.4-6.1-2.2-6.2-8.2V122c0-0.9,0.1-1.8,0.2-2.7l0,0c1-13-0.1-26.1-3.5-38.7v-0.2c-4.8-11.6-13.1-18.7-24.9-21.4
		c-4.9-1.1-9.7-2.6-14.6-3.6c-11.7-2.2-22.4-8.2-30.3-17.1c-6.4-7-12.9-13.8-20.6-19.2c-0.5-0.3-1-0.6-1.4-1
		c-0.5-0.3-0.9-0.7-1.3-1.1c-7.2-5.7-12.8-4.9-12.8-4.9c-14.2,0.4-29.9-1.7-30.9-1.7c-0.6,0-1.2-0.1-1.7-0.3c-3-0.7-8.6-2.2-8.6-2.2
		c-41-11.8-53.7,1.3-53.7,1.3c-4.9,5.1-10,9.2-16.4,5.8c-5.6-2.2-11.3-3.8-16.2-7.5c-5.6-4.2-11.6-5.1-18.3-4.1
		c-13.3,1.9-25.8,6.8-38.6,10.4c-1.6,0.4-3.1,1.3-4.8,1.4l0,0c-6.4,1.8-12.2,3.9-22.5,5.8c-5,1-9.9,2.4-14.7,4.2
		c-4.1,1.5-6.9,2.8-6.9,2.8c-1.5,1.2-3.2,2.2-5,2.9c-3.8,1.5-7.4,3.6-10.6,6.1c-15.3,11.5-30.1,23.6-41.8,39.3c-0.7,1-1.6,2-2.5,2.8
		c-3.2,3.6-5.9,7.7-7.9,12.1c-0.2,0.6-0.4,1.2-0.7,1.7c-3.6,7.6-6.4,15.6-8.1,23.9c-0.7,3.3-2.2,5.2-5.4,6
		c-11.7,2.9-18.9,11-23.3,22.2c-0.4,0.9-0.7,1.7-1,2.3l0,0c0,0.1-0.1,0.2-0.1,0.3c-0.5,1.2-2.5,6.3-3.5,20.5l-0.1,0.3
		c-0.2,2-1,12-1.9,15.9c0,0.3-0.7,3.7-1.5,7s-1.5,6.5-1.5,6.5c-0.5,2.8-5.7,21.3-12.2,31.6c-3.2,6.7-7.8,13.2-10.7,20
		c-3.2,7.3-4.7,15-2.9,23.2s1.3,8.8-6.6,9.5c-0.7,0.1-1.5,0.1-2.2,0.1c-17-0.4-32.3,5.3-46.7,14.2c-10.9,6.7-21.3,14.3-31.5,22
		c-9.3,6.9-19,8.6-29.8,5.1c-5-1.6-10-3.1-15-4.7c-12.3-3.8-23.6-1.7-33.8,6.3c-11.8,9.2-21.5,20.9-28.3,34.2
		c-0.7,1.3-0.5,3.6-3.2,3.5c0,0-4.5,3.2,1.2,9c5.4,5,11,5.1,16.8,5.1c21.4,0,37.5,9.6,47.9,29.3c5.9,11.1,12.5,21.8,19.8,32
		c0.8,1.2,1.9,2.2,1.9,4.2c-5.7,3.7-11.2,8.1-14.6,14.6c-0.3,0.6-6.2,15.2-7.7,17.9s-6.6,12.5-8.2,14.5c-0.4,0.8-4.1,5.4-4.1,5.4
		c-6.2,3.4-20.7,10-26.7,12.6c-1.6,0.7-3,1.7-4.2,3c-1.6,1.8-3.4,3.5-5.3,5c-2,1.6-4.3,2.9-6.8,3.6h-0.1c-0.9,0.3-1.9,0.4-2.8,0.5
		C2.2,521.7,4.9,525.5,5.1,526.1z M16.5,369.7c0.1-1.2,1.1-1.6,2-1.8c3.4-0.8,6.8-1.9,10.5-1.4c23.1,3.1,42.6,13.7,59.1,30.5
		c10.9,11.1,21.5,22.6,32.3,33.8c10.1,10.5,22.2,18.7,35.6,24.3c6.4,2.6,13.2,3.9,20.4,6.6c-7.2,7.7-9.1,8.8-15.5,7.3
		c-9-2.1-18.1-4.3-27-6.9c-18.5-5.4-32.1-17.7-43-33.8c-7.8-11.6-13.5-24.6-22.2-35.6c-9-11.6-20.5-18.1-34.9-19.1
		c-5-0.3-10-1-14.9-1.6C17.7,371.8,16.6,371.3,16.5,369.7z M348.6,793.1c1.2-7.4,1.1-15-0.1-22.4c-2.2-12.3-7.9-22.9-14.7-32.9
		c-7-10.3-15.8-19.2-26.1-26.2c-1.3-0.9-3.3-1.9-2.3-4c1.1-2.3,3.1-1.8,5-1c0.7,0.3,1.3,0.6,1.9,1c8.8,5.1,17.2,10.7,24.6,17.8
		c11.3,10.9,18.3,23.9,20,40.1c1,9.6,2.4,19.3,5.9,28.4c3.4,8.8,3.4,8.9-5.4,8.7H356C347.2,802.3,347.1,802.2,348.6,793.1
		L348.6,793.1z M628.8,545.1c-5.8,1-12.3,2.1-17.5-0.5c-5-2.5-8.9-7.3-13.1-11.3c-1.9-1.8-1.3-3.7,1-4.6c2.9-1.2,5.9-2,9-2.3
		c5.9-0.1,16.2,3.4,22.8,7.8c2.4,1.6,6.5,2.6,6,6.5C636.3,545.1,631.8,544.6,628.8,545.1L628.8,545.1z M622.6,549.9
		c6.9-0.4,13.7-0.7,19.7-5c1.6-1.2,3.2-0.7,4.5,0.6c1.7,1.9,3.9,3.4,4.9,5.9c-11.8,10.1-23.8,9.9-31.7-0.7
		C620.8,550.3,621.7,550.1,622.6,549.9z M562.4,522.3c13.7,2.7,24.9,10.3,35.7,20.2c-1.2,0.9-1.6,1.4-2,1.4
		c-2.3,0.1-4.7,0.2-7.1,0.1c-18.4-1.1-36.8,1.9-53.9,8.8c-18.1,7.4-36.6,12.8-55.9,14.8c-11.6,1.1-22.9,1.5-32.2-7.8
		c-1.1-1.1-3.3-1.7-2.6-3.9c0.6-1.7,2.4-1.2,3.8-1.4c12.1-1.5,24-4,35.2-9.1c2-0.9,4.1-1.3,6.2-1.4c11-0.7,21.7-4.2,31-10.2
		c5.8-3.8,12.1-6.9,18.6-9.3C546.7,521.9,554.5,520.7,562.4,522.3L562.4,522.3z M666.3,497.6c1.4,4.7,2.4,9.6,3.3,13.3
		c0,4.4-0.9,7.1-3.5,9c-2.9,2.2-5.6,4.7-8.5,6.8c-5,3.7-7.6,3.4-11.6-1.7c-7.1-8.9-15.1-16.5-25.4-21.1c-4.1-1.9-4.1-2.5-0.7-6.3
		c6.4-7.3,13.5-14.1,21.1-20.1c5.8-4.4,11.7-8.7,17.7-12.7c2.9-1.9,5-0.5,4.2,2.9C660.4,478.2,663.3,487.9,666.3,497.6z
		 M654.1,452.4c-17.1,13.8-34.1,28-49.7,44.1c-7.2,7.5-15.8,13-26.5,13.2c-2.6,1.3-5.5,1.1-8.3,1.1c-7.6,0.1-15.1,0.1-22.7,0.1
		c-8.5,1.8-16.3,5.4-24.1,9.2c-8,3.9-15.7,8.4-24.3,10.9c-5.4,1.6-10.9,2.2-16.2,0.5c-11.1-3.5-21.1-9.4-28.6-18.9
		c-13.3-16.8-22.5-35.7-26.5-57.2c-4.6-24.9-0.4-47.6,16.1-66.9c8.8-10.3,17-20.9,23.2-33.1c1.9-3.8,4.2-4.8,8.1-3.7
		c6.9,2,14.1,2.5,21.2,1.3c10.9-1.7,20.4-6.5,29.3-13.1c4.6-3.4,4.7-3.4,7.4,1.6c5.2,10.1,11.2,19.7,18,28.7
		c21.3,27.5,47.9,38.4,81.2,28.8c5.7-1.7,11.8-1.8,17.5-3.6c7.1-2.2,12.3,0.6,17.5,5.2c13.4,12,14.2,26.2,1.5,39.2
		C663.7,444.3,659,448.5,654.1,452.4L654.1,452.4z M827.7,461.1c0.1-1.5-0.4-2-1-2.2c-11.2-4.3-22.4-8.7-34.3-10.1
		c-9.5-1.1-19.3-1.8-28.1,3.2c-12.4,7.1-25.9,10-39.5,12.5c-9.4,1.7-18.5,0.9-26.4-5.9c-4.2-3.6-9.1-6.4-13.6-9.6
		c-4.9-3.5-5.2-4.3-2.7-9.8c1.7-3.7,3-7.4,2.7-11.5c-0.5-5.8,2.6-9.6,7-12c7.8-4.3,16-7.8,25.1-7.7c10.5,0.1,21,0.1,31.5,0.1
		c2.6,0,5.3,0.1,7.8-1c1.5-0.6,3.6-1.1,3.2-3.3c-0.4-1.8-2.3-1.5-3.6-1.5c-5.7,0-11.4-0.6-17-1.7c-18.3-3.2-36.1-2.7-52.2,8.8
		c-2.7,2-4.9,1.4-6.7-1.5s-4.3-5.3-6.5-7.9c-3.1-3.6-2.8-4.2,1.9-5.7c1.6-0.5,3.2-0.8,4.8-1.3c12.3-3.3,23-9.4,31.5-19.5
		c2.5-3.1,4.5-6.4,6.7-9.7c1.9-2.9,4.2-3.7,7.4-2.3c5.5,2.3,11.2,4.2,16.7,6.7c11.7,5.2,20.4,13.5,24,26.8c1,4.1,2.6,8.1,3.8,12.1
		c4.9,17.3,15.7,28,32.6,31.9c21.9,5.2,43.2,12.7,63.5,22.4c8,3.9,16.5,6.8,23.8,12.1c2.3,1.7,6.1,2.8,5.7,6
		c-0.4,3.6-4.4,3.8-7.3,4.9c-0.5,0-0.9,0.1-1.4,0.3c-16.4,5.3-32.8,5-49.3,0.5c-12.5-3.4-24.8-7.2-37.6-9.2
		c-9-1.5-17.9-3.5-26.9-3.6c-8.8-0.1-17.6,1-26.1,3.5c-6.2,1.8-11.2-0.3-15.9-4.6c12.1,0.2,23.1-3.5,33.6-9.2
		c3.2-1.8,6.7-2.8,10-4.1c7.1-2.9,14.4-2.9,21.8-1.4c7.2,1.5,14.4,3,21.7,4.5C821.5,461.9,824.7,462.5,827.7,461.1L827.7,461.1z
		 M896.8,399.6c1-3.8-2.9-4.3-5.6-5.3c-0.5-0.2-0.9-0.3-1.4-0.5c-5.9-2-5.9-2-6.2-8.8c-0.1-1.2,0-2.5-0.2-3.7
		c-0.5-3.8-2.8-5.6-6.3-5.9c-2.7-0.2-5.3,0.5-7.5,2.1c-4.1,2.9-8.5,5.4-12.1,9.2c-1.4,1.7-3.2,3.1-5.2,3.9c-1.7,0.6-3-0.1-2.6-2.1
		c0.4-1.7,1-3.3,1.8-4.8c6-12.1,15-21.1,26-28.1c6.1-3.9,13.3-5.8,20.5-5.4c15.3,0.8,27.6,8.4,37.6,20.4c1.6,2,2,3.8,0.2,5.9
		c-3.3,3.9-4.3,8.7-5.2,13.7c-2.1,12.4-8.1,22.8-16.7,31.4c-11.9,12-26.7,20.8-42.9,25.7c-8.1,2.4-15.6,2.6-23.6-0.8
		c-13-5.7-26.5-9.9-40.4-12.5c-15.6-2.8-24.8-13.1-30.4-27.4c-3.7-9.4-6-19.4-11.5-29.7c10.9,1.7,20.2,3,29.6,4.6
		c8,1.3,15.9,3,23.9,4.6c3.8,0.8,6.3,2.8,6.7,7.4c0.4,4,1.5,7.8,3.2,11.4c4.9,10.7,13.6,15,24.6,12.5c7.9-1.7,14.9-6.1,19.8-12.5
		c3.3-4.2,7.4-5.1,12.2-4.1c1.4,0.4,2.8,0.7,4.2,0.9C892,401.9,895.9,403.2,896.8,399.6L896.8,399.6z M921.9,421.9
		c8.7-10,13.6-21.9,15.9-35.1c0.4-2.3,1.2-4.3,4.1-5.2c4.9,7.7,7,16.5,8.1,25.6c1,9.8-0.3,19.7-3.8,28.9v0.1
		c-6.1,15-20.6,26.2-20.6,26.2c-5.6,5.1-11.8,9.5-18.5,13.1c-1.6,0.9-3.1,1.6-4.6,0.2l-8.4-6c-8-6.2-16.9-9.7-26.6-15.5
		c10.4-2.5,18.7-5.4,26.5-9.8c0.9-0.5,1.7-0.9,2.4-1.3l0,0c3.9-2.1,7.5-4.8,10.7-7.9l2-2c0.6-0.8,1.4-1.5,2.3-2
		C915.2,428.5,918.8,425.4,921.9,421.9L921.9,421.9z M413.8,303.6c0.9-0.3,1.8-0.5,2.8-0.5c3.4-0.3,4.7,2.1,5.4,4.8
		c0.8,3.4-2.2,3.2-4,3.9c-0.9,0.3-1.8,0.5-2.8,0.6c-14.4,3.5-28.6,7.8-42.5,12.9c-8.5,3.1-16.2,7.4-22.7,13.8
		c-3.2,3-6.8,5.5-10.7,7.4c-19.5,9.2-35.2,23.4-49.9,39.3c-8.7,9.4-12.6,20.3-10.8,33.3c0.2,1.5,0.3,3,0.3,4.5
		c0.1,4.8-0.2,5.3-4.8,4.9c-8.8-0.9-17.7-0.1-26.1,2.6c-3.5,1.1-5.5-0.2-6.7-3.5c-2.3-6.1-3.5-12.4-3.6-18.9
		c-0.4-7.7,2.4-14.1,7.3-19.6c5.9-6.8,13.4-12,21.8-15.2c15.9-6.1,28.7-16.5,40-29.3c7.5-8.6,16.6-15.7,26.8-20.9
		c15.2-7.8,31.6-12.8,48.5-14.8C392.7,307.6,403.5,307.1,413.8,303.6L413.8,303.6z M415.4,289.4c1.7,5.5,1.5,6.4-3.6,8
		c-4.1,1.4-8.3,2.2-12.6,2.4c-8.1,0.6-16.1,1.7-24,3.3c-31.2,5.7-58.5,19-79.3,44.8c-6.3,7.7-14.5,13.6-23.9,17
		c-8,3.2-15.7,7.4-22.7,12.5c-7.7,5.4-13.8,12.1-16.5,22c-1.7-7.2,0.1-13.7,3.9-19.7c3.6-5.7,8.5-9.9,13.9-13.7
		c7.1-5,14.2-9.9,21.4-14.9c12.7-8.7,23.4-20,31.5-33.1c2.5-3.9,5.2-7.7,8-11.4c10.2-13.3,23.1-20,39.8-18.8
		c6.6,0.5,13.2,1.3,19.9,1.7c13,0.8,26.1,1.2,38.9-3C412.8,285.6,414.4,286.3,415.4,289.4L415.4,289.4z M346.5,453.5
		c-3,9-2.8,18.1-0.4,27.1c0.7,2.7,2.4,5.4,1.7,8.8c-5.7,2.2-11.7,1.3-17.6,1.5c-3.7,0.1-5.6-1.9-6.3-5.6c-1.3-7.1-3.7-13.9-7-20.3
		c-1-1.7-1.5-3.7-1.4-5.7c0.5-5.7,0.5-11.5,1.6-17.1c4-21.2,13.8-40.9,28.4-56.8c5.2-5.6,10-11.4,14.5-17.5
		c8.6-11.9,19.7-20.8,32.4-27.6c12-6.3,25.5-8.4,37.3-15c2-1.1,3.8-0.2,4.8,1.8c1.2,2.4-0.9,3-2.3,3.7c-8.9,4.3-15.6,11.4-21.1,19.6
		c-6.9,10.1-15.7,18.7-26,25.2c-7.5,5-14.2,11-20,17.9c-8.6,10.2-13.9,21.8-14.4,35.7C350.4,437.5,349,445.7,346.5,453.5
		L346.5,453.5z M413.9,517c-11.2-8.7-17.8-19.8-16-35.3c0.2-1.7,0.1-3.4,0.2-5.2c0.6-9.8-1.7-19.2-3.8-28.7
		c-3.3-13.7-1-28.1,6.3-40.1c5.1-8.7,11.2-16.7,18.3-23.8c11.4-11.3,22.7-22.8,34-34.2c0.9-0.9,1.7-1.8,2.6-2.6
		c2-1.9,3.9-1.5,5.8,0.2s0.3,3.3-0.5,4.6c-1.4,2.3-2.9,4.5-4.6,6.6c-7.2,9-14.5,17.8-21.7,26.8c-15.2,18.9-20.2,40.7-17,64.9
		c2.5,19.1,9.4,36.4,19.2,52.6c4.6,7.7,4,9.6-4.2,13.1c-1.5,0.8-3.2,1.1-4.9,1.1C423.2,518.8,418.2,518.8,413.9,517L413.9,517z
		 M411.4,530.3c2.4-1.5,4.3-1.1,6.2-1c9.1,0.5,17.6-1,24.8-7.4c2.6-2.3,4.9-1.2,6.9,1c2.9,3.3,6.4,5.9,9.7,8.8
		c4.3,3.8,9.8,5.8,14,9.3c0.1,1.2-0.8,2.2-2,2.4c-9.8,2.3-19.6,4.7-29.7,3.7C429.4,545.8,418.5,542.2,411.4,530.3L411.4,530.3z
		 M561,351.5c2.7,4,6.5,7.2,10.9,9.2c3.9,1.5,7.2,4.1,9.6,7.4c7.2,10.6,17.6,15.6,29.2,18.4c4.6,1.1,13,2.3,18.7,4.8
		c-1.2,1.3-5.6,0.7-6,0.8c-22.4,5.1-42,0.1-58.1-17.5c-10.5-11.4-18.6-24.5-26.5-37.8c-0.8-1.2-1.3-2.6-1.7-4
		c-0.6-2.7,2.4-7.8,4.9-8.3c2.9-0.5,3.1,2.5,4,4.3C550.3,336.9,555.6,344.2,561,351.5z M548.4,290.9c-4.6,6.4-20.2,6.2-25.4,0.3
		c-1.4-1.5-1.8-3.6-1-5.5c0.7-2,2.3-2,4.1-1.8c9.1,1.1,17.4-0.9,25.3-8.3C552.1,281.9,551.3,286.9,548.4,290.9L548.4,290.9z
		 M541.8,311.3c-3.3,6.6-7.3,9.1-16.9,5c-5-2.2-9.5-5.5-13.2-9.6c1.7-2.2,3.2-4.1,4.6-6.1c1.1-1.5,2.3-2.3,4.2-1.2
		c7.5,4.2,15.6,5.4,24.6,4.4C544.7,307.4,542.9,309.2,541.8,311.3L541.8,311.3z M510.2,315.1c5.4,4.7,11.5,8.7,17.9,11.8
		c-4.5,5.6-9.7,8.8-15.2,11.8c-2.5,1.3-4.7,0.7-5.8-2.3c-2-5.3-3.9-10.7-6-16c-1.3-3.1,0-4.7,2.4-6
		C505.6,313.2,508.4,313.5,510.2,315.1L510.2,315.1z M511.4,295c-2.8,9.1-17.9,18.6-28.2,18.6c-11.5,0-23.4-14.2-23.1-27.6
		c0.3-14.3,10.2-27.7,23.3-31.6c7.5-2.3,14.1-0.7,20,4.5C513.8,268.3,515.9,280.7,511.4,295L511.4,295z M453.7,313.6
		c5-4,8.4-1.7,12.1,2.1c1,1,2.1,1.9,3.3,3c-3.6,6.1-8.5,9.7-15.1,9.6c-7.1-0.2-10.7-5.6-14.3-12.2
		C445,314.8,450.1,316.4,453.7,313.6L453.7,313.6z M455.7,302.5c0.9,3.7-0.8,5.4-5.9,6.3c-12.2,2.2-20.2-5.2-22.4-17.4
		c7,1.9,13,5.2,19.9,2.8C451.9,292.6,453.7,294.2,455.7,302.5L455.7,302.5z M500,339.6c1,3.2-0.5,4.7-3.3,5.1
		c-4.4,0.5-8.9,1.1-14.1-0.4c2.4-7.4,5.5-13.6,6.4-20.5c0.2-1.9,1.2-3.4,3.2-3.4c1.6,0,2.3,1.4,2.8,2.9
		C496.7,328.7,498.4,334.2,500,339.6L500,339.6z M481.4,327.7c-0.1,1-0.5,1.9-1,2.8c-5.1,13.9-8.5,14.9-20,5.7
		c-0.2-0.4-0.4-0.9-0.5-1.3c5.6-2.6,10.3-5.8,13.5-11.1c0.1-0.1,0.1-0.2,0.2-0.4c1.7-2.6,5.2-3.4,7.8-1.7
		C484.1,323.6,481.5,325.7,481.4,327.7z M390.9,472c-0.9,14.7-0.1,28.9,9.6,41.1c-6.3-0.5-8.4-5.3-10.9-9.4
		c-5.8-9.5-14.1-13.8-24.6-14c-1.4,0-2.9,0-4.3-0.1c-5.4-0.2-6.2-0.7-7.7-5.8c-2.4-8.3-3.2-16.6-0.6-25c3.1-9.7,4.7-19.9,4.6-30.1
		c0.1-7,2.1-13.8,5.7-19.8c6.9-11.8,15.8-21.8,27.1-29.2c9.2-6,17.2-13.7,23.6-22.6c5.5-7.8,12.4-14.5,20.3-19.8
		c5.9-4,8.6-3.6,13.9,1.4c2.2,2,2.8,3.7,0.7,6.2c-2.5,3-5.1,5.9-7.9,8.6c-13.5,13-27.1,25.9-38.9,40.7
		c-14.2,17.7-18.5,37.7-12.9,60.1C390,460.1,391.2,466,390.9,472L390.9,472z M336.2,388.2c-10.5,13.3-19,27.9-23.3,45
		c-1.4,5.5-2,11.2-2.9,17.4c-1.3-0.4-1.8-0.4-2.1-0.7c-6.2-6.9-12.9-13.2-21.1-17.6c-1.6-0.7-2.7-2.2-3.1-3.9
		c-3-13.4-3.1-27.4,9.3-39.1c7.1-6.7,14.2-13.3,21.3-20c5.4-5,11.2-9.4,18-12c8.6-3.3,16.4-8.5,22.8-15.1c4.4-4.4,9.6-7.2,15.1-9.8
		c16.8-7.8,35.5-9.5,52.4-17.1c2.1-1,3.7-0.1,4.7,2s-0.3,3.2-1.8,4.2c-3.6,2.3-7.6,4.1-11.7,5.4c-8.1,2.9-16.3,5.5-24.3,8.7
		c-12.7,5.1-23.3,13.2-30.9,25.4c-2.6,4.1-6,7.7-9.1,11.5C345.1,377.8,340.4,382.8,336.2,388.2L336.2,388.2z M445.5,288.6
		c-18.5-0.3-28.4-15.5-22.8-33c6,11.2,15.2,15.5,25.2,18.5c4.8,1.5,5.5,3.3,4.6,9C451.7,287.5,450.4,288.7,445.5,288.6L445.5,288.6z
		 M427.5,246.8c-1-2.7-1.9-5.7-0.9-8.7c3.5-9.7,9.2-17.7,17.2-25.3c2.2,8.7,2.5,16.7,5.6,24c3.2,7.5,8.8,12.7,15.4,17.5
		c-2.2,3-4.7,5.4-6.2,8.4c-2.2,4.5-5.7,4.8-9.6,3.8C438.7,263.9,431.3,257.4,427.5,246.8L427.5,246.8z M457,235.3
		c-2.2-6.3-3.7-12.8-4.2-19.4c-0.1-8,1.5-11,5.5-12.4c3-1,6.3-0.5,8.9,1.3c9.4,5.6,15.5,13.8,16.6,25.4c0.3,2.6-0.2,5.4-0.1,8.1
		c0.3,7.5-7.2,13.3-13.8,10.2C464.2,245.9,459.3,241.7,457,235.3L457,235.3z M477.1,202.6c-1.8-1.5-4.1-2.5-4.9-5.1
		c10.7-5.8,24.5-2,32.1,8.7c7.2,10.2,5.4,29.6-3.5,37.9c-3,2.8-6.3,1.9-9.4,0.7c-3.5-1.3-0.9-4.3-1.2-6.5c-0.1-0.5,0-1,0.1-1.5
		C492,222.9,487.3,211.6,477.1,202.6L477.1,202.6z M506.7,197.5c-0.5-0.5-0.8-1.2-1.1-1.8c19.1,3.1,24.7,9.9,29.4,25.1
		c4.1,13-2.5,30-13.4,36.6c-4.8,2.9-5.8,2.7-9.8-1.4c-1.3-1.4-2.7-2.8-4.2-4c-2.6-1.9-2.8-3.6-0.8-6.1c3.8-5.2,6.6-11.1,8.1-17.4
		C517.8,216.5,517,205.7,506.7,197.5L506.7,197.5z M523.8,263.4c9-4.8,14.4-12.8,17.7-22.5c2-5.7,1.9-11.7,2-19.2
		c6.2,9.5,9.3,22.3,8.4,32.5c-1.3,15.7-9.1,23.4-24,23.7c-5,0.1-6-1.2-8.2-8.2C518.3,265.1,521.4,264.7,523.8,263.4L523.8,263.4z
		 M549.7,314.2c1.5-1.2,2.7-0.3,3.9,0.7c5.1,3.8,11,5.9,16.8,8.1c7.8,2.8,14.6,7.7,19.9,14c7.2,8.3,14.5,16.5,23.8,22.4
		c10.5,6.7,21.5,10.4,34,7.6c4-0.8,8.1-0.9,12.1-0.1c11.3,2,22.2,0.5,33-3.4c6.1-2.2,11.8-5.2,18.8-8.6c-0.7,4.2-2.6,6.1-4.2,8.1
		c-7.7,9.8-18,15.4-29.3,19c-24.5,7.7-48.9,5.3-73.1-1.9c-7.6-2.3-13.5-7.3-18-14.1c-3.4-5-7.4-9.1-12.9-11.4
		c-2.9-1.3-5.5-3.3-7.4-5.8c-5.8-8.2-12.1-16.1-16.7-25.1c-1.1-1.7-1.8-3.5-2-5.5C548.1,316.7,548.6,315.2,549.7,314.2L549.7,314.2z
		 M562.9,314c-9.9-4.5-10.6-6.8-6.2-16.9c0.5-0.6,1-1.2,1.6-1.7c10,8.1,22.6,10.6,34.3,15.4c6.9,2.9,13.4,6.6,19.6,10.8
		c4.6,3.1,9.3,6,14.1,8.8c4.1,2.5,8.7,4,13.5,4.4c30.7,2.5,57-6.7,77.6-31.3c1.2-1.5,2-3.5,3.8-3.7c0,0,0.1,0,0.1,0
		c0.8,0.1,1.4,0.9,1.4,1.7c1,12.9-0.1,25.9-3.2,38.5c-0.7,2.9-2.6,5.3-5.2,6.7c-8.5,4.4-16.9,9-26.1,12c-7.9,2.6-15.8,3.5-24,1.8
		c-5.1-1.1-10.5-1.1-15.6,0c-16.2,3.1-29.6-2.5-41.1-13.9c-3.4-3.5-6.6-7.2-9.5-11.1c-6.8-8.9-16.3-15.4-27-18.6
		C568.2,316.1,565.5,315.2,562.9,314L562.9,314z M562.2,290.9c-3.1-2.4-3.6-6.8-1.5-10.8s4.8-1.6,7.4-0.8c0.9,0.3,1.8,0.8,2.6,1.3
		c17.4,9.5,35.9,14.4,55.4,15.9c28.1,2.1,53.4-4.6,75.1-24c7-6.1,13.5-12.6,19.6-19.6c0.8-0.9,1.2-2.9,3.5-1.7
		c-0.2,2-0.4,4.2-0.7,6.4c-1,6.6-2.3,13.3-1.8,20c0.6,8.4-2.6,14.7-7.7,20.8c-15.2,18.3-34.9,27.1-57.2,30.6c-6,0.9-9.3,0-14,0
		c-5.9-0.9-11.8-2.5-16.7-6.1c-16.1-11.9-33.5-20.8-52.7-25.8C569.3,295.9,565.5,293.7,562.2,290.9L562.2,290.9z M728,480.7
		c-0.7,2.2-2.2,2.4-3.5,2.9c-9.1,3.8-17.9,8.4-26.2,13.7c-4.7,3-9.3,6.1-14,9c-3.4,2.1-4.5,1.7-5.7-2.2c-0.6-1.9-0.9-3.8-0.9-5.8
		c-0.1-3.5-0.5-7.1-2.1-10.1c-4.9-9.4-3.2-20-5-29.9c-0.4-2.4-0.1-5.1,2.6-6.3c2.2-1.1,4.9-0.6,6.7,1.1c2.7,2,5.3,4.2,7.7,6.6
		c9.6,10.1,21.2,15.9,34.4,18.5C724.1,478.7,726.3,478.6,728,480.7z M436.1,562.6c10,7.7,16.3,18,19,30.8c2.9,14.1,3.9,28.6,3.1,43
		c-0.3,6.2-1.3,12.4-4.1,18c-5.7,11.7-12.7,22.7-25.9,25.5c-3.8,0.7-7.7,0.4-11.3-0.8c-8.9-0.6-15.9-4.7-24.8-5.5
		c-8.2-0.2-16.5-0.3-24.7,0c-6.3,0.2-12.8,1.1-19-1.1c-5.9,0-11-2.7-16.1-5.4c-3.4-1.8-4.8-4.3-4.5-8.4c0.5-9,0.1-17.9-1.3-26.8
		c-2-13.2-6.5-25.3-15.7-34.5c-4.9-4.9-5.2-9.4-3.9-15.8c5.3-27,17-52.4,18.6-80.3c0.2-3.3,2.2-4,5-3.4c7.8,1.8,15.6,1.3,23.4-0.3
		c2.3-0.4,4.7-0.6,7.1-0.8c8.7-0.8,16,2,21.1,9.7c3.1,4.7,6.4,9.3,9.2,14.2c6.7,11.7,16,21.6,27.1,29.2
		C424.4,554,430.3,558.2,436.1,562.6L436.1,562.6z M222.5,600.4c-3.5-4.2-6.1-8.9-7.8-14.1c-2.4-7.1-4.7-14.2-6.7-21.3
		c-4.9-17.3-15.9-28.4-31.8-34.7c-5.5-2.2-11.4-3.3-17.2-4.9c1.2-2.6,3.3-2,5.1-2c15.6-0.4,28.1,6.4,38,18.7
		c12.8,15.9,19.7,35.2,28,53.6c1.4,2.9-0.3,4.5-2.3,6.2C225.3,603.9,223.9,602.1,222.5,600.4L222.5,600.4z M228.8,626.6
		c1.9,0.4,4,0.7,4.2,3.2c0.4,2.3-1.1,4.5-3.3,5c-4.5,1.2-9,2.4-13.7,3.6C217.6,627,220.3,624.6,228.8,626.6z M226.4,616.7
		c0.5-2.2,4-5.4,6.1-5.4c3.1,0.4,5.9,1.8,8.1,4c1,1,2.2,2.2,1.2,3.8c-0.9,1.4-2,3.2-3.9,2.6c-3.3-1.1-6.7-2.1-10.2-2.8
		c-0.1,0-0.1,0-0.2-0.1C226.6,618.6,226.1,617.6,226.4,616.7L226.4,616.7z M246.6,613.5c-3-2.8-6.1-5.4-9.2-8
		c0.5-1.4,1.6-2.6,2.9-3.4c2.6-1.8,5.1-3.7,7.8-5.2c10.3-5.7,13.1-4.1,14.5,8.3c0.7,6.6,0.7,6.6-5.9,7.9c-1.9,0.4-3.7,0.8-5.5,1.4
		C249.5,614.9,248,614.9,246.6,613.5L246.6,613.5z M258.3,619.7c11-2.5,22.6,6.6,23.1,18.5c0.4,11.3-4.5,19.6-13.4,25.5
		c-6.4,4.2-13.3,5.3-20.2,1c-7.1-4.4-10.9-10.9-11.1-16.3C236.6,633.8,246.2,622.6,258.3,619.7L258.3,619.7z M269.5,609.4
		c-0.1-6.3-0.9-12.2-4.1-18.2c9-1.4,17-0.7,24.9,2.5c4.1,1.6,4.6,3,2.9,7.4c-2.3,6-6.3,10.6-10.9,14.5
		C278.1,619.1,269.6,615.1,269.5,609.4L269.5,609.4z M286.5,621.9c4.1-4.2,7-9.4,9.4-14.7c4.1-9,5-9.2,11.5-1.4c1.6,1.9,2.9,4,4.3,6
		c1.1,1.4,1.3,3.3,0.5,4.9c-2.2,5.4-15.6,14.6-22.1,14.6c-2.1,0.7-3.2-1.1-4.2-3.3S284.6,623.8,286.5,621.9L286.5,621.9z
		 M314.5,650.7c2.8,0.8,4.8,2.3,4.9,5.7c0.2,7.4-0.3,14.6-4,22.8c-2.3-4.6-5.3-8.8-8.9-12.5c-3.5-3.3-7.5-6.1-11.8-8.3
		c-1.5-0.7-2.9-1.4-4.5-2.2s-2.8-1.8-2.3-4c0.5-1.8,1.3-3.2,3.3-3.2C299,648.7,306.9,648.3,314.5,650.7L314.5,650.7z M318.4,640.7
		c0,3.3-1.4,4.2-4.5,3.8c-5.1-0.9-10.3-1.6-15.4-2.4c-2.8-0.4-5.8,0.4-9.1-3c8.6-4.4,16.8-8.1,23.8-14.1c1.3-1.1,2.1-0.1,2.5,1.2
		C317.4,630.9,318.3,635.8,318.4,640.7L318.4,640.7z M325.7,674.4c-0.2-0.7,0.1-1.5,0.8-1.7c2.7-0.2,3.8,2.2,6.7,4.6
		C329.3,677,327,676.8,325.7,674.4L325.7,674.4z M440.6,682c6.1-3.1,10.3-0.2,10.2,6.8c0.1,8.1-2.4,15.4-7.2,23.1
		c-6.8-8.4-15.7-14.9-25.8-18.8c-9.7-3.8-19.3-7.6-29.1-11.2c6.5-0.8,12.2,0.7,17.9,2.5C418.3,688,429.5,687.8,440.6,682L440.6,682z
		 M436.8,713.3c2.1,2,4.4,4,3.6,7.5c-2.5,10.3-11.7,14.5-20.7,9.6c-2.7-1.6-5-3.8-6.9-6.3l-12-14.7c-6.8-8.5-15.8-15.1-26-19
		c-6.2-2.5-12.6-4.4-19-6.3c-2.9-0.8-6.1-0.9-9.4-3.9c12.9-0.5,24.5-1.4,35.1,5.5c2.5,1.7,5.8,2.2,8.7,3.2c5,1.6,10.1,3,15,4.7
		C417.1,697.7,427.5,704.6,436.8,713.3L436.8,713.3z M425.8,738.7c-2.5,3.7-5.4,7-8.8,9.9c-6.1,5.6-7.8,5.6-14.1,0.4
		c-2.5-2-4.6-4.4-6.4-7c-2.3-3.4-4.6-6.9-7-10.3c-9.4-13.9-19.8-26.8-36-32.6c-0.7-0.3-1.3-0.7-1.9-1.1c-4.6-3.2-9-6.5-13.6-9.6
		c-4.6-3.1-10.2-3.2-16-4.9c2.7-3,4.9-1.6,7-0.9c14.7,5,29.4,10,44,15.3c9.7,3.4,17.6,9.7,24.2,17.9c3.8,4.8,7.9,9.3,11.9,13.9
		C413.4,734.5,418,738.7,425.8,738.7z M380.5,729.1c7.3,10.4,13.5,21.8,24.4,27.9c-5.6,6.1-10.7,11.7-16.3,17.8
		c-0.8-7.1-3.7-12.9-7.3-18.5c-4.3-6.6-8.5-13.3-12.5-20c-7.1-11.7-16-22.2-26.5-31.1c-6.1-5.2-12.5-10.1-20.8-10.7
		c-1.4-0.1-3.1-0.7-2.8-2.5s2.1-1.8,3.5-1.8c5.8-0.2,11.4,1.8,15.9,5.5c4.2,3.3,8.4,6.6,13.3,8.7
		C363.4,709.7,372.8,718.3,380.5,729.1L380.5,729.1z M383.8,782.5c0.5,7.1-3.1,11.9-8.1,15.7c-3.5,2.9-5,2.4-6.9-2.1
		c-3.6-8.5-5.8-17.5-6.3-26.7c-1-22.5-10.8-39.8-27.6-53.2c-5.7-4.5-11.6-8.6-17.8-12.4c-1.5-0.9-4.3-1.4-3.5-3.9
		c0.9-2.7,3.2-1.1,4.9-0.7c6.1,1.4,11.9,4.1,16.8,8c9.9,8,18.5,17.1,24.9,28.5c4.4,8,9.4,15.5,15,22.7
		C380.8,765.3,383.1,773.6,383.8,782.5L383.8,782.5z M310.4,691.5c-8.3,12.5-18.9,20.9-35.2,21.2c1.8-4.9,3.5-9,4.8-13.2
		c3.1-10,2.6-20.1,0.4-30.3c-1.3-5.8,1.6-8.5,7.1-7c0.7,0.2,1.3,0.4,2,0.7c9.5,4,16.3,10.9,21.1,20.3
		C312.1,686.1,312.3,688.7,310.4,691.5L310.4,691.5z M274.7,677.2c2.5,12.3-1.9,23.1-6.7,33.6c-0.9,2.1-2.9,2.3-5,1.9
		c-5.1-1-10.3-1.6-15.5-4.7c0.5-0.8,1.1-1.5,1.7-2.2c8.5-7.6,15.2-16.5,17-28.5c0.3-1.4,0.8-2.8,1.7-4c2.1-2.7,4.7-2.2,6,1
		C274.2,675.2,274.5,676.2,274.7,677.2L274.7,677.2z M259.7,680.2c-2.4,8.3-7.2,15.7-13.9,21.2c-3.1,2.5-6.7,2.5-10.1,0.5
		c-2.2-1.3-4.2-3.2-6.4-4.7c-3-2.2-3.2-4.6-1-7.6c3.4-4.8,7.2-9.3,11.3-13.5c2.2-2.3,5.4-3.3,8.5-2.8c1.7,0.2,4.7,0.7,7.8,1.2
		C260.2,675.2,260.9,675.9,259.7,680.2L259.7,680.2z M237.1,670.5c-4.5,3.8-8,8.4-11.7,12.8c-3.9,5-4.2,4.9-7.2-0.3
		c-0.5-0.9-1-1.7-1.4-2.6c-4.6-9.4,2.7-22,12.9-22.3c1.7-0.2,3.4,0.7,4.2,2.2c1,1.7,2.2,3.3,3.4,4.8
		C239.2,667.2,239.3,668.7,237.1,670.5L237.1,670.5z M228.5,650.9c-5.8,2.7-10.5,7.2-15.7,11c-2.9-11.5-1.3-15,8.2-18.3
		c1.3-0.5,2.7-0.8,4.1-1.1c1.9-0.4,3.9-1.1,4.6,1.7C230.3,646.7,231.4,649.6,228.5,650.9L228.5,650.9z M216.6,606.5
		c-5.1,0.5-9.3-2-12.9-5.7c-4.5-4.5-8.4-9.5-11.7-15c-4.3-6.8-8.6-13.7-12.9-20.6c-7.4-11.9-17.4-20.2-30.5-24.4
		c-6.4-2.2-12.5-5.4-18-9.5c1.4-1.9,3.8-2.8,6.1-2.5c15.1,0.4,29.7,3,43.5,10c11.1,5.7,18.5,14.5,21.5,27.2c0.8,3.7,2,7.2,2.9,10.8
		c2.6,9.6,6.1,18.8,12.2,26.7C217.4,604.3,217.8,605.2,216.6,606.5L216.6,606.5z M155.7,511.6c-2-12.6,1.1-23.7,9-33.3
		c7-8.2,15.7-13.9,25.2-18c18.5-7.9,37.3-15,56.5-21c3.9-1.2,7.9-2,11.9-2.6c12.6-1.9,24.2,0.4,33.9,9.7c15.6,15,24.4,33.5,24.4,59
		c0.3,6.3-1.8,15.3-4.4,24.1c-5.1,17.1-10.6,34.1-12.7,52c-0.5,4.8-0.9,5.1-5.4,3.4c-16.6-6.1-32.4-3.2-47.8,4.4
		c-1.5,0.7-3,1.6-4.5,2.3c-4.9,2.4-5.1,2.4-7.4-2.8c-4.1-9.3-8-18.7-12.3-27.8c-5.2-11-11.3-21.3-19.8-30
		c-9.5-9.8-20.6-15.1-34.1-14.3c-2.1,0.1-4.3,0-6.4,0.2C157.9,517.4,156.3,515.5,155.7,511.6L155.7,511.6z M22,357.5
		c5-0.2,10-0.5,15,0.3c18,2.8,34.2,10.5,49.7,20c17.7,10.8,34,23.9,50.8,36.1c18.4,13.4,37.2,26.2,59.1,32.8
		c1.6,0.5,3.3,0.7,4.9,3.4c-6.2,2.8-12.1,5.5-17.9,8.1c-1.8,0.7-3.8,0.7-5.6,0c-19.4-4.7-36.5-14-51.8-27.3
		c-11-9.6-20.8-20.5-30.8-31.1c-8.1-8.7-17.2-16.4-27.1-23c-13.6-9-28.1-14.5-44.5-13.6c-1.9,0.1-3.8,0-5.7-0.2
		c-0.7-0.2-1.2-0.6-1.6-1.2c-0.6-1.1,0.1-1.9,0.9-2.5C18.6,358.2,20.3,357.6,22,357.5z M25.8,348c1.7-0.9,3.6-1.3,5.5-1.4
		c3.3-0.1,6.6-0.4,9.9-1.1c5.1-0.9,10.3-1.3,16-2c2.6,0.4,5.6,1.3,8.7,1.4c13.9,0.6,25.7,6.9,36.9,14.8
		c19.6,13.7,37.8,29.5,57.7,42.7c15.5,10.3,31.5,19.6,49.6,24.4c6.3,1.7,12.7,2.1,19,3.5c2.7,0.4,5,2.1,6.2,4.5c1,2.1,1,3.8-1.5,4.7
		c-3.1,1.2-6.4,2-9.4,3.5c-8.7,4.5-17.2,3.5-26.2,0.3c-19.6-6.9-37.3-17.6-54.4-29.4c-16.7-11.5-33-23.8-49.9-35
		c-20.4-13.6-41.5-25.6-66.9-24.8c-1.6,0-3.7-0.1-4-2.2S24.3,348.9,25.8,348L25.8,348z M115.6,346.1c13.6,10.8,27.2,21.6,41.7,31.3
		c13.8,9.3,28.5,16,44.7,18.9c5.6,1.1,11.2,2,16.9,2.8c2.6,0.4,4.6,1.4,4.9,4.4c0.6,5.9,2.2,11.7,4.7,17.1c1.2,2.6,0.7,4.5-2.6,4.3
		c-8.6-0.4-17.2-1.1-25.1-5c-16-7.9-31.6-16.3-46.2-26.8c-18.4-13.3-36.7-26.8-55-40.2c-7.5-5.6-16.3-9.4-25.5-11
		c-10.7-2-21.3-1.6-32-0.3c-3.9,0.6-7.9,0.6-11.9,0.2c5.7-8.8,13.2-13.4,21.3-17c5.3-2.4,11.3-2.7,16.8-0.7
		c4.7,1.8,9.5,3.3,14.4,4.5C95.2,331.5,105.6,338.3,115.6,346.1z M107.2,330.5c5.4-2.8,10.8-6.7,17.3-2.9c5.4,3.1,11.1,5.6,16.1,9.5
		c14.6,11.5,30.4,21.4,47,29.6c11.7,5.7,23.1,11.9,36.5,11.7c3.5-0.1,4.1,1.3,3.1,4.8c-0.5,1.9-1.4,3.7-2,5.6
		c-1.3,4.5-4.2,6.4-7.2,6c-2.8-0.2-4.3-0.2-5.7-0.4c-16.8-2.9-32.9-8.9-47.5-17.6c-15-8.8-28.5-19.7-42.2-30.5
		c-4.9-3.9-9.9-7.8-14.8-11.7C106.4,333.5,105,331.6,107.2,330.5L107.2,330.5z M134.7,315.4c1,0.1,2,0.3,2.9,0.6
		c6.8,2.1,13.7,4.3,19.8,8.3c8.1,5.2,16,10.7,24,16.1c14.1,9.4,28.3,18.5,45.9,18.4c3.3,0,7.7,5.6,7.6,9.4c-0.1,4.2-3.4,5.1-6.3,6.1
		c-2.5,0.9-5.2,1.1-7.7,0.4c-3.7-0.9-7.4-2-11-3.3c-20.2-8.3-39.5-18.7-57.5-31.1c-7.5-5.1-14.1-11.8-22.4-15.8
		c-1.6-0.8-4.1-1.3-3.8-3.8s2.5-3.5,4.5-4.3C132,316,133.3,315.7,134.7,315.4L134.7,315.4z M139.5,311.6c5.8-8.8,11.2-11.6,18-8.5
		c7.2,3.2,14.2,6.9,20.3,12.3c7.9,7.1,16.7,13.1,26.2,17.9c4.3,2.1,8.8,3.8,13.4,5.1c5.7,1.8,10.3,5,11.1,12.1
		c0.2,2.6-0.7,3.7-3.1,3.8c-3.3,0.2-6.7-0.3-9.9-1.2c-12-3.7-23-9.5-33.5-16.5c-10-6.7-19.1-14.9-30-20.1
		C148,314.5,143.3,314.2,139.5,311.6L139.5,311.6z M159.2,297.8c3.4-3.6,6.9-3.7,10.4-2.7c5.3,1.7,10.2,4.3,14.6,7.6
		c9.7,7.3,19.3,14.7,31.4,17c7.2,1.4,8.8,3,9.5,10.5c0.5,4.7-1.4,6.5-5.9,5c-5-1.6-9.8-3.7-14.4-6.3c-12.2-6.8-23.3-15.4-34.8-23.3
		C166.5,303.1,162.3,301.7,159.2,297.8L159.2,297.8z M188.8,290.6c2.3,1.3,4.4,2.8,6.4,4.5c5.2,4,10.4,8,17.1,8.7
		c2.7,0.3,5.1,1.9,6.5,4.2c1.1,1.8,2.7,3.9,1.2,6.1c-1.2,1.8-3.4,1.1-5.3,0.7c-8.7-1.9-16.4-6.5-23.9-11.2
		c-5.2-3.3-10.5-6.7-14.7-12.3C180.7,287.7,184.8,288.5,188.8,290.6L188.8,290.6z M197.9,287.2c9.4-2.2,13.8,1.3,16,12.3
		c-5.4,0.7-15.9-4.4-18.2-8.9C194.5,288.2,196.2,287.6,197.9,287.2L197.9,287.2z M242.6,148.6c4.6-12.2,13.1-19.3,25.6-21
		c7.8-0.8,15.8-0.4,23.5,1c11.4,1.8,22.8,3.4,34.2,1.8c18.6-2.7,32.9,4.4,44.5,19.3c8.7,11.2,16.9,23,26.4,33.4s20.1,19.1,34.3,21.4
		c1.2,0.1,2.3,0.8,3,1.8c0,0.2,0,0.5-0.1,0.7c-0.6,1-1.3,2-2.1,2.9c-7.7,9-13.3,19.7-16.3,31.2c-2.7,10.1-3.8,20.6-3.1,31.1
		c0.4,6.3-0.1,7-5.9,7.8c-6.1,1.1-12.3,1.7-18.5,2c-11.9,0.3-23.7-1.6-35.6-2.5c-5.2-0.4-10.4-0.7-15.6,0.3
		c-13.8,2.6-23.7,11.3-32,22.2c-23.8,31.3-19.8,29.6-55.8,53.5c-1.2,0.8-2.3,1.8-3.5,2.6c-4,2.7-4.2,2.7-6.4-1.6
		c-4.3-8.5-6.1-17.7-7-27.2c-1.2-11.6-4.5-22.9-9.7-33.4c-3.1-6.4-6.1-12.9-8.7-19.6c-5-12.6-4-24.9,3.1-36.4
		c14.1-23,21.9-47.9,22.3-75.3C239.4,159.2,240.6,153.8,242.6,148.6L242.6,148.6z M284,90.6c10.3-17.1,31.4-18.4,43-2.3
		c6.9,9.6,15.6,13.7,26.7,11.8c13.8-2.4,23.6,3.5,30.6,15.5c4.8,8.4,9,17,12.7,25.9c7.5,17.2,14.6,34.6,27.4,48.6
		c0.3,0.3,0.3,0.9,0.5,1.9c-6.8-1.1-12.1-4.7-16.7-9.4c-7.9-8-14.6-17-21.4-26c-5.8-7.6-11.7-15.2-18.5-21.8
		c-8.7-8.4-18.8-12.9-31-12.8c-8.8,0.1-17.6,1.7-26.4,1.5c-10.9-0.2-21.8-2.2-32.7-2.8c-5.2-0.3-5.8-1.2-4.5-6.4
		C275.9,106,279.3,98,284,90.6L284,90.6z M334.1,40.7c11-6.6,15.3-6.2,25.3,1.8c2.1,1.7,3.9,3.6,5.5,5.8c5,7.4,11.7,12.1,19.8,15.2
		c19.7,7.7,31.8,22,34.9,44.2c1.6,11.9,3.6,23.6,5.5,35.4c3.1,18.7,8.2,36.4,23.1,49.1c0.1,0.1,0.4,0.3,0.5,0.5
		c0.3,0.7,0.8,1.4,0.7,2c-0.3,0.9-1.2,1.6-2.2,1.7c-1.8,0.3-3.2-0.6-4.7-1.4c-4.3-2.3-8.2-5.2-11.6-8.6c-9.2-8.8-15-19.9-19.9-31.6
		c-5.3-12.5-11-24.9-17.3-36.9c-3.5-6.6-7.5-12.8-13-17.7c-6.6-6-14-9.2-23-6.9c-10.4,2.6-19.2,0.2-25.9-9.3
		c-5.6-8-13.5-12.4-22.9-13.8c-2.3-0.3-4.7-0.4-7.4-0.6c-0.2-2.8,1.5-3.7,2.6-4.9C313,55.5,323.1,47.4,334.1,40.7L334.1,40.7z
		 M400.4,19.5c7.7-2.9,13.9-0.7,19.4,4.8c6.3,6.6,10.3,14.3,11.2,23.6c0.7,7.4,2.4,14,7.9,19.4c3.5,3.4,5.2,8.2,6.5,13.1
		c1,4.1,1.4,8.4,1.4,12.6c0.2,15-2.3,29.9-1.4,44.8c1.1,18,0.5,36.7,16,51c-3.8,1.4-5.8-0.1-7.8-1.4c-3.9-2.5-6.6-6.3-9.1-10.3
		c-8.7-14.1-12.8-29.9-15-46.3c-1.2-9.1-2-18.3-3.4-27.4c-3.5-22.8-15.8-38.4-36.5-46.7c-5.6-2.2-11.2-4.6-15.4-9.2
		c-5.2-5.7-10.1-11.8-16.9-16c2.6-2.6,5.6-2.7,8.3-3.5C377.1,24.8,389.1,23.7,400.4,19.5L400.4,19.5z M453.9,36.6
		c1.1,17,6.3,32,18.4,44c1.8,2,3.5,4.2,5,6.4c6.5,8.5,9,18.3,8.5,29.2c-0.4,10.1-2.9,19.7-5.3,29.3c-2.7,11.1-4.4,21.9-3.4,33.5
		c0.1,1.7,1.6,5.1-0.7,5.6c-5.5,0.2-10.6-0.7-13.9-6.5c-4.8-8.4-8.2-17.3-8.5-27.3c-0.4-14.2-0.3-28.3,0.7-42.5
		c0.6-7,0.7-13.9,0.3-20.9c-0.8-9.7-3.7-18.5-10.6-25.4c-3.8-3.9-6-9.2-6-14.7c-0.3-7.6-3.1-13.9-7.3-19.9
		c-3.4-4.9-7.4-9.4-11.8-13.5c4.6-3.1,9.1-3.4,13.5-3.8c7.6-0.6,13.4,2.8,16.8,10.1C452,25.4,453.5,31,453.9,36.6z M466.7,21.7
		c-1.7,2.2-2.8,4.8-6.1,6.1c-1.2-2.8-3.6-5.6-1.4-8C461,17.9,464,19.7,466.7,21.7z M675.4,136.7c-8.9,2-16.2,7.1-23.1,12.9
		c-3.4,2.8-6.8,5.6-9.9,8.6c-12.8,12.2-27.6,22.1-43.9,29c-15.8,6.9-31.8,13.5-45.7,24.4c-1.9,1.4-3.3,1.7-4.8-0.4
		c-5.8-7.9-13.6-13.2-21.4-18.4c-0.7-0.3-1.3-0.6-1.9-0.9c-11.7-4.3-23.6-7.8-36.2-7.3c-3.8,0.2-5-2-4.9-5.6
		c0.2-5.5,0.1-11,1.1-16.4c2.4-12.7,5-25.3,7-38.1c2.9-18.8-1-35.5-14.5-49.3c-8.5-8.7-12.3-20-13.5-32.2c-0.5-3.7,0.7-7.5,3.1-10.3
		c13.5-16.8,30-25.1,51.2-19.8c14.2,3.6,28.6,5.6,43.2,4.5c11.9-0.9,22,3.5,30.7,11.6c5.7,5.3,11.3,10.8,16.7,16.4
		c7.2,7.6,16.4,13,26.5,15.6c5.1,1.4,10.2,2.3,15.3,3.7c19.7,5.2,27.3,15.3,27.9,36.6v3.7c0.1,8.5-0.3,16.9,1.3,25.3
		C680.3,134.1,678.6,135.8,675.4,136.7z M694.6,162.3c-0.9,2.3-2.1,4.5-3.4,6.6c-2.5,4.2-6.2,7.5-9.8,10.7
		c-9.3,8.2-19.1,15.9-27.1,25.4c-9.6,11.3-20.9,15.9-35,14c-1.2-0.1-2.4,0-3.6-0.1c-18.7-2-37.1-1.3-54.7,6.7
		c-2.4,1.1-4.1,0.7-5.4-1.7c-2.5-4.6-1.9-6.4,1.6-8.6c10.8-6.8,22.2-12.6,34.1-17.1c22.7-8.4,43.4-21.6,60.4-38.8
		c2.3-2.5,4.8-4.9,7.4-7c6.7-5.2,13.8-9.8,22.7-9.6C694,142.6,699.2,150.4,694.6,162.3z M718.7,169c3.3,10.2,3.4,20.5-0.6,30.7
		c-1.8,4.7-4.7,8.7-9.3,10.8c-7.5,3.4-13,9.1-17.8,15.7c-5.2,7.1-10.7,14.1-17.1,20c-13.1,12.1-27.9,17.5-45.5,13.8
		c-7.9-1.8-15.7-4-23.4-6.6c-12.3-4.2-24.7-7.4-37.8-5.7c-3.3,0.5-5-0.8-5.6-4.1c-0.2-1.5-0.5-3-0.8-4.4c-1.6-7.4-1.4-7.9,5.3-10.2
		c10-3.2,20.5-4.8,31-4.6c10.2,0,20.5,0.7,30.7,0.9c9.7,0.3,19.2-3.4,26-10.4c9.9-9.8,20.2-19,30.4-28.4c4.6-4.4,8.7-9.3,12.3-14.5
		c3.8-5.3,4.9-11.7,6.6-18.8C710.8,156.9,716.3,161.4,718.7,169L718.7,169z M731.2,200.8c1,11.8-1.6,23.2-3.8,34.7
		c-0.4,2.1-1.7,3.4-3.1,4.8l-23,22.4c-16.5,16.2-36,25.6-58.7,27.6c-6.1,0-12.1-0.1-18.2-0.1c-15.5-1.3-30.6-5.4-44.7-12.1
		c-3.9-1.8-7.6-4-11.9-4.9c-3.4-0.8-5.3-3.2-5.1-7c0.1-1.9,0.1-3.9,0.3-5.9c0.7-7.5,1.3-8.1,8.3-7.8c9.8,0.4,19.2,3.2,28.5,6.4
		c7.6,2.7,15.3,5.5,23.2,7.3c19.6,4.4,37.2,0.3,52.9-13c6.4-5.4,11.6-11.8,17-18.1c6.6-7.9,13.5-15.3,22.2-20.9
		c5.3-3.5,9.6-8.4,12.5-14.1c0.5-1.1,0.4-3.3,2.5-2.8C731.1,198.3,731.1,199.6,731.2,200.8L731.2,200.8z M968.7,322.1
		c-5.7,10.7-11.5,21.2-17.4,31.8c-2.7,4.8-4,3.3-8.2-0.2c-0.8-0.6-5.4-5.7-6.1-6.4c-13.1-10.9-19.9-15.2-37.1-19.2
		c-23.8-5.5-61.8,14.5-70.9,40.2c-3.5,10.1-3.8,10-14,8.4c-13.6-2.1-27.5-2.8-41-6c-3.1-0.8-6.4-1.1-9.3-4c7.1-4.5,14.2-8.1,20-13.7
		c3.9-3.7,7.6-7.6,11.9-10.7c28.4-20.6,59.3-32.7,94.3-31.7c10.3,0.2,20.4,3.2,29.1,8.8c4.7,3,9.4,5.8,14.2,8.6
		c1.3,0.7,2.7,2.3,4.7,0.3c-5.8-5.1-12-9.7-18.6-13.8c-16.5-10.1-34-15.1-53.4-11.2c-9.1,1.8-17.9,4.8-27,6.4c0.2,0-0.1,0.2-0.2,0
		c5.9-6.2,15.4-8.1,24.2-9.3c14.8-2,28.3-7,39.6-17.4c5.2-4.8,10.1-9.9,15.5-14.4c3-2.7,7-4.2,11.1-4.2c5.3-0.1,10.3,1.5,15.5,2.3
		c6,1.1,12.1,1,18.1-0.1c3.9-1.8-2.4-2-3.6-2.3c-7-1.6-14.1-2.8-21-4.5c-7.2-1.8-7.3-2.7-2.4-8.2c6.8-7.6,14.2-14.7,22.1-21.2
		c10.5-8.8,22.5-14.1,36.4-12c9.9,1.5,19.7,3.4,29.6,5c2.4,0.4,6,1.9,6.8-1.4c0.6-2.6-3.2-3.7-5.5-4.7c-10.9-5-22.8-7.2-34.7-6.4
		c-15.3,0.7-29,5.3-40.6,15.9c-1,0.9-1.9,2.5-3.9,1.1c-0.3-7.9,3.8-13.9,8.4-19.6c1.6-1.9,3.4-3.5,4.4-5.8c0.5-1,0.7-2-0.1-2.8
		c-0.7-0.7-1.8-0.8-2.7-0.4c-1.9,0.6-3.2,2-4.6,3.4c-7,7.1-10.1,16.1-11.2,26c-0.4,5.7-3,11-7.3,14.8c-5.6,5.1-10.6,10.7-16.5,15.5
		c-4.8,4-9.7,8-13.2,13.5c-1.2,1.6-2.6,2.9-4.2,4c-8.6,7-18.9,11.7-29.8,13.7c-26.2,4.8-48.5,17-67,37.2
		c-5.8,6.2-11.9,12.1-18.4,17.6c-7.4,6.3-15,12.2-24,16c-6.9,3-13.2,3-19.9-0.3c-5.7-2.9-7-4.5-5-10.9c2.7-8.8,6.6-17.1,12.8-23.9
		c6.5-7.2,13.6-13.9,21.2-20c8.8-6.8,15.8-15.2,18.5-26.7c2.1-8.8,6.2-16.6,11.2-24c1.5-2.2,5.1-5.1,2.4-7.5s-5.4,1.5-7.9,3.2
		c-0.7,0.7-1.4,1.4-1.9,2.3c-4.2,4.7-6.2,10.6-7.8,16.6c-4.4,16.3-14,28.3-27.1,38.1c-13.6,10.1-24.8,22.6-28.6,40.5
		c-0.3,1.4-0.7,3.1-2.7,2.9c-1.7-2.5-0.1-4.8,0.4-7.1c3-12.6,4.4-25.5,4.4-38.4c-0.2-11.9-1.2-23.7-0.3-35.7s1.5-14.7,3.7-26.4
		c0.8-4.3,4.4-11.5,8.3-13.3c14.8-6.6,30.6-11.3,46.1-8.3c8.9,1.7,17.6,4.7,26.7,4.9c17.1,0.5,34-4.3,48.3-13.7
		c8.1-5.2,15.7-11.3,23.6-16.8c6.7-4.7,13.6-9.2,21.1-12.5c17.3-7.8,36.4-10.6,55.2-8.1c14.9,2,29.5,6.1,43.2,12.3
		c5.8,2.4,11.2,5.8,15.9,9.9c7.6,6.8,16.2,14.3,24.3,20.5c0.8,0.6,1.6,1.3,2.4,2l0,0c5.2,4.8,10.5,12.2,15.8,23.4v0.1
		c0.2,0.4,0.4,0.9,0.6,1.3v0.1l0.3,0.6c0.3,0.5,0.5,1.1,0.8,1.7c0,0.1,0.1,0.2,0.1,0.3l0,0c0.1,0.1,0.1,0.1,0.1,0.2
		c-3.2-1.2-5.2-1.8-7.7-2.5c-10.8-3-21.6-2-32,1.3c-17.1,5.4-28.3,17.4-36.8,32.9C982.8,293.8,976,308.1,968.7,322.1L968.7,322.1z
		 M952.9,450.5c-10.4,17.1-20.2,25.7-37.2,36c-24.9,15.1-51.9,19.7-79.6,10c-16.6-5.8-34.9-12.7-53.5-12.3
		c-7.4-0.5-15.3,3.1-23.5,4.4c-9.8,1.6-21.8,3.3-31.1,7.6c-22.2,10.1-41.5,19.4-59.2,37c-1.4,1.4-2.7,2.9-4.6,3.5
		c-3,1.1-5.3-0.6-6.8-2.9c-1.6-2.5,1.2-3.4,2.5-4.4c16.2-12.4,32.8-24,50.8-33.4c34.4-18.2,70-23.3,107.3-10.7
		c10.5,3.5,21.3,5.8,32.3,6.9c39.1,4,69-11.5,93.7-42.3c7.2-8.9,11.2-19.7,12.6-31.4c4.7-39.1-24.9-67-47.7-73.9
		c-6.6-2-20.7-1.6-27.2,0c-22.3,5.4-30.3,18.6-39.1,40.5c-2.3,5.5-1.4,11.8,1.3,13.2c4.5,2.3,8.3-0.3,11.8-3
		c4.8-3.6,9.4-7.5,14.2-11.3c1.1-0.8,2.4-2,3.9-1.2c1.8,0.9,1.4,2.9,1.2,4.6c-0.1,1-0.3,1.9-0.8,2.8c-5.9,8.9-12.8,16.8-23.4,19.7
		c-6.8,1.8-12.8-1.1-16.1-7.7c-2.5-4.9-3.3-10.5-2.5-16c0.9-7.9,3.4-15.6,7.1-22.6c8.9-15.7,27.3-28.1,44.6-29.1
		c32.7-1.9,53.3,14.7,71.1,43.7C968.2,399.8,965.9,429.3,952.9,450.5L952.9,450.5z M756.3,599.1c-0.4-17.5-7.4-31.5-19.7-43.2
		c-11.7-11.6-24.8-17.1-41-13.7c-6.1,1.3-12.3,0.5-18.5,0.5c-1.6,0.1-3.5-0.1-4.3-2s0.5-3.3,1.7-4.5c1.7-1.8,3.4-3.6,5.2-5.2
		c19.8-16.8,42.4-27.6,67-34c3.7-1,7.7-0.3,10.8,2.1c7.5,5.4,14.3,11.8,20.1,19c8.4,10.2,13.5,22.7,14.7,35.8
		c1.2,11.1,3.1,22.1,5.7,33c1.4,5.6,2.9,10.2,6.7,15.4c1.6-2.6,1.8-3.8,1.5-5.4c-2.6-13-2.9-26.2-2.6-39.4c0-4.8-0.9-9.5-2.6-13.9
		c-2.5-7.2-5.7-14.2-9.6-20.8c-2.4-3.8-4.5-7.8-7.3-12.9c2.3,0.9,3.2,1.2,4,1.6c23.4,13,44.5,28.9,60.7,51.2
		c15.7,21.5,33.5,41.4,53,59.4c1,0.9,1.8,2.4,4.8,1c-19.4-23.7-39.6-46.1-56.5-71.8c5-2.2,9-0.1,12.8,0.2s7.6,0.1,11.4,1
		c4,0.9,8,1.4,12,2.1c3.7,0.7,7.5,1.5,11.2,2.2s7.3,2.5,12.2,2c-1.4-1.3-1.7-1.8-2.1-1.9c-19.7-6.9-39.5-13.2-60.2-15.8
		c-5-0.4-9.8-2.5-13.4-6c-5.3-4.9-11.1-9.4-17.2-13.3c-11.5-7.6-23.8-13.6-35.9-20.1c-3.9-2.1-7.8-4.5-11.6-6.7
		c-1.6-0.8-2-1.3,0.4-1.7c12.2,0.2,24.6-0.6,36.7,0.8s23.8,4.9,35.4,8.7c20.7,6.8,41.3,6.3,61.4-2.6c8.8-3.9,12.4-3.5,17.7,4.7
		c8.8,13.4,12.7,29.5,10.9,45.4c-0.8,6.7-1.7,13.3-2.8,19.9c-2.3,13.5,0.8,25.7,7,37.3c8.1,15.1,18.6,28.3,28.9,41.7
		c4.3,5.5,8.1,11.1,8.8,18.4c1,10.6-3.9,17-13.9,17.7c-10.6,0.8-20.5-2.5-29.6-7.9c-12.5-7.4-23.7-16.8-34.9-26
		c-14.5-11.9-30.6-19.2-49.3-19c-16.4,0.2-32.2,0.9-48.5-2.2c-13.2-2.5-26-6.9-37.9-13.2c-4.5-2.5-5.2-3.8-4.2-9
		C756,605.1,756.3,602.1,756.3,599.1L756.3,599.1z M704.8,628.6c16.9,1,26.6-2.4,35.4-16.9c3.3-5.4,4.8-14.7,3.3-20.9
		c-4.7-18.5-22.9-39.4-47.6-33.9c-5.1,1.1-10.3,1.9-15.6,1.3c-10.4-1.2-19.1-6.1-26.9-12.9c-7.1-6.2-13.9-13-21-19.2
		c-12.2-10.6-25.5-13.1-39.5-3.8c-3.9,2.6-7,2.4-11.1-2c7.4-1.6,14.3-3.3,19.7-8c7.2-6.3,14.4-5.3,21.9-1.1c5.3,3,9.6,7.4,13.9,11.7
		c5,5,9.8,10.2,15,15c8.1,7.4,17.6,10.8,28.4,9.6c5-0.5,9.9-1.1,14.9-1.6c6.4-0.6,12.8-0.8,19.1,1.3c17.9,6,35.4,26.3,36.6,46
		c2.1,37.3-29.6,52-52,45.5c-10.1-2.9-16.4-9.9-18.1-20.8c-1.2-7,1-14.1,6-19.2c1.2-1.2,2.5-2.4,4.4-1.7c2.1,0.7,3,2.4,3.1,4.6
		c0.3,2.7,0,5.5-0.6,8.2c-0.5,1.9-0.8,3.9-0.8,5.9C693.3,624.3,696.7,628.1,704.8,628.6L704.8,628.6z M639.2,570.9
		c-3.4-1-6.3-3.4-7.9-6.6c7.4-1.3,14.3-2.2,20.2-6.1c3.3-2.2,6-2,9.2,0.1c6,4.1,12.7,5.3,19.8,5.4c7.7,0.1,15.2-1.3,22.8-1.9
		c14.6-1.2,32.7,16.2,35.2,29.1c0.3,1.2,0.5,2.4,0.6,3.7c0,3.2,1.3,7.1-2.3,8.7c-3.3,1.5-5.9-1.3-8.1-3.5
		c-3.8-3.8-7.3-7.9-11.2-11.6c-9.2-8.7-19.6-13-32.6-11.7C669.4,578.2,653.8,576.3,639.2,570.9L639.2,570.9z M628.9,572.9
		C628.9,573,628.8,573,628.9,572.9c-0.7,0.8-1.9,0.9-2.6,0.2c-19.7-7.4-39.9-6-60-3.2c-17.9,2.6-35.7,6.3-53.1,11.2
		c-12.1,3.3-24.4,4-36.8,3.2c-6.7-0.3-13.1-2.8-18.1-7.3c3.1-2.2,5.5-1.6,7.8-1.5c7.4,0.2,14.7-1.1,21.9-2.5
		c17.7-3.3,34.6-9.3,51.6-14.9c8.8-3,17.6-6.3,27-6.5c12.1-0.2,24.3,0.1,36.4-0.1c3.6-0.1,7.1,1.5,9.4,4.3
		c4.2,4.5,8.3,8.9,13.2,12.6C627,569.5,628.8,570.7,628.9,572.9L628.9,572.9z M563.5,600.1c-3.5,1.8-7.1,3-11.1,2.3
		c-10.2-2.2-20.4-1.1-30.6-1.3c-9-0.1-17.9,2.1-27,1.5c-8.8-0.6-17.5-2-25.6-5.8c-2.7-1.3-5.8-2.3-7.3-7.2c4.2,0.8,7.2,1.2,10.2,1.9
		c3,0.7,6.1,0.9,9.2,0.4c7.5-1.1,15-2.5,22.5-3.8c21.1-3.6,41.4-11.5,62.9-13c12.6-0.9,25.1-3,37.7-2.2c5.4,0.3,11.2,0.4,16.1,3.8
		c-1,2.3-2.6,1.8-3.9,2.1c-11,2.3-21.7,5.9-31.9,10.5C577.5,592.7,570.5,596.4,563.5,600.1L563.5,600.1z M497.3,623.8
		c-12.7-0.5-22.2-6.2-31.1-14.2c-1.9-1.8-4.1-4.2-2.1-7c1.6-2.3,3.9-0.2,5.8,0.5c8.6,3,17.6,5.7,26.5,4.9
		c13.1-1.3,26.1-0.5,39.1-0.9c2.2-0.1,4.8-0.9,6.5,1.5c-0.2,1.9-1.5,2.6-2.7,3.3C526.2,619.1,512.8,624.3,497.3,623.8L497.3,623.8z
		 M425.3,920.5c-4.4-5.5-6.1-11.7-3.1-19.7c1.9-6.2,3.4-12.4,4.5-18.8c1.6-8.3,3.5-16.4,3.9-25c0.6-13.7-2.9-26.6-6.2-39.6
		c-3.5-13.7-9.9-25.3-22.1-32.5c-3-1.8-3.3-4.1-1.4-6.8c2.7-3.8,5.9-7.1,9.6-9.9c9.9-7.7,19.8-15.5,27.2-26.2
		c2.6-3.8,5.6-7.4,8.4-11.1c1.1-1.4,2.3-3.1,4.1-1.9c6.2,4.3,13.7,6.9,16.7,15.4c3.1,8.9,4.6,17.6,2.1,27c-4.5,16.8-6,34.3-6.8,51.6
		c-0.5,11.1-1.9,21.1-7.5,30.5c-0.9,1.5-1.5,3.1-2.3,4.7c-2.5,5.1-3.7,10.8-3.6,16.5c-0.2,13.6,3.5,26.1,9.8,37.8
		c0.7,1.3,1.6,2.4,2.6,3.5c0.5,0.4,1.2,0.7,1.9,0.6c1.2-0.2,1.4-1.3,1.2-2.3c-0.5-2.2-1.1-4.4-1.8-6.5c-2-5.3-4.3-10.5-5.9-16
		c-3.7-12.1-3.8-24.1,3.1-35.2c6.4-10.1,9.6-21.9,9.1-33.9c-0.2-8.8,1.3-17.4,2.5-26c2.1-15.9,8-31.4,4.6-47.9l-0.3-0.3l0.3,0.3
		c12.4,7.2,22.2,17.1,27.3,31.2c3.3,9.2,4.3,18.9,5.5,28.5c1,8.4,1.7,17,4.9,24.8c1.7,4,1.7,7.5-0.5,11.2c-1.1,1.9-1.7,4.1-2.9,6
		c-5,7.9-4.7,16.1-1.1,24.2c3.2,7.1,4.5,14.8,4,22.5c-0.1,2-0.1,4,0.1,6c0.9,9.4,2.9,18.3,11.4,23.7c1.7,1.1,3.7,3.9,5.5,1.9
		c1.9-2.2-1.1-3.8-2.5-5.2c-4.5-4.8-7.8-10.1-7.4-17.1c0.7-11.6-0.2-22.9-4.3-33.8c-0.6-1.4-0.9-2.8-1.1-4.3
		c-1.1-6.9,0.2-14,3.7-20.1c1.7-3.1,3.2-3.2,5.2-0.1c3.4,5.2,5,11.4,6.4,17.3c1.4,5.9,1.3,11.9,2.2,17.8
		c2.7,17.9,11.4,33.2,19.3,48.8c1,2,2.2,3.9,3.3,5.8c0.5,0.8,1.4,1.5,2.4,0.8c0.6-0.4,1-1.1,1.1-1.8c0-1.2-0.1-2.5-0.3-3.7
		c-1.4-6.8-3.1-13.5-6.4-19.7c-8.8-16.7-14.7-34.7-17.5-53.4c-0.9-6.4-3.1-12.6-6.4-18.1c-3.4-5.7-5.9-12-8.8-18
		c-1.7-3.4-1.7-7.2-1.6-10.9c0.1-2.6,1.4-4.4,4.1-3.8c8.5,1.8,16.8,3.9,22.4,11.8c1.7,2.4,3.3,7.2,6.7,4.2c2.8-2.4-0.3-6-2.1-8.5
		c-4.2-6-10.7-10-18-11.1c-13.2-2.3-14.9-4.4-17.5-17.7c-1.2-6.2-2.8-12.3-6.1-17.5c-11-17.6-25.2-31.8-43.7-40.6
		c-1.8-0.8-4.8-0.5-5.1-3.5c2.4-1.6,5.7-3,7.5-5.1c8.7-9.9,18.4-13,30-5.8c1.1,0.8,2.5,0.5,3.3-0.5c0.8-1.2,0.1-2.4-0.8-3.3
		c-4.8-4.9-10.7-6.5-17.1-5.8c-5.8,0.7-11,2.9-15,7.8c-2.5,3-5.2,6.5-8.9,8c-1.5,0.7-3.2,0.5-4.5-0.4c-1.5-1.1-0.1-2.6,0.4-4
		c1-3.1,2.6-6,3-9.2c1.4-9.8,3.6-19.4-3.1-28.3c-2.1-2.8-0.2-5.6,1.4-7.7c4.2-5.7,6.5-12.2,8.4-18.9c0.9-3.4,1.4-6.8,2.3-10.2
		c1.2-4.5,2.8-5,5.8-1.6c5.4,6.1,10.3,12.4,14,19.8c7.9,15.7,13.3,32.5,18.5,49.3c8.1,26.1,21.2,48.9,40.2,67.9
		c4.6,4.7,8.8,9.8,12.6,15.2c7.5,10.2,12.4,22,14.4,34.5c2.3,14.3,1.2,28.4-0.7,42.4c-2.3,16.9-0.1,33.2,4.6,49.3
		c2.9,9,6.2,17.7,10.1,26.3c2.4,5.6,3.8,11.3,2.4,17.4c-2.1,9-9.8,13.5-18.1,10.2c-5-1.8-9.6-4.5-13.6-8
		c-10.3-9.1-21.3-17.5-32.8-25.1c-10.8-7.2-22.8-10.9-36.1-8.3c-11,2.3-22.3,3.2-33.5,2.5C442,934.2,432,929,425.3,920.5
		L425.3,920.5z M216.7,870.9c-2.7-4.8-3.5-10.4-2.3-15.8c1.1-5,3.7-7.2,8.6-7.3c3.3-0.1,6.7,0.1,10,0.4c14.7,1.3,29.2,4.4,44,4.1
		c6.8-0.1,8.8,3.3,6.4,10c-0.7,2.4-2.2,4.4-4.3,5.8c-4.7,3-6.8,7.5-8.3,13.1c-1.1,4.4-5.1,7.4-9.6,7.3c-3.7-0.1-7.3,0.7-10.6,2.2
		c8,4.4,14.3,3.8,20.9,0.1c2.1-1,3.5-2.9,3.8-5.2c0.4-5.7,3.6-9.5,7.2-13.3c3.4-3.5,5.9-7.5,6.1-13c0.2-6.5,1.6-7.9,8-9.6
		c5.6-1.4,11-3.5,16.1-6.2c4.6-2.6,9-5.7,13.4-8.7c3.3-2.2,5.9-2,9,0.7c8.4,7.3,13.4,16,12.2,27.9c-0.3,3-0.1,6-0.1,9
		c0,9.1-3.7,15.7-11.9,18.7c-4.3,1.6-8.6,3.4-12.8,5.1c-6,2.4-9.9,6-10.8,13c-1.7,13.2-4.7,25.8-13,36.6c-2.9,3.7-3.2,8.8-4.1,13.4
		c-0.2,1,0.1,2.1,1.2,2.3c0.7,0.1,1.4-0.2,1.9-0.6c0.9-0.8,1.6-1.9,2-3c1.7-5.9,5.3-10.6,8.9-15.2c2.5-3.4,4.3-7.2,5.3-11.3
		c1.1-4.8,2.6-9.7,2.9-14.6c0.7-9.6,4.9-15,14.1-16.9c6.5-1.1,12.4-4.8,16.2-10.2c2.4-3.3,3.8-3,5.5,0.8c2.8,5.7,2.6,12.4-0.3,18
		c-4,7.7-8.4,15.1-12.6,22.6c-6.5,11.4-10.8,24-12.7,37c-1.2,8.4-1.9,16.9-7.2,23.9c-1.3,1.9-2,4-2.2,6.3
		c-0.7,5.7-1.7,11.6,1.8,16.8c1.8-0.4,1.9-1.5,1.8-2.4c-0.5-8.4,2.4-15.6,7.2-22.1c2.6-3.6,4.1-8,4.3-12.5
		c0.3-17.4,7.5-32.2,15.4-46.8c1.9-3.5,4-6.8,6.1-10.2c1-1.7,1.9-3.9,4.1-3.7c2.6,0.3,3,3,3.7,5c1.3,4,2.4,8.1,2.2,12.4
		c-0.2,3.7,0.7,7.4,2.5,10.7c3.5,7.4,3.4,7.5-3.3,12.5c-0.6,0.4-1.2,0.8-1.7,1.3c-0.7,0.4-0.9,1.3-0.5,2c0.4,0.5,1,0.9,1.7,1
		c2.6-0.1,5.2-0.9,7.5-2.2c5.7-3,7.2-6.9,4.2-12.7c-2.6-5.1-3.7-10.8-3.2-16.5c0.8-6.4-1.2-12.8-5.4-17.6c-2.1-2.3-3.3-5.4-3.2-8.5
		c0.6-7.7-1.7-14.4-5-21.2c-1.2-2.4-1.4-5.5-2.2-8.1c-2.5-8.5-0.4-17.4-2.3-26c-0.6-2.7,1-4.2,3.3-4.9c3.4-1.1,6.9-2.1,10.3-3.1
		c5.9-1.7,7.5-1.3,11,3.8c3,4.7,7.5,8.4,12.7,10.4c5.4,2,9.5,5.7,9.6,12.5c0.1,1,0.3,2,0.6,2.9c0.3,0.9,0.8,1.8,1.9,1.8
		c1,0,1.9-0.7,2.1-1.7c1.7-4,1.3-8.5-1-12.2c-2.3-3.7-5.2-7.1-9.5-8.6c-4.9-1.8-9.1-5-12.1-9.2c-5.5-7.4-12.1-8.3-20.3-4.6
		c-11.4,5.1-10,6.4-20.5-4.6c-0.5-0.5-1.8-1.9-1.8-1.9c-2.5-2.4-2.6-4.9-1.1-8c5.3-10.5,7.3-11.6,18.7-9.6l1.4,0.3
		c11.9,1.7,25.2-0.8,31.3-15c0.7-1.6,1.5-3.1,2.5-4.5c2.7-4.3,4.7-4.9,8.7-1.7c4.4,3.5,8.4,7.5,10.5,13c5.6,14.6,9,30,9.9,45.6
		c0.5,10.5-1.6,20.8-3,31.1c-4.2,31.8-17.9,58.4-39,81.4c-9.8,10.5-20.7,19.8-32.6,27.8c-8.3,5.7-12.2,14.1-14.3,24
		c-1.2,6.1-0.8,12.4-2.7,18.4c-2.6,8.2-5.6,16.8-11.9,23.3c-1.7-1.4-2-3.6-2.4-5.2c-2-8.1-5.9-15.7-11.4-22
		c-3.2-3.7-6.1-7.6-8.9-11.6c-12.2-18.2-19.5-38.1-18.3-60.8c0.3-4.2,0-8.4-0.9-12.6c-2.4-10.1-8.8-16.9-16.2-23
		C242.6,907.1,227.6,891,216.7,870.9L216.7,870.9z M146.2,772.5c-2.2-20.3,4.3-37.7,15.9-53.4c11-14.7,25.8-24.2,42-31.4
		c7.4-3.3,7.6-3.3,12.3,3.4c16,22.7,46.1,38.1,76.6,23.3c3-1.5,5.3-1.3,7.9,0.8c17.5,14.3,30.8,31.8,37.6,54.2
		c3.7,12.3,3.1,24.4-2.9,35.5c-10.9,19.9-27.4,31.8-49.4,33.7c-10.3,0-20.7-0.1-31-0.1h-0.4c-4.8-0.3-13.2-1.1-19.8-1.4
		c-0.5-0.1-1-0.2-1.5-0.2c0,0-8.6-0.8-12.9-1.1c-2.8-0.2-5.5-0.3-8.3-0.3C172.3,835.6,149.4,801.6,146.2,772.5L146.2,772.5z
		 M123.4,726.6c0-5.6,1.3-11.2,3.8-16.2c9.9-20.8,26.5-30.6,48.1-31.9c9.6-0.6,19-1.2,27.9-5.4c2.1-1,3.6-0.8,4.5,1.7
		c0.8,2.3,0.9,4.4-1.9,5.4c-1.8,0.7-3.5,1.4-5.3,2.2c-27.4,12.3-49.7,30.3-60.5,60.7c-1.6,4.6-3.3,5.1-7.6,2.9
		c-3.3-1.7-5.8-4.6-7-8.1C123.9,734.4,123.2,730.5,123.4,726.6z M103.5,688.4c5.2-4.4,10-9.3,14.3-14.6
		c10.9-13.9,24.4-18.7,41.3-15.4c13.5,2.6,27.3,5.7,41,0.5c2-0.7,3.1-0.1,3.6,2.2c1,4.1,0.4,5.7-3.9,7.1c-9,3.1-18.6,4.5-28.1,4.3
		c-3,1.1-6.3,1.6-9.5,1.3c-9.2,2-17.7,6.7-24.4,13.4c-13.6,13.6-23.5,29-18.6,50.2c0.1,0.4-0.2,0.9-0.3,1.4
		c-6.1-2.5-10.6-6.5-14.4-12.5c-3.1-4.8-4.6-10.3-6.5-15.7C94.3,699.9,95.3,695.5,103.5,688.4z M78.3,659.8
		c-1.5-2.6-0.1-4.2,1.9-5.7c4-2.6,8.7-4.1,13.5-4.2c8-0.5,15.5-3.5,21.6-8.7c2.9-2.5,6.2-4.6,9.2-7c9.2-7.2,18.7-8,28.6-1.8
		c4.3,2.6,8.7,5.1,13.1,7.6c8.9,5.3,19.3,7.4,29.6,5.9c2-0.3,4-0.9,6.1,0.5c-1.4,4-4.5,4.9-7.4,5.8c-5.7,1.7-11.8,2.3-17.7,1.5
		c-8-0.9-16.1-1.7-24.1-2.5c-15.3-1.4-27.7,4.5-36.9,16.9c-6.4,8.5-14.3,15.1-23,23.2C88.4,679.9,83.9,669.5,78.3,659.8L78.3,659.8z
		 M66.4,639.1c-2.2-3.5-1.9-6.8,0.4-10.3c6.3-10.7,15.7-15,27.2-14.2c8.7,0.6,16.5-1.2,23.6-6.6c1.3-1,2.8-1.9,4.2-2.8
		c9.8-6.4,19.7-6.5,29.9-1.2c5.3,2.8,10.1,6.5,14.9,10.2c8.6,6.6,18.8,10.8,29.6,12.1c3.7,0.5,7.6,0.2,11.1,2
		c-1.7,9.9-2.5,10.5-11.3,10.4c-9.6-0.2-19-3.4-26.8-9c-6.8-4.6-13.7-9-21.6-11.4l-12.7,0.3c-6.8,4.1-14,7.6-19.4,13.8
		c-5.7,6.5-12.9,9.9-21,11.7c-4,0.9-7.8,2.2-11.8,3.2c-3.1,0.8-5.7,4.9-8.9,3.4s-4.1-5.9-6-9C67.2,640.9,66.9,639.9,66.4,639.1
		L66.4,639.1z M67.3,578.2c2.3-4.4,6.3-7.7,11-9.1c11-3.8,21.8-3.3,31.6,3.2c10.6,7.1,22,10.1,34.4,10.5
		c11.7,0.1,22.7,5.4,30.2,14.4c7.5,8.7,15.3,17.2,25.7,22.2c0.3,0.2,0.4,0.8,0.7,1.6c-2.1,1-4.1,0.4-6.1,0
		c-8.5-1.5-16.6-5.1-23.4-10.5c-5.1-4.1-10.3-7.9-15.8-11.5c-11.5-7.1-29.8-9.4-41.8,3.1c-3.4,3.8-8.3,6-13.4,6.2
		c-5.6,2.1-11.4,0.6-17.1,1.2c-8.9,2.9-15.8,8.7-21.3,17.4c-1.9-3-3-6.4-3.1-10C57.7,603,61.1,590.3,67.3,578.2L67.3,578.2z
		 M78.4,562.5c-0.1-0.2,0.1-0.7,0.1-0.9c5-9.1,12.8-15.2,21.2-20.5c12.1-7.6,23.6-8,35.1,1.4c5.2,4.3,11.1,8,17.6,9.7
		c9.1,2.4,15.5,8.3,20.5,16.3c4.4,7.1,8.6,14.4,13.3,21.3c6.8,10.2,14,20.2,26.6,23.5c0.9,0.2,1.9,0.9,1.6,2
		c-0.3,0.9-0.9,1.7-1.6,2.3c-1.5,1.3-3.1,0.6-4.7,0c-4.7-1.9-9.1-4.4-13-7.6c-5-3.9-8.9-9-12.9-13.9c-7.2-9.3-17.6-15.5-29.2-17.3
		c-4-0.7-8-1.4-12-1.7c-8.4-0.6-16.5-3.2-23.7-7.5c-5.3-3.2-11-5.9-16.9-7.9c-6.2,0.1-12.4,0.1-18.6,0.1c-0.8,0.1-1.7,0.3-2.5,0.4
		C79.1,562.7,78.7,562.9,78.4,562.5L78.4,562.5z M17.1,528.8c-1.5-1.4-1.8-3.3,0.3-4.3c7.5-3.4,13-10,20.5-13.4
		c5.5-2.4,10.9-5,16.6-6.8c8-2.5,13.9-7.4,17.3-15.5c2.9-6.8,6.2-13.5,9.3-20.2c2.9-6.3,6.2-12.1,11.9-16.5s6.8-4.5,12.5-0.2
		c14.5,11,30.4,18.4,48.4,20.6c1.4,0.2,2.8,0.5,4.2,1c2.5,0.9,2.7,2.4,1.1,4.5c-5.2,6.7-11.6,11.1-20.2,10.9
		c-3.1-0.1-6.2-0.1-9.3,0.1c-7.2,0.4-14.3,0.3-19.7-6.1c-1.6-1.9-4.2-2.3-6.6-2.4c-1.5-0.1-3.4,0-3.6,3.2
		c8.2,1.1,12.8,8.8,19.7,12.5c2.9,1.6,2,3.4,0.3,5.3c-2.9,3.3-6.6,5.7-10.8,7C96.7,512,85.8,520,72.3,521c0.9,3,2.6,3.3,4.2,3.5
		c4.7,0.8,9.6,0,13.8-2.3c4.8-2.7,9.8-5.3,15.2-6.3c6.2-1,11.9-4,16.1-8.7c6.5-7.1,15-10.3,24.1-12c3.7-0.7,4.4,0.2,4.2,4.4
		c-0.5,5.2-0.3,10.4,0.3,15.6c0.8,5.4,0.5,5.8-4.5,7.2c-1.4,0.4-2.8,0.6-4.2,0.9c-16.2,3.6-32.2,7.6-46.5,16.5
		c-8.8,5.5-17.6,5.7-26.7,1.8c-12.7-5.4-25.8-8.5-39.6-7.9C24.2,533.9,20.4,531.8,17.1,528.8L17.1,528.8z"/>
</g>
</svg>
