<?xml version="1.0" encoding="utf-8"?>
<!-- Generator: Adobe Illustrator 23.0.6, SVG Export Plug-In . SVG Version: 6.00 Build 0)  -->
<svg version="1.1" id="Layer_1" xmlns="http://www.w3.org/2000/svg" xmlns:xlink="http://www.w3.org/1999/xlink" x="0px" y="0px"
	 viewBox="0 0 550 1080" style="enable-background:new 0 0 550 1080;" xml:space="preserve">
<style type="text/css">
	.st0{clip-path:url(#SVGID_2_);}
	.st1{fill:#D7871A;}
</style>
<title>accent</title>
<g>
	<defs>
		<rect id="SVGID_1_" width="550.3" height="1080"/>
	</defs>
	<clipPath id="SVGID_2_">
		<use xlink:href="#SVGID_1_"  style="overflow:visible;"/>
	</clipPath>
	<g class="st0">
		<path class="st1" d="M506.7,641.6c-2-6.8-9.2-10.7-16.1-8.7c0,0,0,0,0,0c-6.8,2-51.8,12-85.2-6.4c38.5,42.1,85.7,33.2,92.6,31.2
			C504.8,655.6,508.7,648.4,506.7,641.6z"/>
		<path class="st1" d="M542.5,535.6c2.4-18.3-2.1-36.8-12.8-51.8c-5.5-7.8-13.2-14.7-22.2-18c-1.7-7.4,0-16.8,3-23.3
			c3.8-8.2,9.5-15.9,11.4-24.9c1.3-5.9,1.9-14.9-4.8-18.1c-4.8-2.3-9.7-0.7-12.9,3.2c-4.2-5.4-10.2-9.1-16.8-4.6
			c-2.8,1.9-5,4.6-6.2,7.8c-1.3-2.7-2.4-5.5-5-7.1c-2.4-1.5-5.3-2.1-8-1.7c-4.7,0.7-7.4,4.6-7.2,9c-5.5-2.3-11.8-1.2-13.9,5.2
			c-1.4,4.1-0.2,8.1,1.9,11.6c-12.3-2-17.9,12.3-10,20.8c-5.1,0.7-10.5,4-9.8,9.9c0.8,7.3,6.5,11.1,13.4,12.3c4.6,0.7,9.2,1,13.8,1
			c8.4,0,16.8-0.9,25.2-1.2h1c2.4,0.3,7.6,0.1,8.6,0.2c5.4,0.6,10.6,2.4,15.2,5.1c9.3,5.6,16.3,15.1,20,25.2
			c8.1,21.9,5.2,45.8-9,64.7c-9.1,12.2-22.7,20.3-37.1,25.3c-23.8,8.3-49.9,5.6-73.5-2.3c-20.9-7.2-40.6-17.7-58.3-31
			c-20.2-15.1-38.6-32.8-60.4-45.7c-17.3-10.2-36.2-17-56.4-17.9c-21.6-1-40.8,6.3-57.9,19.1c0.7,2.6,4.7-0.9,6-1.6
			c3.2-1.6,6.5-3.1,9.9-4.4c9.1-3.5,18.8-5.4,28.6-5.4c45.7-0.4,78.2,33.5,110.6,61.2c35.8,30.6,83.2,55.3,131.6,49.9
			C500.8,603.6,536.8,576.8,542.5,535.6z M484.7,463.6c-0.3,0-0.5,0.1-0.8,0.1h-0.2c-4.3-0.2-8.6-0.8-12.8-1.8
			c-3.9-1-7.8-2.3-11.6-3.7c-2.7-1-6.5-1.9-8.6-4c-4.1-4.1-1.2-9.9,4.4-9.1c0.4,0.1,0.9-0.2,0.9-0.7c0-0.3-0.1-0.6-0.3-0.7
			c-1.5-1.2-3.3-2.6-3.9-4.5s0.6-5,2.1-6c2.5-1.6,5,1.3,6.5,2.9c5.6,5.9,11.9,11.1,18.6,15.7c0.8,0.5,1.6,1,2.4,1.6
			c-2.7-1.4-5.4-2.8-8.1-4.1c-2.8-1.4-5.7-2.5-8.7-3.5c2.3,2.1,4.8,4,7.4,5.7c1.5,1,3.1,2,4.6,2.9c-3.6-1.2-7.1-2.3-10.8-3.3
			c-4-1.1-7.9-2.1-12-2.9c3.6,2,7.4,3.8,11.2,5.3c3.3,1.4,6.7,2.6,10.1,3.8c-1.7-0.4-3.3-0.7-5-1c-3.8-0.8-7.7-1.3-11.6-1.7
			c3.6,1.6,7.3,3,11,4.1c3.7,1.2,7.5,2.2,11.3,3.2c1.8,0.4,3.7,0.8,5.5,1.2C486,463.4,485.3,463.5,484.7,463.6L484.7,463.6z
			 M491.3,447.4l-5.6-8.8c-1.9-2.9-3.8-5.9-6-8.7c0.9,3.4,2.2,6.8,3.7,10c0.9,1.9,1.8,3.6,2.8,5.4c-0.3-0.3-0.5-0.6-0.8-0.9
			c-2.7-3.1-5.5-6.2-8.3-9.2s-5.7-6-8.8-8.9c2,3.6,4.3,7.2,6.8,10.5c2.5,3.4,5.1,6.6,7.8,9.7c0.5,0.6,1,1.1,1.5,1.6
			c-1.7-1.5-3.5-2.9-5.3-4.4c-2.8-2.2-5.6-4.3-8.6-6.3c2.1,2.9,4.4,5.6,6.9,8.2c2.4,2.6,5,5,7.7,7.3c1.8,1.5,3.7,3.1,5.6,4.5
			c-9.5-5.6-18.3-12.2-26.3-19.8c-2.6-2.5-4.9-4.4-5.7-8c-0.6-2.5-0.7-6.1,1.3-8.1c3-2.9,6.3-1.7,9.3,0.4c0.3,0.3,0.9,0.3,1.2-0.1
			c0.1-0.2,0.2-0.4,0.2-0.6c-0.2-1.9-0.4-4.7,1.1-6.1c2.1-1.9,5-1.3,7.1,0.2s2.2,4,3,6.5c0.9,2.8,2.1,5.5,3.2,8.2
			c1.9,4.9,3.4,10,5.6,14.9c1.1,2.3,2.3,4.6,3.5,6.7C493.1,450.3,492.2,448.9,491.3,447.4L491.3,447.4z M505.2,459.2
			c-0.1-0.9-0.1-1.7-0.1-2.4c0.1-3,0.4-6,0.6-9l0.7-9.1c0.2-3,0.4-6.1,0.4-9.2c-1.2,2.9-2.2,5.8-2.8,8.9c-0.5,2.4-1,4.7-1.3,7.1
			c0-0.2,0-0.4-0.1-0.7l-0.9-10.5c-0.3-3.5-0.7-7-1.3-10.6c-0.7,3.5-1.1,7.1-1.2,10.7c-0.1,3.5-0.1,7,0.2,10.5l-1.9-9.5
			c-0.7-3.5-1.5-7.1-2.5-10.6c-0.3,3.7-0.4,7.3-0.1,11c0.3,3.6,0.7,7.3,1.4,10.8c0.7,3.6,1.7,7.2,3.1,10.6c0,0.1,0.1,0.2,0.1,0.4
			c-2.1-3-3.9-6.1-5.6-9.3c-3.5-6.8-5.6-14.1-8.4-21.2c-0.9-2.1-3-5.7-2.9-8.1c0.5-2.5,1.5-4.9,3-7c1.6-2.1,4.1-3.3,6.7-3.2
			c5,0.3,8.4,3.5,9.5,8.3c0.2,0.8,1.2,0.6,1.5,0.1c2.8-4.3,9.4-4.5,11.5,0.6c1,2.6,2,5.4,1.6,8.2c-0.5,3-2.3,5.6-3.7,8.2
			c-1.6,3.1-3.1,6.3-4.4,9.5C506.5,448.8,505.4,453.9,505.2,459.2L505.2,459.2z"/>
		<path class="st1" d="M228.7,668.2c10.5-1.8,20.9-6.9,27-15.9c3.6-5.4,11.1-19.9,7.3-31.9c1.4-18.6-7.8-37.9-18.4-52.4
			c-11.3-15.5-29.8-33.5-50.5-32.9c-0.1,0.5-0.1,1,0,1.4c21-0.6,39.7,18.4,50.7,34.3c6.6,9.2,11.5,19.5,14.5,30.4
			c1.4,5.1,2.2,10.4,2.2,15.8c-0.1-0.2-0.2-0.4-0.3-0.6c-3.9-6.9-12.2-7-18.1-1.7c-6.9,6.3-2.2,15.6-0.1,22.6
			c3.8,12.5-4.6,23.5-14.9,29.5c-0.4,0.2-0.5,0.6-0.3,1C228,668.1,228.3,668.3,228.7,668.2z"/>
		<path class="st1" d="M285.2,569.4c10.8,12.2,18.9,26.5,23.9,42c3,9.7,4.4,19.8,4.3,29.9c0,2-0.1,4.1-0.3,6.2
			c-0.5-1.2-1.3-2.3-2.1-3.4c-5.2-6-12.6-6.3-18.2-0.6c-6.5,6.7-1.3,15.7,1.3,22.6c4.5,12.3-3.2,23.8-13.1,30.3
			c-0.3,0.2-0.4,0.7-0.2,1c0.2,0.3,0.5,0.4,0.8,0.3c10.3-2.5,20.5-8.2,26-17.5c3-5.1,9.2-19.2,6.6-29.7c2.8-30.1-7.8-59.5-28.4-82.7
			c-12.7-14.3-28.2-25.8-45.6-33.8c-14.1-6.4-30.9-11.3-46.4-7.7c-0.1,2.1,1.5,1.1,2.9,0.9c1.8-0.3,3.6-0.5,5.4-0.5
			c3.9-0.2,7.8,0.1,11.7,0.7c8.8,1.4,17.4,4.1,25.5,7.8C256.8,543.2,272.5,554.9,285.2,569.4z"/>
		<path class="st1" d="M220.1,801.9c-5.6-6.7-14-10.3-22.7-8.6c-9.1,1.8-17.2,9.2-15.6,19.1c1.2,8,10.4,14.8,17.6,8.7
			c1.8-1.5,2.7-3.8,2.4-6.1c-0.2-2.2-1.6-4.1-3.6-4.9c-0.6-0.2-4.4-0.2-4.2,0.8c0.6,1.7,1.3,0.6,2.6,0.7c2.4,0,3.3,3,2.9,4.8
			c-0.6,2.4-3,3.8-5.4,3.9c-5.3,0.5-8.3-4.8-8.5-9.4c0-4.8,2.8-8.6,6.9-10.8c19.6-10.3,32.4,14.6,27.6,30.6
			c-5.4,18.3-27.2,26.3-44.6,24.3c-10.8-1.2-20-6.1-28.2-13c-0.6-0.6-2.9-3.7-3.6-3.7c-2.2-0.1,0,2.5,0.3,2.8c3.1,4.3,7,8,11.3,11.1
			c9.1,6.5,20.6,9.3,31.6,8.5c5.8-0.4,11.5-1.9,16.8-4.3c3.5-1.6,6.5-4.2,9.9-5.8c2-0.9,4.1-3.6,5.4-5.2c3.7-4.4,6.3-9.7,7.6-15.4
			C228.8,820,225.9,810.2,220.1,801.9z"/>
		<path class="st1" d="M219.3,898.5c-2.9-13.2-13.1-25.2-27.4-25.2c-7.7,0-16.3,3.7-20.3,10.5c-3.8,6.6-2.8,16,3.4,20.8
			c4.1,3.2,10.5,3.3,14.4-0.4c5-4.8,0.1-16.2-6.3-10.8c0.7,1.8,1.5,0.5,2.9,0.5c2.8-0.1,3.6,2.9,3.6,5.1c-0.2,3-3.3,4.9-6,5.1
			c-10.8,1.4-13-15.1-6-20.7c8.1-7,21.1-6.8,28.4,1.3c5.4,5.7,8.2,13.7,8.3,21.4c0.4,19-15.6,31.8-32.5,36.2
			c-11.2,2.8-23.1,2-33.8-2.4c-5-2-9.8-4.8-14-8.2c-1.8-1.5-3.5-3-5.1-4.6c-0.3-0.4-0.7-0.7-1.1-1c-0.3,0-1.1,0.9-1,1.1
			c9.6,12.1,22.3,20,37.8,21.8c14.6,1.7,30.4-2.7,41.6-12.3C217,926.8,222.4,912.9,219.3,898.5z"/>
		<path class="st1" d="M472.2,707.1c2.3-6-0.8-12.7-6.8-15c0,0,0,0,0,0c-6-2.3-48.6-2.9-66.5-40c8.3,48.1,52.4,59.5,58.4,61.8
			C463.3,716.1,469.9,713.1,472.2,707.1z"/>
		<path class="st1" d="M237.9,583.8c-2.6-21.9-19.4-37.9-40.5-42c-1.3,2.1,2.1,2.1,3.5,2.6c2.9,1,5.7,2.3,8.4,3.8
			c6,2.9,11.3,8.3,15.2,13.6c7.8,10.8,10.4,23.9,8.2,36.9c-1.8,10.5-10.6,19.5-21,22.4c-8.6,2.4-18.9,0.8-24.4-6.9
			c-3.8-5.2-5.1-13.7-0.9-19c3.3-4.2,10.8-6.5,15-2.3c1.8,1.8,2.8,5,1.8,7.2c-0.8,2.4-4.4,4.1-6.5,2.2c-1.2-1.1-0.2-3-2.3-2.8
			c-0.9,0.3,0.7,3.6,1.1,4c3.3,3.4,8.8,0.5,10-3.3c0.6-2.2,0.4-4.5-0.6-6.5c-4.7-10.3-19.4-5.9-23.4,2.5c-4.8,10.1,1,23.1,10.7,27.8
			c4.2,2,8.9,2.9,13.5,2.6c-4.4,3.1-6.6,8.5-7.6,13.6c-1.2,6.1,0.3,12.8,3,18.3c2.4,4.8,6.9,7.2,11.8,8.8c0.4,0.1,0.8-0.2,0.9-0.6
			c0-0.1,0-0.2,0-0.4c-3.1-6.3-5.3-12.7-4.1-19.8c0.9-5.5,4.1-10.4,7.3-14.8c1.8-2.4,6.9-9.1,11.1-15
			C236.3,608.1,239.4,595.8,237.9,583.8z"/>
		<path class="st1" d="M369.1,653.2c1.7,5.8,10.6,2.7,8.9-3S367.4,647.4,369.1,653.2z"/>
		<path class="st1" d="M343.1,583c0,0,9.1,18.9,14.3,28.9s14,32.7,14,32.7c21.9-6.3,15.7-29,15.7-29
			C372.4,614.4,350.8,589.3,343.1,583z"/>
		<path class="st1" d="M289.8,543.2c-16.3-12-34.5-22-54-27.9c-14.6-4.4-31.3-6.8-46-1.6c0.1,2.4,4.3,0.2,5.9-0.2
			c2.8-0.6,5.6-1,8.4-1.1c6.3-0.3,12.6,0.1,18.7,1.3C264,521,302,549.5,328,581.1c14,17,25.3,36.6,30.9,58
			c2.5,9.5,3.8,19.3,3.7,29.1c-0.1,4.9-0.5,9.9-1.4,14.7c-0.1,0.6-0.2,1.2-0.3,1.8c-0.4-0.7-0.9-1.5-1.4-2.2
			c-4.7-6.4-11.7-7.9-17.9-3.1c-7.4,5.7-3.4,15.3-1.8,22.6c2.8,12.8-6.4,23.1-17.1,28.3c-0.4,0.2-0.5,0.6-0.4,1
			c0.1,0.3,0.4,0.4,0.7,0.4c10.6-1,23-4.4,29.8-12.9c4-5.1,14.3-19.1,9.1-31.9c2.4-11.4,2.7-23.1,1.1-34.6
			C356.8,607.7,325.2,569.2,289.8,543.2z"/>
		<path class="st1" d="M388.1,671.7c-8.6,44.3,21.5,76.3,25.9,81c4.5,4.6,11.8,4.8,16.5,0.3s4.8-11.8,0.3-16.5l0,0
			C426.3,731.8,388,712.1,388.1,671.7z"/>
		<path class="st1" d="M381.5,648.8c1.7,5.6,10.2,2.6,8.5-2.9S379.8,643.2,381.5,648.8z"/>
		<path class="st1" d="M393.5,622.7c-1,1.2-1.3,2.9-0.7,4.3l0,0l0,0l0,0c0.3,0.6,0.6,1.2,1.1,1.7l0,0l-0.1-0.2
			c0.7,0.8,1.8,1.2,2.9,1.1h0.2c2.4-0.2,4.2-2.2,4-4.6c-0.2-2.4-2.2-4.2-4.6-4C395.3,621.2,394.2,621.7,393.5,622.7L393.5,622.7z"/>
		<path class="st1" d="M390.8,614.7c1.6,5.3,9.7,2.5,8.1-2.8S389.2,609.4,390.8,614.7z"/>
		<path class="st1" d="M390.3,640.4c0.8,2.4,3.4,3.6,5.7,2.8c2.4-0.8,3.6-3.4,2.8-5.7c-0.8-2.4-3.4-3.6-5.7-2.8c0,0,0,0,0,0
			C390.7,635.5,389.5,638,390.3,640.4z"/>
		<path class="st1" d="M53.6,955.6C50.2,941.3,67.4,913,71,903.7c0,0-15.2,14.5-23.1,22.5s-26.7,23.4-26.7,23.4
			C34,968.6,53.6,955.6,53.6,955.6z"/>
		<path class="st1" d="M17.9,957.7c5-3.4-0.7-10.9-5.6-7.5S12.9,961.1,17.9,957.7z"/>
		<path class="st1" d="M25.7,967.8c4.8-3.3-0.6-10.5-5.4-7.2S20.9,971.1,25.7,967.8z"/>
		<path class="st1" d="M55.6,958.9c-4.5,3.2,0.6,10,5.1,6.8S60.1,955.8,55.6,958.9z"/>
		<path class="st1" d="M-18.2,1052.8c-0.3,6.4,4.7,11.8,11.1,12.1c0,0,0,0,0,0c6.4,0.3,11.8-4.7,12.1-11.1
			c0.3-6.4-12.3-47.1,17.5-75.6C-20.7,1000.9-18,1046.4-18.2,1052.8z"/>
		<path class="st1" d="M-63.6,1039.4c5.7,3,12.7,0.9,15.7-4.8c3-5.7,9.9-48.2,48.5-60.6c-44.8,5.5-65.9,44-69,49.7
			C-71.4,1029.3-69.3,1036.3-63.6,1039.4C-63.6,1039.4-63.6,1039.4-63.6,1039.4z"/>
		<path class="st1" d="M177.7,1078.8c18.1-3.3,34.3-13.4,45.3-28.2c5.7-7.6,9.9-17.1,10.3-26.7c6.6-3.9,15.9-5.2,23.1-4.3
			c9,1,18.1,4.1,27.2,3.2c6-0.6,14.7-2.8,15.7-10.1c0.7-5.3-2.4-9.5-7.1-11.3c3.8-5.6,5.5-12.5-0.8-17.4c-2.7-2.1-6-3.3-9.4-3.5
			c2.1-2,4.5-4,5.3-6.9c0.7-2.7,0.4-5.7-0.9-8.2c-2.1-4.3-6.7-5.6-10.8-4.1c0.5-6-2.5-11.6-9.2-11.7c-4.3-0.1-7.7,2.3-10.5,5.4
			c-1.8-12.3-17.2-13.2-22.8-3.1c-2.2-4.6-7.1-8.7-12.5-6.3c-6.7,3-8.6,9.7-7.6,16.5c0.7,4.6,1.8,9.1,3.3,13.5
			c2.6,8,6,15.7,8.9,23.6l0.4,1c0.5,2.4,2.3,7.3,2.5,8.3c1,5.3,1,10.7-0.1,16c-2.4,10.6-9.3,20.2-17.8,26.8
			c-18.4,14.5-42,19.1-64.3,11.5c-14.4-4.9-26.3-15.3-35.5-27.4c-15.2-20.1-20.8-45.8-20.5-70.6c0.4-22.1,4.3-44.1,11.5-65
			c8.1-23.9,19.3-46.8,24.8-71.5c4.4-19.6,4.9-39.7-0.4-59.2c-5.7-20.9-18.6-36.8-36.1-49.1c-2.3,1.5,2.3,4.2,3.4,5.2
			c2.5,2.6,4.9,5.3,7.2,8c6.2,7.6,10.9,16.2,14,25.5c14.5,43.4-7.7,84.8-24,124.1c-18.1,43.5-26.9,96.2-6.8,140.6
			C100.1,1060.1,136.8,1086.1,177.7,1078.8z M277.7,986.6c2.5,0.8,4.4,2.9,5.1,5.4c1.3,4.9-0.8,9.1-5,11.6c-0.7,0.4-0.2,1.3,0.4,1.5
			c5,1.4,7.2,7.5,3,11.1c-2.1,1.8-4.5,3.6-7.3,4c-3,0.5-6-0.5-9-1c-3.4-0.6-6.9-1-10.4-1.2c-5.3-0.4-10.5,0.2-15.6,1.7
			c0.8-0.3,1.6-0.6,2.2-0.8c2.9-0.8,5.8-1.5,8.7-2.2l8.8-2.1c3-0.7,5.9-1.5,8.9-2.5c-3.1-0.3-6.2-0.3-9.3,0c-2.4,0.2-4.8,0.5-7.2,1
			l0.6-0.3l9.7-4.1c3.2-1.4,6.5-2.9,9.7-4.5c-3.6,0.4-7.1,1.1-10.5,2.1c-3.4,0.9-6.7,2.1-9.9,3.4l8.4-4.7c3.1-1.8,6.3-3.6,9.3-5.6
			c-3.6,0.8-7.1,1.9-10.4,3.3c-3.4,1.4-6.7,2.9-9.9,4.7c-3.2,1.8-6.3,3.9-9.1,6.2l-0.3,0.3c2.2-2.9,4.5-5.6,7.1-8.2
			c5.4-5.4,11.7-9.7,17.6-14.6c1.8-1.5,4.5-4.7,6.8-5.2C272.6,985.6,275.2,985.8,277.7,986.6L277.7,986.6z M252.5,966.4
			c2.3-1.3,5.6-2.6,8.1-1.2c3.6,2,3.6,5.4,2.5,8.9c-0.2,0.4,0,0.9,0.5,1.1c0.2,0.1,0.4,0.1,0.6,0c1.7-0.7,4.3-1.9,6.1-0.8
			c2.5,1.4,2.8,4.4,2,6.9s-3.2,3.4-5.2,4.9c-2.4,1.7-4.6,3.7-6.9,5.5c-4.1,3.4-8.5,6.3-12.4,9.9c-1.9,1.7-3.6,3.5-5.3,5.4
			c1.1-1.4,2.2-2.7,3.3-4.1l6.6-8.1c2.2-2.7,4.4-5.5,6.5-8.3c-3,1.9-5.7,4.2-8.3,6.6c-1.5,1.4-2.9,2.8-4.3,4.3l0.6-1.1
			c2.1-3.6,4.2-7.1,6.2-10.7s4-7.3,5.7-11.1c-2.8,3.1-5.5,6.3-7.9,9.7c-2.4,3.4-4.7,6.9-6.8,10.4c-0.4,0.7-0.7,1.3-1.1,2
			c0.9-2.1,1.7-4.3,2.5-6.4c1.2-3.3,2.4-6.7,3.3-10.1c-2.1,2.9-4,5.9-5.6,9.1c-1.7,3.1-3.2,6.3-4.6,9.6c-0.9,2.2-1.8,4.5-2.6,6.7
			c2.4-10.7,5.9-21.2,10.6-31.1C248.2,971,249.3,968.3,252.5,966.4L252.5,966.4z M228.3,1001.5c-0.1-0.2-0.2-0.5-0.3-0.7l-0.1-0.2
			c-1.2-4.1-1.9-8.4-2.2-12.7c-0.2-4-0.3-8.1-0.1-12.2c0.1-2.9-0.2-6.7,1.1-9.4c2.6-5.2,9-4.2,10,1.3c0.1,0.4,0.5,0.8,0.9,0.7
			c0.3,0,0.5-0.2,0.6-0.5c0.6-1.8,1.4-4,3-5.1s4.9-1,6.3,0.2c2.3,1.9,0.3,5.1-0.8,7.1c-3.8,7.2-6.9,14.7-9.2,22.5
			c-0.3,0.9-0.5,1.8-0.8,2.7c0.6-3,1-5.9,1.4-9c0.4-3.1,0.6-6.2,0.6-9.3c-1.3,2.9-2.3,5.8-3.1,8.8c-0.5,1.8-1,3.5-1.4,5.3
			c0-3.8,0-7.5-0.2-11.3c-0.2-4.1-0.4-8.2-0.9-12.3c-0.8,4.1-1.3,8.2-1.6,12.3c-0.3,3.6-0.4,7.2-0.5,10.8c-0.2-1.7-0.3-3.4-0.6-5.1
			c-0.5-3.9-1.1-7.8-2-11.6c-0.4,3.9-0.6,7.8-0.6,11.8c0,3.9,0.2,7.8,0.4,11.7c0.1,1.9,0.3,3.8,0.6,5.6
			C228.9,1002.7,228.6,1002.1,228.3,1001.5L228.3,1001.5z"/>
		<path class="st1" d="M65.8,1077.4c5.9-4,7.4-12.1,3.3-18c0,0,0,0,0,0c-4-5.9-27.5-45.6-20.2-83c-28.1,49.6-5.1,91.8-1,97.7
			C51.9,1079.9,59.9,1081.4,65.8,1077.4z"/>
		<path class="st1" d="M36.4,973.5c2-1.5,2.4-4.3,0.9-6.3c-1.5-2-4.3-2.4-6.3-0.9c-2,1.5-2.4,4.3-0.9,6.3c0,0,0,0,0,0
			C31.6,974.6,34.4,975,36.4,973.5z"/>
		<path class="st1" d="M43.1,969.3l0.1,0.2c0.9,2.2,3.4,3.3,5.6,2.4c2.2-0.9,3.3-3.4,2.4-5.6c-0.4-1.1-1.3-2-2.4-2.4
			c-1.5-0.6-3.1-0.3-4.3,0.7l0,0l0,0l0,0c-0.5,0.4-1,1-1.3,1.6l0,0l0.1-0.1C42.8,967.2,42.7,968.3,43.1,969.3z"/>
		<path class="st1" d="M102.2,780.8c-0.4-15.2-3.2-31.8-12.7-44.2c-2.3,0.9,1.2,4.1,2,5.5c1.4,2.4,2.6,5,3.7,7.6
			c2.2,5.9,3.8,12,4.6,18.2c5.7,41.4-9.7,86.3-31.7,120.8c-11.9,18.5-27,35.4-45.6,47.4c-8.2,5.4-17.2,9.6-26.6,12.5
			c-4.7,1.5-9.5,2.6-14.4,3.3l-1.8,0.2c0.6-0.6,1.1-1.3,1.6-2c4.7-6.5,3.9-13.5-2.6-18c-7.7-5.3-15.7,1.5-22,5.2
			c-11.3,6.6-24,1-32.2-7.5c-0.3-0.3-0.7-0.3-1-0.1c-0.2,0.2-0.3,0.5-0.2,0.8c4.2,9.8,11.3,20.5,21.5,24.3
			c6.1,2.3,22.6,7.7,33.2-1.2c11.6-1.3,22.8-4.5,33.3-9.7c40.6-19.7,67.4-61.7,81.2-103.4C98.8,821.5,102.7,801.2,102.2,780.8z"/>
		<path class="st1" d="M-31.9,185.2c-5.6,1.4-10.8,4.1-15.1,8c-7.7,6.9-11.2,16.5-11.4,26.7c0.6,8.7,5.3,16.6,13.3,20.3
			c8.4,3.9,19.3,2.6,23.9-6.3c3.7-7.2,0.3-18.1-9.2-17.4c-2.3,0.2-4.4,1.5-5.5,3.5c-1.2,1.9-1.2,4.3,0,6.1c0.4,0.5,3.4,2.7,3.8,1.8
			c0.5-1.8-0.7-1.3-1.7-2.1c-1.9-1.4-1-4.3,0.5-5.6c1.9-1.6,4.7-1.3,6.7,0c4.6,2.7,3.9,8.8,1.4,12.6c-2.8,4-7.3,5.4-11.9,4.7
			c-21.9-3.2-17.6-30.8-4.4-41c15.1-11.6,37.4-5.3,50.4,6.5c8,7.3,12.6,16.7,15.2,27.1c0.1,0.9,0.2,4.6,0.8,5.1
			c1.7,1.3,1.5-2,1.5-2.5c0-5.3-0.9-10.6-2.6-15.6c-3.5-10.5-11.2-19.6-20.6-25.5c-4.9-3.1-10.4-5.3-16-6.4
			c-3.8-0.7-7.7-0.4-11.4-1.1C-26.6,183.8-29.9,184.7-31.9,185.2z"/>
		<path class="st1" d="M215.1,100.2c-0.2,7.1-4.6,53-32.4,79c51.9-23.6,58.1-71.3,58.2-78.4c0.3-7.1-5.3-13.1-12.4-13.4
			c-7.1-0.3-13.1,5.3-13.4,12.4C215.2,100,215.2,100.1,215.1,100.2L215.1,100.2z"/>
		<path class="st1" d="M105.8,928.9c-7.5,35.3-9.9,82.5,17.1,110.5c12.3,12.8,29.3,19.2,46.4,16.4c2.2,2.2,5.5,3,8.5,2
			c32.3-9.7,32-36.8,29.3-47.1c-3.5-13.3-19.3-24.8-27.8-11.1c-0.4,0.7,0.7,1.9,1.2,1.3c3.2-4,8.3-3.1,13,1.1
			c8.2,7.3,4.5,33-16.1,32.6c-13.2-0.2-14.3,13.3-9.1,19.9c-11.6,1.6-23.3-0.9-33.2-7.1c-2.8-1.8-5.5-3.8-7.9-6
			c5.7,4,12.4,6.1,20,4.7c5.9-1.1,11.5-5.6,11.4-12.1c-0.1-6.1-3.1-9.8-9.4-8.6c-0.3,0.1-0.5,0.4-0.4,0.7c0.1,0.3,0.3,0.4,0.6,0.4
			c5,0,3.9,4.1,1.7,6.2c-2.3,2.3-5.6,1-7.9-0.4c-3.8-2.3-5.7-6.6-7.3-10.5c-2.2-5.3-4.3-13.3-10.1-16.1c-4.2-2-9-1.9-12.2,1.8
			c-3,3.5-2.4,9.3-1.2,13.8c-8.6-17.8-10.4-39.5-9.3-59.5c0.2,1.2,0.5,2.4,0.8,3.6c2.8,9.3,10.5,16.7,19.1,20.9
			c8.2,3.9,17.9,3.5,23.3-4.5c2.3-3.3,3.2-7.3,2.6-11.3c-0.7-4-5.2-5.5-8.5-6.7c-0.6-0.2-1.1,0.6-0.6,1c3.7,2.4,5.5,5.9,2.7,10
			c-3.4,5.1-9.6,1.7-11.8-2.4c-2.5-4.6-1.9-11-1.4-16c0.8-7.6,1.3-15.3-2.8-22.1c-2.9-4.9-8.9-8.3-14.6-6.5c-2,0.6-3.7,1.8-4.9,3.5
			c3.3-16,8.4-31.4,14-46.8c0.1-0.1,0.1-0.3,0.2-0.4c-0.6,2.2-1,4.5-1.1,6.8c-0.7,11,4.4,24.2,13.9,30.3c7.8,5,19.9,3.9,25-4.2
			c2.4-3.8,3.3-9.1,1.2-13.2c-1.7-3.3-6.3-2.4-9.2-1.8c-0.7,0.1-0.8,1.3,0,1.3c0.8,0,1.6,0.1,2.4,0.2c4.4,0.6,5.1,6,2.1,8.7
			c-3.6,3.2-8.2-0.9-10.2-3.5c-3.5-4.8-2.1-11.6,0-16.6c3-7,9.1-13.1,8.8-21.2c-0.4-7.6-4.7-15.7-11.7-19.2
			c-2.2-1.1-6.3-2.9-8.8-1.6c-0.5,0.2-0.9,0.5-1.3,0.9c2.9-9.7,5-19.6,6.2-29.6c0.8-7.3,1-14.7,0.7-22c1.1,6.6,2.2,13.1,3.7,19.6
			c2.5,10.6,8.2,17.7,18.8,20.8c8.6,2.5,16.6-1.1,19.7-9.5c1.4-3.6,1.5-7.6,0.2-11.3c-1.4-4.1-5.9-5.1-9.6-5.8
			c-0.7-0.1-0.9,0.9-0.3,1.1c1.3,0.5,2.5,1.2,3.6,2c3.7,2.7,1.3,7-0.3,9.4c-3.5,5-9.4,2.6-11.6-2c-2.1-4.4-1.6-10.1-0.8-14.8
			c1.5-9,2.1-17.8-2.4-26.1c-2.9-5.3-7.2-11-13.8-10.8c-5.5,0.2-8.1,4.5-8.9,9.3c-0.1-0.2-0.3-0.4-0.6-0.4
			c-1.9-10.5-5.2-20.7-9.9-30.3l0.2,0.3c5.4,6.6,14.2,9.4,22.4,10.1c6.6,0.5,13-3,14.6-9.6c0.9-3.4,0.9-6.5-1-9.4
			c-1.7-2.7-6-2.7-8.7-2.9c-0.4,0-0.7,0.2-0.7,0.6c0,0.3,0.1,0.5,0.4,0.6c3.6,1.7,7,5.3,2.7,8.8c-2.8,2.3-7,0.4-9.5-1.2
			c-6.3-3.9-8.2-11.8-9.5-18.6c-1.7-8.8-4.4-18.3-12.9-22.9c-6-3.3-12.7-3.8-17.7,1.5c-2.2,2.3-3.3,5.4-3.2,8.6
			c0.3,3.3,1.9,5.4,3.6,7.8c-0.1,0.1-0.1,0.2-0.1,0.3c-4.4-4-9.3-7.4-14.5-10.2c-1.7,1.8,1.4,2.4,2.7,3.2c2.2,1.3,4.3,2.8,6.3,4.4
			c3.7,2.8,7,6,10.1,9.5c6.3,7.2,11.4,15.4,15.2,24.2c7.3,16.9,10.8,35.1,10.3,53.5C136.8,851.3,114.4,888.4,105.8,928.9z"/>
		<path class="st1" d="M20.1,704.6c0,0.3,0.1,0.5,0.1,0.6C20.2,705.1,20.1,704.8,20.1,704.6z"/>
		<path class="st1" d="M27.8,829.8c-4.5,2.9-9.3,5.3-14.3,7c0.1-0.2,0.3-0.3,0.4-0.5c5.4-5.9,2.9-13.8-4-17.8
			c-8.1-4.7-15.5,2.7-21.6,6.9c-10.7,7.5-23.8,2.9-32.7-5c-0.3-0.3-0.7-0.3-1,0c-0.2,0.2-0.3,0.6-0.1,0.9c5,9.4,13,17.8,23.5,20.7
			c6.3,1.8,22.3,4.4,32.6-2.9c18.1-4.5,33.7-19.2,44.2-33.7C66,790,77.5,766.8,70.5,747.3c-0.5,0.1-0.9,0.3-1.3,0.5
			c7.1,19.8-5.3,43.5-16.9,58.8C45.5,815.6,37.2,823.5,27.8,829.8z"/>
		<path class="st1" d="M-57.2,880.7c5.5,9.1,14.1,16.9,24.7,19.3c5.8,1.3,21.1,2.8,30.3-2.9c29.4-6.7,54.2-25.8,69.9-52.5
			c9.7-16.5,15.8-34.8,18-53.8c1.8-15.4,1.2-32.9-7-46.5c-2,0.5-0.6,1.8,0,3c0.8,1.6,1.6,3.3,2.2,5c1.4,3.7,2.4,7.5,3,11.3
			c1.4,8.8,1.5,17.8,0.4,26.6c-2.2,19.2-8.4,37.7-18.3,54.4c-8.2,14-19.3,26.2-32.5,35.7C25.2,886,16,890.5,6.3,893.5
			c-2,0.6-4,1.1-5.9,1.6c1-0.9,1.8-1.9,2.5-3.1c4.2-6.8,2-14-5-17.5c-8.4-4.2-15.3,3.6-21.1,8.2c-10.3,8.1-23.6,4.3-32.9-3
			c-0.3-0.3-0.7-0.3-1,0C-57.3,880.1-57.4,880.4-57.2,880.7z"/>
		<path class="st1" d="M90,703.9c3.9-6.1,3.6-17.1-4.2-20.2c-3.7-1.4-9-0.6-10.6,3.5c-1.2,3.1,1,8.3,5,6.2c-0.3-2.5-4-1-3-4.7
			c1-3.4,5.9-3.2,8.3-1.5c5.2,3.6,3.6,12.4-0.3,16.3c-10.2,10.4-28.7,3-34.8-8.2c-3.9,0.7,3.3,8.5,4.6,9.9c3.1,2.9,6.9,5,11.1,6
			C74.4,713.4,85.1,711.5,90,703.9z"/>
		<path class="st1" d="M68.4,682.6c-11.4,7.3-30-7.4-38.6-11.9C43.1,698.7,69,697.6,68.4,682.6z"/>
		<path class="st1" d="M-28,783.6c-6.2,0.7-12.1,4.2-16.5,8.5c-3.8,3.7-4.7,8.8-4.7,13.9c0.1,0.4,0.5,0.7,0.9,0.7
			c0.1,0,0.3-0.1,0.4-0.2c5-4.9,10.4-8.9,17.5-10c5.5-0.8,11.2,0.7,16.4,2.4c2.8,0.9,10.8,3.8,17.7,6c10.4,5.1,23.1,4.2,34.1-0.9
			c20-9.3,30-30.1,27.5-51.5c-2.4-0.5-1.4,2.6-1.4,4.1c-0.1,3.1-0.4,6.1-1,9.1c-0.9,6.6-4.4,13.3-8.2,18.6
			c-7.8,10.6-19.6,17.5-32.7,19.2c-10.6,1.5-21.8-4-27.8-13.1c-5-7.5-6.6-17.7-1-25.3c3.8-5.2,11.5-9,17.8-6.7
			c5,1.8,9.5,8.3,6.8,13.6c-1.2,2.3-3.9,4.2-6.3,4c-2.5,0-5.3-2.9-4.1-5.5c0.7-1.5,2.8-1.1,2-3.1c-0.5-0.8-3.2,1.8-3.5,2.3
			c-2.3,4.2,2.2,8.5,6.3,8.5c2.3-0.1,4.4-1,6.1-2.5c8.4-7.7-0.4-20.3-9.6-21.4c-11.1-1.5-21.6,8-23.1,18.8c-0.6,4.6,0,9.3,1.7,13.7
			C-17.1,783.4-22.8,782.9-28,783.6z"/>
		<path class="st1" d="M96.8,619.3c14.3-4.5,12.8-37.5-12.6-42.3c48.7,1.2,51.5-31.3,36.3-38.6c24-22.7,1.4-48.1-29.8-29.9
			c6.5-13.5-4.8-26.8-25.1-18.3c20.6-16.8,20.1-42.1-0.5-41.7c12.6-28.8-27.3-51.5-49.1-10.8c-9.6-7.9-18.6-0.9-24.5,7.9
			c1.3-29.5-23.7-37.6-34.7-25.1c-3.9-41.6-65-25-46.8,22.9c-15.1,0.1-22.8,16.1-9.7,29.7c-22.3-11.1-34.6,6.3-24.8,16.8
			c-44.4-15.4-58.1,33.7-16.7,45.7c-21.1,8.3,4.2,21.8,8.1,21.4c-33.6,4.5-33.5,27.7-17.4,34.8c-32.5,25,5.3,53.3,24.3,42.2
			c-0.7,21.7,27.8,14.1,38.2,1.3c-18.1,37.6,6,47.4,23.4,41.8c-12.9,45.1,49.8,43.4,45.7,8.2c9,8,49.1,1.9,36.5-37.4
			c22.3,37.8,55.6,24.1,53.4,7.6C105.8,678.4,127.4,633.9,96.8,619.3z M69.3,497.7c12.3-3.1,16.9,13.1,16,17.4
			c13.9-3.9,35.3-2,31.2,12.4c-0.1,0.2-3.1,7.4-8.2,10.2c5.4,0.7,14.6,15.9,2.7,22.5c-11.7,6.6-24.9,10-38.3,10.1
			c-15,0.3-59.7-4.9-67.1-5.8c0.4-1,0.6-2.1,0.7-3.1l43.4-4.1c0.1,0.6,0.2,1.3,0.5,1.9c1.5,3.8,5.8,5.6,9.6,4.1s5.6-5.8,4.1-9.6
			c-1.5-3.8-5.8-5.6-9.6-4.1c-2.1,0.8-3.7,2.6-4.3,4.8l-43.7,4.1c-0.1-1-0.3-2.1-0.6-3.1l53.2-16.2c0,0,0,0.1,0,0.2
			c1.5,3.8,5.8,5.6,9.6,4.1c3.8-1.5,5.6-5.8,4.1-9.6c-1.5-3.8-5.8-5.6-9.6-4.1c-2.7,1.1-4.5,3.6-4.6,6.5L4.6,552.6
			c-0.1-0.2-0.1-0.4-0.2-0.5L37.1,532c2.4,3.3,6.9,4,10.2,1.7c3.3-2.4,4-6.9,1.7-10.2c-2.4-3.3-6.9-4-10.2-1.7
			c-2.4,1.7-3.5,4.6-2.9,7.5l-33,20.3c-0.8-1.1-1.7-2.2-2.8-3c1.9-1.5,3.7-3.5,4.8-4.4c5-4.2,9.8-8.7,14.8-13
			c7.1-6.2,15.1-11.3,22.6-17C50.1,506.3,59.3,500.2,69.3,497.7z M8.5,440.2c2.7-0.3,8.8,0.7,9.8,3.7c-1.1-3.2,15.6-14.4,25.7-12.5
			c15.6,3,16.9,8.3,16.5,21.7c2.8-2.2,18,5.8,11.8,17c-4.5,8.1-9.3,16.7-16,23.5c-6,3-11.3,7.7-16.5,11.4
			C26,514.9,5.4,536.1-3,544.1c-0.2-0.2-0.5-0.3-0.7-0.4L30,505.7c4,0.8,7.9-1.9,8.6-5.9c0.8-4-1.9-7.9-5.9-8.6s-7.9,1.9-8.6,5.9
			c-0.5,2.8,0.6,5.8,3,7.4l-33.6,37.8l-0.3-0.1l25.4-51.8c4,0.7,7.7-2,8.4-6s-2-7.7-6-8.4c-4-0.7-7.7,2-8.4,6
			c-0.5,2.9,0.8,5.8,3.3,7.3l-25.5,52c-0.6-0.1-1.1-0.3-1.7-0.3l8.4-41.5c1,0,1.9-0.2,2.8-0.5c3.7-1.5,5.5-5.8,4-9.5c0,0,0,0,0,0
			c-1.5-3.7-5.8-5.5-9.5-4c0,0,0,0,0,0c-3.7,1.5-5.5,5.8-4,9.5c0,0,0,0,0,0c0.7,1.8,2.1,3.2,3.9,3.9l-8.5,41.9c-0.2,0-0.3,0-0.5,0
			c-0.3-2.4-0.3-41.6,2.2-58.6C-10.8,470.9-6.6,441.7,8.5,440.2z M-85.6,445.6c-6.1-14.7,7.2-25.6,13.2-28.7
			c12.5-6.3,21.3,0.5,27.8,10.9c1.2-7.3,30.5-4,32.2,24.5c-0.7,1.5-1.4,3-1.9,4.5c-5.5,15.4-6.8,32.4-6.7,48.7
			c0.1,6.4,0.9,19.5,1.6,28.1l-6.1-40.5c3.1-1.9,4.3-5.7,2.9-9c-1.5-3.7-5.8-5.5-9.5-4c-3.7,1.5-5.5,5.8-4,9.5c0,0,0,0,0,0
			c1.3,3.1,4.5,4.9,7.8,4.4l6.3,42.2L-41,476.6c2.3-2.1,3-5.3,1.8-8.2c-1.5-3.7-5.8-5.5-9.5-4c0,0,0,0,0,0c-3.7,1.5-5.5,5.8-4,9.5
			c0,0,0,0,0,0c1.5,3.5,5.4,5.3,9.1,4.1l20.9,64.9l-1.7,0.8l-28.2-49c3-1.9,4.3-5.7,2.9-9c-1.5-3.7-5.8-5.5-9.5-4c0,0,0,0,0,0
			c-3.7,1.5-5.5,5.8-4,9.5c0,0,0,0,0,0c1.3,3.1,4.5,4.9,7.8,4.4l27,46.9c-3.7-5-12.1-16.5-16.3-21.6c-8.1-9.7-37.9-40.9-44.5-46.8
			C-106.7,458.9-89.8,447.7-85.6,445.6L-85.6,445.6z M-134.5,533.9c-22.9-6.7-20.9-25.3-15.1-30.6c9.8-9,24.5-8,36.7-6.6
			c-13.2-11.2,4-24.1,17.3-17.6c17.9,12.4,49.7,49.8,66.2,68.9l-0.1,0.1l-35.2-25.4c2.1-2.1,2.8-5.3,1.6-8c-1.5-3.7-5.8-5.5-9.5-4
			c0,0,0,0,0,0c-3.7,1.5-5.5,5.8-4,9.5c0,0,0,0,0,0c1.5,3.6,5.5,5.4,9.2,4.1l36.2,26.1c-0.2,0.3-0.4,0.7-0.6,1.1l-54.8-26.1
			c1.1-1.9,1.3-4.3,0.4-6.4c-1.5-3.7-5.8-5.5-9.5-4c0,0,0,0,0,0c-3.7,1.5-5.5,5.8-4,9.5c0,0,0,0,0,0c1.5,3.7,5.8,5.5,9.5,4
			c0,0,0,0,0,0c0.6-0.2,1.1-0.5,1.6-0.9l55.6,26.5c-0.1,0.3-0.2,0.6-0.3,0.9L-79,543.9c0.6-1.7,0.5-3.5-0.2-5.1
			c-1.5-3.7-5.8-5.5-9.5-4c0,0,0,0,0,0c-3.7,1.5-5.5,5.8-4,9.5c0,0,0,0,0,0c1.5,3.7,5.8,5.5,9.5,4c0,0,0,0,0,0c1-0.4,1.8-1,2.6-1.8
			l30.1,7.4c-1.8-0.2-3.5-0.3-4.9-0.4c-14-0.7-28-0.3-42-0.2c-9.9,0.1-19.4-1.4-29.3-2.5C-140.4,549.2-136.3,536.5-134.5,533.9z
			 M-117.9,627.3c-17.1,8.4-40.1-15.5-28.1-34.9c-10.4-7.9-6.4-28.9,20.2-33.1c7.5,1.6,69.7-3.4,91.9,0.6c0,0.4,0,0.9,0,1.4
			l-40.8,4.5c0,0,0-0.1,0-0.1c-1.5-3.7-5.8-5.5-9.5-4c0,0,0,0,0,0c-3.7,1.5-5.5,5.8-4,9.5c0,0,0,0,0,0c1.5,3.7,5.8,5.5,9.5,4
			c0,0,0,0,0,0c2.7-1.1,4.4-3.7,4.5-6.6l40.4-4.4c0.1,0.6,0.2,1.1,0.3,1.7l-55.4,19.2c0,0,0-0.1,0-0.1c-1.5-3.7-5.8-5.5-9.5-4
			c0,0,0,0,0,0c-3.7,1.5-5.5,5.8-3.9,9.5c1.5,3.7,5.8,5.5,9.5,4c0,0,0,0,0,0c2.6-1.1,4.4-3.6,4.5-6.5l55.8-19.3
			c0.2,0.4,0.4,0.8,0.6,1.2l-43.6,25.8c-2-2.7-5.6-3.7-8.7-2.4c-3.7,1.5-5.5,5.8-4,9.5c0,0,0,0,0,0c1.5,3.7,5.8,5.5,9.5,4
			c0,0,0,0,0,0c3.3-1.4,5.1-4.9,4.3-8.4l42.3-25c-7.7,6.4-40,33.5-47.7,43.3C-105.6,649.4-120.4,637.8-117.9,627.3z M-25.2,675.5
			c-0.2,26.6-36.5,29.8-33.8-6c-10.3,5.3-39.7-9.7-18.4-46.1c7.1-12.1,42.2-40.7,49.9-47.9c1.1,1,2.2,1.8,3.5,2.5L-45,614
			c-2.1-1.9-5.1-2.4-7.7-1.3c-3.7,1.5-5.5,5.8-4,9.5c0,0,0,0,0,0c1.5,3.7,5.8,5.5,9.5,4c3.7-1.5,5.5-5.8,4-9.5c0,0,0,0,0,0l0,0
			l21.4-36.8l-8.3,53.9c-1.3-0.2-2.6-0.1-3.9,0.4c-3.7,1.5-5.5,5.8-4,9.5c0,0,0,0,0,0c1.5,3.7,5.8,5.5,9.5,4c0,0,0,0,0,0
			c3.7-1.5,5.5-5.8,4-9.5c0,0,0,0,0,0c-0.6-1.4-1.6-2.6-2.9-3.4l8.5-54.9c1.5,0.4,3,0.6,4.5,0.6l3,39.9h-0.1
			c-3.7,1.5-5.5,5.8-3.9,9.5c1.5,3.7,5.8,5.5,9.5,4c3.7-1.5,5.5-5.8,4-9.5c0,0,0,0,0,0c-1.1-2.7-3.7-4.4-6.6-4.5l-3-39.6
			c1.5-0.2,3-0.5,4.4-1c2.1,18.7,15.4,52.3,19.1,59.8C18.1,662,4.7,683.5-25.2,675.5z M92.8,649.5c-6.4,6.4-21.1,4.9-26.4-2.7
			c-3.9,9.9-28.1,24.6-46.6-8.2C8.5,618.5-2,587.8-3.4,578.2c0-0.1-0.1-0.3-0.2-0.5c0.1-0.1,0.2-0.1,0.3-0.2l26.9,35.4
			c-3,2.7-3.4,7.3-0.7,10.3c2.7,3,7.3,3.4,10.3,0.7c3-2.7,3.4-7.3,0.7-10.3c-1.9-2.2-5-3.1-7.8-2.1l-27-35.7
			c0.6-0.5,1.1-1.1,1.6-1.7l41.4,37.1c-2.3,3.3-1.5,7.8,1.8,10.2c3.3,2.3,7.8,1.5,10.2-1.8c2.3-3.3,1.5-7.8-1.8-10.2
			c-2-1.4-4.7-1.7-7-0.8c-0.3,0.2-0.7,0.3-1,0.6L2.5,571.8l0,0l44.4,22.2c0,0.9,0.2,1.8,0.5,2.7c1.5,3.8,5.8,5.6,9.5,4.1
			s5.6-5.8,4.1-9.5c-1.5-3.8-5.8-5.6-9.5-4.1c-1.8,0.7-3.2,2.1-4,3.9L3.9,569.2c0.2-0.3,0.4-0.7,0.5-1c22.2,4.8,45.5,9.4,68.4,9.3
			c23.2,8.8,24.4,34,18.9,43.2C104.2,630.6,97.3,645.1,92.8,649.5L92.8,649.5z"/>
		<path class="st1" d="M23.3,672.5c-5.1,8.2-13.7,30.4-27.2,29.9C3.3,715.5,26.2,703.4,23.3,672.5z"/>
		<path class="st1" d="M20.2,705.3C20.3,705.7,20.3,705.9,20.2,705.3z"/>
		<path class="st1" d="M24.8,701.2c0.8,15.1,11.4,25.2,16.5,23.8s9.9-16,2-28.9c-4.9-8.3-10.4-16.3-16.4-23.8
			C26.8,672.3,23.9,683.7,24.8,701.2z"/>
		<path class="st1" d="M-16,48.6c-0.8,4.7,2.1,8.4,6.4,9.6c-3.9,4.6-4.8,10.8,0.6,14.9c3.5,2.6,7.6,2.7,11.6,1.8
			c-5.7,11,6.2,20.8,16.7,15.9c-0.9,5.1,0.6,11.2,6.4,12.4c7.2,1.5,12.6-2.8,15.8-8.9c2.1-4.1,3.9-8.4,5.3-12.8
			c2.6-8,4.4-16.2,6.6-24.3c0.1-0.3,0.2-0.7,0.3-1c1-2.2,2.5-7.2,2.9-8.2c2.3-4.9,5.5-9.3,9.5-12.9c8.2-7.1,19.4-10.9,30.2-11.3
			c23.4-0.9,45.2,9.2,58.8,28.5c8.8,12.4,12.3,27.9,12.6,43.1c0.5,25.2-10.1,49.2-24.9,69.2c-13.3,17.7-29.3,33.1-47.5,45.8
			c-20.6,14.5-43.1,26.6-62.1,43.3C18.1,267,5.8,282.9-1.3,301.8C-8.9,322-7.9,342.5-1,362.7c2.7,0.1,0.6-4.8,0.3-6.2
			c-0.5-3.6-0.9-7.1-1.1-10.8c-0.5-9.8,0.7-19.5,3.7-28.9c13.8-43.6,56-64.1,92.4-86.3c40.2-24.6,78.3-62,88.1-109.8
			c8-39.2-6.4-81.8-43.8-100c-16.6-8-35.6-9.3-53.2-3.9c-9.1,2.8-18,8-24,15.6c-7.6-0.7-15.9-5.2-21.2-10C33.5,16.3,28,8.4,20.1,3.9
			C14.8,0.8,6.5-2.5,1.4,2.8c-3.7,3.9-3.7,9-0.9,13.3c-6.4,2.3-11.8,6.9-9.6,14.5c0.9,3.3,2.9,6.2,5.5,8.4c-2.9,0.4-6,0.6-8.3,2.5
			C-14.1,43.3-15.6,45.8-16,48.6z M52.3,53.5c0,0.3-0.1,0.5-0.1,0.8l-0.1,0.2c-1.5,4-3.4,7.9-5.6,11.5c-2.2,3.4-4.6,6.7-7.1,9.9
			c-1.8,2.3-3.8,5.6-6.4,7c-5.1,2.6-9.8-1.9-7.3-7c0.2-0.4,0.1-0.9-0.3-1.1c-0.3-0.1-0.6-0.1-0.8,0c-1.6,1-3.5,2.4-5.4,2.3
			s-4.6-2.1-5-3.9c-0.7-2.9,2.7-4.3,4.8-5.3c7.3-3.6,14.3-7.9,20.7-12.9c0.8-0.6,1.5-1.2,2.2-1.8c-2.2,2.1-4.3,4.2-6.4,6.4
			c-2.2,2.3-4.2,4.7-6,7.2c2.7-1.6,5.3-3.3,7.7-5.3c1.5-1.1,2.8-2.3,4.2-3.5c-2.2,3-4.4,6.1-6.5,9.2c-2.3,3.4-4.5,6.9-6.5,10.6
			c3-2.8,5.9-5.8,8.5-9c2.3-2.7,4.6-5.6,6.7-8.4c-0.9,1.5-1.7,2.9-2.5,4.4c-1.9,3.4-3.6,6.9-5.2,10.5c2.6-2.9,5.1-6,7.3-9.2
			c2.3-3.2,4.4-6.4,6.5-9.7c1-1.6,1.9-3.2,2.9-4.9C52.5,52.3,52.4,52.9,52.3,53.5L52.3,53.5z M2.7,29.2c1.8-4.7,5.9-6.9,10.9-6.5
			c0.8,0.1,0.9-0.9,0.5-1.4c-3.2-4-1.4-10.3,4.2-10.7c2.8-0.2,5.8-0.2,8.3,1c2.7,1.4,4.6,4,6.6,6.1c2.4,2.5,5,4.9,7.7,7.1
			c4,3.4,8.6,6,13.6,7.8c-0.8-0.2-1.6-0.4-2.3-0.7c-2.8-1-5.6-2.2-8.3-3.4l-8.4-3.5c-2.8-1.1-5.7-2.2-8.7-3.1
			c2.3,2.1,4.8,3.9,7.5,5.5c2.1,1.2,4.2,2.4,6.4,3.4l-0.7-0.1l-10.3-2.4c-3.5-0.8-6.9-1.5-10.5-2c3.1,1.8,6.4,3.3,9.8,4.5
			c3.3,1.2,6.6,2.2,10,3.1l-9.6-1.1c-3.6-0.4-7.2-0.8-10.9-0.9c3.4,1.4,6.8,2.6,10.4,3.4c3.5,0.9,7.1,1.6,10.8,2
			c3.6,0.4,7.3,0.6,11,0.3h0.4c-3.4,1-7,1.9-10.5,2.4c-7.6,1.2-15.2,0.9-22.8,1.5c-2.3,0.2-6.4,1.1-8.6,0.2c-2.3-1.2-4.2-2.9-5.7-5
			C2,34.5,1.7,31.7,2.7,29.2z M4.8,44.2c2.2-1.6,4.5-0.9,7.1-0.9c2.9,0,5.9-0.3,8.8-0.5c5.3-0.3,10.6-0.1,15.9-0.7
			c2.5-0.3,5-0.7,7.5-1.2c-1.7,0.5-3.3,0.9-5,1.3l-10.1,2.6c-3.4,0.9-6.8,1.8-10.1,3c3.5,0.2,7.1,0,10.6-0.5c2-0.2,4-0.6,6-1
			c-0.4,0.2-0.8,0.3-1.2,0.5c-3.8,1.7-7.6,3.3-11.3,5s-7.5,3.5-11.1,5.6c4.1-0.8,8.1-1.9,12.1-3.2c4-1.3,7.8-2.8,11.7-4.4
			c0.7-0.3,1.4-0.6,2-0.9c-1.9,1.2-3.9,2.4-5.8,3.7c-2.9,2-5.8,4-8.6,6.2c3.4-1.1,6.7-2.4,9.9-4c3.2-1.5,6.3-3.2,9.4-5
			c2-1.3,4.1-2.5,6-3.9c-8.2,7.3-17.2,13.6-26.8,18.9c-3.2,1.7-5.7,3.3-9.4,3c-2.6-0.2-6-1.2-7.3-3.8C3,60.3,5.1,57.5,8,55.3
			c0.4-0.2,0.5-0.7,0.3-1.1C8.1,54,8,53.9,7.8,53.8c-1.8-0.4-4.6-1-5.5-2.9C1.1,48.4,2.6,45.7,4.8,44.2L4.8,44.2z"/>
		<path class="st1" d="M-8.3,717.7c5.1-0.3,3.3-6.9,0.2-8.5c-3.4-1.8-7.7,0.2-9.9,3c-4.9,6.2-0.3,15.3,5.6,18.9
			c16.6,10,35.4-10.8,32.4-27c-2.7-0.5-1.8,4.9-2.3,6.9c-0.8,3.5-2.4,6.7-4.6,9.5c-4.3,5.4-12,9.9-19.2,8.8
			c-5.9-0.9-12.7-7.9-9.9-14.2c1.3-2.8,6.8-6,8.6-1.8C-6.2,715.5-9.2,715.6-8.3,717.7z"/>
		<path class="st1" d="M164.5,599c1.2-5.1-9.2-16.4-24.3-15.8c-9.7,0.3-19.3,1.2-28.8,2.8c0,0,8.6,8.1,24.3,15.8
			C149.2,608.5,163.3,604.1,164.5,599z"/>
		<path class="st1" d="M89.2,437.7c10.8,8.2,3.3,30.7,2,40.3C113,455.9,103.1,432,89.2,437.7z"/>
		<path class="st1" d="M95.2,370.3c-1.4,0.8-3-0.8-3.4,1.3c0,1,3.6,0.4,4.2,0.2c4.3-2,3.2-8.2-0.1-10.5c-1.9-1.2-4.1-1.8-6.4-1.5
			c-11.3,1.3-11.6,16.6-4.8,23c8.2,7.7,22.2,6.2,29.7-1.6c3.2-3.4,5.5-7.6,6.6-12.1c1.6,5.1,6,8.9,10.6,11.5
			c5.4,3,12.3,3.7,18.3,2.8c5.3-0.8,9-4.3,12-8.5c0.2-0.4,0.1-0.9-0.3-1.1c-0.1-0.1-0.3-0.1-0.4-0.1c-7,1-13.7,1.1-20.1-2.3
			c-4.9-2.6-8.7-7.1-11.8-11.5c-1.7-2.4-6.5-9.4-10.8-15.2c-5.4-10.2-16.2-17-28.1-19.3c-21.7-4.3-42,6.7-52.5,25.5
			c1.6,1.9,2.7-1.3,3.6-2.5c1.8-2.4,3.9-4.7,6.2-6.8c4.6-4.8,11.4-8.2,17.6-10.2c12.5-4,26.1-2.6,37.6,3.7
			c9.4,5,15.2,16.1,14.8,26.9c-0.4,9-5.1,18.2-14.1,21.1c-6.1,2-14.6,0.6-18.4-5c-3-4.4-2.8-12.3,2.5-15c2.3-1.1,5.6-1.1,7.4,0.5
			C97.1,364.9,97.6,368.9,95.2,370.3z"/>
		<path class="st1" d="M143.7,648.8c16.8-9.6,7.8-36.2-7.9-41.4c-1.7,2.1,3.4,4,4.9,5.4c2.6,2.4,4.7,5.4,6.1,8.7
			c2.7,6.4,2.8,15.3-1.7,21c-3.6,4.7-13.1,7.3-17.2,1.7c-1.8-2.5-2-8.9,2.6-8.5c2.6,0.2,1.1,2.8,3.4,3c2.3-4.6-4.4-6.3-7.4-4.3
			c-3.2,2.1-3.6,6.8-2.2,10.1C127.5,651.8,137.7,652.2,143.7,648.8z"/>
		<path class="st1" d="M20.5,397.6c0-0.2,0.1-0.5,0.1-0.6C20.6,397.1,20.5,397.3,20.5,397.6z"/>
		<path class="st1" d="M137.2,607.8l0.2,0.1L137.2,607.8z"/>
		<path class="st1" d="M109.8,589.1c4.7,8.5,19.9,26.7,12.9,38.3C137.8,627.5,138.2,601.6,109.8,589.1z"/>
		<path class="st1" d="M136.8,607.7l0.4,0.1L136.8,607.7z"/>
		<path class="st1" d="M176,761c-4.9,2.3-10.1,3.8-15.4,4.5c-1.3,0.2-12,0.1-12,0.4c-0.6,4.5,22.2,1.1,25.3-0.2
			c17.3-6.1,30.8-21.2,33.1-39.7c2.2-18-11.8-37-30.6-37.4c-8.9-0.2-17.1,4.9-20.9,13c-3.4,7.5-1.9,17.2,6.1,21.2
			c6.2,3.1,14.7,0.8,15.8-6.8c0.3-2.2-0.5-4.4-2.2-5.9c-1.4-1.3-3.4-1.8-5.3-1.4c-0.5,0.2-4,2.8-3.1,3.5c1.6,0.8,1.4-0.4,2.3-1.3
			c1.6-1.5,4.2-0.3,5.2,1.3c1.5,2.2,0.7,5.1-1,6.9c-3.8,4.3-10.4,2.1-13.6-1.8c-3.4-4.2-3-9.5-0.7-14.2c3.8-7.6,12.3-11.5,20.5-9.7
			c11.1,2.7,19,10.7,22.1,21.5c0.1,0.1,0.1,0.3,0.1,0.4c0.1,0.4,0.1,0.5,0.1,0.4C204.8,734.3,192.7,752.9,176,761z"/>
		<path class="st1" d="M203.8,400.4c0.3,0.1,0.6,0.1,0.8,0.1l-0.4-0.1L203.8,400.4z"/>
		<path class="st1" d="M235.9,466.6c4.1,1.9,7.9-20.8,7.7-24.1c-0.5-18.4-10.6-35.8-27.5-43.8c-16.4-7.7-38.9-0.3-45.1,17.6
			c-3,8.4-0.6,17.8,5.9,23.9c6.1,5.6,15.8,7.1,22,0.8c4.9-4.9,5.3-13.7-1.6-17.1c-2-0.9-4.3-0.8-6.3,0.3c-1.7,0.9-2.8,2.7-3,4.6
			c0,0.6,1.4,4.7,2.4,4c1.3-1.3,0-1.5-0.5-2.6c-1-2,1.1-4.1,2.8-4.6c2.5-0.8,5.1,0.9,6.2,3.1c2.9,5-1.2,10.6-5.9,12.3
			c-5,1.9-10-0.1-13.7-3.7c-6-6-7.2-15.2-2.9-22.5c6-9.7,16-14.8,27.3-14.4c0.1,0,0.3,0,0.4,0c0.4,0,0.4,0.1,0.4,0.1
			c18.7,2.9,32.6,20.2,35.1,38.5c0.7,5.3,0.5,10.8-0.5,16C238.9,456.4,235.6,466.5,235.9,466.6z"/>
		<path class="st1" d="M51.6,396.2c-4.8-1.6-5.7,5.1-3.4,7.8c2.5,2.9,7.2,2.7,10.3,0.9c6.8-3.9,6-14.1,1.8-19.6
			c-11.6-15.5-36.8-3.2-40.1,12.9c2.3,1.5,3.5-3.9,4.7-5.5c2.1-2.9,4.7-5.3,7.8-7.1c6-3.4,14.9-4.7,21.1-1c5.1,3,8.8,12.1,3.8,16.8
			c-2.3,2.1-8.6,3-8.7-1.5C48.9,397.5,51.7,398.6,51.6,396.2z"/>
		<path class="st1" d="M20.6,396.8"/>
		<path class="st1" d="M20.6,397v-0.2C20.6,396.9,20.6,396.9,20.6,397z"/>
		<path class="st1" d="M5.4,426.4c7.8-5.7,24-23.1,36.4-17.5C40.1,393.9,14.3,396.6,5.4,426.4z"/>
		<path class="st1" d="M183.2,188.4l0.1-0.2c0.6-2.3-0.9-4.6-3.2-5.2s-4.6,0.9-5.2,3.2c-0.3,1.1-0.1,2.3,0.5,3.3
			c0.8,1.3,2.3,2.1,3.9,2h0.1c0.7,0,1.4-0.2,2-0.6l0,0l-0.2,0.1C182.3,190.4,183,189.5,183.2,188.4z"/>
		<path class="st1" d="M24.6,306.2c-8.7,12.5-16.2,27.6-15.7,43.2c2.4,0.6,1.5-4,1.6-5.6c0.3-2.8,0.8-5.6,1.5-8.3
			c1.6-6.1,4-11.9,7-17.4c19.7-36.8,58.6-64.1,96.7-79.1c20.5-8,42.7-12.8,64.8-11.5c9.8,0.5,19.5,2.4,28.9,5.5
			c4.7,1.6,9.2,3.5,13.6,5.8c0.6,0.3,1.1,0.6,1.6,0.9c-0.8,0.2-1.7,0.4-2.5,0.6c-7.6,2.5-11.1,8.6-8.5,16.1c3.1,8.8,13.5,8,20.9,8.7
			c13,1.3,20,13.2,21.6,25c0.1,0.4,0.4,0.7,0.8,0.6c0.3,0,0.5-0.3,0.6-0.5c2.3-10.4,2.9-23.3-3.1-32.3c-3.6-5.4-13.8-19.5-27.5-18.5
			c-10.1-5.8-21.1-9.8-32.6-11.8c-44.4-7.9-90.8,10.3-126.5,35.9C51.3,275.3,36.1,289.5,24.6,306.2z"/>
		<path class="st1" d="M196.9,222.1c6.1,0.1,5.9-9.2-0.1-9.4S190.9,221.9,196.9,222.1z"/>
		<path class="st1" d="M196.4,199.9c-5.8-0.1-5.7,8.9,0.1,9S202.2,200.1,196.4,199.9z"/>
		<path class="st1" d="M191.1,189c-2.5,0-4.5,2.1-4.4,4.6c0,2.5,2.1,4.5,4.6,4.4s4.5-2.1,4.4-4.6c0,0,0,0,0,0
			C195.6,190.9,193.6,189,191.1,189z"/>
		<path class="st1" d="M437.7,559.3c6.3-6.6,8.8-15.9,2.9-23.6c-2.4-3.2-6-5.3-9.9-5.9c-4-0.5-6.9,3.2-9,6c-0.4,0.5,0.2,1.3,0.8,0.8
			c3.4-2.8,7.3-3.4,10.4,0.5c3.8,4.8-1.3,9.6-5.9,10.5c-5.1,1-11-1.6-15.6-3.7c-7-3.1-14.1-6-21.8-4.2c-5.6,1.3-10.6,5.9-10.7,11.9
			c-0.1,2.1,0.6,4.1,1.8,5.8c-14.1-8.1-27.3-17.7-40.2-27.8l-0.4-0.3c1.9,1.2,4,2.3,6.1,3.2c10.2,4,24.4,3.3,33.1-3.9
			c7.1-5.8,9.9-17.7,3.8-25.1c-2.9-3.5-7.6-6-12.2-5.2c-3.7,0.6-4.2,5.3-4.6,8.1c-0.1,0.7,1,1.2,1.3,0.4c0.2-0.8,0.6-1.5,0.9-2.2
			c1.9-4,7.3-3,8.9,0.7c2,4.4-3.4,7.5-6.5,8.6c-5.7,1.9-11.7-1.6-15.8-5.1c-5.7-5-9.6-12.7-17.4-14.9c-7.3-2-16.4-0.4-21.9,5.2
			c-1.7,1.7-4.7,5.1-4.2,7.9c0.1,0.5,0.2,1,0.5,1.5c-8.3-5.8-17.1-10.8-26.3-15.1c-6.7-3-13.6-5.5-20.7-7.4c6.6,1,13.2,1.9,19.8,2.5
			c10.9,0.9,19.4-2.3,25.6-11.5c5-7.4,4.1-16.1-2.9-21.7c-3-2.4-6.8-3.7-10.7-3.6c-4.3,0.1-6.7,4-8.5,7.4c-0.3,0.6,0.5,1.1,1,0.6
			c0.9-1.1,1.9-2,3-2.9c3.7-2.7,7,0.9,8.8,3.2c3.7,4.9-0.4,9.7-5.5,10.4c-4.8,0.7-10.1-1.6-14.3-3.8c-8.1-4.2-16.3-7.5-25.5-5.8
			c-5.9,1.1-12.7,3.5-14.5,9.8c-1.5,5.3,1.8,9.1,6.1,11.3c-0.3,0-0.5,0.2-0.6,0.4c-10.6-1.4-21.3-1.4-31.9,0l0.4-0.1
			c7.9-3.1,13.4-10.6,16.5-18.2c2.5-6.1,1.1-13.3-4.6-16.9c-2.9-1.9-5.9-2.9-9.3-2c-3.1,0.8-4.5,4.9-5.5,7.4c-0.1,0.3,0,0.7,0.3,0.8
			c0.2,0.1,0.5,0,0.7-0.2c2.8-2.9,7.2-5,9.2,0.1c1.3,3.4-1.7,6.7-4,8.7c-5.6,4.8-13.8,4.1-20.6,3.3c-8.9-1.1-18.7-1.4-25.8,5.2
			c-5,4.7-7.5,10.9-4,17.3c1.5,2.8,4.1,4.9,7.2,5.7c3.3,0.7,5.7-0.1,8.5-1c0.1,0.1,0.1,0.2,0.2,0.2c-5.1,3-9.9,6.5-14.2,10.6
			c1.1,2.1,2.7-0.6,3.9-1.6c1.9-1.7,4-3.2,6.1-4.7c3.8-2.6,7.9-4.8,12.1-6.7c8.8-3.8,18.2-6.1,27.7-7c18.3-1.7,36.7,0.6,54,6.8
			c39.8,14,68,46.8,104,67.5c31.3,18,75.4,34.9,110.4,17.9c15.9-7.7,27.3-21.9,29.9-39.1c2.8-1.4,4.6-4.3,4.6-7.5
			c0.7-33.7-25.1-41.8-35.8-42.4c-13.7-0.8-29.5,10.6-19.2,23c0.5,0.7,2.1-0.1,1.6-0.7c-2.8-4.3-0.4-8.8,5.1-12
			c9.4-5.5,32.7,5.9,26,25.4c-4.3,12.5,8.2,17.7,16.1,14.8c-2,11.5-8.1,21.9-17.1,29.4c-2.6,2.1-5.3,4-8.2,5.7
			c5.5-4.2,9.6-9.9,10.7-17.6c0.8-5.9-1.8-12.7-8-14.5c-5.8-1.8-10.2-0.1-11,6.3c-0.1,0.3,0.1,0.6,0.5,0.7c0.3,0.1,0.6-0.1,0.7-0.5
			c1.5-4.8,5.1-2.5,6.4,0.3c1.4,2.9-0.8,5.6-2.9,7.4c-3.3,2.9-8.1,3.4-12.2,3.7c-5.8,0.5-14,0-18.4,4.6c-3.2,3.4-4.6,8-2,12.2
			c2.4,3.9,8.1,5.2,12.8,5.3c-19.6,2.7-40.8-2.3-59.5-9.5c1.2,0.2,2.4,0.4,3.6,0.4C421.8,571.2,431.2,566.2,437.7,559.3z"/>
		<path class="st1" d="M201.6,714.8c0,0.3,0.1,0.5,0.2,0.8c0-0.1,0-0.3-0.1-0.4S201.7,715,201.6,714.8z"/>
		<path class="st1" d="M205.1,193.4c48.3,6.9,72.8-31.4,76.8-36.4c4-5,3.3-12.3-1.7-16.4s-12.3-3.3-16.4,1.7c0,0.1-0.1,0.1-0.1,0.2
			C259.7,147.5,245.9,187.8,205.1,193.4z"/>
		<path class="st1" d="M177.4,273.5c-27.7-11.9-59-10.9-87.4,1.4c-17.5,7.7-33.3,18.9-46.2,32.9c-10.5,11.4-20.3,25.9-21.7,41.7
			c1.9,0.8,1.5-1.1,1.7-2.5c0.3-1.8,0.7-3.6,1.1-5.3c1.1-3.7,2.5-7.4,4.3-10.9c4.1-7.9,9.2-15.3,15.3-21.8
			c13.1-14.3,29-25.6,46.8-33.2c14.9-6.5,31-9.8,47.3-9.7c10.1,0.2,20.2,1.9,29.8,5.2c1.9,0.7,3.9,1.4,5.8,2.2
			c-1.3,0.2-2.6,0.5-3.9,1c-7.4,3-9.9,10.1-6.2,17.1c4.3,8.3,14.5,6.1,21.9,5.8c13.1-0.5,21.6,10.4,24.8,21.8
			c0.1,0.4,0.5,0.6,0.9,0.5c0.3-0.1,0.5-0.3,0.6-0.7c0.9-10.6-1.4-22-8.6-30.1C199.7,284.6,188.2,274.3,177.4,273.5z"/>
		<path class="st1" d="M-4.2,396.9c1.5,9.6,3.6,19,6.3,28.3c0,0,7-9.5,12.7-26c4.9-14.3-1.1-27.6-6.4-28.3S-6.7,382-4.2,396.9z"/>
		<path class="st1" d="M167.8,360.3c1.5-10.5-0.1-22-6.8-30.6c-4-5.1-15.5-16.7-28.1-16.8c-17.2-7.1-38.5-4.3-55.5,1.3
			c-18.2,5.9-41.1,18-46.9,37.9c0.4,0.2,0.9,0.3,1.4,0.4c5.9-20.2,29.8-32.1,48.3-37.6c10.8-3.4,22.1-4.9,33.4-4.4
			c5.3,0.2,10.6,1.2,15.7,2.8c-0.2,0-0.4,0.1-0.6,0.1c-7.8,1.6-10.4,9.5-7.2,16.7c3.8,8.5,14.1,6.9,21.5,7.1
			c13.1,0.3,21,11.7,23.5,23.3c0.1,0.4,0.5,0.6,0.8,0.6C167.5,360.8,167.7,360.6,167.8,360.3z"/>
		<path class="st1" d="M91.2,429.7c3.3,0.1,7.4-3.8,4.2-6.8c-2.2,1.2,0.4,4.1-3.4,4.4c-3.6,0.2-5-4.5-4.3-7.3
			c1.6-6.2,10.4-7.6,15.5-5.3c13.3,6.1,12.7,26,4.2,35.5c2,3.4,6.9-6,7.7-7.7c1.7-3.9,2.3-8.2,1.9-12.4c-0.8-8.4-6.3-17.9-15.1-19.9
			c-7.1-1.6-17.3,2.5-17.5,10.8C84.3,424.9,86.9,429.6,91.2,429.7z"/>
		<path class="st1" d="M138.4,448.7c-3.1-4.3-18.4-3.8-27.8,8c-6.1,7.5-11.7,15.4-16.8,23.6c0,0,11.7-1.2,27.9-8
			C135.5,466.5,141.4,453,138.4,448.7z"/>
		<path class="st1" d="M140.6,554.6c0.9,13.5-21.1,22.6-29.2,28C142.4,584.6,154,561.4,140.6,554.6z"/>
		<path class="st1" d="M132.4,498.8c10-11.2-9.3-28.5-37.4-15.3C104.5,485.5,128.3,486,132.4,498.8z"/>
		<path class="st1" d="M126,475.8l0.6-0.4L126,475.8z"/>
		<path class="st1" d="M310.7,194.5c-2.8-5.8-9.8-8.2-15.5-5.4c0,0,0,0,0,0c-5.8,2.8-36.4,33.2-74.8,20.6c39.4,21.9,79.2,3.2,85,0.4
			C311.1,207.2,313.5,200.3,310.7,194.5z"/>
		<path class="st1" d="M143.1,576.6c-1.3,3.7,9,1.3,10.9,0.7c4.1-1.3,7.7-3.6,10.6-6.7c5.8-6.2,9.4-16.5,5.1-24.4
			c-3.4-6.4-13.2-11.5-19.7-6.1c-3,2.5-4.9,7.6-2.1,10.9c2.1,2.5,7.8,3.1,7.9-1.3c-2.3-0.9-2.9,3-5.5,0.3s0.1-6.7,2.7-8
			c5.7-2.8,12.6,2.9,14.1,8.2C171.3,564.1,155.8,576.7,143.1,576.6z"/>
		<path class="st1" d="M148.4,497.8c-2-4.7-7.6-0.8-8.1,2.7c-0.5,3.8,2.8,7.2,6.2,8.3c7.5,2.5,14.5-5,15.9-11.7
			c3.8-19-22.2-29.6-36.4-21.2c0.4,2.7,5.3,0,7.3-0.2c3.5-0.4,7.1,0,10.5,1.1c6.6,2.2,13.4,8,14.8,15c1.2,5.8-3.1,14.7-10,14.1
			c-3.1-0.3-8-4.4-4.7-7.5C145.6,496.6,146.7,499.3,148.4,497.8z"/>
		<path class="st1" d="M127.1,475.1"/>
		<path class="st1" d="M277.1,428.6c-1.1,9.2,3.5,19.2,13.3,20.8c8,1.3,17.3-5.3,13.7-14.1c-0.9-2.1-2.7-3.7-5-4.2
			c-2.2-0.5-4.4,0.2-5.8,2c-0.3,0.5-1.5,4.1-0.5,4.2c1.8,0,1-1.1,1.4-2.3c0.7-2.2,3.8-2.2,5.5-1.2c2.1,1.3,2.7,4.1,2.1,6.4
			c-1.2,5.2-7.1,6.4-11.6,5.2c-4.6-1.5-7.3-5.3-8.1-9.9c-3.8-21.8,23.9-26.3,37.6-16.8c15.7,10.8,16.6,34,9.3,49.9
			c-4.5,9.9-12,17.2-21.1,22.8c-0.8,0.4-4.4,1.6-4.6,2.3c-0.7,2.1,2.4,0.8,2.8,0.6c5-1.7,9.8-4.1,14-7.3
			c8.9-6.6,15.2-16.8,17.9-27.5c1.4-5.7,1.8-11.5,1.1-17.3c-0.5-3.8-2-7.5-2.5-11.2c-0.3-2.2-2.2-5-3.2-6.8
			c-3.1-4.9-7.3-9-12.3-11.9c-8.9-5.2-19.2-5.5-28.9-2.6C284.2,413,278.2,419.8,277.1,428.6z"/>
		<path class="st1" d="M401.1,520.9c-3.5,4.1-7.6,7.8-12.1,10.7c-1.9,1.3-3.9,2.4-6,3.4c-0.5,0.2-0.9,0.4-1.3,0.7
			c-0.1,0.3,0.5,1.3,0.8,1.3c14.4-5.4,25.9-15,32.4-29.2c6.1-13.4,6.9-29.7,1.2-43.4c-5.9-13.2-17.4-22.7-32.1-24.1
			c-13.4-1.3-28,4.7-32.5,18.3c-2.4,7.3-1.6,16.6,3.8,22.5c5.1,5.6,14.3,7.6,20.9,3.2c4.3-2.9,6.4-9,4-13.8
			c-3-6.2-15.4-5.1-12.3,2.7c1.9-0.1,0.9-1.3,1.3-2.6c0.7-2.7,3.9-2.5,5.9-1.9c2.7,1.1,3.7,4.7,3,7.3c-2,10.7-18.4,7.7-21.5-0.7
			c-4.1-9.8,0.1-22.2,10-26.6c7.1-3.4,15.5-3.5,22.9-1.3c18.1,5.5,25.4,24.6,24.3,42.1C413,501.1,408.6,512.1,401.1,520.9z"/>
		<path class="st1" d="M135.9,607.4l0.4,0.2L135.9,607.4z"/>
		<path class="st1" d="M166.8,181c-5.5-0.1-5.4,8.4,0.1,8.6S172.3,181.1,166.8,181z"/>
		<path class="st1" d="M-13.2,315.5c-0.5-8.5-5.9-16-12.2-21.3c-5-4.3-12.3-5.2-17.5-0.8c-2.7,2.2-4.5,4.7-4.8,8.2
			c-0.2,3.1,3.3,5.8,5.3,7.5c0.2,0.3,0.6,0.3,0.9,0.1s0.3-0.6,0.1-0.9c-1.9-3.5-2.6-8.4,3-8.7c3.6-0.2,5.9,3.7,7,6.5
			c2.8,6.8-0.4,14.4-3.2,20.6c-3.8,8.1-7.1,17.4-3.1,26.1c2.9,6.2,8,10.5,15.2,9.2c3.1-0.6,5.9-2.4,7.7-5.1c1.7-2.9,1.6-5.5,1.7-8.4
			c0.1,0,0.2-0.1,0.3-0.1c1.2,5.8,3.1,11.4,5.7,16.8c2.4-0.4,0.3-2.8-0.3-4.2c-1-2.4-1.8-4.8-2.6-7.3c-1.3-4.4-2.2-9-2.6-13.6
			c-0.8-9.6-0.2-19.2,1.9-28.5c4-17.9,11.9-34.7,23.1-49.3c25.6-33.5,65.5-50.3,96.3-78c26.8-24.2,56.5-60.9,51.2-99.5
			c-2.4-17.5-12.4-32.7-27.9-40.5c-0.5-3.1-2.7-5.7-5.7-6.7C94.5,26.6,78.9,48.6,75,58.6C70,71.4,76,90,91,83.9
			c0.8-0.3,0.6-2-0.2-1.8c-5,1.3-8.5-2.4-9.9-8.5c-2.4-10.7,15.7-29.3,32.2-16.9c10.6,8,19.3-2.3,19-10.8
			c10.3,5.5,18.4,14.5,22.7,25.3c1.2,3.1,2.2,6.3,2.9,9.5c-2.1-6.8-7-12.4-13.4-15.6c-5.3-2.6-12.6-2.2-16.3,3.1
			c-3.5,5-3.3,9.7,2.5,12.4c0.3,0.1,0.6-0.1,0.7-0.4c0.1-0.2,0-0.5-0.2-0.6c-4.1-2.9-0.8-5.6,2.2-6c3.2-0.5,5.1,2.5,6.2,5
			c1.7,4,0.7,8.7-0.3,12.8c-1.3,5.6-4.3,13.3-1.3,18.9c2.2,4.1,6.2,6.8,11,5.7c4.5-1.1,7.4-6.1,9-10.5c-3.5,19.5-14.8,38-27.4,53.6
			c0.6-1.1,1-2.2,1.4-3.4c3.2-9.2,1.4-19.7-3.2-28.1c-4.3-8-12.4-13.3-21.5-10.1c-3.8,1.3-6.9,4.1-8.7,7.6
			c-1.8,3.6,0.9,7.5,2.9,10.4c0.4,0.5,1.3,0.2,1-0.5c-1.6-4.1-1-8,3.7-9.7c5.7-2.1,8.7,4.3,8.2,8.9c-0.7,5.2-5,10-8.3,13.7
			c-5.1,5.7-10,11.6-10.8,19.5c-0.5,5.7,2.3,11.9,8,13.8c2,0.7,4.1,0.7,6.1,0.1c-12,10.9-25.2,20.5-38.8,29.7l-0.4,0.3
			c1.8-1.4,3.4-3.1,4.9-4.8c7-8.5,10.7-22.2,6.5-32.7c-3.4-8.6-13.8-14.9-22.7-11.4c-4.2,1.7-8,5.4-8.7,10c-0.5,3.7,3.7,5.6,6.3,6.9
			c0.7,0.3,1.4-0.6,0.8-1.1c-0.7-0.5-1.3-1-1.8-1.6c-3.3-3.1-0.7-7.9,3.4-8.3c4.8-0.5,6.1,5.5,6.1,8.8c0,6-5.1,10.6-9.8,13.4
			c-6.5,3.9-15.1,5.2-19.5,12c-4.2,6.4-5.4,15.5-1.9,22.4c1.1,2.2,3.4,6,6.2,6.4c0.5,0.1,1,0.1,1.5,0c-8,6.1-15.6,12.9-22.4,20.3
			c-4.9,5.4-9.4,11.2-13.4,17.4c3-5.9,5.9-11.9,8.5-18.1c4.2-10,3.8-19.2-3-27.9c-5.5-7-14-8.9-21.5-3.9c-3.3,2.1-5.7,5.3-6.8,9
			c-1.2,4.1,1.8,7.6,4.4,10.4c0.5,0.5,1.2-0.2,0.9-0.7c-0.8-1.2-1.4-2.4-1.8-3.8c-1.5-4.3,3-6.4,5.8-7.4c5.8-2,9.1,3.4,8.2,8.4
			c-0.9,4.8-4.7,9.1-8,12.4c-6.6,6.4-12.2,13.2-13.4,22.5c-0.8,6-0.6,13.1,4.8,16.8c4.6,3.1,9.2,1.1,12.6-2.3
			c-0.1,0.2,0,0.5,0.2,0.7c-4.6,9.6-8,19.8-9.8,30.3C-13.2,315.8-13.2,315.6-13.2,315.5z"/>
		<path class="st1" d="M55.1,128.9c10.7,4.3,19.8,12,25.9,21.9c2.9,4.6,5,9.6,6.4,14.9c0.6,2.2,1,4.5,1.4,6.8c0,0.5,0.1,1,0.3,1.5
			c0.2,0.1,1.4-0.1,1.4-0.3c-0.6-15.4-6.3-29.3-17.7-39.8C62,123.7,46.7,118,32,119.1c-14.5,1.6-27,9.5-32.9,23.1
			c-5.4,12.4-4.2,28,7.4,36.5c6.2,4.6,15.4,6.6,22.6,3.4c6.9-3.1,11.6-11.3,9.5-18.9c-1.4-5-6.6-8.8-11.9-8.1
			c-6.8,0.9-9.6,13-1.2,12.5c0.5-1.9-0.9-1.3-2.1-2.1c-2.3-1.5-1.1-4.5,0.1-6.2c1.9-2.3,5.6-2,7.9-0.6c9.6,5.2,1.6,19.9-7.3,20.3
			c-10.6,0.9-21-7-22.3-17.8c-1-7.8,1.4-15.9,5.8-22.2C18.4,123.5,38.8,122.5,55.1,128.9z"/>
		<path class="st1" d="M122.1,225.1c0,0,20.8-2.8,31.9-4.7s35.4-3.2,35.4-3.2c0.8-22.8-22.7-23.9-22.7-23.9
			C161.1,206.9,130.5,219.7,122.1,225.1z"/>
	</g>
</g>
</svg>
