<svg id="Layer_1" data-name="Layer 1" xmlns="http://www.w3.org/2000/svg" xmlns:xlink="http://www.w3.org/1999/xlink" viewBox="0 0 550 1080"><defs><style>.cls-1{fill:none;}.cls-2{clip-path:url(#clip-path);}.cls-3{fill:#d7871a;}</style><clipPath id="clip-path"><rect class="cls-1" x="3.57" width="546.43" height="1080"/></clipPath></defs><title>accent</title><g class="cls-2"><path class="cls-3" d="M409.11,670.67Z"/><path class="cls-3" d="M436.54,653.72c-9.66.93-32.41,7.68-40.26-3.32C390.16,664.11,413.76,674.81,436.54,653.72Z"/><path class="cls-3" d="M69.46,648.57a11.63,11.63,0,1,0-4.07,22.9c6.33,1.13,48.94-5.46,72.63,27.35C119,657.92,75.78,649.69,69.46,648.57Z"/><path class="cls-3" d="M409.42,670.33c-1.23-2.41-5,1.56-6.87,2.38a24.46,24.46,0,0,1-10.35,2.12c-6.93-.1-15.17-3.51-18.65-9.87-2.89-5.17-1.49-14.91,5.24-16.45,3-.7,9,1.75,6.71,5.75-1.15,2.29-3,0-4.11,2,3.31,3.87,7.5-1.54,6.88-5.05-.66-3.78-4.87-6-8.43-6-7.88-.08-12.32,9.1-11.56,16C370.4,680.36,398.41,682.6,409.42,670.33Z"/><path class="cls-3" d="M357.39,540.31l-.29,0Z"/><path class="cls-3" d="M357,540.28l-.75-.06Z"/><path class="cls-3" d="M347.33,489.88a70.28,70.28,0,0,1-7.68.2,74.64,74.64,0,0,1-13.73-1.73,92.08,92.08,0,0,1-26.55-10.65,126.38,126.38,0,0,1-39.72-37.23c-23.95-34.73-27.56-77.86-44.43-115.72-14.69-33-40.46-72.56-78.78-79.4-17.42-3.12-35,1.68-47.16,14a8.32,8.32,0,0,0-8.08,3.34c-20.38,26.84-4.24,48.55,4,55.31,10.62,8.7,30.16,8.74,29-7.35-.06-.85-1.7-1.17-1.74-.38-.26,5.16-4.88,7.36-11.16,6.75-10.89-1.06-23-24-6.12-35.88,10.84-7.6,3.75-19.12-4.38-21.45A49.47,49.47,0,0,1,121.93,246a60,60,0,0,1,10,.22,25.88,25.88,0,0,0-19,8c-4.1,4.3-6,11.32-2.11,16.44,3.66,4.82,8.21,6.08,12.61,1.43a.59.59,0,0,0-.82-.86c-4,3-5.55-1-5-4,.56-3.2,4-4.06,6.7-4.3,4.36-.39,8.52,2,12.08,4.19,4.93,3,11.34,8.22,17.61,7.06,4.63-.85,8.4-3.78,8.79-8.67.36-4.57-3.47-8.95-7.17-11.82,17.43,9.32,31.63,25.79,42.5,42.64a30.43,30.43,0,0,0-2.76-2.4c-7.75-5.92-18.32-7.38-27.7-5.66-9,1.65-16.51,7.7-16.22,17.33A15.59,15.59,0,0,0,156,316.17c2.92,2.79,7.47,1.42,10.8.43.59-.18.56-1.18-.13-1.14-4.37.24-7.91-1.56-8.1-6.48-.22-6.12,6.75-7,11-5,4.75,2.22,8,7.79,10.5,12.13,3.84,6.61,7.9,13.11,15.19,16.24,5.25,2.25,12.05,1.51,15.63-3.3a9.36,9.36,0,0,0,1.93-5.75c6.69,14.85,11.69,30.34,16.23,46.1l.12.43a34.65,34.65,0,0,0-3.08-6.15c-5.91-9.26-17.81-17-29-16.31-9.2.56-18.4,8.52-17.81,18.08.28,4.53,2.65,9.32,6.79,11.38,3.33,1.65,6.52-1.75,8.5-3.89.5-.53-.11-1.52-.78-1.08a13.15,13.15,0,0,1-2.06,1.25c-3.94,2.15-7.67-1.81-6.83-5.8,1-4.74,7.14-4.14,10.3-3.12,5.68,1.84,8.53,8.14,9.75,13.46,1.68,7.38.3,15.93,5.36,22.28,4.75,5.94,13,10,20.76,8.7,2.4-.39,6.79-1.37,8-3.89a6.56,6.56,0,0,0,.5-1.47,176.94,176.94,0,0,0,12.4,27.62A137.83,137.83,0,0,0,264.3,449c-4.73-4.7-9.52-9.32-14.55-13.65-8.25-7.11-17-9.56-27.45-5.76-8.4,3-12.77,10.6-10.37,19.23A16.27,16.27,0,0,0,218.4,458c3.57,2.46,7.75.68,11.2-1,.63-.29.22-1.24-.42-1.09a14.39,14.39,0,0,1-4.13.51c-4.58.05-5.19-4.85-5.24-7.76-.11-6.1,6-7.6,10.57-5.17,4.29,2.31,7.22,7.27,9.32,11.49,4.07,8.17,8.8,15.62,17.26,19.69,5.44,2.62,12.28,4.66,17.51.61,4.36-3.39,3.9-8.43,1.71-12.69a.63.63,0,0,0,.71,0A117.47,117.47,0,0,0,302.7,481.4l-.36-.11c-8.23-2.16-17,.72-24,5-5.61,3.45-8.72,10.05-6.19,16.4,1.29,3.21,3.05,5.75,6.33,7,2.93,1.15,6.51-1.35,8.79-2.77a.64.64,0,0,0-.46-1.17c-3.94.74-8.76-.16-7.38-5.53.91-3.52,5.37-4.43,8.38-4.65,7.36-.54,13.57,4.78,18.57,9.44,6.56,6.11,14.34,12.16,23.91,11a22.34,22.34,0,0,0,3.92-.84c.29,11.85,11.46,24.17,23.22,25.07,1.16-2.44-4.3-3-6.08-4a24.78,24.78,0,0,1-8-6.91,24.11,24.11,0,0,1-4.71-16.33,12,12,0,0,0,5-8.58c0-.22,0-.45.05-.67,3.64-2.81,8.74-4.07,12.34-1.09,2.41,2,4.08,8.18-.47,8.82-2.51.49-1.77-2.38-4.06-2.06-1.05,5,5.78,5,8.19,2.38,2.59-2.82,1.79-7.53-.34-10.35-3.78-5-10.88-4.73-16.14-2a9.86,9.86,0,0,0-2-3.91c-2.23-2.47-4.68-3.24-7.43-4.2a1,1,0,0,0-.05-.3,73.09,73.09,0,0,0,17.72-.24C351.74,488.48,348.84,489.76,347.33,489.88Z"/><path class="cls-3" d="M356.06,540.21Z"/><path class="cls-3" d="M441.88,657.76c-14.14,27.64,2.56,47.45,14.1,37.85C443.25,691,443.59,667.31,441.88,657.76Z"/><path class="cls-3" d="M312.52,855.68c2.61,2.82,6,4.86,8.58,7.63,1.49,1.6,4.7,2.78,6.59,3.57a35.22,35.22,0,0,0,17,2.42c10.29-1,18.76-6.78,24.87-14.88,4.62-7.39,5.48-16.47,1.17-24.26-4.48-8.11-14.09-13.5-23-9-7.23,3.66-10.88,14.47-2.83,19.49a7,7,0,0,0,6.52.45,5.77,5.77,0,0,0,3.57-5c0-.59-1.19-4.19-2.05-3.71-1.45,1.12-.18,1.47.19,2.7.74,2.23-1.78,4.06-3.71,4.22-2.49.22-4.61-1.71-5.4-3.92-2.14-4.91,2-9.38,6.3-11,4.59-1.55,9,0,12.4,3.23,15.85,15.44-3.89,35.27-20.55,35.72-19.05.51-33.36-17.72-36.9-34.9-2.19-10.65-.42-20.93,3.66-30.86.39-.8,2.6-3.85,2.38-4.59-.61-2.11-2.36.8-2.61,1.14a48.1,48.1,0,0,0-5.4,46.9A48.48,48.48,0,0,0,312.52,855.68Z"/><path class="cls-3" d="M463.85,777.78A22.51,22.51,0,0,0,445,761.9c-8.24-.94-16.94,3.5-18.24,12.32-1.07,6.86,3.76,14.22,11.37,12.88a6.8,6.8,0,0,0,4.92-3.89,5.77,5.77,0,0,0-.33-5.47c-.32-.46-3.91-3-4.3-1.81-.3,1.8.84,1.19,1.95,1.83,2,1,1.54,3.9.4,5.37-1.58,2.08-4.67,2.26-6.88,1.14-5.3-2.3-5.22-9.28-2.45-13.48,2.95-4.49,8.14-5.82,13.23-5.07a18.44,18.44,0,0,1,15.56,16.54c.9,11.38-4.29,21.36-13.65,27.7a2.79,2.79,0,0,1-.35.24c-.32.17-.4.21-.37.18-16.86,8.61-38.23,2.81-51.05-10.52a47.93,47.93,0,0,1-9-13.31c-.56-1.23-3.8-11.37-4.09-11.32-4.45.85,5.82,21.45,8,24,11.18,14.55,29.67,22.74,48,19.21C455.53,815.05,469.29,795.84,463.85,777.78Z"/><path class="cls-3" d="M465.64,710.1c-1.11-3.75-5-7.49-9.2-6.24-3.13.94-6,5.89-1.9,7.76,1.77-1.78-1.62-3.82,1.89-5.2,3.33-1.32,6.1,2.75,6.25,5.62.31,6.36-7.65,10.4-13.13,9.73C435,720,429.64,700.84,434.82,689.22c-2.88-2.67-4.78,7.78-5,9.68a25.47,25.47,0,0,0,2,12.46c3.36,7.77,11.41,15.16,20.4,14.37C459.43,725.09,468,718.16,465.64,710.1ZM433.6,692Z"/><path class="cls-3" d="M446.59,810a4.38,4.38,0,0,0-.72.42c.13-.07.25-.11.37-.18Z"/><path class="cls-3" d="M429.89,684a209.64,209.64,0,0,0,8.86-27.57s-10.82,4.65-24.15,16c-11.49,9.79-13.08,24.38-8.85,27.58S424.43,698,429.89,684Z"/><path class="cls-3" d="M351.35,449.79C334,438,330.07,411.54,330.48,392.28a98.38,98.38,0,0,1,6.13-33.15,61.35,61.35,0,0,1,7.5-14.07c0,.21-.08.42-.1.64-.88,7.91,5.78,12.86,13.64,12,9.28-1,11-11.27,13.38-18.26,4.3-12.37,17.58-16.33,29.37-15.12a.73.73,0,0,0,.41-1.37c-9.56-4.67-21-6.72-31.18-3-6.11,2.23-20.64,9.55-24.68,21.5-12,14.21-15.95,35.26-15.93,53.18,0,19.12,4.39,44.64,21.53,56.3A5.77,5.77,0,0,0,351.35,449.79Z"/><path class="cls-3" d="M426.45,463.77c-26.15-16.74-47.48-2-39,10.38C393.19,461.93,416.77,464.55,426.45,463.77Z"/><path class="cls-3" d="M414.51,435.22c-8.64-12.39-23-15.38-26.6-11.49s.12,18.79,13.6,25.58a209.19,209.19,0,0,0,26.6,11.48S424.52,449.57,414.51,435.22Z"/><path class="cls-3" d="M387.13,558.39c-30.53,5.63-36.07,30.93-21.43,34.24C361.58,579.75,380.6,565.57,387.13,558.39Z"/><path class="cls-3" d="M445,403.25c.83-7.84-7.87-13.16-14.79-13.06-19.36.26-24.29,27.91-13.14,40.06,2.52-1-1.07-5.14-1.7-7.07a24.62,24.62,0,0,1-1.12-10.5c.77-6.89,5-14.77,11.63-17.62,5.43-2.37,15,0,15.87,6.81.4,3.1-2.61,8.76-6.38,6.13-2.16-1.37.34-2.95-1.56-4.28-4.17,2.92.81,7.6,4.36,7.33C442,410.74,444.61,406.78,445,403.25Z"/><path class="cls-3" d="M365.19,517.75c-14.6,3.5-8.71,28.74,21.89,33.94C380.46,544.61,361.24,530.68,365.19,517.75Z"/><path class="cls-3" d="M386.87,371.23c8.4,3.12,15.74,10.49,15.69,19.91,0,6.44-4,14-10.49,15.92-5.14,1.48-12.58-1.13-13.49-7-.39-2.53.67-5.65,2.77-6.92,2-1.47,6-.7,6.53,2,.33,1.61-1.64,2.58.19,3.63.89.34,1.53-3.32,1.46-3.89-.62-4.71-6.8-5.56-10-3.16a9.36,9.36,0,0,0-3.39,5.61c-2.27,11.11,12.22,16.16,20.38,11.69,9.82-5.38,12.74-19.25,7.68-28.77a28.12,28.12,0,0,0-9.42-10c5.37.05,10.31-3,14.17-6.54,4.56-4.23,7.3-10.51,8.35-16.54.93-5.29-1.34-9.86-4.37-14a.8.8,0,0,0-1.34.32c-1.16,6.95-3.16,13.34-8.33,18.38-4,3.89-9.42,6.05-14.65,7.69-2.8.89-11,3.31-17.83,5.56-11.4,2-21.16,10.15-27.08,20.78-10.75,19.29-6.57,42,8.05,57.8,2.25-1-.41-2.94-1.31-4.17a50.93,50.93,0,0,1-4.54-8c-3.15-5.82-4.31-13.37-4.29-19.89,0-13.35,5.6-25.44,15.11-34.68C364.34,369.53,376.69,367.43,386.87,371.23Z"/><path class="cls-3" d="M304,229.46a100.11,100.11,0,0,0-21.24,27.36c-21.23,39.81-18.31,89.56-5,131.38,6.16,19.29,15,38.11,27.28,54.26,9.24,12.1,21.27,23.91,36.25,28.33,1.31-2-3.36-2.66-4.87-3.32a54,54,0,0,1-7.46-4,79.43,79.43,0,0,1-14.41-12c-28.94-30.11-42.92-75.53-45.33-116.39-1.3-22,1.06-44.51,9.08-65.14a108.71,108.71,0,0,1,14.14-25.75A96.3,96.3,0,0,1,302.27,233c.44-.43.9-.84,1.35-1.26a21,21,0,0,0-.16,2.55c0,8,4.78,13.27,12.67,13.06,9.33-.26,11.78-10.4,14.74-17.18,5.24-12,18.78-14.94,30.45-12.83a.72.72,0,0,0,.5-1.34c-9.16-5.39-21.21-10-31.65-7C323.91,210.76,307.34,216.05,304,229.46Z"/><path class="cls-3" d="M343.87,455.85a48.57,48.57,0,0,1-4.69-2.73,61.87,61.87,0,0,1-9.05-7.41,97,97,0,0,1-16-21.29A136.42,136.42,0,0,1,297,369.67a115.45,115.45,0,0,1,5.36-48A98.66,98.66,0,0,1,316.5,295c1.23-1.65,2.52-3.25,3.85-4.82a14.62,14.62,0,0,0-.26,4c.62,7.94,6.56,12.49,14.34,11.2,9.22-1.54,10.25-11.92,12.25-19,3.55-12.61,16.55-17.38,28.4-16.89a.72.72,0,0,0,.32-1.39c-9.82-4.08-21.36-5.42-31.3-1.09-5.42,2.37-18.7,10.15-22.81,20.18-19.9,22.7-28.64,52.76-25.64,83.57a137.81,137.81,0,0,0,17.05,54.12c7.61,13.45,18.34,27.31,33,33.51C347,456.66,345.09,456.46,343.87,455.85Z"/><path class="cls-3" d="M526.47,1052.78a11.63,11.63,0,0,0,23.24,1c.27-6.42-12.27-47.09,17.47-75.61C524,1000.92,526.74,1046.36,526.47,1052.78Z"/><path class="cls-3" d="M386.3,555.08s-10.28-5.75-27.39-9.4c-14.76-3.15-27.3,4.48-27.27,9.78s12.92,13.64,27.4,9.39A209.4,209.4,0,0,0,386.3,555.08Z"/><path class="cls-3" d="M481.09,1039.37a11.64,11.64,0,0,0,15.74-4.78c3-5.67,9.93-48.24,48.44-60.63-44.77,5.47-65.95,44-69,49.68A11.62,11.62,0,0,0,481.09,1039.37Z"/><path class="cls-3" d="M646.94,780.83c-.37-15.22-3.16-31.84-12.68-44.21-2.26.87,1.16,4.12,2,5.54a55.6,55.6,0,0,1,3.67,7.62A78.33,78.33,0,0,1,644.52,768c5.71,41.36-9.68,86.33-31.73,120.8-11.87,18.55-27,35.39-45.64,47.36a108.6,108.6,0,0,1-26.58,12.52,93.7,93.7,0,0,1-14.42,3.26c-.61.09-1.23.16-1.84.24a21.4,21.4,0,0,0,1.64-2c4.67-6.45,3.93-13.55-2.58-18-7.7-5.28-15.65,1.48-22,5.23-11.3,6.64-24,1.05-32.18-7.52a.72.72,0,0,0-1.19.78c4.25,9.75,11.3,20.54,21.47,24.31,6.09,2.25,22.6,7.71,33.16-1.2a100.18,100.18,0,0,0,33.27-9.65c40.57-19.72,67.45-61.69,81.23-103.37C643.47,821.54,647.41,801.15,646.94,780.83Z"/><path class="cls-3" d="M277.37,883.47c11.65-6.82,19.88-20.22,15.52-33.88-2.33-7.32-8.51-14.39-16.27-16-7.46-1.54-16.05,2.3-18.76,9.7-1.79,4.89.13,11,4.84,13.53,6.09,3.26,15.41-4.91,8.35-9.37-1.47,1.23,0,1.6.44,2.9,1,2.6-1.7,4.29-3.7,5-2.87.7-5.73-1.64-6.75-4.16-4.71-9.85,10.33-17,17.84-12.11,9.13,5.53,12.94,18,7.55,27.45-3.73,6.88-10.47,12-17.78,14.53-17.89,6.23-35-5-44.41-19.73a54.36,54.36,0,0,1-8.14-32.92,56.07,56.07,0,0,1,3.51-15.81c.83-2.17,1.79-4.22,2.82-6.31a9.86,9.86,0,0,0,.66-1.34c-.12-.25-1.2-.79-1.35-.57-8.53,12.81-12.16,27.37-9.07,42.66,2.91,14.41,11.9,28,24.54,35.78C249.78,890,264.61,891,277.37,883.47Z"/><path class="cls-3" d="M512.83,185.2a35.32,35.32,0,0,0-15.15,8c-7.73,6.87-11.2,16.51-11.38,26.66.61,8.69,5.26,16.55,13.32,20.32,8.38,3.92,19.33,2.64,23.89-6.26,3.7-7.2.3-18.1-9.17-17.42A7,7,0,0,0,508.8,220a5.75,5.75,0,0,0,.06,6.14c.35.48,3.43,2.69,3.84,1.81.51-1.77-.72-1.3-1.74-2.08-1.91-1.37-.94-4.33.52-5.6,1.88-1.64,4.73-1.33,6.67,0,4.61,2.71,3.92,8.75,1.38,12.62-2.8,4-7.27,5.35-11.93,4.67-21.89-3.17-17.59-30.81-4.37-41,15.11-11.61,37.41-5.27,50.37,6.54,8,7.33,12.64,16.69,15.18,27.12.15.88.16,4.65.77,5.12,1.73,1.34,1.44-2,1.44-2.46a49.34,49.34,0,0,0-2.61-15.61c-3.54-10.54-11.24-19.64-20.59-25.51a48.74,48.74,0,0,0-16.11-6.43c-3.77-.74-7.73-.39-11.43-1.12C518.1,183.8,514.82,184.73,512.83,185.2Z"/><path class="cls-3" d="M250.71,244.89a4.49,4.49,0,1,0,3,5.62A4.56,4.56,0,0,0,250.71,244.89Z"/><path class="cls-3" d="M160.25,181.11a12.92,12.92,0,0,0,7.9,16.48c6.73,2.37,49,20.74,65.14,55.24-6.42-56.65-49.83-77.25-56.56-79.61A12.92,12.92,0,0,0,160.25,181.11Z"/><path class="cls-3" d="M242.74,151.65a11.63,11.63,0,0,0-19.39,12.85c3.55,5.36,37.61,30.89,30.32,71.44C275.19,192.17,246.29,157,242.74,151.65Z"/><path class="cls-3" d="M241.76,272.45c11.14,9.55,13.85,42.57,16.43,52.2,0,0,3.73-20.63,5.41-31.79s7.87-34.66,7.87-34.66C250,250.43,241.76,272.45,241.76,272.45Z"/><path class="cls-3" d="M269.42,249.82c-2,5.71,7,8.43,8.95,2.75S271.42,244.15,269.42,249.82Z"/><path class="cls-3" d="M63.49,727.69c6.18-1.72,41-26.22,77.3-6.75-35-34-77.35-17.38-83.54-15.66a11.63,11.63,0,1,0,6.24,22.41Z"/><path class="cls-3" d="M59.78,792.84a12.92,12.92,0,0,0,18.11-2.43c4.34-5.67,34.87-40.19,72.67-44.88-55.87-11.39-88.87,23.53-93.2,29.2A12.92,12.92,0,0,0,59.78,792.84Z"/><path class="cls-3" d="M68.93,245.79A73.06,73.06,0,0,0,48.8,295.22c-.17,9.52,2.05,19.64,7.36,27.66-3,7-9.86,13.54-16.1,17.08-7.86,4.45-17,7.28-23.85,13.39-4.53,4-10.24,10.94-6.78,17.41,2.54,4.69,7.45,6.26,12.36,5,.2,6.82,2.89,13.31,10.85,13.63a16.28,16.28,0,0,0,9.64-2.69c-.54,2.91-1.31,5.91-.18,8.69a11.43,11.43,0,0,0,5.53,6.08c4.24,2.21,8.67.58,11.11-3.06,3.11,5.15,8.81,7.9,14.3,4,3.53-2.5,4.92-6.41,5.31-10.53,8.71,8.84,21.7.58,20.26-10.94,4.54,2.44,10.86,2.91,13.77-2.26,3.61-6.38,1.25-12.87-3.61-17.81a84,84,0,0,0-10.58-9c-6.8-4.94-14.08-9.16-21.07-13.81-.3-.19-.58-.39-.88-.59-1.79-1.61-6.1-4.55-6.86-5.27a38.93,38.93,0,0,1-9.27-13c-4.25-10-4.34-21.8-1.41-32.16C65.05,264.54,81.4,246.91,104,240c14.54-4.48,30.32-3.08,44.86,1.31,24.15,7.3,43.71,24.8,58.09,45.06a210.14,210.14,0,0,1,28.9,59.32c7.47,24.06,11.93,49.22,22,72.43,8,18.43,19.35,35,35.12,47.63,16.91,13.54,36.67,18.89,58,18.55,1-2.52-4.34-2-5.82-2.24-3.55-.65-7.08-1.34-10.57-2.27a81.8,81.8,0,0,1-26.33-12.41c-37.2-26.58-43.62-73.07-53.54-114.55C243.78,307,220,259.14,177.55,235.07,142.71,215.3,97.76,215.85,68.93,245.79ZM76.41,355q-.94-2.58-2-5.1c2.2,3,4.43,6.05,6.77,9,2.54,3.22,5.17,6.4,8,9.42a104.78,104.78,0,0,0-5.94-10.88c-1.87-3.09-3.89-6.07-5.95-9,1.13,1.27,2.26,2.52,3.44,3.75a110.65,110.65,0,0,0,8.43,8.19,99.22,99.22,0,0,0-6.47-9.83c-2.29-3.16-4.74-6.2-7.23-9.2-1.23-1.43-2.49-2.83-3.77-4.23.57.3,1.13.62,1.73.89a6.19,6.19,0,0,1,.67.36l.15.12a61.68,61.68,0,0,1,9.21,8.94c2.56,3.15,5,6.41,7.26,9.8,1.6,2.4,4.14,5.3,4.61,8.26.92,5.69-4.84,8.69-8.9,4.81A.82.82,0,0,0,85,371c.52,1.82,1.16,4,.52,5.89s-3.4,3.68-5.22,3.56c-3-.19-3.27-3.92-3.58-6.2a116.67,116.67,0,0,0-5.81-23.64c-.32-.89-.65-1.77-1-2.65q1.92,4.1,4.13,8.08a74.93,74.93,0,0,0,5,7.93A62,62,0,0,0,76.41,355ZM60.5,358c.4-2,.69-4,.92-6,0,.42.07.83.1,1.24.41,4.11.78,8.21,1.3,12.31s1.06,8.22,1.87,12.34a93.47,93.47,0,0,0,.68-12.49c0-4.17-.24-8.31-.59-12.45-.07-.75-.17-1.49-.25-2.23.54,2.22,1.1,4.43,1.72,6.64.94,3.4,2,6.78,3.26,10.13a72.43,72.43,0,0,0-.77-10.64c-.45-3.52-1.13-7-1.9-10.45-.57-2.34-1.18-4.66-1.89-6.95a146,146,0,0,1,9.68,31.46c.59,3.53,1.38,6.4-.08,9.84-1,2.41-3,5.39-5.84,5.77-4.08.55-6.09-2.28-7.26-5.75a.82.82,0,0,0-1.49-.23c-1,1.6-2.4,4-4.48,4.3-2.8.33-4.85-1.91-5.65-4.39s.57-4.59,1.35-7c.9-2.8,1.56-5.68,2.29-8.52,1.33-5.13,3.19-10.1,4.24-15.3.51-2.51.86-5,1.15-7.5-.08,1.73-.17,3.48-.28,5.22l-.6,10.4c-.2,3.49-.35,7-.32,10.55A58.52,58.52,0,0,0,60.5,358ZM57.74,334.5c0-.1,0-.24.08-.36a80.73,80.73,0,0,1-.93,10.77c-1.16,7.57-3.81,14.71-5.65,22.11-.56,2.25-.92,6.41-2.46,8.22a17.18,17.18,0,0,1-6.53,3.89A7.79,7.79,0,0,1,35,377.74c-3.94-3.17-4.71-7.79-2.8-12.34.31-.74-.6-1.16-1.16-.94-4.84,1.83-10.25-1.87-8.93-7.29.65-2.69,1.55-5.56,3.56-7.57s5.18-3.13,7.84-4.43A89.46,89.46,0,0,0,42.59,340a44.59,44.59,0,0,0,11.64-10.52c-.46.74-.93,1.43-1.34,2-1.85,2.34-3.82,4.6-5.79,6.89l-5.89,6.92c-2,2.33-3.9,4.69-5.71,7.25A47.24,47.24,0,0,0,43,347.08,67.1,67.1,0,0,0,48.23,342c-.12.19-.22.39-.34.57l-5.43,9c-1.8,3.05-3.56,6.12-5.16,9.35a64.6,64.6,0,0,0,7.26-7.91,90.26,90.26,0,0,0,6-8.61l-4,8.8c-1.49,3.28-2.95,6.59-4.25,10a63.73,63.73,0,0,0,6.49-8.82A87.48,87.48,0,0,0,54,344.87,61.63,61.63,0,0,0,57.74,334.5Z"/><path class="cls-3" d="M240.69,262.93a4.21,4.21,0,0,0,3.1-3.12s0,0,0,0a.13.13,0,0,1,0-.06v0a4.83,4.83,0,0,0,.06-2,.11.11,0,0,1,0-.05v.17a3.46,3.46,0,0,0-1.71-2.61l-.18-.15a4.32,4.32,0,1,0-1.26,7.85Z"/><path class="cls-3" d="M257.15,246.23c-1.94,5.51,6.71,8.13,8.64,2.66S259.08,240.76,257.15,246.23Z"/><path class="cls-3" d="M238.16,271c1.84-5.21-6.34-7.68-8.16-2.51S236.34,276.18,238.16,271Z"/><path class="cls-3" d="M300.45,145.73a11.63,11.63,0,0,0-23,3.21c.89,6.37,20.32,44.86-3.56,77.52C306.86,195.72,301.34,152.1,300.45,145.73Z"/><path class="cls-3" d="M572.48,829.75a61.9,61.9,0,0,1-14.33,7c.15-.15.31-.3.45-.46,5.36-5.88,2.88-13.81-4-17.76-8.09-4.67-15.49,2.69-21.56,6.91-10.76,7.48-23.83,2.88-32.65-5a.73.73,0,0,0-1.14.87c5,9.39,13,17.77,23.46,20.74,6.26,1.79,22.32,4.4,32.61-2.89,18.09-4.41,33.63-19.15,44.14-33.65,11.24-15.48,22.69-38.7,15.69-58.2a5.23,5.23,0,0,0-1.36.48c7.1,19.76-5.27,43.46-16.92,58.8A98.27,98.27,0,0,1,572.48,829.75Z"/><path class="cls-3" d="M487.52,880.69c5.55,9.07,14.09,16.94,24.69,19.27,5.77,1.27,21.09,2.79,30.31-2.92,29.44-6.67,54.18-25.84,69.86-52.53a137.91,137.91,0,0,0,18-53.81c1.75-15.36,1.21-32.88-7-46.49-2,.53-.59,1.81,0,3a44.81,44.81,0,0,1,2.18,5,61.17,61.17,0,0,1,3,11.31,96.88,96.88,0,0,1,.42,26.62,136.29,136.29,0,0,1-18.33,54.37,115.46,115.46,0,0,1-32.54,35.65A98.3,98.3,0,0,1,551,893.49c-2,.61-3.95,1.14-5.94,1.63a14.47,14.47,0,0,0,2.54-3.06c4.16-6.78,2-14-5-17.49-8.36-4.17-15.3,3.63-21.1,8.21-10.28,8.12-23.61,4.33-32.9-3A.73.73,0,0,0,487.52,880.69Z"/><path class="cls-3" d="M516.65,783.57c-6.18.74-12.09,4.21-16.48,8.47-3.86,3.73-4.71,8.76-4.7,13.9a.8.8,0,0,0,1.27.53c5-4.93,10.41-8.93,17.55-10,5.52-.8,11.17.65,16.37,2.38,2.79.94,10.84,3.79,17.69,6,10.42,5.06,23.09,4.23,34.13-.89,20-9.29,30-30.14,27.46-51.49-2.4-.54-1.41,2.61-1.39,4.14a51.53,51.53,0,0,1-1,9.1c-.87,6.56-4.37,13.35-8.22,18.62-7.87,10.77-19.49,17.29-32.61,19.17-10.55,1.51-21.77-4-27.78-13.11-5-7.46-6.57-17.74-1-25.33,3.77-5.22,11.46-9,17.84-6.71,5,1.82,9.52,8.3,6.79,13.61-1.17,2.28-3.87,4.18-6.31,4-2.49,0-5.24-2.94-4.09-5.47.68-1.5,2.84-1.12,2-3.06-.53-.79-3.19,1.79-3.47,2.3-2.26,4.17,2.24,8.49,6.26,8.45a9.45,9.45,0,0,0,6-2.55c8.36-7.65-.4-20.25-9.63-21.43-11.11-1.43-21.62,8.08-23.12,18.76A28.08,28.08,0,0,0,532,786.61C527.65,783.41,521.87,782.94,516.65,783.57Z"/><path class="cls-3" d="M641.47,619.29c14.3-4.47,12.74-37.53-12.64-42.32,48.66,1.21,51.53-31.31,36.25-38.56,24-22.69,1.35-48.09-29.78-29.87,6.46-13.55-4.81-26.8-25.12-18.29,20.58-16.79,20.1-42.13-.53-41.68,12.62-28.75-27.32-51.46-49.12-10.77-9.62-7.87-18.61-.93-24.51,7.93,1.29-29.48-23.67-37.6-34.7-25.1-3.9-41.61-65-25-46.84,22.9-15.08.1-22.75,16.12-9.7,29.74-22.29-11.12-34.55,6.33-24.82,16.81-44.41-15.36-58.08,33.74-16.66,45.72-21.16,8.35,4.18,21.84,8.09,21.39-33.56,4.55-33.48,27.69-17.42,34.8-32.54,25,5.26,53.34,24.28,42.23-.68,21.7,27.79,14.13,38.21,1.27-18.08,37.63,6,47.43,23.38,41.79-12.91,45.14,49.84,43.41,45.72,8.21,9,8,49.07,1.87,36.46-37.36,22.3,37.85,55.59,24.09,53.41,7.61C650.45,678.39,672.08,633.89,641.47,619.29ZM614,497.67c12.29-3.14,16.91,13.13,16.06,17.43,13.86-3.9,35.24-2.05,31.16,12.41-.07.2-3.06,7.38-8.23,10.17,5.41.73,14.58,15.9,2.67,22.54a79.09,79.09,0,0,1-38.31,10.07c-15,.35-59.71-4.88-67.11-5.81a11.5,11.5,0,0,0,.71-3.12l43.4-4.08a7.58,7.58,0,0,0,.47,1.89,7.4,7.4,0,1,0-.22-4.84l-43.67,4.1a17.89,17.89,0,0,0-.59-3.07l53.22-16.18a1,1,0,0,0,0,.16,7.36,7.36,0,1,0-.53-3.07l-53.75,16.35c-.07-.17-.14-.36-.22-.53L581.84,532a7.3,7.3,0,1,0-1.2-2.69l-33,20.29a13.21,13.21,0,0,0-2.83-3c1.87-1.52,3.67-3.51,4.76-4.44,5-4.24,9.8-8.73,14.8-13,7.13-6.19,15.07-11.29,22.59-17C594.76,506.25,604,500.2,614,497.67Zm-60.82-57.5c2.73-.31,8.75.67,9.75,3.67-1.08-3.24,15.65-14.38,25.66-12.46,15.6,3,16.88,8.3,16.47,21.66,2.78-2.19,18,5.82,11.83,17-4.52,8.15-9.36,16.7-16,23.47-6,3-11.27,7.66-16.48,11.43-13.69,9.91-34.35,31.08-42.68,39.09-.24-.16-.51-.26-.75-.41l33.78-37.92a7.29,7.29,0,1,0-5.42-4.38,7.37,7.37,0,0,0,2.57,3.18L538.29,542.3l-.28-.1,25.37-51.84a7.3,7.3,0,1,0-2.73-1.05l-25.46,52c-.57-.12-1.13-.25-1.7-.34l8.38-41.48a7.13,7.13,0,0,0,2.77-.55,7.3,7.3,0,1,0-5.64,0l-8.46,41.87c-.17,0-.33,0-.5,0-.25-2.37-.32-41.63,2.22-58.61C534,470.85,538.15,441.68,553.19,440.17Zm-94.06,5.39c-6.12-14.73,7.18-25.64,13.2-28.71,12.46-6.3,21.25.54,27.79,10.9,1.22-7.31,30.54-4,32.24,24.49-.73,1.54-1.36,3.05-1.87,4.46-5.52,15.44-6.85,32.4-6.66,48.68.08,6.44.9,19.55,1.61,28.14l-6.06-40.46a7.31,7.31,0,1,0-2.8,1l6.32,42.19-19.16-59.62a7.33,7.33,0,1,0-2.58,1.51L522,543l-1.67.83-28.22-49a7.31,7.31,0,1,0-2.78,1l27,46.94c-3.67-5.05-12.07-16.5-16.33-21.59-8.14-9.73-37.91-40.9-44.5-46.75C438,458.9,454.89,447.72,459.13,445.56Zm-48.92,88.33c-22.86-6.7-20.92-25.27-15.09-30.65,9.77-9,24.54-8,36.7-6.63-13.2-11.19,4-24.08,17.3-17.58C467,491.41,498.78,528.84,515.31,548a1.25,1.25,0,0,0-.09.12L480,522.7a7.35,7.35,0,1,0-2.68,1.66l36.21,26.13c-.2.35-.42.71-.61,1.08l-54.79-26.09a7.26,7.26,0,1,0-3.54,3.18,6.91,6.91,0,0,0,1.54-.9l55.65,26.5c-.1.3-.18.61-.27.91l-45.88-11.3a7.16,7.16,0,0,0-.15-5.09,7.3,7.3,0,1,0-3.95,9.53,7.37,7.37,0,0,0,2.56-1.8l30.07,7.4c-1.82-.19-3.5-.33-4.86-.4-14-.74-28-.3-42-.17-9.91.08-19.37-1.39-29.31-2.54C404.26,549.23,408.43,536.48,410.21,533.89Zm16.61,93.39c-17.08,8.43-40.14-15.48-28.15-34.88-10.37-7.87-6.42-28.86,20.21-33.06,7.51,1.63,69.69-3.41,91.87.62,0,.4,0,.9,0,1.43L470,565.85a.24.24,0,0,1,0-.08,7.34,7.34,0,1,0,.54,3l40.43-4.43c.08.56.18,1.14.3,1.72L455.86,585.2c0-.05,0-.1,0-.14a7.35,7.35,0,1,0,.53,3.06l55.77-19.32c.18.42.4.83.62,1.23l-43.64,25.8a7.3,7.3,0,1,0,1.23,2.67l42.33-25c-7.67,6.41-39.92,33.48-47.72,43.32C439.09,649.38,424.31,637.85,426.82,627.28Zm92.69,48.17c-.17,26.6-36.52,29.78-33.8-6.05-10.35,5.28-39.71-9.7-18.39-46.09,7.08-12.07,42.23-40.71,49.89-47.91a20.51,20.51,0,0,0,3.52,2.51l-21,36.11a7.27,7.27,0,1,0,1.89,2.64s0,0,0,0L523,579.79l-8.27,53.94a7.18,7.18,0,0,0-3.86.44,7.35,7.35,0,1,0,6.66.58L525.94,580a19.48,19.48,0,0,0,4.51.57l3,39.94-.14,0a7.33,7.33,0,1,0,3-.54l-3-39.62a21,21,0,0,0,4.34-1.06c2.08,18.66,15.35,52.25,19.13,59.8C562.8,662,549.42,683.54,519.51,675.45Zm118-25.91c-6.43,6.39-21.11,4.91-26.39-2.69-3.89,9.89-28.08,24.63-46.57-8.16-11.41-20.23-21.89-50.84-23.28-60.52,0-.13-.1-.31-.16-.52.1-.06.17-.14.27-.2l26.86,35.43a7.32,7.32,0,1,0,2.55-1.45l-27.06-35.71a18.35,18.35,0,0,0,1.64-1.66l41.41,37.07a7.29,7.29,0,1,0,3.17-2.55,6.39,6.39,0,0,0-1,.56l-41.76-37.38h0l44.41,22.17a7.29,7.29,0,1,0,.59-3l-43.55-21.74c.16-.34.35-.66.5-1,22.22,4.75,45.54,9.41,68.39,9.25,23.22,8.81,24.38,34,18.87,43.22C648.85,630.59,642,645.12,637.54,649.54Z"/><path class="cls-3" d="M357.89,572c.35-3.9-9.09.95-10.73,1.95a25.22,25.22,0,0,0-8.68,9.15c-4.11,7.4-5.08,18.28,1,24.92,4.91,5.35,15.62,7.91,20.57,1.14,2.31-3.16,2.89-8.55-.65-11.1-2.65-1.91-8.29-1.13-7.31,3.23,2.49.32,2-3.61,5.28-1.68,3.07,1.85,1.54,6.52-.66,8.39-4.85,4.13-12.91.27-15.72-4.5C333.6,590.9,345.5,574.94,357.89,572Zm-1.82.44-.79.19Z"/><path class="cls-3" d="M568,672.46c-5.14,8.21-13.66,30.37-27.16,29.88C548,715.55,570.87,703.36,568,672.46Z"/><path class="cls-3" d="M528.72,48.61c-.79,4.72,2.12,8.43,6.34,9.62-3.93,4.56-4.79,10.82.61,14.85,3.46,2.58,7.62,2.7,11.66,1.78-5.73,11,6.15,20.82,16.66,15.9-.91,5.07.59,11.22,6.4,12.39,7.19,1.47,12.63-2.78,15.83-8.93a83.46,83.46,0,0,0,5.27-12.84c2.6-8,4.36-16.22,6.62-24.31.09-.34.19-.67.29-1,1-2.2,2.44-7.2,2.89-8.16a39.06,39.06,0,0,1,9.51-12.84C619,27.94,630.19,24.2,641,23.78c23.37-.91,45.19,9.2,58.79,28.53C708.49,64.75,712,80.2,712.35,95.38c.52,25.22-10.08,49.23-24.9,69.16A210.37,210.37,0,0,1,640,210.37c-20.58,14.54-43.13,26.55-62.09,43.29-15,13.3-27.32,29.23-34.45,48.12-7.65,20.27-6.63,40.71.29,60.94,2.7.14.61-4.77.34-6.24-.48-3.57-.92-7.14-1.11-10.75a81.6,81.6,0,0,1,3.67-28.87c13.78-43.59,56-64.07,92.4-86.32,40.19-24.58,78.32-62,88.11-109.79,8-39.24-6.38-81.81-43.76-100a73,73,0,0,0-53.24-3.87c-9.1,2.78-18,8-24,15.55-7.59-.72-15.92-5.2-21.22-10-6.65-6.1-12.18-14-20.1-18.55C559.53.8,551.2-2.5,546.12,2.79c-3.69,3.87-3.66,9-.93,13.3-6.42,2.3-11.77,6.86-9.61,14.53A16.36,16.36,0,0,0,541.11,39c-2.93.38-6,.57-8.32,2.5A11.53,11.53,0,0,0,528.72,48.61ZM597,53.53c0,.25-.08.51-.13.76,0,.06,0,.11-.07.17A61.55,61.55,0,0,1,591.18,66c-2.21,3.4-4.56,6.73-7.08,9.92-1.79,2.27-3.76,5.58-6.43,7-5.13,2.63-9.76-1.93-7.33-7,.34-.69-.42-1.55-1.13-1.09-1.57,1-3.49,2.36-5.45,2.32s-4.54-2.09-5-3.87c-.73-2.89,2.73-4.32,4.81-5.32a117.08,117.08,0,0,0,20.68-12.83c.74-.57,1.48-1.17,2.21-1.75q-3.3,3.09-6.4,6.43a70.93,70.93,0,0,0-6,7.18,63.55,63.55,0,0,0,7.73-5.3c1.45-1.14,2.85-2.31,4.22-3.51-2.2,3-4.38,6.08-6.46,9.22-2.28,3.41-4.49,6.89-6.48,10.55a104.8,104.8,0,0,0,8.51-9c2.36-2.73,4.57-5.57,6.75-8.44-.86,1.46-1.7,2.93-2.52,4.43a111.94,111.94,0,0,0-5.18,10.54A99.81,99.81,0,0,0,588,66.23c2.3-3.16,4.43-6.43,6.51-9.73,1-1.61,1.93-3.24,2.87-4.88C597.24,52.25,597.11,52.88,597,53.53ZM547.37,29.24c1.79-4.73,6-6.89,10.87-6.47.8.07.91-.93.53-1.4-3.23-4-1.39-10.32,4.17-10.74,2.76-.21,5.78-.24,8.3,1,2.7,1.39,4.58,4,6.65,6.09a86,86,0,0,0,7.7,7.08,44.8,44.8,0,0,0,13.6,7.82c-.85-.21-1.65-.44-2.3-.67-2.8-1-5.56-2.21-8.34-3.37l-8.4-3.47c-2.83-1.15-5.67-2.26-8.66-3.19A47,47,0,0,0,579,27.43a66.58,66.58,0,0,0,6.42,3.39c-.22-.05-.44-.09-.65-.15L574.49,28.3c-3.45-.77-6.92-1.49-10.48-2a63.05,63.05,0,0,0,9.76,4.46,88.22,88.22,0,0,0,10.05,3.07l-9.61-1.11c-3.58-.41-7.18-.77-10.85-.94a64.35,64.35,0,0,0,10.4,3.45,90.39,90.39,0,0,0,10.75,2,63.16,63.16,0,0,0,11,.35l.37,0A81.74,81.74,0,0,1,585.37,40c-7.56,1.24-15.18.91-22.78,1.45-2.31.17-6.38,1.11-8.58.21a17.22,17.22,0,0,1-5.71-5A7.75,7.75,0,0,1,547.37,29.24Zm2.08,15c2.23-1.61,4.54-.88,7.09-.88,2.94,0,5.89-.27,8.82-.46,5.28-.32,10.58-.09,15.85-.69,2.55-.29,5-.73,7.49-1.23-1.67.46-3.36.91-5.05,1.35l-10.08,2.64c-3.38.89-6.75,1.83-10.13,3a57.89,57.89,0,0,0,10.62-.47c2-.23,4-.58,6-1l-1.14.48c-3.78,1.66-7.57,3.29-11.31,5s-7.49,3.55-11.15,5.59a91.77,91.77,0,0,0,12.08-3.21c4-1.29,7.84-2.8,11.67-4.41l2-.93c-1.95,1.2-3.88,2.42-5.79,3.69-2.94,1.95-5.84,4-8.63,6.24a73.65,73.65,0,0,0,9.89-4c3.21-1.52,6.3-3.24,9.35-5,2-1.25,4.07-2.55,6-3.94a146.23,146.23,0,0,1-26.93,18.93c-3.19,1.65-5.66,3.29-9.38,3-2.62-.23-6.06-1.18-7.3-3.78-1.78-3.7.29-6.49,3.22-8.68a.82.82,0,0,0-.24-1.49c-1.82-.42-4.58-1-5.47-2.93C545.84,48.36,547.34,45.72,549.45,44.19Z"/><path class="cls-3" d="M346.72,776.67c-5.93,3-11.81,6.17-17.48,9.61-9.31,5.65-14.35,13.25-14,24.33.31,8.93,6.14,15.43,15.09,15.81a16.29,16.29,0,0,0,10.76-3.31c3.44-2.63,3-7.16,2.55-11-.09-.68-1.12-.59-1.18.07a14.37,14.37,0,0,1-.78,4.09c-1.37,4.36-6.22,3.42-9,2.58-5.84-1.78-5.37-8.1-1.65-11.66,3.51-3.36,9.14-4.62,13.8-5.31,9-1.34,17.58-3.54,24.06-10.33,4.17-4.36,8.23-10.24,6-16.46-1.87-5.2-6.81-6.31-11.54-5.56a.6.6,0,0,0,.22-.66,117.74,117.74,0,0,0,25.79-18.77l-.21.32c-4.61,7.15-4.58,16.4-2.65,24.41,1.55,6.41,6.87,11.4,13.69,11,3.45-.23,6.41-1.12,8.65-3.83,2-2.43.74-6.61.09-9.22a.64.64,0,0,0-1.26.07c-.52,4-2.86,8.28-7.54,5.31-3.07-1.95-2.55-6.47-1.83-9.4,1.76-7.17,8.74-11.43,14.72-14.75,7.83-4.35,16-9.87,17.83-19.33,1.32-6.76-.3-13.23-6.88-16.32a11.88,11.88,0,0,0-9.19-.4c-3,1.35-4.53,3.45-6.29,5.77a.71.71,0,0,0-.29-.05,73.46,73.46,0,0,0,5.24-16.92c-2.19-1-1.87,2.1-2.22,3.57a67.07,67.07,0,0,1-2.19,7.37,74,74,0,0,1-5.88,12.52,92.05,92.05,0,0,1-18.34,21.95,126.09,126.09,0,0,1-47.69,26.28c-40.42,12-82.56,2.15-123.78,6.5-35.9,3.78-81.5,16.06-99.86,50.38-8.34,15.61-9.2,33.79-1.22,49.19a8.31,8.31,0,0,0,.68,8.72c19.22,27.68,44.86,19,53.84,13.27,11.56-7.4,17.63-26,2-29.88-.83-.21-1.63,1.25-.9,1.54,4.83,1.83,5.49,6.91,3,12.7-4.37,10-30,14.47-36-5.27-3.88-12.66-17-9.48-21.76-2.46a49.53,49.53,0,0,1-3.48-33.82,60.14,60.14,0,0,1,3.28-9.42c-2,6.64-2,13.68,1.72,20.49,2.82,5.23,8.91,9.19,15,7.08,5.72-2,8.32-5.93,5.26-11.54a.6.6,0,0,0-1.08.51c1.59,4.76-2.67,5-5.33,3.56-2.88-1.52-2.64-5-2-7.7,1-4.27,4.55-7.48,7.72-10.2,4.38-3.76,11.33-8.24,12.16-14.56.62-4.66-1-9.15-5.53-11-4.24-1.75-9.58.54-13.46,3.17,14.25-13.7,34.31-22.11,53.69-27.24a31.66,31.66,0,0,0-3.14,1.87c-8,5.55-12.68,15.15-13.94,24.6-1.2,9,2.22,18.08,11.47,20.78a15.54,15.54,0,0,0,11.52-1c3.56-1.92,3.67-6.67,3.75-10.14,0-.62-1-.9-1.12-.24-1.12,4.23-3.93,7-8.67,5.7-5.88-1.67-4.57-8.57-1.37-12,3.58-3.83,9.87-5.17,14.78-6.23,7.47-1.61,14.91-3.46,20.14-9.43,3.76-4.3,5.16-11,1.68-15.88a9.25,9.25,0,0,0-4.87-3.62c16.2-1.77,32.47-1.74,48.87-1.19l.44,0a35,35,0,0,0-6.8,1c-10.63,2.76-21.66,11.69-24.48,22.58-2.32,8.92,2.41,20.13,11.69,22.52,4.39,1.14,9.68.37,12.92-2.94,2.6-2.65.35-6.73-1.08-9.29-.35-.63-1.48-.36-1.26.41a13.59,13.59,0,0,1,.55,2.35c.83,4.41-4.09,6.74-7.63,4.7-4.2-2.42-1.72-8.07.22-10.76,3.5-4.83,10.38-5.6,15.81-5.11,7.55.68,15.25,4.64,22.84,1.78,7.13-2.67,13.51-9.32,14.7-17,.37-2.41.79-6.88-1.22-8.85a6.09,6.09,0,0,0-1.24-.92,177.55,177.55,0,0,0,30.1-3.26A137.65,137.65,0,0,0,346.72,776.67Z"/><path class="cls-3" d="M353.11,735.82c14.36-5.05,29.31-12.84,38.14-25.72-1.54-1.88-3.56,2.38-4.66,3.61a54.46,54.46,0,0,1-6.11,5.85,78.87,78.87,0,0,1-15.9,10C327,747.77,279.49,747,239.88,736.7c-21.31-5.56-42-14.76-59.14-28.77a108.32,108.32,0,0,1-20.12-21.4,95.35,95.35,0,0,1-7.56-12.72c-.28-.55-.53-1.11-.79-1.67a20.35,20.35,0,0,0,2.38,1c7.57,2.46,14.1-.45,16.33-8,2.64-9-6.25-14.42-11.78-19.33-9.81-8.69-8.41-22.47-2.79-32.92a.73.73,0,0,0-1.12-.89c-8,7.05-16,17.09-16.48,27.93-.26,6.49-.35,23.88,11.39,31.17a100.19,100.19,0,0,0,19.45,28.66C201,732.18,249.17,744.77,293.07,745,313.32,745.1,333.94,742.55,353.11,735.82Z"/><path class="cls-3" d="M157.83,745.6a4.35,4.35,0,0,0,4.62-4,4.19,4.19,0,0,0-2-3.91h0l-.05,0h0a4.65,4.65,0,0,0-1.92-.68h-.05l.16.06a3.44,3.44,0,0,0-3,.82l-.2.12a4.32,4.32,0,0,0,2.46,7.61Z"/><path class="cls-3" d="M148.39,726.51a4.5,4.5,0,1,0,6.26-1.09A4.52,4.52,0,0,0,148.39,726.51Z"/><path class="cls-3" d="M169.35,746.52c-4.39-3.35-9.27,3.66-4.91,7S173.71,749.85,169.35,746.52Z"/><path class="cls-3" d="M226.56,744.05s-18.47-9.93-28.56-15-30.54-18.19-30.54-18.19c-14,18,4.37,32.66,4.37,32.66C184.36,735.9,216.6,743.53,226.56,744.05Z"/><path class="cls-3" d="M151.66,720.81c4.64,3.54,9.8-3.87,5.19-7.4S147.05,717.28,151.66,720.81Z"/><path class="cls-3" d="M158.86,710.25c4.81,3.67,10.17-4,5.39-7.67S154.08,706.59,158.86,710.25Z"/><path class="cls-3" d="M235.07,956.53c5.85-1.37,10.23-5.94,8.23-12.37-1.28-4.13-4.57-6.66-8.38-8.3,11.11-5.55,7.26-20.46-4.14-22.65,3.72-3.57,6.12-9.42,2.11-13.79-4.95-5.41-11.86-5.17-18.06-2.08a84.17,84.17,0,0,0-11.8,7.29c-6.81,4.94-13.07,10.56-19.65,15.78l-.83.65c-2.09,1.2-6.21,4.39-7.14,4.9a39.24,39.24,0,0,1-15.24,4.8c-10.81,1-22.07-2.62-31-8.6-19.44-13-31.15-34-30.79-57.63.23-15.21,6.44-29.79,15.11-42.26,14.4-20.71,37.09-33.9,60.8-41.32a210.23,210.23,0,0,1,65.36-9.16c25.19.33,50.49,3.87,75.67,1.47,20-1.91,39.28-7.59,56.16-18.68,18.1-11.9,29.29-29,35.58-49.47-2.11-1.7-3.29,3.5-3.94,4.85-1.71,3.17-3.45,6.32-5.42,9.34a81.48,81.48,0,0,1-19.94,21.21c-36.77,27.16-83,18.9-125.49,15.52-47-3.74-99.8,4.11-135.81,37-29.57,27-42.93,69.94-23.37,106.61a73,73,0,0,0,40.8,34.42c9,3.11,19.3,4.13,28.57,1.55,5.73,5,9.83,13.56,11.27,20.59,1.8,8.85,1.66,18.46,5.36,26.83,2.45,5.55,7.25,13.11,14.47,11.82,5.25-1,8.26-5.15,8.56-10.21,6.55,1.92,13.56,1.37,16.32-6.11a16.29,16.29,0,0,0,.43-10c2.59,1.42,5.21,3.07,8.2,2.86a11.46,11.46,0,0,0,7.49-3.38C238,964.69,237.77,960,235.07,956.53Zm-52.9-32.63c.17-.18.36-.35.55-.53l.16-.1a62.24,62.24,0,0,1,11.34-6c3.79-1.46,7.65-2.77,11.57-3.87,2.78-.78,6.32-2.3,9.28-1.84,5.7.89,6.77,7.3,1.82,10a.82.82,0,0,0,.28,1.55c1.88.07,4.2.14,5.77,1.32s2.44,4.37,1.77,6.07c-1.11,2.77-4.74,1.89-7,1.48a117.51,117.51,0,0,0-24.28-1.77c-.94,0-1.88.07-2.82.11,3-.37,6-.86,9-1.43a73.53,73.53,0,0,0,9.08-2.28,62.6,62.6,0,0,0-9.37-.25c-1.83.06-3.66.19-5.48.35,3.57-1.16,7.12-2.34,10.65-3.66,3.86-1.42,7.69-2.93,11.44-4.72a105.43,105.43,0,0,0-12.18,2.28c-3.51.83-7,1.83-10.42,2.87,1.56-.68,3.1-1.37,4.63-2.1a113.44,113.44,0,0,0,10.39-5.49A100.94,100.94,0,0,0,197,919c-3.71,1.2-7.36,2.6-11,4q-2.61,1.1-5.19,2.27C181.25,924.82,181.72,924.39,182.17,923.9Zm25.9,48.85c-4.23,2.77-8.86,2.07-12.6-1.15-.6-.53-1.28.21-1.25.81.24,5.16-4.95,9.17-9.69,6.24-2.36-1.45-4.82-3.2-6.1-5.72-1.37-2.71-1.38-5.9-1.8-8.83a87.5,87.5,0,0,0-2.07-10.26,44.55,44.55,0,0,0-6.4-14.31c.56.67,1.07,1.32,1.46,1.88,1.66,2.49,3.2,5.06,4.77,7.64l4.75,7.74c1.62,2.59,3.27,5.16,5.14,7.67a47.34,47.34,0,0,0-2.88-8.84,66.59,66.59,0,0,0-3.19-6.52c.14.17.3.33.44.5l6.92,8c2.34,2.65,4.72,5.27,7.3,7.79a63.5,63.5,0,0,0-5.28-9.35,90.33,90.33,0,0,0-6.33-8.39l7.12,6.56c2.67,2.43,5.36,4.84,8.23,7.14a64.26,64.26,0,0,0-6.38-8.9,86.85,86.85,0,0,0-7.54-7.93,61.56,61.56,0,0,0-8.7-6.76c-.09-.06-.22-.12-.32-.19a81,81,0,0,1,10,4.21c6.84,3.44,12.82,8.18,19.28,12.21,2,1.23,5.81,2.85,7.07,4.88a17.21,17.21,0,0,1,1.67,7.41A7.77,7.77,0,0,1,208.07,972.75Zm18.71-29.4c-.73,4-4.05,5.08-7.71,5.13a.83.83,0,0,0-.68,1.35c1.22,1.41,3.1,3.52,2.71,5.58-.56,2.78-3.32,4-5.93,4s-4.18-1.95-6.25-3.45c-2.39-1.72-4.92-3.24-7.4-4.82-4.47-2.84-8.62-6.15-13.24-8.75-2.23-1.27-4.5-2.37-6.78-3.41,1.63.61,3.26,1.23,4.88,1.88l9.7,3.78c3.26,1.27,6.54,2.49,9.94,3.56a58.82,58.82,0,0,0-8.86-5.86c-1.77-1-3.61-1.89-5.46-2.74l1.21.28c4,.89,8.05,1.8,12.11,2.58s8.15,1.53,12.31,2a95.55,95.55,0,0,0-11.67-4.5c-4-1.28-8-2.34-12-3.29-.73-.16-1.47-.29-2.2-.44,2.28.17,4.56.32,6.85.41,3.52.15,7.06.22,10.64,0a72.21,72.21,0,0,0-10.36-2.56c-3.48-.66-7-1.08-10.53-1.42-2.39-.18-4.79-.32-7.19-.35a145.28,145.28,0,0,1,32.91.52c3.55.53,6.51.66,9.34,3.11C225.07,937.73,227.3,940.52,226.78,943.35Z"/><path class="cls-3" d="M536.42,717.7c5.09-.27,3.34-6.88.18-8.53-3.4-1.78-7.73.2-9.92,3-4.86,6.2-.3,15.32,5.62,18.9,16.56,10,35.39-10.78,32.37-27-2.65-.49-1.81,4.93-2.3,6.9a24.9,24.9,0,0,1-4.61,9.49c-4.31,5.44-12,9.9-19.2,8.78-5.87-.86-12.72-7.9-9.85-14.18,1.3-2.84,6.85-6,8.65-1.83C538.47,715.55,535.51,715.57,536.42,717.7Z"/><path class="cls-3" d="M395.81,453.72c2.93-2.62-7.28-5.52-9.16-5.9a25.21,25.21,0,0,0-12.58.75c-8.07,2.6-16.2,9.89-16.28,18.91-.06,7.27,6,16.45,14.26,14.89,3.85-.73,7.94-4.27,7.1-8.55-.63-3.21-5.28-6.5-7.54-2.65,1.6,1.94,4-1.24,5,2.39,1,3.45-3.33,5.81-6.2,5.68-6.37-.3-9.62-8.62-8.42-14C365.14,451,384.74,447.43,395.81,453.72Z"/><path class="cls-3" d="M438.17,419.1c-13.06-7.41-26,15-7.19,39.75C431,449.14,426.45,425.84,438.17,419.1Z"/><path class="cls-3" d="M502.39,276.34c-17.6-5.19-37.36-.95-50.12,12.69-12.4,13.25-12.25,36.88,2.76,48.29a22.52,22.52,0,0,0,24.58,1.77c7.22-4.08,11.65-12.78,7.52-20.69-3.17-6.17-11.4-9.29-16.77-3.73a6.77,6.77,0,0,0-1.69,6,5.75,5.75,0,0,0,3.47,4.24c.54.18,4.91.09,4.55-1.06-.82-1.64-1.38-.48-2.65-.34-2.2.3-3.54-2.25-3.49-4.11.07-2.61,2.46-4.57,4.91-5,5.63-1.25,9.67,4.44,9.9,9.47.25,5.37-3.16,9.49-7.73,11.88a18.44,18.44,0,0,1-22.3-4.23c-7.42-8.68-9.09-19.81-5.24-30.44a3.28,3.28,0,0,1,.13-.4c.16-.33.21-.41.2-.36,8.58-16.88,29.28-24.75,47.48-21.5A47.93,47.93,0,0,1,513,284.36c1.17.66,9.75,7,10,6.75C526.08,287.81,505.66,277.18,502.39,276.34Z"/><path class="cls-3" d="M512.08,400.13c13.29-2.52,25,18.11,31.35,25.47C541.6,394.61,517.16,386,512.08,400.13Z"/><path class="cls-3" d="M540.47,396.94a209.44,209.44,0,0,0,6.35,28.25s7-9.5,12.7-26c4.93-14.27-1.09-27.65-6.35-28.26S538,382,540.47,396.94Z"/><path class="cls-3" d="M504.36,374.31c13.39-5.83,27.77,7.95,29.19,20.6,3.85.83.19-9.14-.61-10.88a25.26,25.26,0,0,0-8-9.74c-6.85-5-17.53-7.28-24.87-2-5.92,4.23-9.77,14.53-3.66,20.28,2.85,2.68,8.13,3.92,11.09.72,2.23-2.4,2.15-8.09-2.3-7.65-.62,2.43,3.34,2.47,1,5.44s-6.66.73-8.24-1.68C494.48,384,499.29,376.51,504.36,374.31Z"/><path class="cls-3" d="M450.09,301.14a5.57,5.57,0,0,0,.33-.76c-.06.12-.13.24-.2.36S450.13,301,450.09,301.14Z"/><path class="cls-3" d="M263.5,554.28a5.53,5.53,0,0,0-.62-.56c.1.1.18.21.28.31Z"/><path class="cls-3" d="M267,489.25c1-.91,9.64-7.12,9.5-7.39-2.18-4-18.6,12.16-20.4,15-10.38,15.13-12.45,35.24-3.43,51.59,8.77,15.89,31.3,23,46.78,12.29a22.49,22.49,0,0,0,9.28-22.82c-1.65-8.13-8.55-15-17.35-13.54-6.85,1.1-12.36,8-8.73,14.79a6.78,6.78,0,0,0,5.21,3.47,5.77,5.77,0,0,0,5.11-2c.34-.45,1.6-4.64.39-4.66-1.81.27-.88,1.17-1.14,2.42-.39,2.19-3.23,2.67-5,2.05-2.47-.87-3.59-3.75-3.21-6.2.54-5.75,7.21-7.83,12.06-6.49,5.19,1.42,8.06,5.93,8.92,11a18.46,18.46,0,0,1-10.93,19.9c-10.54,4.37-21.64,2.52-30.56-4.42a2.93,2.93,0,0,1-.34-.25c-.26-.26-.32-.33-.28-.31-13.4-13.36-14.49-35.48-5.77-51.8A47.84,47.84,0,0,1,267,489.25Z"/><path class="cls-3" d="M174.75,340.77a55.38,55.38,0,0,1,16.12-1.55c2.32.12,4.57.4,6.86.73a9.57,9.57,0,0,0,1.48.21c.2-.19.39-1.38.14-1.45-14.83-4.16-29.8-3.11-43.39,4.55-12.8,7.22-23,20-26.44,34.39-3,14.19.72,28.58,11.77,38.41,10.09,9,25.38,12.65,37,4.29,6.24-4.48,11.06-12.54,10.19-20.42-.84-7.57-7.15-14.55-15-14.84-5.21-.19-10.43,3.52-11.37,8.78-1.23,6.8,9.43,13.14,11.49,5-1.63-1-1.53.49-2.62,1.33-2.17,1.73-4.61-.3-5.89-2-1.55-2.52-.2-5.95,1.88-7.71,7.91-7.51,19.39,4.56,17,13.23-2.44,10.39-13.11,17.86-23.78,15.67-7.7-1.43-14.63-6.25-19.31-12.42-11.45-15.1-6.1-34.83,5-48.34A54.34,54.34,0,0,1,174.75,340.77Z"/><path class="cls-3" d="M364.27,691.83a50.84,50.84,0,0,1-9,1.85c-6.51,1.2-14.06,0-20.25-2.06a48.12,48.12,0,0,1-28.31-25.09c-4.7-9.57-2.87-22,3.88-30.47,5.57-7,14.85-11.73,23.79-8.77,6.13,2,12.12,8.11,11.9,14.89-.18,5.35-5,11.62-10.85,10.67-2.53-.41-5.17-2.39-5.73-4.77-.77-2.37,1.18-5.91,3.94-5.59,1.63.19,1.95,2.36,3.52.94.6-.75-2.68-2.48-3.26-2.59-4.66-.86-7.38,4.75-6.09,8.56a9.36,9.36,0,0,0,4.28,5c9.87,5.59,19.14-6.64,17.41-15.78-2.07-11-14.36-18.06-25-16.2a28.21,28.21,0,0,0-12.46,5.86c1.7-5.09.37-10.72-1.84-15.49-2.62-5.65-7.74-10.2-13.15-13.06-4.74-2.51-9.79-1.77-14.67-.17a.8.8,0,0,0-.12,1.37c6.25,3.26,11.72,7.13,14.91,13.61,2.46,5,2.84,10.82,2.79,16.3,0,2.94-.25,11.48-.22,18.67-1.6,11.48,3.11,23.27,11.38,32.19,15,16.18,37.95,19.23,57.46,10.2C368.4,689.42,365.71,691.35,364.27,691.83Z"/><path class="cls-3" d="M374.37,694.11c-16.61,12.86-43,8.42-61.15,2.08a98.16,98.16,0,0,1-29.64-16.07,61.31,61.31,0,0,1-11.06-11.47c.19.09.38.2.58.28,7.25,3.29,14-1.52,15.66-9.24,1.95-9.14-7.34-13.9-13.22-18.37-10.44-7.92-10.11-21.77-5.31-32.61a.73.73,0,0,0-1.18-.81c-7.4,7.64-12.88,17.89-12.48,28.73.24,6.49,2.71,22.58,12.83,30.11,9.78,15.84,28.61,26.06,45.65,31.59,18.19,5.89,43.81,9.61,60.2-3.08A6.28,6.28,0,0,0,374.37,694.11Z"/><path class="cls-3" d="M210.32,672.43c15.44,25.93,41.32,43.54,71.55,50.2a137.84,137.84,0,0,0,56.74.52c15.15-3.08,31.65-9,42.06-21-1.12-1.75-1.9,0-2.86,1a46.07,46.07,0,0,1-4,3.61,61.68,61.68,0,0,1-9.84,6.32,96.77,96.77,0,0,1-25.19,8.63,136.31,136.31,0,0,1-57.37-.63,115.42,115.42,0,0,1-44-19.93,98.36,98.36,0,0,1-21.07-21.7c-1.19-1.67-2.31-3.4-3.39-5.15a14.39,14.39,0,0,0,3.7,1.48c7.73,1.86,13.9-2.38,15.07-10.18,1.39-9.24-8.17-13.43-14.32-17.54-10.9-7.26-11.41-21.11-7.28-32.22a.73.73,0,0,0-1.23-.74c-6.91,8.08-11.76,18.64-10.7,29.43C198.75,650.38,202.05,665.42,210.32,672.43Z"/><path class="cls-3" d="M197.39,494.72c8.46,2.11,17.37.12,23.45-6.39,6.32-6.76,8.48-17.56,1.43-24.65-5.71-5.74-17.12-5.87-19.41,3.34a7,7,0,0,0,1.6,6.34,5.78,5.78,0,0,0,5.86,1.85c.55-.2,3.61-2.43,2.9-3.1-1.52-1-1.46.28-2.52,1-1.89,1.39-4.4-.44-5.16-2.22-1-2.3.2-4.92,2.06-6.35,4-3.55,9.53-1,12.43,2.58,2.9,3.89,2.84,8.58.76,12.8-9.79,19.84-34.74,7.2-40.32-8.51-6.37-17.95,6.55-37.2,21.79-45.88,9.45-5.38,19.78-6.86,30.48-6.05.88.13,4.47,1.28,5.1.85,1.81-1.24-1.49-2-1.89-2.14a49.15,49.15,0,0,0-15.66-2.33c-11.11.1-22.15,4.61-30.62,11.69a48.6,48.6,0,0,0-11.09,13.34c-1.87,3.35-2.76,7.22-4.6,10.52-1.06,1.91-1.19,5.33-1.36,7.36a35.28,35.28,0,0,0,2.94,16.89C179.7,485.14,187.8,491.42,197.39,494.72Z"/><path class="cls-3" d="M531.5,315.52c-.48-8.49-5.94-16-12.2-21.3-5-4.28-12.26-5.19-17.51-.82-2.66,2.22-4.54,4.68-4.75,8.19-.2,3.15,3.29,5.78,5.34,7.51a.64.64,0,0,0,1-.8c-1.92-3.52-2.56-8.38,3-8.72,3.63-.23,5.88,3.73,7,6.52,2.79,6.84-.35,14.39-3.24,20.59-3.79,8.12-7.14,17.39-3.07,26.12,2.91,6.24,8,10.52,15.17,9.16a11.93,11.93,0,0,0,7.66-5.08c1.66-2.88,1.64-5.45,1.7-8.36a1.13,1.13,0,0,0,.27-.13,72.64,72.64,0,0,0,5.71,16.76c2.38-.43.27-2.8-.31-4.19a69.3,69.3,0,0,1-2.56-7.25,73,73,0,0,1-2.6-13.59A91.9,91.9,0,0,1,534,311.59a126.41,126.41,0,0,1,23.13-49.29c25.63-33.5,65.53-50.26,96.32-78,26.83-24.16,56.51-60.9,51.18-99.46-2.43-17.53-12.41-32.74-27.92-40.51A8.31,8.31,0,0,0,671,37.67c-31.82-11.09-47.48,11-51.36,20.91-5,12.78,1,31.38,16,25.34.8-.32.59-2-.17-1.77-5,1.35-8.51-2.37-9.87-8.53-2.35-10.68,15.73-29.32,32.23-16.91,10.58,8,19.34-2.34,19-10.8a49.55,49.55,0,0,1,22.7,25.32,60.39,60.39,0,0,1,2.87,9.54A25.9,25.9,0,0,0,689,65.21c-5.36-2.57-12.62-2.2-16.29,3.08-3.46,5-3.24,9.68,2.53,12.42a.59.59,0,0,0,.57-1c-4.08-2.92-.76-5.59,2.22-6,3.22-.46,5.09,2.51,6.17,5,1.72,4,.71,8.72-.26,12.79-1.33,5.61-4.31,13.32-1.27,18.93,2.24,4.13,6.19,6.81,11,5.67,4.45-1.07,7.43-6.06,9-10.47-3.48,19.46-14.76,38.05-27.42,53.6a30.59,30.59,0,0,0,1.44-3.36c3.22-9.21,1.35-19.71-3.19-28.1-4.34-8-12.42-13.32-21.49-10.07a15.57,15.57,0,0,0-8.71,7.62c-1.75,3.64,1,7.54,2.93,10.4.35.52,1.29.17,1-.47-1.58-4.08-1-8,3.67-9.7,5.74-2.1,8.74,4.25,8.16,8.9-.64,5.21-4.94,10-8.29,13.73-5.11,5.7-10,11.57-10.75,19.47-.52,5.69,2.28,11.93,8,13.84a9.29,9.29,0,0,0,6.07.06c-12.07,10.95-25.25,20.49-38.84,29.68l-.37.25a34.86,34.86,0,0,0,4.9-4.83c7-8.48,10.65-22.19,6.53-32.66-3.37-8.58-13.78-14.86-22.7-11.35-4.22,1.67-8,5.4-8.72,10-.54,3.67,3.68,5.65,6.33,6.88.65.3,1.41-.58.78-1.08a13.58,13.58,0,0,1-1.82-1.57c-3.26-3.08-.65-7.86,3.41-8.29,4.81-.51,6.13,5.51,6.14,8.83,0,6-5.1,10.63-9.78,13.43-6.51,3.89-15.06,5.21-19.53,12-4.19,6.35-5.45,15.48-1.87,22.43,1.12,2.16,3.41,6,6.19,6.44a5.79,5.79,0,0,0,1.55,0A177,177,0,0,0,563.89,252a136.9,136.9,0,0,0-13.44,17.36c3-5.94,5.93-11.93,8.49-18.05,4.21-10,3.82-19.16-3-27.89-5.5-7-14-8.87-21.49-3.92a16.28,16.28,0,0,0-6.76,9c-1.24,4.15,1.75,7.58,4.37,10.36.47.5,1.25-.18.91-.74a14.51,14.51,0,0,1-1.77-3.78c-1.46-4.33,3-6.42,5.77-7.37,5.76-2,9.1,3.39,8.18,8.45-.86,4.79-4.68,9.12-8,12.42-6.52,6.39-12.14,13.19-13.4,22.5-.81,6-.63,13.11,4.84,16.83,4.56,3.11,9.21,1.11,12.6-2.28a.62.62,0,0,0,.21.66,117.65,117.65,0,0,0-9.83,30.34C531.51,315.77,531.51,315.65,531.5,315.52Z"/><path class="cls-3" d="M599.79,128.9a54.41,54.41,0,0,1,25.93,21.85,55.65,55.65,0,0,1,6.46,14.86c.6,2.24,1,4.47,1.43,6.75a9.23,9.23,0,0,0,.25,1.47c.24.14,1.43-.05,1.42-.32-.62-15.39-6.25-29.29-17.73-39.85-10.83-10-26.11-15.69-40.88-14.52-14.42,1.56-27,9.51-32.89,23.07-5.42,12.36-4.19,28,7.36,36.52,6.18,4.56,15.34,6.65,22.57,3.38,6.93-3.13,11.63-11.29,9.47-18.87-1.43-5-6.58-8.82-11.87-8.1-6.84.94-9.58,13-1.24,12.49.46-1.86-.94-1.3-2.07-2.09-2.32-1.52-1.14-4.46.07-6.2,1.92-2.26,5.6-2,7.91-.61,9.59,5.21,1.65,19.86-7.31,20.29-10.64.89-21-7-22.26-17.77-1-7.76,1.43-15.85,5.85-22.21C563.08,123.49,583.5,122.48,599.79,128.9Z"/></g></svg>