<?xml version="1.0" encoding="utf-8"?>
<!-- Generator: Adobe Illustrator 23.0.6, SVG Export Plug-In . SVG Version: 6.00 Build 0)  -->
<svg version="1.1" id="_800x800" xmlns="http://www.w3.org/2000/svg" xmlns:xlink="http://www.w3.org/1999/xlink" x="0px" y="0px"
	 viewBox="0 0 320 500" style="enable-background:new 0 0 320 500;" xml:space="preserve">
<style type="text/css">
	.st0{fill:#B07213;}
</style>
<title>accent</title>
<g>
	<path class="st0" d="M159.9,223.6c16.4,7.5,33.2,14.6,47,26.4c14.3,12.3,22.1,28.4,29.3,45.4c0.1,0.3,0.3,0.6,0.6,0.8
		c0,0.4,0.1,0.8,0.1,1.2c0.2,3.1,5.2,4.2,5.7,0.7c1.6-10.9,3.2-21.8,4.7-32.6c1-7,2.6-14.6,3.3-22.1c10.1-37.8,4.5-81.3-13.5-117.1
		c-3.1-7.2-7.1-14-12-20.1c-8.1-11.7-18-22-29.4-30.6c-28.1-21-67.2-28.7-98.1-9c-13.9,9-23.9,22.9-28,39
		c-4.4,17.2,1.1,34.9,9.5,49.9C96.9,187.2,127.4,208.8,159.9,223.6z M75.5,123.6c-2.5-19.7,8.3-38.5,23.8-49.9s35.5-13.8,53.9-10.5
		c32,5.6,57.1,29.4,73.4,57.2c0.4,0.8,0.8,1.5,1.2,2.3c4.3,8.1,7.8,16.6,10.5,25.3c5.5,17,7.4,34.8,6.7,52.6
		c-0.7,16.9-3.8,33.5-6,50.2c-1.1,8-1.8,15.9-2.2,24c-0.1,1.3-0.1,2.7-0.2,4.1c-4.8-12.3-13.1-23.4-22.6-32.5
		c-14.8-14.2-34.3-22-52.7-30.4c-20.6-9.4-39.2-21.1-55.1-37.3C91.7,163.8,78.2,144.7,75.5,123.6z"/>
	<path class="st0" d="M85.6,491.6c19.8,6.9,41.7,7.6,62.7,2.5c80.4-19.2,118.1-105.3,139.7-176.9c22.5-74.7,26.1-157.7-13.6-227.4
		C238,25.9,159-17.7,88.5,18.9C33,47.7,8.8,120.6,40.8,175.2c0.1,0.3,0.3,0.5,0.6,0.7c15.4,31.1,39,57.5,67.4,77.7
		c12.6,8.9,26.9,16.5,40.5,24.5c11.6,7.2,22.3,15.1,31.5,25.4c10.9,12.4,18.8,27.2,23,43.2c3.9,14.6,4,30,1.3,44.8
		c-1.4,7.4-3.5,14.7-6.5,21.6c-2.5,6-6.1,11.4-7.8,17.6c-5,8.5-11.3,16.1-18.7,22.5c-15.2,13.1-35.9,19.9-55.8,15.9
		c-19.2-3.8-35.2-17.9-40.4-36.8c-6.1-22.4,0.7-50.9-22.5-65.2c-7.5-4.6-16.9-4.8-24.6-0.6c-9.9,5.3-12.8,18.5-13.5,28.7
		C12.9,437.5,45.4,480.5,85.6,491.6z M24.8,383.3c0.2-0.7,0.5-1.3,0.7-2c4.7-11.5,16.4-13.2,26.2-7.3c18,10.8,14,39.9,17.6,57.6
		c6.9,34.4,45.1,50.6,76.8,42.3c26.5-7,45-27.5,55.7-51.6c5.4-9.6,8.1-21.9,9.8-31.3c1.1-6.2,1.6-12.5,1.6-18.9
		c0.7-15.8-1.1-31.8-6.7-46.3c-9.5-24.3-31.7-40.2-53.4-52.9c-24.3-14.2-48-27.2-68.4-47.1c-18.1-17.6-32.6-38.7-43.9-61.2
		C29.9,133.4,31.2,98,47,68.7c18.2-33.8,55.6-55.4,93.6-56.6c27.6-0.9,54.1,9.1,76.6,24.7c-1.6-0.2-3.1,0.8-3.6,2.3
		c-0.5,2.1,0.7,4.3,2.8,5.1c0.4,0.2,0.8,0.4,1.2,0.4c1,0.3,2.1-0.2,2.6-1.1l0,0c0.3-0.4,0.5-0.8,0.6-1.3c0.3-1,0.2-2-0.2-2.9
		c9,6.6,17.3,14.2,24.9,22.4c2.9,3.2,5.6,6.4,8.3,9.8c-1.7-0.6-3.6,0.2-4.3,1.9c-0.6,1.7,0.2,3.6,1.9,4.3s3.6-0.2,4.3-1.9
		c0.2-0.5,0.2-1,0.2-1.5c5.6,7.5,10.6,15.4,15,23.6c-1.8-0.9-3.9-0.2-4.8,1.6c-0.9,1.8-0.2,3.9,1.6,4.8c1.4,0.7,3,0.4,4.1-0.7
		c0.6-0.6,0.9-1.3,1-2.1c11.1,21.6,18.3,45.3,22.1,69.1c6.5,40.4,2,82-7.6,121.6c-9.9,41.1-24.9,82.5-46.7,118.9
		c-20.7,34.5-51,63.3-90.1,75C111.8,497.7,71,486,45.1,454.8C28.3,434.5,23.5,408.8,24.8,383.3z"/>
	<path class="st0" d="M60.4,64.6c1.5-1.5,1.4-3.8,0-5.3c-1.5-1.5-3.8-1.4-5.3,0c-1.4,1.5-1.4,3.8,0,5.3C56.6,66,58.9,66,60.4,64.6z"
		/>
	<path class="st0" d="M51.8,78.8l0.2-0.1c2-0.9,2.1-3.9,0.7-5.3c-1.4-1.4-4.4-1.3-5.3,0.7l-0.1,0.2c-0.9,1.6-0.4,3.6,1.2,4.5
		C49.6,79.4,50.8,79.4,51.8,78.8z"/>
	<path class="st0" d="M47.6,95c1.3-1.3,1.3-3.4,0-4.7c-1.3-1.3-3.4-1.3-4.7,0c-1.3,1.3-1.3,3.4,0,4.7l0,0
		C44.2,96.2,46.3,96.2,47.6,95z"/>
	<path class="st0" d="M40,112.7c1.4,0.7,3.1,0.2,3.9-1.2c0.4-0.8,0.4-1.8,0-2.7c-0.6-1.2-1.8-1.9-3.1-1.8c-1.4,0-2.6,1.2-2.6,2.6
		C38.1,110.9,38.8,112.1,40,112.7z"/>
	<path class="st0" d="M43,130.8c1.2-1.2,1.2-3.2,0-4.4c-1.2-1.2-3.2-1.2-4.4,0c-1.2,1.2-1.2,3.2,0,4.4c0,0,0,0,0,0
		C39.9,132,41.8,132,43,130.8z"/>
	<path class="st0" d="M42.7,148.6l0.2,0.1c1.4,0.4,3-0.3,3.7-1.6c1-1.7,0.2-3.4-1.2-4.5l-0.2-0.2c-1.5-1.1-3.7-0.2-4.5,1.3
		c-0.9,1.6-0.3,3.7,1.3,4.6C42.2,148.5,42.4,148.6,42.7,148.6z"/>
	<path class="st0" d="M51.2,165.4c1.3-1.3,1.3-3.5,0-4.8c-1.3-1.3-3.5-1.3-4.8,0c-1.3,1.3-1.3,3.5,0,4.8
		C47.8,166.7,49.9,166.7,51.2,165.4z"/>
	<path class="st0" d="M58.4,184l0.4-0.1c1.5-0.4,2.4-2,2-3.6c-0.3-1-1-1.7-2-2l-0.4-0.1c-1.6-0.4-3.2,0.5-3.6,2.1
		c-0.4,1.6,0.5,3.2,2.1,3.6C57.3,184.2,57.9,184.2,58.4,184L58.4,184z"/>
	<circle class="st0" cx="65.8" cy="196.2" r="2.9"/>
	<path class="st0" d="M78.7,210.5c1.2-1.2,1.2-3.1,0-4.3c-1.2-1.2-3.1-1.2-4.3,0c-1.2,1.2-1.2,3.1,0,4.3c0,0,0,0,0,0
		C75.5,211.6,77.5,211.6,78.7,210.5z"/>
	<path class="st0" d="M91.8,222.9c1.2-1.2,1.2-3.1,0-4.2c-1.2-1.2-3.1-1.2-4.2,0c-1.2,1.2-1.2,3.1,0,4.2c0,0,0,0,0,0
		C88.7,224.1,90.6,224.1,91.8,222.9z"/>
	<path class="st0" d="M104.6,230.7c1.1-1.1,1.1-2.8,0-3.9c-1.1-1.1-2.8-1.1-3.9,0c-1.1,1.1-1.1,2.8,0,3.9c0,0,0,0,0,0
		C101.7,231.8,103.5,231.8,104.6,230.7z"/>
	<circle class="st0" cx="116" cy="238.8" r="2.8"/>
	<path class="st0" d="M134.6,253.9c1.3-1.3,1.3-3.5,0-4.8c-1.3-1.3-3.5-1.3-4.8,0c-1.3,1.3-1.3,3.5,0,4.8v0
		C131.1,255.2,133.2,255.2,134.6,253.9z"/>
	<path class="st0" d="M150.8,263.5c1.2-1.2,1.2-3.1,0-4.2c-1.2-1.2-3.1-1.2-4.2,0c-1.2,1.2-1.2,3.1,0,4.2l0,0
		C147.7,264.7,149.6,264.7,150.8,263.5z"/>
	<path class="st0" d="M159.3,269.7l0.2,0c1,0.2,2.1-0.2,2.6-1.1c0.6-1.1,0.2-2.5-0.9-3.1c-0.7-0.4-1.5-0.4-2.2,0
		c-0.9,0.5-1.4,1.6-1.1,2.6l0,0.2C158.1,269,158.7,269.5,159.3,269.7z"/>
	<path class="st0" d="M174.4,279.4c1.3,0.3,2.7-0.5,3-1.8c0.1-0.4,0.1-0.8,0-1.2c-0.2-0.6-0.5-1.2-0.9-1.6c-1.2-0.9-2.8-0.6-3.7,0.6
		c-0.7,0.9-0.7,2.2,0,3.1C173.3,278.9,173.8,279.2,174.4,279.4z"/>
	<path class="st0" d="M193.6,290.3c1.3-1.3,1.3-3.4,0-4.7c-1.3-1.3-3.4-1.3-4.7,0c-1.3,1.3-1.3,3.4,0,4.7c0,0,0,0,0,0
		C190.2,291.6,192.3,291.6,193.6,290.3z"/>
	<path class="st0" d="M205,304.3c3.1-3.1-1.7-7.9-4.8-4.8S201.9,307.4,205,304.3z"/>
	<path class="st0" d="M214.9,320.2c1.4-1.4,1.4-3.6,0-4.9c-1.4-1.4-3.6-1.4-4.9,0s-1.4,3.6,0,4.9
		C211.3,321.6,213.5,321.6,214.9,320.2z"/>
	<path class="st0" d="M218.4,335.8c1.2-1.2,1.2-3.2,0-4.5c-1.2-1.2-3.2-1.2-4.5,0c-1.2,1.2-1.2,3.2,0,4.5c0,0,0,0,0,0
		C215.1,337,217.1,337.1,218.4,335.8z"/>
	<circle class="st0" cx="219.8" cy="351.5" r="3.2"/>
	<path class="st0" d="M222.6,371.7c1.1-1.1,1.1-3,0-4.1c-1.1-1.1-3-1.1-4.1,0c-1.1,1.1-1.1,3,0,4.1c0,0,0,0,0,0
		C219.6,372.8,221.4,372.8,222.6,371.7z"/>
	<path class="st0" d="M69.3,50.2c1.1-1.1,1.1-3,0-4.1c-1.1-1.1-3-1.1-4.1,0c-1.1,1.1-1.1,3,0,4.1c0,0,0,0,0,0
		C66.4,51.3,68.2,51.3,69.3,50.2z"/>
	<circle class="st0" cx="77.5" cy="39.7" r="3.3"/>
	<path class="st0" d="M90.4,36.4c1.3-1.3,1.3-3.4,0-4.7c-1.3-1.3-3.4-1.3-4.7,0c-1.3,1.3-1.3,3.4,0,4.7c0,0,0,0,0,0
		C87,37.7,89.1,37.7,90.4,36.4z"/>
	<path class="st0" d="M101.8,28.8c1.2-1.2,1.2-3.2,0-4.4c-1.2-1.2-3.2-1.2-4.4,0c-1.2,1.2-1.2,3.2,0,4.4l0,0
		C98.6,30,100.6,30,101.8,28.8z"/>
	<path class="st0" d="M117,22.7c2.6-2.6-1.5-6.7-4.1-4.1S114.4,25.3,117,22.7z"/>
	<ellipse transform="matrix(0.7071 -0.7071 0.7071 0.7071 24.2179 95.3273)" class="st0" cx="127.2" cy="18.4" rx="2.7" ry="2.7"/>
	<path class="st0" d="M141.7,20.3c1.1-1.1,1.1-3,0-4.1s-3-1.1-4.1,0c-1.1,1.1-1.1,3,0,4.1l0,0C138.8,21.4,140.6,21.4,141.7,20.3z"/>
	<path class="st0" d="M156.2,23.7c1.7-0.5,2.7-2.2,2.3-3.9l0,0c-0.2-1.3-1.4-2.3-2.8-2.3c-1.7-0.2-3.3,1.1-3.5,2.8s1.1,3.3,2.8,3.5
		C155.4,23.8,155.8,23.8,156.2,23.7z"/>
	<path class="st0" d="M174.8,25.5c1.3-1.3,1.3-3.5,0-4.8c-1.3-1.3-3.5-1.3-4.8,0c-1.3,1.3-1.3,3.5,0,4.8c0,0,0,0,0,0
		C171.3,26.8,173.5,26.8,174.8,25.5z"/>
	<path class="st0" d="M190.9,29.3c1.4-1.4,1.4-3.7,0-5.1c-1.4-1.4-3.7-1.4-5.1,0c-1.4,1.4-1.4,3.7,0,5.1c0,0,0,0,0,0
		C187.2,30.6,189.5,30.7,190.9,29.3z"/>
	<path class="st0" d="M204.5,35.6c0.5-1,0.5-2.3,0-3.3c-0.9-2-3.9-2.1-5.3-0.7c-1.3,1.3-1.3,3.4,0,4.7
		C200.7,37.7,203.6,37.6,204.5,35.6z"/>
	<path class="st0" d="M227.9,55.1l0.2,0.1c1.4,0.5,3.1-0.4,3.8-1.6c0.2-0.3,0.3-0.5,0.3-0.8c0.4-1.8-0.6-3.7-2.4-4.2l-0.2-0.1
		c-1.7-0.6-3.7,0.8-4.1,2.4C224.9,52.9,226.1,54.5,227.9,55.1z"/>
	<path class="st0" d="M242.5,67.3c1.4-1.4,1.4-3.6,0-4.9c-1.4-1.4-3.6-1.4-4.9,0c-1.4,1.4-1.4,3.6,0,4.9
		C238.9,68.6,241.2,68.6,242.5,67.3z"/>
	<path class="st0" d="M262.4,89.3c1.3-1.3,1.3-3.4,0-4.7s-3.4-1.3-4.7,0s-1.3,3.4,0,4.7l0,0C259,90.6,261.1,90.6,262.4,89.3z"/>
	<path class="st0" d="M276.7,119.1c1.4-1.4,1.4-3.6,0-5c-1.4-1.4-3.6-1.4-5,0c-1.4,1.4-1.4,3.6,0,5
		C273.1,120.5,275.4,120.5,276.7,119.1z"/>
	<path class="st0" d="M280.7,133.8c3.2-3.2-1.8-8.2-5-5C272.4,132,277.4,137,280.7,133.8z"/>
	<path class="st0" d="M286.8,147.9c1.4-1.4,1.4-3.7,0-5c-1.4-1.4-3.7-1.4-5,0c-1.4,1.4-1.4,3.7,0,5
		C283.1,149.3,285.4,149.3,286.8,147.9z"/>
	<path class="st0" d="M290.5,165.8c1.4-1.4,1.4-3.7,0-5.1c-1.4-1.4-3.7-1.4-5.1,0c-1.4,1.4-1.4,3.7,0,5.1c0,0,0,0,0,0
		C286.8,167.2,289.1,167.2,290.5,165.8z"/>
	<circle class="st0" cx="290.5" cy="178.6" r="3.4"/>
	<circle class="st0" cx="292.7" cy="195" r="3.4"/>
	<circle class="st0" cx="292.7" cy="211.2" r="2.5"/>
	<path class="st0" d="M294.6,231.4c1.5-1.4,1.5-3.8,0-5.2s-3.8-1.5-5.2,0c-1.5,1.4-1.5,3.8,0,5.2c0,0,0,0,0,0
		C290.9,232.8,293.2,232.8,294.6,231.4z"/>
	<path class="st0" d="M289.6,250.7c1.9,0,3.5-1.5,3.5-3.5c0-1.9-1.5-3.5-3.5-3.5c-1.6,0-3,1.1-3.4,2.6c-0.5,1.9,0.6,3.8,2.5,4.2
		C289.1,250.7,289.3,250.7,289.6,250.7z"/>
	<path class="st0" d="M290.1,266.3c1.1-1.1,1.1-3,0-4.1c-1.1-1.1-3-1.1-4.1,0c-1.1,1.1-1.1,3,0,4.1c0,0,0,0,0,0
		C287.2,267.4,289,267.4,290.1,266.3z"/>
	<circle class="st0" cx="284.2" cy="278.3" r="3.3"/>
	<path class="st0" d="M284.1,297.7c1.4-1.4,1.4-3.6,0-5s-3.6-1.4-5,0c-1.4,1.4-1.4,3.6,0,5c0,0,0,0,0,0
		C280.5,299,282.7,299,284.1,297.7z"/>
	<path class="st0" d="M276.1,313.3l0.2,0.2c1.6,0.9,3.7,0.3,4.6-1.3c0.6-1,0.6-2.3,0-3.3c-0.1,0-0.1-0.1-0.2-0.2
		c-0.5-0.8-1.2-1.3-2.1-1.6c-1.8-0.5-3.7,0.6-4.2,2.5c-0.1,0.3-0.1,0.6-0.1,0.9C274.4,311.6,275.1,312.7,276.1,313.3z"/>
	<path class="st0" d="M273.1,329.7c1.3-1.3,1.3-3.3,0-4.5c-1.3-1.3-3.3-1.3-4.5,0c-1.3,1.3-1.3,3.3,0,4.5
		C269.8,330.9,271.9,330.9,273.1,329.7z"/>
	<path class="st0" d="M267.8,346.1c1.3-1.3,1.3-3.5,0-4.8c-1.3-1.3-3.5-1.3-4.8,0s-1.3,3.5,0,4.8l0,0
		C264.3,347.4,266.4,347.4,267.8,346.1z"/>
	<path class="st0" d="M264,362.6c1.3-1.3,1.3-3.4,0-4.7c-1.3-1.3-3.4-1.3-4.7,0c-1.3,1.3-1.3,3.4,0,4.7
		C260.6,363.9,262.7,363.9,264,362.6z"/>
	<path class="st0" d="M257.2,377.4c1-1,1-2.7,0-3.7c-1-1-2.7-1-3.7,0c-1,1-1,2.7,0,3.7c0,0,0,0,0,0
		C254.5,378.5,256.2,378.5,257.2,377.4z"/>
	<path class="st0" d="M251.1,390.1c1.2-1.2,1.2-3.3,0-4.5s-3.3-1.2-4.5,0s-1.2,3.3,0,4.5C247.8,391.4,249.8,391.4,251.1,390.1z"/>
	<path class="st0" d="M242.4,403.8c1.1-1.1,1.1-3,0-4.1c-1.1-1.1-3-1.1-4.1,0s-1.1,3,0,4.1c0,0,0,0,0,0
		C239.5,404.9,241.3,404.9,242.4,403.8z"/>
	<path class="st0" d="M231.1,418.2l0.9,0.1c1.1-0.2,1.2-0.1,0.3,0c1.7,0,3.1-1.3,3.1-3c0,0,0,0,0,0c-0.1,0.8-0.1,0.7,0-0.3
		c0-1.9-1.5-3.4-3.4-3.4c-1.9,0-3.4,1.5-3.4,3.4C228.5,416.4,229.6,417.8,231.1,418.2L231.1,418.2z"/>
	<path class="st0" d="M220.7,435.3c1.2-1.2,1.2-3.3,0-4.5c-1.2-1.2-3.3-1.2-4.5,0s-1.2,3.3,0,4.5
		C217.5,436.6,219.5,436.6,220.7,435.3z"/>
	<path class="st0" d="M222.5,386.7l0-0.2c0.5-2-0.7-3.9-2.7-4.4c-2-0.5-3.9,0.7-4.4,2.7c-0.1,0.6-0.1,1.2,0,1.8l0,0.2
		C216.2,390.2,221.7,390.2,222.5,386.7z"/>
	<path class="st0" d="M217.1,405.4c3-3-1.7-7.6-4.6-4.6C209.4,403.7,214.1,408.4,217.1,405.4z"/>
	<path class="st0" d="M208,422l0.2,0.1c2.9,1.8,6.6-1.9,4.8-4.8l-0.1-0.2c-1-1.7-3.1-2.3-4.8-1.3c-1.7,1-2.3,3.1-1.3,4.8
		C207,421.2,207.4,421.7,208,422z"/>
	<path class="st0" d="M207,437.1c3-3-1.7-7.6-4.6-4.6C199.3,435.4,204,440.1,207,437.1z"/>
	<ellipse transform="matrix(0.7071 -0.7071 0.7071 0.7071 -257.5533 275.3833)" class="st0" cx="203.6" cy="448.6" rx="3" ry="3"/>
	<path class="st0" d="M191.2,451.9c0.6,0.5,1.3,0.9,2.1,0.9c1.7,0,3-1.4,3-3c0-0.8-0.4-1.6-0.9-2.1l-0.2-0.2c-1-1.3-3.3-1.1-4.3,0
		c-1.1,1.1-1.3,3.3,0,4.3L191.2,451.9z"/>
	<path class="st0" d="M186.6,465.6c1.4-1.4,1.4-3.7,0-5c-1.4-1.4-3.7-1.4-5,0c-1.4,1.4-1.4,3.7,0,5c0,0,0,0,0,0
		C183,466.9,185.2,466.9,186.6,465.6z"/>
	
		<ellipse transform="matrix(0.7071 -0.7071 0.7071 0.7071 -283.4932 258.6503)" class="st0" cx="170.5" cy="471.5" rx="3.5" ry="3.5"/>
	<circle class="st0" cx="158.5" cy="477.6" r="3"/>
	<path class="st0" d="M145.4,484.2l0.2-0.1c1.7-0.4,2.7-2.1,2.2-3.8c-0.4-1.7-2.1-2.7-3.8-2.2c-1.1,0.3-1.9,1.1-2.2,2.2l-0.1,0.2
		c-0.4,1.6,0.6,3.3,2.2,3.7C144.4,484.3,144.9,484.3,145.4,484.2z"/>
	<path class="st0" d="M132.1,486.3c2-2-1.1-5.2-3.2-3.2C126.8,485.1,130,488.3,132.1,486.3z"/>
	<path class="st0" d="M118.3,485.3c2.1-2.1-1.2-5.3-3.2-3.2S116.2,487.4,118.3,485.3z"/>
	<path class="st0" d="M104.2,483.4c2.7-2.7-1.5-6.9-4.2-4.2C97.3,481.9,101.5,486.1,104.2,483.4z"/>
	<path class="st0" d="M89.9,477.2c1.2-1.2,1.2-3,0-4.2c-1.2-1.2-3-1.2-4.2,0c-1.2,1.2-1.2,3,0,4.2c0,0,0,0,0,0
		C86.9,478.3,88.7,478.3,89.9,477.2z"/>
	<path class="st0" d="M72.7,470.9c2.2,0.4,4.5-0.6,5.7-2.5c1.1-1.5,1.5-3.5,1.1-5.4c-0.7-3.7-5.4-6.6-8.8-4.2
		c-0.1,0.1-0.2,0.2-0.2,0.2c-1.4,0.9-2.5,2.3-3.1,3.9C66.3,466.5,69.3,470.5,72.7,470.9z"/>
	<polygon class="st0" points="73.9,465.2 73.9,465.2 73.9,465.2 73.9,465.2 	"/>
	<path class="st0" d="M53,452.4c2.4,1.9,6.5,3.5,9.5,2.7c2.8-0.7,4.6-4.1,5.1-6.7c0.6-3.1-0.5-6.3-2.8-8.4c-1.6-1.3-3.6-2-5.6-2
		c-1.3-0.7-2.8-0.8-4.3-0.5c-3.5,0.7-5.2,4.1-5.6,7.3C49,447.7,50.9,450.8,53,452.4z"/>
	<path class="st0" d="M57.3,427.1c5.9-5.4,5.1-14.8-0.8-19.7c-4.9-4-12.6-4.5-17.2-0.2c-5.2,4-6.5,12.1-2.7,17.8
		C41.3,432.2,51.1,432.8,57.3,427.1z"/>
	<path class="st0" d="M37.5,397.2c0.2,0.1,0.3,0.1,0.5,0.2c3.8,2.2,8.6,1.8,12-1.1c4.6-3.7,5.4-10.5,1.7-15.1
		c-0.3-0.3-0.5-0.6-0.8-0.9c-4.3-4.3-11.2-4.4-15.5-0.1c-0.2,0.2-0.5,0.5-0.7,0.7C30.6,386,31.1,394.3,37.5,397.2z"/>
	<path class="st0" d="M258.8,257.5c4.8,2.7,11.7,3.5,17,5c0.9,0.2,1.9-0.3,2.1-1.3c0.1-0.4,0-0.9-0.2-1.3c-2.8-5.2-7-11.9-12.7-14.8
		c-3.6-3.2-10.4-0.7-10.8,4.6C254,253.5,255.6,255.8,258.8,257.5z M261.5,254.9c-4.8-2.5-5-4.8-0.4-7.2c0.5,0.1,1,0.2,1.5,0.3
		c3.4,1.8,7.1,6.3,9.6,9.9c-1.9-0.5-3.9-1.1-5.8-1.6C264.8,255.9,263.2,255.4,261.5,254.9L261.5,254.9z"/>
	<path class="st0" d="M252.2,278c3.8,4,10.1,6.8,14.7,9.9c0.8,0.5,1.9,0.2,2.4-0.6c0.2-0.4,0.3-0.8,0.2-1.2
		c-1.1-5.8-3.1-13.5-7.6-18c-2.4-4.1-9.8-3.8-11.7,1.2C248.9,272.6,249.7,275.4,252.2,278z M255.6,276.3c-3.8-3.8-3.2-6.1,1.8-6.9
		c0.5,0.2,1,0.5,1.4,0.8c2.7,2.7,4.8,8.2,6.1,12.3c-1.7-1.1-3.3-2.2-5-3.3C258.4,278.2,257,277.3,255.6,276.3L255.6,276.3z"/>
	<path class="st0" d="M246.8,300.1c2.4,5,7.4,9.7,10.8,14c0.6,0.7,1.7,0.8,2.5,0.2c0.3-0.3,0.5-0.7,0.6-1.1
		c0.8-5.9,1.3-13.8-1.5-19.4c-1-4.7-8.1-6.6-11.5-2.6C245.3,294,245.3,296.9,246.8,300.1z M250.6,299.6c-2.4-4.8-1.2-6.8,3.8-6
		c0.4,0.4,0.8,0.7,1.1,1.2c1.7,3.4,2,9.3,1.9,13.6c-1.3-1.6-2.5-3.1-3.7-4.7C252.7,302.3,251.6,300.9,250.6,299.6L250.6,299.6z"/>
	<path class="st0" d="M233.7,316.1c0.7,5.5,4.1,11.4,6.1,16.6c0.4,0.9,1.4,1.3,2.3,0.9c0.4-0.2,0.7-0.5,0.9-0.9
		c2.6-5.4,5.4-12.7,4.4-19c0.4-4.8-5.7-8.8-10.1-5.9C234.1,309.8,233.2,312.5,233.7,316.1z M237.4,316.7c-0.9-5.3,1-6.9,5.5-4.6
		c0.3,0.5,0.5,0.9,0.7,1.4c0.6,3.8-0.9,9.5-2.3,13.6c-0.7-1.9-1.4-3.7-2.1-5.6C238.6,319.9,238,318.4,237.4,316.7L237.4,316.7z"/>
	<path class="st0" d="M263.1,234.5c4.8,2.7,11.7,3.5,17,5c0.9,0.2,1.9-0.4,2.1-1.3c0.1-0.4,0-0.9-0.2-1.2c-2.8-5.2-7-11.9-12.7-14.8
		c-3.6-3.2-10.5-0.6-10.8,4.6C258.3,230.4,260,232.8,263.1,234.5z M265.8,231.9c-4.8-2.5-5-4.9-0.4-7.2c0.5,0.1,1,0.2,1.5,0.3
		c3.4,1.8,7.1,6.3,9.6,9.9l-5.8-1.6C269.1,232.8,267.5,232.3,265.8,231.9L265.8,231.9z"/>
	<path class="st0" d="M266,210.1c5,2.4,11.9,2.6,17.3,3.7c0.9,0.2,1.8-0.5,2-1.4c0.1-0.4,0-0.9-0.2-1.2c-3.1-5-7.9-11.4-13.7-13.9
		c-3.8-2.9-10.4,0.1-10.4,5.4C261,206.4,262.8,208.6,266,210.1z M268.6,207.3c-5-2.1-5.3-4.5-0.9-7.1c0.5,0,1.1,0.1,1.6,0.2
		c3.5,1.5,7.5,5.8,10.2,9.2l-5.9-1.2C271.9,208,270.3,207.7,268.6,207.3z"/>
	<path class="st0" d="M263.1,185.3c5.3,1.6,12.1,0.8,17.6,1.2c1,0,1.8-0.7,1.8-1.7c0-0.5-0.1-0.9-0.5-1.3
		c-3.8-4.5-9.5-10.1-15.6-11.7c-4.2-2.3-10.3,1.6-9.5,6.9C257.5,182.4,259.7,184.3,263.1,185.3z M265.2,182.2
		c-5.2-1.4-5.9-3.6-2-6.9c0.5-0.1,1.1-0.1,1.6,0c3.7,1,8.3,4.6,11.5,7.6l-6-0.3C268.6,182.4,266.9,182.3,265.2,182.2L265.2,182.2z"
		/>
	<path class="st0" d="M259.8,158.8c5.5,0.6,12.1-1.3,17.6-1.9c1-0.1,1.6-1,1.5-2c-0.1-0.4-0.3-0.8-0.6-1.1
		c-4.6-3.8-11.1-8.3-17.4-8.8c-4.5-1.5-9.9,3.4-8.2,8.4C253.9,156.9,256.3,158.5,259.8,158.8z M261.4,155.3
		c-5.4-0.4-6.5-2.6-3.2-6.4c0.5-0.2,1-0.3,1.6-0.3c3.8,0.3,9,3.1,12.6,5.4l-6,0.7C264.7,155,263.1,155.2,261.4,155.3z"/>
	<path class="st0" d="M252.5,132c5.5-0.6,11.5-3.8,16.7-5.7c0.9-0.4,1.3-1.4,1-2.3c-0.2-0.4-0.5-0.7-0.8-0.9
		c-5.3-2.7-12.6-5.7-18.9-4.9c-4.7-0.5-8.9,5.4-6.2,10C246.3,131.4,249,132.4,252.5,132z M253.3,128.3c-5.4,0.7-6.8-1.1-4.4-5.7
		c0.5-0.3,0.9-0.5,1.5-0.7c3.8-0.5,9.4,1.1,13.5,2.6l-5.7,2C256.5,127.2,254.9,127.7,253.3,128.3z"/>
	<path class="st0" d="M241.1,107.7c5-2.4,9.6-7.5,13.9-10.9c0.7-0.6,0.8-1.7,0.2-2.5c-0.3-0.3-0.7-0.5-1.1-0.6
		c-5.9-0.8-13.8-1.2-19.4,1.7c-4.7,1.1-6.6,8.1-2.5,11.5C235,109.2,237.8,109.2,241.1,107.7z M240.5,103.9c-4.8,2.5-6.8,1.2-6.1-3.8
		c0.3-0.4,0.7-0.8,1.1-1.1c3.4-1.7,9.3-2.1,13.6-2.1l-4.7,3.8C243.2,101.8,241.9,102.8,240.5,103.9z"/>
	<path class="st0" d="M221.8,85c4.6-3.1,8.5-8.8,12.2-12.8c0.6-0.7,0.6-1.8-0.2-2.5c-0.3-0.3-0.7-0.4-1.2-0.4
		c-5.9,0.1-13.8,0.8-19,4.4c-4.4,1.7-5.4,9-0.8,11.7C215.9,87.3,218.8,86.9,221.8,85z M220.7,81.3c-4.4,3.1-6.6,2.2-6.5-2.9
		c0.3-0.4,0.6-0.9,1-1.3c3.1-2.2,8.9-3.4,13.2-3.9l-4.1,4.4C223,78.8,221.9,80.1,220.7,81.3L220.7,81.3z"/>
	<path class="st0" d="M199.7,65.1c3.9-3.9,6.6-10.2,9.6-14.9c0.5-0.8,0.2-1.9-0.7-2.4c-0.4-0.2-0.8-0.3-1.2-0.2
		c-5.8,1.2-13.4,3.4-17.8,7.9c-4,2.5-3.6,9.8,1.4,11.7C194.4,68.5,197.1,67.6,199.7,65.1z M198,61.7c-3.7,3.9-6.1,3.4-7-1.6
		c0.2-0.5,0.4-1,0.7-1.4c2.7-2.8,8.1-5,12.2-6.4l-3.2,5.1C199.8,58.8,198.9,60.2,198,61.7L198,61.7z"/>
	<path class="st0" d="M173.9,49.9c2.6-4.9,3.3-11.7,4.7-17c0.2-0.9-0.4-1.9-1.3-2.1c-0.4-0.1-0.9,0-1.2,0.2
		c-5.2,2.9-11.8,7.2-14.6,12.9c-3.1,3.6-0.5,10.4,4.8,10.7C169.9,54.8,172.2,53.1,173.9,49.9z M171.2,47.2c-2.4,4.9-4.8,5-7.1,0.5
		c0-0.5,0.1-1.1,0.3-1.6c1.7-3.4,6.2-7.2,9.7-9.7c-0.5,1.9-1,3.9-1.5,5.8C172.2,43.9,171.7,45.6,171.2,47.2L171.2,47.2z"/>
	<path class="st0" d="M147.1,42.8c1.4-5.3,0.5-12.2,0.7-17.7c0-1-0.8-1.7-1.8-1.7c-0.4,0-0.8,0.2-1.2,0.5c-4.4,4-9.8,9.7-11.3,15.9
		c-2.2,4.2,1.9,10.3,7.1,9.3C144.3,48.4,146.1,46.2,147.1,42.8z M143.8,40.7c-1.2,5.3-3.5,6-6.8,2.1c-0.1-0.5-0.1-1.1-0.1-1.6
		c0.9-3.7,4.4-8.4,7.3-11.7l-0.2,6C144,37.3,143.9,39.1,143.8,40.7z"/>
	<path class="st0" d="M121.1,44.9c0.1-5.5-2.4-11.9-3.5-17.3c-0.2-0.9-1.2-1.5-2.1-1.3c-0.4,0.1-0.8,0.4-1,0.7
		c-3.3,4.9-7.2,11.8-7.2,18.1c-1.1,4.6,4.3,9.5,9.1,7.4C119.7,51.1,121,48.5,121.1,44.9z M117.4,43.7c0.1,5.4-2,6.6-6.2,3.7
		c-0.2-0.5-0.4-1-0.5-1.5c0-3.8,2.3-9.2,4.3-13.1c0.4,2,0.9,3.9,1.3,5.9C116.8,40.4,117.1,42,117.4,43.7L117.4,43.7z"/>
	<path class="st0" d="M91.4,58.6c-1.5-5.3-5.8-10.7-8.5-15.5c-0.5-0.8-1.6-1.1-2.4-0.6c-0.4,0.2-0.6,0.6-0.8,1
		c-1.7,5.7-3.4,13.4-1.5,19.4c0.3,4.8,6.9,7.8,10.9,4.3C91.9,64.8,92.4,62,91.4,58.6z M87.6,58.5c1.7,5.1,0.1,6.9-4.8,5.4
		c-0.3-0.4-0.6-0.8-0.9-1.3c-1.2-3.6-0.5-9.5,0.2-13.8l3,5.2C86,55.5,86.8,57,87.6,58.5L87.6,58.5z"/>
	<path class="st0" d="M231.3,292.8c-3.5-4-10.4-1.9-11.4,2.8c-2.7,5.7-2.1,13.6-1.2,19.4c0.1,1,1,1.6,2,1.5c0.4-0.1,0.8-0.3,1.1-0.6
		c3.3-4.4,8.3-9.1,10.6-14.2C233.8,298.4,233.7,295.6,231.3,292.8z M225.5,305.3l-3.7,4.8c-0.2-4.3,0-10.2,1.7-13.6
		c0.3-0.4,0.7-0.8,1.1-1.2c5-0.9,6.3,1.1,4,6C227.6,302.6,226.5,304,225.5,305.3L225.5,305.3z"/>
	<path class="st0" d="M224.5,276.7c-2.4-4.7-9.7-4.3-11.7,0c-4,4.9-5.2,12.7-5.7,18.6c-0.1,1,0.6,1.8,1.6,1.9c0.4,0,0.8-0.1,1.2-0.3
		c4.3-3.5,10.2-6.9,13.6-11.3C225.6,282.7,226.2,279.9,224.5,276.7z M216,287.5c-1.5,1.3-3.1,2.5-4.7,3.8c0.9-4.2,2.4-9.9,4.8-12.9
		c0.4-0.3,0.8-0.6,1.3-0.9c5.1,0.3,5.9,2.5,2.5,6.7C218.6,285.3,217.3,286.4,216,287.5L216,287.5z"/>
	<path class="st0" d="M211.9,257.3c-3.2-4.2-10.3-2.5-11.6,2.1c-3.1,5.5-2.9,13.4-2.4,19.3c0.1,1,0.9,1.7,1.9,1.6
		c0.4,0,0.8-0.2,1.1-0.5c3.6-4.2,8.9-8.6,11.4-13.5C214,263.1,214.1,260.2,211.9,257.3z M205.3,269.5l-3.9,4.5
		c0.1-4.3,0.6-10.2,2.5-13.5c0.3-0.4,0.7-0.8,1.1-1.1c5-0.6,6.2,1.5,3.6,6.2C207.5,266.9,206.4,268.2,205.3,269.5L205.3,269.5z"/>
	<path class="st0" d="M190.9,240.4c-4.6-2.6-10.5,1.7-9.8,6.5c-0.6,6.3,2.6,13.5,5.5,18.7c0.5,0.8,1.5,1.2,2.4,0.7
		c0.4-0.2,0.7-0.5,0.8-1c1.7-5.3,4.7-11.4,5.1-16.9C195.1,244.8,194.1,242.2,190.9,240.4z M189.6,254.2c-0.6,1.9-1.2,3.8-1.8,5.7
		c-1.6-4-3.4-9.6-3-13.4c0.2-0.5,0.4-1,0.6-1.5c4.4-2.5,6.3-1.1,5.8,4.3C190.7,250.9,190.1,252.5,189.6,254.2L189.6,254.2z"/>
	<path class="st0" d="M166.3,230.6c-5-1.7-10,3.6-8.4,8.2c0.5,6.3,5,12.8,8.8,17.4c0.6,0.7,1.7,0.9,2.4,0.3c0.3-0.3,0.6-0.7,0.6-1.1
		c0.7-5.5,2.6-12.1,2-17.6C171.3,234.3,169.8,231.8,166.3,230.6z M167.7,244.4l-0.7,6c-2.3-3.6-5.1-8.8-5.4-12.6
		c0.1-0.5,0.2-1,0.3-1.6c3.9-3.3,6-2.3,6.4,3.1C168.1,241,167.9,242.7,167.7,244.4z"/>
	<path class="st0" d="M143.7,218.2c-4.5-2.7-10.5,1.4-10,6.2c-0.8,6.3,2.2,13.6,4.9,18.9c0.4,0.9,1.5,1.2,2.3,0.8
		c0.4-0.2,0.7-0.5,0.8-0.9c1.8-5.2,5.1-11.2,5.7-16.7C147.8,222.8,146.8,220.1,143.7,218.2z M142,232l-2,5.7
		c-1.5-4.1-3.1-9.7-2.6-13.5c0.2-0.5,0.4-1,0.6-1.4c4.5-2.4,6.4-0.9,5.6,4.4C143.1,228.8,142.6,230.4,142,232z"/>
	<path class="st0" d="M122.3,206c-3.4-4.1-10.4-2.2-11.5,2.5c-2.9,5.6-2.5,13.5-1.7,19.4c0.1,1,1,1.6,1.9,1.5
		c0.4-0.1,0.8-0.3,1.1-0.6c3.5-4.3,8.6-8.9,10.9-13.9C124.6,211.7,124.6,208.9,122.3,206z M116.1,218.4l-3.8,4.7
		c0-4.3,0.3-10.2,2.1-13.6c0.3-0.4,0.7-0.8,1.1-1.1c5-0.7,6.3,1.3,3.8,6.1C118.2,215.8,117.2,217.1,116.1,218.4L116.1,218.4z"/>
	<path class="st0" d="M101,188.5c-2.7-4.5-10-3.6-11.7,0.8c-3.7,5.2-4.4,13-4.4,19c0,1,0.7,1.8,1.7,1.8c0.4,0,0.9-0.1,1.2-0.4
		c4-3.8,9.7-7.6,12.8-12.2C102.5,194.4,102.9,191.6,101,188.5z M93.1,199.9c-1.5,1.4-2.9,2.7-4.4,4.1c0.6-4.3,1.7-10,3.9-13.2
		c0.4-0.4,0.8-0.7,1.3-1c5.1,0,6,2.1,2.9,6.6C95.6,197.5,94.4,198.7,93.1,199.9z"/>
	<path class="st0" d="M81.8,167.7c-1.8-5-9.1-5.4-11.7-1.4c-4.6,4.4-6.8,12-7.9,17.8c-0.2,0.9,0.4,1.9,1.3,2.1
		c0.4,0.1,0.9,0,1.2-0.2c4.7-2.9,11-5.6,14.9-9.6C82.1,173.8,83,171.1,81.8,167.7z M71.9,177.3l-5.1,3.2c1.4-4.1,3.6-9.5,6.4-12.2
		c0.5-0.3,0.9-0.5,1.4-0.7c5,0.9,5.5,3.3,1.6,7C74.8,175.5,73.3,176.4,71.9,177.3z"/>
	<path class="st0" d="M69.1,142.9c-0.3-5.3-7.1-7.9-10.7-4.8c-5.7,2.8-10,9.4-12.9,14.6c-0.5,0.8-0.2,1.9,0.7,2.4
		c0.4,0.2,0.8,0.3,1.2,0.2c5.3-1.4,12.2-2.1,17-4.7C67.6,148.9,69.3,146.6,69.1,142.9z M56.8,149.2c-1.9,0.5-3.9,1-5.8,1.6
		c2.5-3.5,6.3-8,9.7-9.7c0.5-0.2,1-0.3,1.5-0.3c4.5,2.4,4.3,4.8-0.5,7.1C60.1,148.4,58.5,148.8,56.8,149.2L56.8,149.2z"/>
	<path class="st0" d="M65,115.9c0.9-5.2-5.1-9.3-9.3-7.1c-6.2,1.5-11.9,6.9-15.9,11.3c-0.6,0.7-0.6,1.8,0.1,2.5
		c0.3,0.3,0.7,0.4,1.2,0.5c5.5-0.2,12.3,0.7,17.7-0.7C62.2,121.4,64.4,119.5,65,115.9z M51.6,119.3l-6,0.2c3.2-2.8,7.9-6.4,11.7-7.3
		c0.5,0,1.1,0,1.6,0.1c3.8,3.3,3.1,5.6-2.1,6.8C55,119.2,53.3,119.2,51.6,119.3L51.6,119.3z"/>
	<path class="st0" d="M74.8,88.8c2.2-4.8-2.7-10.3-7.4-9.1c-6.3,0-13.2,3.9-18.1,7.2c-0.8,0.5-1,1.6-0.5,2.4c0.2,0.4,0.6,0.6,1,0.7
		c5.4,1.2,11.8,3.6,17.3,3.5C70.8,93.4,73.3,92.1,74.8,88.8z M61,88.9l-5.9-1.3c3.8-2,9.2-4.3,13.1-4.3c0.5,0.1,1,0.3,1.5,0.5
		c2.9,4.2,1.7,6.2-3.7,6.2C64.3,89.6,62.6,89.2,61,88.9L61,88.9z"/>
	<path class="st0" d="M231.4,384.3c0.2-0.1,0.5-0.2,0.7-0.3c0.4,0,0.8-0.2,1-0.5c5.8-7.2,10-16,13.8-24.4c3.4-7.7,6.9-16.3,7.5-24.7
		c0-0.6-0.5-1.1-1.1-1c0,0,0,0,0,0c0-0.3-0.2-0.6-0.5-0.7c-0.7-0.3-1.3,0.5-1.8,1.1c-0.1,0.1-0.2,0.1-0.3,0.2
		c-1.9,2.1-3.1,4.7-4.5,7.1c-1.2,2.1-2.5,4.1-4,6c-1.2-2.2-2.5-4.4-3.9-6.5c-1.7-2.4-3.5-5.8-6.6-6.3c-0.6-0.2-1.3,0.2-1.4,0.9
		c0,0.1,0,0.2,0,0.3c0,0.9,0.2,1.7,0.6,2.5c1.7,6,4.3,11.3,4.8,17.8c0.6,7.2-2.4,13.2-3.1,20.1c-0.1,0.5-0.3,1-0.4,1.4
		c-0.6,1.8-2.6,5.2-1.3,7C230.9,384.3,231.1,384.4,231.4,384.3z M238.1,348.4c0.7,1.1,1.3,2.3,2,3.4c0.6,1,2.3,1.5,3.1,0.4
		c1.4-1.8,3-3.8,4.5-5.9c-1.2,3.7-2.5,7.4-4,11c-1.4,3.3-3,6.4-4.6,9.6C240,360.7,239.7,354.4,238.1,348.4z"/>
	<path class="st0" d="M106.5,101.6c0.4-0.1,0.7-0.3,0.9-0.6c0.1,0.1,0.2,0.2,0.3,0.3c0.1,0.1,0.3-0.1,0.3-0.2
		c-0.9-4.8-3.3-9.3-6.7-12.8c-2.3-2.3-6.9-2.6-8.9,0.3C86.5,97,99.7,102.9,106.5,101.6z M98.4,90.2c2.5,1.1,4.2,4.9,5.6,7.1
		c0.1,0.1,0.2,0.3,0.3,0.4c-1.2-0.3-2.4-0.4-3.7-0.6c-1.6-0.3-3.2-1-4.5-2.1C94.5,93.7,93.7,88.2,98.4,90.2z"/>
	<path class="st0" d="M117.2,90.8c0.4,0.1,0.7,0,1.1-0.2c0.1,0.1,0.1,0.2,0.2,0.3c0.1,0.1,0.3,0.1,0.4-0.1c1.2-4.4,0.7-10.2-1-14.4
		c-1.2-3.1-5.3-5.2-8.3-3.3C100.8,78.5,110.5,89.2,117.2,90.8z M114.5,77.2c1.9,2,1.8,6.2,2.2,8.8c0,0.2,0.1,0.3,0.1,0.5
		c-1-0.7-2.1-1.3-3.1-2.1c-1.4-0.9-2.5-2.2-3.3-3.7C109.5,78.8,110.9,73.4,114.5,77.2z"/>
	<path class="st0" d="M132.9,85.9c0.3,0.2,0.7,0.3,1.1,0.1c0,0.1,0,0.2,0.1,0.4c0,0.1,0.3,0.1,0.4,0c2.4-4.3,3.5-9.2,3.2-14.1
		c-0.3-3.3-3.6-6.5-7-5.5C120.6,69.4,126.9,82.4,132.9,85.9z M134.1,72c1.2,2.5,0,6.4-0.3,9c0,0.2,0,0.4,0,0.5
		c-0.7-1-1.6-1.9-2.4-2.9c-1.1-1.3-1.8-2.9-2.1-4.5C128.9,72.1,131.8,67.4,134.1,72z"/>
	<path class="st0" d="M150,86.3c0.3,0.3,0.6,0.4,1,0.4l0,0.4c0,0.2,0.2,0.2,0.3,0.1c3.6-3.4,6-7.8,7.1-12.6c0.7-3.2-1.6-7.2-5.1-7.3
		C143,67,145.3,81.3,150,86.3z M155.2,73.4c0.5,2.7-1.9,6.2-2.9,8.6c-0.1,0.2-0.1,0.3-0.2,0.5c-0.4-1.2-1-2.3-1.5-3.4
		c-0.6-1.6-0.9-3.2-0.7-4.9C150.1,72,154.3,68.3,155.2,73.4z"/>
	<path class="st0" d="M164.7,91.2c0.1,0.4,0.4,0.6,0.8,0.8l-0.2,0.3c-0.1,0.2,0.1,0.3,0.3,0.3c4.6-1.8,8.5-5,11.3-9
		c1.9-2.7,1.3-7.3-2-8.7C165.5,70.7,162.3,84.8,164.7,91.2z M174.4,81.2c-0.6,2.7-4.1,5-5.9,6.8c-0.1,0.1-0.2,0.2-0.4,0.4
		c0-1.2-0.1-2.5-0.1-3.8c0-1.7,0.4-3.3,1.2-4.8C170.2,78,175.5,76.1,174.4,81.2L174.4,81.2z"/>
	<path class="st0" d="M180.2,101.9c0.1,0.4,0.4,0.7,0.7,0.8l-0.2,0.3c-0.1,0.2,0.1,0.3,0.3,0.3c4.7-1.4,8.9-4.1,12.1-7.9
		c2.1-2.5,2-7.1-1.1-8.8C183,81.6,178.4,95.3,180.2,101.9z M190.8,92.8c-0.8,2.6-4.5,4.6-6.6,6.2c-0.1,0.1-0.2,0.2-0.4,0.4
		c0.2-1.2,0.1-2.5,0.3-3.7c0.2-1.7,0.7-3.3,1.7-4.7C187,89.3,192.4,87.9,190.8,92.8L190.8,92.8z"/>
	<path class="st0" d="M191.5,113.3c0,0.4,0.2,0.8,0.5,1l-0.3,0.3c-0.1,0.1,0,0.3,0.2,0.3c4.9-0.1,9.7-1.6,13.8-4.4
		c2.7-1.9,3.8-6.3,1.3-8.8C199.5,94.4,191.4,106.3,191.5,113.3z M204.1,107.3c-1.4,2.3-5.6,3.2-8,4.3l-0.5,0.2
		c0.5-1.1,0.8-2.3,1.2-3.5c0.6-1.6,1.6-3,2.8-4.1C201.3,102.9,206.9,103,204.1,107.3z"/>
	<path class="st0" d="M202.5,127.5c-0.1,0.4,0.1,0.8,0.3,1.1c-0.1,0.1-0.2,0.1-0.3,0.2c-0.1,0.1,0,0.3,0.1,0.3
		c4.9,0.6,9.8-0.2,14.2-2.4c3-1.5,4.6-5.8,2.5-8.6C213.1,109.9,203.4,120.6,202.5,127.5z M215.8,123.3c-1.8,2.1-6,2.4-8.5,3.1
		l-0.5,0.2c0.6-1.1,1.1-2.2,1.7-3.3c0.8-1.5,2-2.7,3.4-3.6C213.7,118.6,219.2,119.5,215.8,123.3z"/>
	<path class="st0" d="M210.8,142.4c-0.2,0.4-0.1,0.8,0.1,1.1l-0.3,0.1c-0.2,0.1-0.1,0.3,0,0.4c4.6,1.7,9.6,2,14.4,0.9
		c3.2-0.8,5.8-4.6,4.4-7.8C225.2,127.7,213.3,135.9,210.8,142.4z M224.7,141.4c-2.2,1.6-6.4,1-9,1.1l-0.5,0c0.9-0.9,1.6-1.9,2.4-2.8
		c1.1-1.3,2.5-2.2,4.1-2.7C223.7,136.3,228.9,138.4,224.7,141.4z"/>
	<path class="st0" d="M217.1,161.4c-0.2,0.3-0.2,0.8,0,1.1l-0.3,0.1c-0.2,0.1-0.1,0.3,0,0.4c4.5,2,9.5,2.6,14.3,1.8
		c3.3-0.6,6.1-4.2,4.8-7.5C232.3,147.6,219.9,155.1,217.1,161.4z M231,161.3c-2.3,1.4-6.4,0.6-9,0.5c-0.2,0-0.3,0-0.5,0
		c0.9-0.8,1.7-1.8,2.6-2.7c1.2-1.2,2.7-2,4.3-2.5C230.4,156.1,235.4,158.5,231,161.3z"/>
	<path class="st0" d="M219.7,179.9c-0.3,0.3-0.4,0.7-0.3,1.1H219c-0.2,0-0.2,0.3-0.1,0.4c3.8,3.1,8.4,5.1,13.3,5.6
		c3.3,0.4,7-2.4,6.7-5.9C238.1,170.8,224.2,174.6,219.7,179.9z M233.1,183.6c-2.6,0.8-6.3-1.2-8.8-2c-0.2,0-0.3-0.1-0.5-0.1
		c1.1-0.6,2.1-1.3,3.2-1.9c1.5-0.8,3.1-1.2,4.8-1.2C233.9,178.4,238.1,182.1,233.1,183.6z"/>
	<path class="st0" d="M221.6,197.7c-0.3,0.2-0.5,0.6-0.5,1l-0.4-0.1c-0.2,0-0.2,0.2-0.1,0.3c3.1,3.8,7.3,6.6,12,8
		c3.2,0.9,7.3-1,7.7-4.5C241.4,192.2,227,193.3,221.6,197.7z M234.1,203.8c-2.7,0.3-6-2.3-8.3-3.6c-0.2-0.1-0.3-0.1-0.5-0.2
		c1.2-0.3,2.3-0.8,3.5-1.2c1.6-0.5,3.3-0.6,4.9-0.3C235.8,198.9,239.2,203.4,234.1,203.8L234.1,203.8z"/>
	<path class="st0" d="M223.2,215.8c-0.4,0.2-0.6,0.5-0.7,0.8c-0.1,0-0.2-0.1-0.3-0.1c-0.1,0-0.3,0.2-0.2,0.3
		c2.2,4.4,5.6,8.1,9.9,10.5c2.9,1.7,7.4,0.7,8.5-2.7C243.7,214.9,229.4,212.8,223.2,215.8z M234,224.6c-2.7-0.3-5.3-3.6-7.3-5.4
		c-0.1-0.1-0.3-0.2-0.4-0.3c1.2-0.1,2.5-0.3,3.7-0.4c1.7-0.1,3.4,0.1,4.9,0.8C236.8,220.2,239.1,225.2,234,224.6z"/>
	<path class="st0" d="M99.9,114.7c0.3-0.2,0.6-0.5,0.6-0.9c0.1,0,0.2,0.1,0.3,0.1c0.1,0,0.3-0.2,0.2-0.3c-2.6-4.2-6.4-7.5-10.8-9.6
		c-3-1.4-7.4,0-8.2,3.4C79.5,117.4,94,118.2,99.9,114.7z M88.4,106.9c2.7,0.1,5.6,3.2,7.7,4.7c0.1,0.1,0.3,0.2,0.4,0.3
		c-1.2,0.2-2.4,0.5-3.7,0.7c-1.7,0.3-3.3,0.2-4.9-0.4C85.9,111.5,83.2,106.7,88.4,106.9L88.4,106.9z"/>
	<path class="st0" d="M100.2,131c0.2-0.3,0.3-0.7,0.2-1.1c0.1,0,0.2,0,0.4,0c0.2,0,0.2-0.3,0.1-0.4c-4-2.9-8.7-4.6-13.6-4.9
		c-3.3-0.1-6.8,2.8-6.3,6.3C82.3,141.1,96,136.5,100.2,131z M86.5,128.1c2.6-0.9,6.4,0.8,8.9,1.4c0.2,0,0.3,0.1,0.5,0.1
		c-1.1,0.6-2.1,1.4-3.1,2.1c-1.4,0.9-3,1.4-4.7,1.5C86,133.3,81.7,129.8,86.5,128.1z"/>
	<path class="st0" d="M109,144.4c0.1-0.4,0.1-0.8-0.1-1.1c0.1,0,0.2-0.1,0.3-0.1c0.1-0.1,0.1-0.3-0.1-0.4c-4.7-1.4-9.7-1.4-14.4,0
		c-3.2,1-5.5,4.9-3.9,8C95.6,160,106.9,151,109,144.4z M95.2,146.3c2.1-1.7,6.3-1.4,8.9-1.7c0.2,0,0.3,0,0.5-0.1
		c-0.8,0.9-1.5,2-2.3,3c-1,1.3-2.4,2.4-3.9,3C96.5,151.4,91.2,149.6,95.2,146.3z"/>
	<path class="st0" d="M120.3,159.6c0-0.4-0.1-0.8-0.4-1l0.3-0.2c0.1-0.1,0-0.3-0.1-0.3c-4.9-0.3-9.8,0.8-14.1,3.3
		c-2.9,1.7-4.3,6-2,8.7C110.8,177.8,119.8,166.5,120.3,159.6z M107.2,164.5c1.7-2.2,5.8-2.8,8.3-3.6c0.2-0.1,0.3-0.1,0.5-0.2
		c-0.6,1.1-1,2.3-1.5,3.4c-0.7,1.5-1.8,2.8-3.2,3.8C109.7,169.1,104.1,168.6,107.2,164.5L107.2,164.5z"/>
	<path class="st0" d="M133.9,170.8c0-0.4-0.2-0.7-0.5-1l0.3-0.3c0.1-0.1,0-0.3-0.2-0.3c-4.9,0.5-9.5,2.4-13.4,5.4
		c-2.6,2.1-3.2,6.6-0.6,8.9C127.3,190.3,134.4,177.7,133.9,170.8z M121.7,177.7c1.3-2.4,5.3-3.7,7.6-4.9l0.4-0.3
		c-0.4,1.2-0.6,2.4-1,3.6c-0.5,1.6-1.3,3.1-2.5,4.3C124.8,181.9,119.3,182.2,121.7,177.7z"/>
	<path class="st0" d="M148.4,181.8c-0.1-0.4-0.4-0.7-0.7-0.8c0.1-0.1,0.2-0.2,0.2-0.3c0-0.1-0.1-0.3-0.3-0.3
		c-4.7,1.4-8.9,4.1-12.1,7.9c-2.1,2.5-1.9,7.1,1.1,8.8C145.6,202.2,150.2,188.5,148.4,181.8z M137.8,190.9c0.8-2.6,4.5-4.6,6.6-6.2
		l0.4-0.4c-0.2,1.2-0.1,2.5-0.3,3.7c-0.2,1.7-0.7,3.3-1.7,4.7C141.6,194.4,136.2,195.8,137.8,190.9L137.8,190.9z"/>
	<path class="st0" d="M164.8,189.9c-0.2-0.4-0.5-0.6-0.9-0.7l0.1-0.3c0.1-0.2-0.2-0.3-0.3-0.2c-4.4,2.2-8.1,5.6-10.5,9.9
		c-1.6,2.9-0.7,7.3,2.7,8.5C165.6,210.5,167.8,196.2,164.8,189.9z M155.9,200.8c0.3-2.7,3.6-5.3,5.4-7.3c0.1-0.1,0.2-0.2,0.3-0.4
		c0,1.3,0.3,2.5,0.4,3.7c0.1,1.7-0.1,3.4-0.8,4.9C160.3,203.5,155.3,205.8,155.9,200.8L155.9,200.8z"/>
	<path class="st0" d="M181.1,197.9c-0.2-0.3-0.6-0.5-0.9-0.6c0-0.1,0.1-0.2,0.1-0.4c0-0.1-0.2-0.3-0.3-0.2c-4,2.8-7.2,6.7-9,11.3
		c-1.2,3.1,0.4,7.4,3.8,8C184.9,218.1,185,203.6,181.1,197.9z M173.9,209.9c0-2.7,2.8-5.8,4.3-8c0.1-0.1,0.2-0.3,0.3-0.4
		c0.2,1.2,0.6,2.4,0.9,3.6c0.4,1.6,0.3,3.3-0.1,5C178.7,212,174,215,173.9,209.9z"/>
	<path class="st0" d="M197.1,207.7c-0.2-0.3-0.6-0.5-1-0.5c0-0.1,0-0.2,0.1-0.4c0-0.2-0.2-0.2-0.3-0.1c-3.7,3.2-6.5,7.4-7.9,12.1
		c-0.9,3.2,1.1,7.3,4.6,7.6C202.9,227.4,201.5,213,197.1,207.7z M191.1,220.3c-0.3-2.7,2.3-6,3.4-8.4l0.2-0.5
		c0.4,1.2,0.9,2.3,1.3,3.5c0.5,1.6,0.7,3.3,0.4,4.9C196.1,222,191.7,225.4,191.1,220.3L191.1,220.3z"/>
	<path class="st0" d="M211.8,217.7c-0.3-0.3-0.7-0.4-1.1-0.4l0-0.4c0-0.2-0.2-0.2-0.4-0.1c-3.3,3.7-5.4,8.2-6.1,13.1
		c-0.4,3.3,2.1,7.1,5.7,6.9C220.2,236.4,216.9,222.4,211.8,217.7z M207.6,231c-0.7-2.6,1.4-6.3,2.3-8.8l0.2-0.5
		c0.5,1.1,1.2,2.2,1.7,3.3c0.8,1.5,1.1,3.2,1.1,4.8C212.7,232,208.9,236,207.6,231z"/>
	<path class="st0" d="M226.5,232.9c-0.3-0.2-0.7-0.3-1.1-0.1l0-0.4c0-0.2-0.3-0.2-0.4,0c-2.5,4.2-3.8,9.1-3.6,14
		c0.2,3.3,3.4,6.5,6.8,5.7C238.3,249.7,232.4,236.5,226.5,232.9z M224.9,246.7c-1.2-2.4,0.2-6.4,0.6-9l0.1-0.5
		c0.7,1,1.6,1.9,2.3,2.9c1,1.3,1.7,2.9,1.9,4.6C230.1,246.7,227.1,251.4,224.9,246.7z"/>
	<path class="st0" d="M135.1,156.7c1.5,1,3.1,1.7,4.8,2.2c1.9,0.7,3.8,1.1,5.8,1.3c1,0.2,1.9,0.3,2.9,0.4c9.7,1.4,17.3,2.4,25.9,7.5
		c0.7,0.4,1.7,0.1,2.1-0.6c0.2-0.4,0.2-0.9,0.1-1.3c0.2-0.4,0.3-0.8,0.1-1.3c-0.8-3-2.6-5.7-4.1-8.5c-0.3-0.6-0.6-1.2-0.9-1.8
		c1.9,1,3.8,2,5.7,3.2c4.3,2.9,8.2,6.2,11.6,10c6.3,6.7,9.1,14.5,13.2,22.3c0.2,0.6,0.3,1.3,0.5,1.9c0.1,0.7,0.7,1.2,1.4,1.2
		c0.5,0.2,1.2,0,1.4-0.5c0-0.1,0.1-0.2,0.1-0.3c0.2-0.2,0.3-0.5,0.3-0.8c1.2-9.3-0.8-19.4-2.5-28.6c-1.7-9.5-5-18.6-9.8-27
		c-6.7-11.6-20.8-23.3-35-23.9c1.2-0.8,2.4-1.5,3.8-2.1c4.2-1.5,8.3-1.1,12.6-0.8c2.1,0.2,2.9-3,1-3.9c-0.1-0.1-0.3-0.1-0.4-0.2
		c-16-19.3-48.8-14.3-61.3,6.6c-6.1,10.2-1.3,23.5,5.6,32C124.1,149,129.3,153.4,135.1,156.7z M120.4,115.3
		c4.4-9.9,16.5-15.3,26.6-16.2c7.3-0.7,13.9,1.5,20,4.8c-2,0.1-4,0.5-6,1.1c-3.5,1-10,3.6-9.3,8.1c0.1,0.3,0.3,0.6,0.5,0.8
		c0,0.7,0.5,1.2,1.1,1.5c7.3,2.7,14.6,4.1,21.4,8.3c7.5,4.6,12.8,11.9,16.9,19.5c3.9,7.3,6,15.6,7.5,23.7c0.5,2.7,0.8,5.5,1.1,8.3
		c-7.3-12.9-20.6-24.8-32.7-26.9c-0.2-0.1-0.5-0.2-0.8-0.1l-0.3,0c-1.6-0.2-1.8,1.8-1,2.7c0.9,2.7,2.1,5.3,3.5,7.8
		c0.3,0.5,0.5,1,0.7,1.5c-0.4-0.2-0.8-0.3-1.2-0.5c-4.1-3.3-9.8-3.8-14.9-4.7c-4.1-0.6-8.1-1.6-12-2.8c-0.6-0.2-1.2-0.4-1.8-0.7
		c-3.8-2-7.3-4.6-10.3-7.6C121.9,136.8,115.8,125.6,120.4,115.3z"/>
	<path class="st0" d="M136.9,138.2c5.9,3.2,12.3,4.2,17.7,8.7c0.3,0.3,1,0,0.8-0.5c-0.2-0.6-0.5-1.2-0.8-1.8
		c-0.9-2.1-2.2-3.9-3.8-5.5l1,0c4.8-0.1,9.6-0.8,14.3-0.8c7.5,0,12.8,3.3,17.9,8.5c0,0,0.1,0.1,0.2,0c0.1,0.1,0.1,0.1,0.2,0.2
		c0.3,0.4,1,0,0.9-0.5c-2.4-10.9-12.2-18.4-22.3-21.9c-6.2-2.1-16.4-3-23.3,0.1c0.5-1.6,0.7-3.3,1-4.9c0.2-0.4,0.4-0.7,0.6-1.1
		c0.2-0.4,0.3-0.9,0.2-1.4c1.1-2.6,2.6-4.7,4.1-7.2l0.7-0.4c0.4-0.2,0.5-0.7,0.3-1.1c-0.1-0.2-0.4-0.4-0.7-0.4
		c-14.2-1.6-24.1,12-15.3,23.5C131.2,135,134.1,136.6,136.9,138.2z"/>
	<path class="st0" d="M187.5,189.4c1.8-0.4,3-2.2,2.6-4c0-0.1-0.1-0.3-0.1-0.4c-0.6-1.1-1.2-2.1-2-3c-0.8-1.3-1.7-2.5-2.7-3.6
		c-1-1.9-4.6-1.4-4.3,1C181.3,182.4,182.5,190.6,187.5,189.4z"/>
	<path class="st0" d="M171,180.7c0.7-2.1-0.7-5.1-2-6.8c-0.6-0.6-1.5-0.6-2.1,0c-0.2,0.2-0.3,0.4-0.4,0.7c-0.4,2.1-0.1,5.4,1.5,6.9
		c0.7,0.7,1.9,0.7,2.6,0C170.8,181.3,170.9,181,171,180.7z"/>
	<path class="st0" d="M157.8,176.3c0.2-0.3,0.5-0.6,0.7-0.9c0.6-1.1,0.2-2.5-0.9-3.1c-0.5-0.3-1.1-0.4-1.6-0.2
		c-0.3,0.1-0.7,0.2-1,0.4c-1.2,0.7-1.6,2.1-0.9,3.3c0.7,1.2,2.1,1.6,3.3,0.9C157.5,176.6,157.7,176.5,157.8,176.3z"/>
	<path class="st0" d="M95,350.1c2.4,13.1-0.5,25.4-1.7,38.4c-1.7,18.4,2.3,37.2,20.2,46.2c12.7,6.3,28.2,6.8,39.6-1.6
		c5.7-2.9,10.3-7.4,13.4-12.9c8.8-16.7,5.9-35.8-2.9-52c-9-16.7-22.1-30.9-38.1-41.1c-12-7.5-32.4-18.8-47-14.1
		c-0.1,0.1-0.2,0.1-0.3,0.2c0,0-0.1-0.1-0.1-0.1c-1.6-0.8-3.3,1.3-2.2,2.7C83.8,326.6,92.5,336.4,95,350.1z M102,348.5
		c-2.8-11.1-8.2-22.8-16.9-30.5c3,0.9,6.1,1.6,9.1,2.7c6.3,2.1,12.4,4.6,18.4,7.6c2.4,1.2,4.7,2.6,7,4c0.4,2.6,3.3,4.6,4.9,6.6
		c2.3,3.1,4,6.8,4.8,10.6c0.5,2.3,3.9,2.8,4.4,0.2c0.5-2.1,0.9-4.2,1.2-6.3c2.6,2.2,5,4.6,7.3,7.1c2,3.4,4.2,6.6,6.4,9.8
		c0.8,2.4,1.8,4.7,2,7.2c0.6,4.4,0.1,9-1.3,13.2c-0.3,0.8,0,1.6,0.8,1.9c0.6,0.2,1.3,0.1,1.7-0.4c2-2.2,4.4-4.7,5.3-7.6
		c0.4,0.8,0.7,1.6,1.1,2.4c2,5.3,3.4,10.8,4.5,16.3c-0.2,15.4-4.9,32.4-22.2,36.5c-18.3,4.3-37.9-8.1-39.1-27.6
		C100.1,384.3,106.5,366.4,102,348.5L102,348.5z"/>
	<path class="st0" d="M117.6,417.8c9.3,6.5,20.9,6.4,29.9-0.8c6.5-5.3,10-15.7,6.6-23.5l0,0c0.2-0.6-0.2-1.2-0.7-1.3
		c-0.5-0.6-1.4-0.8-2.1-0.3c-0.3,0.2-0.5,0.5-0.6,0.9l0,0c-4.2,2.1-7.6,5.5-12.2,6.9c-0.9,0.3-1.8,0.5-2.7,0.7
		c-2.4,0-4.9-0.4-7.2-1.1c5.9-1.2,9.6-9.3,11.2-14.4c2.2-6.8,2.7-16.3-2.3-21.9l0,0c0-0.9-1.4-1.1-1.7-0.3c-1.8,4.5-3.8,8.8-8,11.7
		c-1.4,1-3,1.8-4.6,2.5c7.6-12.5-3.2-35.6-17.5-37.5c-0.1,0-0.1,0-0.2,0c-0.7-0.5-1.5-0.9-2.2-1.2c-0.4-0.2-0.9,0-1.1,0.4
		c-0.1,0.3-0.1,0.6,0.1,0.8c8,9.6,8.1,19.9,7,30.6c-0.5,2.1-0.8,4.2-0.8,6.4c-0.4,3.5-0.9,7-1.1,10.6
		C107,397.4,108,411.2,117.6,417.8z"/>
	<path class="st0" d="M97.2,296c6.4-1.9,12.2-10.8,9.3-17.1c-0.9-4.5-4.1-8.1-8.3-9.8c-8.9-3.2-18.2,3.2-19.3,12.2
		C77.7,290.9,88.6,298.5,97.2,296z M86.1,283.1c-1.3-4.6,4-7.9,7.9-7.9c2.9-0.1,5.2,2.3,6.1,4.9c0,0.1,0.1,0.3,0.1,0.4
		c-0.4,3.2-1,6.2-4.1,8.1C91.9,291.3,87.1,287.1,86.1,283.1z"/>
	<path class="st0" d="M140.7,312.7c4.2-4.1,3.5-10.6-0.5-14.5c-1.1-1.1-2.5-1.8-3.9-2.2c-3.9-1.3-8.2-0.2-10.9,2.8
		c-3.9,4.2-3,10.6,0.9,14.4C130.4,317.3,136.8,316.6,140.7,312.7z"/>
	<path class="st0" d="M163.2,335.1c3.7,0.2,6.4-2.8,6.7-6.3c0.2-3.2-2-6.1-5.2-6.7c-1.3-0.3-2.6,0.3-3.3,1.4l-0.5,0.9
		c-1.9,0.6-3.3,2-3.9,3.9C155.7,332.3,159.7,334.9,163.2,335.1z"/>
</g>
</svg>
