<?xml version="1.0" encoding="utf-8"?>
<!-- Generator: Adobe Illustrator 23.0.6, SVG Export Plug-In . SVG Version: 6.00 Build 0)  -->
<svg version="1.1" id="_800x800" xmlns="http://www.w3.org/2000/svg" xmlns:xlink="http://www.w3.org/1999/xlink" x="0px" y="0px"
	 viewBox="0 0 320 500" style="enable-background:new 0 0 320 500;" xml:space="preserve">
<style type="text/css">
	.st0{fill:#B07213;}
</style>
<g>
	<path class="st0" d="M241.4,152.6c8.5-15.1,13.9-32.9,9.5-50.2c-4.2-16.2-14.2-30.2-28.2-39.2c-31.1-19.8-70.5-12-98.7,9.1
		c-11.4,8.7-21.4,19-29.5,30.8c-4.9,6.1-9,12.9-12.1,20.3c-18.1,36.1-23.7,79.7-13.6,117.8c0.6,7.6,2.3,15.2,3.3,22.2
		c1.5,11,3.2,21.9,4.8,32.8c0.5,3.5,5.6,2.4,5.8-0.7c0-0.4,0-0.7,0.1-1.2c0.3-0.2,0.4-0.4,0.6-0.7c7.2-17.2,15.1-33.3,29.5-45.7
		c13.9-12,30.8-19.1,47.3-26.6C192.9,206.3,223.4,184.7,241.4,152.6z M214.1,176c-16,16.3-34.7,28.1-55.4,37.6
		c-18.5,8.4-38.2,16.2-53.1,30.5c-9.5,9.2-17.8,20.3-22.7,32.7c-0.1-1.4-0.1-2.8-0.2-4.2c-0.4-8.1-1.1-16.1-2.2-24.1
		c-2.2-16.8-5.3-33.6-6-50.5c-0.7-17.9,1.2-35.8,6.8-52.8c2.7-8.8,6.3-17.3,10.5-25.5c0.4-0.7,0.8-1.5,1.3-2.3
		C109.5,89.6,134.7,65.6,167,60c18.5-3.3,38.7-0.9,54.2,10.6c15.5,11.5,26.4,30.4,23.9,50.2C242.3,141.9,228.7,161.1,214.1,176z"/>
	<path class="st0" d="M305.4,393.9c-0.6-10.3-3.6-23.5-13.5-28.9c-7.7-4.3-17.2-4-24.7,0.6c-23.4,14.4-16.5,43-22.7,65.5
		c-5.2,19.1-21.3,33.2-40.6,37c-20,4-40.9-2.8-56.2-16c-7.4-6.5-13.8-14.1-18.8-22.7c-1.7-6.3-5.4-11.7-7.9-17.8
		c-2.9-7-5.1-14.3-6.5-21.7c-2.7-14.8-2.5-30.4,1.4-45.1c4.2-16.1,12.1-31,23.2-43.5c9.2-10.3,20.1-18.2,31.7-25.5
		c13.8-8.1,28.1-15.7,40.8-24.7c28.6-20.3,52.3-46.9,67.8-78.2c0.2-0.2,0.4-0.4,0.6-0.7c32.3-54.6,8-127.9-47.8-156.9
		C161-21.5,81.5,22.4,44.9,86.7C5,156.9,8.6,240.4,31.3,315.5c21.7,72,59.6,158.6,140.6,178c21.1,5.1,43.1,4.3,63-2.5
		C275.2,479.6,308,436.4,305.4,393.9z M275.6,453.8c-26.1,31.4-67,43.2-105.9,31.5c-39.3-11.8-69.9-40.8-90.6-75.5
		c-21.9-36.5-37-78.2-47-119.6c-9.5-39.8-14.2-81.7-7.6-122.3c3.8-23.9,11.1-47.8,22.2-69.5c0.1,0.8,0.4,1.5,1,2.1
		c1.1,1.1,2.7,1.4,4.2,0.7c1.8-0.9,2.5-3.1,1.6-4.8c-0.9-1.8-3.1-2.5-4.8-1.6c4.5-8.3,9.5-16.3,15.1-23.8c-0.1,0.6,0,1,0.2,1.5
		c0.6,1.7,2.6,2.6,4.3,1.9c1.7-0.7,2.6-2.6,1.9-4.3c-0.6-1.7-2.6-2.6-4.3-1.9c2.7-3.4,5.4-6.6,8.3-9.8c7.6-8.3,16-15.9,25-22.5
		c-0.4,0.9-0.5,2-0.2,2.9c0.1,0.5,0.3,0.9,0.6,1.3l0.1,0.1c0.5,1,1.5,1.4,2.6,1.1c0.4-0.1,0.8-0.2,1.2-0.4c2.1-0.7,3.3-2.9,2.8-5.1
		c-0.4-1.5-2-2.6-3.6-2.4c22.6-15.8,49.2-25.8,77.1-24.9c38.2,1.2,75.8,23,94.1,56.9c15.9,29.5,17.3,65.1,6.2,96.5
		c-11.4,22.7-26,43.8-44.2,61.5c-20.5,20-44.3,33-68.8,47.3c-21.9,12.8-44.1,28.7-53.7,53.2c-5.7,14.6-7.6,30.7-6.8,46.6
		c-0.1,6.4,0.6,12.7,1.6,19c1.7,9.5,4.5,21.8,9.8,31.5c10.8,24.3,29.4,44.9,56,51.9c31.9,8.4,70.3-8,77.2-42.6
		c3.6-17.7-0.5-47.1,17.7-57.9c9.8-5.9,21.6-4.3,26.3,7.4c0.2,0.6,0.6,1.3,0.7,2C297.2,407.6,292.5,433.4,275.6,453.8z"/>
	<path class="st0" d="M265.5,61.3c1.5-1.5,1.5-3.8,0-5.3c-1.5-1.5-3.8-1.5-5.3,0c-1.5,1.5-1.5,3.8,0,5.3
		C261.7,62.8,264,62.8,265.5,61.3z"/>
	<path class="st0" d="M272,75.6c1.5-0.9,2.2-2.9,1.2-4.5l-0.1-0.2c-0.9-2-3.9-2.2-5.3-0.7s-1.3,4.4,0.7,5.3l0.2,0.1
		C269.8,76.2,271.1,76.1,272,75.6z"/>
	<path class="st0" d="M277.8,91.9L277.8,91.9c1.3-1.3,1.3-3.4,0-4.7c-1.3-1.3-3.4-1.3-4.7,0c-1.3,1.3-1.3,3.4,0,4.7
		C274.3,93.1,276.4,93.1,277.8,91.9z"/>
	<path class="st0" d="M282.6,106.6c0-1.5-1.2-2.7-2.6-2.6c-1.3-0.1-2.5,0.7-3.1,1.9c-0.4,0.8-0.5,1.9,0,2.7c0.7,1.4,2.5,2,3.9,1.2
		C281.9,109.1,282.6,107.9,282.6,106.6z"/>
	<path class="st0" d="M282,127.9L282,127.9c1.2-1.2,1.2-3.2,0-4.5s-3.2-1.2-4.4,0.1c-1.2,1.2-1.2,3.2,0.1,4.4
		C278.8,129.1,280.8,129.1,282,127.9z"/>
	<path class="st0" d="M278.8,145.5c1.7-0.9,2.2-3,1.3-4.6c-0.8-1.4-3.1-2.4-4.6-1.2l-0.2,0.2c-1.4,1.1-2.2,2.8-1.2,4.5
		c0.7,1.4,2.3,1.9,3.7,1.6l0.2-0.1C278.3,145.8,278.5,145.7,278.8,145.5z"/>
	<path class="st0" d="M274.2,162.6c1.3-1.3,1.4-3.5,0-4.8c-1.3-1.3-3.5-1.4-4.8,0c-1.3,1.3-1.4,3.5,0,4.8
		C270.7,164,272.9,163.9,274.2,162.6z"/>
	<path class="st0" d="M262.2,181.4c0.5,0.1,1,0.1,1.5,0c1.5-0.4,2.5-2,2.2-3.7c-0.4-1.5-2-2.5-3.7-2.2l-0.4,0.1c-1,0.2-1.7,1-2,2
		c-0.4,1.5,0.4,3.2,2,3.6L262.2,181.4L262.2,181.4z"/>
	<circle class="st0" cx="254.7" cy="193.6" r="3"/>
	<path class="st0" d="M246.1,208L246.1,208c1.2-1.2,1.2-3.2,0-4.3s-3.2-1.2-4.3,0s-1.2,3.2,0,4.3C243,209.2,245,209.2,246.1,208z"/>
	<path class="st0" d="M232.9,220.5L232.9,220.5c1.2-1.2,1.2-3.2,0-4.3s-3.1-1.1-4.3,0.1s-1.1,3.1,0.1,4.3S231.7,221.7,232.9,220.5z"
		/>
	<path class="st0" d="M219.7,228.4L219.7,228.4c1.1-1.1,1.1-2.8,0-4c-1.1-1.1-2.8-1.1-3.9,0.1c-1.1,1.1-1.1,2.8,0.1,3.9
		C216.9,229.5,218.6,229.5,219.7,228.4z"/>
	
		<ellipse transform="matrix(0.8112 -0.5847 0.5847 0.8112 -99.771 164.1242)" class="st0" cx="204.3" cy="236.6" rx="2.9" ry="2.9"/>
	<path class="st0" d="M190.4,251.7L190.4,251.7c1.4-1.4,1.3-3.5,0-4.8c-1.4-1.4-3.5-1.3-4.8,0c-1.3,1.3-1.3,3.5,0,4.8
		C187,253.1,189.1,253.1,190.4,251.7z"/>
	<path class="st0" d="M173.5,261.4L173.5,261.4c1.2-1.2,1.2-3.1,0-4.2c-1.2-1.2-3.1-1.2-4.2,0c-1.2,1.2-1.2,3.1-0.1,4.3
		C170.5,262.6,172.4,262.6,173.5,261.4z"/>
	<path class="st0" d="M162.1,266.2V266c0.2-1-0.2-2-1.1-2.6c-0.7-0.4-1.5-0.4-2.2,0c-1.1,0.6-1.5,2-0.9,3.1c0.6,0.9,1.6,1.4,2.6,1.1
		h0.2C161.3,267.4,161.9,266.9,162.1,266.2z"/>
	<path class="st0" d="M147.1,276.4c0.7-0.9,0.7-2.2,0-3.1c-0.8-1.2-2.5-1.4-3.7-0.6c-0.4,0.4-0.7,1-1,1.6c-0.1,0.4-0.1,0.8,0,1.2
		c0.3,1.3,1.7,2.2,3,1.8C146.1,277.1,146.6,276.8,147.1,276.4z"/>
	<path class="st0" d="M130.9,288.3L130.9,288.3c1.3-1.3,1.4-3.5,0-4.7c-1.3-1.3-3.4-1.3-4.7,0c-1.3,1.3-1.3,3.4,0,4.7
		C127.5,289.6,129.6,289.6,130.9,288.3z"/>
	<path class="st0" d="M119.5,297.6c-3.1-3.1-7.9,1.7-4.8,4.8C117.8,305.5,122.6,300.7,119.5,297.6z"/>
	<path class="st0" d="M109.7,318.4c1.4-1.4,1.4-3.6,0-5c-1.4-1.4-3.6-1.4-5,0c-1.4,1.4-1.4,3.6,0,5
		C106.1,319.8,108.4,319.8,109.7,318.4z"/>
	<path class="st0" d="M105.8,334.1L105.8,334.1c1.2-1.2,1.2-3.2-0.1-4.5s-3.2-1.2-4.5,0s-1.2,3.2,0,4.5
		C102.5,335.4,104.6,335.3,105.8,334.1z"/>
	<circle class="st0" cx="99.8" cy="349.9" r="3.2"/>
	<path class="st0" d="M101.2,370.3L101.2,370.3c1.1-1.1,1.1-3,0-4.1s-3-1.1-4.1,0s-1.1,3,0,4.1S100.1,371.3,101.2,370.3z"/>
	<path class="st0" d="M255.4,46.8L255.4,46.8c1.1-1.1,1.1-3,0-4.1c-1.1-1.1-3-1.1-4.1,0c-1.1,1.1-1.1,3,0,4.1S254.2,47.9,255.4,46.8
		z"/>
	<circle class="st0" cx="243" cy="36.3" r="3.3"/>
	<path class="st0" d="M234.7,33L234.7,33c1.3-1.3,1.3-3.4,0-4.7c-1.3-1.3-3.4-1.3-4.7,0c-1.3,1.3-1.3,3.4,0,4.7
		C231.3,34.3,233.4,34.3,234.7,33z"/>
	<path class="st0" d="M223,25.3L223,25.3c1.2-1.2,1.2-3.2,0-4.5c-1.2-1.2-3.2-1.2-4.5,0c-1.2,1.2-1.2,3.2,0,4.5
		C219.7,26.5,221.7,26.5,223,25.3z"/>
	<path class="st0" d="M207.4,15c-2.7-2.7-6.8,1.5-4.2,4.2C205.9,21.8,210,17.7,207.4,15z"/>
	<circle class="st0" cx="193" cy="14.9" r="2.7"/>
	<path class="st0" d="M182.4,16.7L182.4,16.7c1.1-1.1,1.1-3,0-4.1c-1.1-1.1-3-1.1-4.1,0c-1.1,1.1-1.1,3,0,4.1
		C179.5,17.9,181.3,17.9,182.4,16.7z"/>
	<path class="st0" d="M165,20.3c1.8-0.2,3-1.8,2.8-3.5c-0.2-1.7-1.8-3-3.5-2.8c-1.4-0.1-2.5,0.9-2.8,2.3l-0.1,0.1
		c-0.4,1.7,0.6,3.5,2.3,3.9C164.2,20.3,164.6,20.3,165,20.3z"/>
	<path class="st0" d="M149.9,22L149.9,22c1.3-1.3,1.4-3.5,0-4.8c-1.3-1.3-3.5-1.4-4.8,0c-1.3,1.3-1.4,3.5,0,4.8
		C146.5,23.4,148.6,23.3,149.9,22z"/>
	<path class="st0" d="M134,25.8C134.1,25.7,134.1,25.7,134,25.8c1.4-1.4,1.4-3.7-0.1-5.1c-1.4-1.4-3.7-1.4-5.1,0.1
		c-1.4,1.4-1.4,3.7,0.1,5.1C130.4,27.2,132.6,27.1,134,25.8z"/>
	<path class="st0" d="M120.6,32.9c1.3-1.3,1.3-3.4-0.1-4.8c-1.4-1.4-4.4-1.3-5.3,0.7c-0.6,1.1-0.6,2.3,0,3.3
		C116.1,34.1,119.1,34.3,120.6,32.9z"/>
	<path class="st0" d="M94.2,47.6c-0.4-1.7-2.4-3-4.2-2.4l-0.3,0.1c-1.8,0.6-2.9,2.4-2.5,4.2c0.1,0.3,0.2,0.6,0.3,0.8
		c0.7,1.2,2.4,2.2,3.8,1.6l0.2-0.1C93.4,51.1,94.7,49.6,94.2,47.6z"/>
	<path class="st0" d="M81.9,64c1.4-1.4,1.4-3.6,0-5c-1.4-1.4-3.6-1.4-5,0s-1.4,3.6,0,5C78.3,65.4,80.5,65.4,81.9,64z"/>
	<path class="st0" d="M61.7,86.1L61.7,86.1c1.3-1.3,1.3-3.4,0-4.7c-1.3-1.3-3.4-1.3-4.7,0s-1.3,3.4,0,4.7
		C58.2,87.4,60.3,87.4,61.7,86.1z"/>
	<path class="st0" d="M47.6,116.2c1.4-1.4,1.4-3.7,0-5.1s-3.7-1.4-5.1,0c-1.4,1.4-1.4,3.7,0,5.1C44,117.5,46.2,117.5,47.6,116.2z"/>
	<path class="st0" d="M43.6,125.8c-3.2-3.2-8.2,1.8-5,5C41.8,134.1,46.9,129.1,43.6,125.8z"/>
	<path class="st0" d="M37.6,145.2c1.4-1.4,1.4-3.7,0-5.1c-1.4-1.4-3.7-1.4-5.1,0c-1.4,1.4-1.4,3.7,0,5.1
		C33.9,146.6,36.2,146.5,37.6,145.2z"/>
	<path class="st0" d="M33.8,163.1L33.8,163.1c1.4-1.4,1.4-3.7,0-5.1c-1.4-1.4-3.7-1.4-5.1,0c-1.4,1.4-1.4,3.7,0,5.1
		C30.2,164.5,32.4,164.5,33.8,163.1z"/>
	<circle class="st0" cx="28.8" cy="176" r="3.4"/>
	<circle class="st0" cx="26.5" cy="192.5" r="3.4"/>
	<circle class="st0" cx="26.5" cy="208.7" r="2.5"/>
	<path class="st0" d="M29.9,229L29.9,229c1.5-1.5,1.5-3.8,0-5.3s-3.8-1.5-5.3,0s-1.5,3.8,0,5.3C26,230.5,28.4,230.5,29.9,229z"/>
	<path class="st0" d="M30.4,248.4c1.9-0.5,3-2.4,2.5-4.3c-0.4-1.5-1.8-2.7-3.4-2.7c-2,0-3.5,1.6-3.5,3.5c0,2,1.6,3.5,3.5,3.5
		C29.9,248.5,30.2,248.5,30.4,248.4z"/>
	<path class="st0" d="M33.2,264.2L33.2,264.2c1.1-1.1,1.1-3,0-4.1c-1.1-1.1-3-1.1-4.1,0c-1.1,1.1-1.1,3,0,4.1
		C30.2,265.3,32,265.3,33.2,264.2z"/>
	<ellipse transform="matrix(0.7071 -0.7071 0.7071 0.7071 -185.1181 105.6844)" class="st0" cx="35" cy="276.3" rx="3.3" ry="3.3"/>
	<path class="st0" d="M40.2,295.8L40.2,295.8c1.4-1.4,1.4-3.7,0-5.1s-3.7-1.4-5.1,0s-1.4,3.7,0,5.1
		C36.6,297.1,38.9,297.1,40.2,295.8z"/>
	<path class="st0" d="M45,308.6c0-0.2-0.1-0.6-0.1-0.9c-0.5-1.9-2.4-3-4.2-2.5c-0.9,0.2-1.6,0.9-2.1,1.6c-0.1,0.1-0.1,0.1-0.2,0.2
		c-0.6,1.1-0.6,2.3,0,3.3c0.9,1.7,3,2.2,4.6,1.3l0.2-0.2C44.2,310.9,44.9,309.8,45,308.6z"/>
	<path class="st0" d="M50.8,327.9c1.2-1.2,1.2-3.3,0-4.6s-3.3-1.2-4.6,0s-1.2,3.3,0,4.6C47.5,329.1,49.5,329.2,50.8,327.9z"/>
	<path class="st0" d="M56.5,344.5L56.5,344.5c1.4-1.4,1.3-3.5,0-4.8c-1.4-1.4-3.5-1.3-4.8,0c-1.3,1.3-1.3,3.5,0,4.8
		C53,345.8,55.1,345.8,56.5,344.5z"/>
	<path class="st0" d="M60.2,361c1.3-1.3,1.3-3.4,0-4.7c-1.3-1.3-3.5-1.4-4.8-0.1c-1.3,1.3-1.4,3.5-0.1,4.8
		C56.7,362.4,58.8,362.4,60.2,361z"/>
	<path class="st0" d="M65.9,376L65.9,376c1.1-1.1,1.1-2.7,0-3.7c-1.1-1.1-2.7-1.1-3.7,0c-1.1,1.1-1.1,2.7,0,3.7
		C63.3,377,64.9,377,65.9,376z"/>
	<path class="st0" d="M72.9,388.8c1.2-1.2,1.3-3.3,0-4.6c-1.3-1.3-3.3-1.3-4.6,0s-1.3,3.3,0,4.6C69.6,390,71.6,390,72.9,388.8z"/>
	<path class="st0" d="M81.2,402.5L81.2,402.5c1.1-1.1,1.1-3,0-4.1s-3-1.1-4.1,0s-1.1,3,0,4.1C78.2,403.6,80,403.6,81.2,402.5z"/>
	<path class="st0" d="M88.5,417c1.5-0.4,2.6-1.7,2.6-3.3c0-1.9-1.5-3.4-3.5-3.5c-1.9-0.1-3.4,1.5-3.5,3.5c0.2,1.1,0.2,1.2,0,0.4l0,0
		c0,1.7,1.4,3,3.1,3.1c-0.9-0.1-0.7-0.1,0.4,0L88.5,417L88.5,417z"/>
	<path class="st0" d="M103.5,434.2c1.2-1.2,1.3-3.3,0-4.6s-3.3-1.3-4.6,0c-1.2,1.2-1.3,3.3,0,4.6
		C100.2,435.5,102.2,435.5,103.5,434.2z"/>
	<path class="st0" d="M104.2,385.3l0.1-0.2c0.1-0.6,0.1-1.2,0.1-1.8c-0.5-2-2.5-3.2-4.5-2.7c-2,0.5-3.2,2.5-2.7,4.5l0.1,0.2
		C97.9,388.9,103.5,388.9,104.2,385.3z"/>
	<path class="st0" d="M107.2,399.5c-3-3-7.7,1.6-4.6,4.6S110.3,402.5,107.2,399.5z"/>
	<path class="st0" d="M113.1,419.5c1-1.7,0.4-3.8-1.3-4.9c-1.7-1-3.8-0.4-4.9,1.3l-0.1,0.2c-1.9,2.8,1.9,6.6,4.8,4.8l0.2-0.1
		C112.3,420.5,112.8,420.1,113.1,419.5z"/>
	<path class="st0" d="M117.4,431.3c-3-3-7.7,1.6-4.6,4.6C115.7,439,120.4,434.3,117.4,431.3z"/>
	<circle class="st0" cx="116.1" cy="447.6" r="3.1"/>
	<path class="st0" d="M128.9,450.8c1.4-1,1.1-3.3,0-4.3c-1.1-1.1-3.3-1.4-4.3,0l-0.2,0.2c-0.6,0.6-0.9,1.4-0.9,2.2
		c0,1.7,1.4,3.1,3,3c0.8-0.1,1.5-0.3,2.2-0.9L128.9,450.8z"/>
	<path class="st0" d="M138.3,464.7L138.3,464.7c1.4-1.4,1.4-3.7,0-5.1c-1.4-1.4-3.7-1.4-5.1,0c-1.4,1.4-1.4,3.7,0,5.1
		C134.6,466,136.9,466,138.3,464.7z"/>
	<circle class="st0" cx="149.4" cy="470.6" r="3.5"/>
	<circle class="st0" cx="161.6" cy="476.7" r="3.1"/>
	<path class="st0" d="M176.2,483.4c1.7-0.4,2.6-2.1,2.2-3.7l-0.1-0.2c-0.2-1.1-1.1-2-2.2-2.2c-1.7-0.4-3.4,0.6-3.8,2.2
		c-0.4,1.7,0.6,3.4,2.2,3.8l0.2,0.1C175.2,483.5,175.7,483.5,176.2,483.4z"/>
	<path class="st0" d="M191.3,482.3c-2-2-5.3,1.2-3.2,3.2C190.2,487.5,193.4,484.3,191.3,482.3z"/>
	<path class="st0" d="M205.2,481.2c-2.1-2.1-5.4,1.2-3.3,3.3C204.1,486.6,207.4,483.3,205.2,481.2z"/>
	<path class="st0" d="M220.4,478.4c-2.7-2.7-7,1.5-4.3,4.3S223.1,481.1,220.4,478.4z"/>
	<path class="st0" d="M234.7,476.3L234.7,476.3c1.2-1.2,1.2-3,0-4.2s-3-1.2-4.2,0s-1.2,3,0,4.2S233.6,477.4,234.7,476.3z"/>
	<path class="st0" d="M253.1,462.1c-0.6-1.6-1.7-3-3.2-3.9c-0.1-0.1-0.2-0.2-0.2-0.2c-3.4-2.4-8.1,0.4-8.9,4.2
		c-0.4,1.9,0,3.8,1.2,5.4c1.3,1.9,3.5,2.9,5.8,2.5C251.2,469.6,254.2,465.5,253.1,462.1z"/>
	<path class="st0" d="M271.3,443.9c-0.4-3.2-2.1-6.6-5.6-7.3c-1.5-0.4-3-0.2-4.3,0.4c-2-0.1-4.1,0.6-5.7,2c-2.4,2.1-3.5,5.3-2.8,8.4
		c0.4,2.7,2.3,6,5.1,6.8c3,0.8,7.2-0.9,9.5-2.7C269.8,449.8,271.7,446.7,271.3,443.9z"/>
	<path class="st0" d="M284.2,423.9c3.8-5.7,2.5-13.8-2.7-17.8c-4.7-4.3-12.4-3.8-17.3,0.2c-6,4.9-6.7,14.4-0.8,19.8
		C269.5,431.7,279.4,431.1,284.2,423.9z"/>
	<path class="st0" d="M286.1,379.4c-0.2-0.2-0.5-0.5-0.7-0.7c-4.4-4.3-11.4-4.2-15.6,0.1c-0.3,0.3-0.6,0.6-0.8,0.9
		c-3.7,4.7-2.9,11.5,1.7,15.2c3.4,2.8,8.2,3.2,12.1,1.1c0.2-0.1,0.4-0.1,0.5-0.1C289.7,392.9,290.2,384.6,286.1,379.4z"/>
	<path class="st0" d="M65.2,247.6c-0.4-5.3-7.2-7.9-10.8-4.6c-5.6,2.9-10,9.6-12.8,14.9c-0.2,0.4-0.2,0.9-0.2,1.3
		c0.2,0.9,1.2,1.5,2.1,1.2c5.3-1.5,12.2-2.3,17.1-5C63.8,253.7,65.5,251.3,65.2,247.6z M57.9,252.7c-1.7,0.6-3.3,0.9-4.9,1.4
		c-1.9,0.6-3.9,1.1-5.8,1.6c2.5-3.6,6.2-8.2,9.6-10c0.5-0.1,1-0.2,1.5-0.3C62.8,247.9,62.8,250.3,57.9,252.7L57.9,252.7z"/>
	<path class="st0" d="M69.2,267.1c-2-5-9.3-5.3-11.8-1.1c-4.5,4.5-6.5,12.2-7.6,18c-0.1,0.4,0,0.9,0.2,1.2c0.5,0.9,1.6,1.1,2.4,0.6
		c4.6-3,11-5.9,14.7-9.9C69.7,273.3,70.6,270.6,69.2,267.1z M63.8,274.3c-1.4,0.9-2.8,1.9-4.3,2.8c-1.7,1.1-3.3,2.2-5.1,3.3
		c1.3-4.2,3.4-9.7,6.1-12.5c0.4-0.3,0.9-0.6,1.4-0.8C67,268.1,67.7,270.4,63.8,274.3L63.8,274.3z"/>
	<path class="st0" d="M71.7,289.2c-3.4-4.2-10.5-2.1-11.5,2.6c-2.8,5.7-2.4,13.6-1.5,19.5c0.1,0.4,0.3,0.8,0.6,1.1
		c0.7,0.6,1.9,0.5,2.5-0.2c3.5-4.3,8.5-9,10.8-14.1C74.2,294.9,74.2,292,71.7,289.2z M68.9,297.7c-1,1.4-2.1,2.7-3.1,4.1
		c-1.2,1.6-2.5,3.2-3.8,4.8c-0.1-4.3,0.2-10.2,1.9-13.7c0.3-0.4,0.7-0.8,1.1-1.2C70,290.9,71.3,292.9,68.9,297.7L68.9,297.7z"/>
	<path class="st0" d="M82.3,306c-4.5-2.8-10.6,1.2-10.2,5.9c-1,6.3,1.9,13.8,4.5,19.1c0.2,0.4,0.5,0.7,0.9,0.9
		c0.9,0.4,1.9-0.1,2.3-0.9c2-5.2,5.4-11.2,6.1-16.7C86.4,310.7,85.4,308,82.3,306z M82.1,315c-0.6,1.6-1.2,3.2-1.8,4.8
		c-0.7,1.9-1.4,3.8-2.2,5.6c-1.4-4.1-2.9-9.8-2.3-13.7c0.2-0.6,0.4-1,0.7-1.4C81.1,308,83,309.6,82.1,315L82.1,315z"/>
	<path class="st0" d="M60.9,224.4c-0.3-5.3-7.2-7.9-10.8-4.6c-5.7,2.8-10,9.6-12.8,14.9c-0.2,0.4-0.3,0.8-0.1,1.2
		c0.2,0.9,1.2,1.5,2.2,1.3c5.3-1.5,12.2-2.3,17.1-5C59.4,230.5,61.2,228.1,60.9,224.4z M53.5,229.5c-1.6,0.5-3.3,0.9-4.9,1.4
		l-5.8,1.6c2.5-3.6,6.2-8.2,9.6-10c0.5-0.1,1-0.2,1.5-0.3C58.6,224.6,58.4,227.1,53.5,229.5L53.5,229.5z"/>
	<path class="st0" d="M58.4,200.2c0-5.3-6.6-8.4-10.5-5.4c-5.9,2.5-10.6,8.9-13.8,14c-0.2,0.4-0.3,0.8-0.2,1.2
		c0.2,0.9,1.1,1.5,2,1.4c5.5-1.1,12.3-1.4,17.4-3.8C56.6,206.2,58.4,203.9,58.4,200.2z M45.8,205.9l-5.9,1.2
		c2.7-3.3,6.8-7.7,10.3-9.2c0.5-0.1,1.1-0.2,1.5-0.2c4.4,2.7,4,5-0.9,7.1C49.1,205.2,47.4,205.6,45.8,205.9z"/>
	<path class="st0" d="M62.5,176.1c0.8-5.3-5.4-9.2-9.5-6.9c-6.1,1.7-11.8,7.2-15.6,11.8c-0.3,0.3-0.4,0.8-0.5,1.2
		c0.1,0.9,0.9,1.7,1.8,1.7c5.5-0.3,12.5,0.4,17.8-1.2C59.7,181.7,61.9,179.8,62.5,176.1z M54.2,179.6c-1.7,0.1-3.4,0.2-5.1,0.4
		l-6,0.3c3.2-3,7.9-6.6,11.6-7.6c0.6-0.1,1.1-0.1,1.6,0C60.1,175.9,59.4,178.2,54.2,179.6L54.2,179.6z"/>
	<path class="st0" d="M66.8,150.7c1.7-5.1-3.7-10-8.2-8.5c-6.3,0.5-12.9,5.1-17.5,8.9c-0.4,0.2-0.6,0.7-0.6,1.1
		c-0.1,1,0.5,1.9,1.5,2c5.5,0.7,12.1,2.5,17.7,1.9C63.1,155.7,65.6,154.2,66.8,150.7z M52.9,152l-6-0.7c3.7-2.3,8.9-5.1,12.7-5.5
		c0.6,0.1,1.1,0.2,1.5,0.3c3.3,3.9,2.2,6.1-3.2,6.5C56.3,152.4,54.7,152.2,52.9,152z"/>
	<path class="st0" d="M75.1,125.3c2.7-4.6-1.4-10.6-6.2-10c-6.3-0.9-13.7,2.2-19,5c-0.4,0.2-0.7,0.6-0.8,0.9c-0.4,0.9,0.1,1.9,1,2.2
		c5.2,1.9,11.3,5.1,16.8,5.7C70.5,129.4,73.2,128.6,75.1,125.3z M61.3,123.7l-5.7-2c4.1-1.5,9.7-3.2,13.6-2.7c0.5,0.1,1,0.4,1.4,0.7
		c2.4,4.5,1,6.4-4.5,5.7C64.6,124.8,63,124.2,61.3,123.7z"/>
	<path class="st0" d="M87.4,103.8c4.2-3.4,2.2-10.5-2.5-11.5c-5.6-2.9-13.6-2.5-19.5-1.7c-0.4,0.1-0.8,0.3-1.1,0.6
		c-0.6,0.7-0.6,1.8,0.1,2.5c4.3,3.5,9,8.6,14,11C81.7,106.1,84.6,106.2,87.4,103.8z M75,97.6l-4.7-3.8c4.3,0,10.2,0.3,13.7,2
		c0.4,0.3,0.8,0.7,1.1,1.1c0.7,5.1-1.2,6.3-6.1,3.8C77.6,99.7,76.3,98.7,75,97.6z"/>
	<path class="st0" d="M106.8,82.2c4.6-2.7,3.6-10-0.9-11.8c-5.2-3.7-13.1-4.4-19.1-4.5c-0.4-0.1-0.9,0.1-1.2,0.4
		c-0.7,0.6-0.8,1.8-0.1,2.5c3.8,4,7.7,9.8,12.3,12.9C100.9,83.8,103.7,84.2,106.8,82.2z M98.9,78.1c-1.2-1.2-2.4-2.5-3.6-3.7
		l-4.1-4.5c4.3,0.6,10.1,1.8,13.3,4c0.4,0.4,0.7,0.8,1,1.2C105.5,80.3,103.3,81.2,98.9,78.1L98.9,78.1z"/>
	<path class="st0" d="M128.8,63.9c5-1.9,5.5-9.2,1.4-11.7c-4.5-4.6-12-6.8-17.9-8c-0.4-0.1-0.8-0.1-1.2,0.2
		c-0.9,0.5-1.2,1.5-0.7,2.4c3,4.7,5.6,11.1,9.6,14.9C122.6,64.3,125.4,65.2,128.8,63.9z M121.9,58.4c-0.9-1.4-1.9-2.8-2.7-4.3
		l-3.2-5.1c4.1,1.4,9.6,3.7,12.3,6.4c0.3,0.4,0.6,0.9,0.7,1.4C127.9,61.7,125.6,62.3,121.9,58.4L121.9,58.4z"/>
	<path class="st0" d="M153.6,51.2c5.3-0.2,8-7.1,4.8-10.8c-2.8-5.7-9.5-10.1-14.7-12.9c-0.4-0.2-0.8-0.3-1.3-0.2
		c-0.9,0.2-1.5,1.2-1.4,2.1c1.4,5.4,2.1,12.3,4.8,17.2C147.7,49.8,150,51.4,153.6,51.2z M148.7,43.8c-0.4-1.7-0.9-3.3-1.3-4.9
		c-0.5-2-1.1-3.9-1.5-5.9c3.5,2.5,8.1,6.3,9.8,9.8c0.1,0.5,0.2,1.1,0.3,1.5C153.5,48.9,151.1,48.7,148.7,43.8L148.7,43.8z"/>
	<path class="st0" d="M179.4,45.7c5.3,0.9,9.4-5.1,7.2-9.4c-1.5-6.2-6.9-12-11.4-16c-0.3-0.3-0.7-0.5-1.2-0.4c-1,0-1.7,0.7-1.7,1.7
		c0.2,5.5-0.7,12.4,0.7,17.8C174,42.8,175.8,45,179.4,45.7z M176.1,32.2l-0.2-6c2.8,3.2,6.4,8,7.3,11.8c0,0.5,0,1.1-0.1,1.6
		c-3.3,3.8-5.6,3.2-6.9-2.2C176.2,35.6,176.1,33.9,176.1,32.2z"/>
	<path class="st0" d="M203.9,49.1c4.9,2.2,10.3-2.8,9.2-7.4c0.1-6.4-3.8-13.3-7.2-18.2c-0.2-0.4-0.6-0.6-1.1-0.7
		c-0.9-0.2-1.9,0.4-2.1,1.2c-1.1,5.5-3.7,11.8-3.5,17.4C199.2,45,200.5,47.7,203.9,49.1z M202.8,40.3c0.3-1.7,0.7-3.4,1.1-5
		c0.4-2,0.9-4,1.3-5.9c2,3.8,4.3,9.3,4.3,13.1c-0.1,0.5-0.2,1-0.5,1.5C204.8,46.9,202.8,45.7,202.8,40.3L202.8,40.3z"/>
	<path class="st0" d="M231.3,63.9c4,3.5,10.7,0.4,11-4.4c2-6.1,0.2-13.9-1.5-19.5c-0.1-0.4-0.4-0.7-0.7-1c-0.9-0.5-1.9-0.2-2.4,0.6
		c-2.7,4.8-7,10.2-8.5,15.6C228,58.7,228.5,61.5,231.3,63.9z M232.8,55.1c0.8-1.5,1.7-3,2.5-4.5l2.9-5.3c0.7,4.3,1.4,10.2,0.2,13.8
		c-0.2,0.5-0.6,0.9-0.9,1.3C232.8,62.1,231.1,60.4,232.8,55.1L232.8,55.1z"/>
	<path class="st0" d="M87.2,299.8c2.2,5.1,7.2,9.8,10.7,14.2c0.3,0.3,0.7,0.6,1.1,0.6c1,0.1,1.9-0.5,2-1.5
		c0.9-5.9,1.5-13.8-1.2-19.6c-1-4.7-7.9-6.8-11.5-2.8C85.8,293.6,85.7,296.6,87.2,299.8z M94.1,303.4c-1-1.4-2.1-2.7-3.1-4.1
		c-2.4-4.9-1.1-6.9,4-6c0.4,0.4,0.7,0.7,1.1,1.2c1.6,3.5,1.9,9.4,1.7,13.7L94.1,303.4L94.1,303.4z"/>
	<path class="st0" d="M96.2,283.5c3.4,4.4,9.4,7.9,13.6,11.4c0.4,0.2,0.7,0.4,1.2,0.3c0.9-0.1,1.7-0.9,1.6-1.9
		c-0.5-5.9-1.7-13.8-5.8-18.8c-2-4.3-9.4-4.8-11.8-0.1C93.4,277.9,94,280.8,96.2,283.5z M103.7,285.5c-1.3-1.1-2.7-2.2-4-3.2
		c-3.5-4.2-2.6-6.4,2.5-6.8c0.5,0.2,0.9,0.6,1.3,0.9c2.4,3,4,8.7,4.9,12.9C106.9,288.1,105.3,286.8,103.7,285.5L103.7,285.5z"/>
	<path class="st0" d="M107.4,264.2c2.6,5,7.9,9.4,11.5,13.6c0.3,0.3,0.7,0.6,1.2,0.6c0.9,0.1,1.9-0.6,1.9-1.5
		c0.6-5.9,0.7-13.9-2.4-19.5c-1.3-4.6-8.4-6.3-11.6-2.1C105.6,258,105.6,260.9,107.4,264.2z M114.4,267.4c-1.1-1.2-2.2-2.6-3.3-3.9
		c-2.7-4.8-1.5-6.8,3.6-6.2c0.4,0.3,0.8,0.7,1.1,1.1c1.9,3.3,2.4,9.2,2.5,13.6L114.4,267.4L114.4,267.4z"/>
	<path class="st0" d="M125,246.2c0.4,5.5,3.5,11.7,5.2,17c0.1,0.4,0.4,0.8,0.8,0.9c0.9,0.5,1.9,0.2,2.4-0.7
		c2.8-5.2,6.1-12.5,5.5-18.8c0.7-4.8-5.2-9.2-9.8-6.5C125.8,239.9,124.7,242.6,125,246.2z M130.2,252c-0.5-1.6-1.1-3.3-1.5-4.9
		c-0.6-5.4,1.4-6.8,5.8-4.3c0.2,0.5,0.4,0.9,0.6,1.5c0.4,3.8-1.5,9.4-3,13.4C131.4,255.9,130.8,253.9,130.2,252L130.2,252z"/>
	<path class="st0" d="M148.3,235.5c-0.6,5.6,1.3,12.2,2,17.7c0.1,0.4,0.3,0.8,0.6,1.1c0.7,0.6,1.9,0.5,2.5-0.2
		c3.8-4.6,8.3-11.2,8.9-17.5c1.5-4.5-3.5-9.9-8.5-8.2C150.2,229.5,148.6,231.9,148.3,235.5z M151.7,237c0.4-5.4,2.6-6.4,6.5-3.2
		c0.1,0.5,0.2,1,0.3,1.5c-0.4,3.8-3.1,9-5.5,12.7l-0.7-5.9C152.1,240.5,151.9,238.8,151.7,237z"/>
	<path class="st0" d="M172.7,224c0.6,5.5,3.9,11.6,5.7,16.8c0.2,0.4,0.5,0.7,0.8,0.9c0.8,0.4,1.9,0.1,2.4-0.7c2.7-5.3,5.8-12.7,5-19
		c0.6-4.8-5.5-9-10-6.2C173.3,217.8,172.4,220.5,172.7,224z M176.4,224.8c-0.7-5.4,1.2-6.9,5.7-4.5c0.2,0.5,0.5,1,0.7,1.4
		c0.5,3.8-1.2,9.5-2.7,13.6l-2-5.7C177.6,228,176.9,226.4,176.4,224.8z"/>
	<path class="st0" d="M197.1,212.6c2.4,5,7.6,9.7,11,14c0.3,0.3,0.7,0.6,1.1,0.6c1,0.1,1.8-0.6,2-1.5c0.8-5.9,1.2-13.8-1.7-19.5
		c-1.1-4.7-8.2-6.6-11.5-2.5C195.6,206.4,195.6,209.3,197.1,212.6z M204.2,216c-1.1-1.3-2.2-2.7-3.2-4c-2.5-4.8-1.2-6.8,3.8-6.1
		c0.4,0.3,0.8,0.7,1.1,1.1c1.7,3.5,2.1,9.3,2,13.7L204.2,216L204.2,216z"/>
	<path class="st0" d="M219.9,194.9c3,4.6,8.9,8.5,12.9,12.3c0.3,0.3,0.8,0.4,1.2,0.4c1,0,1.7-0.9,1.7-1.8c-0.1-6-0.7-13.9-4.5-19.1
		c-1.7-4.5-9-5.4-11.8-0.9C217.4,189,217.9,191.9,219.9,194.9z M223.6,193.9c-3.2-4.5-2.2-6.7,2.9-6.6c0.4,0.3,0.9,0.6,1.2,1
		c2.2,3.2,3.4,9,4,13.3c-1.5-1.4-3-2.7-4.5-4.1C226,196.2,224.8,195,223.6,193.9z"/>
	<path class="st0" d="M240.8,173.7c3.8,4,10.3,6.7,14.9,9.6c0.4,0.2,0.8,0.3,1.2,0.2c0.9-0.2,1.5-1.2,1.4-2.1
		c-1.2-5.9-3.3-13.5-8-17.9c-2.5-4-9.9-3.6-11.7,1.4C237.4,168.4,238.4,171.2,240.8,173.7z M244.3,172c-3.9-3.8-3.4-6.1,1.6-7.1
		c0.5,0.2,0.9,0.4,1.4,0.7c2.8,2.7,5,8.1,6.4,12.3l-5.1-3.2C247.2,173.8,245.7,172.9,244.3,172z"/>
	<path class="st0" d="M256.1,147.8c4.9,2.7,11.8,3.3,17.2,4.8c0.4,0.1,0.9,0,1.2-0.2c0.9-0.5,1.2-1.5,0.7-2.4
		c-2.8-5.2-7.2-11.8-12.9-14.7c-3.7-3.2-10.5-0.5-10.8,4.8C251.2,143.7,252.9,146.1,256.1,147.8z M263.8,146.5
		c-1.7-0.4-3.3-0.9-5-1.4c-4.9-2.4-5.1-4.8-0.5-7.2c0.6,0.1,1.1,0.2,1.5,0.3c3.5,1.7,7.2,6.3,9.8,9.8
		C267.7,147.4,265.7,147,263.8,146.5L263.8,146.5z"/>
	<path class="st0" d="M261.9,119.3c5.4,1.4,12.2,0.6,17.8,0.7c0.4-0.1,0.8-0.2,1.2-0.4c0.7-0.6,0.7-1.7,0.1-2.5
		c-4-4.5-9.8-9.9-16-11.4c-4.2-2.2-10.3,1.9-9.4,7.2C256.2,116.5,258.4,118.5,261.9,119.3z M269.1,116.4c-1.7-0.1-3.4-0.1-5.1-0.2
		c-5.3-1.2-6-3.5-2.2-6.9c0.6-0.1,1.1-0.1,1.6-0.1c3.8,0.9,8.4,4.5,11.8,7.3L269.1,116.4L269.1,116.4z"/>
	<path class="st0" d="M253.4,90.4c5.6,0.1,12-2.4,17.4-3.5c0.4-0.1,0.8-0.3,1.1-0.7c0.6-0.8,0.3-1.9-0.5-2.5
		c-5-3.3-11.8-7.2-18.3-7.2c-4.7-1.1-9.6,4.3-7.4,9.2C247.2,89,249.7,90.3,253.4,90.4z M259.6,85.7c-1.7,0.3-3.3,0.7-5,1.1
		c-5.4,0.1-6.6-2-3.7-6.2c0.5-0.2,1-0.4,1.5-0.4c3.8,0,9.3,2.4,13.1,4.3L259.6,85.7L259.6,85.7z"/>
	<path class="st0" d="M88.8,382.7c1.3-1.8-0.7-5.1-1.3-7c-0.2-0.4-0.2-0.9-0.4-1.4c-0.7-6.9-3.7-12.9-3.1-20.2
		c0.5-6.4,3.1-11.9,4.8-17.9c0.4-0.7,0.6-1.6,0.6-2.5c0-0.1-0.1-0.2,0-0.2c-0.1-0.6-0.8-1.1-1.5-0.9c-3.1,0.5-5,3.8-6.7,6.3
		c-1.5,2.1-2.8,4.3-3.9,6.5c-1.4-1.9-2.7-4-4-6.1c-1.4-2.4-2.5-5-4.5-7.1c-0.1-0.1-0.2-0.2-0.3-0.2c-0.5-0.6-1.1-1.4-1.8-1.1
		c-0.3,0.1-0.5,0.4-0.5,0.7l0,0c-0.6,0-1.1,0.4-1.1,1.1c0.6,8.5,4.1,17.1,7.5,24.8c3.8,8.5,8,17.3,13.8,24.6c0.2,0.3,0.6,0.5,1,0.5
		c0.2,0.2,0.4,0.2,0.7,0.3C88.5,383,88.7,382.9,88.8,382.7z M80.5,365.4c-1.7-3.2-3.3-6.3-4.6-9.6c-1.5-3.7-2.8-7.4-4-11.1
		c1.5,2.1,3,4.2,4.5,5.9c0.8,1.1,2.6,0.6,3.2-0.4c0.6-1.1,1.3-2.3,2-3.4C79.8,352.8,79.5,359.2,80.5,365.4z"/>
	<path class="st0" d="M228,85.4c-2-2.9-6.6-2.7-9-0.3c-3.4,3.5-5.8,8.1-6.8,12.8c0,0.1,0.2,0.3,0.3,0.2c0.1-0.1,0.2-0.2,0.2-0.2
		c0.2,0.3,0.6,0.6,0.9,0.7C220.7,99.8,233.9,93.9,228,85.4z M224.2,91.9c-1.3,1.1-2.9,1.8-4.5,2.2c-1.2,0.2-2.5,0.4-3.7,0.6
		c0.1-0.1,0.2-0.3,0.3-0.4c1.4-2.2,3.1-6.1,5.6-7.1C226.7,85.1,225.9,90.6,224.2,91.9z"/>
	<path class="st0" d="M210.7,69.9c-3-1.8-7.1,0.2-8.3,3.3c-1.6,4.2-2.2,10.1-1,14.5c0,0.1,0.3,0.2,0.4,0.1c0.1-0.1,0.1-0.2,0.2-0.3
		c0.3,0.2,0.7,0.3,1.1,0.2C209.8,86.1,219.6,75.3,210.7,69.9z M209.8,77.4c-0.7,1.5-1.9,2.8-3.3,3.8c-1.1,0.7-2.2,1.3-3.2,2
		c0.1-0.2,0.1-0.3,0.1-0.5c0.4-2.5,0.4-6.8,2.2-8.8C209.4,70.2,210.8,75.6,209.8,77.4z"/>
	<path class="st0" d="M189.6,63.4c-3.4-0.9-6.8,2.3-7.1,5.6c-0.4,5,0.7,9.9,3.2,14.2c0.1,0.1,0.3,0.1,0.4,0c0.1-0.1,0-0.2,0.1-0.3
		c0.4,0.1,0.8,0.1,1.1-0.1C193.3,79.2,199.6,66.1,189.6,63.4z M190.9,70.9c-0.3,1.7-1,3.2-2,4.5c-0.7,1-1.7,1.9-2.4,2.9
		c-0.1-0.2,0-0.4-0.1-0.6c-0.4-2.6-1.5-6.6-0.3-9.1C188.4,64.1,191.3,68.8,190.9,70.9z"/>
	<path class="st0" d="M166.7,64c-3.5,0.1-5.8,4.1-5.1,7.4c1.1,4.8,3.5,9.2,7.1,12.7c0.1,0.1,0.3,0.1,0.4-0.1v-0.4
		c0.4,0,0.7-0.1,1.1-0.4C174.8,78.1,177.1,63.8,166.7,64z M170.1,70.8c0.2,1.7-0.1,3.4-0.7,4.9c-0.4,1.2-1.1,2.3-1.5,3.5
		c-0.1-0.2-0.1-0.4-0.2-0.5c-1.1-2.4-3.4-5.9-2.9-8.6C165.7,65.1,169.9,68.8,170.1,70.8z"/>
	<path class="st0" d="M145,71.7c-3.3,1.4-3.9,6-2,8.8c2.8,4.1,6.8,7.2,11.4,9c0.1,0,0.4-0.1,0.2-0.2l-0.2-0.3
		c0.4-0.1,0.7-0.4,0.8-0.8C157.7,81.6,154.4,67.4,145,71.7z M145.5,77.9c-1.1-5.1,4.2-3.2,5.2-1.4c0.8,1.4,1.2,3.2,1.2,4.8
		c0.1,1.3-0.1,2.5-0.1,3.8c-0.1-0.1-0.2-0.2-0.4-0.4C149.6,83,146.1,80.6,145.5,77.9L145.5,77.9z"/>
	<path class="st0" d="M127.9,83.5c-3.1,1.7-3.2,6.3-1.1,8.9c3.2,3.8,7.4,6.6,12.2,7.9c0.2,0.1,0.4-0.1,0.2-0.2l-0.2-0.3
		c0.4-0.1,0.6-0.5,0.7-0.9C141.5,92.1,136.9,78.4,127.9,83.5z M129,89.8c-1.5-4.9,3.9-3.5,5-1.8c0.9,1.4,1.5,3,1.7,4.7
		c0.1,1.2,0.1,2.5,0.3,3.8c-0.1-0.1-0.2-0.2-0.4-0.4C133.5,94.3,129.8,92.3,129,89.8L129,89.8z"/>
	<path class="st0" d="M112.9,98.6c-2.5,2.5-1.5,6.9,1.3,8.9c4,2.8,8.9,4.3,13.8,4.4c0.1,0,0.3-0.2,0.2-0.3l-0.2-0.2
		c0.2-0.2,0.5-0.6,0.5-1C128.4,103.3,120.3,91.2,112.9,98.6z M120.1,101.2c1.2,1.1,2.2,2.5,2.8,4.1c0.4,1.2,0.8,2.4,1.2,3.6
		l-0.5-0.2c-2.4-1.1-6.6-2-8-4.3C112.9,99.9,118.5,99.8,120.1,101.2z"/>
	<path class="st0" d="M100.3,115.1c-2.1,2.8-0.4,7.1,2.5,8.6c4.4,2.2,9.4,3,14.3,2.4c0.1,0,0.2-0.2,0.1-0.4s-0.2-0.1-0.3-0.2
		c0.2-0.2,0.4-0.7,0.3-1.1C116.4,117.7,106.6,106.9,100.3,115.1z M107.7,116.7c1.4,0.9,2.6,2.1,3.4,3.7c0.6,1.1,1.1,2.2,1.7,3.3
		l-0.5-0.1c-2.5-0.7-6.8-1.1-8.5-3.1C100.4,116.5,106,115.6,107.7,116.7z"/>
	<path class="st0" d="M90.3,134.3c-1.4,3.2,1.2,7,4.5,7.8c4.8,1.1,9.8,0.8,14.5-1c0.2-0.1,0.2-0.3,0-0.4l-0.4-0.1
		c0.2-0.3,0.2-0.7,0.1-1.1C106.4,133.1,94.5,124.8,90.3,134.3z M97.9,134.1c1.5,0.6,3,1.5,4.2,2.8c0.8,0.9,1.6,2,2.5,2.8l-0.5,0
		c-2.7-0.1-6.8,0.5-9-1.1C90.8,135.6,95.8,133.4,97.9,134.1z"/>
	<path class="st0" d="M83.6,154.6c-1.2,3.3,1.6,6.9,4.9,7.5c4.9,0.8,9.8,0.2,14.4-1.8c0.1-0.1,0.2-0.3,0-0.4l-0.4-0.1
		c0.1-0.4,0.1-0.7,0-1.1C99.7,152.3,87.3,144.8,83.6,154.6z M91.3,153.9c1.6,0.5,3.1,1.4,4.3,2.5c0.9,0.9,1.7,1.9,2.6,2.7
		c-0.2-0.1-0.4,0-0.5,0c-2.7,0.1-6.8,0.9-9.1-0.6C84.2,155.7,89.2,153.3,91.3,153.9z"/>
	<path class="st0" d="M80.6,178.5c-0.3,3.5,3.4,6.3,6.8,5.9c4.9-0.6,9.6-2.5,13.4-5.7c0.1-0.1,0.1-0.4-0.1-0.4h-0.4
		c0.1-0.4-0.1-0.8-0.3-1.1C95.5,172,81.5,168.1,80.6,178.5z M87.8,175.8c1.7,0,3.3,0.4,4.8,1.2c1.1,0.6,2.2,1.3,3.3,1.9
		c-0.2,0.1-0.3,0.1-0.5,0.1c-2.5,0.7-6.3,2.8-8.9,2C81.5,179.5,85.7,175.8,87.8,175.8z"/>
	<path class="st0" d="M79.2,200c0.4,3.5,4.5,5.5,7.7,4.5c4.7-1.5,8.9-4.3,12.1-8.1c0.1-0.1,0-0.4-0.1-0.4l-0.3,0.1
		c0-0.4-0.2-0.7-0.5-1C92.6,190.8,78.1,189.7,79.2,200z M85.4,201.3c-5.1-0.5-1.7-5,0.3-5.4c1.7-0.3,3.3-0.2,5,0.3
		c1.2,0.4,2.4,0.9,3.6,1.2c-0.2,0.1-0.3,0.2-0.5,0.2C91.5,199,88.2,201.7,85.4,201.3L85.4,201.3z"/>
	<path class="st0" d="M79.2,222.3c1.1,3.3,5.7,4.3,8.6,2.7c4.3-2.5,7.7-6.1,10-10.6c0.1-0.2-0.1-0.4-0.2-0.3s-0.2,0.1-0.3,0.2
		c-0.1-0.4-0.4-0.7-0.7-0.9C90.2,210.3,75.8,212.5,79.2,222.3z M84.7,217c1.5-0.7,3.2-1,4.9-0.8c1.2,0.1,2.5,0.3,3.7,0.4
		c-0.1,0.1-0.3,0.2-0.4,0.3c-2,1.7-4.6,5.1-7.4,5.4C80.5,222.9,82.7,217.8,84.7,217z"/>
	<path class="st0" d="M238.4,104.3c-0.9-3.5-5.3-4.8-8.3-3.5c-4.5,2.1-8.3,5.5-10.9,9.7c-0.1,0.2,0.1,0.3,0.2,0.3
		c0.1,0,0.2-0.1,0.4-0.1c0.1,0.4,0.3,0.7,0.7,0.9C226.4,115.2,241,114.4,238.4,104.3z M232.1,103.8c5.1-0.2,2.4,4.6,0.4,5.4
		c-1.6,0.5-3.3,0.7-5,0.4c-1.3-0.2-2.5-0.5-3.7-0.7c0.1-0.1,0.3-0.2,0.4-0.3C226.4,106.9,229.3,103.9,232.1,103.8L232.1,103.8z"/>
	<path class="st0" d="M239.6,128c0.5-3.5-3-6.4-6.4-6.3c-5,0.2-9.7,1.9-13.7,4.9c-0.1,0.1-0.1,0.4,0.1,0.4c0.1,0,0.2,0,0.4,0
		c-0.1,0.4,0,0.7,0.2,1.1C224.4,133.6,238.1,138.3,239.6,128z M232.3,130.2c-1.7-0.1-3.3-0.6-4.7-1.5c-1.1-0.7-2.1-1.5-3.2-2
		c0.2-0.1,0.3-0.1,0.5-0.1c2.5-0.7,6.4-2.4,9-1.4C238.8,126.9,234.4,130.4,232.3,130.2z"/>
	<path class="st0" d="M229.6,148.1c1.7-3.2-0.7-7.1-3.9-8.1c-4.8-1.4-9.8-1.5-14.6-0.1c-0.1,0-0.2,0.3,0,0.4
		c0.2,0.1,0.2,0.1,0.3,0.2c-0.2,0.3-0.2,0.7-0.1,1.1C213.4,148.3,224.8,157.3,229.6,148.1z M222,147.8c-1.5-0.7-2.9-1.7-4-3
		c-0.7-1-1.4-2-2.3-3c0.2,0.1,0.3,0.1,0.6,0.1c2.6,0.2,6.9-0.1,9,1.7C229.2,146.8,223.9,148.6,222,147.8z"/>
	<path class="st0" d="M216.3,167.3c2.3-2.7,0.9-7.1-1.9-8.7c-4.3-2.4-9.2-3.6-14.2-3.3c-0.1,0-0.3,0.2-0.1,0.4l0.3,0.2
		c-0.2,0.2-0.4,0.7-0.4,1C200.5,163.7,209.5,175.1,216.3,167.3z M213.1,161.8c3.1,4.1-2.4,4.6-4.1,3.5c-1.4-1-2.4-2.3-3.2-3.8
		c-0.6-1.2-1-2.4-1.5-3.4c0.2,0.1,0.3,0.2,0.6,0.2C207.2,159,211.4,159.6,213.1,161.8L213.1,161.8z"/>
	<path class="st0" d="M200.8,181c2.7-2.3,2-6.8-0.6-9c-3.8-3.1-8.5-5-13.5-5.5c-0.1,0-0.3,0.2-0.2,0.3l0.2,0.2
		c-0.3,0.2-0.5,0.6-0.5,1C185.7,175,192.9,187.7,200.8,181z M193.9,177.9c-1.2-1.2-2-2.7-2.5-4.3c-0.4-1.2-0.6-2.5-1-3.6l0.4,0.3
		c2.4,1.2,6.3,2.5,7.6,4.9C200.9,179.7,195.3,179.3,193.9,177.9z"/>
	<path class="st0" d="M183.5,194.6c3.1-1.7,3.2-6.3,1.1-8.9c-3.2-3.8-7.4-6.6-12.1-7.9c-0.2-0.1-0.2,0.1-0.2,0.2
		c0,0.1,0.1,0.2,0.2,0.3c-0.4,0.1-0.6,0.5-0.7,0.9C169.8,185.9,174.5,199.7,183.5,194.6z M182.3,188.3c1.5,4.9-3.8,3.6-5,1.8
		c-0.9-1.4-1.5-3-1.7-4.6c-0.1-1.2-0.1-2.5-0.3-3.8l0.4,0.4C177.9,183.7,181.6,185.7,182.3,188.3L182.3,188.3z"/>
	<path class="st0" d="M164.2,204.6c3.3-1.1,4.3-5.7,2.7-8.5c-2.5-4.3-6.1-7.7-10.6-10c-0.2-0.1-0.4,0-0.3,0.2l0.2,0.3
		c-0.4,0.1-0.7,0.3-0.9,0.7C152.2,193.7,154.3,208,164.2,204.6z M164.1,198.2c0.7,5.1-4.5,2.8-5.3,0.9c-0.7-1.5-1-3.2-0.8-4.9
		c0.1-1.3,0.4-2.5,0.4-3.7c0.1,0.2,0.2,0.3,0.3,0.4C160.5,192.9,163.8,195.6,164.1,198.2L164.1,198.2z"/>
	<path class="st0" d="M145.2,213.7c3.5-0.7,5.1-5,3.8-8.1c-1.9-4.6-5-8.5-9.1-11.3c-0.1-0.1-0.3,0.1-0.3,0.2s0.1,0.2,0.1,0.4
		c-0.4,0-0.7,0.2-0.9,0.6C134.9,201.2,135,215.7,145.2,213.7z M140.6,207.6c-0.5-1.6-0.5-3.3-0.1-5c0.2-1.2,0.7-2.4,0.9-3.7
		c0.1,0.1,0.2,0.3,0.3,0.4c1.4,2.2,4.3,5.3,4.3,8C145.9,212.6,141.2,209.6,140.6,207.6z"/>
	<path class="st0" d="M127.3,224.1c3.5-0.3,5.6-4.5,4.6-7.6c-1.4-4.8-4.2-9-7.9-12.2c-0.1-0.1-0.4,0-0.4,0.1s0,0.2,0.1,0.3
		c-0.4,0-0.8,0.2-1,0.5C118.3,210.6,116.8,225.1,127.3,224.1z M128.7,217.9c-0.6,5.1-5,1.7-5.3-0.4c-0.3-1.7-0.2-3.4,0.4-5
		c0.4-1.2,0.9-2.4,1.3-3.5l0.2,0.5C126.4,211.9,129,215.2,128.7,217.9L128.7,217.9z"/>
	<path class="st0" d="M109.8,234.6c3.5,0.2,6.1-3.7,5.7-6.9c-0.7-4.9-2.9-9.5-6.2-13.1c-0.1-0.1-0.4-0.1-0.4,0.1l0,0.4
		c-0.4-0.1-0.8,0.1-1.1,0.3C102.8,220,99.4,234.2,109.8,234.6z M106.8,227.5c-0.1-1.7,0.3-3.4,1.1-4.9c0.6-1.2,1.2-2.2,1.7-3.3
		l0.1,0.5c0.9,2.5,3,6.2,2.3,8.9C110.8,233.7,106.9,229.7,106.8,227.5z"/>
	<path class="st0" d="M91.4,249.9c3.4,0.8,6.7-2.5,6.9-5.8c0.2-5-1.1-9.8-3.6-14.1c-0.1-0.1-0.3-0.2-0.4,0l0,0.4
		c-0.4-0.1-0.8-0.1-1.1,0.1C87.2,234.2,81.3,247.5,91.4,249.9z M89.8,242.5c0.3-1.7,0.9-3.3,2-4.6c0.7-1,1.6-2,2.4-3l0.1,0.6
		c0.4,2.6,1.8,6.6,0.6,9C92.5,249.2,89.5,244.5,89.8,242.5z"/>
	<path class="st0" d="M200.3,141c6.9-8.5,11.7-21.9,5.6-32.2c-12.6-21-45.5-26.1-61.6-6.6c-0.2,0.1-0.3,0.1-0.4,0.2
		c-1.9,0.9-1,4.1,1.1,3.9c4.3-0.4,8.5-0.7,12.8,0.7c1.3,0.6,2.6,1.2,3.8,2.2c-14.4,0.5-28.6,12.3-35.2,24
		c-4.8,8.4-8.2,17.6-9.9,27.1c-1.7,9.2-3.7,19.5-2.5,28.7c0.1,0.3,0.2,0.6,0.3,0.8c0,0.1,0.1,0.2,0.1,0.3c0.2,0.5,0.9,0.8,1.4,0.6
		c0.7,0,1.3-0.6,1.4-1.2c0.1-0.6,0.3-1.3,0.5-1.9c4.1-7.8,6.9-15.7,13.3-22.4c3.5-3.8,7.4-7.2,11.7-10.1c1.8-1.2,3.8-2.2,5.7-3.2
		c-0.4,0.6-0.6,1.2-0.9,1.8c-1.4,2.8-3.3,5.5-4.1,8.5c-0.1,0.4-0.1,0.9,0.1,1.2c-0.2,0.4-0.1,0.9,0.1,1.3c0.4,0.7,1.3,1.1,2.1,0.6
		c8.7-5.1,16.3-6,26.1-7.5c1-0.1,1.9-0.2,2.9-0.4c2-0.2,4-0.6,5.9-1.3c1.7-0.5,3.3-1.2,4.8-2.2C190.9,150.6,196.1,146.2,200.3,141z
		 M190.8,140.9c-3.1,3-6.6,5.6-10.4,7.7c-0.6,0.2-1.2,0.5-1.8,0.7c-4,1.2-8,2.2-12.1,2.8c-5.1,0.9-10.8,1.4-15,4.7
		c-0.4,0.2-0.8,0.3-1.2,0.5c0.2-0.5,0.5-1,0.7-1.5c1.4-2.5,2.5-5.1,3.5-7.9c0.9-1,0.7-2.9-0.9-2.8l-0.3,0.1c-0.2,0-0.6,0.1-0.8,0.2
		c-12.3,2.1-25.6,14-33,27c0.3-2.8,0.6-5.6,1.1-8.4c1.5-8.2,3.6-16.5,7.6-23.8c4.1-7.7,9.5-15.1,17-19.6c6.9-4.2,14.1-5.6,21.5-8.4
		c0.6-0.2,1.1-0.8,1.1-1.5c0.3-0.2,0.4-0.4,0.5-0.7c0.7-4.5-5.8-7.1-9.4-8.1c-1.9-0.6-4-0.9-6-1.1c6.2-3.3,12.9-5.6,20.1-4.9
		c10.1,0.9,22.4,6.4,26.8,16.4C204.5,122.7,198.3,133.9,190.8,140.9z"/>
	<path class="st0" d="M189.7,128.9c8.8-11.6-1.2-25.3-15.4-23.6c-0.2,0-0.5,0.1-0.6,0.4c-0.2,0.4-0.1,0.9,0.2,1.1l0.7,0.4
		c1.4,2.4,3,4.5,4.1,7.2c-0.1,0.5,0,1,0.2,1.4c0.2,0.3,0.4,0.7,0.6,1.1c0.4,1.6,0.6,3.4,1.1,5c-6.9-3.1-17.2-2.2-23.4-0.1
		c-10.1,3.5-20,11.1-22.4,22.1c-0.1,0.5,0.6,0.9,0.9,0.5c0.1-0.1,0.1-0.1,0.2-0.2c0.1,0.1,0.1,0,0.2-0.1c5.1-5.2,10.4-8.5,18-8.5
		c4.8,0,9.6,0.7,14.4,0.8h1c-1.7,1.5-2.9,3.4-3.8,5.5c-0.3,0.6-0.6,1.2-0.8,1.8c-0.2,0.6,0.5,0.7,0.9,0.5c5.5-4.5,11.8-5.5,17.8-8.7
		C186.1,133.8,189,132.1,189.7,128.9z"/>
	<path class="st0" d="M139,176.7c0.3-2.4-3.3-2.9-4.3-1c-1,1.1-1.9,2.4-2.7,3.7c-0.8,0.9-1.5,2-2,3c0,0.1-0.1,0.2-0.1,0.4
		c-0.4,1.9,0.7,3.6,2.6,4C137.4,188.1,138.5,179.8,139,176.7z"/>
	<path class="st0" d="M149.4,178.9c0.7,0.7,1.9,0.7,2.6,0c1.7-1.5,1.9-4.9,1.5-6.9c-0.1-0.2-0.2-0.5-0.4-0.7c-0.6-0.6-1.5-0.6-2.1,0
		c-1.3,1.7-2.8,4.6-2,6.8C149,178.4,149.1,178.7,149.4,178.9z"/>
	<path class="st0" d="M162.7,174.1c1.2,0.7,2.7,0.3,3.3-0.9c0.7-1.2,0.3-2.7-0.9-3.3c-0.3-0.2-0.7-0.3-1-0.4
		c-0.6-0.2-1.2-0.1-1.7,0.2c-1.1,0.6-1.5,2-0.9,3.2c0.2,0.3,0.4,0.6,0.7,0.9C162.4,173.8,162.5,174,162.7,174.1z"/>
	<path class="st0" d="M244.6,314c1.1-1.4-0.6-3.6-2.2-2.7l-0.1,0.1c-0.1-0.1-0.2-0.2-0.3-0.2c-14.7-4.7-35.2,6.6-47.3,14.2
		c-16.1,10.3-29.3,24.5-38.3,41.3c-8.8,16.2-11.8,35.5-2.9,52.3c3.1,5.6,7.7,10.1,13.5,13c11.5,8.4,27.1,7.9,39.9,1.6
		c18-9,22.1-28.1,20.3-46.5c-1.2-13.1-4-25.5-1.7-38.7C227.9,334.7,236.6,324.9,244.6,314z M218.3,346.9
		c-4.6,18.1,1.9,36.1,0.9,54.3c-1.2,19.6-20.9,32.1-39.3,27.7c-17.5-4.1-22.1-21.2-22.4-36.7c1-5.6,2.5-11.1,4.5-16.4
		c0.4-0.9,0.7-1.6,1.1-2.5c0.9,2.9,3.3,5.5,5.3,7.7c0.4,0.4,1.1,0.6,1.7,0.4c0.8-0.3,1.1-1.2,0.8-1.9c-1.5-4.2-2-8.8-1.4-13.3
		c0.3-2.5,1.3-4.9,2-7.2c2.2-3.2,4.5-6.4,6.4-9.9c2.3-2.5,4.8-4.9,7.4-7.1c0.2,2.1,0.7,4.2,1.2,6.3c0.5,2.6,3.9,2.2,4.4-0.2
		c0.9-3.8,2.4-7.5,4.8-10.7c1.5-2,4.5-4.1,4.9-6.6c2.3-1.4,4.6-2.8,7-4c5.9-3,12.1-5.6,18.5-7.7c3-1.1,6.1-1.8,9.2-2.7
		C226.6,324,221.2,335.7,218.3,346.9L218.3,346.9z"/>
	<path class="st0" d="M212.7,385.6c-0.2-3.6-0.7-7.1-1.1-10.7c0-2.1-0.2-4.3-0.7-6.4c-1.1-10.8-0.9-21.1,7-30.8
		c0.1-0.2,0.2-0.6,0.1-0.8c-0.2-0.4-0.7-0.6-1.1-0.4c-0.7,0.4-1.5,0.8-2.2,1.2h-0.1c-14.4,1.9-25.2,25.1-17.6,37.7
		c-1.6-0.6-3.2-1.5-4.6-2.5c-4.2-2.8-6.1-7.2-8-11.7c-0.3-0.8-1.7-0.6-1.7,0.3l0,0c-5.1,5.7-4.5,15.2-2.4,22.1
		c1.7,5.1,5.3,13.4,11.3,14.5c-2.4,0.7-4.8,1.1-7.2,1.1c-0.9-0.2-1.8-0.4-2.7-0.7c-4.5-1.4-8-4.9-12.2-7l0,0
		c-0.1-0.3-0.3-0.7-0.6-0.9c-0.6-0.5-1.6-0.4-2,0.3c-0.6,0.2-0.9,0.7-0.7,1.4l0,0c-3.5,7.8,0.1,18.4,6.6,23.7c9,7.2,20.6,7.4,30,0.8
		C212.4,409.9,213.4,396,212.7,385.6z"/>
	<path class="st0" d="M241.6,279.3c-1.1-9-10.5-15.5-19.4-12.3c-4.3,1.7-7.4,5.3-8.4,9.8c-2.8,6.3,2.8,15.4,9.4,17.3
		C231.8,296.6,242.8,288.9,241.6,279.3z M224.3,286.7c-3.1-2-3.8-5-4.1-8.2c0.1-0.2,0.1-0.3,0.1-0.4c0.9-2.5,3.2-5,6.1-4.9
		c3.9,0.1,9.2,3.3,8,8C233.3,285.2,228.5,289.3,224.3,286.7z"/>
	<path class="st0" d="M193.9,311.4c3.9-3.9,4.8-10.3,0.9-14.5c-2.7-3.1-7.1-4.2-10.9-2.8c-1.5,0.4-2.8,1.1-4,2.2
		c-4,4-4.6,10.5-0.4,14.6C183.4,314.8,189.8,315.5,193.9,311.4z"/>
	<path class="st0" d="M163.1,326.6c-0.6-1.9-2.1-3.3-4-3.8l-0.5-0.9c-0.7-1.2-2-1.7-3.4-1.4c-3.2,0.7-5.4,3.5-5.3,6.8
		c0.4,3.5,3,6.5,6.8,6.3C160.3,333.2,164.3,330.6,163.1,326.6z"/>
</g>
</svg>
