<?xml version="1.0" encoding="utf-8"?>
<!-- Generator: Adobe Illustrator 23.0.6, SVG Export Plug-In . SVG Version: 6.00 Build 0)  -->
<svg version="1.1" id="Layer_1" xmlns="http://www.w3.org/2000/svg" xmlns:xlink="http://www.w3.org/1999/xlink" x="0px" y="0px"
	 viewBox="0 0 540 1080" style="enable-background:new 0 0 540 1080;" xml:space="preserve">
<style type="text/css">
	.st0{clip-path:url(#SVGID_2_);}
	.st1{fill:#D7871A;}
</style>
<title>accent</title>
<g>
	<defs>
		<rect id="SVGID_1_" width="540" height="1080"/>
	</defs>
	<clipPath id="SVGID_2_">
		<use xlink:href="#SVGID_1_"  style="overflow:visible;"/>
	</clipPath>
	<g class="st0">
		<path class="st1" d="M165.7,1037.8c10.5-4.7,15.2-17,10.4-27.5c-4.7-10.5-63.8-91.2-63.8-91.2s21.1,97.7,25.8,108.2
			C142.9,1037.8,155.2,1042.5,165.7,1037.8z M146.2,998c12.8,3.5,15.8,22,13.8,33c-6.1-2.6-10-8.8-12.1-14.8S145.9,1004.2,146.2,998
			z"/>
		<path class="st1" d="M218.8,972.6c5.4-8.3,3.1-19.4-5.1-24.8c-8.3-5.5-88.5-36.8-88.5-36.8s60.5,61.3,68.8,66.7
			C202.3,983.1,213.4,980.8,218.8,972.6z M176.9,949.6c13.8-0.3,26.6,12.2,30.7,24.5c-7,0.1-13.8-3.5-19-7.9
			C183.3,961.9,179.3,956.1,176.9,949.6L176.9,949.6z"/>
		
			<ellipse transform="matrix(0.1602 -0.9871 0.9871 0.1602 48.08 826.0113)" class="st1" cx="509.5" cy="384.8" rx="17.3" ry="17.3"/>
		<path class="st1" d="M241.1,671.7c-16.3-17-41.8-19.5-62.3-9.4s-36.5,29.3-48.4,48.5c-6.2,10-11.4,20.6-15.5,31.7
			c8.3,2.1,12.9,0.8,24.3-2.1c7.5-16.8,17.6-32.8,30.5-45.9c15.1-15.3,38.6-27.6,58-11.4c8.7,7.2,12.5,18.7,9.8,29.7
			c-3,8.7-11,14.3-20.7,12.3c-4.6-1.8-8.4-4.8-8-10.7c0.2-3.6,2.6-6.8,6.1-6.9c-0.8,0.6-1.5,1.4-1.9,2.4c-1.3,3.2,0.7,7.1,4.1,7.7
			s6.6-2.4,7-5.8c1.5-12.5-16.1-12.4-21.3-4.1c-5.9,9.3-0.9,22.3,8.6,26.8s21.4,2.9,29.8-3.4C260.1,716.8,255.9,687.1,241.1,671.7z"
			/>
		<path class="st1" d="M357.5,665.5c1.4,1.6,3.8,0.2,3.9-1.6c1.9-36.8-28.8-61.4-61.7-56.8c4.8-2,9.8-3.5,14.5-5.6
			c1.8-0.8,1.1-2.9,0-4c-24.2-24.8-58.7-22.5-91.5-7.5c3.6-4.4,7.7-8.4,12.1-12c2-1.6-0.2-3.4-2.2-3.8
			c-53.1-10.8-119.8,37.1-119.9,142.3c0,1.2,1.8,1.3,2.7,1c16.8-55.1,80.2-95.3,123.9-67.7c36.9,23.3,40.8,65,12.2,100
			c-1.3,1.6-0.3,3.1,1.6,3.9c38,15.7,69-15.3,59.1-50.8c11.6-0.2,18,10.9,20,21.5c0.4,1.9,2.6,2,3.9,1c22.6-17.8,22.9-49.9,4.1-69.9
			C347.3,656,352.1,659.4,357.5,665.5z M273.6,631.7c-27.7-13-59.8-14.6-88.1-2.2c31-10.1,67.8-3,90.6,21.1
			c24,25.3,24.8,60.5,8.7,90c4.7-19.3,7.4-38.2-0.2-57.1c-6.4-16.2-18.3-29.6-33.6-37.8c-32.9-17.8-75.6-12.5-104.3,11
			c1.7-2.4,3.6-4.6,5.7-6.7c23.3-32.8,65-46.8,103.6-36.8c37.3,9.7,71,39.8,76,79.2C320.5,664.6,300.6,644.4,273.6,631.7z"/>
		<path class="st1" d="M152.6,469.8c-5.4-14.8-18.9-25.4-25.2-39.9c-1-2.4-5-0.7-4.2,1.8c2.7,7.9,2.8,16.1,4.6,24.2
			c1.4,6,5.9,12.3,8.6,17.8c5.9,12.5,8.1,24.7,8.5,38c-0.3,1.4-0.5,2.9-0.7,4.3c-0.9,3.1-1.4,6.2-1.5,9.4c0,0.4,0.1,0.8,0.3,1.2
			c-0.2,0.3-0.3,0.7-0.3,1.1v0.9c0,3,4.6,3,4.6,0c0-2.1,9.4-4.1,11-4.2c3.3-0.2,6.6,0.2,9.8,1.2c6.1,2.1,11.4,5.8,15.6,10.7
			c1.1,1.2,3.6,0.7,3.9-1c1.7-12.3,1.2-32.4-13.8-36.6c-9.4-2.6-17.3,0.1-22.7,5.6C153.7,492.9,156.9,481.7,152.6,469.8z"/>
		<circle class="st1" cx="438.5" cy="240.5" r="17.3"/>
		<circle class="st1" cx="345.3" cy="120.8" r="17.3"/>
		<circle class="st1" cx="204.1" cy="30.3" r="17.3"/>
		<path class="st1" d="M168.4,874.2c15.6-3.5,30.6-16.3,33-32.7c2.3-15.2-9.2-33.7-25.9-33.2c-7.7,0.3-14.6,5-17.5,12.2
			c-2.7,6.8,1,15.5,8.4,17.4c5.2,1.3,10.9-2.3,10.1-7.7c-0.3-2.4-2.3-4.9-5-5c-2.4-0.2-4.6,1.2-5.5,3.3c-0.2,0.6-0.6,2.8,0,3.3
			c-2.4-2-2.4-6.1-0.8-8.5c1.6-4.3,8.9-6.2,13.1-4.2c5.6,2.8,9.4,8.3,10,14.5c0.5,6.8-3.5,13-8.5,17.4c-9.1,8-21.8,8.8-32.6,4.2
			c-17.5-6.7-22.4-27.1-23.1-44.3c-0.8,0.1-12.5,3.6-20.9,2c0.7,11.9,3.3,23.6,8.8,34C122.5,866.9,145.8,879.3,168.4,874.2z"/>
		<path class="st1" d="M209.4,216c-16.2,4.4-108.7,49.1-71.5,210.5c-11.4-143.7,71.3-147.5,87.4-152c16.2-4.4,25.7-21.1,21.3-37.3
			S225.6,211.6,209.4,216L209.4,216z M200.9,263c-9.1,5.9-18.3,11.8-27.8,17.2c5.1-20.8,34-40.5,55.3-34.5
			C219.1,251.2,210,257.2,200.9,263z"/>
		
			<ellipse transform="matrix(0.1602 -0.9871 0.9871 0.1602 -128.4474 976.8481)" class="st1" cx="509.9" cy="563.9" rx="17.3" ry="17.3"/>
		<path class="st1" d="M404,620.5c13.8-6.7,19.7-23.3,13-37.2c-6.6-13.9-62.3-90.1-202-29.8c127.9-34.1,145,40,151.7,53.9
			c6.6,13.9,23.3,19.8,37.2,13.2C403.9,620.5,404,620.5,404,620.5z M337.7,553c27.7-3.3,63.2,25.6,56.4,55.2
			c-5.7-12-13.7-22.8-23.6-31.7C360.5,567.4,349.2,559.9,337.7,553z"/>
		<path class="st1" d="M290,271.2C273.3,272,173.6,295.1,174.4,460C194.8,317.9,276,332.4,292.7,331.6c16.7-0.7,29.6-14.9,28.9-31.5
			C320.8,283.4,306.7,270.5,290,271.2z M279.3,308.8c-8.5,2.8-16.9,6-25,9.8c-5.4,2.5-10.9,5.1-15.6,8.8c1.8-13.5,17.9-23,29.5-26.9
			c9.8-3.2,29.6-6,35,6.2C295.6,303.7,286.7,306.5,279.3,308.8L279.3,308.8z"/>
		<path class="st1" d="M411.2,457.2c-14-9.6-109.1-51.7-209.2,82.7c103.4-102.9,160.5-41.6,174.4-32c13.8,9.8,33,6.5,42.8-7.3
			c9.8-13.8,6.5-33-7.3-42.8C411.7,457.6,411.5,457.4,411.2,457.2L411.2,457.2z M368.9,481.1c-11.2-3.5-22.9-7.1-34.7-7.6
			c2.6-2.2,5.6-3.7,8.9-4.6c20-5.9,51.5,4.3,59,25.3C391.6,488.7,380.3,484.7,368.9,481.1L368.9,481.1z"/>
		<path class="st1" d="M360.5,355.6c-16.2-4.5-118.6-13.2-168.8,144.6c63.4-129.5,136.5-90.5,152.7-86.1c16.2,4.5,32.9-5,37.3-21.2
			C386.1,376.8,376.7,360.1,360.5,355.6z M324.3,393c-13.1,1-27.5,2.5-39.6,8c1.8-3.3,4.3-6.3,7.4-8.5c11.1-8.7,26.5-12,40.4-11
			c11.1,0.8,26.5,5.3,30.5,17.2C351.9,391.6,337,392.2,324.3,393z"/>
		<path class="st1" d="M-5.2,977.7C3,972.3,63.5,911,63.5,911s-80.2,31.3-88.5,36.8c-8.3,5.4-10.6,16.6-5.1,24.8
			C-24.6,980.8-13.5,983.1-5.2,977.7z M0.6,952.1c3.3-1.6,7-2.4,10.7-2.4c-4.2,12.3-17,24.7-30.7,24.5
			C-15.9,964.4-8.7,956.5,0.6,952.1z"/>
		<path class="st1" d="M23.1,1037.8c10.5,4.7,22.8,0.1,27.5-10.4c0,0,0,0,0,0c4.7-10.5,25.8-108.2,25.8-108.2s-59.1,80.7-63.8,91.2
			C7.9,1020.8,12.6,1033.1,23.1,1037.8C23.1,1037.8,23.1,1037.8,23.1,1037.8z M33.7,1004.3c2.2-2.8,4.8-5.3,8.3-6.3
			c0.6,11.8-1.2,27.7-13.8,33C26.6,1021.8,28.1,1011.8,33.7,1004.3L33.7,1004.3z"/>
		<path class="st1" d="M94.4,1080c13.9,0,25.1-11.2,25.2-25.1c0-13.8-24.8-131.9-24.8-131.9l-0.3,1.6c-3,13.9-25,117.3-25.1,130.2
			C69.3,1068.7,80.5,1080,94.4,1080C94.4,1080,94.4,1080,94.4,1080z M90,1026.5c0.4-5,1.3-9.9,2.6-14.7c0.6,0.8,1.2,1.7,1.7,2.6l0,0
			c9.6,15.4,8.9,38.9,2.1,55c-0.8-1.4-1.5-2.8-2.1-4.2l0,0C89.2,1053.3,88.9,1039,90,1026.5z"/>
		<path class="st1" d="M-58,237.3c-4.4,16.2,5.1,32.9,21.3,37.3c16.2,4.4,98.9,8.2,87.4,151.9C88,265.1-4.5,220.4-20.7,216
			C-36.8,211.6-53.5,221.1-58,237.3z M15.2,280.2C5.7,274.9-3.5,269-12.7,263s-18.1-11.8-27.4-17.4
			C-18.8,239.7,10.1,259.4,15.2,280.2z"/>
		<path class="st1" d="M-132.8,300.1c-0.7,16.7,12.2,30.8,28.9,31.5c0,0,0,0,0,0c16.7,0.7,97.9-13.7,118.3,128.4
			C15.1,295-84.6,272-101.3,271.2C-118,270.5-132.1,283.4-132.8,300.1z M-77.9,301.2c10.9,4.1,25.8,13.4,27.4,26.1
			c-7.9-6.1-17.8-10-26.9-13.6s-18.9-7.6-28.9-8.3c-2.9-0.3-5.9,0.2-8.7,1.2C-109.2,293.8-87.9,297.5-77.9,301.2z"/>
		<path class="st1" d="M20.3,874.2c22.6,5.1,45.9-7.3,56.4-27.4c5.5-10.5,8-22.2,8.8-34c-8.4,1.6-20-1.9-20.9-2
			c-0.6,17.2-5.6,37.7-23.1,44.3c-10.8,4.5-23.5,3.8-32.6-4.2c-5-4.4-9-10.6-8.5-17.4c0.6-6.2,4.4-11.7,10-14.5
			c4.2-2.1,11.5-0.1,13.1,4.2c1.6,2.5,1.6,6.6-0.8,8.5c0.6-0.5,0.2-2.7,0-3.3c-0.9-2.2-3.2-3.5-5.5-3.3c-2.7,0.1-4.6,2.6-5,5
			c-0.7,5.4,5,9,10.2,7.7c7.4-1.9,11.1-10.5,8.4-17.4c-2.9-7.1-9.8-11.9-17.5-12.2c-16.7-0.5-28.2,18.1-25.9,33.2
			C-10.3,857.8,4.8,870.6,20.3,874.2z"/>
		<path class="st1" d="M94.4,671.3c1,3.1,1.6,4.9,1.6,4.9s27.2-110.4,97.3-111.9c-21-53.9-77.3-11.1-77.3-11.1s51.3-46.9-21.4-131.5
			c-0.1,0.1-0.2,0.2-0.3,0.3c-69,86.4-25.8,129.7-25.8,129.7s-54.3-39.4-72.3,12.2C56.1,567.6,87.3,650.2,94.4,671.3z M120,577.9
			c13.3-15.3,34.9-24.9,54.2-14.6c-21-0.2-36.3,9.5-48.7,26c-12.1,16.3-20.4,34.9-30.7,52.3C96.6,619,105,595.2,120,577.9z
			 M93.4,459.7c0,0,0.4,0.8,1,2.2l0,0c2.9,7.1,11.7,30.4,11.7,58.2s-8.8,51.2-11.7,58.2l0,0c-0.6,1.4-1,2.2-1,2.2
			C76.5,542.1,76.5,498.2,93.4,459.7L93.4,459.7z M71.9,582.4c12.6,16.8,19.9,38.3,21.5,59.2c-10.7-18-19.2-37.4-32.1-54
			c-12.2-15.7-27.2-24.4-47.3-24.3C35.5,551.8,58.7,564.8,71.9,582.4z"/>
		<path class="st1" d="M29.2,154.3c48.1-16.4,62.6,31.3,65.2,41.7c0.1,0.5,0.2,1,0.3,1.3h0.2c1.5-6.6,15-60.4,65.5-43.1
			c0,0,5.8-18.7-12.7-20.7c0,0,6.9-18.4-9.2-19.6c0,0,1.7-15.3-13.8-12.7c0,0,0.9-14.4-14.1-10.7c0,0,3.7-13.2-15.7-22.1v-0.1h-0.1
			h-0.1v0.1l-0.3,0.2c-19,9-15.4,22-15.4,22c-15-3.7-14.1,10.6-14.1,10.6C49.4,98.8,51.1,114,51.1,114c-16.1,1.2-9.2,19.6-9.2,19.6
			C23.5,135.6,29.2,154.3,29.2,154.3z M61.1,143.6c8.5,1.4,16.3,6.1,22.1,12.4c-5-12.7-10.8-29.5-26.6-31.2
			c13.3-5.8,24.2,7.7,28.7,18.4c-2.1-13.6-5.4-26.8-13.8-38c9.5,4.6,15.2,14.5,18.1,24.3c0.2-7.8,0.7-15.6,1.2-23.4
			c0.3-4.8,2-11.3,0.3-15.9c1.7,2,2.7,4.9,3.3,8l0,0c0.6,3.9,1,7.8,1.3,11.7c0.6,7,0.8,14.1,0.8,21.2c3.6-9.8,10.7-21.3,20.3-25.9
			c-8.4,11.2-11.7,24.4-13.8,38c4.5-10.7,15.4-24.2,28.7-18.4c-15.8,1.6-21.6,18.4-26.6,31.1c8.8-9.4,26-18,38.1-9.3
			c-12.8-0.9-24.6,6-33.9,14.2c-6,5.3-13.4,13.5-14.7,21.9c0-0.2-0.1-0.5-0.2-0.7l0,0c-2-7.8-9.7-16.2-15.4-21.2
			c-9.3-8.1-21.1-15.1-33.9-14.2C49.6,143.4,55.7,142.8,61.1,143.6z"/>
		<path class="st1" d="M51.7,746.3c-13.1,0-23.8,11.6-23.8,26s10.6,26,23.8,26c28.4,6.1,57.7,6.1,86.1,0c13.1,0,23.8-11.6,23.8-26
			s-10.6-26-23.8-26C109.3,751.5,80.2,751.5,51.7,746.3z"/>
		<path class="st1" d="M15.1,498.7C0,502.9-0.5,522.9,1.2,535.3c0.2,1.7,2.8,2.2,3.8,1c4.1-4.9,9.5-8.6,15.6-10.7
			c3.2-1,6.5-1.4,9.8-1.2c1.6,0.1,11,2.1,11,4.2c0,3,4.6,3,4.6,0v-0.9c0-0.4-0.1-0.8-0.3-1.1c0.2-0.4,0.3-0.8,0.3-1.2
			c-0.1-3.2-0.7-6.4-1.6-9.4c-0.2-1.4-0.4-2.9-0.7-4.3c0.5-13.4,2.6-25.5,8.5-38c2.7-5.6,7.2-11.8,8.5-17.8c1.8-8,1.9-16.3,4.6-24.2
			c0.8-2.5-3.2-4.2-4.2-1.8C55,444.4,41.5,455,36.2,469.8c-4.3,11.9-1.1,23.1,1.6,34.5C32.3,498.8,24.5,496.1,15.1,498.7z"/>
		<path class="st1" d="M81.9,907.4c3.8,2.3,8.1,3.5,12.5,3.6h0.4c14,0.3,25.5-10.8,25.8-24.8s-10.8-25.5-24.8-25.8c-0.3,0-0.7,0-1,0
			h-0.4c-14,0.2-25.1,11.7-24.9,25.6C69.6,894.8,74.3,902.9,81.9,907.4L81.9,907.4z"/>
		<path class="st1" d="M12.1,183c-6.7,15.6-0.3,36.5,16.2,40.3c33.2,7.6,61,34.6,66.1,149.7c0.1,1.9,0.2,3.9,0.3,5.9h0.3
			c4.5-120,32.6-147.9,66.4-155.5c16.5-3.8,22.9-24.7,16.2-40.3s-24.4-22.2-40.3-16.2c-33.4,12.6-41.3,61.2-42.4,184.5
			c-0.1-9.4-0.2-18.3-0.4-26.8c-2.1-103.6-11.1-146.1-42-157.7C36.5,160.9,18.7,167.4,12.1,183z M119.6,217.1
			c6.7-13.4,27.4-30.5,43.2-21c-18,6.1-35,23-46,38C115.4,228.4,117,222.4,119.6,217.1L119.6,217.1z M71.6,234.1
			c-6-8.1-13.4-15.3-21-21.9c-7.5-6.5-15.6-12.8-25-16.1C45.8,184,76,213.6,71.6,234.1L71.6,234.1z"/>
		<path class="st1" d="M-64.4,753.7c1.9-0.8,3-2.3,1.6-3.9c-28.6-35-24.7-76.7,12.2-100c43.7-27.7,107,12.6,123.9,67.7
			c1,0.3,2.7,0.2,2.7-1c-0.1-105.1-66.8-153-119.9-142.2c-2,0.4-4.2,2.3-2.2,3.8c4.5,3.5,8.5,7.5,12.1,11.9
			c-32.8-15.1-67.3-17.4-91.4,7.5c-1.1,1.1-1.8,3.2,0,4c4.8,2.1,9.8,3.6,14.6,5.6c-33-4.5-63.6,20-61.7,56.8
			c0.1,1.8,2.5,3.3,3.9,1.6c5.3-6.2,10.1-9.5,17.2-10.1c-18.8,20-18.5,52.1,4.1,69.9c1.2,1,3.5,0.9,3.8-1c2-10.6,8.5-21.6,20-21.5
			C-133.5,738.4-102.4,769.4-64.4,753.7z M-143.7,692.2c2.6-20.1,12.1-37.2,26.5-51.2c22.4-21.5,53.6-33.9,84.8-30.8
			c31.4,3.1,55.8,21.5,74,46.3C13,633-29.7,627.8-62.6,645.6c-15.3,8.2-27.2,21.6-33.6,37.8c-7.5,19-4.9,37.8-0.2,57.1
			c-8.2-15-13.5-32.1-10.9-49.3c2.3-16,9.7-30.8,21-42.2c22.9-22.9,58.8-29.5,89.1-19.6c-28.3-12.4-60.4-10.8-88.1,2.2
			C-112.4,644.4-132.2,664.6-143.7,692.2L-143.7,692.2z"/>
		<path class="st1" d="M-52.4,731.1c8.3,6.3,20.3,8,29.8,3.4s14.5-17.5,8.6-26.8c-5.2-8.3-22.8-8.4-21.3,4.1c0.4,3.4,3.5,6.3,7,5.8
			s5.3-4.5,4.1-7.7c-0.4-1-1-1.8-1.9-2.4c3.6,0.1,5.9,3.3,6.1,6.9c0.4,5.9-3.4,8.9-8,10.7c-9.6,2-17.7-3.5-20.6-12.3
			c-2.8-11,1-22.5,9.8-29.7c19.4-16.2,42.9-3.9,58,11.4c13,13.1,23,29.1,30.5,45.9c11.4,2.9,16,4.2,24.3,2.1
			c-4.2-11-9.4-21.6-15.6-31.7c-11.9-19.3-27.7-38.3-48.4-48.5s-46.1-7.6-62.3,9.4C-67.1,687.1-71.3,716.8-52.4,731.1z"/>
		<circle class="st1" cx="-15.4" cy="30.3" r="17.3"/>
		<path class="st1" d="M-283.9,319.5c-8.3,19.5-8.5,42.4,0.7,61.6c4.3,9,10.6,17,18.4,23.3c1.6,1.3,3.3,2.5,5,3.6
			c-15.2-2.8-30.9,0.2-44,8.5c-18.4,11.6-29.4,32.1-32.3,53.3c-5.9,42.6,25,86.4,69.4,83.8c-16.1,7.9-29.3,21.9-34.3,39.3
			c-5.9,20.8,1.1,43,15.5,58.6c27.5,29.7,78.9,32.3,103.7-2.4c-0.1-3.7-3.8-0.6-5.9,0.4c-4.3,2-8.7,3.7-13.2,5.1
			c-9,2.8-18.5,3.6-27.9,2.5c-15.9-2-30.6-9.8-41.2-21.8c-11.3-12.9-16.2-30.1-11.4-46.8c2.6-9.1,7.5-17.3,13.3-24.8
			c1.3-1.7,11.7-12.2,9.1-13.1c-15.4-5.5-30.1-13.1-40.1-26.5s-14-30.6-12.7-47.2s7.8-33,20.1-44.4c12.4-11.7,29.2-15.7,45.7-16.6
			c3-0.2,3.7,0.3,3.3-2.2c-3.3-3.5-6.4-7.1-9.3-10.9c-5.7-7.4-10-15.8-12.8-24.7c-5.2-18-3.1-37.3,6-53.8
			c8.1-14.9,21.6-26.1,37.6-31.5c9.2-2.9,18.9-4.3,28.6-4.1c2.6,0,8.4,1.4,10.7,0.3c1.8-0.8-1.4-5.6-1.7-6.2
			c-7.7-17.6-12.5-36.7-8.5-55.8c3.6-16.9,13.3-31.8,27.4-41.9c14.5-10.4,32.6-14.4,50.1-11c5.3,1.1,10.4,2.6,15.4,4.5
			c0.9,0.3,5,2.5,4-0.4c-2.7-8.4-4.6-17-4.4-25.8c0.7-36.9,35.2-67.3,71.8-63.9c9.6,0.9,18.8,4,27.7,7.4c1.4,0.5,5.2,3.3,6.2,1.4
			c1.5-3.3,3.3-6.4,5.3-9.4C21.5,72.8,38,63.4,53,53.6c14.7-9.6,29.8-19.9,37.7-36.2c1.6-3.6,2.8-7.4,3.7-11.3c0.2-1,0.3-2,0.4-3
			c0.1,4.4,3.1,12.4,4.1,14.3c7.9,16.3,23,26.6,37.7,36.2c15,9.8,31.4,19.2,41.7,34.4c2,3,3.8,6.1,5.3,9.4c0.9,2,4.8-0.8,6.2-1.4
			c8.9-3.5,18.1-6.5,27.7-7.4c36.6-3.4,71.1,27,71.8,63.9c0.1,8.8-1.7,17.5-4.4,25.8c-1,2.9,3.1,0.7,4,0.4c5-1.9,10.2-3.4,15.5-4.5
			c17.5-3.4,35.6,0.6,50.1,11c14,10.1,23.8,25,27.3,41.9c4,19.1-0.8,38.3-8.5,55.8c-0.3,0.7-3.5,5.4-1.7,6.2
			c2.3,1.1,8.1-0.3,10.7-0.3c9.7-0.2,19.3,1.2,28.5,4.1c16.1,5.4,29.5,16.6,37.6,31.5c9.1,16.4,11.2,35.7,6,53.8
			c-2.8,8.9-7.1,17.3-12.8,24.7c-2.9,3.8-6,7.4-9.3,10.9c-0.5,2.5,0.3,2,3.3,2.2c16.6,1,33.3,5,45.7,16.6
			c12.3,11.4,18.8,27.9,20.1,44.4s-2.7,33.7-12.7,47.2c-10,13.5-24.7,21-40.1,26.5c-2.6,0.9,7.8,11.4,9.1,13.1
			c5.7,7.5,10.7,15.7,13.3,24.8c4.8,16.7-0.1,33.9-11.5,46.8c-10.6,12-25.3,19.8-41.2,21.8c-9.4,1.1-18.9,0.2-27.9-2.5
			c-4.5-1.4-8.9-3.1-13.2-5.1c-2.1-1-5.8-4.1-5.9-0.4c24.8,34.6,76.2,32.1,103.6,2.3c14.4-15.6,21.4-37.8,15.5-58.6
			c-5-17.5-18.2-31.4-34.3-39.3c44.4,2.6,75.3-41.1,69.4-83.8c-3-21.1-14-41.7-32.3-53.3c-13.1-8.3-28.8-11.3-44-8.5
			c1.7-1.1,3.4-2.3,5-3.6c7.8-6.3,14.1-14.3,18.4-23.3c9.2-19.2,9-42.1,0.7-61.6c-15.3-35.7-57.4-55-92.3-38.2
			c25.9-27,28.1-70.6,3.6-100.3c-20-24.1-57.3-34.2-83.6-18.4c0.1-0.2,0.2-0.3,0.3-0.5c5.1-9.7,7.5-20.7,6.7-31.7
			c-1.2-19.6-11.1-38.1-25.9-50.8c-16.3-14.1-38.6-21.2-59.8-15.9c-9.5,2.4-18.3,7.1-25.5,13.7c-3.6,3.3-6.8,7.1-9.4,11.3
			c-0.2,0.3-0.5,0.7-0.8,1.1c2.2-34.2-39.8-61.5-65.2-76.1C114,9.4,106.3,5.3,98.9,0.9C95.7-1,94.7,0.4,94.8,3
			c0-0.7-0.1-1.5-0.4-2.2c-0.5-1-1.7-1.2-3.7,0C83.2,5.3,75.6,9.4,68,13.7C42.7,28.3,0.7,55.6,2.9,89.8c-0.3-0.5-0.6-0.8-0.8-1.1
			c-2.6-4.2-5.8-7.9-9.4-11.3c-7.2-6.6-16-11.3-25.5-13.7c-21.2-5.3-43.5,1.8-59.8,15.9c-14.7,12.8-24.7,31.3-25.9,50.8
			c-0.8,11,1.5,22,6.7,31.8c0.1,0.2,0.2,0.3,0.3,0.5c-26.4-15.8-63.7-5.8-83.6,18.4c-24.5,29.6-22.3,73.2,3.6,100.2
			C-226.5,264.5-268.6,283.8-283.9,319.5z"/>
	</g>
</g>
</svg>
