<svg id="Layer_1" data-name="Layer 1" xmlns="http://www.w3.org/2000/svg" xmlns:xlink="http://www.w3.org/1999/xlink" viewBox="0 0 540 1080"><defs><style>.cls-1{fill:none;}.cls-2{clip-path:url(#clip-path);}.cls-3{fill:#d7871a;}</style><clipPath id="clip-path"><rect class="cls-1" width="540" height="1080" transform="translate(540 1080) rotate(-180)"/></clipPath></defs><title>accent</title><g class="cls-2"><path class="cls-3" d="M374.33,42.21a20.81,20.81,0,0,0-10.44,27.51c4.72,10.5,63.8,91.16,63.8,91.16S406.58,63.14,401.86,52.65A20.82,20.82,0,0,0,374.33,42.21ZM393.76,82C380.92,78.51,378,60,380,49c6.07,2.55,10,8.76,12.11,14.76S394.08,75.8,393.76,82Z"/><path class="cls-3" d="M321.18,107.42a17.93,17.93,0,0,0,5.12,24.83c8.28,5.45,88.49,36.76,88.49,36.76s-60.51-61.27-68.78-66.7A18,18,0,0,0,321.18,107.42Zm41.89,22.94c-13.77.34-26.55-12.22-30.69-24.55,7-.08,13.77,3.52,19,7.92A38.29,38.29,0,0,1,363.07,130.36Z"/><circle class="cls-3" cx="30.53" cy="695.25" r="17.26"/><path class="cls-3" d="M298.88,408.34c16.25,17,41.77,19.53,62.34,9.4s36.47-29.26,48.4-48.54a183.31,183.31,0,0,0,15.51-31.68c-8.28-2.12-12.93-.75-24.32,2.11-7.53,16.82-17.55,32.76-30.5,45.88-15.12,15.31-38.62,27.6-58,11.41a29.23,29.23,0,0,1-9.75-29.7c3-8.74,11-14.3,20.66-12.25,4.62,1.82,8.38,4.82,8,10.74-.21,3.59-2.57,6.79-6.12,6.91a5.49,5.49,0,0,0,1.85-2.4c1.25-3.16-.73-7.13-4.06-7.67s-6.56,2.38-7,5.75c-1.53,12.51,16.06,12.37,21.26,4.12,5.88-9.32.86-22.28-8.61-26.85s-21.44-2.92-29.78,3.37C279.93,363.19,284.11,392.87,298.88,408.34Z"/><path class="cls-3" d="M182.55,414.45c-1.41-1.64-3.84-.23-3.93,1.61-1.85,36.85,28.77,61.38,61.73,56.83-4.76,2-9.76,3.52-14.55,5.64-1.75.76-1.08,2.87,0,4,24.17,24.85,58.7,22.55,91.46,7.45a75.88,75.88,0,0,1-12.14,11.95c-2,1.56.24,3.43,2.23,3.84,53.11,10.82,119.79-37.13,119.86-142.25,0-1.2-1.75-1.29-2.71-1-16.85,55.06-80.15,95.34-123.86,67.68-36.89-23.35-40.77-65-12.2-100,1.33-1.63.29-3.13-1.64-3.93-38-15.73-69.05,15.35-59.06,50.8-11.58.16-18.05-10.91-20.05-21.48-.35-1.89-2.63-2-3.85-1-22.6,17.84-22.86,49.91-4.08,69.93C192.7,424,187.87,420.64,182.55,414.45Zm83.89,33.89c27.71,13.05,59.84,14.62,88.08,2.22-31,10.11-67.82,3-90.58-21.07-24-25.33-24.84-60.46-8.67-90.05-4.67,19.29-7.35,38.18.2,57.14a73.75,73.75,0,0,0,33.65,37.83c32.91,17.8,75.57,12.57,104.26-11a65.82,65.82,0,0,1-5.66,6.69c-23.26,32.75-65,46.81-103.61,36.78-37.28-9.68-71-39.76-76-79.15C219.55,415.36,239.37,435.6,266.44,448.34Z"/><path class="cls-3" d="M387.4,610.2c5.35,14.81,18.85,25.38,25.16,39.9,1.05,2.39,5.05.67,4.21-1.78-2.69-7.85-2.8-16.12-4.6-24.17-1.35-6-5.91-12.25-8.56-17.81-5.94-12.49-8.08-24.69-8.53-38,.27-1.43.49-2.87.67-4.3a36.13,36.13,0,0,0,1.54-9.44,2.12,2.12,0,0,0-.32-1.17,2.25,2.25,0,0,0,.32-1.14v-.86c0-3-4.61-3-4.61,0,0,2.06-9.36,4.13-11,4.19a26.55,26.55,0,0,1-9.82-1.15,35.84,35.84,0,0,1-15.57-10.71c-1.06-1.2-3.61-.68-3.85,1-1.73,12.33-1.24,32.4,13.83,36.56,9.45,2.59,17.25-.07,22.67-5.6C386.31,587.12,383.11,598.33,387.4,610.2Z"/><circle class="cls-3" cx="101.51" cy="839.49" r="17.26"/><circle class="cls-3" cx="194.73" cy="959.19" r="17.26"/><circle class="cls-3" cx="335.9" cy="1049.73" r="17.26"/><path class="cls-3" d="M371.59,205.85c-15.55,3.51-30.61,16.33-33,32.74-2.34,15.15,9.18,33.71,25.89,33.21A19.7,19.7,0,0,0,382,259.62c2.71-6.84-1-15.5-8.4-17.36-5.16-1.29-10.89,2.35-10.15,7.74.32,2.41,2.27,4.92,5,5a5.51,5.51,0,0,0,5.48-3.35c.21-.58.57-2.79,0-3.26,2.39,2,2.37,6.08.82,8.55-1.6,4.25-8.91,6.24-13.11,4.17a18.17,18.17,0,0,1-10-14.51c-.48-6.84,3.52-13,8.49-17.4,9.09-8,21.8-8.75,32.63-4.21,17.51,6.65,22.45,27.09,23.08,44.32.84-.1,12.48-3.56,20.89-2-.74-11.89-3.29-23.59-8.75-34C417.48,213.1,394.22,200.74,371.59,205.85Z"/><path class="cls-3" d="M330.57,864c16.18-4.4,108.73-49.11,71.48-210.5C413.5,797.22,330.79,801,314.61,805.45a30.35,30.35,0,0,0,16,58.57Zm8.5-47.06c9.15-5.91,18.34-11.81,27.84-17.16-5.09,20.83-34,40.54-55.25,34.53C320.94,828.78,330,822.82,339.07,817Z"/><circle class="cls-3" cx="30.15" cy="516.09" r="17.26"/><path class="cls-3" d="M136.05,459.55A27.89,27.89,0,0,0,123,496.74c6.64,13.88,62.3,90.11,202,29.83-127.93,34.06-145-40-151.68-53.92A27.9,27.9,0,0,0,136.05,459.55ZM202.33,527c-27.66,3.33-63.21-25.57-56.4-55.24a100.93,100.93,0,0,0,23.61,31.71C179.53,512.63,190.78,520.07,202.33,527Z"/><path class="cls-3" d="M250,808.78C266.66,808,366.38,784.92,365.62,620,345.2,762.08,264,747.63,247.32,748.37A30.23,30.23,0,0,0,250,808.78Zm10.69-37.57a217.73,217.73,0,0,0,25-9.82c5.41-2.47,10.88-5.11,15.6-8.77-1.76,13.45-17.92,23-29.47,26.88-9.77,3.24-29.64,6-35-6.17C244.41,776.29,253.32,773.53,260.67,771.21Z"/><path class="cls-3" d="M128.8,622.79c14,9.59,109.07,51.73,209.2-82.67-103.37,102.92-160.46,41.6-174.45,32a30.72,30.72,0,1,0-34.75,50.66Zm42.3-23.91c11.19,3.46,22.89,7.09,34.68,7.57a23.19,23.19,0,0,1-8.86,4.6c-20,5.89-51.46-4.28-59-25.31C148.42,591.28,159.75,595.3,171.1,598.88Z"/><path class="cls-3" d="M179.5,724.37c16.16,4.46,118.56,13.21,168.84-144.61C284.9,709.21,211.8,670.3,195.64,665.85a30.35,30.35,0,1,0-16.14,58.52ZM215.7,687c13.15-1,27.46-2.45,39.57-8a25.44,25.44,0,0,1-7.38,8.5c-11.13,8.66-26.53,12-40.41,11-11.07-.8-26.55-5.26-30.47-17.18C188.13,688.4,203.05,687.83,215.7,687Z"/><path class="cls-3" d="M545.24,102.31C537,107.74,476.47,169,476.47,169s80.2-31.31,88.48-36.76a17.92,17.92,0,1,0-19.71-29.94Zm-5.89,25.62a24.68,24.68,0,0,1-10.67,2.43c4.22-12.29,17-24.71,30.69-24.55A38.52,38.52,0,0,1,539.35,127.93Z"/><path class="cls-3" d="M516.91,42.21a20.8,20.8,0,0,0-27.52,10.44c-4.72,10.49-25.83,108.23-25.83,108.23s59.09-80.66,63.8-91.16A20.8,20.8,0,0,0,516.91,42.21ZM506.29,75.75c-2.16,2.79-4.81,5.32-8.3,6.27-.61-11.78,1.23-27.7,13.81-33C513.42,58.21,511.94,68.15,506.29,75.75Z"/><path class="cls-3" d="M445.63,0a25.13,25.13,0,0,0-25.18,25.07c0,13.85,24.84,131.88,24.84,131.88l.34-1.56c3-13.91,25-117.29,25.06-130.21A25.11,25.11,0,0,0,445.63,0ZM450,53.52a82.07,82.07,0,0,1-2.61,14.69c-.62-.82-1.18-1.69-1.72-2.57h0c-9.58-15.44-8.9-38.94-2.12-55a43.61,43.61,0,0,1,2.12,4.21h0C450.82,26.71,451.08,41,450,53.52Z"/><path class="cls-3" d="M598,842.72a30.36,30.36,0,0,0-21.31-37.27c-16.18-4.41-98.89-8.23-87.44-151.93C452,814.91,544.5,859.62,560.68,864A30.36,30.36,0,0,0,598,842.72ZM524.84,799.8c9.5,5.35,18.68,11.25,27.83,17.16s18.13,11.82,27.41,17.37C558.79,840.34,529.93,820.63,524.84,799.8Z"/><path class="cls-3" d="M672.8,779.9a30.22,30.22,0,0,0-28.87-31.53c-16.69-.74-97.88,13.71-118.29-128.42-.77,165,99,188.09,115.63,188.83A30.24,30.24,0,0,0,672.8,779.9Zm-54.94-1.13c-10.88-4.09-25.75-13.38-27.42-26.15,7.86,6.1,17.75,10,26.91,13.61s18.94,7.59,28.86,8.28a20,20,0,0,0,8.68-1.18C649.22,786.23,627.9,782.51,617.86,778.77Z"/><path class="cls-3" d="M519.67,205.85c-22.64-5.11-45.91,7.25-56.44,27.44-5.46,10.46-8,22.16-8.75,34,8.41-1.57,20,1.89,20.89,2,.63-17.23,5.57-37.67,23.08-44.32,10.84-4.54,23.55-3.78,32.63,4.21,5,4.37,9,10.56,8.49,17.4a18.16,18.16,0,0,1-10,14.51c-4.2,2.07-11.52.08-13.11-4.17-1.56-2.47-1.58-6.59.81-8.55-.58.47-.21,2.68,0,3.26A5.52,5.52,0,0,0,522.8,255c2.69-.1,4.63-2.61,5-5,.73-5.39-5-9-10.16-7.74-7.41,1.86-11.11,10.52-8.4,17.36a19.71,19.71,0,0,0,17.56,12.18c16.71.5,28.24-18.06,25.89-33.21C550.27,222.18,535.21,209.36,519.67,205.85Z"/><path class="cls-3" d="M445.63,408.71c-1-3.11-1.55-4.9-1.55-4.9s-27.2,110.36-97.34,111.9c21,53.91,77.24,11.09,77.24,11.09s-51.31,46.92,21.4,131.52c.09-.1.16-.2.25-.31,69-86.4,25.75-129.68,25.75-129.68s54.3,39.38,72.26-12.24C483.94,512.39,452.67,429.81,445.63,408.71ZM420,502.09c-13.31,15.29-34.91,24.92-54.24,14.59,21,.16,36.26-9.46,48.67-26,12.13-16.27,20.4-34.9,30.74-52.27C443.37,461,435,484.85,420,502.09Zm26.58,118.17s-.36-.77-.95-2.19h0c-2.94-7.06-11.71-30.44-11.71-58.22s8.77-51.15,11.71-58.22h0c.59-1.43.95-2.2.95-2.2a150.51,150.51,0,0,1,0,120.84Zm21.53-122.67c-12.59-16.83-19.87-38.31-21.53-59.17,10.7,18,19.16,37.44,32.09,54,12.21,15.68,27.24,24.37,47.32,24.22C504.5,528.16,481.3,515.19,468.11,497.59Z"/><path class="cls-3" d="M510.78,925.72c-48.06,16.45-62.59-31.33-65.15-41.74-.13-.53-.24-1-.31-1.31h-.15c-1.46,6.65-15,60.35-65.46,43.06,0,0-5.75,18.7,12.66,20.72,0,0-6.91,18.41,9.21,19.56,0,0-1.73,15.25,13.81,12.66,0,0-.87,14.39,14.1,10.65,0,0-3.72,13.17,15.68,22.09v.06l.07,0,.08,0v-.06l.31-.15c19-8.92,15.37-21.94,15.37-21.94,15,3.74,14.1-10.65,14.1-10.65,15.54,2.59,13.81-12.66,13.81-12.66,16.11-1.15,9.21-19.56,9.21-19.56C516.53,944.42,510.78,925.72,510.78,925.72Zm-31.86,10.65c-8.49-1.38-16.26-6.11-22.09-12.34,5,12.74,10.8,29.51,26.58,31.15-13.31,5.81-24.19-7.7-28.74-18.43,2.07,13.62,5.39,26.8,13.78,38-9.54-4.62-15.23-14.52-18.07-24.34-.23,7.82-.69,15.63-1.2,23.44-.32,4.81-2,11.33-.3,15.86-1.69-2-2.65-4.87-3.25-8h0A112.1,112.1,0,0,1,444.37,970c-.63-7-.83-14.1-.78-21.16-3.61,9.75-10.65,21.27-20.29,25.94,8.39-11.19,11.71-24.37,13.78-38-4.54,10.73-15.45,24.23-28.74,18.42,15.78-1.64,21.57-18.41,26.57-31.15-8.81,9.4-26,18-38.08,9.28,12.77,1,24.62-6,33.9-14.18,6-5.33,13.43-13.48,14.72-21.9.05.23.12.46.18.68h0c2,7.84,9.72,16.22,15.39,21.21,9.27,8.15,21.13,15.13,33.9,14.18C490.37,936.58,484.33,937.23,478.92,936.37Z"/><path class="cls-3" d="M488.29,333.73c13.13,0,23.77-11.64,23.77-26s-10.64-26-23.77-26a205,205,0,0,0-86.09,0c-13.13,0-23.78,11.63-23.78,26s10.65,26,23.78,26a237.09,237.09,0,0,1,86.09,0Z"/><path class="cls-3" d="M524.94,581.3c15.06-4.16,15.56-24.23,13.83-36.56-.24-1.7-2.79-2.22-3.85-1a35.81,35.81,0,0,1-15.56,10.71,26.66,26.66,0,0,1-9.84,1.15c-1.58-.06-10.95-2.13-10.95-4.19,0-3-4.61-3-4.61,0v.86a2.25,2.25,0,0,0,.32,1.14,2.12,2.12,0,0,0-.32,1.17,36.13,36.13,0,0,0,1.55,9.44c.17,1.43.4,2.87.66,4.3-.45,13.35-2.58,25.55-8.53,38-2.65,5.56-7.2,11.78-8.55,17.81-1.8,8.05-1.92,16.32-4.61,24.17-.84,2.45,3.17,4.17,4.21,1.78C485,635.58,498.5,625,503.85,610.2c4.29-11.87,1.09-23.08-1.58-34.5C507.69,581.23,515.49,583.89,524.94,581.3Z"/><path class="cls-3" d="M458.14,172.56A25.13,25.13,0,0,0,445.63,169l-.39,0a25.32,25.32,0,1,0,0,50.63l.39,0a25.29,25.29,0,0,0,12.51-47.06Z"/><path class="cls-3" d="M528,897c6.66-15.61.33-36.54-16.2-40.3-33.2-7.56-60.95-34.59-66.12-149.69q-.13-2.91-.25-5.88h-.28C440.63,821.17,412.49,849,378.74,856.68c-16.54,3.76-22.86,24.69-16.2,40.3s24.42,22.16,40.3,16.2c33.44-12.56,41.31-61.17,42.4-184.47.09,9.37.22,18.26.39,26.79,2.06,103.64,11.12,146.07,42,157.68C503.53,919.14,521.3,912.58,528,897Zm-107.5-34.14c-6.66,13.45-27.44,30.48-43.19,21,18-6.12,35-23,46-38C424.56,851.62,423,857.63,420.45,862.84Zm48-17c6,8.14,13.39,15.29,21,21.92,7.46,6.46,15.57,12.84,25,16.06C494.25,896,464,866.35,468.45,845.84Z"/><path class="cls-3" d="M604.45,326.29c-1.92.8-3,2.3-1.64,3.93,28.57,35,24.69,76.65-12.2,100-43.7,27.66-107-12.62-123.85-67.68-1-.32-2.72-.23-2.72,1,.07,105.12,66.75,153.07,119.87,142.25,2-.41,4.22-2.28,2.22-3.84A75.82,75.82,0,0,1,574,490c32.75,15.1,67.28,17.4,91.45-7.45,1.08-1.12,1.75-3.23,0-4-4.79-2.12-9.78-3.61-14.55-5.64,33,4.55,63.58-20,61.74-56.83-.09-1.84-2.54-3.25-3.94-1.61-5.32,6.19-10.15,9.5-17.22,10.08,18.79-20,18.53-52.09-4.07-69.93-1.22-1-3.5-.88-3.84,1-2,10.57-8.47,21.64-20.05,21.48C673.5,341.64,642.43,310.56,604.45,326.29Zm79.21,61.49c-2.55,20.11-12.07,37.18-26.49,51.15-22.43,21.55-53.62,33.92-84.83,30.84-31.4-3.08-55.84-21.46-74-46.31,28.68,23.52,71.35,28.75,104.26,11a73.75,73.75,0,0,0,33.65-37.83c7.54-19,4.86-37.85.2-57.14,8.19,15,13.5,32.11,10.9,49.3a75.52,75.52,0,0,1-21,42.24c-22.88,22.87-58.78,29.48-89.13,19.58,28.25,12.4,60.37,10.83,88.09-2.22C652.38,435.6,672.2,415.36,683.66,387.78Z"/><path class="cls-3" d="M592.41,348.94c-8.33-6.29-20.25-8-29.77-3.37S548.15,363.1,554,372.42c5.2,8.25,22.79,8.39,21.26-4.12-.41-3.37-3.54-6.3-7-5.75s-5.31,4.51-4.06,7.67a5.58,5.58,0,0,0,1.86,2.4c-3.56-.12-5.92-3.32-6.13-6.91-.35-5.92,3.42-8.92,8-10.74,9.65-2.05,17.66,3.51,20.65,12.25a29.21,29.21,0,0,1-9.75,29.7c-19.36,16.19-42.86,3.9-58-11.41-13-13.12-23-29.06-30.5-45.88-11.39-2.86-16-4.23-24.31-2.11a182.59,182.59,0,0,0,15.51,31.68c11.92,19.28,27.68,38.35,48.39,48.54s46.09,7.64,62.35-9.4C607.14,392.87,611.32,363.19,592.41,348.94Z"/><circle class="cls-3" cx="555.35" cy="1049.73" r="17.26"/><path class="cls-3" d="M823.85,760.54c8.31-19.45,8.48-42.4-.7-61.58a67.43,67.43,0,0,0-18.37-23.3c-1.61-1.29-3.29-2.49-5-3.63a61.4,61.4,0,0,0,44-8.45c18.35-11.6,29.37-32.15,32.32-53.3,5.94-42.64-25-86.38-69.39-83.78,16.07-7.94,29.31-21.86,34.28-39.31,5.93-20.78-1.15-43-15.52-58.57C798,398.89,746.56,396.37,721.8,431c.14,3.71,3.77.6,5.89-.38a98.73,98.73,0,0,1,13.18-5.07A68.52,68.52,0,0,1,768.79,423,66.09,66.09,0,0,1,810,444.81c11.31,12.88,16.21,30.12,11.44,46.8-2.59,9.09-7.53,17.34-13.27,24.79-1.3,1.68-11.66,12.17-9.1,13.08,15.4,5.45,30.11,13.09,40.07,26.46s14,30.59,12.7,47.18-7.84,33-20.11,44.39c-12.43,11.68-29.17,15.68-45.74,16.63-3,.17-3.73-.3-3.27,2.22A131.43,131.43,0,0,1,792,677.23a78,78,0,0,1,12.77,24.71,70.55,70.55,0,0,1-6,53.75,67.26,67.26,0,0,1-37.6,31.49,90.57,90.57,0,0,1-28.56,4.08c-2.61,0-8.38-1.41-10.7-.33-1.78.82,1.41,5.58,1.7,6.24,7.69,17.56,12.47,36.69,8.47,55.82a69.31,69.31,0,0,1-27.36,41.91,64.44,64.44,0,0,1-50.07,11,97.66,97.66,0,0,1-15.45-4.52c-.86-.32-5-2.53-4,.38,2.7,8.35,4.57,17,4.42,25.81-.66,36.88-35.22,67.33-71.79,63.9-9.61-.91-18.75-4-27.69-7.43-1.35-.52-5.24-3.35-6.16-1.37a71.59,71.59,0,0,1-5.28,9.4c-10.21,15.18-26.69,24.55-41.65,34.37-14.67,9.62-29.81,19.89-37.7,36.18a59.41,59.41,0,0,0-3.7,11.27,18.19,18.19,0,0,0-.39,3c-.09-4.44-3.13-12.35-4.08-14.32-7.89-16.29-23-26.56-37.7-36.18-15-9.82-31.44-19.19-41.65-34.37a71.59,71.59,0,0,1-5.28-9.4c-.93-2-4.81.85-6.16,1.37-8.94,3.48-18.09,6.52-27.69,7.43-36.58,3.43-71.13-27-71.79-63.9-.15-8.82,1.72-17.46,4.41-25.81.95-2.91-3.15-.7-4-.38a97.66,97.66,0,0,1-15.45,4.52,64.44,64.44,0,0,1-50.07-11A69.31,69.31,0,0,1,158.41,853c-4-19.13.78-38.26,8.47-55.82.29-.66,3.48-5.42,1.69-6.24-2.32-1.08-8.08.32-10.7.33a90.51,90.51,0,0,1-28.55-4.08,67.31,67.31,0,0,1-37.61-31.49,70.64,70.64,0,0,1-6-53.75,78.26,78.26,0,0,1,12.78-24.71,131.43,131.43,0,0,1,9.28-10.87c.46-2.52-.26-2.05-3.27-2.22-16.57-.95-33.32-4.95-45.74-16.63C46.53,636.15,40,619.58,38.68,603.12s2.67-33.73,12.71-47.18,24.67-21,40.06-26.46c2.57-.91-7.79-11.4-9.1-13.08-5.73-7.45-10.67-15.7-13.27-24.79-4.76-16.68.13-33.92,11.45-46.8A66.09,66.09,0,0,1,121.7,423a68.52,68.52,0,0,1,27.92,2.53,99.25,99.25,0,0,1,13.18,5.07c2.11,1,5.75,4.09,5.89.38-24.76-34.6-76.24-32.08-103.63-2.35-14.36,15.61-21.44,37.79-15.51,58.57,5,17.45,18.21,31.37,34.28,39.31-44.4-2.6-75.33,41.14-69.39,83.78,3,21.15,14,41.7,32.32,53.3a61.4,61.4,0,0,0,44,8.45c-1.73,1.14-3.41,2.34-5,3.63A67.43,67.43,0,0,0,67.34,699c-9.19,19.18-9,42.13-.7,61.58,15.25,35.69,57.36,55,92.27,38.17C133,825.77,130.8,869.36,155.31,899c20,24.13,57.25,34.2,83.64,18.38a5.26,5.26,0,0,0-.27.48A59.12,59.12,0,0,0,232,949.57c1.21,19.56,11.14,38.07,25.87,50.82,16.3,14.09,38.57,21.21,59.83,15.88a58.55,58.55,0,0,0,25.48-13.71,55.44,55.44,0,0,0,9.39-11.27c.18-.28.46-.67.78-1.13-2.19,34.21,39.81,61.5,65.17,76.1,7.51,4.32,15.15,8.46,22.61,12.88,3.14,1.87,4.15.48,4.1-2.17a4.7,4.7,0,0,0,.39,2.19c.53,1,1.66,1.21,3.72,0,7.46-4.42,15.1-8.56,22.61-12.88,25.36-14.6,67.36-41.89,65.17-76.1.32.46.6.85.78,1.13a55.11,55.11,0,0,0,9.39,11.27,58.57,58.57,0,0,0,25.47,13.71c21.27,5.33,43.54-1.79,59.84-15.88,14.73-12.75,24.66-31.26,25.87-50.82a59.12,59.12,0,0,0-6.67-31.75,5.26,5.26,0,0,0-.27-.48c26.39,15.82,63.66,5.75,83.64-18.38,24.51-29.6,22.31-73.19-3.6-100.25C766.49,815.52,808.6,796.23,823.85,760.54Z"/></g></svg>