<?xml version="1.0" encoding="utf-8"?>
<!-- Generator: Adobe Illustrator 23.0.6, SVG Export Plug-In . SVG Version: 6.00 Build 0)  -->
<svg version="1.1" id="Layer_1" xmlns="http://www.w3.org/2000/svg" xmlns:xlink="http://www.w3.org/1999/xlink" x="0px" y="0px"
	 viewBox="0 0 785 1080" style="enable-background:new 0 0 785 1080;" xml:space="preserve">
<style type="text/css">
	.st0{clip-path:url(#SVGID_2_);}
	.st1{fill:#D7871A;}
</style>
<title>accent</title>
<g>
	<defs>
		<rect id="SVGID_1_" width="783" height="1080"/>
	</defs>
	<clipPath id="SVGID_2_">
		<use xlink:href="#SVGID_1_"  style="overflow:visible;"/>
	</clipPath>
	<g class="st0">
		<path class="st1" d="M770.6,839.5c-2.1,0-4.2,0.7-5.9,2l-69-81.4c18-64,27.1-130.2,27-196.7c0.2-96.7-19.1-192.4-56.7-281.4
			c-18.4-43.5-41-85-67.5-124.1l62.5-44c3.3,4.3,9.5,5.2,13.8,1.9c4.3-3.3,5.2-9.5,1.9-13.8s-9.5-5.2-13.8-1.9
			c-2.4,1.9-3.9,4.7-3.9,7.8c0,1.9,0.5,3.8,1.6,5.3l-62.4,44c-25.6-37.7-54.8-72.8-87-105c-18.5-18.5-37.9-36-58.2-52.4H450
			c20.9,16.7,40.9,34.6,59.8,53.6c32.2,32.1,61.2,67.2,86.8,104.8l-22.9,16.1c-3.4-4.3-9.5-5.1-13.8-1.7c-4,3.2-5,8.9-2.2,13.2
			l-74.5,54.6c-3.4-4.3-9.6-5-13.9-1.6s-5,9.6-1.6,13.9c1,1.2,2.3,2.2,3.7,2.9l-21.1,52.4c-22.8-40.6-50.9-77.9-83.7-111l2.3-2.1
			c4,4,10.4,4.1,14.4,0.1c4-4,4.1-10.4,0.1-14.4c-4-4-10.4-4.1-14.4-0.1c-3.8,3.7-4.1,9.8-0.6,13.9l-2.3,2.1l-1.6-1.6
			c-23.1-23.1-48.2-43.9-75.2-62.3c5.1-1.8,7.8-7.4,6-12.6c-1.8-5.1-7.4-7.8-12.6-6c-3.9,1.4-6.6,5.1-6.6,9.3c0,0.2,0,0.4,0,0.7
			c-24.3-15.5-49.9-28.9-76.5-40.2C135.9,56.8,67.3,43-2.1,43.1C-71.4,43-140,56.8-203.8,83.8c-61.6,26-117.6,63.7-164.8,111.1
			c-47.3,47.2-85.1,103.2-111.1,164.8c-27,63.8-40.9,132.5-40.7,201.8c0,35.9,3.7,71.7,11,106.8l-13.6,1.5c-0.7-4.8-4.9-8.4-9.8-8.4
			c-5.4,0-9.9,4.4-9.9,9.9c0,5,3.8,9.3,8.8,9.8l-3.4,51.1h-0.3c-5.5,0-9.9,4.4-9.9,9.9c0,5.4,4.4,9.9,9.9,9.9c2.4,0,4.7-0.9,6.5-2.5
			l14,14.6c-1.8,1.8-2.8,4.3-2.8,6.8c0,2.6,1,5.1,2.8,6.9l-79.8,92.3c-1.7-1.4-3.9-2.2-6.2-2.2c-5.4,0-9.9,4.4-9.9,9.8c0,0,0,0,0,0
			c0,4.9,3.7,9.1,8.5,9.8l-5.8,61.3c-21.1-33.3-39.4-68.3-54.7-104.6c-19.8-46.8-34.5-95.5-44-145.4c4.2-1.2,7.1-5.1,7.1-9.5
			c0-2-0.6-3.9-1.7-5.5l36.4-27.5c1.9,2.3,4.7,3.6,7.6,3.6c5.4,0,9.9-4.4,9.9-9.9c0-3.4-1.7-6.5-4.6-8.3l37.6-64.7
			c1.4,0.8,3,1.2,4.6,1.2c5.4,0,9.9-4.4,9.9-9.9c0-5.4-4.4-9.9-9.9-9.9c-1.6,0-3.3,0.4-4.7,1.2l-19.1-32.1c2.8-1.8,4.5-4.9,4.5-8.3
			c0-5.4-4.4-9.9-9.9-9.9c0,0,0,0,0,0c-0.3,0-0.5,0-0.8,0l-6.7-56.7c4.8-0.7,8.4-4.9,8.4-9.8c0-4.1-2.5-7.8-6.4-9.2l10.7-31.3
			c0.9,0.3,1.9,0.4,2.8,0.4c5.4,0,9.9-4.4,9.9-9.9c0,0,0,0,0,0c0-5.1-4-9.4-9.1-9.8l2.1-52.3l0,0c5.4,0,9.9-4.4,9.9-9.9
			c0-5.4-4.4-9.9-9.9-9.9c-5.4,0-9.9,4.4-9.9,9.9c0,5.1,4,9.4,9.1,9.8l-2.1,52.3l0,0c-5.4,0-9.9,4.4-9.9,9.9c0,4.1,2.5,7.7,6.3,9.2
			l-10.7,31.3c-0.9-0.3-1.8-0.4-2.8-0.4c-5.4,0-9.9,4.4-9.9,9.9c0,0.5,0,0.9,0.1,1.4l-31.5,5.8c-1-4.5-5-7.7-9.6-7.7
			c-4.2,0-8,2.7-9.3,6.7l-2.2-0.6c9.1-57,25.1-112.8,47.6-165.9c36.2-85.7,88.7-163.5,154.6-229.2c18.9-18.9,38.9-36.8,59.7-53.6
			h-2.9c-20.3,16.4-39.7,33.8-58.2,52.3c-66,65.9-118.6,143.9-154.9,229.8c-22.5,53.3-38.6,109-47.7,166.1l-46.4-13.6
			c0.2-0.8,0.3-1.6,0.3-2.4c0-5.4-4.4-9.9-9.9-9.9c0,0,0,0,0,0c-5.4,0-9.9,4.4-9.9,9.9s4.4,9.9,9.9,9.9c4.2,0,8-2.7,9.3-6.7
			l46.5,13.6c-5.7,36.1-8.7,72.5-8.9,109l-14.4,12.9c-1.9-1.9-4.4-3-7.1-3c-5.4,0-9.9,4.4-9.9,9.9c0,3.3,1.7,6.4,4.5,8.2l-37.1,61.7
			c-1.5-0.8-3.1-1.2-4.8-1.2c-5.4,0-9.9,4.4-9.9,9.8c0,0,0,0,0,0c0,5.4,4.4,9.9,9.8,9.9c0,0,0,0,0,0c5.4,0,9.9-4.4,9.9-9.9
			c0,0,0,0,0,0c0-3.3-1.7-6.4-4.4-8.2l37.1-61.6c1.5,0.8,3.1,1.2,4.8,1.2c5.4,0,9.9-4.4,9.9-9.9c0,0,0,0,0,0c0-2.3-0.8-4.5-2.3-6.3
			l13.9-12.4c0,1.5,0,2.9,0,4.4c0,39,3.1,77.8,9.3,116.3c-4.4,1.1-7.5,5-7.5,9.6c0,5.4,4.4,9.9,9.9,9.9c0.3,0,0.7,0,1-0.1
			c9.5,50,24.3,98.9,44.1,145.7c15.7,37.1,34.4,72.8,56.1,106.8l-1.5,15.3c-0.2,0-0.4,0-0.5,0c-5.4,0-9.9,4.4-9.9,9.8c0,0,0,0,0,0
			c0,5.4,4.4,9.9,9.8,9.9c0,0,0,0,0,0c5.4,0,9.9-4.4,9.9-9.8c0,0,0,0,0,0c0-2.7-1.2-5.4-3.2-7.2l4-4.6
			c26.4,39.4,56.6,76.2,90.2,109.7c16.7,16.7,34,32.4,52.1,47.3h2.8c-18.6-15.2-36.5-31.4-53.7-48.6
			c-33.6-33.6-63.9-70.4-90.3-109.9l30.4-35.6c1.8,1.5,4.1,2.4,6.4,2.4c5.4,0,9.9-4.4,9.9-9.8c0,0,0,0,0,0c0-2.4-0.9-4.8-2.5-6.6
			l104.6-93.8c22.8,39.5,50.6,75.8,82.9,108c47.2,47.3,103.2,85.1,164.8,111.1c63.8,27,132.5,40.9,201.8,40.8
			c69.3,0.1,137.9-13.7,201.8-40.7c25.4-10.7,49.9-23.5,73.3-38.1l5.7,4.4c-1.2,1.7-1.8,3.7-1.8,5.7c0,5.5,4.4,9.9,9.9,9.9
			s9.9-4.4,9.9-9.9c0-5.5-4.4-9.9-9.9-9.9c-2.9,0-5.7,1.3-7.6,3.5l-5.5-4.2c32.9-20.7,63.3-45.1,90.7-72.6
			c12.1-12.1,23.6-24.8,34.4-37.9l7.9,1.9c-0.2,0.7-0.3,1.5-0.3,2.3c0,5.5,4.4,9.9,9.9,9.8c3.6,0,7-2,8.7-5.2l23.1,11.9
			c-2.3,4.9-0.2,10.8,4.7,13.1c1.3,0.6,2.8,1,4.3,1c1.3,0,2.6-0.3,3.8-0.8l7.9,18.2c-4.6,2.5-6.3,8.2-3.9,12.9s8.2,6.3,12.9,3.9
			c4.6-2.5,6.3-8.2,3.9-12.9c-2.3-4.4-7.6-6.2-12.2-4.2l-7.9-18.2c4.8-2.5,6.7-8.4,4.3-13.3c-2.5-4.8-8.4-6.7-13.3-4.3
			c-1.7,0.9-3.1,2.2-4.1,3.9l-23.1-11.9c0.5-1.2,0.8-2.6,0.8-3.9c0-5.4-4.4-9.9-9.9-9.9c-4.3,0-8.1,2.8-9.4,6.9l-7.6-1.8
			c31.3-38.2,56.9-80.7,76.1-126.2c27-63.8,40.9-132.5,40.7-201.8c0.1-59.6-10.2-118.9-30.3-175l27.9,38.5
			c-4.2,3.4-4.8,9.7-1.4,13.9c3.4,4.2,9.7,4.8,13.9,1.4s4.8-9.7,1.4-13.9c-1.2-1.5-2.9-2.6-4.8-3.2l9.5-31.9c5.2,1.4,10.6-1.8,12-7
			c0.2-0.7,0.3-1.4,0.3-2.2h49.1c0,5.4,4.4,9.9,9.8,9.9c2.8,0,5.5-1.2,7.4-3.3l32.3,28.2c-3.6,4.3-3,10.8,1.3,14.3s10.8,3,14.3-1.3
			c3.6-4.3,3-10.8-1.3-14.3c-4.1-3.4-10.1-3.1-13.8,0.8l-32.3-28.2c3.3-4.3,2.5-10.5-1.9-13.8s-10.5-2.5-13.8,1.9
			c-1.2,1.5-1.8,3.3-2,5.2h-49.1c-0.2-5.4-4.8-9.7-10.2-9.5c-5.4,0.2-9.7,4.8-9.5,10.2c0.2,4.1,2.8,7.7,6.7,9l-9.5,31.9
			c-2.7-0.6-5.5-0.1-7.7,1.5l-29.4-40.7c-3-8.1-6.1-16.2-9.5-24.1c-7.3-17.3-15.6-34.3-24.8-50.7l21.3-53c4.5,1.6,9.5-0.2,11.9-4.4
			l60.3,32c-2.3,4.9-0.2,10.8,4.7,13.1c4.9,2.3,10.8,0.2,13.1-4.7c0.6-1.3,0.9-2.8,0.9-4.2c0-0.3,0-0.6,0-0.9l53.4-6.9
			c0.9,5.3,6,8.9,11.3,7.9c5.3-0.9,8.9-6,7.9-11.3c-0.9-5.3-6-8.9-11.3-7.9c-4.7,0.8-8.1,4.9-8.1,9.7c0,0.3,0,0.6,0,0.9l-53.5,6.9
			c-0.9-5.4-6-9-11.4-8c-2.9,0.5-5.4,2.3-6.9,4.8l-60.3-32c1.5-3.2,1.3-6.9-0.7-9.8l74.5-54.6c3.4,4.2,9.6,4.9,13.9,1.5
			c3.9-3.1,4.8-8.7,2.1-12.9l22.9-16c26.4,39,49,80.4,67.3,123.8c37.6,88.8,56.9,184.3,56.7,280.7c0.1,65.9-8.9,131.5-26.7,195
			l-37.5-44.2c4.1-3.6,4.5-9.8,0.9-13.9c-2.6-3-6.9-4.1-10.7-2.8L598.8,562c3.7-1.5,6.1-5.1,6.1-9.1c0-0.1,0-0.2,0-0.4l30.6-1.6
			c0.5,5.4,5.3,9.4,10.7,9c5.4-0.5,9.4-5.3,9-10.7c-0.5-5.1-4.7-9-9.8-9h-0.4l-3.3-42.5c5.4-0.8,9.1-5.9,8.2-11.3
			c-0.8-5.4-5.9-9.1-11.3-8.2c-3.8,0.6-6.9,3.3-8,7.1l-18.9-5.6c1.3-5.3-1.9-10.6-7.2-12s-10.6,1.9-12,7.2c-1,3.9,0.5,8,3.7,10.4
			L576,514.8c-4.6-3-10.7-1.7-13.6,2.9c-3,4.6-1.7,10.7,2.9,13.6c1.6,1,3.5,1.6,5.4,1.6c2.1,0,4.2-0.7,5.9-2l12,14.4
			c-4.1,3.6-4.5,9.8-1,13.9c2.6,3,6.7,4.1,10.5,2.9l48.3,135.6c-5,2.2-7.3,8-5.2,13c2.2,5,8,7.3,13,5.2c0.7-0.3,1.4-0.7,2.1-1.2
			l37.8,44.7c-8.1,28.6-17.9,56.6-29.4,84l-30.5-1.5c0,0,0-0.1,0-0.1c0-5.4-4.5-9.8-9.9-9.8c-5.3,0-9.6,4.2-9.8,9.4h-77.8
			c-0.2-5.5-4.9-9.8-10.4-9.6c-5.5,0.2-9.8,4.9-9.6,10.4s4.9,9.8,10.4,9.6c5.2-0.2,9.4-4.4,9.6-9.6h77.9c0.2,5.4,4.7,9.7,10.2,9.5
			c5-0.2,9.1-4,9.5-9l30.2,1.5l0,0c-36.2,85.7-88.7,163.5-154.5,229.2c-17.2,17.2-35.1,33.4-53.7,48.6h2.8
			c18.1-14.9,35.4-30.7,52.1-47.3c66.1-65.8,118.7-143.9,155-229.8l0.3-0.7l94.5,4.8c0,0.1,0,0.3,0,0.4c0,5.4,4.4,9.9,9.9,9.9
			c5.4,0,9.9-4.4,9.9-9.9C780.5,843.9,776.1,839.5,770.6,839.5L770.6,839.5L770.6,839.5z M-659.4,445.3c1,4.5,5,7.7,9.6,7.7
			c0.2,0,0.5,0,0.7,0l6.7,56.7c-4.8,0.8-8.3,4.9-8.3,9.7c0,5.4,4.4,9.9,9.9,9.9c1.6,0,3.3-0.4,4.7-1.2l19.1,32.1
			c-1.9,1.3-3.3,3.1-4,5.3l-74.8-20.5c0.2-0.8,0.3-1.7,0.3-2.5c0-5.1-3.8-9.3-8.8-9.8l3.7-70.2h0.1c5.4,0,9.9-4.4,9.9-9.9
			c0,0,0,0,0,0c0-0.5,0-0.9-0.1-1.4L-659.4,445.3z M-712.4,449.5l2.1,0.6c-0.2,0.8-0.3,1.6-0.3,2.4c0,5.1,3.9,9.4,9,9.8l-3.7,70.2
			h-0.2c-5.4,0-9.9,4.4-9.9,9.8c0,0,0,0,0,0c0,2.4,0.9,4.7,2.5,6.5l-8.4,7.5C-720.9,520.6-717.9,484.9-712.4,449.5L-712.4,449.5z
			 M-721.3,563.5c0-2,0-4,0-6l9-8c1.8,1.8,4.3,2.8,6.8,2.8c4.2,0,7.9-2.6,9.3-6.6l74.9,20.5c-0.2,0.7-0.3,1.5-0.3,2.2
			c0,3.4,1.7,6.5,4.6,8.3l-37.7,64.7c-1.4-0.8-3-1.2-4.6-1.2c-5.5,0-9.9,4.4-9.9,9.9c0,2,0.6,4,1.8,5.6l-36.4,27.5
			c-1.9-2.4-4.7-3.7-7.7-3.7c-0.2,0-0.4,0-0.6,0C-718.2,641.1-721.3,602.3-721.3,563.5L-721.3,563.5z M363.1,196.3
			c0.5,0.5,1,1,1.5,1.5l-34.7,32.4c-3.9-3.8-10.1-3.8-13.9,0c-1.2,1.2-2.1,2.7-2.5,4.4l-11.6-2.6c-9.1-8.4-18.5-16.4-28.1-24
			l-7.4-18.2c4.9-2.3,7.1-8.1,4.8-13.1c-1-2.2-2.7-3.9-4.9-4.9l16.4-39.5c1.1,0.4,2.2,0.6,3.4,0.6h0.5
			C314,151.7,339.7,172.9,363.1,196.3z M361.1,661.3c-5.4,0-9.9,4.4-9.9,9.9c0,0.7,0.1,1.4,0.2,2.2L286,693.3
			c-0.7-1.9-1.9-3.5-3.6-4.7l49.2-78.5c4.7,2.7,10.7,1.1,13.5-3.6c2.7-4.7,1.1-10.7-3.6-13.5c-0.6-0.4-1.3-0.7-2-0.9l41.2-151.7
			c0.8,0.2,1.7,0.3,2.6,0.4c0.3,0,0.6,0,0.9,0l1.5,8.9c-5.3,1.3-8.5,6.7-7.2,11.9c1.1,4.4,5,7.5,9.6,7.5c0.8,0,1.6-0.1,2.4-0.3
			l50,147.4c-3.6,1.6-6,5.1-6,9.1c0,1.4,0.3,2.9,0.9,4.2l-66,36.3C367.5,663,364.4,661.3,361.1,661.3L361.1,661.3z M391.2,468.5
			c5.2-1.7,7.9-7.3,6.2-12.5c-1.4-4-5.1-6.7-9.3-6.7c-0.5,0-1.1,0.1-1.6,0.1l-1.5-8.9c5.4-0.9,9-6,8.1-11.4s-6-9-11.4-8.1
			s-9,6-8.1,11.4c0.6,3.5,3.1,6.5,6.4,7.7L338.7,592c-5.3-1.2-10.6,2.1-11.8,7.4c-0.9,3.9,0.7,8,4,10.3l-49.2,78.5
			c-1.5-0.9-3.3-1.4-5-1.4c-5.4,0-9.9,4.4-9.9,9.9c0,5.4,4.4,9.9,9.9,9.8c5.4,0,9.9-4.4,9.9-9.9c0-0.9-0.1-1.8-0.4-2.6l65.4-19.9
			c1.6,5.2,7.1,8.1,12.3,6.5c5.2-1.6,8.1-7.1,6.5-12.3c-0.2-0.6-0.4-1.2-0.8-1.8l65.9-36.3c0.7,1.2,1.6,2.2,2.7,3
			c-5.7,35-15.5,69.2-29.3,101.9c-20.7,49-50.1,93.9-86.7,132.6c-0.7-5.4-5.6-9.3-11-8.6s-9.3,5.6-8.6,11c0.6,4.6,4.2,8.1,8.8,8.6
			c-28.2,28-60.1,52-94.7,71.5c0-0.3,0-0.7,0-1c0-5.4-4.4-9.9-9.8-9.9c-2.3,0-4.6,0.8-6.4,2.3l-20.9-23.2c3.9-3.8,3.9-10.1,0.1-13.9
			c-3.8-3.9-10.1-3.9-13.9-0.1c-1.2,1.2-2.1,2.7-2.6,4.3l-30.6-8.1c0.2-0.7,0.2-1.4,0.2-2.1c0-1.2-0.2-2.4-0.7-3.6l24.9-10.9
			c2.3,4.9,8.1,7.1,13.1,4.8c4.9-2.3,7.1-8.1,4.8-13.1c-2.2-4.9-7.9-7.1-12.8-4.9l-27.4-58.6c7.8-4.3,15.4-8.9,22.8-13.9
			c15.2-10.3,29.3-21.9,42.3-34.9c13-13,24.6-27.1,34.9-42.3c10.3-15.3,19.2-31.6,26.4-48.5c14.9-35.2,22.5-73,22.5-111.3
			c0.1-38.2-7.5-76-22.4-111.2c-7.2-17-16-33.3-26.3-48.5c-10.3-15.2-22-29.3-34.9-42.3c-13-12.9-27.1-24.6-42.3-34.9
			c-15.3-10.3-31.6-19.2-48.6-26.4c-11.8-5-24-9.2-36.4-12.6l-18.5-30.7c4.6-2.9,5.9-9,3-13.6c-0.3-0.5-0.7-1-1.1-1.4l36.6-38
			c4,3.6,10.3,3.3,13.9-0.8c0.6-0.6,1.1-1.4,1.5-2.1l67.2,30.6c-1.8,5.2,1,10.8,6.2,12.5s10.8-1,12.5-6.2c1-2.8,0.6-5.9-0.9-8.4
			l54.2-36.1c9.2,6.2,18.1,12.7,26.8,19.6l3.4,8.2c-4.9,2.3-7,8.2-4.7,13.1c1.6,3.5,5.2,5.7,9,5.6c0.3,0,0.5,0,0.8,0l6.3,40.2
			c-5.3,1.1-8.8,6.3-7.7,11.6c1.1,5.3,6.3,8.8,11.6,7.7c5.3-1.1,8.8-6.3,7.7-11.6c-0.9-4.6-5-7.9-9.7-7.9c-0.4,0-0.8,0-1.1,0.1
			l-6.3-40.2c3.8-0.6,7-3.5,8-7.2l7.8,1.8c4.9,4.4,9.6,9,14.3,13.7c40.7,40.6,73.2,88.7,95.6,141.7c23.2,54.9,35.1,114,35,173.6
			c0,17.9-1.1,35.9-3.2,53.7L391.2,468.5z M-303.6,858.3c0-3.1-1.4-5.9-3.9-7.8l19.3-29.3c1.5,0.9,3.3,1.4,5.1,1.4
			c4.5,0,8.4-3,9.5-7.4l24.2,5.2c-0.1,0.6-0.1,1.1-0.1,1.7c0,5.4,4.4,9.9,9.8,9.9c0,0,0,0,0,0c3.6,0,6.8-1.9,8.6-5l111.8,57.3
			c-0.7,1.4-1,2.8-1,4.4c0,3.9,2.3,7.4,5.9,9l-18.2,50.3c-0.9-0.3-1.8-0.4-2.8-0.4c-3.8,0-7.3,2.2-8.9,5.7l-63.1-24.5
			c0.4-1.1,0.6-2.3,0.6-3.5c0-5.4-4.4-9.9-9.8-9.9c0,0,0,0,0,0c-4.1,0-7.8,2.6-9.2,6.4l-71-25.5l-1-0.9c0.3-0.9,0.4-1.8,0.4-2.8
			c0-5.4-4.4-9.9-9.9-9.9c0,0,0,0,0,0c-0.7,0-1.3,0.1-2,0.2l-2-15C-306.8,867-303.5,862.9-303.6,858.3z M-226.1,922.5
			c-0.2,0.9-0.4,1.8-0.4,2.7c0,5.4,4.4,9.9,9.8,9.9c0,0,0,0,0,0c3.8,0,7.3-2.2,8.9-5.7l63.1,24.5c-0.4,1.1-0.6,2.3-0.6,3.5
			c0,4.2,2.7,8,6.8,9.3l-4.8,18c-10.9-3.7-21.8-7.8-32.5-12.3c-43.6-18.4-84-43.7-119.6-74.8L-226.1,922.5z M-137.7,967
			c0.8,0.2,1.6,0.3,2.4,0.3c5.4,0,9.9-4.4,9.9-9.9c0-4.1-2.5-7.8-6.4-9.2l18.2-50.2c1,0.4,2.1,0.6,3.3,0.6c5.4,0,9.9-4.4,9.9-9.9
			c0,0,0,0,0,0c0-1.3-0.3-2.6-0.7-3.8l4.7-1.9c1.6,3.5,5.1,5.7,8.9,5.7c5.4,0,9.9-4.4,9.9-9.9c0-5.4-4.4-9.9-9.9-9.9
			c-5.4,0-9.9,4.4-9.9,9.8c0,0,0,0,0,0c0,1.2,0.2,2.4,0.6,3.5l-4.7,1.9c-1.7-3.3-5.1-5.4-8.8-5.4c-3.5,0-6.7,1.8-8.5,4.8
			l-111.8-57.3c0.6-1.3,0.9-2.7,0.9-4.2c0-5.4-4.4-9.9-9.8-9.9c0,0,0,0,0,0c-4.5,0-8.4,3-9.5,7.4l-24.2-5.2c0.1-0.6,0.2-1.1,0.2-1.7
			c0-5.4-4.4-9.9-9.8-9.9c0,0,0,0,0,0c-5.4,0-9.9,4.4-9.9,9.8c0,0,0,0,0,0c0,3.2,1.5,6.2,4.1,8l-19.3,29.3c-1.6-1-3.5-1.6-5.4-1.6
			c-5.4,0-9.9,4.4-9.9,9.8c0,0,0,0,0,0c0,5.4,4.4,9.9,9.8,9.9c0,0,0,0,0,0c0.4,0,0.9,0,1.3-0.1l2,15.1l-0.8,0.3
			c-2.2-2.2-4.5-4.3-6.7-6.5c-40.7-40.6-73.2-88.8-95.6-141.8c-23.2-54.9-35.1-114-35-173.6c0-16.6,0.9-33.2,2.7-49.7l26.3,42.3
			c-2.8,1.8-4.5,4.9-4.5,8.3c0,5.3,4.2,9.6,9.5,9.8v63.1c-5.3,0.2-9.5,4.5-9.5,9.8c0,5.4,4.4,9.9,9.9,9.9c0,0,0,0,0,0
			c5.4,0,9.9-4.4,9.9-9.9c0,0,0,0,0,0c0-5.3-4.2-9.6-9.5-9.8v-63.1c3.9-0.2,7.3-2.6,8.7-6.2l100.3,39.3c-0.4,1-0.6,2.1-0.6,3.2
			c0,5.4,4.4,9.9,9.9,9.9c0,0,0,0,0,0c5.4,0,9.9-4.4,9.9-9.9s-4.4-9.9-9.9-9.9c-3.9,0-7.4,2.3-9,5.9l-100.3-39.3
			c0.3-0.9,0.4-1.9,0.4-2.9c0-5.4-4.4-9.9-9.9-9.9c0,0,0,0,0,0c-1.6,0-3.3,0.4-4.7,1.2l-26.9-43.2c4.8-42.2,15.6-83.6,32.2-122.7
			c13-30.9,29.5-60.2,49.2-87.3c1.5,1.8,3.7,3,6,3.3l-5.6,48.1c-0.2,0-0.5,0-0.7,0c-5.4,0-9.9,4.4-9.9,9.9c0,5.4,4.4,9.9,9.9,9.9
			c5.4,0,9.9-4.4,9.9-9.9c0-0.2,0-0.5,0-0.7l73.1-5.3c0.5,5,4.8,8.8,9.8,8.8c5.4,0,9.9-4.4,9.9-9.8c0,0,0,0,0,0c0-4.3-2.8-8.2-7-9.5
			l4.2-19.1c0.7,0.2,1.4,0.2,2.1,0.2c5.5,0,9.9-4.4,9.9-9.9c0-4.8-3.4-8.8-8.1-9.7l4.6-25.6c0.3,0,0.7,0.1,1,0.1
			c5.4,0,9.9-4.4,9.9-9.9c0-2.8-1.2-5.5-3.3-7.4l44.4-57.6c1.7,1.2,3.7,1.9,5.8,1.9c5.4,0,9.9-4.4,9.9-9.8c0,0,0,0,0,0
			c0-1.1-0.2-2.1-0.5-3.1l66.7-22.9c1.3,3.4,4.3,5.9,7.9,6.4l-4.3,46.1c-0.3,0-0.6-0.1-0.9-0.1c-5.4,0-9.9,4.4-9.9,9.9c0,0,0,0,0,0
			c0,5.4,4.4,9.9,9.9,9.9l0,0c5.4,0,9.9-4.4,9.9-9.9l0,0c0-4.8-3.4-8.9-8.2-9.7l4.3-46.2h0.5c5.4,0,9.9-4.4,9.9-9.9l0,0
			c0-5.4-4.4-9.9-9.9-9.9l0,0c-1.5,0-3,0.3-4.3,1l-7.3-13.4c2.8-1.8,4.4-4.9,4.4-8.2c0-2.5-0.9-4.9-2.6-6.7
			c39.3-11,80-16.6,120.8-16.5c34,0,67.9,3.8,101.1,11.5c1.5,0.9,3.2,1.3,4.9,1.3c0.2,0,0.3,0,0.5,0c17.2,4.2,34.1,9.5,50.7,15.7
			c0,0.1,0,0.2,0,0.4c0,5.4,4.4,9.9,9.9,9.9c1.8,0,3.5-0.5,5-1.4l21.2,32.1c-4.3,3.3-5.1,9.5-1.8,13.8c1.1,1.4,2.6,2.5,4.3,3.2
			l-6.5,21.4c-4.7-1.3-9.7,1.1-11.6,5.6l-67.1-30.6c0.5-1.2,0.7-2.5,0.7-3.7c0-5.4-4.4-9.8-9.9-9.8c-5.4,0-9.8,4.4-9.8,9.9
			c0,2.5,1,4.9,2.7,6.8l-36.5,38c-4-3.7-10.3-3.4-13.9,0.7c-3.7,4-3.4,10.3,0.7,13.9c3.1,2.8,7.6,3.4,11.3,1.4l18.1,30
			c-24.1-6.4-48.9-9.6-73.8-9.6c-38.2-0.1-76.1,7.6-111.3,22.5c-17,7.2-33.3,16-48.5,26.4c-15.2,10.3-29.3,21.9-42.3,34.9
			c-12.9,13-24.6,27.1-34.9,42.3c-10.3,15.3-19.2,31.6-26.4,48.5c-14.9,35.2-22.5,73-22.5,111.3c-0.1,38.2,7.6,76.1,22.5,111.3
			c7.2,17,16,33.3,26.4,48.5c10.3,15.2,21.9,29.3,34.9,42.3c13,13,27.1,24.6,42.3,34.9c15.3,10.3,31.6,19.2,48.6,26.3
			c35.2,14.9,73.1,22.6,111.3,22.5c38.2,0.1,76.1-7.6,111.3-22.5c8.5-3.6,16.9-7.6,25-12.1l27.4,58.5c-4.4,2.3-6.4,7.5-4.7,12.1
			l-25,10.9c-2.4-4.9-8.3-6.9-13.2-4.6s-6.9,8.3-4.6,13.2s8.3,6.9,13.2,4.6c2.5-1.2,4.3-3.4,5.1-6l30.6,8.1c-0.1,0.7-0.2,1.3-0.2,2
			c0,5.4,4.4,9.9,9.9,9.9c2.3,0,4.6-0.8,6.4-2.3l20.9,23.2c-3.8,3.9-3.8,10.1,0,13.9c0.7,0.7,1.5,1.3,2.4,1.8
			c-10.1,5.2-20.4,10-30.9,14.5c-54.9,23.3-114,35.2-173.6,35.1c-47.7,0.1-95.1-7.6-140.4-22.6L-137.7,967z M-130.1,148.5
			c1.7,0,3.3-0.4,4.8-1.2l7.3,13.3c-3,1.8-4.9,5-4.9,8.5c0,0.9,0.1,1.8,0.4,2.7l-66.7,22.9c-1.6-3.6-5.1-6-9.1-6
			c-5.4,0-9.9,4.4-9.9,9.9c0,0,0,0,0,0c0,2.9,1.3,5.6,3.4,7.5l-44.4,57.6c-1.7-1.3-3.8-2-5.9-2c-5.4,0-9.9,4.4-9.9,9.9
			c0,4.7,3.4,8.8,8.1,9.7l-4.6,25.6c-0.3,0-0.6,0-1,0c-5.4,0-9.9,4.4-9.9,9.9c0,4.3,2.8,8.2,7,9.5l-4.2,19.1
			c-0.7-0.2-1.4-0.2-2.1-0.2c-5.4,0-9.9,4.4-9.9,9.9c0,0,0,0,0,0c0,0.1,0,0.2,0,0.3l-73.2,5.3c-0.7-4.3-4-7.6-8.3-8.3l5.6-48.1
			c0.3,0,0.5,0,0.8,0c5.4,0,9.9-4.4,9.9-9.9c0-3.9-2.3-7.3-5.8-9c10.9-13.7,22.5-26.8,34.9-39.2c40.6-40.7,88.8-73.2,141.8-95.6
			c11.8-5,23.7-9.4,35.8-13.4c-0.1,0.5-0.1,1-0.1,1.6C-140,144-135.6,148.5-130.1,148.5C-130.2,148.5-130.1,148.5-130.1,148.5
			L-130.1,148.5z M112.6,122.7l43,18.2c-0.1,0.3-0.2,0.6-0.3,0.9c-15.4-5.8-31.1-10.7-47-14.8C110.2,126.1,111.7,124.6,112.6,122.7
			L112.6,122.7z M187.8,223.4l6.5-21.4c0.9,0.3,1.9,0.4,2.8,0.4c5.5,0,9.9-4.4,9.9-9.9c0-5.5-4.4-9.9-9.9-9.9
			c-1.9,0-3.8,0.6-5.5,1.6l-21.2-32c0.6-0.4,1.2-1,1.7-1.5c26,11,50.8,24.5,74.2,40.2l-53.9,35.9C191.4,225.2,189.7,224,187.8,223.4
			L187.8,223.4z M62.4,497c8.3,8.3,15,18.1,19.5,29c4.7,11.2,7.2,23.3,7.2,35.5c0,12.2-2.4,24.2-7.2,35.5
			c-4.6,10.8-11.2,20.7-19.5,29c-8.3,8.3-18.2,15-29,19.5c-11.2,4.7-23.3,7.2-35.5,7.2c-12.2,0-24.2-2.4-35.5-7.2
			c-10.8-4.6-20.7-11.2-29-19.5c-8.3-8.3-15-18.2-19.5-29c-4.7-11.2-7.2-23.3-7.2-35.5c0-12.2,2.5-24.3,7.3-35.5
			c4.6-10.8,11.2-20.7,19.5-29c8.3-8.3,18.2-15,29-19.5c11.2-4.7,23.3-7.2,35.5-7.2c12.2,0,24.2,2.4,35.5,7.2
			C44.3,482.1,54.1,488.7,62.4,497z M-38.2,476c-3.3,1.4-6.5,3-9.5,4.7l-20.7-35.9c4.6-2.6,9.3-4.9,14.1-7
			c16.3-6.9,33.7-10.5,51.4-10.5v41.4C-15,468.8-27,471.3-38.2,476z M-49.2,481.6c-6.7,4-13,8.8-18.5,14.3
			c-5.5,5.5-10.3,11.7-14.3,18.4l-35.9-20.7c5.8-9.9,12.8-19,20.9-27.1c8.1-8.1,17.2-15.1,27.1-20.9L-49.2,481.6z M-82.8,515.8
			c-1.8,3.1-3.3,6.3-4.7,9.5c-4.7,11.2-7.2,23.2-7.3,35.3h-41.4c0.1-17.7,3.7-35.1,10.5-51.4c2.1-4.8,4.4-9.6,7-14.1L-82.8,515.8z
			 M-94.8,562.4c0.1,12.1,2.6,24.1,7.3,35.3c1.4,3.3,3,6.4,4.7,9.5l-35.9,20.7c-2.6-4.6-4.9-9.3-7-14.1
			c-6.9-16.3-10.5-33.7-10.5-51.4H-94.8z M-82,608.6c4,6.7,8.8,13,14.3,18.5c5.5,5.5,11.7,10.3,18.5,14.3l-20.7,35.9
			c-9.9-5.8-18.9-12.8-27-20.9c-8.1-8.1-15.1-17.1-20.9-27L-82,608.6z M-47.7,642.3c3.1,1.8,6.3,3.3,9.5,4.7
			c11.2,4.7,23.1,7.2,35.3,7.3v41.4c-17.7-0.1-35.1-3.7-51.4-10.5c-4.8-2.1-9.6-4.4-14.1-7L-47.7,642.3z M-1.2,654.3
			c12.1-0.1,24.1-2.6,35.3-7.3c3.3-1.4,6.5-3,9.5-4.7l20.7,35.9c-4.6,2.6-9.3,4.9-14.1,7c-16.3,6.9-33.7,10.5-51.4,10.5L-1.2,654.3z
			 M45.1,641.4c6.7-4,12.9-8.8,18.5-14.3c5.5-5.5,10.3-11.7,14.3-18.5l35.9,20.7c-5.8,9.9-12.8,18.9-20.9,27
			c-8.1,8.1-17.1,15.1-27,20.9L45.1,641.4z M78.8,607.1c1.8-3.1,3.3-6.3,4.7-9.5c4.7-11.2,7.2-23.2,7.3-35.3h41.4
			c-0.1,17.7-3.7,35.1-10.5,51.4c-2.1,4.8-4.4,9.6-7,14.1L78.8,607.1z M90.8,560.6c-0.1-12.1-2.6-24.1-7.3-35.3
			c-1.4-3.3-3-6.5-4.7-9.5l35.9-20.7c2.6,4.6,4.9,9.3,7,14.1c6.9,16.3,10.5,33.7,10.5,51.4H90.8z M77.9,514.3
			c-4-6.7-8.8-12.9-14.3-18.5c-5.5-5.5-11.7-10.4-18.5-14.3l20.7-35.9c9.9,5.8,19,12.8,27.1,20.9c8.1,8.1,15.1,17.2,20.9,27
			L77.9,514.3z M43.6,480.7c-3.1-1.7-6.3-3.3-9.5-4.7c-11.2-4.7-23.1-7.2-35.3-7.3v-41.4c17.7,0.1,35.1,3.7,51.4,10.5
			c4.8,2.1,9.6,4.4,14.1,7L43.6,480.7z M-2.9,425.6c-17.9,0.1-35.5,3.7-52,10.7c-4.9,2.1-9.7,4.4-14.3,7.1l-56.1-97.1
			c8.6-5,17.5-9.4,26.7-13.3c30.3-12.8,62.8-19.4,95.7-19.5L-2.9,425.6z M-70.8,444.2c-10,5.9-19.2,13-27.4,21.2
			c-8.2,8.2-15.3,17.4-21.2,27.4l-97.1-56.1c2.8-4.7,5.7-9.4,8.7-13.9c8.9-13.2,19.1-25.5,30.3-36.7c11.2-11.2,23.5-21.4,36.7-30.3
			c4.5-3.1,9.2-6,13.9-8.7L-70.8,444.2z M-120.2,494.2c-2.6,4.6-5,9.4-7.1,14.3c-7,16.5-10.6,34.2-10.7,52.1h-112.1
			c0-32.9,6.7-65.4,19.5-95.7c3.9-9.2,8.3-18.1,13.3-26.8L-120.2,494.2z M-138,562.3c0.1,17.9,3.7,35.5,10.7,52
			c2.1,4.9,4.4,9.7,7.1,14.3l-97.1,56.1c-4.9-8.6-9.4-17.6-13.2-26.7c-12.8-30.3-19.4-62.8-19.5-95.7L-138,562.3z M-119.4,630.2
			c5.9,10,13,19.2,21.2,27.4c8.2,8.2,17.4,15.3,27.4,21.2l-56.1,97.1c-4.7-2.8-9.4-5.7-13.9-8.7c-13.2-8.9-25.5-19.1-36.7-30.3
			c-11.2-11.3-21.4-23.5-30.3-36.7c-3.1-4.5-6-9.2-8.7-13.9L-119.4,630.2z M-69.3,679.6c4.6,2.6,9.4,5,14.3,7.1
			c16.5,7,34.2,10.6,52.1,10.7v112.2c-32.9,0-65.4-6.7-95.7-19.5c-9.2-3.9-18.1-8.3-26.8-13.3L-69.3,679.6z M-1.2,697.4
			c17.9-0.1,35.6-3.7,52-10.7c4.9-2.1,9.7-4.4,14.3-7.1l24.7,42.8c-4.3,3.4-5,9.5-1.7,13.8c1.9,2.4,4.8,3.8,7.8,3.8
			c1.2,0,2.4-0.2,3.6-0.7l1.5,2.6l17.1,36.6c-7.7,4.3-15.6,8.1-23.7,11.5c-30.3,12.8-62.8,19.4-95.7,19.5V697.4z M105.6,749.7
			l15.6,27.1c-0.8,0.5-1.6,0.9-2.4,1.3L105.6,749.7z M101.1,738.5c4.6-2.9,6-9,3.1-13.6c-2.7-4.4-8.4-5.9-13-3.5l-24.6-42.7
			c10-5.9,19.2-13,27.4-21.2c8.2-8.2,15.3-17.4,21.2-27.4l97.1,56.1c-2.8,4.7-5.7,9.4-8.7,13.9c-8.9,13.2-19.1,25.5-30.3,36.7
			c-11.2,11.2-23.5,21.4-36.7,30.3c-4.5,3.1-9.2,6-13.9,8.7L101.1,738.5z M116.1,628.7c2.6-4.6,5-9.4,7.1-14.3
			c7-16.5,10.6-34.1,10.7-52H246c-0.1,32.9-6.7,65.4-19.5,95.6c-3.9,9.2-8.3,18.1-13.3,26.8L116.1,628.7z M133.9,560.6
			c-0.1-17.9-3.7-35.6-10.7-52.1c-2.1-4.9-4.4-9.7-7.1-14.3l97.1-56.1c5,8.6,9.4,17.6,13.3,26.8c12.8,30.3,19.4,62.8,19.4,95.7
			H133.9z M115.3,492.8c-5.9-10-13-19.2-21.2-27.4c-8.2-8.2-17.4-15.3-27.4-21.2l44.5-77.1c0.4,5.4,5.1,9.5,10.5,9.1
			c4-0.3,7.5-3,8.7-6.9l33.8,8l0.4,0.3c-0.1,0.4-0.1,0.9-0.1,1.3c0,5.4,4.3,9.8,9.7,9.9c0.6,0,1.2,0,1.8-0.2
			c10.2,10.5,19.5,21.9,27.7,34.1c3.1,4.5,6,9.2,8.7,13.9L115.3,492.8z M130.6,368.6c0.2-0.7,0.3-1.5,0.3-2.2c0-1.4-0.3-2.7-0.8-3.9
			l9.2-4.9c8.3,5.7,16.2,12,23.8,18.7L130.6,368.6z M129.7,361.8c-1.7-3.2-5.1-5.2-8.7-5.2c-1.5,0-3,0.3-4.3,1l6.1-10.5
			c4.7,2.8,9.4,5.7,13.9,8.7l1.9,1.3L129.7,361.8z M115.4,356.4l-11.6-19.3c6,2.8,11.8,5.9,17.5,9.1L115.4,356.4z M115,357.1
			l-49.8,86.2c-4.6-2.6-9.4-5-14.3-7.1c-16.5-7-34.1-10.6-52-10.7V313.4c32.9,0.1,65.4,6.7,95.7,19.5c2.7,1.1,5.3,2.3,8,3.6
			L115,357.1z M-2.9,311.7c-33.1,0-65.9,6.7-96.4,19.6c-9.2,3.9-18.2,8.4-26.9,13.4l-17.2-29.7c9.9-5.7,20.2-10.8,30.8-15.3
			c34.7-14.7,72-22.3,109.7-22.4V311.7z M-144.9,315.8l17.2,29.8c-4.8,2.8-9.4,5.7-14,8.8c-13.3,9-25.7,19.2-37,30.5
			c-11.3,11.3-21.5,23.7-30.5,37c-3.1,4.6-6,9.2-8.8,14l-29.8-17.2c3.2-5.5,6.5-10.8,10.1-16c10.2-15.1,21.8-29.2,34.7-42.1
			c12.9-12.9,27-24.5,42.1-34.7C-155.7,322.4-150.3,319-144.9,315.8L-144.9,315.8z M-248.6,420.1l29.8,17.2c-5,8.7-9.5,17.7-13.4,27
			c-12.9,30.5-19.6,63.3-19.6,96.4h-34.3c0-37.7,7.6-75,22.3-109.7C-259.4,440.3-254.3,430.1-248.6,420.1L-248.6,420.1z
			 M-251.9,562.3c0.1,33.1,6.7,65.9,19.7,96.4c3.9,9.2,8.4,18.2,13.4,26.9l-29.8,17.2c-5.7-9.9-10.8-20.2-15.3-30.8
			c-14.7-34.7-22.3-72-22.3-109.7H-251.9z M-218,687.1c2.8,4.8,5.7,9.4,8.8,14c9,13.3,19.2,25.7,30.5,37
			c11.3,11.3,23.7,21.5,37,30.5c4.6,3.1,9.3,6,14,8.8l-17.2,29.8c-5.5-3.2-10.8-6.5-16-10.1c-15.1-10.2-29.2-21.8-42.1-34.7
			c-12.9-12.9-24.5-26.9-34.7-42c-3.5-5.2-6.9-10.6-10.1-16L-218,687.1z M-126.3,778.2c8.7,5,17.7,9.5,26.9,13.4
			c30.5,12.9,63.3,19.6,96.4,19.6v34.3c-37.7,0-75-7.6-109.7-22.3c-10.5-4.5-20.8-9.6-30.7-15.3L-126.3,778.2z M-1.3,845.6v-34.3
			c33.1-0.1,65.9-6.7,96.4-19.6c8.1-3.4,16.1-7.3,23.8-11.6l14.6,31.2c-8.1,4.4-16.5,8.4-25,12.1C73.8,837.9,36.5,845.5-1.3,845.6
			L-1.3,845.6z M119.6,779.6c0.8-0.5,1.7-0.9,2.5-1.4l17.2,29.8c-1.7,1-3.4,1.9-5.1,2.8L119.6,779.6z M140.7,807.1l-17.2-29.8
			c4.8-2.8,9.4-5.7,14-8.8c13.3-9,25.7-19.2,37-30.5c11.3-11.3,21.5-23.7,30.5-37c3.1-4.6,6-9.2,8.8-14l29.8,17.2
			c-3.2,5.5-6.5,10.8-10.1,16c-10.2,15.1-21.8,29.1-34.7,42c-12.9,12.9-26.9,24.5-42,34.7C151.6,800.5,146.3,804,140.7,807.1
			L140.7,807.1z M244.5,702.8l-29.8-17.2c5-8.7,9.5-17.7,13.4-26.9c12.9-30.5,19.6-63.3,19.6-96.4H282c0,37.7-7.6,75-22.3,109.7
			C255.3,682.6,250.2,692.9,244.5,702.8z M247.7,560.6c0-33.1-6.7-65.9-19.6-96.4c-3.9-9.2-8.4-18.2-13.4-27l29.8-17.2
			c5.7,9.9,10.8,20.2,15.3,30.8c14.7,34.7,22.3,72,22.3,109.7H247.7z M213.8,435.8c-2.8-4.8-5.7-9.4-8.8-14
			c-8.1-12-17.2-23.2-27.3-33.6c5.1-1.9,7.7-7.6,5.8-12.7c-1.9-5.1-7.6-7.7-12.7-5.8c-2.8,1-4.9,3.3-5.9,6.1
			c-7.6-6.9-15.7-13.2-24.1-19.1l15.6-8.4c2.7,4.7,8.7,6.4,13.5,3.6c3.1-1.8,4.9-5,4.9-8.5c0-1.9-0.6-3.9-1.7-5.5
			c9,7,17.5,14.6,25.6,22.7c12.9,12.9,24.5,27,34.7,42c3.5,5.2,6.9,10.6,10.1,16L213.8,435.8z M165.1,333.5c-5.5,0-9.9,4.4-9.9,9.9
			c0,1.5,0.4,2.9,1,4.2l-16,8.6c-0.9-0.6-1.7-1.2-2.6-1.8c-4.6-3.1-9.3-6-14-8.8l17.2-29.8c5.5,3.2,10.8,6.5,16.1,10
			c3.9,2.6,7.7,5.3,11.4,8.1C167.2,333.7,166.2,333.5,165.1,333.5z M122.1,344.7c-6.5-3.7-13.1-7.1-19.9-10.3L74,287.7
			c11.7,3.3,23.3,7.3,34.5,12c10.6,4.5,20.8,9.6,30.8,15.3L122.1,344.7z M100.9,333.9c-1.9-0.9-3.8-1.7-5.8-2.5
			c-30.5-12.9-63.2-19.6-96.3-19.6v-34.4c25.1,0,50,3.4,74.2,10L100.9,333.9z M262.1,190.9c1.2,0,2.3-0.2,3.4-0.6l6.9,16.9
			c-7.7-6-15.5-11.7-23.5-17.1l5.1-3.4C256,189.4,258.9,190.9,262.1,190.9z M281.7,218.2c-1.2,0-2.5,0.2-3.6,0.7l-2.8-6.9
			c2.6,2.1,5.2,4.2,7.8,6.3C282.6,218.3,282.1,218.2,281.7,218.2z M291.4,229.8c0.3-1.5,0.2-3.1-0.3-4.6c2.3,2,4.5,4,6.8,6
			L291.4,229.8z M-533,681.1h0.3c5.4,0,9.9-4.4,9.9-9.8c0,0,0,0,0,0c0-0.2,0-0.5,0-0.7l13.6-1.5c6.8,32.3,16.7,63.9,29.6,94.3
			l0.5,1.2l-21.1,3.9c-1.1-4.4-5-7.4-9.5-7.4c-2.4,0-4.7,0.9-6.6,2.5l-14-14.6c1.8-1.8,2.8-4.3,2.8-6.8c0-5-3.8-9.3-8.8-9.8
			L-533,681.1z M-606.1,969.1c-1.4-1.1-3-1.8-4.8-2l1.3-14.3c2.5,3.9,5,7.7,7.5,11.5L-606.1,969.1z M-556.7,913.3
			c-1.8-1.7-4.3-2.7-6.8-2.7c-5.4,0-9.9,4.4-9.9,9.8c0,0,0,0,0,0c0,2.6,1,5.1,2.9,7l-30.3,35.5c-2.9-4.3-5.7-8.6-8.5-13l5.9-62.3
			h0.5c5.4,0,9.9-4.4,9.9-9.9c0,0,0,0,0,0c0-2.7-1.1-5.3-3.1-7.2l79.8-92.3c1.8,1.6,4.1,2.4,6.5,2.4c5.4,0,9.9-4.4,9.9-9.9
			c0-0.6-0.1-1.1-0.2-1.7l21.2-3.9c7.9,18.6,17,36.6,27,54.1L-556.7,913.3z M-466.1,772c2.6,0,5.1-1,7-2.9l25.1,22.1
			c-1.5,1.8-2.2,4-2.2,6.3c0,2.2,0.7,4.3,2,6l-16.1,14.5c-9.8-17.2-18.7-34.9-26.5-53.1l1.2-0.2C-474.6,768.9-470.6,772-466.1,772z
			 M198.9,1037.3c-63.6,26.9-132,40.7-201,40.6c-69,0.1-137.4-13.7-201-40.6c-61.4-25.9-117.1-63.5-164.1-110.7
			c-32.3-32.2-60.1-68.5-82.8-108l16.2-14.5c1.9,2.1,4.5,3.3,7.3,3.3c5.4,0,9.9-4.4,9.9-9.9c0-5.5-4.4-9.9-9.9-9.9
			c-2.7,0-5.2,1.1-7.1,3l-25.1-22.1c1.5-1.8,2.4-4.1,2.4-6.4c0-5.4-4.4-9.9-9.9-9.9c-5.4,0-9.9,4.4-9.9,9.9c0,0.6,0.1,1.1,0.1,1.7
			l-1.3,0.2c-0.2-0.5-0.5-1-0.7-1.6c-12-28.4-21.4-57.8-28.1-87.9c1.8,1.6,4.1,2.5,6.5,2.5c5.4,0,9.9-4.4,9.9-9.9
			c0-5.4-4.4-9.9-9.9-9.9c-3.9,0-7.4,2.2-9,5.8c-6.7-33.4-10-67.5-10-101.6c-0.1-69,13.7-137.4,40.6-201
			c25.9-61.4,63.5-117.1,110.7-164.1c47.1-47.2,102.8-84.7,164.2-110.7C-139.4,58.8-71.1,45-2.1,45.1c69-0.1,137.4,13.7,201,40.6
			c27.1,11.4,53.1,25.2,77.9,41.1c0.9,2.4,2.7,4.4,5.1,5.5l-16.4,39.5c-5.1-1.9-10.8,0.8-12.6,5.9c-1,2.8-0.7,5.9,0.8,8.4l-5.4,3.6
			c-23.6-15.9-48.6-29.5-74.8-40.7c0.8-1.5,1.3-3.1,1.3-4.9c0-5.4-4.4-9.9-9.9-9.9c-3.9,0-7.4,2.3-9,5.9L113,122
			c0.5-1.2,0.7-2.5,0.7-3.7c0-5.5-4.4-9.9-9.8-9.9c-5.5,0-9.9,4.4-9.9,9.8c0,2.1,0.7,4.2,1.9,5.9c-32.2-7.2-65-10.7-98-10.7
			c-41.5-0.1-82.8,5.7-122.7,17c-1.6-1-3.5-1.6-5.4-1.6c-4,0-7.5,2.4-9.1,6c-12.6,4.1-25,8.7-37.3,13.9
			c-53.2,22.5-101.6,55.1-142.4,96c-12.6,12.6-24.4,25.9-35.4,39.9c-0.7-0.2-1.4-0.2-2.1-0.2c-5.4,0-9.9,4.4-9.9,9.9
			c0,1.6,0.4,3.2,1.2,4.6c-19.9,27.4-36.6,57.1-49.8,88.3c-16.3,38.5-27.1,79.2-32,120.7l-13-20.8c2.8-1.8,4.4-4.9,4.4-8.2
			c0-5.5-4.4-9.9-9.9-9.9c-5.4,0-9.9,4.4-9.9,9.9c0,5.4,4.4,9.9,9.9,9.9c1.7,0,3.3-0.4,4.8-1.2l13.5,21.6c-2,17.4-3,34.9-3,52.5
			c-0.1,59.9,11.8,119.2,35.2,174.4c22.5,53.2,55.1,101.6,96,142.4c2,2,4.1,4.1,6.2,6.1c-2.8,1.8-4.5,4.9-4.5,8.2
			c0,5.4,4.4,9.9,9.9,9.9c3.6,0,6.9-2,8.6-5.1c36.3,32.1,77.5,58.1,122.2,77c10.8,4.6,21.7,8.7,32.8,12.4l-1.4,5.2
			c-0.7-0.2-1.4-0.2-2.1-0.2c-5.4,0-9.9,4.4-9.9,9.9c0,5.5,4.4,9.9,9.9,9.9c5.4,0,9.9-4.4,9.9-9.9c0-4.3-2.8-8.2-7-9.4l1.4-5.1
			c45.5,15,93,22.7,140.9,22.6c59.9,0.1,119.2-11.9,174.4-35.2c11.1-4.7,22-9.8,32.7-15.4c0.7,0.1,1.3,0.2,2,0.2
			c2.9,0,5.6-1.3,7.5-3.5l56.9,44C248.3,1014.1,224,1026.7,198.9,1037.3z M363.1,926.6c-27.5,27.6-58,51.9-91,72.6L215,955.1
			c0.5-0.6,0.9-1.3,1.2-2.1c36.1-20.1,69.2-45.2,98.4-74.4c3.7-0.8,6.6-3.5,7.5-7.1l74.7,18.1C386.2,902.4,374.9,914.7,363.1,926.6z
			 M514.3,561.5c0.1,69-13.7,137.4-40.6,201c-19.3,45.6-45,88.2-76.5,126.5l-75-18.2l0,0c37.5-39.2,67.5-84.9,88.6-134.8
			c13.8-32.6,23.6-66.7,29.4-101.6c1.3,0.6,2.6,0.9,4,0.9c5.4,0,9.9-4.4,9.9-9.8s-4.4-9.9-9.8-9.9c0,0,0,0,0,0c-0.5,0-0.9,0-1.4,0.1
			c2.1-18,3.2-36,3.2-54.1c0.1-59.9-11.9-119.2-35.2-174.4c-22.5-53.2-55.1-101.6-96-142.4c-3.9-3.9-7.8-7.7-11.8-11.4l10.3,2.3
			c-0.1,0.6-0.2,1.2-0.2,1.8c0,5.4,4.4,9.9,9.9,9.9c5.4,0,9.9-4.4,9.9-9.9c0-2.4-0.9-4.7-2.4-6.5l34.7-32.5
			c33,33.3,61.4,71,84.2,112l-2.8,7c-5.1-2-10.8,0.5-12.8,5.5c-2,5.1,0.5,10.8,5.5,12.8c3.1,1.2,6.6,0.8,9.3-1.1l33.1,45.7
			C503.4,438.3,514.4,499.7,514.3,561.5z M473.7,360.5c2.4,5.7,4.7,11.4,6.9,17.2l-31.4-43.5c4.2-3.5,4.7-9.7,1.2-13.9
			c-0.9-1.1-2-1.9-3.2-2.5l2.6-6.5C458.7,327.3,466.6,343.7,473.7,360.5L473.7,360.5z M577.1,530.5c4.1-3.6,4.5-9.8,1-13.9
			c-0.4-0.5-0.9-0.9-1.4-1.3l20.4-29.6c4.6,2.9,10.7,1.5,13.6-3.1c0.4-0.7,0.7-1.4,1-2.1l18.9,5.5c-0.1,0.6-0.2,1.3-0.2,1.9
			c0,5.4,4.4,9.9,9.9,9.9c0,0,0,0,0,0h0.7l3.3,42.4c-5,0.6-8.7,4.8-8.7,9.8v0.1l-30.6,1.6c-0.6-5.4-5.5-9.3-10.9-8.7
			c-1.7,0.2-3.4,0.8-4.8,1.9L577.1,530.5z M666.5,843.5c11.3-26.9,21-54.4,28.9-82.5l68.6,81c-1.8,1.6-3,3.8-3.3,6.2L666.5,843.5z"
			/>
		<path class="st1" d="M74.1,561.4c0.2,0.1,0.4,0.2,0.6,0.2C75.2,561.8,74.9,561.7,74.1,561.4z"/>
		<path class="st1" d="M8.9,540c0,0-3.6,1.6,0-0.6s6-9.7,4.3-16.8s4.4-18.6,4.4-18.6c-8,7.9-10.6,15-10.3,21.8S2.8,537.3,0.8,537
			s-1.3-6.3-1.2-10.6s4.2-15.8-3.6-20.9s-2.5-22.3-2.5-22.3c-3.9,5.9-7.9,20-2.8,26.5s2,13.2,1.3,20.3s-4.1,10.6-4.3,7
			s3.9-9.7-5.2-16S-29,501.2-29,501.2s-4.3,15.8,3.1,22.1s10,16.3,7.4,17.4s-10.6-12-15.8-17.5s-12.6,0.9-18-7.2
			s-11.7-10.3-11.7-10.3c0.5,0.6,3.1,3.4,7.5,11.8s6.6,8.4,13.6,9.7s16.3,12.3,15.9,16.6s-1.6-2.9-13.5,1s-16.7-2.7-16.7-2.7
			c4.6,8.9,15.3,6,19.7,6.3s14.3,5.6,2.7,5.6s-27.2,1.9-31.5,7.3s-12.8,2.9-12.8,2.9c10.5,6.9,12.3,0.2,24.4-2.9s34.7,2.2,27.2,3
			s-14.8,6.9-17.7,13.1s-16.4,5.2-16.4,5.2c24.6,7.5,23.6-9.6,30.4-11.1s17.3,2.2,6.3,6.5s-17.4,8-17.5,19.7S-56.4,616-56.4,616
			c21.9-4.9,19-20.9,22.2-24.9s12.2-7.5,16-7.7s-5.7,7.2-4.4,15.8s-6,17.9-6,17.9s5.7-5.9,10-10.2s2.7-18.5,6.6-22s5-1,1.7,7
			s-1,11.2,5,24.8s0.9,23.2,0.9,23.2C8.8,623.5-0.8,612.5-3,606s1.9-15.6,2.4-17.9s1.7-3.6,2.9-0.7S1.2,594,10.1,600
			s8.4,16.9,8.4,16.9c2.9-11.7-2.6-19.5-5.9-20.6s-6-8.3-6.2-11.2s0.2-4,2.9-2.6s8.6,12.2,12.5,15.8s11.2,2.9,17.3,5.2
			s10.2,13.5,10.2,13.5s-0.4-11.9-3.9-16.3s-9.6-4-13.9-4.9s-7.9-4.4-10.2-8.3s-3.7-10.5-2.4-11.2s1.7,1.9,7.9,3.9s7.9-5.7,16.2,0.3
			s11.7,4.7,11.7,4.7c-2.9,0-4.4-4.7-10.6-9.3s-14.8-2.4-18.6-2.9s-7-4.2-6.9-5.9s3.6-3.6,9.9-0.4s17,2.6,24.9-4
			c6.3-5.3,17.5-2.2,20.7-1.2c-2.7-1.4-7.6-6.4-18.3-6.5c-11.5-0.1-14.8,6.7-20.3,6.7s-10.5-5-14-4.3s-7.3-1.6-1.3-2.1
			s11.9-3.4,16-11.5s19.5-4.4,13.8-6.2s-14-0.7-17.5,4.6c-2.6,3.9-6.7,6.7-11.3,7.7c-2.3,0.4-6,0.3-4.7-4s14.8-5.2,17.8-18.6
			s16.5-22.8,16.5-22.8c-20.9,8-19.9,17-23.8,24.6S8.9,540,8.9,540z"/>
		<path class="st1" d="M152.8,429.7l-8.9-0.9l0.6-4.7c0.2-1.1-0.6-2.1-1.7-2.3c0,0-0.1,0-0.1,0l-9-1l0.6-4.7
			c0.2-1.1-0.6-2.1-1.7-2.3c0,0-0.1,0-0.1,0l-11.1-1.2c-1.1-0.1-2.1,0.7-2.2,1.8s0.7,2.1,1.8,2.2l9,1l-0.6,4.7
			c-0.1,0.5,0.1,1.1,0.4,1.5c0.3,0.4,0.8,0.7,1.4,0.8l9,1l-0.7,4.7c-0.1,0.5,0.1,1.1,0.4,1.5c0.3,0.4,0.8,0.7,1.4,0.8l9,0.9
			l-0.6,4.7c-0.2,1.1,0.6,2.1,1.7,2.3c0,0,0,0,0.1,0h0.3c1,0,1.9-0.7,2-1.8l0.9-6.8c0.1-0.5-0.1-1.1-0.4-1.5
			C153.9,430,153.3,429.8,152.8,429.7z"/>
		<path class="st1" d="M142.1,437.6l-9-0.9l0.6-4.7c0.2-1.1-0.6-2.1-1.7-2.3c0,0-0.1,0-0.1,0l-9-1l0.7-4.7c0.1-0.5-0.1-1.1-0.4-1.5
			c-0.3-0.4-0.8-0.7-1.4-0.8l-11.1-1.2c-1.1-0.1-2.1,0.7-2.2,1.8c-0.1,1.1,0.7,2.1,1.8,2.2l9,1l-0.7,4.7c-0.1,0.5,0.1,1.1,0.4,1.5
			c0.3,0.4,0.8,0.7,1.4,0.8l9,1l-0.6,4.7c-0.1,0.5,0.1,1.1,0.4,1.5c0.3,0.4,0.8,0.7,1.4,0.8l9,0.9L139,446c-0.2,1.1,0.6,2.1,1.7,2.3
			c0,0,0,0,0.1,0h0.3c1,0,1.9-0.8,2-1.8l0.9-6.8c0.1-0.5-0.1-1.1-0.4-1.5C143.2,437.9,142.7,437.6,142.1,437.6z"/>
		<path class="st1" d="M199.4,517.4c-4.7-2.4-10.1-3.1-15.2-1.9l-1.8-5.7c4.5-1.8,8.4-5,10.9-9.1c0.6-1,0.3-2.2-0.7-2.8
			c-1-0.6-2.2-0.3-2.8,0.7c-2,3.3-5.1,5.9-8.7,7.4l-1.7-5.4c-0.3-1.1-1.5-1.7-2.5-1.3c-1.1,0.3-1.7,1.5-1.3,2.5l1.7,5.3
			c-4.4,0.8-8.9-0.1-12.8-2.4c-1-0.6-2.2-0.3-2.8,0.7c-0.6,1-0.3,2.2,0.7,2.8c4.8,3,10.6,4,16.1,2.9l1.8,5.8
			c-4.9,2.1-8.8,5.7-11.2,10.4c-0.5,1-0.2,2.2,0.8,2.7c0,0,0,0,0.1,0c0.3,0.1,0.6,0.2,0.9,0.2c0.8,0,1.5-0.4,1.8-1.1
			c1.9-3.7,5-6.7,8.8-8.4l1.8,5.8c0.3,0.8,1.1,1.4,1.9,1.4c0.2,0,0.4,0,0.6-0.1c1.1-0.3,1.7-1.4,1.3-2.5c0,0,0,0,0-0.1l-1.8-5.8
			c4.1-0.8,8.4-0.3,12.1,1.7c1,0.5,2.2,0.1,2.7-0.9C200.8,519.1,200.4,517.9,199.4,517.4L199.4,517.4z"/>
		<path class="st1" d="M197.9,596.3c-4.5-3.9-12.8-2.1-13.7-1.9c-1.1,0.3-1.8,1.3-1.5,2.4c0.3,1.1,1.3,1.8,2.4,1.5
			c1.8-0.4,7.6-1.2,10.1,1c1,0.9,1.4,2.2,1.2,4.1c-0.1,0.7-0.5,1.4-1.1,1.8c-1.6,1.2-6.3,3.1-19.8,2c-8-0.6-15.1-2-15.1-2
			c-1.1-0.3-2.2,0.4-2.4,1.5c-0.2,0.7,0.1,1.5,0.7,2c0.3,0.3,0.7,0.5,1.1,0.6c0.1,0,7.2,1.2,14.9,3.5c13,3.8,16.8,7.1,17.9,8.8
			c0.5,0.6,0.6,1.4,0.4,2.1c-0.5,1.8-1.3,3-2.6,3.4c-3.1,1.2-8.1-1.5-9.8-2.6c-0.9-0.6-2.2-0.4-2.8,0.6c-0.6,0.9-0.4,2.2,0.6,2.8
			l0,0c1.4,0.9,2.9,1.6,4.4,2.3c1.9,0.8,3.8,1.2,5.9,1.3c1.1,0,2.2-0.2,3.2-0.6c2.6-1.1,4.4-3.4,5-6.2c0.4-1.8,0.1-3.8-1-5.3
			c-1.8-2.8-5.9-5.4-12.2-7.9c6.7-0.1,11.4-1.1,14.1-3.1c1.5-1.1,2.5-2.8,2.8-4.7C200.9,599.8,199.3,597.5,197.9,596.3z"/>
		<path class="st1" d="M134.6,694.5l17.8,0.4l0,0c1.1,0,2-0.9,2-2c0-1.1-0.9-2-2-2l-16-0.4c0.3-1,0.4-2,0.4-3
			c0-6.8-5.5-12.3-12.3-12.3c-6.8,0-12.3,5.5-12.3,12.3c0,6.8,5.5,12.3,12.3,12.3c0.4,0,0.9,0,1.3-0.1l1.2,16.2
			c0.1,1.1,0.9,1.9,2,1.9h0.1c1.1-0.1,2-1,1.9-2.1c0,0,0,0,0-0.1l-1.1-17.1C131.8,697.6,133.4,696.2,134.6,694.5z M124.6,695.7
			c-4.5,0-8.2-3.7-8.2-8.2c0-4.5,3.7-8.2,8.2-8.2c4.5,0,8.2,3.7,8.2,8.2c0,0,0,0,0,0C132.8,692,129.1,695.7,124.6,695.7
			C124.6,695.7,124.6,695.7,124.6,695.7L124.6,695.7z"/>
		<path class="st1" d="M64.6,753.1c-2.9-0.7-5.9-1-8.9-0.9l-4.5-21.5c2.5-1.3,4.9-2.9,7-4.8c0.8-0.8,0.9-2,0.1-2.9
			c-0.8-0.8-2-0.9-2.9-0.1c-11.4,10.3-28.3,7.6-28.5,7.6c-1.1-0.2-2.2,0.6-2.3,1.7c-0.2,1.1,0.6,2.2,1.7,2.3c2,0.3,4.1,0.5,6.1,0.4
			c0.8,0,1.7,0,2.6-0.1l4.4,21.7c-2.5,1.2-4.8,2.6-7,4.2c-0.9,0.6-1.1,1.9-0.5,2.8c0.4,0.6,1.1,0.9,1.7,0.8c0.4,0,0.9-0.2,1.2-0.4
			c0.1-0.1,13.8-10.5,28.7-6.8c1.1,0.3,2.2-0.4,2.5-1.5C66.4,754.5,65.7,753.3,64.6,753.1L64.6,753.1z M39.1,734.4
			c2.8-0.4,5.6-1.1,8.3-2.1l4.2,20.3c-2.9,0.5-5.7,1.2-8.4,2.3L39.1,734.4z"/>
		<path class="st1" d="M60.5,380.1c-2.9-0.8-5.4,0.3-7.7,2.1c0-2.7,0.2-5.7,0.4-8.3c0.5-6,0.8-9.9-1.5-11.5
			c-0.8-0.6-1.8-0.8-2.8-0.5c-1.5,0.4-3.7,1.7-7.9,8.6c0.1-3.5,0-6.9-0.5-8.2c-0.9-2.2-3.1-3.7-5.4-3.7v4.1l0,0
			c0.7,0,1.4,0.5,1.7,1.1c0.5,1.3,0.3,9-0.1,15.3c-0.2,1.1,0.6,2.1,1.7,2.3c0.9,0.1,1.8-0.4,2.2-1.3c0,0,1.7-3.5,3.9-7.1
			c2.7-4.5,4.3-6.2,5.1-6.8c0.1,2.5,0.1,4.9-0.2,7.4c-0.4,4-0.5,8-0.2,12.1l-0.3,0.3c-3.5,3.5-7,7-11.7,6.6
			c-1.1-0.1-2.1,0.7-2.2,1.8c-0.1,1.1,0.7,2.1,1.8,2.2l0,0c0.4,0,0.8,0.1,1.1,0c5.1,0,9.1-3.2,12.3-6.4c0.7,2,2.2,3.7,4.1,4.7
			c2.1,1,4.6,1.1,6.7,0.3c2-0.7,3.6-2.1,4.5-4c1-2.3,0.9-4.9-0.1-7.2C64.4,382.1,62.6,380.7,60.5,380.1z M61.7,389.6
			c-0.5,0.9-1.2,1.5-2.2,1.8c-1.1,0.4-2.4,0.4-3.5-0.1c-1.4-0.7-2.2-2.3-2.7-4.3c2.5-2.3,4.3-3.6,6.1-3.1c1,0.2,1.8,0.9,2.2,1.8
			C62.1,387.1,62.2,388.4,61.7,389.6z"/>
	</g>
</g>
</svg>
