<svg id="Layer_1" data-name="Layer 1" xmlns="http://www.w3.org/2000/svg" xmlns:xlink="http://www.w3.org/1999/xlink" viewBox="0 0 560 1080"><defs><style>.cls-1{fill:none;}.cls-2{clip-path:url(#clip-path);}.cls-3{fill:#d7871a;}</style><clipPath id="clip-path"><rect class="cls-1" width="559.29" height="1080" transform="translate(559.29 1080) rotate(-180)"/></clipPath></defs><title>accent</title><g class="cls-2"><path class="cls-3" d="M261.6,485c17.5-3.91,12.14-25.16-3.05-28.48,10.11-9.82-4.58-31-17.88-19-.63-6.88-3.8-12.66-10.9-13.2-17.31-1.31-13.86,19.26-5.52,18.28,13.82,5.72,24.36,14.12,25.88,29.61,2,21.39-20.74,37.42-40.32,29.8-19.56,9.55,5.41,33.66,13.52,16.52,10.32,12.48,24.13,3,20.91-10.1C256.39,517.65,275.81,498.42,261.6,485Z"/><path class="cls-3" d="M422.71,262.61c-.88,9.23,5,19,15.93,24.53s22.78-5.42,23.65-14.66-4.58-18.59-16.46-21.6C433.33,247.72,423.58,253.36,422.71,262.61Zm11.75-10.45a1,1,0,1,1,.28,1.92,1,1,0,1,1-.28-1.92Zm-.12,6.46c1.13-.17,2.12.21,2.21.84s-.75,1.27-1.89,1.43-2.12-.21-2.21-.84S433.2,258.78,434.34,258.62Zm-8.62,1.54c-.07-.46.38-.9,1-1a1,1,0,0,1,1.22.67c.07.47-1.33,4.69-1.93,4.78S425.78,260.63,425.72,260.16Zm1.59,14c-.84.11-1.65-.77-1.83-2s.37-2.29,1.2-2.41,3.67-.13,3.85,1.08S428.14,274.08,427.31,274.2Zm3.32-5.79c-.81.11-1.59-.77-1.77-2s.34-2.28,1.14-2.39,3-1.65,3.13-.45S431.44,268.29,430.63,268.41Zm1.92,5.94c-.07-.49.49-3.83,1.55-4s2.19,2.94,2.26,3.44-.73,1-1.78,1.15S432.62,274.84,432.55,274.35Zm3,5.95a1.53,1.53,0,0,1-1.87-1c-.1-.68.58-1.35,1.52-1.48s1.78.31,1.87,1S436.49,280.17,435.55,280.3ZM436.93,270c-.6.09-1.22-.75-1.39-1.87s.21-2.1.81-2.19,1.22.75,1.39,1.88S437.53,269.88,436.93,270Zm1.73,4.26c-.06-.4,1.21-3.36,2.44-3.54s1.95,2.5,2,2.9-.89.86-2.12,1S438.71,274.61,438.66,274.22Zm5.91,7.7c.14,1-.81,1.9-2.11,2.08a2.26,2.26,0,0,1-2.6-1.41c-.67-2.11,2.93-3.74,4.24-3.93S444.43,281,444.57,281.92Zm3.92,3.43c-.57.08,1.81-3.27,1.67-4.23s.21-1.82.78-1.9,3.22,2.13,3.36,3.09S449.06,285.26,448.49,285.35ZM459,273.24a1.05,1.05,0,0,1-.67,1.29c-.47.06-.93-.4-1-1s.22-1.22.68-1.28S458.88,272.59,459,273.24ZM456.65,263c.47-.06,1,.79,1.13,1.91s-.09,2.08-.55,2.15-1-.78-1.14-1.91S456.18,263.07,456.65,263Zm-1.14,9.54c-.55,1.18-.34,2.44-1.17,2.55s-1.66-.83-1.85-2.12-2.57-3.55-1.73-3.67S456.76,269.85,455.51,272.54Zm-3.43-11.65c.79-.11.48,1.76.61,2.68a1.57,1.57,0,0,1-1.21,1.86c-.79.11-4-2.95-4.11-3.87S451.29,261,452.08,260.89Zm-3.48-6.55c.66-.1,1.34.76,1.51,1.92s-.25,2.17-.91,2.27-2.76-3.4-2.92-4.56S447.94,254.43,448.6,254.34Zm-2.23,17.13a1.85,1.85,0,1,1-1.14,2A1.63,1.63,0,0,1,446.37,271.47Zm-.86-7c.21,1.43-2.1,2.91-3.26,3.07a2.67,2.67,0,0,1-.74-5.17C442.67,262.24,445.31,263.07,445.51,264.5Zm-3.11-9.28a1.69,1.69,0,0,1,.47,3.34c-.89.13-3.64-1-3.77-1.88S441.5,255.35,442.4,255.22Z"/><path class="cls-3" d="M578.69,401.35c1.38,1.38,3.39.75,3.12-1.07-2.71-17.49,4.38-32.47,9.73-41.38,6.84-11.45,12.27-24.57,10.37-38-3.33-23.51-13.13-41.42-33.53-62.29,8.36,14.19,14.06,31.16,13,46.66-1.72,25.73-18,54.75-6,79.9-14.07-26.47,4.87-55,2.18-82.38-1.27-13-5.94-24.4-11.33-36.14-1.44-2.41-2.86-4.78-4.35-7.09,9.78,26.91,3.15,51.8.72,64.37C558.5,345.28,554.91,377.44,578.69,401.35Z"/><path class="cls-3" d="M551.3,289.13c1.64-12.25,3.51-25.26.56-37.46a27,27,0,0,0-3.17-7.84c2.88,16.78-3.39,30.09-7,43.32-3.49,12.81-8.44,25.16-10.93,38.3-5.17,27.29,19.3,56.7,21,59.79a1.67,1.67,0,0,0,3-1.5c-7.59-19.81-6.51-30-3-40.92,3.87-12.11,7.38-24.28,9.07-36.9a118.91,118.91,0,0,0-2-41.78c-.51,11.29-3.41,23-5.1,32.09-4.9,20.22-11.38,39.24-10.61,60.3C541,333.26,548.25,311.94,551.3,289.13Z"/><path class="cls-3" d="M419.8,212.48c-11.81-9.24-24.61-7.75-38.12-10.76a207.22,207.22,0,0,1,4.23,29.12c.61,7.31,1.72,16.7,7.3,21.18,3.45,3.8,22.16,9.41,26.26,11,.32-2.69-.43-2.78,1.3-5.39-10.9-.83-17.12-16-24-23.11,6.48,5.54,15.12,16.84,24.71,17.45a75.48,75.48,0,0,1-12-12.84c-3-4.44-5-9.61-8.07-14-1.11-1.73-7-7.5-7.15-8.33,0,.15,5.93,5.4,6.63,6.35,3,4,6.66,7.43,9.65,11.43,2.54,3.22,10.38,8.7,16.21,14.81-2.91-6.32-3.69-10-6.66-15.47-2.64-5.95-8.49-11.18-12.09-16.57,4.1,5.14,11.47,8.08,14.64,13.86a134.61,134.61,0,0,1,9,16.25c3.78-2.35,5.29-1.86,9.68-1.6C439.63,232.84,429.57,220.12,419.8,212.48Z"/><path class="cls-3" d="M419.47,267.55c-.05-.42-.12-.84-.15-1.27-1.84-.71-3.56-1.44-5-2-4.64-1.89-20.66-10.52-28.2-10.05-16.52,1-22.35,14.66-34.51,22,6,1.5,10.83,5.21,15.8,9.34,11,9.23,22.63,13.18,35.7,4.48A74.81,74.81,0,0,1,422,275.41c-.29-.55-.54-1.11-.78-1.67-7.66,5.2-16.24,7.24-25.51,7.84,7.47-1.37,14.51-3.62,20.57-7.88-15.65,3.9-31.7,5.55-47.82,2.53,16.48,2,32.52-.69,48-5.71a75.89,75.89,0,0,1-24.83-5.38C402.06,267.9,409.26,268.19,419.47,267.55Z"/><path class="cls-3" d="M529.91,288.6c-7.68-6.93-11.57-15.83-18.74-23.34-9.42-10-21.34-14.24-34.74-10.2h-.1a53.63,53.63,0,0,1-12.23,7.33c.75,2,1.07,2,1.2,4.11,11.46,2.31,24.64,0,35.55,5.09-7.68-2.74-16-1.1-24.19-.12,3.41.64,8.83.28,12,1.61,8.09,3.37,17.59,10.78,26.25,12.69a156.07,156.07,0,0,1-26.25-7.45c-7-2.06-12.08-3.63-19.27-3.79,8.83,4.19,15.09,10.82,23.38,15.76-9-4.2-14.68-4.93-28.63-12.49-.12.35-.23.7-.37,1-.64,1.44-1.07.79-2,2.17C493.93,314.41,513.16,295.84,529.91,288.6Z"/><path class="cls-3" d="M318.51,334.79c-17.94-1.32-26.3,15.55-28.81,30.8a47.19,47.19,0,0,0,1.93,23c3.27,9.59,9.18,17.85,9.32,28.37,0,1.78,2.53,2.64,3.21.76,4.09-11.27,13.46-16.9,20-26.22,4.54-6.36,7.4-14,9.36-21.51,3.21-12.31,3.2-27.59-7.5-36.17,3.27-3.28,6.93-6.55,10.81-7.75,3.1-1,7.06-.75,10.29-1.34,1.82-.32,6.68-.49,8-1.76a39.69,39.69,0,0,0-6.72,9.24c-6.5,11.7-7.61,27.56-2.58,40,7.71,19,30.26,17.35,46.67,22.07,1.08.31,2.6-.51,2.22-1.83-3.69-13.57-2.56-28.38-10-40.75-7.7-12.82-21.73-11.41-34.55-13.57a25.48,25.48,0,0,1,7.06-12.53c3.31-3.18,7.57-4.67,11.21-7.25s8.29-4.17,12.07-6.9a62.81,62.81,0,0,0,11.07-10.23c1.37-1.65-1.31-3.59-2.72-2-11.27,13.39-26.93,19.87-43.59,22.49-6.54-2.37-11.7-7.53-15-13.65-2.54-13.21,2.66-26.44-3.51-39.1-6-12.36-23.43-16.5-35.27-19.82a1.66,1.66,0,0,0-2.09,2.23c3.55,8.19,2.61,16.87,3.84,25.53a34.47,34.47,0,0,0,7.5,16.47c7.81,9.8,20.76,14.54,30.3,22.32a2,2,0,0,0,.6.3,30.76,30.76,0,0,0,7.37,6.39c-1-.61-5.81,1-7,1.07a65.67,65.67,0,0,1-8.18.17c-5.47-.19-10.92-.86-16.36-1.44-5.53-6-12.81-10.12-19.7-14.41-8.22-5.07-16.4-10-25.83-12.43-17.29-4.45-34.71,5.64-50.85,10.17a1.68,1.68,0,0,0-.28,3.2c17.31,8,30.78,21.71,49.83,26,15.78,3.56,31.65-1.67,45.36-9.32a173.74,173.74,0,0,0,23.6,1.05c-3.59,2.69-6.83,6.2-9.86,9.11A1.51,1.51,0,0,0,318.51,334.79Zm-14.32,71.43c.92-20.84,5.29-43.18,14.18-62.05C314.51,364.92,310.57,386.1,304.19,406.22Zm58.2-43.28c4,3.91,8.94,6.71,13.1,10.44,3.13,3.17,4.79,6.9,7.23,10.55-2.58-2.07-4.36-5.71-7.23-7.37-5-4-11-6.78-15.55-11.44-5.11-5.27-12.27-14.07-10.25-22C350,350.64,357.27,357.94,362.39,362.94ZM325,306.48c-10.17-2.53-11.86-20-14.68-28.45-1.88-7.45-7.63-18-11.44-22a.38.38,0,0,1-.34-.31c.09.09.12.12.07.05,8.65,5.64,12.63,14.35,15.66,24,2.61,8.28,2.79,22.68,11.45,27A2.92,2.92,0,0,1,325,306.48ZM267.4,323.32a105.07,105.07,0,0,1-22.86-5.41c-1-.37-13.22-5-15.63-5.4-.15,0-.3,0-.44,0s.18-.07.44,0c10.39-1.2,22,5,32.14,6.55,13.25,2,26.66,2.69,39.91,4.72A190.94,190.94,0,0,1,267.4,323.32Z"/><path class="cls-3" d="M450.07,227.5a25.37,25.37,0,0,0-3.74,10.06c-.27,2.13-.39,4.28-.6,6.41-.13,1.35-.44,1.95.57,2.74.14.11,3.94.76,3.69,1.11,5.41-7.61,9.33-15.12,14.23-22.89-3.88,7.83-4.91,16.53-8.6,24.52,4.81-2.65,8.78-12.13,11.87-15.54,5.92-6.55,13.43-11.61,20.52-16.8-6.17,5.12-12.49,10.15-17.86,16.14-3.23,3.51-5.16,7.8-7.62,11.83-1.49,2.44-2.84,6.19-4.56,8.39.06.06.12.1.17.16,8.61-6.61,14.53-16.79,24.74-21-9.61,5.11-14.14,16.63-21.9,24,1.46,1.58.71.83,1.74,2.72,3.94-1.6,17.79-5,28.35-23.72,6-10.68,9-20.7,9.55-32.47-10.71,5.3-23,5.24-33.84,10.28C460.05,216.6,454,221.07,450.07,227.5Z"/><path class="cls-3" d="M156.78,952c-3.54.29-7.22,1.13-10,3.49-2.59,2.24-2.58,6.18-5.55,8.14a.74.74,0,0,0,.76,1.28c8-4,15.81,2.6,23.87,2.87s13-8,20.9-8.73c10.2,4,21.51,2.25,31.67-1.71a50.15,50.15,0,0,0-5.53,9.89c-5.52,12.92-1.22,29.71,8.77,39.19,1.42,1.36,3.75-.64,2.3-2-3.18-3.09-5.93-7.94-7.78-11.93a31.71,31.71,0,0,1-2.78-11.85c-.18-7.11,2.91-14.41,6.81-20.26,3.69-5.55,6.89-7.69,20.57-14-3.55,2.39-16.15,10-17.34,11.26a28.14,28.14,0,0,0-5.07,8.22c11.44-7.46,29.76-19.2,41-26.91,9.25-6.33,19.87-13.46,24.53-24,.79-1.83-2.12-2.77-2.91-1a37.27,37.27,0,0,1-6.77,10c-4.78,5.08-10.6,10-17,12.82-6,2.64-12.56,3.4-18.6,5.87a51.86,51.86,0,0,0-15,9.11c-16,8-35.22,10-48.43-4.36a28.92,28.92,0,0,1-7.68-19.94,1.45,1.45,0,0,0,.16-1.05c-.05-.19-.07-.4-.11-.61a25.45,25.45,0,0,1,10.73-19.11c8.81-6.27,23.1-6,25.84,6.29,1.58,7.17-1.51,13.62-7.22,17.73-2.31,1.66-5.27,2.89-8.14,2.29-3.81-.78-3.61-7.25-1.89-9.38.85-1.08,2.42-2.08,2.94-2.72-1.21,1.48.9,3.61,2.12,2.12,4-4.82-3.47-4.82-6.29-2.3-5,4.39-3.6,13.95,3.36,15.37,6.62,1.36,15.25-5.93,17.13-11.86,2.65-8.28,1.29-18.05-6.66-22.69-12.84-7.52-26.69,2.42-32.41,14.82,0-2,0-4-.17-6a114.1,114.1,0,0,0-2-13.11l-.18-.78c-.44-6.66,5.81-11.79,6.64-18.67,1-8.07-4.8-13.63-4.72-21.24,0-1.22-1.7-2.11-2.55-1.07-4.51,5.62-8.11,12.3-7.1,19.77.09.74.2,1.6.29,2.52a46.9,46.9,0,0,0-2.85-4.15c-8.88-11.47-25.34-9.71-33.33,1.64-5.2,7.38-4.39,25,7.2,25.8,3.84.26,9.11-1.19,10-5.68.63-3.21-.07-8.88-4.69-8.54-1.19.09-2.11,1.61-1.06,2.54a16.67,16.67,0,0,0,1.3,1.09l.28.18c2.16,3.42,1.44,5.83-2.22,7.2-2.18.84-4.69.12-6.65-.9-4.87-2.54-4.6-11.42-3.58-15.73,2.92-12.41,18.83-15.82,27.93-8.33,6.53,5.36,9.69,14.52,11.79,22.63a22.29,22.29,0,0,0,.83,4,1.29,1.29,0,0,0,.17.33,120.14,120.14,0,0,1,2,15.7c.26,3.32-.21,6.45.14,9.71a22.59,22.59,0,0,0,0,5.33,35.82,35.82,0,0,0,14.94,24.47C172.08,953.16,164.4,951.37,156.78,952Z"/><path class="cls-3" d="M99.18,350.34c-13.23,4.49-29.45,3.42-48-1.23,4.51,4.27,22.48,11.45,30.92,21.62C92.37,368.38,105.63,357.59,99.18,350.34Z"/><path class="cls-3" d="M128.36,390.24c-7.06-13.41-2-23.88-26.09-37,.85,9.46-7.25,17.67-17.13,18.8,4.42,20.6,25.57,18.95,41.76,20.38A1.52,1.52,0,0,0,128.36,390.24Z"/><path class="cls-3" d="M66.54,739a143.28,143.28,0,0,1-29.21-3.85c15.41,8,32.3,14.06,46.55,14.09,12.86,0,27.39-2.11,37.13-11.07,11.48-10.57,16.87-24.95,21.54-39.52.46-1.46-1.34-2.44-2.53-1.76-20.34,11.88-41,24-64.12,29.62a80.25,80.25,0,0,1-37.46-.09c-12.52-3-23.44-8.81-35.09-13.25C22.69,725.83,48,734.06,64.14,735.79c16.84,2.14,39-.8,52.67-11.73C104.13,735.3,83,739.35,66.54,739Z"/><path class="cls-3" d="M132.52,785.94c.85-.47.65-1,.32-1.68-13.54-29.09-33.7-33.87-74.71-32.36C98.65,768.31,110.92,797.72,132.52,785.94Z"/><path class="cls-3" d="M41.68,847.34c5.53-16.87,29.43-12.41-7.42-77.82C39.85,800.25,14,823,41.68,847.34Z"/><path class="cls-3" d="M115.72,860.29c1.08,1.46,2.81-1,2.18-2.36-4.74-9.7,5.4-64-39-87.51-8.19-4.33-38.6-27.13-56.08-39.21,8.06,21.26,27.84,55.82,30.46,62.15C85.07,870.12,101.76,841.43,115.72,860.29Z"/><path class="cls-3" d="M665,226.67c13.25-15.41,24.42-33.9,30.85-53.24.39-1.2.76-2.41,1.1-3.62h0c5-17.64,4.11-36.13,1.2-54.1a1.67,1.67,0,0,0-3.2-.21c-2.69,9.84-7.2,17.83-14.83,24.69-6.79,6.1-14.69,10.9-21.61,16.9a52.69,52.69,0,0,0-10.6,12.72c-4.42,7.24-7.49,15.36-10.22,23.45-4.94,14.52-9.86,27.11-22.14,37.23-12.86,10.62-45.29,9-65.17,6.39,19.49,17.71,58.61,17,80.17-.2,21.44-15.88,30.76-42.49,38.67-66.87l.08-.26c0,.09,0,.17-.07.26-7.07,25.18-15.61,52.44-36.87,69.47-15.08,12.91-36.72,16.85-56.3,12.85,18.76,9.8,37.23,18.19,59.76,14.82,14-2.08,28.08-6.44,40.3-13.56,12-7,22.29-15.92,34.93-22-11.42,6.1-20.78,14.08-31.24,21.58-12.38,8.47-26.3,13.34-40.78,16.86-25.77,5.5-46.67-3.38-68.75-13.77C599.53,279.82,629,285.19,657.84,282c16.24-1.82,33.11-10.68,46.44-20.4C719.7,250.33,728.4,232,734.61,214.5a1.69,1.69,0,0,0-1.92-2.16c-17.29,4-34.64-.93-50.9,7.95-6.46,3.53-12,9.66-17.52,14.43a58.51,58.51,0,0,1-20.22,11.91A132.07,132.07,0,0,0,665,226.67Z"/><path class="cls-3" d="M506.59,573.37c13.27,1,24.63-5.26,34.85-13,1.82-1.37,16.92-14.54,18.6-13.26A25.49,25.49,0,0,1,557,544a33.11,33.11,0,0,1-16.73,9c-6.13,1.41-12.46,1.77-18.7,2.43-.87.1-13.44,2.52-14.39,3.72.62-2,23.83-8.16,25.52-8.61,8.07-2.19,16.05-5.6,20.34-13.22-.2-.53-.45-1.06-.62-1.61-20.25-.89-39.31,1.66-55.51,15.93-3.07,2.69-8.82,8-6.58,12.71C492.85,569.78,501,573,506.59,573.37Z"/><path class="cls-3" d="M783,642.69c-16.22-9.42-32.27-25.22-52.25-25.22-10.91,0-21.14,3-31.46,6.25-8.66,2.7-17.72,5.17-25.39,10.1-6.05-.9-12.14-1.68-18.12-3a74.92,74.92,0,0,1-8.82-2.47c-1.29-.46-6.09-3.51-7.33-3.14a33.71,33.71,0,0,0,9.77-4.86,1.72,1.72,0,0,0,.74-.15c12.51-5.77,27.86-7.27,39.08-15.71a38.64,38.64,0,0,0,12.73-15.75c3.75-9,5.16-18.71,11.29-26.59a1.86,1.86,0,0,0-1.63-3c-13.77.28-33.78-.09-43.77,11.62-10.22,12-8.29,27.78-14.73,41.38-5.26,5.71-12.29,9.87-20,10.61-17.32-7.5-31.7-20-40.28-37.63-2.53-5.16-4.93-7.43-4.13,2.19,0,3.85-.13,7.71-.32,11.56-1.11,3-2.62,6-3.87,8.86-2.16,5-4.51,9.91-6.92,14.79a331.48,331.48,0,0,1-16.94,29.94c-9.93,15.75-23.64,33.34-43.61,35.17-16.32,1.5-28.44-13-24.08-28.76,2.3-8.26,10.45-13.44,18.67-14A15.25,15.25,0,0,1,523,649c2.37,2.27,2.12,5.42,1.38,8.24a14.2,14.2,0,0,1-4.72,6.7q-6.78-.06-2-2c1.89.31,2.7-2.56.8-2.88-5.9-1-8.6,6-2.57,8,8.22,2.63,14.61-11.32,11-17.62-5.21-9-17-8.69-25.38-4.88-9,4.09-13.15,14-12.44,23.35.66,8.89,6.67,17.73,15.13,20.88,12.35,4.59,26.05.31,36-7.68,12.66-10.18,21.42-24.1,29.58-37.93,5.53-9.39,10.47-19.11,15-29,.87-1.88,1.86-3.84,2.84-5.85A282.61,282.61,0,0,1,583,639.85c1.72-1.73,3.54-2,5.53-2.56,2.89-13.79,5.08-30.49,4.51-44.11,1.64,2.61,9.66,13.77,15.88,19.39,3.7,3.35,7.41,6.62,10.11,11a28.36,28.36,0,0,1,4.15,15.54c0-.94-22.45-2.33-24.63-2.16-24.69,2-28.94,31.12-38.87,48.56-.72,1.2.39,2.39,1.55,2.57a1.33,1.33,0,0,1,1.16-.34c17.89,2.39,43.66,6.1,55.93-10.5,8.93-12.06,12.14-29.56,8.38-44a45,45,0,0,0-4.7-11.9c1.09,1.76,6.31,3.3,8.18,4.16,3.34,1.53,7.69,2.41,10.78,4.32,3.87,2.39,6.92,7,9.55,11.43-14,6.31-18.28,22.85-18.25,37.09,0,8.7,1,17.77,4.14,25.92,4.54,11.95,13.12,20.67,14.4,34,.21,2.23,3.18,2,3.68.08,3.09-11.36,11.81-18.66,18-28.16A52.69,52.69,0,0,0,681,685.8c1.55-17.22-2.79-37.85-22.6-41.43a1.71,1.71,0,0,0-1.56.51c-2.46-4-5-8.71-8.14-12.64a194.6,194.6,0,0,0,25.87,5.48C687.28,649.84,703,660,721.1,660.5c21.85.66,40.26-10.41,61.27-14.26A1.88,1.88,0,0,0,783,642.69ZM678.4,585.88c6-9.58,12.72-17.9,23.67-21.59-.07.05,0,0,.09,0a.43.43,0,0,1-.45.24c-5.26,3.32-14.44,13.13-18.56,20.68C677.73,593.56,671,612,659.3,611.88a3.35,3.35,0,0,1-.84,0C669,609.68,673.26,594.13,678.4,585.88ZM605,665.65c-6.19,3.79-13.47,5.11-20,8.05-3.56,1-6.52,4.45-9.9,6,3.68-3.27,6.52-6.85,10.79-9.41,5.55-2.89,11.69-4.53,17.12-7.65,6.94-4,16.82-9.88,19.3-17.91C622.24,653.84,612,661.37,605,665.65Zm50.9-11.08c4.37,22.94,2.85,48.36-2,71.19C652.63,702.19,654.29,678.13,655.9,654.57Zm105.8-9.3c-2.72-.25-17.25,1.38-18.46,1.49a117.18,117.18,0,0,1-26.27-.53,213.29,213.29,0,0,1-36.5-8.88c14.92,1.51,29.63,4.54,44.56,6,11.47,1.14,25.74-2.33,36.67,1.88.29,0,.5.08.47.16S761.85,645.33,761.7,645.27Z"/><path class="cls-3" d="M441.07,801.21a133.7,133.7,0,0,1,7.51,17c4-2,5.44-1.39,9.79-.74-.5-13.17-9.39-26.74-18.43-35.22-10.94-10.26-23.82-9.92-37-14.12a208.46,208.46,0,0,1,1.62,29.38c-.05,7.34.21,16.79,5.38,21.75,3.09,4.09,21.22,11.35,25.16,13.34.56-2.65-.18-2.81,1.78-5.24-10.78-1.8-15.62-17.51-21.84-25.17,6,6.1,13.56,18.13,23.06,19.59a76.09,76.09,0,0,1-10.83-13.86c-2.62-4.69-4.1-10-6.79-14.65-1-1.83-6.33-8.11-6.38-8.94,0,.15,5.42,5.9,6,6.91,2.62,4.26,6,8,8.59,12.25,2.25,3.44,9.57,9.6,14.83,16.2-2.34-6.55-2.79-10.27-5.25-16-2.1-6.15-7.46-11.89-10.56-17.57C431.35,791.58,438.43,795.16,441.07,801.21Z"/><path class="cls-3" d="M576.16,605.76a49.25,49.25,0,0,0,9.55-27c.35-10-5.13-18.63-5.86-28.43-.67.31-1.36.59-2.06.84,3,13-.51,24.17-3.71,37.07.51-10.56,1.57-19.6-1-29a65.62,65.62,0,0,1-8.56,24.06c-3.46,5.26-21.18,26.26-21.16,26.26-.9-.31,17.06-26.44,17.87-28a61.58,61.58,0,0,0,4.94-17.39c-4.77,9.5-13.16,18.2-20.53,23.52,8.22-8.31,19.12-24.5,17.14-37.07l-.77-.31c-13.4,7.86-25.46,21.84-27.79,36.35-2,12.5-.74,25.36-1,38C547.94,618.73,565.56,619.48,576.16,605.76Z"/><path class="cls-3" d="M477,829.91c1.31,1.7.64.89,1.49,2.86,4.07-1.24,18.17-3.42,30.35-21.1,7-10.1,10.86-19.81,12.41-31.49-11.14,4.32-23.37,3.17-34.62,7.23-7,2.52-13.46,6.43-17.9,12.48a25.51,25.51,0,0,0-4.62,9.7c-.46,2.09-.77,4.22-1.16,6.32-.26,1.34-.61,1.9.32,2.78.13.12,3.85,1.11,3.57,1.44,6.07-7.1,10.65-14.22,16.22-21.53-4.56,7.45-6.36,16-10.75,23.66,5-2.22,9.82-11.31,13.19-14.42,6.5-6,14.43-10.38,21.95-14.91-6.6,4.55-13.35,9-19.22,14.48-3.54,3.21-5.85,7.31-8.65,11.11-1.7,2.3-3.39,5.91-5.29,8,.05.06.11.11.15.17,9.16-5.82,16-15.43,26.51-18.68C490.94,812.19,485.4,823.26,477,829.91Z"/><path class="cls-3" d="M542.82,867.88c-7-7.6-10.12-16.8-16.59-24.93-8.49-10.75-20-16.08-33.69-13.25h-.1a53.9,53.9,0,0,1-12.84,6.21c.57,2.07.89,2.08.84,4.2,11.21,3.33,24.53,2.21,34.94,8.24-7.4-3.42-15.83-2.52-24.08-2.27,3.34.93,8.78,1.06,11.84,2.67,7.76,4.07,16.57,12.3,25,15A156.74,156.74,0,0,1,502.67,854c-6.77-2.67-11.7-4.7-18.85-5.5,8.43,5,14.07,12.13,21.88,17.79-8.61-5-14.18-6.23-27.4-15-.14.34-.29.68-.46,1-.77,1.37-1.13.69-2.14,2C504.68,890.37,525.49,873.59,542.82,867.88Z"/><path class="cls-3" d="M487.81,936.48c4-16.31,14.77-32.11,9.39-49.36-4-12.86-13.18-22.44-23.67-30.36-1.71,1.8-1.58,2.12-3.64,3.37,6.3,9,8.12,26.44,18.07,31.12-10.19-3.75-15.39-19-22.28-27.49,2.24,7.48,6.06,14.67,8.1,22.26,2.11,8.14,4.45,24.17,8.4,31.66-4.37-7.29-9.16-22.25-11.71-30.29-2.3-7.25-4.38-14.66-7.24-21.52,2.27,12.54.5,25.9,3.51,38.38-3.83-12.75-3-27.29-8.31-39.45-2.82.26-4.41-.87-7.13-2.46a1.62,1.62,0,0,1-.68-.2c-3.94,12.47.53,30.44,4.78,40.21C462,917.34,472.73,929.91,487.81,936.48Z"/><path class="cls-3" d="M477.44,844.36c.87-9.24-4.58-18.59-16.45-21.59-12.51-3.17-22.26,2.48-23.13,11.72s5,19,15.93,24.53S476.57,853.61,477.44,844.36Zm-17.72,9.44c.13,1-.81,1.9-2.11,2.08a2.27,2.27,0,0,1-2.61-1.41c-.66-2.1,2.95-3.74,4.25-3.93S459.58,852.84,459.72,853.8Zm3.92,3.43c-.57.08,1.81-3.26,1.67-4.23s.21-1.81.78-1.89,3.22,2.12,3.36,3.09S464.21,857.15,463.64,857.23Zm10.49-12.1c.09.64-.22,1.22-.68,1.28s-.92-.4-1-1,.21-1.22.69-1.28S474,844.48,474.13,845.13Zm-2.33-10.25c.47-.06,1,.8,1.14,1.92s-.09,2.08-.56,2.15-1-.79-1.14-1.91S471.33,835,471.8,834.88Zm-1.13,9.55c-.55,1.18-.35,2.43-1.18,2.55s-1.66-.83-1.85-2.12-2.57-3.55-1.73-3.67S471.92,841.73,470.67,844.43Zm-3.44-11.66c.8-.11.48,1.77.62,2.68a1.58,1.58,0,0,1-1.22,1.86c-.79.12-4-2.95-4.11-3.86S466.44,832.89,467.23,832.77Zm-3.48-6.55c.67-.09,1.34.77,1.51,1.92s-.25,2.18-.91,2.27-2.75-3.4-2.91-4.56S463.09,826.32,463.75,826.22Zm-2.22,17.13c.76-.11,1.5.6,1.64,1.58a1.45,1.45,0,1,1-1.64-1.58Zm-.87-7c.21,1.43-2.1,2.9-3.26,3.07a2.67,2.67,0,0,1-.74-5.17C457.82,834.12,460.45,835,460.66,836.39Zm-3.11-9.28a1.68,1.68,0,0,1,.48,3.33c-.9.13-3.64-1-3.78-1.88S456.66,827.24,457.55,827.11Zm-1.3,15.46c1.24-.18,1.95,2.49,2,2.9s-.89.86-2.12,1-2.27,0-2.33-.4S455,842.74,456.25,842.57ZM449.61,824a1,1,0,1,1-.88,1.11A1,1,0,0,1,449.61,824Zm-.12,6.46c1.13-.16,2.12.22,2.21.85s-.75,1.27-1.89,1.43-2.12-.22-2.21-.84S448.36,830.67,449.49,830.5Zm-8.62,1.55c-.06-.47.38-.91,1-1a1,1,0,0,1,1.21.68c.07.46-1.32,4.69-1.93,4.77S440.94,832.51,440.87,832.05Zm1.59,14c-.84.12-1.65-.77-1.82-2s.36-2.29,1.19-2.41,3.68-.14,3.85,1.07S443.29,846,442.46,846.08Zm3.32-5.79c-.81.11-1.59-.77-1.76-2s.33-2.27,1.13-2.39,3-1.65,3.13-.45S446.59,840.17,445.78,840.29Zm1.92,6c-.07-.5.5-3.84,1.55-4s2.19,3,2.26,3.44-.72,1-1.78,1.16S447.77,846.72,447.7,846.24Zm3,6c-.94.13-1.77-.31-1.87-1s.58-1.34,1.52-1.47a1.54,1.54,0,0,1,1.88,1C452.32,851.39,451.64,852.05,450.7,852.19Zm1.38-10.34c-.6.08-1.22-.75-1.39-1.88s.21-2.09.81-2.18,1.23.75,1.39,1.87S452.69,841.76,452.08,841.85Z"/><path class="cls-3" d="M416.37,858a74.42,74.42,0,0,1,20.15-12.89c-.24-.58-.44-1.16-.63-1.74-8.08,4.5-16.81,5.76-26.1,5.53,7.56-.69,14.77-2.3,21.19-6-15.93,2.49-32.07,2.7-47.85-1.75,16.23,3.47,32.44,2.22,48.36-1.4a75.76,75.76,0,0,1-24.25-7.57c10.08,3.68,17.23,4.6,27.46,4.88,0-.43-.05-.85,0-1.28-1.77-.88-3.42-1.75-4.83-2.48-4.46-2.3-19.64-12.32-27.2-12.53-16.54-.46-23.56,12.61-36.33,18.88,5.8,2,10.32,6.16,14.9,10.72C391.33,860.53,402.56,865.5,416.37,858Z"/><path class="cls-3" d="M547.35,482.8c-7.76-3.26-15.83-1.63-23.64.53-10.75,2.93-21.42,6.07-32.27,3.36,1.16.28,3.3,10,3.73,11.37a123.64,123.64,0,0,0,4.53,12.56c3.1,7.08,7.45,15.3,14.52,19.12,4.19,2.26,8.61,2.82,13.12,2.79,3.07,0,6.19-.32,9.28-.57,1.29-.1,14.79-1.55,15-.09a22.41,22.41,0,0,1-.17-2.33c-15.36,2.15-25.11-5.75-38.17-13.79,11.56,4.64,20.9,10.13,32.48,8.13-5.22-3-9.49-8.51-13.54-12.42-7.58-7.33-18.22-8.62-25.8-15.32,7.73,5.21,18,5.67,26.2,10.7,5.12,3.07,11.88,11.65,18.62,12a77.24,77.24,0,0,1-6.06-11.13c-2.25-6.3-7.56-9.26-13.23-12.1,8.88,2.23,14.36,5.79,19.08,13.54.15.25,5.09,5.47,5,4.79a1.3,1.3,0,0,1,0,.21,24.2,24.2,0,0,1,7.49-7.22C561.32,497.09,556.63,486.75,547.35,482.8Z"/><path class="cls-3" d="M555.3,531.53c.64,6.9,4,11.94,9.79,14.61,7.68,4.13,15.66,2.68,21.42-4.29,6.42-7.76,7.26-23.27-.63-29.66a18.15,18.15,0,0,0-7.94-3.42,4.48,4.48,0,0,1,2.21,2.79c.63,2,.2,3.92-1,4.29s-4.27-.81-4.91-2.8,1.39-4,2.58-4.4a1.22,1.22,0,0,1,.38,0,35.36,35.36,0,0,0-8.23-.37C558.86,509,554.35,521.61,555.3,531.53Zm27.13,7.9a2,2,0,1,1,1.18-2.47A1.93,1.93,0,0,1,582.43,539.43Zm5.2-11.25c.09.31-1,4-2,4.36s-1.74-2.82-1.83-3.12.68-.83,1.74-1.17S587.53,527.88,587.63,528.18Zm-4.86-8.49a2.51,2.51,0,1,1-1.16,3A2.27,2.27,0,0,1,582.77,519.69ZM580,528.81a1.08,1.08,0,0,1,1.26.82,1,1,0,1,1-1.26-.82ZM560.87,539.2a2.68,2.68,0,1,1,1.24-3.16A2.42,2.42,0,0,1,560.87,539.2Zm1.25-7.67c-.73.23-1.67-.63-2.09-1.92s-.15-2.53.58-2.77,3.3-.37,3.72.92S562.85,531.29,562.12,531.53Zm2.94,4.55c-.4-1.23-.32-2.34.17-2.51s1.2.72,1.6,1.93.32,2.34-.17,2.51S565.45,537.3,565.06,536.08Zm10.06,7.68a2,2,0,1,1,1.76-2.6A2.26,2.26,0,0,1,575.12,543.76Zm1.13-22c.74-.25,1.65.53,2,1.71s.1,2.35-.64,2.59-1.66-.53-2-1.72S575.51,522,576.25,521.8Zm2.39,12c.48,1.5-3.19,3.68-4.4,4.07a2.92,2.92,0,0,1-1.75-5.43C573.69,532.07,578.16,532.31,578.64,533.82Zm-8.06-18.6c1-.34,2.31.78,2.86,2.49s.17,3.36-.87,3.7-2.31-.78-2.86-2.5S569.54,515.55,570.58,515.22Zm-.47,11.14a2.07,2.07,0,1,1-1.17,2.55A2,2,0,0,1,570.11,526.36ZM568.91,542a1.63,1.63,0,1,1-2.08-1.15A1.68,1.68,0,0,1,568.91,542Zm-3.73-30.89a1.87,1.87,0,1,1-1.23,2.36A1.88,1.88,0,0,1,565.18,511.08Zm-.68,7.84c.28.87-.5,1.9-1.75,2.3s-2.48,0-2.76-.85.51-1.9,1.75-2.3S564.22,518.05,564.5,518.92Z"/><path class="cls-3" d="M326.21,603.93c-7.25,7.41-12,17.86-21.43,23.36-4.63,2.72-9.68,4.58-14.67,6.55a66.9,66.9,0,0,0-24.87,17.27c10.23-12.81,22.69-17.26,35.9-25.79,11.1-7.17,16-18.93,24.95-27.64-19.3,15-42.27,17.53-61.1,30.2-14.76,10-16.05,28.82-18.73,44.8a1.78,1.78,0,0,0,2.78,1.73C277.6,651.26,316.84,643,326.21,603.93Z"/><path class="cls-3" d="M447,859.41c-4.44,8.89-19.59,27.71-20.7,26.34.55.74,11.44-17,12.08-18.22s2.46-6.62,3.11-8.72c-8.15,10.24-22.69,21.46-31.25,30.5,8-9.71,18.3-19,25.6-29.88a95.3,95.3,0,0,1-24,16.05c7.59-4.26,12.94-11.9,19.52-17.58,2.19-1.88,5.58-5.66,8.34-6.86a16.51,16.51,0,0,1-1.74-2.87A71,71,0,0,0,419,860.11a1.66,1.66,0,0,1-.56.56s-.11,0-.14.07c-10.43,9.52-17.53,22.19-20.39,37.41,15.84-3,45.1,9.55,48.84-12.54A2.6,2.6,0,0,1,447,885c-1.44-8.35-1.72-17.41.89-24.81C447,859.41,447.86,860.25,447,859.41Z"/><path class="cls-3" d="M227.59,733.83c-.39-.9-1-2.42-1.61-4.28,2.42,15.29,1.59,34.55,19.13,39.2,11.4,3,20.95-.12,27.11-8.65s8.14-20.73,2.86-30.31c-3-5.39-8.55-8.58-14.23-10.48a41.1,41.1,0,0,0-12.23-2c-8.1,0-15.32,3.42-22.65-1.62a8.9,8.9,0,0,0-.95-1.85c1.91,18.29,14.3,31.64,23.12,33.42C238.68,752.39,230.53,741.5,227.59,733.83Z"/><path class="cls-3" d="M572,887.87a118.55,118.55,0,0,0,1.77-41.78c-1.51,11.2-5.44,22.61-7.94,31.5-6.68,19.71-14.84,38.08-15.94,59.12,0-23.36,9.11-44,14.18-66.4,2.72-12,5.74-24.85,3.89-37.26a27.11,27.11,0,0,0-2.45-8.09c1.37,17-6.07,29.66-10.85,42.52-4.61,12.45-10.65,24.3-14.3,37.17-7.58,26.72,14.16,58.2,15.55,61.43a1.68,1.68,0,0,0,3.11-1.24c-5.79-20.4-3.79-30.5.66-41C564.62,912.11,569.19,900.29,572,887.87Z"/><path class="cls-3" d="M234,783.5c2.47,16,19.17,15,23.13,2,5.68,14.2,32.2,7.63,26.89-11.19,17,5.6,23.31-15.39,12-26,13.71-3.26,12-29-5.61-25.52,3-6.23,3.23-12.82-2.58-16.92-14.2-10-21.78,9.44-14.12,12.88,8.94,12,13.7,24.6,7.06,38.69-9.2,19.41-37,21.51-49.89,4.93C209.13,760.57,218.22,794.07,234,783.5Z"/><path class="cls-3" d="M449.37,695.37c8.15-11.28,15.9-23.26,19.64-36.79,4.22-15.39,3.79-30.49,1.22-46.1-4.88-29.71-16.66-58-16.13-88.38-3.85,10.6-5.53,22.49-6.72,33.49-2.73,25.35.47,47.92,8,72.12-7.73-20.82-12.71-40.94-12.48-63.3.87-16.46,1.79-32.72,7.34-47.71C431.68,545,419,577.58,430.52,609.47c9.4,26.17,36.85,56,16.14,83.64C445.34,694.94,448,697.22,449.37,695.37Z"/><path class="cls-3" d="M423.76,699.13c-.05,1.83,2.55,3.06,3.36,1a76.84,76.84,0,0,0,4.89-32.9c-1.1-19.51-7.68-38.1-11.32-57.17-1.79-9.36-3.16-19-2.57-28.52a126.42,126.42,0,0,1,1.3-12.77c-6.41,10.72-11.2,22.25-12.37,35-1.66,18,2.35,33.32,9.09,49.87-7.95-16.35-12.94-31.76-12.44-50.16.47-17.37,16.07-47.46,16-47.38-32.22,28.31-36.56,59.63-32.08,76.05C394.59,657.76,424.82,670.77,423.76,699.13Z"/><path class="cls-3" d="M335,679.21c15.63-15.07,27-32.07,35.8-51.84,8.3-18.6,12.66-45.13,28.83-59,2.47-2.1,11.42-8.69,11.31-9.27-12.62,6.91-25.8,14.73-35,25.65-11.34,13.36-18.11,27.19-24,43.63,4.8-17.1,10.74-31.63,21.33-46,5.24-7.15,12-13.25,19.3-18.74-25.85,6.44-46.65,22.44-50.16,27.68-18.14,26.8-6.1,56.84-10.54,86.43A1.78,1.78,0,0,0,335,679.21Z"/><path class="cls-3" d="M357.11,894.7c3.51-3,7.86-4.15,11.66-6.5s8.55-3.61,12.5-6.08A62.94,62.94,0,0,0,393,872.63c1.47-1.55-1.07-3.67-2.58-2.13-12.13,12.61-28.19,18.06-45,19.57-6.37-2.8-11.19-8.29-14-14.61-1.67-13.34,4.39-26.2-.93-39.24-5.2-12.74-22.29-18-33.89-22.11a1.67,1.67,0,0,0-2.23,2.1c3,8.4,1.49,17,2.16,25.72a34.42,34.42,0,0,0,6.38,16.93c7.16,10.3,19.77,15.87,28.77,24.27a1.67,1.67,0,0,0,.59.33,30.08,30.08,0,0,0,6.93,6.86c-.95-.66-5.86.58-7.1.61a67.25,67.25,0,0,1-8.16-.37c-5.46-.55-10.85-1.58-16.24-2.51-5.12-6.32-12.12-10.95-18.71-15.67-7.86-5.62-15.7-11-25-14.11-16.95-5.58-35,3.35-51.4,6.8a1.68,1.68,0,0,0-.5,3.18c16.75,9.14,29.29,23.69,48,29.23,15.52,4.59,31.69.42,45.89-6.32a173,173,0,0,0,23.47,2.6c-3.75,2.46-7.23,5.74-10.44,8.44a1.48,1.48,0,0,0-1.17-.86c-17.82-2.5-27.27,13.79-30.78,28.84a47.23,47.23,0,0,0,.41,23.06c2.63,9.79,8,18.42,7.44,28.93-.11,1.78,2.35,2.79,3.14,1,4.82-11,14.55-16,21.74-24.84,4.95-6,8.31-13.48,10.75-20.84,4-12.09,5-27.33-5.1-36.59,3.48-3.05,7.35-6.09,11.29-7,3.17-.76,7.1-.29,10.37-.67,1.83-.2,6.7,0,8.1-1.22a40,40,0,0,0-7.31,8.77c-7.25,11.25-9.41,27-5.22,39.74,6.46,19.45,29.06,19.31,45.12,25.1,1.06.37,2.64-.34,2.34-1.68-2.79-13.79-.68-28.49-7.34-41.33-6.83-13.3-20.93-12.82-33.58-15.81A25.48,25.48,0,0,1,357.11,894.7Zm-30.95-21.18c-10-3.2-10.52-20.72-12.77-29.36-1.38-7.56-6.43-18.44-10-22.74a.36.36,0,0,1-.25-.27c8.26,6.2,11.66,15.15,14.05,25,2.06,8.43,1.29,22.81,9.65,27.66A3.42,3.42,0,0,1,326.16,873.52Zm-58.55,13a105.12,105.12,0,0,1-22.46-6.89c-1-.44-12.86-5.88-15.23-6.43h-.45c0-.08.19-.05.45,0,10.44-.51,21.59,6.42,31.64,8.66,13.08,2.91,26.42,4.44,39.51,7.33A189.44,189.44,0,0,1,267.61,886.52Zm31.25,85.14c2.29-20.72,8.12-42.72,18.24-61C311.88,931.13,306.55,952,298.86,971.66Zm60.92-39.34c3.75,4.16,8.49,7.28,12.39,11.28,2.92,3.37,4.32,7.19,6.53,11-2.45-2.23-4-6-6.74-7.82-4.76-4.34-10.57-7.49-14.75-12.45-4.76-5.59-11.33-14.84-8.79-22.6C348.27,919.23,355,927,359.78,932.32Z"/><path class="cls-3" d="M435.85,314.83a3,3,0,0,1,.17-.67c-2.18-8.19-3.26-17.18-1.32-24.79-1-.66,0,.1-1-.66-3.64,9.25-17.05,29.35-18.28,28.09.61.69,9.88-17.92,10.41-19.23s1.86-6.81,2.31-9C421,299.53,407.5,312,399.78,321.77c7.11-10.38,16.54-20.58,22.84-32a95.5,95.5,0,0,1-22.51,18.13c7.18-4.92,11.83-13,17.88-19.25,2-2.07,5.05-6.13,7.69-7.57a17.24,17.24,0,0,1-2-2.71,70.74,70.74,0,0,0-17.76,13.57,1.65,1.65,0,0,1-.52.61s-.1.05-.13.09c-9.54,10.4-15.48,23.66-17,39.07C403.83,327.31,434.09,337.17,435.85,314.83Z"/><path class="cls-3" d="M192.4,479.07c-.79-.57-2.07-1.59-3.57-2.85,9.92,11.89,19.07,28.85,36.51,23.86,11.34-3.24,17.94-10.84,18.85-21.32,1-10.66-3.62-22-13.06-27.49-5.32-3.11-11.75-3-17.6-1.72a41.43,41.43,0,0,0-11.5,4.59c-6.95,4.17-11.41,10.78-20.29,10.22a8.89,8.89,0,0,0-1.75-1.11c11,14.73,28.48,19.84,37,16.86C211.44,489.33,198.86,484.15,192.4,479.07Z"/><path class="cls-3" d="M310.63,1019.13a9,9,0,0,0-1.77,1.09c-8.88.49-13.27-6.18-20.19-10.4a41,41,0,0,0-11.46-4.7c-5.83-1.33-12.26-1.51-17.61,1.54-9.49,5.44-14.21,16.7-13.33,27.37.82,10.49,7.34,18.15,18.65,21.5,17.39,5.16,26.71-11.72,36.74-23.51-1.51,1.25-2.8,2.25-3.6,2.81-6.5,5-19.14,10.08-24.56.81C282,1038.71,299.48,1033.76,310.63,1019.13Z"/><path class="cls-3" d="M266.75,1073.93c7.95,17.22,33.15-6.66,13.68-16.39-19.65,7.43-42.28-8.82-40-30.18,1.66-15.49,12.29-23.78,26.16-29.37,8.33,1.06,12-19.48-5.35-18.34-7.1.49-10.32,6.23-11,13.11-13.18-12.12-28.08,9-18.06,18.86-15.22,3.18-20.78,24.37-3.33,28.45-14.33,13.31,4.9,32.73,17.14,23.56C242.6,1076.71,256.31,1086.3,266.75,1073.93Z"/><path class="cls-3" d="M438.26,291.24a1.43,1.43,0,0,1-.7-.13c-2.81,12.78,3.25,30.27,8.36,39.63,7.87,14.34,19.71,25.9,35.32,31.1,2.53-16.61,11.84-33.31,4.95-50-5.14-12.45-15.13-21.18-26.28-28.13-1.54,1.94-1.39,2.25-3.33,3.68,7.08,8.41,10.44,25.61,20.77,29.39-10.48-2.83-17-17.59-24.64-25.4,2.9,7.25,7.35,14.08,10.06,21.45,2.83,7.92,6.58,23.68,11.18,30.79-5-6.88-11.1-21.35-14.35-29.13-2.94-7-5.68-14.2-9.14-20.78,3.38,12.28,2.81,25.74,6.91,37.9-4.94-12.35-5.38-26.91-11.78-38.54C442.79,293.57,441.11,292.59,438.26,291.24Z"/><path class="cls-3" d="M309.58,494.83c3.28,10,7.09,20.72,14.45,28.5,10.11,10.67,24.66,14.45,38.9,15,8.58.33,30.64,1.47,41-5.18-10.25,3.14-21.61,1.45-32.22-3.79-18.37-8.23-28.85-25.69-41.68-40.21,11.82,11.69,21.74,25.68,36.7,33.61,11.26,6,24.45,8.94,35.59,4.54C394.52,525.39,384,519,379.64,516c-9.41-6.52-17.22-15.09-25.82-22.59-10.13-8.85-20.36-17.65-31.36-25.5-7.29-5.2-15.88-11.12-25.1-11.78-1.17-.09-2.66,1.06-1.95,2.37C301.56,470.05,305.49,482.43,309.58,494.83Z"/><path class="cls-3" d="M209.23,592.94c2.64,8.34,7.27,15.73,7.65,24.65a1.66,1.66,0,0,0,2.85,1.11c9.21-8.14,23.08-19.45,23.12-33.21,0-14.07-10.41-23.72-13.88-36.72.08-1.69,3.73-7.65,5.71-8.93a179.43,179.43,0,0,1,37.5-18.64c6.64-2.33,13.42-4.26,20.06-6.65,3.51-1.27,7.11-2.24,10.51-3.78,3-1.37,5.12-4.72,8.31-5.54-.17-.7-.85-2.87-1.76-3a80.45,80.45,0,0,1-9.5-2c-3.33-2.27-1.51-13.72-2.8-16.63-2.57-5.82-8.57-8.09-11.43-13.58a1.49,1.49,0,0,0-2.56,0c-3.17,6.16-4.2,12.88-1.65,19.45a14.68,14.68,0,0,0,4.65,5.92,185.92,185.92,0,0,1-17.4-8.72,1.48,1.48,0,0,0-1.5,2.56c12.3,6.92,25.31,13.07,39.32,15.47-12.44,7.51-26.63,9.62-39.83,15.32-13.68,5.92-27,12.61-39.25,21.11-.93.64-1.94,1.39-3,2.2-6.13,1.92-14.74,1.1-20,.68-9.6-.79-19-4.14-27.84-7.63-13.61-5.35-27.19-12.7-36-24.71-7.57-10.33-10.55-24.6-4.95-36.49,3.23-6.89,10.08-9.1,17.18-7.64a14.4,14.4,0,0,1,10.74,9.55,9.36,9.36,0,0,1-.9,6.62c0-.17-4.55,6.43-4.54,2.37a1.49,1.49,0,0,0-3,0c0,6.53,4.46,5.74,8.14,1.85,5.24-5.54,4-13.13-.84-18.4-5.32-5.84-14.77-6.77-21.69-3.82-7.36,3.14-10,12.38-10.84,19.54-1.84,15.74,7,29.08,18.62,38.71-3.69-.8-7.32-1.77-11-2.52-5.11-1-10.34-.52-15.5-.28-8.61.4-13.09,4.76-17.45,11.6a1.49,1.49,0,0,0,.88,2.19c9.13,1.71,16.57,8.11,26,4.82,10.36-3.62,15.89-14.67,28.14-8a1.31,1.31,0,0,0,.64.19l.73.42a130.13,130.13,0,0,0,37.78,13.79c5.41,1,13.22,2.07,20.24,1.3-6.57,5.27-13.1,10.83-13.2,10.32a69.21,69.21,0,0,0-43.7,2.91c-12.78,5.07-18.23,22.11-22.45,33.67a1.66,1.66,0,0,0,2.08,2.24c8.42-2.91,17-1.31,25.74-1.88a34.49,34.49,0,0,0,17-6.21,42.88,42.88,0,0,0,7.33-6.53c-3.25,6.72-11.74,28.34-14.28,32.2-2.05,3.14-4.17,6.24-6.32,9.31-4.27,6.08-8.9,12-12.35,18.64-7.67,14.7-6,31.73-.76,47,1,3,3,10.2,6.78,11.65a3.76,3.76,0,0,0,1.41.27c4.38-.06,8.13-8.44,10-11.44,7.43-12,18-24.81,18.77-39.45.45-8.76-1.82-17.48-3.37-26-.8-4.4-1.51-8.81-2-13.26-.92-8-1.41-12.59,1.66-20.27a112.56,112.56,0,0,1,11.7-21.75,95.41,95.41,0,0,1,19.61-20.42C217.4,557,211,565.22,208.8,574.85A34.27,34.27,0,0,0,209.23,592.94ZM182.89,648.3A104,104,0,0,1,176.82,671c-.4,1-5.42,13.08-5.87,15.47a3.23,3.23,0,0,1,0,.44s0-.18,0-.44c-.89-10.41,5.64-21.81,7.51-31.94,2.43-13.18,3.48-26.56,5.9-39.75A190.68,190.68,0,0,1,182.89,648.3Zm16.42-82.84c-3.3,10-20.82,10.3-29.49,12.47-7.57,1.32-18.51,6.25-22.84,9.74-.06.19-.17.3-.34.3,0,0,.06,0,.07-.08h0c6.29-8.17,15.26-11.47,25.08-13.76,8.45-2,22.81-1.06,27.75-9.36A2.92,2.92,0,0,1,199.31,565.46Zm25.56-12.92a3.11,3.11,0,0,1,.56-.5c-5.93,7.64.18,20.68,1.44,29.25,1.46,10,1.66,19.54-3.64,28.37a0,0,0,0,1,0,0v0s0,0,0,.07a.36.36,0,0,1,.16-.43c1.66-5.31,2.26-17.29.71-24.82C222.9,575.69,216.82,559.24,224.87,552.54Z"/><path class="cls-3" d="M160.24,431.09a69.09,69.09,0,0,0,43.16,7.34c.12-.37,3.67,3.22,8,7.58a26.12,26.12,0,0,1,3.55-.84,89.54,89.54,0,0,1-13.25-18,112,112,0,0,1-9.42-22.82c-2.28-7.95-1.32-12.46.41-20.33,1-4.38,2.13-8.69,3.37-13,2.42-8.34,5.57-16.79,6-25.55.76-14.63-8.49-28.46-14.66-41.15-1.54-3.18-4.42-11.9-8.76-12.4a3.71,3.71,0,0,0-1.45.12c-3.9,1.06-6.62,8.05-7.93,10.91-6.74,14.65-10.15,31.42-4,46.82,2.77,6.93,6.77,13.32,10.4,19.8,1.83,3.28,3.62,6.58,5.33,9.9,2.14,4.11,8.38,26.48,10.93,33.5a41.81,41.81,0,0,0-6.63-7.24A34.44,34.44,0,0,0,169,397.78c-8.62-1.45-17.33-.73-25.41-4.49a1.66,1.66,0,0,0-2.29,2C144.34,407.24,148,424.75,160.24,431.09Zm27.67-51.44c-1-13.36-.73-26.79-1.81-40.14-.84-10.26-6.16-22.26-4.22-32.53,0-.27,0-.46.06-.45s0,.29-.06.45c.21,2.42,4,14.93,4.27,16a104.68,104.68,0,0,1,3.73,23.19A189.83,189.83,0,0,1,187.91,379.65ZM148,402.81c4,3.92,14.33,9.94,21.73,12,8.39,3,25.79,5.17,28.07,15.41a2.87,2.87,0,0,1,.17.72c-4.07-8.76-18.45-9.32-26.66-12.14-9.54-3.28-18.14-7.49-23.56-16.27.06,0,0,0-.06-.07A.36.36,0,0,1,148,402.81Z"/><path class="cls-3" d="M154.14,788.62c1.73,4.13,3.26,8.33,4.72,12.56,2.83,8.21,5.13,16.93,9.81,24.34,7.8,12.4,23.33,18.39,35.68,25.2,3.09,1.71,10.46,7.18,14.31,5.1a3.69,3.69,0,0,0,1.1-.94c2.59-3.11.78-10.39.21-13.48-2.93-15.86-9.8-31.53-23.68-40.6-6.25-4.08-13.2-7-19.89-10.2-3.39-1.63-6.75-3.29-10.07-5-4.11-2.13-22.09-16.83-28.22-21.09a42.69,42.69,0,0,0,9.59,2.1,34.41,34.41,0,0,0,17.86-2.91c7.89-3.78,14.59-9.37,23.37-11a1.66,1.66,0,0,0,.71-3c-9.34-8-22.44-20.21-36.06-18.36a69.06,69.06,0,0,0-39.52,18.85c.11.38-4.85-.51-10.94-1.57a26.38,26.38,0,0,1-2.41,2.74,89.6,89.6,0,0,1,21.21,7.11,112.21,112.21,0,0,1,20.85,13.23C149.21,776.94,151,781.18,154.14,788.62Zm31,32.53c6.6,7.91,17.85,14.65,22.18,24.17.17.21.28.37.21.39s-.14-.25-.21-.39c-1.57-1.86-11.84-9.93-12.68-10.6a105.22,105.22,0,0,1-16.41-16.81,190,190,0,0,1-17.69-28.53C169.13,799.7,176.6,810.86,185.17,821.15Zm-61.79-67.44a2.62,2.62,0,0,1-.55-.49c8.37,4.82,20.44-3,28.78-5.43,9.69-2.81,19.14-4.32,28.62-.26a.34.34,0,0,1-.35-.09c-5.49-.91-17.44.14-24.68,2.71C146.59,752.5,131.14,760.77,123.38,753.71Z"/><path class="cls-3" d="M473.25,454.41c5.93,6,12,11.87,17.62,18.33,4.42,5.15,8.78,10.29,14.67,13.76,2,1.17,3.45-2.08,1.49-3.24a48.52,48.52,0,0,1-9.75-8c10.4,2,22-9.8,33.39-10.92a1.81,1.81,0,0,0,1-3.15c-6.74-6.94-15.73-13-25.86-10.62-8.3,1.95-10.54,9.25-14.26,15.7.23-.4-18.46-16.77-20.66-19.11-6.64-7.05-11-15.15-14.9-23.92-4.56-10.35-9.66-20.46-13.95-30.92-.74-1.81-1.47-3.66-2.17-5.54l1.26,1c4.84,14.94,12.9,29.58,26.88,37.7,16.89,9.82,36.07,9,54.21,14.87a1.68,1.68,0,0,0,2-2.54c-8.73-14.3-14.63-33.55-30.32-42.06-8.57-4.63-17.91-6.6-27.38-8.47-8-1.56-16.14-3.47-24.25-2.86-1.34.1-4.14-3.45-4.73-4.47-3.07-5.33-3.85-13.88-4.59-19.87a64.75,64.75,0,0,1,.84-22.21c.48-2.09-2.73-3-3.21-.89a58.77,58.77,0,0,0-1.35,14.61c.21,9.52.47,17.6-1.82,27-1.68,6.88-3.06,13.85-4.74,20.74l-.27-.1c-4.15-1.45-8.17,1.24-11,3.91-5.22,5-5.83,11.89-13.9,13.75a1.5,1.5,0,0,0-.66,2.49c6.15,5.25,11.93,4.49,17.94,1.69a20.49,20.49,0,0,1-8.49,8.44,12.74,12.74,0,0,1-6.9,1.44l-.53,0c0-.13,0-.24,0-.37a4.52,4.52,0,1,0-.46,1.95,26,26,0,0,0,5.45-.48c4.21-.95,8.66-4.4,11.24-8.43a161.88,161.88,0,0,1-14.34,29.33c-1.72,2.73-3.55,5.37-5.48,7.95a43.92,43.92,0,0,1-4.13,3.09c-6.5-11.25-10.09-24.89-24.8-27.61-14.21-2.68-27.69,3.56-41.69,4.85-1.37.1-1.6,1.81-.93,2.72,10.17,13.72,16.53,35.41,37,36a45.1,45.1,0,0,0,24-6.76c-.95,1-1.92,1.93-2.9,2.87a101.55,101.55,0,0,1-23.25,16.57c.61.5,1.23,1,1.86,1.51a5.11,5.11,0,0,1,.59.54,116.67,116.67,0,0,0,18.09-12.26c18.23-14.93,29.75-34,37.76-54.83a59.37,59.37,0,0,0,.73,13.32c.7,4.33,2.11,9.49,5.2,13a4.52,4.52,0,0,0-.3,1.61,4.79,4.79,0,1,0,1.07-3c-3.21-3.86-4.28-9.82-4.89-14.45a44.82,44.82,0,0,1,.79-17c.76,3.85,2.23,7.8,5.87,9.23a19.22,19.22,0,0,0,6.86,1.61c1.14,0,3.67-.61,4.28-1.67,1.5-2.58-2.95-2-4.07-2.86-1.55-1.24-1.84-4.06-2-5.85-.49-4.61.54-9.45-.21-14a10.06,10.06,0,0,0-4.85-6.82c2.51-9.78,4.59-19.72,6.5-29.6a165.84,165.84,0,0,0,5.09,17.25c2.84,8.07,6.43,15.85,10.06,23.6,3.28,7,7.12,13.76,8.89,21.33a113,113,0,0,1,2.85,22.58A87.42,87.42,0,0,1,456.86,478c-8.69,5.52-18.65-2.26-28.45,7.51C422,492,420.72,502.66,418,510.31c-.52,1.42.58,2.11,2.23,2.39,8.75,1.56,21.37-2.15,30-12.44a76.85,76.85,0,0,1-8.39,14.83c-23.57,24.7-54.52,36.42-69.37,42.38-20.92,8.38-42.12,14.88-62.89,23.65,18.14-8.78,36.17-17,54.93-24.35,10.69-4.21,24.8-9.6,37.2-16.87A124,124,0,0,1,371.22,543c-17.73-.22-33.05.86-49.86,7-28.76,10.47-43.49,34.68-62,57.38a1.78,1.78,0,0,0,1.05,2.89c35.54,2.91,62-12.89,90.88-31.25l3.44-1.86c23-14.1,54.36-28.2,77.89-47.49,1.48-1.12,2.8-2.3,4.09-3.49a99.24,99.24,0,0,0,18.66-21.52c.1,1.14.23,2.31.42,3.5,1.28,7.56,6.1,13.78,6.92,21.52.24,2.35,3.49,1.9,3.55-.34.09-9.71,8.44-17.33,8.21-27-.26-9.34-15.11-11.13-14-20.08s4.19-21.25,2.67-38.37C466.85,446.68,469.92,451,473.25,454.41Zm5.09-40.73c8.52,5.78,21.21,9.14,28,17.08.21.15.35.27.3.32-.09-.11-.21-.2-.3-.32-2-1.35-14.14-6.25-15.14-6.67a105.82,105.82,0,0,1-20.42-11.6A192.57,192.57,0,0,1,445.88,390C457,397.52,467.24,406.17,478.34,413.68Zm-116,50.51c-5.95-2.59-10.64-7.25-16.16-10.56-2.57-2.1-6.59-2.5-9.44-4.19,4.28,1,8.35,1.26,12.41,3.08,4.95,2.59,9.3,6.24,14.37,8.62,6.48,3.05,15.85,7.26,23,5C379.85,470.77,369.11,467.14,362.38,464.19Z"/><path class="cls-3" d="M309.74,799.79a1.51,1.51,0,0,0,1.84,1.84c7.93-2.35,14.91,1.58,22.81-2.3,6.38-3.14,11-9.38,17.82-11.67,7.88-2.63,16.47-.45,24.35,1,2.69.47,25.23,1.7,25.26,1.81-.24-1-.45-1.9-.58-2.77a1.08,1.08,0,0,0,0-.19c-7,0-14-.38-21-1-13.44-2.28-19.37-18.57-20.79-30.5-1.45-12.22,1.16-26,9.59-35.33,9.3-10.25,21.56-7.08,26.59,5.23a27.25,27.25,0,0,1,1.3,14,14.78,14.78,0,0,1-4,8.07c-5,5.34-12.66.62-10.36-5a1.41,1.41,0,0,0,2.33-.23c.81-1.43.11-2.51-.74-3.73a1.52,1.52,0,0,0-2.35-.32c-2.84,3.26-7.11,10.82-1.48,14,6.13,3.5,13.27-.22,17-5.44,7.6-10.57,1.23-34.28-12.95-35.86A19.29,19.29,0,0,0,368,717.3a24.64,24.64,0,0,0,.57-4.12,31,31,0,0,0-1-8.41,29.79,29.79,0,0,1,0-13.8.75.75,0,0,0-1.09-.84c-11.83,6-14.13,25.9-3.59,34.07a55,55,0,0,0-6.39,20.1c-1.57,13.2,2.38,32.62,14,41.18-3.6-.45-7.19-1-10.77-1.52-6.81-.92-9.17-3.17-11.29-10-1.84-5.85-1.81-12.14-3.31-18.09-2.53-10.1-10.74-14-20.51-14.71a1.48,1.48,0,0,0-1.49,1.49c1.24,16.63,14.19,26.19,22.87,39-3.29-.57-6.62-1.16-9.92-1.84-9.45-3.73-16.18-11.93-19.76-22.34a64.35,64.35,0,0,1-3.15-21.14A54.74,54.74,0,0,1,317.54,716a9.14,9.14,0,0,0,3.1.54,9.44,9.44,0,1,0-4.44-1.1,57.3,57.3,0,0,0-4.51,20,66.34,66.34,0,0,0,3.48,23.26c2.92,8.52,8.15,15.48,15.11,19.85-9.2-2.19-18.11-5.25-25.82-10.24-1.62-1.06-3.11,1.52-1.5,2.56,7.28,4.74,15.46,7.64,23.9,9.78-19.06-1-37.28,5.85-52.17,19.32a56.63,56.63,0,0,0-12.81,18.1c-6.61-.5-13.47-3.44-19.63.13-4.83,2.79-5.37,9.56-7.52,14.13-.29.6.35,1.52,1,1,5.36-4.14,12.43-2.81,18.63-4.5a10.8,10.8,0,0,0,4.38-2.39c-2.06,7.57-1.95,15.13,2.42,20.69,7.51,9.55,22.32,8,23.41-5.24.89-11-7.24-15.85-14.8-6.91a1.55,1.55,0,0,0,0,2.13c3.17,2.45,3.89,1.59,6.61-.75,1.21-1.06-.06-2.67-1.36-2.45,1.45-1.17,3.27-1.72,4.78-.32,2.58,2.44,2.06,7.59,1.3,10.63-1.36,5.27-5.81,7.11-10.8,5.78-9.38-2.48-10.08-12.64-8.64-20.53,2.68-14.55,12.18-26.59,24.4-34.43,14.62-9.38,29.64-13.24,45.92-11C322.19,785.44,313.39,789.44,309.74,799.79Z"/><path class="cls-3" d="M559.32,798.59c5.52,5.41,13.56,7.39,20.44,10.29,1.7.71,3.36-1.41,1.89-2.73-7-6.3-6.9-16.4-14.14-22.29-3.66-3-8.62-3.61-12.78-5.62-11.19-5.4-6.9-24.94-5.43-34.56a80.53,80.53,0,0,1,4.43-15.12,34.49,34.49,0,0,0,7.67,21.74,38.43,38.43,0,0,0,13.1,10.47c4.53,2.22,9.55,3.22,14.56,3.94,0,.13,0,.25,0,.38a6.84,6.84,0,1,0,.31-1.92c-9.73-1.66-18.49-4.55-25.56-12.33a33.24,33.24,0,0,1-8.54-23.67,21.18,21.18,0,0,0,3.17,9.83c3.3,5.23,8.65,9,14.28,11.28a24.73,24.73,0,0,0,26.7-5.06,8.49,8.49,0,0,0,4.57,1.33,8.61,8.61,0,1,0-5.75-2.23c-6.34,5.94-15.32,7.86-24.19,4.87a29.16,29.16,0,0,1-13.77-10.14c-3.64-4.89-4-10.6-3.35-16.37,6.12-14.41,13.67-28.66,14.34-30.22-2,.79-4.28.09-5.48,0-2.25,5.09-4.39,13.21-7.44,18.42a78,78,0,0,1-8.59,11.41c-4.73,5.45-6.59,8-13.94,9.4a73.34,73.34,0,0,1-23.36,1.17c-9.39-1.17-18.45-3.85-27.9-4.38-18.06-1-30.42,11.31-44.86,20a1.37,1.37,0,0,0,.57,2.56c12.37,1.09,22.6,8.2,34.48,11.14,7,1.74,14.75.65,21.4-2.05,15-6.12,26.84-18.25,41.54-24.79-18.77,18.62-45.8,35.51-69.56,44.43a128.77,128.77,0,0,1-22.33,6c.91.77,1.79,1.56,2.65,2.38a165.54,165.54,0,0,0,18.23-4.68A106.61,106.61,0,0,0,483.82,774a115.73,115.73,0,0,0-24.37,29.47c-1.07,1.86,1.9,3.4,2.94,1.51,14-24.6,36.12-38.81,58.87-54.3,11-7.47,21.43-16.15,29.35-26.89q-.89,3.06-1.69,6.14c-.85,1.06-1.68,2.08-2.37,3-3,4.16-5.93,8.4-8.65,12.76-1.87,3-3.72,6-5.62,9l0,0a8.09,8.09,0,0,0-1.49-.15,7.49,7.49,0,1,0,2.85.57c.68-1,1.38-1.9,1.9-2.68,2.33-3.53,4.38-7.23,6.71-10.76,1.87-2.82,3.83-5.57,5.82-8.29a126.3,126.3,0,0,0-3.43,21.43,110.28,110.28,0,0,0,.08,15.1c.44,6.23,2.12,12.24-2.55,17.29-3.75,4.05-9.33,5.9-12.89,10.18-6.58,7.95.91,18-.56,26.67-.31,1.78,2.35,3,3.09,1.1,2.93-7,10.34-10.61,13.71-17.45a36.94,36.94,0,0,0,3.21-11.87c2,9.09,5.34,19.15,13,24.74,1.74,1.28,4-1.2,2.24-2.45-9.36-6.87-11.75-20.64-13.75-31.34a5.49,5.49,0,0,0-.15-.86c.11-.54.22-1,.32-1.55C552.84,789.5,555.17,794.51,559.32,798.59Zm-46.09-55.66c-6.33,2.55-12.33,4.92-19.14,5.73-14.29,1-28.12-4.37-42.49-3.51,13-5.69,26.78-1.85,40.43-1.8,6.15,0,11.91-1.93,17.81-3.42,2-.56,16.29-6.16,17.42-4.95C527.18,734.9,514.43,742.45,513.23,742.93Z"/><path class="cls-3" d="M177.11,265.65c10.52-5.17,18.79-14,26.07-23.11-.82,1.71-1.93,3.38-2.53,4.93a32.16,32.16,0,0,0-1.79,10.28c-.33,7.48,3.57,13.22,5,20.31.2.88,1.41.59,1.48-.2.48-5,3.53-8.31,6.07-12.39a23.38,23.38,0,0,0,3.2-11.18c.28-5.65-2.84-13.18-8.19-15.9,9.45-12.14,18.6-24.3,25.86-38,.89-1.68-1.69-3.2-2.59-1.49-8.75,16.46-20.13,31.5-32.15,45.72-.38.47-.79.91-1.19,1.36-2.55-3.18-4-7.09-6.78-10.14a14.44,14.44,0,0,0-9.14-4.59c-8.5-.61-14.63,5.74-17.81,13.08-.28.64.32,1.46,1,1,7.57-4.74,15.41.51,22.79,2.79a14,14,0,0,0,7.68.28c-11,11.5-24,18.36-40.14,21.3-17.74,3.25-35.07-5.36-39.27-23.6-2.14-9.26,3.3-16.68,11.62-20.15,5.78-2.4,11.4-.33,14.91,4.65,1.9,2.66,2.08,6,2.21,9.14.36,8.23-7.86,3.14-9.8,1.91-1.63-1-3.12,1.54-1.51,2.57,4.5,2.85,13.31,5.54,14.12-2.59s-3.18-18.46-12.54-19.53c-8.08-.91-17.68,4.18-20.79,12-3.25,8.15-.94,16.62,3.48,23.87C129.43,279.24,157.93,275.08,177.11,265.65Z"/><path class="cls-3" d="M143.21,60.4a1.51,1.51,0,0,0,2.2,1.69c8.65-4.2,15.58,3.79,22,8.47a22,22,0,0,0,8,3.91C162,78,150.76,86.62,147.18,101.12c-3.46,13.94,1.56,33.75,19.42,30.46A15.21,15.21,0,0,0,179.28,118c.43-5.32-7.29-11.45-11.88-7.75a1.5,1.5,0,0,0-.24,1.81,1,1,0,0,1,.15.21c0,.1,0,.19-.06.31a1.3,1.3,0,0,0,1.5,1.42c1.12.54,2.74-1,1.89-2.16a7.56,7.56,0,0,1,5.65,6.16,9,9,0,0,1-2.53,6.23c-2.55,3.19-7,4.5-10.87,4.84-7.6.67-11.73-6.26-13.25-12.64-2.83-11.9,2.29-25.75,12.11-32.73,22.77-16.14,58.76-7.28,72.55,16.48,4.37,12.85,19.62,23.89,30.15,30.21C277,138,293,144.53,308.13,144.13c-3.4,1.41-6.87,2.79-10.31,4.18-2.91.73-5.81,1.44-8.72,2.14-13.21-.54-24.71-9.13-36-15.37-11.76-6.5-24.2-11.82-37.58-13.7-20.35-3-29.54,11.59-42.41,24.27-.87.82-.68,2.59.77,2.65,11.33.6,20.56,7.71,31.15,11,9.32,2.87,19.49,3.39,29.17,3,16.05-.63,31.79-3.48,47.4-7a115.65,115.65,0,0,0-24.12,14.52h0A74.71,74.71,0,0,0,247.07,180c-16.28,19.42-15.32,44.41-7.88,67.26a1.5,1.5,0,0,0,2.57.29c11.19-14.75,27.66-26,33.43-44.32,3.31-10.46,1.24-22.71,3.75-33.37h0a26,26,0,0,1,7.61-13.61c3.26-3,10.12-4.44,14.22-6,3.13-1.24,7.71-2.12,10.39-4.11a72.27,72.27,0,0,0-6.82,5.68,59.15,59.15,0,0,0-13.16,18.09h0c-.74,1.57-1.45,3.17-2.08,4.81-4,10.46-4.23,21.72-5.1,32.73-1.08,13.27-6.24,25-13.89,35.74a1.49,1.49,0,0,0,1.44,2.35,53.79,53.79,0,0,0,42.17-39.21c2.63-10.43,1.29-21.45,1.5-32.09a34.63,34.63,0,0,1,.39-4.33c1.12-7.46,4.62-15.6,9.29-22.66,0,.06,0,.12,0,.19-.78,5.19-1.36,10.61.34,15.69a17.71,17.71,0,0,0,4.34,6.78h0c1.65,1.48,3.62,2.28,5.68,1.35a7.45,7.45,0,0,0,2-1.35,6.35,6.35,0,0,0,2.19-5.15c-.75-6.79-10.62-1.92-7.61,3.13-3.43-1.9-4.14-8-4.47-11.26a27.41,27.41,0,0,1,1.92-12.76c1.2-3,4-9,7.61-9.65.79,3.16-1.14,5-2.08,7.81a10.79,10.79,0,0,0-.47,5.16c.17,1.25,3.61,6.89,3.39,7.35,10.05-20.18,23.87-8.19,21.58-36.53,8.35-4.07,14.86-11.51,20.56-18.7,1.22-1.55,2.41-3.13,3.59-4.73-5.31,16.2-5.08,35.19,1.68,50.23,3.51,7.83,8.89,14,17.51,15.93,8.11,1.85,17.83-1.53,22.85-8.19,4.84-6.44,7.32-15.65,3.36-23.21-3.55-6.77-11.61-11.92-19.27-8-6,3-11.71,10.68-8.65,17.73,2.44,5.58,10.2,4.93,12.33.79,3.15-5.22-5.2-6.68-4.75-1.54-.77,2.49-3.09,2.39-4.44.51a8.81,8.81,0,0,1-.64-5.69c.79-5,4.78-8.23,9.24-9.73,9.66-3.23,15.13,8.1,15.08,15.64-.14,16.15-20.47,24.38-32.57,15-8.92-6.89-10.83-20.56-11.74-30.92C381.45,100.81,391.73,83.68,402,65c4.5-8.14,8.64-16.55,12.43-25.16-.31-1.88-.66-3.75-1-5.61-2.45,5.78-5,11.5-7.73,17.1A293,293,0,0,1,384.14,88.2c-6.77,10-14.22,20.84-25.21,26.53-.05-.61-4-6.35-11.81-6.93-6.81-.51-12.09-.88-17.13,3.86a57.67,57.67,0,0,1-6.25,5.63c-2.28,1.55-7.59,4.61-10.44,3.93,7.44,10.35,16.61,5.52,20.78,7.75-8.1,3.14-16.61,4.57-25.37,3.2a21.22,21.22,0,0,1-9.67-4.26,3.05,3.05,0,0,0,.89-.43c2.88-2.14,4.07-6.23,1.43-9.27s-5.28-2.95-7.91-1.13c-4.23,2.94-1.23,8.27,1.27,11.07,8.53,9.53,22.94,9,35,5.43-4,2.27-8.53,4.82-11.1,6-11.58,3.47-24.09.71-35.54-3.58-14.28-5.42-28.48-13.65-38.87-25C233.52,99.41,233.82,83,248.12,74.64c6.24-3.65,14.69-3,19.72,2.43,2.48,2.66,2.69,7.5,2.6,10.9a13.26,13.26,0,0,1-2.1,6.69c-1.23.77-2.48,1.56-3.72,2.36,3.06-6.67-1.62-8.91-3.54-8.76-8.58.59-7.87,10.43-1.29,12.45,8.73,2.68,14-8.56,13.69-14.51-1-21.32-25.49-20-35.81-6a21.67,21.67,0,0,0-4.6,13C222.9,80.39,206,72.7,189.84,72.64a1.94,1.94,0,0,0-.15-.24c-5.12-5.41-3.65-14.58-7-21a23.61,23.61,0,0,0-14.89-12.15C154.57,35.31,146.17,50,143.21,60.4ZM229,146.25c-11-3.75-29.49-10.63-40.6-4.39,8.75-10.1,29.25-5.29,39.88-2.11,14.48,4.32,28,10.94,43.34,12.1C257.24,155.84,242.57,150.58,229,146.25Zm41.5,23.56h0c-14,18.24-25.29,39.17-29.44,62-4.46-21.49,8-47.65,25.4-62h0a54.76,54.76,0,0,1,8.8-6Q272.79,166.76,270.46,169.81Zm36.1,0h0a121.1,121.1,0,0,0-4.21,25c-.76,7.78-2.19,15.13-5.36,22.29-.7,1.57-11.77,16.77-12.62,14.81.2.56,4-5.49,4.23-6a76.42,76.42,0,0,0,4.85-12.55c1.92-7.09,2.49-14.34,3.15-21.62a67.45,67.45,0,0,1,5.34-21.88h0a60.85,60.85,0,0,1,9.23-14.45C309.39,160.38,307.85,165.12,306.56,169.81Z"/><path class="cls-3" d="M253.13,169.81c1.43-.88,2.89-1.73,4.42-2.49,1.71-.87.52-3.61-1.23-2.76-.41.21-.85.46-1.28.69a1.31,1.31,0,0,0-1.12.05,111.5,111.5,0,0,1-11.12,4.51,77.62,77.62,0,0,1-20.31,4.2c-10.44.64-20.81-.43-31.17.91-19.81,2.56-30.73,18.46-44.63,30.84a1.5,1.5,0,0,0,1.13,2.66c13.66-1.34,26.2,4.31,39.69,5.09,8,.45,16.15-2.3,22.81-6.58,16-10.28,26.68-27.18,42.81-37.12ZM225.81,187c-6.36,4.06-12.39,7.84-19.62,10.1-15.31,4-31.4,1-46.83,4.83,13-8.83,28.7-7.45,43.52-10.17,6.68-1.23,12.53-4.51,18.63-7.33,2.09-1,16.44-10,17.91-8.91C239.32,175.39,227,186.18,225.81,187Z"/><path class="cls-3" d="M382.76,32.89c9-9.66,10.93-22.27,17.45-32.89-15.06,19.21-36.71,27.32-51.87,44.2-11.89,13.28-8.54,31.87-7.23,48a1.77,1.77,0,0,0,3.11,1c22-29.41,58.07-47,57.63-87.17-5.21,9-7.33,20.25-15.07,27.88-3.83,3.77-8.27,6.79-12.63,9.93a66.89,66.89,0,0,0-19.91,22.82C361,51.74,372,44.39,382.76,32.89Z"/><path class="cls-3" d="M570.35,118.06c1-.58,1-2.51-.34-2.72-6.26-1-12.74-1.92-18.88.09-4.42,1.45-7.83,5.23-10.19,9.79a57.36,57.36,0,0,1-5.57-14.37c-.43-1.79,1-5.56,1.34-7.42q.67-4.07,1.11-8.15a104.79,104.79,0,0,0,.88-11.86c0-1.34.21-5.33-1.6-5.66-2.51-.46-2.9,3.7-3.1,5.32a30.23,30.23,0,0,1-3.17,9.16q-2.12,4.45-4.48,8.81a.72.72,0,0,0-.32.54v0c-.4.73-.79,1.46-1.19,2.18-7.49-.56-15.55-9.4-23-4.83-5.08,3.14-2.79,12.31-2.74,17.06,0,.71,1.08,1.08,1.41.38,2.57-5.59,12-3.66,17-4.41a9.75,9.75,0,0,0,3.24-1.14c-1.28,2.21-2.59,4.44-3.88,6.65-7,11.94-14.82,21.11-28.86,24.31-13.81,3.15-29.24-4.75-28.55-20.19.24-5.4,3.51-13,13.44-16.7,5.74-2.12,10,2.11,12.19,6.87a13.75,13.75,0,0,1,.46,3.23,3.17,3.17,0,0,0-3.91.26c-1.64,1.62-.7,4.69,1.11,5.75a4.11,4.11,0,0,0,5.11-1.15,5.3,5.3,0,0,0,1.12-3.71c0-5.29-3.32-12.05-8.64-13.73a15.43,15.43,0,0,0-9.17-.09c5.09-10,7.63-23.4,4-33.55-3-8.51-16.41-11.45-23-4.82-4.23,4.27-8.41,18.91,1.42,20.61,6.12,1.08,9.35-6,4.28-8.84-1.25-.7-4.63,1.76-1.64,4.27.14.11-5.85,2-5.21-6.3a12.67,12.67,0,0,1,5.17-9c7.12-5.46,15.46,1.37,17.13,8.48,2.3,9.77-1.58,23-6.88,31.4-8.09,5.41-12.61,17.33-8.59,26.46,7.85,17.89,30.71,17,45.05,7.93,8-5.07,13-13.88,17.61-21.81a274,274,0,0,0,14.25-26.61c0,.61,0,1.14,0,1.48-1.1,19.47-5.26,41-17.33,57.08a132.43,132.43,0,0,1-20.1,20.69c-2.8,2.39-5.64,4.72-8.49,7A254.67,254.67,0,0,0,463.1,200c-2.73-2.28-3.91-5.79-6.35-8.39a15.19,15.19,0,0,0-8.35-4.26c-6.94-1.33-11.65,4.35-15,9.55-.48.73.57,1.49,1.17.91,6.09-5.89,14.46,3.17,20.43,5a13.52,13.52,0,0,0,5.4.18,112.91,112.91,0,0,0-19.27,28.92c-.9,1.94,2.2,3.21,3.06,1.24C456,207.39,476.71,191.28,498,173.81c1.58-1.31,3.15-2.64,4.69-4,8.67-7.62,16.35-15.88,22.13-25.38a159.62,159.62,0,0,0-3.15,25.38h0c-.06,2-.09,4.06,0,6.11a124,124,0,0,0,3.4,25,1.41,1.41,0,0,0-.37.93c-.46,8.54-10.13,11.43-14.53,17.81-5.85,8.5,2.51,17.8,1.82,26.61-.15,1.8,2.61,2.72,3.17.82,2.29-7.29,9.36-11.49,12.11-18.6a37,37,0,0,0,2.13-12.11c2.85,8.87,7,18.59,15.16,23.48,1.85,1.12,3.85-1.56,2-2.64-9.93-6-13.55-19.52-16.49-30a6.42,6.42,0,0,0-.22-.84c0-.55.12-1.06.18-1.57,2.9,4.8,5.67,9.58,10.17,13.27,6,4.9,14.16,6.15,21.27,8.42,1.76.56,3.23-1.7,1.64-2.88-7.5-5.66-8.33-15.73-16.07-20.94-5.81-3.95-16.42-2.66-19.8-9.61a2.42,2.42,0,0,0-.42-.55,123.83,123.83,0,0,1-1.71-22.75h0c0-1.81.09-3.63.21-5.48,1-16.32,5.34-31.69,8.78-47.3a50.12,50.12,0,0,0,5.42,11.36c-.21.56-.41,1.12-.61,1.68a37,37,0,0,0-2,11.88c.09,6.36,6.07,11.43,5.17,17.75,0,.13,0,.27-.06.4-.12,1.67,2.71,2.06,2.93.4a2.91,2.91,0,0,0,0-.4c.46-5.68,5.53-9.71,5.83-15.33a11.1,11.1,0,0,0-.35-3.48c3.33,3.42,6.68,7,8.22,11.36a5.57,5.57,0,1,0,2-.39,3.31,3.31,0,0,0-.55.06c-1.79-5.2-5.94-9.29-9.87-13.36a30.66,30.66,0,0,0,5.42,2.66c12.74,4.74,26-2.43,34.94-11.08,1.39-1.35-.72-3.45-2.11-2.13-8.72,8.39-19.86,14-32,10.33a21.14,21.14,0,0,1-3.07-1.23,19.45,19.45,0,0,0,13.77-4.58,5.08,5.08,0,1,0-1.26-.92c-4.55,3.79-11.92,5.41-16.88,2.69C558.85,132.84,562,122.74,570.35,118.06Z"/></g></svg>