<svg id="Layer_1" data-name="Layer 1" xmlns="http://www.w3.org/2000/svg" viewBox="0 0 705 1080"><defs><style>.cls-1{fill:#d7871a;}</style></defs><title>accent</title><path class="cls-1" d="M161.94,139.31c38.14,33.92,100.58,36,144.36,11.61,4.81-2.68,1.57-9.89-3.61-8.71-29.61,6.7-56.85,16.62-87.83,10.85-22.82-4.25-45.1-15.81-58.08-35.57-15-22.85-18.79-59,7.43-75.74,14.27-9.13,34.42-8.8,44.29,6.6A31.79,31.79,0,0,1,213.63,65c0,8.24-3.36,12.2-8.21,15a15.25,15.25,0,0,0-2.79-12.42c-7-9.78-21.38-6.92-25.5,4.12-3.7,9.89,4,20.41,13.6,22.69,8,1.9,17.7-2.07,23.19-8A32.27,32.27,0,0,0,222.34,65c.52-36.45-42.53-48.47-68.35-28.87C118.65,62.94,133.56,114.07,161.94,139.31Z"/><path class="cls-1" d="M259.09,233.41c-15.09,17.83-26.52,38.4-37.85,58.82,1.06-5.93,3.36-11.57,5.85-17.06a244.83,244.83,0,0,1,31.67-51.72,109.77,109.77,0,0,1,13.51-14.58,77.63,77.63,0,0,1,13.21-9.19,136.65,136.65,0,0,0-73.06,97,130.79,130.79,0,0,0-.59,45.17c.25,1.56,2.39,1,2.55-.33,1.44-12.05,12.71-20.05,21.67-26.77A180.89,180.89,0,0,0,262,291.67a98.62,98.62,0,0,0,18.19-28c5.18-12.47,5.72-25.85,8.62-38.89,2.5-11.28,7.77-21.77,17.45-27.48C287.88,204.91,272,218.16,259.09,233.41Z"/><path class="cls-1" d="M267,589.43c7.63,34,31.66,61.58,55.41,87.05A153,153,0,0,1,261.52,591a8.53,8.53,0,0,0,3.34-.51C265.73,590.14,267,589.43,267,589.43Z"/><path class="cls-1" d="M299.76,655.74a283.26,283.26,0,0,1,36.38,18.92c3.32,2.05,6.68,4.24,8.91,7.43s3.1,7.65,1.13,11c-2.62,4.46-8.89,5.17-13.9,3.9-8.7-2.2-15.83-8.65-20.72-16.16s-7.84-16.1-10.73-24.58l.93-.94"/><path class="cls-1" d="M273.67,618.69c9.56-4.91,20-6,30.69-5,6.33.55,13.12,1.62,17.67,6.06,1.36,1.32,2,4.58.09,6.4-4.36,4.22-11.67,2.78-17.7,2.09-10.2-1.16-21.16-3.49-30.25-8.27"/><path class="cls-1" d="M278.77,626.53a118.67,118.67,0,0,0-11.88,24.88c-.87,2.57-1.67,5.3-1.21,8s2.6,5.26,5.31,5.35a6,6,0,0,0,4.69-2.44,15.27,15.27,0,0,0,2.6-4.85,64.3,64.3,0,0,0,2.49-25,7,7,0,0,0-.74-3,2.6,2.6,0,0,0-2.54-1.39"/><path class="cls-1" d="M102,949c13.17,32.24,9.25,68.63,4.33,103.1a153,153,0,0,0,1.08-105,8.41,8.41,0,0,1-3,1.49A21.21,21.21,0,0,1,102,949Z"/><path class="cls-1" d="M113.11,1022.09a281.44,281.44,0,0,0-19,36.33c-1.55,3.57-3,7.3-3.06,11.19s1.83,8,5.37,9.67c4.7,2.16,10.25-.85,13.63-4.76,5.87-6.77,8-16.14,7.75-25.1s-2.77-17.69-5.25-26.3l-1.3-.24"/><path class="cls-1" d="M113.31,976.78c-10.64,1.44-19.79,6.55-28,13.43-4.88,4.07-9.83,8.83-11,15.08-.36,1.86,1,4.88,3.59,5.3,6,1,11.16-4.4,15.71-8.41,7.71-6.79,15.37-15,20.09-24.09"/><path class="cls-1" d="M113.62,986.12a119,119,0,0,1,24,13.62c2.19,1.61,4.4,3.39,5.55,5.86s.89,5.8-1.29,7.42a6,6,0,0,1-5.24.68,15.41,15.41,0,0,1-4.91-2.5,64.13,64.13,0,0,1-16.35-19.09,7,7,0,0,1-1.09-2.86,2.59,2.59,0,0,1,1.28-2.59"/><path class="cls-1" d="M488.2,677.24A183,183,0,0,1,542.86,668c31-.5,50.09,3.17,50.09,3.17s-4-14.61-25.64-20.08S532,653.39,532,653.39s18.44-17.29,22-31.88c3.38-13.76,1.57-17.23,1.57-17.23s-13.36,5.6-22.26,14.91-17.68,20.47-17.68,20.47,10.34-18.22,10.43-32.87c.07-11.83-2.24-19.33-2.24-19.33s-10.2,8.52-15.24,17.35c-4.43,7.77-8.8,24.61-8.8,24.61s1.23-16.93-6.18-33.2A61,61,0,0,0,473,571.57s10.57,29.75,13.65,61.63C488.36,650.73,488.2,677.24,488.2,677.24Z"/><path class="cls-1" d="M585.62,646.51c5.63-2.47,11.06-5.72,15-10.4s6.39-11,5.39-17c-1.12-6.78-6.25-12.33-12.19-15.79-3.72-2.16-8.31-3.67-12.3-2.06,6.14-8.74,5.21-21.75-2.11-29.53s-20.25-9.5-29.34-3.9c.69-7.65-5.06-15.21-12.51-17.1s-15.81,1.71-20,8.13a16,16,0,0,0-28.54.84,20,20,0,0,0-1.74,9,22,22,0,0,0,5.3,14.39,34.56,34.56,0,0,1,1.78-9.7,12.28,12.28,0,0,1,6.45-7.13c3.63-1.47,7.92-.41,11.09,1.89s5.38,5.68,7.21,9.15c2.52-4,6.09-8,10.81-8.46,3.77-.39,7.52,1.63,9.9,4.58A21.64,21.64,0,0,1,544,583.78a41.44,41.44,0,0,1,15.5-4.48,14.41,14.41,0,0,1,6.17.54c4.75,1.76,7,7.46,6.52,12.49s-3.2,9.55-5.82,13.88c5.09,1.09,10.26,2.22,14.8,4.77s8.42,6.78,9.25,11.92-1.52,10.38-4.48,14.73c-2.51,3.69-5.64,7.17-9.76,8.89a18.27,18.27,0,0,0,8.32-.06"/><path class="cls-1" d="M509.55,976.48c-2,7.27,4.08,16.46,12.85,9.63s5.5-25,5.5-25,2.51,15.73,8.35,20.19c7.58,5.8,16.13,4.61,17-6.44.93-11.62-18.16-19.56-18.16-19.56s16.43,6.13,24.69,2.25c5.86-2.75,9.39-11,.85-17.78-9.62-7.68-26.11.08-26.11.08s5.21-24.4-8.58-24.46c-17.4-.07-5.8,23.95-5.8,23.95S511.5,930,504.83,927c-7.33-3.27-15.48,3.7-12,13s23.38,8.56,23.38,8.56-9.12,1.41-14.16,3.16c-5.54,1.93-13.56,8.82-7.74,15.82,7.5,9,22.57-5.22,22.57-5.22S511.3,970,509.55,976.48Zm11.06-29.24a6.79,6.79,0,1,1,2.09,9.37A6.8,6.8,0,0,1,520.61,947.24Z"/><path class="cls-1" d="M412.27,926.2c-5.3,3-7.1,11.79,1.85,12.89s17.51-11.21,17.51-11.21-7.59,10.47-6.79,16.38c1,7.68,6.61,11.9,13.46,6.06,7.2-6.13.8-21.63.8-21.63S445,941.62,452,944.14c4.93,1.78,11.68-.92,10.68-9.72-1.12-9.93-15-14.93-15-14.93s17-11,9.1-19c-9.94-10-17.06,10.42-17.06,10.42s.36-10.3-1.76-15.84c-2.32-6.08-11-6.76-14.31.59S432.1,914,432.1,914a85.52,85.52,0,0,0-9.94-6.3c-4.28-2.07-12.83-2.72-13.5,4.64-.87,9.48,15.94,9.95,15.94,9.95S417,923.49,412.27,926.2Zm23.11-10.43a5.5,5.5,0,1,1-4.17,6.57A5.49,5.49,0,0,1,435.38,915.77Z"/><path class="cls-1" d="M442.25,1029.13c2,6,10.56,9.68,13.54.77s-7.83-20.19-7.83-20.19,9.12,9.9,15.32,10.31c8.05.54,13.5-4.29,9-12.48-4.78-8.62-21.92-5.28-21.92-5.28s14.42-3.37,18.42-10c2.84-4.67,1.48-12.11-7.71-12.91-10.36-.91-18.34,12.26-18.34,12.26S435,972,425.23,978.45C413,986.53,432.34,998,432.34,998s-10.43-2.49-16.52-1.48c-6.69,1.12-9.17,9.84-2.36,14.73s20.45-4.89,20.45-4.89a88.69,88.69,0,0,0-8.48,8.84c-3,3.94-5.42,12.54,1.94,14.75,9.5,2.84,13.45-14.23,13.45-14.23S440.46,1023.76,442.25,1029.13Zm-5.88-25.75a5.73,5.73,0,1,1,5.85,5.61A5.74,5.74,0,0,1,436.37,1003.38Z"/><path class="cls-1" d="M131.93,356.15c4.58,6,15.55,6.79,15.46-4.34s-16.51-19.59-16.51-19.59,14,7.59,21.11,5.67c9.21-2.5,13.47-10,5.25-17.43-8.66-7.81-26.57,2.5-26.57,2.5s14.85-9.3,16.8-18.22c1.39-6.32-3-14.13-13.59-11.5-11.95,3-15.83,20.77-15.83,20.77s-16.19-19-24.63-8.07c-10.64,13.76,15.48,19.17,15.48,19.17s-12.64,1.22-19.07,4.7c-7.06,3.81-6.49,14.53,3,17.39s21-13.33,21-13.33S109.44,342,107.76,347c-1.84,5.56-1.26,16.12,7.84,15.76,11.73-.46,9.59-21.09,9.59-21.09S127.87,350.82,131.93,356.15Zm-16.46-26.57a6.78,6.78,0,1,1,8.7,4A6.78,6.78,0,0,1,115.47,329.58Z"/><path class="cls-1" d="M175.91,519.5a57.2,57.2,0,0,1-17.57-45.92c2.3-29,22.06-44.05,38-49,16.28-5.05,40.87-6.94,40.87-6.94s-17.52-13.46-51-16.16-53,11.34-58.87,28.86c-4.69,14,.53,18.8-5.65,31.82-6.68,14.1-5.61,26.8,8.62,41.38C151.88,525.62,175.91,519.5,175.91,519.5Z"/><path class="cls-1" d="M176.42,509.37s10,27.86,25,46.94,34,23.73,43,19.38,15.72-12.15,22.05-13.64,17.55-.12,27.79-8.65c22.24-18.53,14.35-54.72,3.55-77.1a100.56,100.56,0,0,0-7.88-13.62s2.76,46.79-39.83,61.56C209.19,538.41,176.42,509.37,176.42,509.37Z"/><path class="cls-1" d="M302.89,476.42s-3.25-26.58-28.61-52.14c-29.46-29.68-72.54-25-72.54-25S216.22,370,236.2,367.87c14.78-1.58,19.47,9,32,8.94s34.6,2.7,46.52,24C338.22,442.82,302.89,476.42,302.89,476.42Z"/><path class="cls-1" d="M275.1,489.17s12.65-18.14,8-38.11c-5.37-23-25.2-32.13-43-28.52-17,3.44-25.69,17.62-25.69,17.62s25.28-3.9,43,9.82S275.1,489.17,275.1,489.17Z"/><path class="cls-1" d="M208.92,516.88s-30.09-7.72-38.49-32.57,9.59-41.09,20.54-48,24-5.21,24-5.21-21.67,17.53-25.25,37.43C184.54,497.47,208.92,516.88,208.92,516.88Z"/><path class="cls-1" d="M220.86,515.69c-17.62-7.76-26.27-25.49-24.31-39.58s18.17-32.39,36.85-27.86c24.14,5.87,22,24.45,22,24.45S239.33,454,221.36,464c-14.61,8.16-15.81,27.73.42,39.6,25.4,18.56,46.49-4.22,46.49-4.22S251,528.92,220.86,515.69Z"/><path class="cls-1" d="M221.71,487.15s6.58,23.32,28.59,16.08c12.79-4.2,15.63-14.73,15.19-20.24-.48-6.06-4.85-12.82-4.85-12.82s1.13,17.82-14.23,23.52C232.59,498.82,221.71,487.15,221.71,487.15Z"/><path class="cls-1" d="M237.52,490.89c-1.32-2.54-.37-5.77,1.5-7.93a11.13,11.13,0,0,1,10.62-3.48l-4.4-5a22.51,22.51,0,0,0-3.33-3.29,10.64,10.64,0,0,0-10.19-1.4,9.36,9.36,0,0,0-5.74,8.37,11.33,11.33,0,0,0,3.79,7.91,28.48,28.48,0,0,0,7.58,4.8"/><path class="cls-1" d="M156,570.34s-12.69,15.61-12.74,33.1,5,26.15,5,26.15l2.79-5.38s2,13.93,15.79,24.89c10.54,8.37,23.46,9,23.46,9s2.09-15.22,2.08-24.18a115.05,115.05,0,0,0-.84-14.8l5.61,3.46a39.36,39.36,0,0,0-10.58-35.16c-15.47-15.69-26.87-16.9-26.87-16.9s-.61,11.32,3.44,33.91c2.83,15.8,10.74,31.29,10.74,31.29s-11.15-11.33-16.23-32.92C154,587.46,156,570.34,156,570.34Z"/><path class="cls-1" d="M141.13,565.28s-11.24,16.68-28,21.81-26.48,2.79-26.48,2.79L91,585.66s-13.9,2.14-28.4-7.88C51.54,570.13,47.18,558,47.18,558s14-6.42,22.53-9a115.88,115.88,0,0,1,14.41-3.5l-4.94-4.36a39.36,39.36,0,0,1,36.72-.1c19.51,10.24,24,20.8,24,20.8s-10.65,3.88-33.44,6.57c-15.94,1.88-33.07-1.18-33.07-1.18s14.09,7.37,36.22,6C125.32,572.12,141.13,565.28,141.13,565.28Z"/><path class="cls-1" d="M65.64,696s22.15-.19,36.65-12.08,17.06-23.77,17.06-23.77l-.11,14.09s12.24-6.87,13.66-29.67-5-28.72-.26-43.46,29.41-49.71,29.41-49.71l-4.78-4.57S136.22,584.4,126.07,594,105.48,599,93.54,605s-23.27,19.12-27.27,24a51.08,51.08,0,0,0-6.56,10.74l9-2.57s-6.14,16.66-6.55,31.65A91.81,91.81,0,0,0,65.64,696Zm37.24-62.21a300.25,300.25,0,0,1,19.93-25.87A199.42,199.42,0,0,1,112.64,629c-10.81,19.78-27.74,38-27.74,38S95.42,644.62,102.88,633.8Z"/><path class="cls-1" d="M183.85,821.82c.78-11.47,6-22,15.26-28.82a40.28,40.28,0,0,1,32.72-6.68,34.09,34.09,0,0,0-3.5,4.29c15-1.59,32.6-2.22,51.57,18.75-18.41,17.18-29.9,22.44-42.54,27.47,3.2.64,6.07,3.07,8.22,4.94-8.21.93-16.47,1.87-24.71,1.3s-16.56-2.75-23.28-7.55c-3.6-2.57-9.35-7.49-11.93-11.07,22.29-4.84,45.4-13.64,65.18-16.57-20.75-.09-47.62,4.89-66.83,13.86"/><path class="cls-1" d="M324.15,71.08c-9.8,6-21.43,7.83-32.34,4.24a40.29,40.29,0,0,1-24.4-22.79,35.77,35.77,0,0,0,5.53.37c-10-11.33-20.7-25.29-14.59-52.9C283,5,294,11.37,305.39,18.76c-1.34-3-1-6.72-.74-9.56,5.52,6.15,11.07,12.34,15.38,19.39s7.34,15.09,7.33,23.35c0,4.42-.69,12-2.12,16.13C308.39,52.71,287.83,39,274,24.54c11.94,17,31.57,36,50,46.45"/><path class="cls-1" d="M330.19,488.44c.08-11.49,4.66-22.33,13.48-29.7a40.3,40.3,0,0,1,32.24-8.67,35.26,35.26,0,0,0-3.23,4.5c14.9-2.51,32.41-4.21,52.62,15.56-17.32,18.28-28.47,24.23-40.78,30,3.24.44,6.25,2.68,8.51,4.42-8.14,1.44-16.33,2.88-24.59,2.81s-16.69-1.74-23.7-6.11c-3.75-2.34-9.78-6.9-12.58-10.33,21.95-6.19,44.48-16.38,64-20.52-20.71,1.18-47.22,7.79-65.85,17.93"/><path class="cls-1" d="M398.48,153.88c4.7,10.14,9.45,20.42,11.3,31.44s.45,23.06-6.23,32c-2.83,3.8-7.05,7.13-11.79,6.92-4-.17-7.47-2.82-9.7-6.09s-3.4-7.14-4.57-10.92c-.49-1.57-1.12-3.31-2.6-4a5.24,5.24,0,0,0-4.32.41c-4.65,2.13-8.74,6.4-13.85,6-3.77-.27-7-3.26-8.34-6.79s-1.12-7.51-.25-11.19c2.41-10.13,9.43-18.7,17.77-24.94s18-10.4,27.65-14.39q-5.43,19-12,37.73A101,101,0,0,0,398,154.88"/><path class="cls-1" d="M385.62,139.38a98.4,98.4,0,0,1-34.16,31.74c-5.52,3.08-11.58,5.67-17.9,5.54-3.57-.07-7.4-1.22-9.48-4.13-1.85-2.59-1.95-6.05-1.43-9.18a27.62,27.62,0,0,1,11.42-18c-4.63-1.69-9.32-3.6-13-6.92s-6.12-8.34-5.17-13.18c1.24-6.31,7.71-10.3,14-11.57,9.25-1.86,19,.49,27.34,4.82s15.63,10.56,22.63,16.88a217.5,217.5,0,0,0-33.44,9.71,76.25,76.25,0,0,0,36.08-5.1"/><path class="cls-1" d="M416.23,151c-3.93,7.23-5,15.75-4.32,23.94s3,16.16,5.48,24c1.83,5.72,3.92,11.66,8.37,15.69s12,5.25,16.3,1.06a21.57,21.57,0,0,0,5.17-9,28,28,0,0,0,.3-14.71c2.89,2.4,5.86,4.84,9.38,6.14s7.77,1.27,10.74-1a12,12,0,0,0,3.82-6.15c2.54-8.53-.87-18-6.7-24.68S451,155.13,443,151.12c-7-3.51-15-6.83-22.33-4.12,8.65,9.52,17.66,19.77,19.91,32.43a174.28,174.28,0,0,1-23.86-28.14"/><path class="cls-1" d="M427.84,127.6a80.42,80.42,0,0,1,38.34-29.33c3.9-1.41,8.05-2.53,12.17-2.07s8.27,2.77,9.9,6.59.49,8.29-1.86,11.66-5.75,5.84-9.12,8.19c5.34,1.48,10.73,3.51,14.68,7.39s6.11,10,4,15.14c-2.44,5.82-9.36,8.37-15.66,8.84a41.9,41.9,0,0,1-16.41-2,82.79,82.79,0,0,1-12.06-5.48c-7.07-3.67-16.79-8.61-23.86-12.28,13.55.79,28.16.07,40.66-3.43a229.87,229.87,0,0,0-40.74-3.31"/><path class="cls-1" d="M418,115.06a92.6,92.6,0,0,0,30-23.57c4.21-5,7.93-10.58,9.92-16.82,1.63-5.09,1.71-11.46-2.36-14.91-3.14-2.66-7.87-2.67-11.68-1.1S437,63.1,434,65.91c-1.23-4.09-2.51-8.25-5-11.75s-6.33-6.27-10.6-6.29-8.18,2.72-10.53,6.27-3.36,7.82-4,12a81.29,81.29,0,0,0,6.17,45A157.85,157.85,0,0,0,426.29,82q-3,15.3-7.27,30.3"/><path class="cls-1" d="M393.61,117.48a126.13,126.13,0,0,0-5-40.77c-1.2-4.26-2.68-8.57-5.54-11.94s-7.42-5.63-11.73-4.65c-3.84.87-6.8,4.15-8.18,7.84s-1.41,7.73-1.09,11.65a22.42,22.42,0,0,0-22.65-.18c-1.95,1.15-3.83,2.78-4.34,5a8.9,8.9,0,0,0,.68,5.09c4.86,13,17.8,21.11,30.38,27.09q9.57,4.56,19.53,8.26L365.39,90.29c8.48,9.95,17.52,19.72,28.27,27.16"/><path class="cls-1" d="M404.51,150.07a16.86,16.86,0,0,0,13.14-5.82,20.06,20.06,0,0,0,4.72-13.74c-.14-4.29-1.73-8.76-5.17-11.34a15.48,15.48,0,0,0-6.29-2.57,21.37,21.37,0,0,0-5.52-.42,17.87,17.87,0,0,0-16.12,16.41c-.39,8.38,6.94,16.12,15.22,17.45"/><path class="cls-1" d="M82.76,877.64c4.7,10.13,9.46,20.42,11.3,31.44s.45,23-6.22,32c-2.84,3.81-7,7.13-11.79,6.93-4-.17-7.47-2.83-9.71-6.1s-3.4-7.13-4.57-10.92c-.48-1.57-1.11-3.3-2.59-4s-3-.21-4.33.41c-4.65,2.12-8.74,6.39-13.84,6-3.78-.28-7-3.26-8.35-6.8s-1.12-7.5-.24-11.19c2.41-10.13,9.42-18.7,17.77-24.93s18-10.4,27.64-14.4q-5.43,19-12,37.74a101.24,101.24,0,0,0,16.49-35.21"/><path class="cls-1" d="M69.91,863.13a98.45,98.45,0,0,1-34.17,31.75c-5.52,3.07-11.57,5.67-17.89,5.54-3.58-.08-7.41-1.23-9.48-4.14-1.85-2.59-2-6-1.44-9.18a27.66,27.66,0,0,1,11.43-18c-4.64-1.68-9.33-3.6-13-6.91S-.75,853.86.2,849c1.24-6.3,7.72-10.29,14-11.56,9.25-1.87,19,.48,27.35,4.82s15.62,10.55,22.63,16.87a218.3,218.3,0,0,0-33.44,9.71,76,76,0,0,0,36.08-5.1"/><path class="cls-1" d="M100.51,874.79c-3.92,7.22-5,15.74-4.31,23.94s3,16.16,5.48,24c1.82,5.72,3.91,11.67,8.37,15.69s12,5.26,16.29,1.06a21.67,21.67,0,0,0,5.18-9,28.14,28.14,0,0,0,.29-14.71c2.9,2.39,5.86,4.83,9.38,6.13s7.77,1.27,10.74-1a11.89,11.89,0,0,0,3.82-6.14c2.54-8.53-.86-18-6.69-24.69s-13.79-11.19-21.74-15.19c-7-3.51-15-6.84-22.33-4.13,8.65,9.53,17.66,19.77,19.92,32.44A174.34,174.34,0,0,1,101,875.05"/><path class="cls-1" d="M112.13,851.35A80.39,80.39,0,0,1,150.46,822c3.91-1.41,8-2.52,12.18-2.07s8.26,2.77,9.89,6.59.5,8.29-1.85,11.66-5.76,5.84-9.13,8.2c5.34,1.47,10.73,3.5,14.68,7.39s6.12,10,4,15.13c-2.44,5.83-9.36,8.37-15.65,8.85a42.14,42.14,0,0,1-16.42-2,85.37,85.37,0,0,1-12-5.48c-7.08-3.68-16.79-8.61-23.87-12.29,13.55.8,28.16.08,40.66-3.43a231.69,231.69,0,0,0-40.74-3.31"/><path class="cls-1" d="M102.26,838.81a92.78,92.78,0,0,0,30-23.56c4.21-5,7.93-10.58,9.92-16.83,1.62-5.09,1.71-11.45-2.37-14.9-3.14-2.66-7.87-2.67-11.67-1.11s-6.89,4.44-9.89,7.26c-1.23-4.09-2.5-8.26-5-11.75s-6.32-6.28-10.6-6.3-8.17,2.73-10.52,6.28-3.36,7.81-4,12a81.17,81.17,0,0,0,6.18,45,158.44,158.44,0,0,0,16.19-29.15q-3,15.3-7.27,30.3"/><path class="cls-1" d="M77.9,841.24a126.2,126.2,0,0,0-5-40.78c-1.2-4.25-2.68-8.57-5.54-11.93s-7.41-5.63-11.73-4.65c-3.83.87-6.79,4.15-8.18,7.83s-1.41,7.73-1.09,11.66a22.44,22.44,0,0,0-22.65-.19c-1.95,1.16-3.83,2.78-4.34,5a9,9,0,0,0,.68,5.09c4.87,13,17.81,21.12,30.38,27.1Q60,844.91,70,848.62L49.67,814c8.48,10,17.52,19.73,28.27,27.17"/><path class="cls-1" d="M88.79,873.82A16.88,16.88,0,0,0,101.94,868a20,20,0,0,0,4.71-13.73c-.13-4.3-1.73-8.77-5.17-11.35a15.48,15.48,0,0,0-6.29-2.57,21.3,21.3,0,0,0-5.52-.42,17.86,17.86,0,0,0-16.11,16.41c-.4,8.39,6.93,16.13,15.22,17.46"/><path class="cls-1" d="M556.73,701.81c-38.21-15.89-78.15-5.44-114.07,11.51,2.26-1.06,4.81-6.56,6.13-8.66a99.16,99.16,0,0,0,5.78-10.56A94.86,94.86,0,0,0,462,671.35a79.85,79.85,0,0,0,.8-24.78,170.85,170.85,0,0,0-7.44-32.82c-3.45-10.38-9.36-20.07-11.67-30.77-3.37-15.64-3.35-31.79-1-47.58,1.74-11.83,4.1-23.69,8.36-34.9,4-10.48,10.3-19,17.52-27.44,13.69-16.08,31.35-29.65,53.09-31.38l1.32-.09c19.33-1.12,39.29,8,45.33,27.62,2.64,8.54,2.28,18.3-2.45,26.08-.69-14.71-19.37-29.12-33.26-14a19.66,19.66,0,0,0,5,30.49c12.21,6.69,26.63.18,34-10.39C592,472.15,564.47,437.77,534,434c-25.49-3.2-49.06,9.6-66.82,28.12,2.76-6,5.58-12,8.38-17.92,21.62-46,26.24-102.46-5.32-145.57-23.88-32.64-76.41-48.39-103.84-10.8-10.1,13.84-13.82,35-2.13,49.26,10.26,12.47,28.32,11.23,38.76-.25,11.85-13,8.33-33.05-10.81-36-15.36-2.38-24.62,11.32-24.6,25.06-3.64-8.64-2.15-19.61,2.56-27.93,13.1-23.15,42.24-27.14,64.69-16.07,42.87,21.14,52.78,81.14,43,123.3-9.66,41.68-36.35,77.11-44.76,119.64-4.22,21.34-5.65,49,1.72,72-20.67-16.31-48.66-21.18-68.68,2.66-11.44,13.61-14.2,34.7-2.87,49.25,10,12.8,33.22,16.88,41.48-.19,7.34-15.18-9.65-35.32-25.81-28A18.7,18.7,0,0,0,368,636.65c-2.55-5.3-2.88-11.82-1.05-18.51,6.22-22.75,32.59-28.86,52.24-20.13,32.39,14.39,40.24,57.36,28.71,87.83C418,764.77,313.22,739.65,258.67,704.66a2.84,2.84,0,0,0-.83-.32,173.09,173.09,0,0,0-23.67-13.76c-19.23-9.1-41.95-13.71-62-4.37-16.92,7.88-29.06,24.65-25.92,43.85,2.88,17.63,19.06,32.29,37.63,27,14.89-4.28,23-24.4,9.58-35.14-12.62-10.1-30.65,1.41-26.5,17.17a14.13,14.13,0,0,0,6.74,9.09,16.31,16.31,0,0,1-2.88-1.65c-8.52-3.5-12.12-8.14-14-17.18-3.57-17.33,9.93-31.07,25.46-36.11,28.47-9.25,59.64,10.7,80.58,28.17C301,753.18,338,799.88,353.54,847.48c13.43,41.26,10.94,92.77-22.88,123.77C306.6,993.31,265.14,1002,236.77,983c-19.69-13.21-34.37-42.55-22.55-65,6.61-12.58,20.13-22.61,34.7-22.73a31.33,31.33,0,0,1,12.25,2.26,22.1,22.1,0,0,0-17.3,15c-5,15.41,10.26,31.59,25.92,28.81,15.48-2.75,20.93-19.79,16.22-33.43-6.06-17.58-24.78-25.59-42.24-23.3-18,2.36-33.74,15-41.28,31.3-8,17.16-4.1,35.41,4.51,51.59,15.74,29.59,49.14,42.07,81.25,36.57,36.68-6.28,66.26-33,77.79-68.17,14.51-44.27,1.94-91.35-20.42-130.54-14.12-24.75-32.39-50.49-53.91-72.33,36.53,15.91,81.73,20.94,115.46,7.42a80.72,80.72,0,0,0,11.21-5.58,5.59,5.59,0,0,0,.81-.34c45.56-24.73,112.28-52,156.83-9.72,19.34,18.34,27.46,47.34,14.62,71.83-4.71,9-13.58,18.31-23.78,23,7.7-10.53,7.39-26.89-8.28-34.91-25.86-13.22-46.5,25.67-22.81,41.31,29.48,19.47,62.53-17.47,68.59-44.1C612.19,747.51,587.49,714.6,556.73,701.81Z"/><path class="cls-1" d="M589.93,187.68c-3-25.13-9.88-49.45-17.08-73.65-.73-2.47-3.9-1.71-4.2.57A148.5,148.5,0,0,1,550,168.76c-9,15.68-20,29.83-26.71,46.77-12.86,32.6-12.84,68.61-13.27,103.12-.2,15.94-.05,34.1-1.8,51,1.1-1.81,2.05-3.36,2.61-4.48a640.5,640.5,0,0,0,30.85-71.91q6.69-18.67,12.21-37.74c3.46-11.95,8.33-25,9.62-37.4a484.22,484.22,0,0,1-17.27,87.06A505.21,505.21,0,0,1,519.11,376C569.83,328.54,598.15,257,589.93,187.68Z"/><path class="cls-1" d="M702.18,352.18c-62.51-15.14-133-4.77-180.94,40.72-6.69,6.36-11.61,14.31-14.5,17.61a8.27,8.27,0,0,0,.74-.54c49-42.85,79.52-51.59,121.68-53.51-25.71,4.8-50.78,12-73.58,24.79-17.71,9.95-35.11,25.53-45.82,39.33,6.36-3.92,13.44-7.83,18.83-9.59,14.22-4.66,29.14-6.44,44-7.6,16-1.25,32.21-1.85,48-4.89,7.08-1.35,14.14-3.3,20.52-6.72,6.1-3.27,11.28-7.94,16.51-12.41,13-11.12,27.81-19.14,44.5-23.07A2.15,2.15,0,0,0,702.18,352.18Z"/><path class="cls-1" d="M502.84,872.38c-4-12.87-8.68-25-16.26-36.2A141.49,141.49,0,0,0,460,806.9c-23.05-19.33-51.13-31.33-79.79-39.71-8.58-2.51-17.23-4.64-26-6.52,22.62,8.65,54.65,22.64,76.19,39.33,36.48,28.27,46.05,47,46.05,47s-64.74-52.43-96.2-66.56a201.09,201.09,0,0,0-46.66-14.47c4.48,3.86,9.92,8.69,13.15,12,13.51,13.67,25.92,28.4,39.5,42.07a188.8,188.8,0,0,0,69.11,44.78A161.33,161.33,0,0,0,501,874.6,1.82,1.82,0,0,0,502.84,872.38Z"/></svg>