<?xml version="1.0" encoding="utf-8"?>
<!-- Generator: Adobe Illustrator 23.0.6, SVG Export Plug-In . SVG Version: 6.00 Build 0)  -->
<svg version="1.1" id="Layer_1" xmlns="http://www.w3.org/2000/svg" xmlns:xlink="http://www.w3.org/1999/xlink" x="0px" y="0px"
	 viewBox="0 0 700 1080" style="enable-background:new 0 0 700 1080;" xml:space="preserve">
<style type="text/css">
	.st0{clip-path:url(#SVGID_2_);}
	.st1{fill:#D7871A;}
</style>
<title>accent</title>
<g>
	<defs>
		<rect id="SVGID_1_" width="699.7" height="1080"/>
	</defs>
	<clipPath id="SVGID_2_">
		<use xlink:href="#SVGID_1_"  style="overflow:visible;"/>
	</clipPath>
	<g class="st0">
		<path class="st1" d="M-34.3,352.8c45.5-0.3,49.3,62.8,50.4,96.1c0.2,5.1,0.5,10.2,0.9,15.3c5.9-1,12-1.4,18-1.2l-0.1-0.5
			c-0.4-3.1-0.7-6.2-1.1-9.4c0,0.2-0.4-3.5-0.5-3.7c-2.6-42.9-11.3-111.1-67.9-110c-23.5,0.5-44.9,13.8-55.8,34.7
			c-12.6,22.2-10,51.4,9.2,68.6c19.4,17.5,54,11.3,57-17.4c0.9-8.7-0.5-17.6-7.6-23.6c-10-8.4-25.9-5.3-25.4,8.9c0,0.5,0,1,0.1,1.5
			c-0.4-14.1,14.2-17.6,23.5-8.7c6.1,5.8,6.6,13.9,5.3,21.7c-3.3,19.6-25.7,26.2-40.7,16.9c-17.5-10.8-23.2-31.7-17-51
			C-78.5,368.2-58.4,353-34.3,352.8z"/>
		<path class="st1" d="M-112.1,319.7c-16.6,20.3-23.5,44-21.9,69.9c2.8-12.5,7.1-24.5,12.8-35.9c6.9-10.6,14.7-19.2,23.6-28.1
			C-63,300.6-7.5,302.4,24,332.3c17.9,17,29.6,37,38,60.2c7.3,20.1,10.9,41.1,14.9,62c2.7-27,1.7-53.7-5.9-79.9
			s-22.6-50.3-44.8-66.2c-11.2-8.1-24-13.8-37.4-16.9c-2.9-8.1-4.9-16.3-4.4-25.4c0.9-14.6,6.9-28.5,16.9-39.2
			c8.9-10,20.8-18.2,33.9-21.6c14.2-3.7,27-1.3,40.5,3.4c-22.1-29.4-64.7-22-87.8,1.9c-21.2,21.9-25.8,55.6-8.8,79
			c-11.5-1.7-23.2-1.6-34.8,0.1C-77.1,292.9-98.3,302.8-112.1,319.7z"/>
		<path class="st1" d="M-238,693.5c-1.9,4.7-2.5,10.2,2.1,13.5c3.4,2.4,8.5,1.7,12.4,2.3c17.4,2.8,33.6,11,46.9,22.4
			c9.5,9.8,16.7,21.1,24.9,32c11.4,15.2,24.7,29.1,41.1,38.9c41.5,24.7,90.1,13.8,128.4-11.5c-9.2,3.1-18.5,6.1-28,8.3
			c-27.4,6.5-57,6.8-82.2-7.1c-16.8-9.2-30.5-23.7-41.5-39.2c-9.4-13.3-17.8-27.6-30.4-38.2c-14.9-12.5-33-20.6-52.2-23.5
			c5.7-5.5,14.7-9.2,20.5-11c8.1-2.5,16.6-3.6,25.1-3.1c11.5,0.5,22.1,4.1,31.9,9.3c5.5,14.1,12.6,27.5,21.1,40
			c30,44.9,84.5,60.7,135.8,64.3c-4.6-1.8-9.3-3.6-13.9-5.4c-26.2-9.9-52.9-20.7-75.3-38c-17.9-13.8-30-31.8-40.4-51.7
			C-125.9,670-133,640.8-130,611c2.6-25.8,9.3-50.3,15.6-75.3c-12.8,20.6-23.9,42.7-29.4,66.5c-5.6,24.3-5.9,48.7,0.7,72.6
			c-17.2-21.7-33.3-45.9-42-72c-5-15-5.1-28.8,0.2-43.7c4.4-12,11-23.1,18.4-33.5c11.1-15.4,22.6-30.5,31.5-47.3
			c4.7-9.2,7.7-19.2,8.7-29.4c3.2,5.7,6,11.6,8.4,17.7c8.9,22.4,11.6,46.1,3.6,69.2c24.8-37,8.2-83.6-10.8-119
			c-3-5.6-5.7-15.1-12.5-16.5c-4.5-0.9-8.9,1.7-10.4,6c-1.2,3.6,0.5,7.5,1.2,11c3.3,17.3,1.1,35.3-6.3,51.3
			c-10.2,20.7-26.5,38-37.9,58c-9,15.7-16.2,34.7-15.1,53.2c1.3,22.3,13.4,43.1,26.2,60.8c8.8,12.1,18.6,23.4,29.4,33.8
			c-4.4-2.4-9.2-4.3-14.1-5.5c-16.6-4.3-34.4-3.9-50.2,3.3C-224.5,676.5-233.9,683.4-238,693.5z"/>
		<path class="st1" d="M56.9,282.3c-7.2,22.1,7.3,41.2,20.1,57.6c23.4,29.7,36.4,65.9,51.5,100.1c-1.7-14.2-3.9-28.6-7.9-42.4
			c-4-14.6-8.4-29.2-15-42.9c-6.4-13.4-14.2-25.5-22.3-37.8c-6.4-9.7-13.2-27.1-1.5-35.8c5.5-4.3,13-4.7,19.5-2.6
			c5.3,1.7,9.7,6.8,15.6,5.7c5.5-1,9.2-6.4,8.1-11.9c-0.1-0.4-0.2-0.8-0.3-1.1c-1.7-5.4-8.2-9.4-11.5-14
			c-8.4-11.7-12.1-26.1-13.1-40.2c-1.1-15.2,0.7-30.4,5.2-45c3.3-10.7,10-29.4,23.1-31.1c-0.4-0.1-0.8-0.1-1.1-0.2
			c-12.7-1.3-23.4,14.8-28.7,24.2c-6.8,12.4-11.3,25.9-13.2,39.9c-2.4,17.5-0.9,36,5.9,52.2C76.3,257.6,62.2,265.9,56.9,282.3z"/>
		<path class="st1" d="M-103,122.1c10.4-17.8,26-28.9,45.7-34.3c23.9-6.5,49.5-3.1,67.7,14.7c18.2,19.6,9,55.8-17.9,63.3
			c-14.5,4.1-28.7-3.3-35.3-16.6c-2.9-5.8-4.5-13.2-1.4-19.2c3-5.8,9.5-8.1,15.6-8.8c-9.5-1-18.7,2.7-21.9,12.3s0.1,20.8,5.6,29
			c12.1,18,34.7,21.7,53.6,12.7c19.4-9.2,30.4-30.8,29.9-51.8c-0.5-14.9-6.9-29-18-39C-1.3,64-33,59.9-61.2,67.6
			c-26.5,7.3-47.7,24.3-59.4,49.3c-23.7,50.9-4.8,112.9,37,148C-114.5,225.5-129.7,168-103,122.1z"/>
		<path class="st1" d="M-136.6,68.2c16.6-20.1,38.1-37,62.1-47.3c12.7-5.5,26.2-9.2,39.9-10.8c11.9-1.3,23.4-0.3,35.1,1.1
			C-28.6-2-59.9-1.6-89.8,9.8c-38.9,14.9-71.1,46.5-87.6,84.8c-9.9,22.7-13.2,47.6-9.6,72.1c1.8,12.2,5.8,24,11.6,34.8
			c-10.7-10.3-23.8-17.9-38-22.1c-26.4-7.7-59.8-0.8-71.7,26.6c-8.9,20.3-6.7,49.5,17.4,57.7c12.6,4.2,27.9,1.2,37.4-8.4
			c8.3-8.4,9.5-20.8,2.4-30.3c0.9,7.3-0.1,14.9-6.2,19.8s-15.3,6.2-22.9,4.1c-14.7-4.2-13.8-20.2-10.1-31.7
			c7.5-24.3,38.7-25.4,59-19.7c22.1,6.3,40.3,20.6,56.6,36.2c-7.8-15.5-15.6-31.3-18.4-48.6c-4.2-26.2-2.4-53.7,9.2-78.1
			C-154.6,93-146.4,79.9-136.6,68.2z"/>
		<path class="st1" d="M-102.2,829.1c-16.5-7.3-29.3-18.1-42.3-30.5c-17.8-17-35.9-34.4-60.8-39.8c8.8,6.6,16.9,14,24.2,22.2
			c9.1,10.5,17.1,21.9,26,32.5c11.6,13.9,24.8,26.2,41.6,33.5c39.4,17,92.1,11.4,123.9-18.6C-26.1,841.1-65.7,842.2-102.2,829.1z"/>
		<path class="st1" d="M113.4,782.2c-0.3-23,10.1-43.3,15.1-65.2c-21.1,14.2-36.3,39.9-35.9,65.6c0.4,25.3,16.9,48,36.5,63.1
			c0.5,0.3,1.1,0.3,1.5,0c19.5-15.1,36-37.8,36.5-63.1c0.4-25.7-14.8-51.4-35.9-65.6c5,21.9,15.4,42.2,15.1,65.2
			c-0.3,21.3-11.6,39.7-16.4,59.9C125,821.9,113.7,803.5,113.4,782.2z"/>
		<path class="st1" d="M97.7,595c-13.2-8.1-28.6-11.7-44-10.4c-12.5,1.1-28.1,5.2-35.8,15.9c21.3-5.2,47.6,0.1,66.5,10.8
			c11.2,6.3,19.2,15.1,27.1,25c6.5,9.7,11.3,20.1,17.1,30.2C133.9,639.2,121.5,609.6,97.7,595z"/>
		<path class="st1" d="M75.7,661.8c-6.9-6.9-17.3-10.1-26.5-5.7c-8.2,4-14.1,14.7-7.6,22.7c2.5-4.1,6.2-8.9,11.8-7.5
			c2.5,0.6,4,1.8,5.9,3.1c7.4,10.6,6,21.7,3.2,33.9C83.4,705.4,89.4,675.5,75.7,661.8z"/>
		<path class="st1" d="M-30.9,147.3c0.6,7.6,6.5,12.8,13.8,13.8c9.4,0.9,17.9-5.2,21.9-13.4c4-8.4,2.9-19.5-4.8-25.4
			c-6.2-4.7-14.4-4-20.3,0.6c2.5,2.3,5.6,4.3,7.4,7.3c2.2,2.6,0.1,6.1-1.1,8.6C-18,146.8-22.1,148-30.9,147.3z"/>
		<path class="st1" d="M316.5,412.2c0.1-0.5,0.1-1,0.1-1.5c0.5-14.3-15.4-17.4-25.4-8.9c-7.1,6-8.5,14.9-7.6,23.6
			c3.1,28.7,37.6,34.9,57,17.4c19.2-17.3,21.9-46.5,9.2-68.6c-10.9-20.8-32.2-34.1-55.8-34.7c-56.6-1-65.3,67.1-67.9,110.1
			c-0.1,0.3-0.5,4-0.5,3.7c-0.4,3.1-0.7,6.2-1.1,9.4c0,0.2,0,0.3-0.1,0.5c6-0.2,12.1,0.3,18,1.2c0.4-5.1,0.7-10.3,0.9-15.3
			c1.1-33.4,4.9-96.5,50.4-96.1c24,0.2,44.2,15.4,51.5,38.3c6.2,19.3,0.5,40.2-17,51c-15,9.3-37.5,2.7-40.7-16.9
			c-1.3-7.8-0.9-15.9,5.3-21.7C302.4,394.6,316.9,398.1,316.5,412.2z"/>
		<path class="st1" d="M224.3,205.3c13.1,3.4,25,11.6,33.9,21.6c10,10.7,16,24.6,16.9,39.2c0.5,9-1.5,17.2-4.4,25.3
			c-13.5,3.1-26.2,8.9-37.4,16.9c-22.2,16-37.3,40.1-44.8,66.2s-8.6,52.9-5.9,79.9c4-20.9,7.6-41.9,14.9-62
			c8.4-23.1,20.1-43.2,38-60.2c31.5-29.9,87-31.7,121.6-6.8l-0.4-0.4c9.1,9,17,17.8,24,28.6c5.8,11.4,10.1,23.5,12.8,35.9
			c1.6-25.9-5.3-49.6-21.9-69.9c-13.9-17-35-26.8-56.6-30c-11.5-1.8-23.2-1.8-34.8-0.1c17-23.4,12.4-57.1-8.8-79
			c-23.1-23.9-65.7-31.3-87.8-1.9C197.3,204,210.1,201.6,224.3,205.3z"/>
		<path class="st1" d="M85.7,143.8c8.4-20.2,24-38.2,44.1-47.3c20.1,9.1,35.6,27.1,44.1,47.3c4.5,10.7,7.3,22.1,8.5,33.6
			c1.1,10.4,0.7,20.9,1.4,31.4c16.7-21,18.9-50.8,8.5-75c-5.8-12.9-15.2-23.8-27.1-31.4c-10.1-6.3-23.5-10.5-35.4-7.1
			c-11.8-3.4-25.2,0.8-35.4,7.1c-11.9,7.6-21.4,18.5-27.1,31.4c-10.5,24.2-8.2,54.1,8.5,75c0.8-10.4,0.4-20.9,1.4-31.4
			C78.4,165.8,81.2,154.5,85.7,143.8z"/>
		<path class="st1" d="M-4.3,763.4c20.1,5.1,41,2.3,60-5.3c-5.3,8.5-8.8,18.1-8.8,28c-0.7,15.4,4.1,29.8,11.8,42.8
			c9.6,16.2,23.3,29.6,37.2,42.1c11.6,10.4,24.7,20.3,32.5,33.9c1.1,1.1,1.8,1.3,2.6,0c7.9-13.6,20.9-23.5,32.5-33.9
			c13.9-12.5,27.6-25.9,37.2-42.1c7.8-13.1,12.6-27.5,11.8-42.8c0-9.9-3.5-19.5-8.8-28c19,7.7,39.9,10.4,60,5.3
			c27.3-6.9,49-26.9,63.5-50.3c25.2-40.4,31.8-90.5,19.9-136.3c-3.4-13.1-9.9-26.4-16.7-37.9c-14.7-24.9-36.2-44.9-62.7-56.7
			c-30.5-13.6-77.1-12.1-100.2,6.2C154,499.2,146,516.7,149,533.8c3.5,19.8,21.4,32.7,41,30.8c24.1-2.3,36.7-24.8,43-45.7
			c1.4-4.7,2.6-9.4,3.7-14.2c-5.9-1.9-12.2-1.8-18.4-2.1c-1,4.4-2.3,8.7-3.7,12.9c-5.1,14.9-18.9,38.5-37.9,27.1
			c-8.2-4.9-9.6-15.7-7.1-24.2c2.8-9.6,11.3-15.9,20.1-19.5c23.1-9.6,59.3-9.6,95.5,17.7c20.3,15.3,35.5,40.6,42.4,65.1
			c10.4,38.6,6.1,80.7-13,116.1c-11.6,21.5-29.5,40.7-53.3,48.2c-18.6,5.8-36.8,2.6-54.6-3.9c-25.5-11.5-50.5-32.2-48.9-63.9
			c1.3-24.5,19.1-44.4,43.5-47.2c13.6-1.5,29.1,3,38.6,12.8c12.2,12.7,17.7,33.1,11.4,49.9c-7,18.5-25.6,25.6-43.8,27.7
			c19.1-0.9,38.6-7,47.2-25.9c10.9-23.9-0.4-56-23.9-67.6c-10.8-5.3-22.9-7.3-34.9-6c-25.5,3.1-45,24.1-49.7,48.8
			c-7,36.8,17.6,67.2,48.4,83c2.3,9.8,3.9,19.5,2.8,30c-1.9,17.2-12.1,32.5-22.4,45.8c-10.6,13.8-22.6,26.6-32.6,40.9
			c-5.1,7.4-10.3,15.7-12.6,24.6c-2.4-8.9-7.5-17.2-12.6-24.6c-10-14.3-21.9-27.1-32.6-40.9c-10.3-13.3-20.5-28.6-22.4-45.8
			c-1.1-10.5,0.5-20.2,2.8-30c30.9-15.8,55.4-46.2,48.4-83c-4.7-24.7-24.2-45.7-49.7-48.8c-12-1.3-24.1,0.7-34.9,6
			C5.3,639.8-5.9,671.8,5,695.7c8.6,18.8,28.1,25,47.2,25.9c-18.2-2.2-36.8-9.3-43.8-27.7c-6.3-16.8-0.8-37.2,11.4-49.9
			c9.5-9.9,25-14.4,38.6-12.8c24.4,2.8,42.2,22.6,43.5,47.2c1.7,31.7-23.4,52.5-48.9,63.9c-17.8,6.4-36,9.7-54.7,3.9
			c-23.8-7.4-41.7-26.7-53.3-48.2c-19.1-35.4-23.4-77.5-13-116.1c6.8-24.6,22-49.8,42.3-65.1c36.2-27.3,72.4-27.3,95.5-17.7
			c8.9,3.7,17.3,10,20.1,19.5c2.5,8.5,1,19.3-7.2,24.2c-19,11.4-32.8-12.2-37.9-27.1c-1.4-4.3-2.7-8.6-3.7-13
			c-6.2,0.3-12.5,0.2-18.4,2.1c1.1,4.8,2.3,9.6,3.7,14.2c6.2,20.9,18.9,43.4,43,45.7c19.6,1.8,37.5-11,41-30.8
			c3-17.2-4.9-34.6-18.6-45.5c-23-18.3-69.7-19.8-100.2-6.2C-34.8,494-56.3,514-71,538.9c-6.9,11.6-13.3,24.8-16.7,37.9
			c-11.9,45.8-5.3,95.9,19.9,136.3C-53.3,736.5-31.6,756.5-4.3,763.4z"/>
		<path class="st1" d="M330.9,747.8c-22.4,17.3-49.1,28-75.3,38c-4.6,1.8-9.3,3.6-13.9,5.4c51.2-3.7,105.8-19.4,135.8-64.3
			c8.5-12.5,15.6-25.9,21.1-40c9.9-5.2,20.4-8.8,31.9-9.3c8.5-0.5,17,0.6,25.1,3.1c5.7,1.8,14.8,5.6,20.5,11
			c-19.2,2.9-37.3,11-52.2,23.5c-12.6,10.6-21,24.9-30.4,38.2c-11,15.5-24.7,29.9-41.5,39.2c-25.2,13.9-54.9,13.7-82.2,7.1
			c-9.5-2.3-18.7-5.2-28-8.3c38.3,25.3,86.8,36.3,128.3,11.5c16.4-9.8,29.7-23.8,41.1-38.9c8.2-10.9,15.4-22.1,24.9-32
			c13.3-11.4,29.5-19.6,46.9-22.4c3.9-0.6,9,0,12.4-2.3c4.6-3.3,4-8.8,2.1-13.5c-4-10.1-13.5-17.1-23.1-21.4
			c-15.9-7.2-33.6-7.6-50.2-3.3c-4.9,1.2-9.7,3.1-14.1,5.5c10.8-10.4,20.6-21.7,29.4-33.8c12.9-17.7,24.9-38.5,26.2-60.8
			c1.1-18.5-6.1-37.4-15.1-53.2c-11.4-20-27.7-37.3-37.9-58c-7.4-16-9.6-34-6.3-51.3c0.7-3.5,2.4-7.4,1.2-11
			c-1.5-4.3-5.9-6.9-10.4-6c-6.8,1.4-9.5,10.9-12.5,16.5c-19,35.4-35.6,82-10.8,119c-8-23.1-5.3-46.8,3.6-69.2
			c2.4-6.1,5.3-12,8.4-17.7c1,10.3,3.9,20.3,8.6,29.4c9,16.8,20.5,31.9,31.5,47.3c7.5,10.4,14,21.5,18.5,33.5
			c5.3,14.9,5.2,28.7,0.2,43.7c-8.8,26.2-24.8,50.4-42,72c6.7-23.9,6.4-48.2,0.7-72.6c-5.5-23.8-16.6-45.8-29.4-66.5
			c6.4,25,13,49.5,15.6,75.3c3,29.8-4.1,59-18.2,85.2C361,716,348.8,734,330.9,747.8z"/>
		<path class="st1" d="M153.9,354.8c-6.5,13.7-10.9,28.3-14.9,42.9c-4,13.7-6.2,28.2-7.9,42.4c15-34.2,28.1-70.4,51.5-100.1
			c12.9-16.4,27.3-35.4,20.1-57.6c-5.3-16.3-19.4-24.6-34.5-25.3c6.8-16.2,8.4-34.6,5.9-52.2c-1.9-14-6.4-27.5-13.2-39.9
			c-5.3-9.3-16-25.5-28.7-24.2c-0.4,0-0.8,0.1-1.1,0.2c13.2,1.6,19.9,20.4,23.2,31.1c4.5,14.6,6.2,29.8,5.2,45
			c-1,14.1-4.7,28.6-13.1,40.2c-3.3,4.6-9.8,8.6-11.5,14c-1.7,5.4,1.4,11.1,6.7,12.7c0.4,0.1,0.7,0.2,1.1,0.3
			c5.9,1,10.3-4.1,15.6-5.7c6.5-2,14-1.7,19.5,2.6c11.8,8.7,4.9,26.1-1.5,35.8C168.1,329.3,160.3,341.3,153.9,354.8z"/>
		<path class="st1" d="M316.6,618.5c-1.7-30.9-17.6-67.8-50.5-75.9c8.8,9.9,16.4,20.1,21,32.7c5.3,14.7,8.3,30.2,8.8,45.9
			c0.8,29.3-4.5,57.8-21.7,82C306.6,691,318.4,649.8,316.6,618.5z"/>
		<path class="st1" d="M507.1,539.6c-3.5,34.1-13.9,66.1-28.9,96.8c75.3-92.5,58.7-237.1-23.2-320.3
			c-29.8-30.2-68.8-51.1-111.8-51.2C459.4,292.6,518.3,429.4,507.1,539.6z"/>
		<path class="st1" d="M567.7,482.5c5-1,8.7-7,11.8-10.6c15.8-18,31.9-35.7,50.5-50.8c13.1-10.7,28-20.2,44.7-24
			c6.8-1.4,13.9-1.6,20.8-0.6c-20.8-6.6-41-0.3-59.7,9.7c-22.2,11.9-40.4,28.6-58.4,45.7c1.7-29.1-3.7-58.6-12.6-86.3
			c-7.7-23.6-18.6-48.4-36.1-66.6c7.6-2.4,17.8-0.2,24.3,1.8c9.1,2.9,17.5,7.7,24.6,14.1c13.4,12.2,20.7,29.8,19.7,47.9
			c-0.2,4.6-0.2,10,5.5,11.1c4,0.8,6.3-2.1,9.2-4.2c3.8-2.9,7.9-5.3,12.3-7.2c9-3.8,18.7-5.7,28.5-5.6c10.6,0,21.7,3.7,29.6,10.8
			c8.4,7.5,11.7,17.9,13.1,28.8c0.6-11.2-1.3-22.3-8.4-31.2c-7.9-10.2-20-15.3-32.3-17.5c-14.5-2.6-29.6,0.1-42.8,6.4
			c-0.2-15-3.9-29.4-13-42.1c-12.9-18-33.7-31.1-55.8-33.5c-12.7-1.4-26.7,0.8-35.8,10.5c-3.8,4.1-6.5,9.4-3.1,14.7
			c2.2,3.3,6,5.5,8.7,8.4c12.9,14.1,21.4,31.5,28.5,49.1c8.8,21.9,14.6,44.9,17.2,68.4c0.9,7.5,1.3,15,1.2,22.6
			c-0.1,7.1-1.4,14-1.8,21c-0.6,4.5,2.6,8.7,7.1,9.3C566,482.6,566.9,482.6,567.7,482.5z"/>
		<path class="st1" d="M220.9,123.4c-0.5,21,10.5,42.6,29.9,51.8c19,9,41.5,5.3,53.6-12.7c5.5-8.2,8.8-19.2,5.6-29
			s-12.4-13.3-21.9-12.3c6.1,0.7,12.6,3,15.6,8.8c3.1,6,1.5,13.5-1.4,19.2c-6.7,13.3-20.9,20.7-35.4,16.6
			c-26.9-7.6-36.1-43.7-17.9-63.3c18.2-17.8,43.8-21.2,67.7-14.7c19.7,5.3,35.3,16.4,45.7,34.3C389.3,168,374,225.5,343.2,265
			c41.8-35.1,60.7-97.2,37-148c-11.6-25-32.9-42.1-59.4-49.3c-28.2-7.7-59.9-3.6-81.9,16.8C227.9,94.5,221.4,108.6,220.9,123.4z"/>
		<path class="st1" d="M-26.4,887.5c-13.3,16.4-11.9,39.6-3.3,57.9c9.6,20.3,31.5,30.7,51,39.4c26.3,11.8,54.3,21.7,76.4,40.9
			c16.2,14.1,25.3,31.7,30.6,51.5c0.8,2,2.2,2,3,0c5.3-19.8,14.4-37.4,30.6-51.5c22.1-19.2,50.1-29.1,76.4-40.9
			c19.5-8.7,41.4-19.1,51-39.4c8.6-18.3,10-41.5-3.3-57.9c-23.3-28.7-64.1-15.7-90.5,0.1c-18.7,11-34.9,25.8-47.5,43.5
			c-10.8,15.3-19.6,33.9-16.9,53.1c2.4-26.5,23.1-48.4,43.2-64.1c11.4-8.9,23.9-16.3,37.3-22c10.6-4.4,22.5-8.5,34.1-8.3
			c12.6,0.2,25.2,6.3,28.6,19.3c2.3,8.9,0,18.3-3.4,26.6c-7,17.2-29.6,26.3-45.5,34.2c-24.3,12-49.4,24.2-68.7,43.5
			c3.6-4.9,7.8-9.3,12.5-13.1c17.3-13.6,49.4-28.1,47-54.7c-0.7-8.1-4.6-15.8-12.6-18.9c-12.2-4.8-25.9,2.8-35.8,9.4
			c-9.1,6.1-16.9,13.8-23.1,22.7c-7.4,10.7-14.4,23.7-14.8,37.1c-0.1,0-0.1,0-0.2,0c-0.4-13.4-7.3-26.4-14.8-37.1
			c-6.2-9-14-16.7-23.1-22.7c-9.9-6.7-23.6-14.2-35.8-9.4c-8,3.1-11.9,10.8-12.6,18.9c-2.4,26.6,29.7,41.1,47,54.7
			c4.7,3.8,8.9,8.2,12.5,13.1c-19.3-19.3-44.4-31.5-68.7-43.5c-15.8-7.8-38.5-17-45.5-34.2c-3.4-8.3-5.6-17.7-3.3-26.6
			c3.4-13,16-19.1,28.6-19.3c11.6-0.2,23.5,3.9,34.1,8.3c13.3,5.7,25.9,13.1,37.3,22c20.1,15.6,40.8,37.5,43.2,64.1
			c2.7-19.2-6.1-37.7-16.9-53.1c-12.6-17.6-28.8-32.4-47.5-43.5C37.7,871.9-3.1,858.8-26.4,887.5z M81.8,969.9
			c-6-5.1-17.9-13.5-17.7-22.5c0.1-0.7,0.3-1.4,0.3-2c8-0.8,17.8,5.9,24.2,9.7c4,2.4,7.8,5.2,11.4,8.3
			c12.6,11.1,25.6,25.1,28.5,42.2c0.7,0.7,1.8,0.7,2.5,0.1c0,0,0,0,0.1-0.1c2.9-17.1,15.9-31.1,28.5-42.2c3.5-3.1,7.3-5.9,11.4-8.3
			c6.4-3.8,16.2-10.5,24.2-9.7c0.1,0.7,0.2,1.4,0.3,2c0.2,9-11.7,17.4-17.7,22.5c-8.2,7-17.6,13.5-24.2,22.2
			c-12.3,15.8-22.8,66.8-23.8,72.5c-1-5.8-11.5-56.8-23.8-72.5C99.4,983.4,90.1,976.9,81.8,969.9z"/>
		<path class="st1" d="M436.9,94.6c-16.4-38.2-48.7-69.8-87.6-84.8C319.5-1.6,288.2-2,259,11.3c11.8-1.5,23.3-2.4,35.1-1.1
			c13.8,1.6,27.2,5.2,39.9,10.8c24,10.3,45.5,27.1,62.1,47.3c9.8,11.7,17.9,24.8,24.1,38.8c11.7,24.3,13.4,51.9,9.2,78.1
			c-2.8,17.4-10.6,33.1-18.4,48.6c16.3-15.6,34.5-30,56.6-36.2c20.3-5.8,51.4-4.6,59,19.7c3.7,11.5,4.6,27.6-10.1,31.7
			c-7.5,2.1-16.7,0.9-22.9-4.1s-7.1-12.5-6.2-19.8c-7.1,9.5-5.9,21.9,2.4,30.3c9.5,9.6,24.7,12.6,37.4,8.4
			c24.1-8.1,26.3-37.3,17.4-57.7c-12-27.5-45.3-34.3-71.7-26.6c-14.2,4.3-27.3,11.9-38,22.1c5.8-10.8,9.8-22.6,11.6-34.8
			C450.1,142.2,446.8,117.2,436.9,94.6z"/>
		<path class="st1" d="M361.8,829.1c-36.5,13.1-76.1,12-112.5-0.8c31.8,30,84.4,35.6,123.9,18.6c16.8-7.2,30-19.6,41.6-33.5
			c8.9-10.7,16.9-22,26-32.5c7.3-8.2,15.4-15.6,24.2-22.2c-24.8,5.4-42.9,22.8-60.8,39.8C391,811,378.3,821.7,361.8,829.1z"/>
		<path class="st1" d="M148.1,636.3c7.9-9.9,15.9-18.7,27.1-25c18.9-10.7,45.2-16,66.5-10.8c-7.7-10.7-23.4-14.9-35.8-15.9
			c-15.4-1.3-30.8,2.4-44,10.4c-23.9,14.6-36.3,44.2-30.9,71.6C136.8,656.5,141.6,646,148.1,636.3z"/>
		<path class="st1" d="M206.2,671.3c5.6-1.4,9.3,3.4,11.8,7.5c6.5-8.1,0.6-18.7-7.6-22.7c-9.3-4.3-19.6-1.2-26.6,5.7
			c-13.7,13.8-7.6,43.7,13.3,46.5c-2.8-12.2-4.3-23.3,3.2-33.9C202.2,673,203.8,671.9,206.2,671.3z"/>
		<path class="st1" d="M444.7,414c14.8,38.7,25.3,78.1,33.5,118.7c9.9-40.8,1.1-85.8-13.4-124.4c-8.1-21.6-19-42.5-33-60.9
			c-12.3-16.2-28.2-32.5-48.7-37.1c14.9,11,25,26.9,33.8,43C427.7,372.7,436.6,393.1,444.7,414z"/>
		<path class="st1" d="M280,123c-5.9-4.6-14.2-5.3-20.3-0.6c-7.7,5.9-8.9,17-4.8,25.4c4,8.2,12.5,14.3,21.8,13.4
			c7.3-1,13.1-6.3,13.8-13.8c-8.7,0.7-12.9-0.5-16.8-8.5c-1.3-2.5-3.3-6-1.1-8.6C274.4,127.2,277.5,125.3,280,123z"/>
		<path class="st1" d="M362.9,167.4c-2-23.6-14.6-57.7-42.6-59.8c16.5,16.6,20.9,40,21.9,62.8c1.1,24.1-1.9,48.6-15.3,69
			C355.6,231.2,365.1,193.4,362.9,167.4z"/>
	</g>
</g>
</svg>
