<svg id="Layer_1" data-name="Layer 1" xmlns="http://www.w3.org/2000/svg" xmlns:xlink="http://www.w3.org/1999/xlink" viewBox="0 0 700 1080"><defs><style>.cls-1{fill:none;}.cls-2{clip-path:url(#clip-path);}.cls-3{fill:#d7871a;}</style><clipPath id="clip-path"><rect class="cls-1" width="699.71" height="1080" transform="translate(699.71 1080) rotate(-180)"/></clipPath></defs><title>accent</title><g class="cls-2"><path class="cls-3" d="M734.06,727.21c-45.5.33-49.27-62.8-50.41-96.15-.17-5.06-.47-10.19-.88-15.34a96.08,96.08,0,0,1-18,1.23l.06.51c.35,3.12.7,6.24,1.08,9.35,0-.23.39,3.47.45,3.74,2.61,42.9,11.33,111.06,67.91,110.05A64.65,64.65,0,0,0,790,705.93c12.63-22.18,10-51.36-9.22-68.65-19.39-17.48-54-11.27-57,17.42-.94,8.72.45,17.61,7.56,23.6,10,8.44,25.86,5.34,25.41-8.93a9.29,9.29,0,0,0-.1-1.53c.41,14.06-14.17,17.56-23.5,8.67-6.13-5.83-6.57-13.91-5.27-21.69,3.29-19.57,25.72-26.17,40.75-16.88,17.46,10.81,23.14,31.66,17,51C778.24,711.83,758.08,727,734.06,727.21Z"/><path class="cls-3" d="M811.83,760.3c16.57-20.26,23.47-43.95,21.91-69.85a153.12,153.12,0,0,1-12.82,35.92c-6.86,10.64-14.67,19.23-23.56,28.13-34.65,24.86-90.13,23.09-121.64-6.81-17.91-17-29.63-37-38-60.16-7.29-20.11-10.89-41.08-14.92-62-2.68,27-1.66,53.68,5.86,79.88s22.57,50.25,44.75,66.2a105.41,105.41,0,0,0,37.44,16.94c2.89,8.11,4.92,16.33,4.39,25.34a63,63,0,0,1-16.87,39.22c-8.93,10-20.8,18.18-33.9,21.59-14.21,3.7-27,1.25-40.51-3.45,22.06,29.42,64.66,22,87.77-1.88,21.16-21.88,25.82-55.59,8.79-79a118.5,118.5,0,0,0,34.77-.14C776.8,787.07,798,777.25,811.83,760.3Z"/><path class="cls-3" d="M937.69,386.48c1.87-4.69,2.51-10.22-2.13-13.52-3.37-2.4-8.46-1.73-12.34-2.35-17.41-2.77-33.62-11-47-22.41-9.53-9.84-16.7-21.1-24.89-32-11.42-15.15-24.71-29.14-41.14-38.93-41.55-24.76-90.06-13.77-128.34,11.53,9.23-3.11,18.48-6.07,28-8.33,27.38-6.54,57-6.77,82.23,7.13,16.76,9.24,30.52,23.66,41.5,39.15C843,340,851.39,354.36,864,364.92a105.62,105.62,0,0,0,52.23,23.47c-5.68,5.45-14.74,9.17-20.47,11a71.41,71.41,0,0,1-25.07,3.08c-11.5-.53-22.08-4.11-31.94-9.35a204.72,204.72,0,0,0-21.09-40c-30-44.93-84.53-60.65-135.76-64.35,4.63,1.84,9.28,3.62,13.93,5.41,26.19,9.94,52.9,20.7,75.25,37.95C789,346,801.12,364,811.47,383.84c14.07,26.22,21.21,55.43,18.2,85.24-2.6,25.79-9.26,50.25-15.64,75.27,12.82-20.61,23.94-42.66,29.43-66.45,5.63-24.35,5.95-48.66-.72-72.59C860,427,876,451.18,884.79,477.36c5,15,5.07,28.75-.2,43.67-4.4,12-11,23.13-18.45,33.5-11,15.37-22.54,30.5-31.47,47.26A81.17,81.17,0,0,0,826,631.21a163,163,0,0,1-8.41-17.69c-8.86-22.41-11.55-46.11-3.58-69.17-24.8,37-8.18,83.59,10.78,119,3,5.57,5.73,15.1,12.52,16.51a9.13,9.13,0,0,0,10.43-6c1.19-3.62-.54-7.46-1.19-11a84.51,84.51,0,0,1,6.3-51.33c10.19-20.7,26.49-38,37.91-58,9-15.74,16.22-34.7,15.13-53.16-1.32-22.35-13.36-43.07-26.23-60.8a255.17,255.17,0,0,0-29.44-33.81,58.4,58.4,0,0,0,14.08,5.48c16.63,4.33,34.4,3.94,50.25-3.29C924.17,403.54,933.65,396.59,937.69,386.48Z"/><path class="cls-3" d="M642.81,797.75c7.14-22.14-7.29-41.22-20.14-57.57-23.38-29.74-36.44-65.93-51.46-100.15,1.72,14.17,3.87,28.64,7.89,42.37,4,14.57,8.45,29.17,15,42.85,6.39,13.42,14.14,25.45,22.28,37.83,6.38,9.73,13.2,27.1,1.45,35.81-5.52,4.33-13,4.7-19.49,2.65-5.26-1.66-9.7-6.75-15.57-5.73a10.18,10.18,0,0,0-7.86,13c1.71,5.42,8.24,9.44,11.53,14,8.37,11.66,12.07,26.07,13.11,40.21a123.32,123.32,0,0,1-5.16,45c-3.28,10.67-10,29.45-23.15,31.06a9.68,9.68,0,0,0,1.12.16c12.72,1.34,23.43-14.83,28.73-24.16a114.93,114.93,0,0,0,13.2-39.85c2.45-17.54.91-36-5.93-52.18C623.4,822.36,637.53,814.09,642.81,797.75Z"/><path class="cls-3" d="M802.67,957.87c-10.36,17.82-26,28.93-45.7,34.26-23.94,6.48-49.55,3.09-67.72-14.67-18.15-19.63-9-55.76,17.91-63.34,14.5-4.1,28.7,3.34,35.35,16.59,2.89,5.76,4.52,13.22,1.39,19.23-3,5.8-9.51,8.1-15.64,8.84,9.52,1,18.74-2.7,21.94-12.34s-.07-20.75-5.6-29c-12.12-18-34.68-21.73-53.65-12.72-19.43,9.21-30.42,30.76-29.89,51.8a54.92,54.92,0,0,0,18,39c22,20.41,53.65,24.53,81.85,16.81,26.5-7.25,47.74-24.3,59.39-49.3,23.69-50.85,4.83-112.88-37-148C814.19,854.53,829.39,912,802.67,957.87Z"/><path class="cls-3" d="M836.36,1011.83c-16.59,20.12-38.1,37-62.13,47.25a140.24,140.24,0,0,1-39.94,10.77c-11.85,1.31-23.36.35-35.11-1.14,29.14,13.33,60.48,12.92,90.28,1.48,38.9-14.93,71.16-46.55,87.57-84.76a132.87,132.87,0,0,0,9.65-72.1,107,107,0,0,0-11.63-34.81,94.33,94.33,0,0,0,38,22.13c26.46,7.67,59.77.83,71.74-26.63,8.92-20.34,6.7-49.53-17.42-57.68-12.65-4.16-27.89-1.17-37.37,8.43-8.25,8.36-9.47,20.8-2.36,30.27-.91-7.34.12-14.93,6.23-19.84s15.34-6.2,22.85-4.06c14.66,4.16,13.75,20.24,10.08,31.74-7.53,24.25-38.71,25.45-59,19.7-22.09-6.27-40.28-20.59-56.56-36.24,7.83,15.51,15.64,31.3,18.43,48.65,4.2,26.21,2.42,53.74-9.19,78.08A163.83,163.83,0,0,1,836.36,1011.83Z"/><path class="cls-3" d="M801.94,250.93c16.52,7.34,29.25,18.07,42.33,30.53,17.82,17,35.93,34.4,60.75,39.82a162.59,162.59,0,0,1-24.15-22.17c-9.12-10.47-17.09-21.87-26-32.52-11.58-13.86-24.84-26.23-41.59-33.45-39.43-17-92.1-11.42-123.86,18.59C725.87,238.92,765.39,237.8,801.94,250.93Z"/><path class="cls-3" d="M586.3,297.81c.33,23-10.11,43.27-15.09,65.19,21.13-14.2,36.29-39.89,35.94-65.59-.41-25.32-16.93-48-36.46-63.09a1.57,1.57,0,0,0-1.53,0c-19.52,15.06-36,37.77-36.46,63.09-.35,25.7,14.81,51.39,35.95,65.59-5-21.92-15.43-42.18-15.09-65.19.29-21.32,11.59-39.68,16.37-59.89C574.71,258.13,586,276.49,586.3,297.81Z"/><path class="cls-3" d="M602.06,485a72.76,72.76,0,0,0,44,10.42c12.47-1.06,28.12-5.22,35.85-15.93-21.33,5.18-47.62-.14-66.53-10.83-11.17-6.31-19.19-15.13-27.08-25-6.53-9.71-11.31-20.12-17.08-30.24C565.81,440.77,578.2,470.37,602.06,485Z"/><path class="cls-3" d="M624,418.24c6.94,6.9,17.3,10.06,26.55,5.74,8.17-4,14.11-14.65,7.62-22.73-2.49,4.08-6.16,8.86-11.79,7.47-2.45-.6-4-1.77-5.91-3.14-7.44-10.62-6-21.65-3.17-33.88C616.35,374.58,610.28,404.45,624,418.24Z"/><path class="cls-3" d="M730.58,932.7c-.6-7.56-6.46-12.82-13.75-13.82-9.36-1-17.89,5.17-21.85,13.37-4,8.38-2.9,19.52,4.83,25.41,6.18,4.7,14.41,4,20.34-.62-2.53-2.34-5.63-4.26-7.46-7.28-2.17-2.58-.15-6.06,1.14-8.57C717.73,933.2,721.84,932,730.58,932.7Z"/><path class="cls-3" d="M383.2,667.84a8,8,0,0,0-.1,1.53c-.45,14.27,15.38,17.37,25.41,8.93,7.11-6,8.49-14.88,7.56-23.6C413,626,378.42,619.8,359,637.28c-19.18,17.29-21.85,46.47-9.22,68.65a64.63,64.63,0,0,0,55.79,34.67c56.58,1,65.31-67.15,67.92-110.05.06-.27.48-4,.45-3.74.37-3.11.72-6.23,1.08-9.35l.06-.51a96.13,96.13,0,0,1-18-1.23c-.4,5.15-.71,10.28-.88,15.34-1.13,33.35-4.9,96.48-50.4,96.15-24-.17-44.18-15.38-51.53-38.3-6.19-19.31-.51-40.16,17-51,15-9.29,37.46-2.69,40.74,16.88,1.31,7.78.87,15.86-5.26,21.69C397.36,685.4,382.79,681.9,383.2,667.84Z"/><path class="cls-3" d="M475.41,874.71c-13.1-3.41-25-11.56-33.9-21.59a63,63,0,0,1-16.87-39.22c-.53-9,1.5-17.23,4.38-25.34a105.46,105.46,0,0,0,37.45-16.94c22.17-16,37.27-40.13,44.75-66.2s8.54-52.88,5.85-79.88c-4,20.91-7.62,41.88-14.91,62-8.39,23.14-20.12,43.17-38,60.16-31.51,29.9-87,31.67-121.65,6.81l.42.43c-9.06-9-17-17.75-24-28.56a152.22,152.22,0,0,1-12.82-35.92c-1.56,25.9,5.33,49.59,21.9,69.85,13.86,17,35,26.77,56.57,30a118.43,118.43,0,0,0,34.76.14c-17,23.39-12.37,57.1,8.8,79,23.11,23.89,65.7,31.3,87.76,1.88C502.37,876,489.62,878.41,475.41,874.71Z"/><path class="cls-3" d="M614,936.24c-8.46,20.15-24,38.19-44.1,47.29-20.06-9.1-35.64-27.14-44.1-47.29a118.91,118.91,0,0,1-8.47-33.61c-1.08-10.45-.68-20.92-1.45-31.37-16.66,21-18.94,50.84-8.47,75a72,72,0,0,0,27.13,31.39c10.13,6.32,23.51,10.46,35.36,7.08,11.85,3.38,25.23-.76,35.36-7.08a72,72,0,0,0,27.12-31.39c10.47-24.2,8.19-54.06-8.47-75-.77,10.45-.36,20.92-1.45,31.37A118.89,118.89,0,0,1,614,936.24Z"/><path class="cls-3" d="M704,316.6c-20.11-5.11-41-2.35-60,5.31,5.3-8.48,8.77-18.13,8.81-28,.72-15.36-4.09-29.76-11.85-42.85-9.59-16.19-23.3-29.58-37.19-42.08-11.58-10.42-24.66-20.26-32.51-33.87-1.09-1.12-1.76-1.25-2.66,0-7.86,13.61-20.93,23.45-32.52,33.87-13.89,12.5-27.59,25.89-37.19,42.08-7.76,13.09-12.56,27.49-11.84,42.85,0,9.86,3.51,19.51,8.8,28-19-7.66-39.92-10.42-60-5.31-27.27,6.93-49,26.92-63.55,50.34-25.16,40.39-31.78,90.49-19.91,136.26,3.4,13.1,9.86,26.36,16.74,37.94C383.84,566,405.34,586,431.91,597.82c30.53,13.59,77.15,12.06,100.18-6.19,13.67-10.83,21.64-28.32,18.6-45.48-3.51-19.83-21.39-32.68-41-30.83-24.06,2.27-36.73,24.78-43,45.7-1.38,4.65-2.58,9.4-3.66,14.21,5.92,1.9,12.2,1.79,18.38,2.07,1.05-4.37,2.26-8.7,3.69-12.95,5.05-14.94,18.85-38.51,37.9-27.11,8.2,4.9,9.63,15.72,7.15,24.21C527.37,571,518.89,577.31,510,581c-23.06,9.57-59.3,9.57-95.48-17.69C394.22,548,379,522.73,372.19,498.16c-10.39-38.62-6.06-80.72,13-116.11,11.57-21.48,29.44-40.71,53.27-48.15,18.66-5.82,36.81-2.58,54.65,3.86C518.61,349.24,543.64,370,542,401.69c-1.28,24.51-19.07,44.37-43.47,47.15-13.56,1.55-29.1-3-38.6-12.85-12.21-12.71-17.71-33.14-11.38-49.9,7-18.46,25.56-25.57,43.77-27.72-19.08.9-38.63,7-47.19,25.89-10.88,23.94.38,56,23.95,67.6a63.74,63.74,0,0,0,34.88,6c25.49-3.07,45-24.07,49.7-48.77,7-36.75-17.56-67.21-48.42-83-2.28-9.83-4-19.47-2.81-30,1.85-17.2,12.08-32.48,22.36-45.82,10.63-13.81,22.59-26.57,32.55-40.89,5.14-7.39,10.26-15.71,12.61-24.58,2.35,8.87,7.46,17.19,12.61,24.58,10,14.32,21.92,27.08,32.55,40.89,10.27,13.34,20.51,28.62,22.36,45.82,1.13,10.54-.53,20.18-2.82,30-30.85,15.75-55.37,46.21-48.41,83,4.68,24.7,24.21,45.7,49.7,48.77a63.76,63.76,0,0,0,34.88-6c23.57-11.62,34.83-43.66,24-67.6-8.57-18.85-28.12-25-47.19-25.89,18.21,2.15,36.79,9.26,43.77,27.72,6.33,16.76.82,37.19-11.39,49.9-9.5,9.88-25,14.4-38.6,12.85-24.39-2.78-42.18-22.64-43.46-47.15-1.66-31.74,23.37-52.45,48.86-63.93,17.84-6.44,36-9.68,54.65-3.86,23.82,7.44,41.7,26.67,53.27,48.15,19.07,35.39,23.4,77.49,13,116.11-6.83,24.57-22,49.83-42.36,65.13-36.19,27.26-72.43,27.26-95.49,17.69-8.86-3.67-17.34-10-20.14-19.53-2.48-8.49-1-19.31,7.15-24.21,19-11.4,32.86,12.17,37.9,27.11,1.44,4.25,2.65,8.58,3.7,12.95,6.18-.28,12.46-.17,18.38-2.07-1.09-4.81-2.28-9.56-3.67-14.21-6.23-20.92-18.9-43.43-43-45.7-19.62-1.85-37.5,11-41,30.83-3,17.16,4.92,34.65,18.59,45.48,23,18.25,69.65,19.78,100.18,6.19C734.52,586,756,566,770.77,541.14c6.88-11.58,13.34-24.84,16.74-37.94,11.86-45.77,5.25-95.87-19.91-136.26C753,343.52,731.31,323.53,704,316.6Z"/><path class="cls-3" d="M368.78,332.18c22.34-17.25,49.06-28,75.24-37.95,4.65-1.79,9.31-3.57,13.94-5.41-51.24,3.7-105.81,19.42-135.76,64.35a204.18,204.18,0,0,0-21.09,40c-9.86,5.24-20.44,8.82-31.94,9.35a71.41,71.41,0,0,1-25.07-3.08c-5.74-1.84-14.79-5.56-20.48-11a105.61,105.61,0,0,0,52.24-23.47c12.61-10.56,21-24.89,30.41-38.15,11-15.49,24.74-29.91,41.5-39.15C373,273.72,402.62,274,430,280.49c9.48,2.26,18.73,5.22,28,8.33-38.29-25.3-86.79-36.29-128.34-11.53-16.43,9.79-29.72,23.78-41.14,38.93-8.19,10.88-15.36,22.14-24.9,32-13.32,11.37-29.54,19.64-46.94,22.41-3.88.62-9-.05-12.35,2.35-4.63,3.3-4,8.83-2.12,13.52,4,10.11,13.51,17.06,23.12,21.43,15.85,7.23,33.62,7.62,50.24,3.29a58.31,58.31,0,0,0,14.09-5.48,254.44,254.44,0,0,0-29.44,33.81C247.3,457.26,235.27,478,234,500.33c-1.09,18.46,6.15,37.42,15.13,53.16,11.41,20,27.72,37.31,37.9,58a84.44,84.44,0,0,1,6.31,51.33c-.66,3.55-2.38,7.39-1.19,11a9.13,9.13,0,0,0,10.43,6c6.79-1.41,9.54-10.94,12.52-16.51,19-35.43,35.57-82,10.77-119,8,23.06,5.29,46.76-3.57,69.17a163,163,0,0,1-8.41,17.69,81.38,81.38,0,0,0-8.66-29.42c-8.92-16.76-20.41-31.89-31.46-47.26-7.46-10.37-14.05-21.48-18.46-33.5-5.26-14.92-5.2-28.71-.19-43.67,8.78-26.18,24.83-50.37,42-72.05-6.66,23.93-6.34,48.24-.72,72.59,5.5,23.79,16.62,45.84,29.43,66.45-6.37-25-13-49.48-15.63-75.27-3-29.81,4.13-59,18.2-85.24C338.73,364,350.89,346,368.78,332.18Z"/><path class="cls-3" d="M545.79,725.25c6.52-13.68,11-28.28,15-42.85,4-13.73,6.18-28.2,7.9-42.37-15,34.22-28.08,70.41-51.47,100.15-12.85,16.35-27.27,35.43-20.13,57.57,5.28,16.34,19.41,24.61,34.48,25.29-6.84,16.17-8.39,34.64-5.94,52.18a114.93,114.93,0,0,0,13.2,39.85c5.3,9.33,16,25.5,28.73,24.16a10.13,10.13,0,0,0,1.13-.16c-13.19-1.61-19.87-20.39-23.15-31.06a123.11,123.11,0,0,1-5.16-45c1-14.14,4.74-28.55,13.1-40.21,3.3-4.6,9.82-8.62,11.54-14a10.18,10.18,0,0,0-7.87-13c-5.86-1-10.31,4.07-15.57,5.73-6.49,2.05-14,1.68-19.49-2.65-11.74-8.71-4.93-26.08,1.46-35.81C531.64,750.7,539.4,738.67,545.79,725.25Z"/><path class="cls-3" d="M383.07,461.53c1.71,30.93,17.62,67.82,50.55,75.92-8.85-9.92-16.38-20.06-21-32.68a148.57,148.57,0,0,1-8.78-45.9c-.82-29.31,4.47-57.81,21.67-82C393.13,389,381.34,430.22,383.07,461.53Z"/><path class="cls-3" d="M192.59,540.36c3.44-34.12,13.94-66.11,28.92-96.8-75.27,92.5-58.69,237.13,23.24,320.29,29.76,30.21,68.77,51.06,111.79,51.2C240.3,787.42,181.46,650.61,192.59,540.36Z"/><path class="cls-3" d="M132,597.53c-5,1-8.67,7-11.84,10.6-15.78,18-31.91,35.69-50.51,50.8-13.14,10.68-28,20.17-44.68,24a58.64,58.64,0,0,1-20.8.59c20.76,6.56,41.05.3,59.66-9.68,22.18-11.89,40.43-28.56,58.35-45.73-1.72,29.14,3.75,58.6,12.65,86.31,7.74,23.64,18.6,48.4,36.07,66.63-7.6,2.37-17.81.23-24.28-1.81A66.85,66.85,0,0,1,122,765.11a60.32,60.32,0,0,1-19.67-47.91c.24-4.58.18-10-5.48-11.14-4-.81-6.32,2.1-9.16,4.23a60.11,60.11,0,0,1-12.33,7.19,70.58,70.58,0,0,1-28.54,5.59c-10.59,0-21.67-3.74-29.59-10.8C8.87,704.8,5.52,694.33,4.18,683.49c-.6,11.16,1.26,22.27,8.41,31.19,7.94,10.19,20,15.27,32.35,17.46,14.52,2.57,29.6-.07,42.84-6.38.23,15,3.92,29.38,13,42.15,12.85,18,33.69,31.06,55.83,33.51,12.69,1.41,26.66-.79,35.77-10.5,3.82-4.07,6.45-9.41,3.08-14.67-2.15-3.34-6-5.51-8.65-8.44-12.93-14.08-21.41-31.49-28.55-49.06a259.13,259.13,0,0,1-17.22-68.4,187.21,187.21,0,0,1-1.24-22.58c.09-7.1,1.36-14,1.82-21A8.28,8.28,0,0,0,132,597.53Z"/><path class="cls-3" d="M478.79,956.55c.54-21-10.46-42.59-29.88-51.8-19-9-41.54-5.28-53.65,12.72-5.53,8.22-8.82,19.24-5.6,29s12.42,13.34,21.93,12.34c-6.12-.74-12.61-3-15.63-8.84-3.13-6-1.5-13.47,1.39-19.23C404,917.46,418.2,910,432.7,914.12c26.89,7.58,36.06,43.71,17.9,63.34-18.16,17.76-43.78,21.15-67.71,14.67-19.7-5.33-35.34-16.44-45.71-34.26C310.47,912,325.67,854.53,356.54,815.05c-41.79,35.14-60.66,97.17-37,148,11.65,25,32.89,42,59.39,49.3,28.19,7.72,59.9,3.6,81.85-16.81A54.87,54.87,0,0,0,478.79,956.55Z"/><path class="cls-3" d="M726.11,192.47c13.28-16.38,11.9-39.61,3.32-57.87-9.56-20.34-31.51-30.71-51-39.44-26.31-11.8-54.3-21.69-76.41-40.86-16.24-14.08-25.36-31.72-30.63-51.51-.81-2-2.22-2-3,0-5.28,19.79-14.39,37.43-30.63,51.51-22.11,19.17-50.1,29.06-76.41,40.86-19.47,8.73-41.41,19.1-51,39.44-8.58,18.26-10,41.49,3.32,57.87,23.28,28.7,64.07,15.65,90.5-.07a156,156,0,0,0,47.47-43.5c10.81-15.33,19.64-33.88,16.93-53.07-2.39,26.53-23.12,48.44-43.19,64.06a164.62,164.62,0,0,1-37.28,22c-10.6,4.43-22.47,8.48-34.1,8.32-12.63-.17-25.19-6.33-28.58-19.31-2.27-8.91,0-18.25,3.34-26.58,7-17.22,29.64-26.32,45.53-34.15,24.27-11.95,49.38-24.17,68.68-43.5A69.38,69.38,0,0,1,530.59,79.8c-17.34,13.57-49.46,28.11-47.05,54.71.73,8.09,4.62,15.84,12.61,18.93,12.17,4.78,25.93-2.77,35.8-9.42a87,87,0,0,0,23.12-22.74c7.44-10.67,14.4-23.73,14.77-37.08l.18,0c.36,13.36,7.32,26.42,14.77,37.11A86.84,86.84,0,0,0,607.91,144c9.87,6.65,23.63,14.2,35.8,9.42,8-3.09,11.87-10.84,12.6-18.93,2.41-26.6-29.71-41.14-47-54.71A69.75,69.75,0,0,1,596.8,66.71c19.3,19.33,44.42,31.55,68.69,43.5C681.37,118,704,127.14,711,144.36c3.38,8.33,5.61,17.67,3.34,26.58-3.39,13-16,19.14-28.58,19.31-11.63.16-23.51-3.89-34.1-8.32a164.4,164.4,0,0,1-37.28-22c-20.07-15.62-40.8-37.53-43.19-64.06-2.71,19.19,6.12,37.74,16.92,53.07a156,156,0,0,0,47.48,43.5C662,208.12,702.83,221.17,726.11,192.47ZM617.88,110.13c6,5.1,18,13.48,17.72,22.47-.08.67-.26,1.37-.33,2-8,.78-17.81-5.9-24.19-9.69a74,74,0,0,1-11.37-8.32c-12.61-11.09-25.59-25.13-28.5-42.23a1.77,1.77,0,0,0-2.56,0c-2.92,17.1-15.9,31.14-28.51,42.23a73.92,73.92,0,0,1-11.36,8.32c-6.39,3.79-16.23,10.47-24.19,9.69-.07-.66-.25-1.36-.33-2-.23-9,11.73-17.37,17.71-22.47,8.24-7,17.6-13.49,24.16-22.2,12.33-15.75,22.78-66.75,23.8-72.5,1,5.75,11.47,56.75,23.8,72.5C600.29,96.64,609.64,103.13,617.88,110.13Z"/><path class="cls-3" d="M262.83,985.43c16.41,38.21,48.67,69.83,87.57,84.76,29.8,11.44,61.13,11.85,90.28-1.48-11.76,1.49-23.27,2.45-35.12,1.14a140.26,140.26,0,0,1-39.93-10.77c-24-10.26-45.55-27.13-62.13-47.25a163.83,163.83,0,0,1-24.13-38.76C267.76,948.73,266,921.2,270.18,895c2.79-17.35,10.6-33.14,18.43-48.65-16.28,15.65-34.47,30-56.56,36.24-20.27,5.75-51.45,4.55-59-19.7-3.67-11.5-4.58-27.58,10.07-31.74,7.52-2.14,16.68-.89,22.86,4.06s7.14,12.5,6.23,19.84c7.1-9.47,5.89-21.91-2.36-30.27-9.48-9.6-24.72-12.59-37.38-8.43-24.11,8.15-26.33,37.34-17.41,57.68,12,27.46,45.28,34.3,71.74,26.63a94.33,94.33,0,0,0,38-22.13,107,107,0,0,0-11.63,34.81A132.87,132.87,0,0,0,262.83,985.43Z"/><path class="cls-3" d="M337.92,250.93c36.55-13.13,76.07-12,112.5.8-31.75-30-84.43-35.6-123.85-18.59-16.76,7.22-30,19.59-41.59,33.45-8.91,10.65-16.87,22.05-26,32.52a163.09,163.09,0,0,1-24.15,22.17c24.82-5.42,42.93-22.83,60.75-39.82C308.67,269,321.4,258.27,337.92,250.93Z"/><path class="cls-3" d="M551.57,443.66c-7.89,9.87-15.92,18.69-27.09,25-18.9,10.69-45.2,16-66.52,10.83,7.73,10.71,23.37,14.87,35.84,15.93a72.79,72.79,0,0,0,44-10.42c23.85-14.63,36.24-44.23,30.85-71.58C562.88,423.54,558.1,434,551.57,443.66Z"/><path class="cls-3" d="M493.51,408.72c-5.63,1.39-9.31-3.39-11.79-7.47-6.49,8.08-.56,18.74,7.62,22.73,9.25,4.32,19.61,1.16,26.54-5.74,13.7-13.79,7.63-43.66-13.3-46.54,2.83,12.23,4.27,23.26-3.16,33.88C497.47,407,496,408.12,493.51,408.72Z"/><path class="cls-3" d="M255,666.05c-14.78-38.69-25.33-78.11-33.51-118.65-9.87,40.81-1.11,85.81,13.39,124.42,8.11,21.61,19,42.49,33,60.88,12.32,16.17,28.22,32.52,48.71,37.14-14.86-11-25-26.93-33.8-43C272,707.34,263.07,686.85,255,666.05Z"/><path class="cls-3" d="M419.71,957c5.93,4.59,14.16,5.32,20.33.62,7.73-5.89,8.85-17,4.84-25.41-4-8.2-12.49-14.32-21.85-13.37-7.3,1-13.16,6.26-13.76,13.82,8.74-.73,12.86.5,16.76,8.49,1.28,2.51,3.3,6,1.13,8.57C425.33,952.78,422.24,954.7,419.71,957Z"/><path class="cls-3" d="M336.81,912.59c2,23.65,14.59,57.71,42.57,59.75-16.52-16.63-20.85-40-21.9-62.75-1.11-24.11,1.87-48.55,15.29-69C344.09,848.77,334.6,886.55,336.81,912.59Z"/></g></svg>